<svg width="24" height="27" viewBox="0 0 24 27" fill="none" xmlns="http://www.w3.org/2000/svg">
<path d="M1.22461 1.03271C1.22461 1.85985 1.89489 2.53381 2.71751 2.53381V21.7723V22.3544C2.71751 22.7526 3.02219 23.059 3.41826 23.059H5.91659C7.40949 23.059 8.84146 23.5185 10.0602 24.3456L12.4976 25.9999L14.417 24.5601C15.6966 23.5798 17.2809 23.059 18.8652 23.059H21.2722C21.6682 23.059 21.9729 22.7526 21.9729 22.3544V21.7723V2.53381H22.1557C22.9783 2.53381 23.6486 1.85985 23.6486 1.03271H1.22461ZM13.503 23.3653L12.4366 24.1618L10.8828 23.0896C9.42034 22.0787 7.6837 21.5579 5.88612 21.5579H4.17995V16.8402H5.88612C7.37903 16.8402 8.81099 17.2997 10.0297 18.1268L12.4671 19.7811L14.3865 18.3412C15.6662 17.3609 17.2505 16.8402 18.8348 16.8402H20.4495V21.5579H18.8348C16.9458 21.5579 15.0568 22.2012 13.503 23.3653ZM11.614 11.0502V17.3609L10.9132 16.8708C10.4867 16.5644 10.0297 16.3194 9.54221 16.1049V11.0502H11.614ZM13.1069 11.0502H15.0263V16.221L15.2091 16.1356C14.5998 16.4113 14.0514 16.7483 13.503 17.1465L13.0764 17.4528V11.0502H13.1069ZM20.48 15.3391H18.8652C18.0731 15.3391 17.2809 15.4616 16.5192 15.676V11.0809H17.7684C18.591 11.0809 19.2613 10.4069 19.2613 9.57976H5.30724C5.30724 10.4069 5.97752 11.0809 6.80014 11.0809H8.04931V15.6454C7.34856 15.4616 6.64781 15.3697 5.91659 15.3697H4.21042V2.53381H20.48V15.3391Z" fill="#2678D9" stroke="#2678D9" stroke-width="0.5"/>
</svg>
