<svg width="22" height="22" viewBox="0 0 22 22" fill="none" xmlns="http://www.w3.org/2000/svg">
  <path d="M18.0284 3.83105V18.1701C18.0284 18.3442 17.9593 18.5111 17.8362 18.6342C17.7131 18.7572 17.5462 18.8264 17.3721 18.8264H7.1084C6.93435 18.8264 6.76743 18.7572 6.64436 18.6342C6.52129 18.5111 6.45215 18.3442 6.45215 18.1701V8.07699L10.0615 3.1748H17.3721C17.5462 3.1748 17.7131 3.24395 17.8362 3.36702C17.9593 3.49009 18.0284 3.65701 18.0284 3.83105Z" fill="white"/>
  <path d="M10.0617 3.18066V7.39051C10.0617 7.56456 9.99258 7.73148 9.86951 7.85455C9.74644 7.97762 9.57952 8.04676 9.40547 8.04676H6.46875L10.0617 3.18066Z" fill="#E8EDF2"/>
  <path d="M13.5923 12.1387H4.62793C4.26549 12.1387 3.97168 12.4325 3.97168 12.7949V16.0893C3.97168 16.4517 4.26549 16.7455 4.62793 16.7455H13.5923C13.9547 16.7455 14.2486 16.4517 14.2486 16.0893V12.7949C14.2486 12.4325 13.9547 12.1387 13.5923 12.1387Z" fill="#FF3717"/>
  <path d="M7.30531 14.7082V15.4169H6.73438V13.4711H7.52187C7.67515 13.4628 7.82843 13.4875 7.97141 13.5433C8.07317 13.5894 8.15886 13.6648 8.2175 13.7599C8.27685 13.8589 8.30752 13.9725 8.30609 14.088C8.30994 14.1718 8.2955 14.2554 8.26377 14.333C8.23204 14.4106 8.18378 14.4804 8.12234 14.5375C7.98557 14.6565 7.80791 14.7177 7.62687 14.7082H7.30531ZM7.30531 14.2914H7.49562C7.66297 14.2914 7.745 14.2258 7.745 14.0978C7.745 13.9699 7.66953 13.9141 7.51531 13.9141H7.30531V14.2914ZM8.51938 15.4169V13.4711H9.23797C9.36893 13.4613 9.50037 13.4823 9.62175 13.5324C9.74313 13.5825 9.85106 13.6605 9.93688 13.7599C10.0915 13.9496 10.174 14.1878 10.1698 14.4325C10.1837 14.6925 10.094 14.9473 9.92047 15.1413C9.83807 15.2326 9.73654 15.3047 9.62311 15.3523C9.50968 15.4 9.38714 15.422 9.26422 15.4169H8.51938ZM9.09031 14.9674H9.23797C9.28707 14.9665 9.33508 14.9527 9.37714 14.9274C9.4192 14.902 9.45382 14.866 9.4775 14.823C9.54623 14.7047 9.57928 14.5691 9.57266 14.4325C9.57523 14.3048 9.5459 14.1785 9.48734 14.065C9.46435 14.0188 9.4287 13.9801 9.38455 13.9534C9.3404 13.9267 9.28957 13.913 9.23797 13.9141H9.09031V14.9674ZM11.5709 14.6885H10.9672V15.4169H10.4127V13.4711H11.7547V13.9338H10.9672V14.2619H11.5709V14.6885Z" fill="#EDEEEF"/>
</svg>
