<svg width="18" height="18" viewBox="0 0 18 18" fill="none" xmlns="http://www.w3.org/2000/svg">
<path d="M12.4937 6.96473C13.5735 7.6396 14.1134 7.97704 14.2985 8.40906C14.4602 8.78637 14.4602 9.21347 14.2985 9.59078C14.1134 10.0228 13.5735 10.3602 12.4937 11.0351L7.422 14.2049C6.22354 14.954 5.62431 15.3285 5.1298 15.2887C4.69876 15.2541 4.30364 15.0351 4.0458 14.6879C3.75 14.2897 3.75 13.583 3.75 12.1697V5.83012C3.75 4.41683 3.75 3.71019 4.0458 3.31192C4.30364 2.96476 4.69876 2.74577 5.1298 2.71112C5.62431 2.67136 6.22354 3.04588 7.422 3.79492L12.4937 6.96473Z" stroke="#1C89C1" stroke-width="1.6" stroke-linejoin="round"/>
</svg>
