<svg width="0" height="0" class="hidden">
  <symbol fill="none" xmlns="http://www.w3.org/2000/svg" viewBox="0 0 24 24" id="money">
    <path d="M3 21H21M3 18H21M5.82333 3.00037C6.2383 3.36683 6.5 3.90285 6.5 4.5C6.5 5.60457 5.60457 6.5 4.5 6.5C3.90285 6.5 3.36683 6.2383 3.00037 5.82333M5.82333 3.00037C5.94144 3 6.06676 3 6.2 3H17.8C17.9332 3 18.0586 3 18.1767 3.00037M5.82333 3.00037C4.94852 3.00308 4.46895 3.02593 4.09202 3.21799C3.71569 3.40973 3.40973 3.71569 3.21799 4.09202C3.02593 4.46895 3.00308 4.94852 3.00037 5.82333M3.00037 5.82333C3 5.94144 3 6.06676 3 6.2V11.8C3 11.9332 3 12.0586 3.00037 12.1767M3.00037 12.1767C3.36683 11.7617 3.90285 11.5 4.5 11.5C5.60457 11.5 6.5 12.3954 6.5 13.5C6.5 14.0971 6.2383 14.6332 5.82333 14.9996M3.00037 12.1767C3.00308 13.0515 3.02593 13.531 3.21799 13.908C3.40973 14.2843 3.71569 14.5903 4.09202 14.782C4.46895 14.9741 4.94852 14.9969 5.82333 14.9996M5.82333 14.9996C5.94144 15 6.06676 15 6.2 15H17.8C17.9332 15 18.0586 15 18.1767 14.9996M21 12.1771C20.6335 11.7619 20.0973 11.5 19.5 11.5C18.3954 11.5 17.5 12.3954 17.5 13.5C17.5 14.0971 17.7617 14.6332 18.1767 14.9996M21 12.1771C21.0004 12.0589 21 11.9334 21 11.8V6.2C21 6.06676 21 5.94144 20.9996 5.82333M21 12.1771C20.9973 13.0516 20.974 13.5311 20.782 13.908C20.5903 14.2843 20.2843 14.5903 19.908 14.782C19.5311 14.9741 19.0515 14.9969 18.1767 14.9996M20.9996 5.82333C20.6332 6.2383 20.0971 6.5 19.5 6.5C18.3954 6.5 17.5 5.60457 17.5 4.5C17.5 3.90285 17.7617 3.36683 18.1767 3.00037M20.9996 5.82333C20.9969 4.94852 20.9741 4.46895 20.782 4.09202C20.5903 3.71569 20.2843 3.40973 19.908 3.21799C19.5311 3.02593 19.0515 3.00308 18.1767 3.00037M14 9C14 10.1046 13.1046 11 12 11C10.8954 11 10 10.1046 10 9C10 7.89543 10.8954 7 12 7C13.1046 7 14 7.89543 14 9Z" stroke="#26D999" stroke-width="2" stroke-linecap="round" stroke-linejoin="round"></path>
  </symbol>
  <symbol width="18" height="18" viewBox="0 0 18 18" fill="none" xmlns="http://www.w3.org/2000/svg" id="arrow-right">
    <path d="M3.75 9H14.25M14.25 9L9.75 4.5M14.25 9L9.75 13.5" stroke="white" stroke-width="1.6" stroke-linecap="round" stroke-linejoin="round"/>
  </symbol>
  <symbol width="18" height="18" viewBox="0 0 20 20" fill="none" xmlns="http://www.w3.org/2000/svg" id="time">
    <path d="M10 5V10L7.5 8.5M19 10C19 14.9706 14.9706 19 10 19C5.02944 19 1 14.9706 1 10C1 5.02944 5.02944 1 10 1C14.9706 1 19 5.02944 19 10Z" stroke="#2678D9" stroke-width="2" stroke-linecap="round" stroke-linejoin="round"/>
  </symbol>
  <symbol width="32" height="32" viewBox="0 0 32 32" fill="none" xmlns="http://www.w3.org/2000/svg" id="grant-icon">
    <path d="M1.62988 0C1.62988 1.06012 2.48897 1.92393 3.54331 1.92393V26.5816V27.3276C3.54331 27.8381 3.93381 28.2307 4.44145 28.2307H7.64352C9.55695 28.2307 11.3923 28.8197 12.9543 29.8798L16.0782 32L18.5384 30.1546C20.1784 28.8982 22.209 28.2307 24.2396 28.2307H27.3245C27.8322 28.2307 28.2227 27.8381 28.2227 27.3276V26.5816V1.92393H28.457C29.5113 1.92393 30.3704 1.06012 30.3704 0H1.62988Z" fill="#2678D9"/>
  </symbol>
  <symbol width="18" height="18" viewBox="0 0 18 18" fill="none" xmlns="http://www.w3.org/2000/svg" id="arrow">
    <path d="M5.25 12.75L12.75 5.25M12.75 5.25H6M12.75 5.25V12" stroke="#BDC5CE" stroke-width="1.6" stroke-linecap="round" stroke-linejoin="round"/>
  </symbol>
  <symbol width="24" height="27" viewBox="0 0 24 27" fill="none" xmlns="http://www.w3.org/2000/svg" id="logo-without-icon">
    <path d="M1.22461 1.03271C1.22461 1.85985 1.89489 2.53381 2.71751 2.53381V21.7723V22.3544C2.71751 22.7526 3.02219 23.059 3.41826 23.059H5.91659C7.40949 23.059 8.84146 23.5185 10.0602 24.3456L12.4976 25.9999L14.417 24.5601C15.6966 23.5798 17.2809 23.059 18.8652 23.059H21.2722C21.6682 23.059 21.9729 22.7526 21.9729 22.3544V21.7723V2.53381H22.1557C22.9783 2.53381 23.6486 1.85985 23.6486 1.03271H1.22461ZM13.503 23.3653L12.4366 24.1618L10.8828 23.0896C9.42034 22.0787 7.6837 21.5579 5.88612 21.5579H4.17995V16.8402H5.88612C7.37903 16.8402 8.81099 17.2997 10.0297 18.1268L12.4671 19.7811L14.3865 18.3412C15.6662 17.3609 17.2505 16.8402 18.8348 16.8402H20.4495V21.5579H18.8348C16.9458 21.5579 15.0568 22.2012 13.503 23.3653ZM11.614 11.0502V17.3609L10.9132 16.8708C10.4867 16.5644 10.0297 16.3194 9.54221 16.1049V11.0502H11.614ZM13.1069 11.0502H15.0263V16.221L15.2091 16.1356C14.5998 16.4113 14.0514 16.7483 13.503 17.1465L13.0764 17.4528V11.0502H13.1069ZM20.48 15.3391H18.8652C18.0731 15.3391 17.2809 15.4616 16.5192 15.676V11.0809H17.7684C18.591 11.0809 19.2613 10.4069 19.2613 9.57976H5.30724C5.30724 10.4069 5.97752 11.0809 6.80014 11.0809H8.04931V15.6454C7.34856 15.4616 6.64781 15.3697 5.91659 15.3697H4.21042V2.53381H20.48V15.3391Z" fill="#2678D9" stroke="#2678D9" stroke-width="0.5"/>
  </symbol>
  <symbol xmlns="http://www.w3.org/2000/svg" viewBox="0 0 28 27" fill="none" id="circle">
    <circle cx="14" cy="11.5" r="8" fill="#2678D9"/>
    <g filter="url(#filter0_d_1322_17791)">
      <circle cx="14.0003" cy="11.5001" r="5.33333" fill="white"/>
    </g>
    <defs>
      <filter id="filter0_d_1322_17791" x="0.666992" y="0.166748" width="26.667" height="26.6667" filterUnits="userSpaceOnUse" color-interpolation-filters="sRGB">
        <feFlood flood-opacity="0" result="BackgroundImageFix"/>
        <feColorMatrix in="SourceAlpha" type="matrix" values="0 0 0 0 0 0 0 0 0 0 0 0 0 0 0 0 0 0 127 0" result="hardAlpha"/>
        <feOffset dy="2"/>
        <feGaussianBlur stdDeviation="4"/>
        <feComposite in2="hardAlpha" operator="out"/>
        <feColorMatrix type="matrix" values="0 0 0 0 1 0 0 0 0 1 0 0 0 0 1 0 0 0 0.6 0"/>
        <feBlend mode="normal" in2="BackgroundImageFix" result="effect1_dropShadow_1322_17791"/>
        <feBlend mode="normal" in="SourceGraphic" in2="effect1_dropShadow_1322_17791" result="shape"/>
      </filter>
    </defs>
  </symbol>
  <symbol width="18" height="18" viewBox="0 0 18 18" fill="none" xmlns="http://www.w3.org/2000/svg" id="down">
    <path d="M4.5 6.75L9 11.25L13.5 6.75" stroke="currentColor" stroke-width="1.6" stroke-linecap="round" stroke-linejoin="round"/>
  </symbol>
</svg>
