<svg
  xmlns="http://www.w3.org/2000/svg"
  width="20"
  height="20"
  viewBox="0 0 20 20"
  fill="none"
>
  <path
    d="M2.5 6.66797L7.0416 9.6957C8.11079 10.4085 8.64539 10.7649 9.22321 10.9034C9.73384 11.0257 10.2662 11.0257 10.7768 10.9034C11.3546 10.7649 11.8892 10.4085 12.9584 9.6957L17.5 6.66797M5.16667 15.8346H14.8333C15.7668 15.8346 16.2335 15.8346 16.59 15.653C16.9036 15.4932 17.1586 15.2382 17.3183 14.9246C17.5 14.5681 17.5 14.1014 17.5 13.168V6.83464C17.5 5.90121 17.5 5.4345 17.3183 5.07798C17.1586 4.76438 16.9036 4.50941 16.59 4.34962C16.2335 4.16797 15.7668 4.16797 14.8333 4.16797H5.16667C4.23325 4.16797 3.76654 4.16797 3.41002 4.34962C3.09641 4.50941 2.84144 4.76438 2.68166 5.07798C2.5 5.4345 2.5 5.90121 2.5 6.83464V13.168C2.5 14.1014 2.5 14.5681 2.68166 14.9246C2.84144 15.2382 3.09641 15.4932 3.41002 15.653C3.76654 15.8346 4.23325 15.8346 5.16667 15.8346Z"
    stroke="#1C89C1"
    stroke-width="1.5"
    stroke-linecap="round"
    stroke-linejoin="round"
  />
</svg>
