<svg width="440" height="226" viewBox="0 0 440 226" fill="none" xmlns="http://www.w3.org/2000/svg">
<g opacity="0.1">
<path d="M0 -229C0 -211.778 14.0137 -197.745 31.2123 -197.745H526.788C543.986 -197.745 558 -211.778 558 -229H0Z" fill="url(#paint0_linear_1321_25415)"/>
<path d="M46.5044 -165.854C46.5044 -148.632 60.5181 -134.599 77.7167 -134.599V278.095C77.7167 286.387 84.0866 292.766 92.3674 292.766H144.6C175.813 292.766 205.751 302.333 231.23 319.556L282.189 354L322.319 324.021C349.073 303.609 382.196 292.766 415.319 292.766H465.641C473.922 292.766 480.292 286.387 480.292 278.095V-134.599H484.114C501.313 -134.599 515.326 -148.632 515.326 -165.854H46.5044ZM303.21 299.144L280.915 315.729L248.429 293.403C217.854 272.354 181.545 261.511 143.963 261.511H108.292V163.28H143.963C175.176 163.28 205.114 172.848 230.593 190.07L281.552 224.515L321.682 194.535C348.436 174.124 381.559 163.28 414.683 163.28H448.443V261.511H414.683C375.189 261.511 335.696 274.906 303.21 299.144ZM263.717 42.7253V174.124L249.066 163.918C240.148 157.54 230.593 152.437 220.402 147.972V42.7253H263.717ZM335.059 42.7253V150.388L338.881 148.61C326.141 154.35 314.676 161.367 303.21 169.659L294.292 176.038V42.7253H335.059ZM449.08 132.025H415.319C398.758 132.025 382.196 134.577 366.272 139.042V43.3632H392.388C409.587 43.3632 423.6 29.3302 423.6 12.1081H131.861C131.861 29.3302 145.874 43.3632 163.073 43.3632H189.189V138.404C174.539 134.577 159.888 132.663 144.6 132.663H108.929V-134.599H449.08V132.025Z" fill="url(#paint1_linear_1321_25415)"/>
</g>
<defs>
<linearGradient id="paint0_linear_1321_25415" x1="280.915" y1="-229" x2="280.915" y2="249.435" gradientUnits="userSpaceOnUse">
<stop stop-color="#144176"/>
<stop offset="1" stop-color="#144176" stop-opacity="0"/>
</linearGradient>
<linearGradient id="paint1_linear_1321_25415" x1="280.915" y1="-229" x2="280.915" y2="249.435" gradientUnits="userSpaceOnUse">
<stop stop-color="#144176"/>
<stop offset="1" stop-color="#144176" stop-opacity="0"/>
</linearGradient>
</defs>
</svg>
