<svg width="24" height="25" viewBox="0 0 24 25" fill="none" xmlns="http://www.w3.org/2000/svg">
<g clip-path="url(#clip0)">
<path d="M21.987 20.2417H2.01278C1.11488 20.2417 0.386963 19.5138 0.386963 18.6158V6.38363C0.386963 5.48573 1.11484 4.75781 2.01278 4.75781H21.9869C22.8848 4.75781 23.6127 5.48569 23.6127 6.38363V18.6158C23.6127 19.5137 22.8849 20.2417 21.987 20.2417Z" fill="#103B9B"/>
<path d="M21.9356 4.75781H19.8446L12.0002 9.98747L4.15563 4.75781H1.84099C1.03811 4.75781 0.387207 5.40872 0.387207 6.21159V7.27008L8.23174 12.4997L0.387301 17.7294V18.6158C0.387301 19.5137 1.11518 20.2417 2.01311 20.2417H4.15563L12.0002 15.012L19.8447 20.2416H22.0389C22.9083 20.2416 23.6131 19.5368 23.6131 18.6674V17.7293L15.7685 12.4997L23.6131 7.27008V6.43523C23.613 5.5088 22.862 4.75781 21.9356 4.75781Z" fill="white"/>
<path d="M0.975666 19.8497C1.26484 20.0943 1.63857 20.2421 2.04704 20.2421H2.89918L13.256 13.3376L23.024 19.8497L23.6122 18.6042C23.6122 18.6037 23.6122 18.6032 23.6122 18.6027L13.2414 11.6725L23.024 5.15079C22.7348 4.90614 22.3611 4.7583 21.9526 4.7583H21.1004L10.7443 11.6632L0.975666 5.15079C0.615713 5.45529 0.386963 5.91011 0.386963 6.41852V6.43432L10.7304 13.3465L0.975666 19.8497Z" fill="#ED1F34"/>
<path d="M10.7446 12.0502C10.6697 12.0502 10.5949 12.0285 10.5299 11.9852L0.761263 5.47274C0.583419 5.35419 0.535325 5.11382 0.653919 4.93597C0.772466 4.75813 1.01289 4.71008 1.19068 4.82863L10.7446 11.1979L20.8861 4.43615C21.0639 4.31755 21.3043 4.36565 21.4228 4.54349C21.5414 4.72133 21.4933 4.96171 21.3155 5.0803L10.9593 11.9851C10.8943 12.0285 10.8194 12.0502 10.7446 12.0502Z" fill="#121B21"/>
<path d="M23.6125 18.9902C23.5386 18.9902 23.4639 18.9691 23.3979 18.9249L13.0265 11.9943C12.9189 11.9224 12.8544 11.8016 12.8545 11.6722C12.8545 11.5428 12.9193 11.4221 13.0269 11.3504L22.8094 4.8287C22.9873 4.71016 23.2276 4.7582 23.3462 4.93605C23.4648 5.11389 23.4167 5.35427 23.2389 5.47286L13.9389 11.6728L23.828 18.2811C24.0057 18.4 24.0535 18.6403 23.9347 18.818C23.8601 18.9298 23.7375 18.9902 23.6125 18.9902Z" fill="#121B21"/>
<path d="M2.89967 20.629C2.77456 20.629 2.65184 20.5684 2.57726 20.4565C2.45867 20.2787 2.50676 20.0383 2.6846 19.9197L13.0413 13.0152C13.1714 12.9285 13.3407 12.9285 13.4707 13.0152L23.2388 19.5272C23.4167 19.6458 23.4648 19.8861 23.3462 20.064C23.2276 20.2419 22.9872 20.2899 22.8094 20.1714L13.2561 13.8026L3.11407 20.5639C3.04802 20.6079 2.97345 20.629 2.89967 20.629Z" fill="#121B21"/>
<path d="M0.976195 20.237C0.851086 20.237 0.728367 20.1764 0.653789 20.0645C0.535195 19.8867 0.583289 19.6463 0.761133 19.5277L10.0333 13.3463L0.172055 6.75634C-0.00569517 6.63751 -0.0535077 6.39718 0.0653205 6.21943C0.184008 6.04168 0.424477 5.99387 0.60218 6.11265L10.9456 13.0249C11.0531 13.0968 11.1176 13.2176 11.1176 13.347C11.1176 13.4763 11.0528 13.5971 10.9452 13.6688L1.19055 20.172C1.1246 20.2159 1.04998 20.237 0.976195 20.237Z" fill="#121B21"/>
<path d="M23.6129 10.4094H14.0904V4.75781H9.90977V10.4094H0.387207V14.59H9.90977V20.2417H14.0904V14.59H23.6129V10.4094Z" fill="white"/>
<path d="M23.6129 11.3771H13.1226V4.75781H10.8775V11.3771H0.387207V13.6223H10.8775V20.2417H13.1226V13.6223H23.6129V11.3771Z" fill="#ED1F34"/>
<path d="M21.9526 4.37109H2.04731C0.918422 4.37109 0 5.28947 0 6.41841V18.5819C0 19.7107 0.918469 20.6292 2.04731 20.6292H21.9526C23.0815 20.6292 23.9999 19.7108 23.9999 18.5819V6.41836C23.9999 5.28947 23.0815 4.37109 21.9526 4.37109ZM23.2257 6.41836V10.9904H13.5096V5.14528H21.9526C22.6546 5.14528 23.2257 5.71636 23.2257 6.41836ZM2.04731 5.14528H10.4903V10.9905H0.774187V6.41845C0.774187 5.71636 1.34527 5.14528 2.04731 5.14528ZM0.774187 18.5818V14.0098H10.4903V19.8549H2.04731C1.34527 19.8549 0.774187 19.2838 0.774187 18.5818ZM21.9526 19.8549H13.5096V14.0098H20.5161C20.7299 14.0098 20.9032 13.8365 20.9032 13.6227C20.9032 13.4089 20.7299 13.2356 20.5161 13.2356H13.1225C12.9087 13.2356 12.7354 13.4089 12.7354 13.6227V19.8549H11.2645V13.6227C11.2645 13.4089 11.0912 13.2356 10.8774 13.2356H0.774187V11.7646H10.8774C11.0912 11.7646 11.2645 11.5913 11.2645 11.3775V5.14528H12.7355V11.3775C12.7355 11.5913 12.9087 11.7646 13.1226 11.7646H23.2258V13.2356H22.0645C21.8506 13.2356 21.6774 13.4089 21.6774 13.6227C21.6774 13.8365 21.8506 14.0098 22.0645 14.0098H23.2258V18.5818C23.2257 19.2838 22.6546 19.8549 21.9526 19.8549Z" fill="#121B21"/>
</g>
<defs>
<clipPath id="clip0">
<rect width="24" height="24" fill="white" transform="translate(0 0.5)"/>
</clipPath>
</defs>
</svg>
