<svg width="215" height="44" viewBox="0 0 215 44" fill="none" xmlns="http://www.w3.org/2000/svg">
<path d="M0 0C0 1.28477 1.0551 2.33162 2.34999 2.33162H39.6621C40.957 2.33162 42.0121 1.28477 42.0121 0H0Z" fill="white"/>
<path d="M3.50146 4.71094C3.50146 5.99571 4.55656 7.04256 5.85146 7.04256V36.9254V37.8295C5.85146 38.4481 6.33105 38.924 6.95452 38.924H10.8872C13.2372 38.924 15.4912 39.6377 17.4096 40.9225L21.2463 43.492L24.2677 41.2556C26.282 39.7329 28.7759 38.924 31.2698 38.924H35.0585C35.682 38.924 36.1616 38.4481 36.1616 37.8295V36.9254V7.04256H36.4493C37.7442 7.04256 38.7993 5.99571 38.7993 4.71094H3.50146ZM22.829 39.3998L21.1504 40.637L18.7045 38.9715C16.4025 37.4013 13.6688 36.5923 10.8392 36.5923H8.15349V29.2644H10.8392C13.1892 29.2644 15.4433 29.9781 17.3616 31.2629L21.1984 33.8324L24.2198 31.596C26.2341 30.0733 28.7279 29.2644 31.2218 29.2644H33.7636V36.5923H31.2218C28.2483 36.5923 25.2749 37.5916 22.829 39.3998ZM19.8555 20.271V30.0733L18.7524 29.3119C18.081 28.8361 17.3616 28.4554 16.5943 28.1223V20.271H19.8555ZM22.2055 20.271H25.2269V28.3026L25.5147 28.1699C24.5555 28.5982 23.6922 29.1216 22.829 29.7402L22.1575 30.216V20.271H22.2055ZM33.8116 26.9327H31.2698C30.0228 26.9327 28.7759 27.1231 27.5769 27.4562V20.3185H29.5432C30.8381 20.3185 31.8932 19.2717 31.8932 17.9869H9.92798C9.92798 19.2717 10.9831 20.3185 12.278 20.3185H14.2443V27.4086C13.1412 27.1231 12.0382 26.9803 10.8872 26.9803H8.20145V7.04256H33.8116V26.9327Z" fill="white"/>
<path d="M14.1484 14.7514H15.3474V11.1825H17.2178V14.7514H18.8964C19.6157 14.7514 20.1913 14.561 20.5749 14.1803C20.9586 13.7997 21.1504 13.2287 21.1504 12.5149V12.2294C21.1504 11.5632 20.9586 10.9922 20.5749 10.6115C20.1913 10.2309 19.6157 10.0405 18.8964 10.0405H17.3617H17.2178H12.8535V11.1825H14.1484V14.7514ZM18.4168 11.1825H18.8484C19.2321 11.1825 19.4719 11.2777 19.6637 11.4205C19.8076 11.5632 19.9035 11.8487 19.9035 12.2294V12.5149C19.9035 12.9432 19.8076 13.2287 19.6637 13.3714C19.5198 13.5142 19.2321 13.6093 18.8484 13.6093H18.4168V11.1825Z" fill="#D3E7FF"/>
<path d="M23.1165 10.0405H21.9175V14.7514H23.1165V10.0405Z" fill="#D3E7FF"/>
<path d="M24.4116 14.2753C24.6034 14.4656 24.7953 14.5608 25.0351 14.656C25.2749 14.7511 25.5626 14.7987 25.8504 14.7987C26.1381 14.7987 26.4259 14.7511 26.6657 14.656C26.9055 14.5608 27.0973 14.418 27.2892 14.2753C27.481 14.085 27.5769 13.8946 27.6728 13.6567C27.7687 13.4188 27.8167 13.1333 27.8167 12.8478V10.0879H26.6177V12.8478C26.6177 13.1809 26.5698 13.4188 26.4259 13.514C26.282 13.6567 26.1381 13.7043 25.8983 13.7043C25.6585 13.7043 25.4667 13.6567 25.3708 13.514C25.2269 13.3712 25.179 13.1333 25.179 12.8478V10.0879H23.98V12.8478C23.98 13.1333 24.0279 13.4188 24.1239 13.6567C24.1239 13.8946 24.2198 14.085 24.4116 14.2753Z" fill="#D3E7FF"/>
<path d="M54.5297 6.94727L54.3379 8.61271H52.0838V16.0358H49.9257V8.61271H47.5757V6.94727H54.5297Z" fill="#D3E7FF"/>
<path d="M61.9638 7.99434C62.6831 8.80327 63.0668 9.99288 63.0668 11.5156C63.0668 12.5148 62.9229 13.3714 62.5872 14.0851C62.2515 14.7989 61.7719 15.3699 61.1485 15.7506C60.525 16.1312 59.8056 16.3216 58.9423 16.3216C58.0791 16.3216 57.3597 16.1312 56.7362 15.7506C56.1128 15.3699 55.6332 14.8465 55.2975 14.1327C54.9617 13.4189 54.8179 12.5624 54.8179 11.5632C54.8179 10.5639 54.9617 9.75496 55.2975 9.04119C55.6332 8.32743 56.1128 7.75642 56.7362 7.37575C57.3597 6.99507 58.0791 6.80474 58.9423 6.80474C60.2372 6.75715 61.2444 7.13783 61.9638 7.99434ZM57.5036 9.08878C57.2158 9.6122 57.024 10.4211 57.024 11.5156C57.024 12.6576 57.1679 13.4665 57.5036 13.9424C57.7913 14.4658 58.2709 14.7037 58.8944 14.7037C59.5179 14.7037 59.9974 14.4658 60.2852 13.9424C60.5729 13.4189 60.7648 12.61 60.7648 11.5156C60.7648 10.4211 60.6209 9.56462 60.2852 9.08878C59.9974 8.61294 59.5179 8.32743 58.8944 8.32743C58.2709 8.32743 57.8393 8.56535 57.5036 9.08878Z" fill="#D3E7FF"/>
<path d="M69.3492 7.04261C69.8767 7.23295 70.3083 7.51845 70.74 7.89913L69.7328 9.08873C69.1094 8.56531 68.4379 8.32739 67.7186 8.32739C67.3349 8.32739 67.0471 8.42255 66.8073 8.56531C66.5675 8.70806 66.4716 8.94598 66.4716 9.23148C66.4716 9.42182 66.5196 9.61216 66.6155 9.70733C66.7114 9.85008 66.9033 9.94525 67.1431 10.088C67.3828 10.1832 67.7665 10.3259 68.2461 10.5163C69.1573 10.8018 69.8767 11.1824 70.3084 11.6107C70.74 12.0389 70.9798 12.6575 70.9798 13.4665C70.9798 14.0375 70.8359 14.5133 70.5481 14.9892C70.2604 15.4174 69.8288 15.7505 69.3012 15.9884C68.7737 16.2264 68.1022 16.3691 67.3349 16.3691C66.5675 16.3691 65.9441 16.2739 65.3686 16.036C64.7931 15.7981 64.3135 15.465 63.8818 15.0843L64.9849 13.8947C65.3206 14.1802 65.7043 14.4182 66.088 14.5609C66.4716 14.7037 66.8553 14.7988 67.2869 14.7988C67.7186 14.7988 68.1022 14.7037 68.342 14.5133C68.5818 14.323 68.7257 14.0375 68.7257 13.7044C68.7257 13.4665 68.6777 13.2761 68.5818 13.1334C68.4859 12.9906 68.2941 12.8479 68.1022 12.7051C67.8624 12.5624 67.5267 12.4672 67.0951 12.3245C66.088 12.0389 65.3686 11.6583 64.9369 11.1824C64.5053 10.7066 64.3135 10.1832 64.3135 9.46941C64.3135 8.94598 64.4573 8.47014 64.7451 8.08946C65.0329 7.70879 65.4165 7.3757 65.9441 7.18537C66.4237 6.99503 66.9992 6.85228 67.6706 6.85228C68.2461 6.75711 68.8216 6.85228 69.3492 7.04261Z" fill="#D3E7FF"/>
<path d="M77.3108 16.0363V12.1344H74.5771V16.0363H72.4189V6.94775H74.5771V10.469H77.3108V6.94775H79.4689V16.0363H77.3108Z" fill="#D3E7FF"/>
<path d="M83.6411 6.94775V16.0363H81.4829V6.94775H83.6411ZM88.8686 6.94775L85.9431 11.04L89.1084 16.0363H86.6145L83.689 11.1827L86.6145 6.94775H88.8686Z" fill="#D3E7FF"/>
<path d="M95.6791 6.94775L95.4393 8.47045H92.226V10.6593H95.0556V12.182H92.226V14.5136H95.6791V16.0839H90.0679V6.94775H95.6791Z" fill="#D3E7FF"/>
<path d="M104.311 16.0363H101.53L98.8918 8.99387C98.9878 9.70764 99.0357 10.2786 99.0837 10.8021C99.1316 11.3255 99.1796 11.9441 99.1796 12.7054V16.0363H97.2612V6.94775H99.9469L102.633 13.9902C102.441 12.8006 102.345 11.6586 102.345 10.6117V6.94775H104.311V16.0363Z" fill="#D3E7FF"/>
<path d="M112.561 6.94775L112.369 8.6132H110.115V16.0363H107.909V8.6132H105.559V6.94775H112.561Z" fill="#D3E7FF"/>
<path d="M126.469 7.94702C127.332 8.6132 127.763 9.75522 127.763 11.4683C127.763 13.1337 127.332 14.3233 126.516 15.0371C125.653 15.7032 124.55 16.0839 123.207 16.0839H120.474V6.94775H123.015C124.406 6.94775 125.557 7.28084 126.469 7.94702ZM122.584 8.51803V14.4661H123.303C124.023 14.4661 124.55 14.2281 124.934 13.7999C125.317 13.3716 125.509 12.5627 125.509 11.4207C125.509 10.6593 125.413 10.0407 125.222 9.61247C125.03 9.18421 124.79 8.8987 124.454 8.70837C124.119 8.56562 123.735 8.47045 123.255 8.47045H122.584V8.51803Z" fill="#D3E7FF"/>
<path d="M133.998 16.0363L133.518 14.0854H130.832L130.353 16.0363H128.099L130.88 6.94775H133.518L136.3 16.0363H133.998ZM131.216 12.5151H133.134L132.175 8.51803L131.216 12.5151Z" fill="#D3E7FF"/>
<path d="M143.829 6.94775L141.287 16.0363H138.601L135.963 6.94775H138.265L139.992 14.3709L141.623 6.94775H143.829Z" fill="#D3E7FF"/>
<path d="M146.899 6.94775V14.3233H150.448L150.209 16.0363H144.693V6.94775H146.899Z" fill="#D3E7FF"/>
<path d="M156.587 16.0363L156.108 14.0854H153.47L152.99 16.0363H150.736L153.518 6.94775H156.156L158.937 16.0363H156.587ZM153.854 12.5151H155.772L154.813 8.51803L153.854 12.5151Z" fill="#D3E7FF"/>
<path d="M165.459 6.94727L165.267 8.61271H163.013V16.0358H160.855V8.61271H158.505V6.94727H165.459Z" fill="#D3E7FF"/>
<path d="M50.4526 22.6978V31.7863H48.2944V22.6978H50.4526Z" fill="#D3E7FF"/>
<path d="M59.5653 31.4058C59.997 31.5485 60.3806 31.7389 60.7643 32.0244L59.4694 33.7374C58.9898 33.1664 58.4623 32.7381 57.9347 32.4526C57.4072 32.1671 56.7357 31.9768 55.9684 31.9768C55.1531 31.9768 54.4337 31.7865 53.8582 31.4058C53.2827 31.0251 52.8031 30.5017 52.4674 29.7879C52.1317 29.0742 51.9878 28.2176 51.9878 27.2184C51.9878 26.2191 52.1317 25.4102 52.4674 24.6964C52.8031 23.9827 53.2827 23.4116 53.9062 23.031C54.5296 22.6503 55.249 22.46 56.1123 22.46C57.4072 22.46 58.4143 22.8882 59.1817 23.6971C59.901 24.5061 60.2847 25.6957 60.2847 27.2184C60.2847 29.0742 59.5653 30.4065 58.1265 31.1679C58.6541 31.2155 59.1816 31.263 59.5653 31.4058ZM54.7215 29.6928C55.0092 30.2162 55.4888 30.4541 56.1123 30.4541C56.7357 30.4541 57.2153 30.2162 57.5031 29.6928C57.7908 29.1693 57.9827 28.3604 57.9827 27.266C57.9827 26.1715 57.8388 25.315 57.5031 24.8392C57.2153 24.3633 56.7357 24.0778 56.1123 24.0778C55.4888 24.0778 55.0092 24.3157 54.7215 24.8392C54.4337 25.3626 54.2419 26.1715 54.2419 27.266C54.2419 28.3604 54.4337 29.1693 54.7215 29.6928Z" fill="#D3E7FF"/>
<path d="M67.5742 22.6978L67.3823 24.3632H65.1283V31.7863H62.9701V24.3632H60.6201V22.6978H67.5742Z" fill="#D3E7FF"/>
<path d="M70.8837 22.6978V31.7863H68.7256V22.6978H70.8837Z" fill="#D3E7FF"/>
<path d="M77.5494 22.7452C78.0769 22.9356 78.5085 23.2211 78.9402 23.6018L77.933 24.7914C77.3096 24.2679 76.6381 24.03 75.9188 24.03C75.5351 24.03 75.2473 24.1252 75.0075 24.2679C74.7677 24.4107 74.6718 24.6486 74.6718 24.9341C74.6718 25.1245 74.7198 25.3148 74.8157 25.41C74.9116 25.5527 75.1035 25.6479 75.3432 25.7906C75.583 25.8858 75.9667 26.0286 76.4463 26.2189C77.3575 26.5044 78.0769 26.8851 78.5085 27.3133C78.9402 27.7416 79.18 28.3602 79.18 29.1691C79.18 29.7401 79.0361 30.216 78.7483 30.6918C78.4606 31.1201 78.029 31.4532 77.5014 31.6911C76.9739 31.929 76.3024 32.0717 75.5351 32.0717C74.7677 32.0717 74.1443 31.9766 73.5688 31.7387C72.9932 31.5007 72.5137 31.1676 72.082 30.787L73.1851 29.5974C73.5208 29.8829 73.9045 30.1208 74.2881 30.2635C74.6718 30.4063 75.0555 30.5015 75.4871 30.5015C75.9188 30.5015 76.3024 30.4063 76.5422 30.216C76.782 30.0256 76.9259 29.7401 76.9259 29.407C76.9259 29.1691 76.8779 28.9788 76.782 28.836C76.6861 28.6933 76.4943 28.5505 76.3024 28.4078C76.0626 28.265 75.7269 28.1698 75.2953 28.0271C74.2881 27.7416 73.5688 27.3609 73.1371 26.8851C72.7055 26.4092 72.5137 25.8858 72.5137 25.172C72.5137 24.6486 72.6575 24.1728 72.9453 23.7921C73.233 23.4114 73.6167 23.0783 74.1443 22.888C74.6239 22.6977 75.1994 22.5549 75.8708 22.5549C76.4463 22.4597 77.0698 22.5549 77.5494 22.7452Z" fill="#D3E7FF"/>
<path d="M87.3808 23.7446C88.1002 24.5536 88.4838 25.7432 88.4838 27.2659C88.4838 28.2651 88.34 29.1217 88.0042 29.8354C87.6685 30.5492 87.1889 31.1202 86.5655 31.5009C85.942 31.8815 85.2226 32.0719 84.3593 32.0719C83.4961 32.0719 82.7767 31.8815 82.1532 31.5009C81.5298 31.1202 81.0502 30.5968 80.7145 29.883C80.3787 29.1692 80.2349 28.3127 80.2349 27.3135C80.2349 26.3142 80.3787 25.5053 80.7145 24.7915C81.0502 24.0777 81.5298 23.5067 82.1532 23.1261C82.7767 22.7454 83.4961 22.555 84.3593 22.555C85.6542 22.4599 86.6614 22.8881 87.3808 23.7446ZM82.9206 24.7915C82.6328 25.3149 82.441 26.1239 82.441 27.2183C82.441 28.3603 82.5849 29.1692 82.9206 29.6451C83.2083 30.1685 83.6879 30.4064 84.3114 30.4064C84.9349 30.4064 85.4144 30.1685 85.7022 29.6451C85.99 29.1217 86.1818 28.3127 86.1818 27.2183C86.1818 26.1239 86.0379 25.2673 85.7022 24.7915C85.4144 24.3157 84.9349 24.0302 84.3114 24.0302C83.6879 24.0302 83.2563 24.3157 82.9206 24.7915Z" fill="#D3E7FF"/>
<path d="M96.0139 23.6494C96.8772 24.3156 97.3088 25.4576 97.3088 27.1707C97.3088 28.8361 96.8772 30.0257 96.0619 30.7395C95.1986 31.4057 94.0956 31.7863 92.7527 31.7863H90.019V22.6978H92.5609C93.9996 22.6978 95.1507 23.0308 96.0139 23.6494ZM92.1772 24.268V30.2161H92.8966C93.616 30.2161 94.1435 29.9781 94.5272 29.5499C94.9109 29.1216 95.1027 28.3127 95.1027 27.1707C95.1027 26.4093 95.0068 25.7907 94.8149 25.3625C94.6231 24.9342 94.3833 24.6487 94.0476 24.4584C93.7119 24.3156 93.3282 24.2204 92.8486 24.2204H92.1772V24.268Z" fill="#D3E7FF"/>
<path d="M101.059 22.6304V31.719H98.9009V22.6304H101.059Z" fill="#D3E7FF"/>
<path d="M110.067 22.6978L107.141 28.3603V31.7863H104.983V28.4079L102.058 22.6978H104.408L106.086 26.6948L107.765 22.6978H110.067Z" fill="#D3E7FF"/>
<path d="M117.357 23.7446C118.076 24.5536 118.46 25.7432 118.46 27.2659C118.46 28.2651 118.316 29.1217 117.98 29.8354C117.645 30.5492 117.165 31.1202 116.542 31.5009C115.918 31.8815 115.199 32.0719 114.335 32.0719C113.472 32.0719 112.753 31.8815 112.129 31.5009C111.506 31.1202 111.026 30.5968 110.691 29.883C110.355 29.1692 110.211 28.3127 110.211 27.3135C110.211 26.3142 110.355 25.5053 110.691 24.7915C111.026 24.0777 111.506 23.5067 112.129 23.1261C112.753 22.7454 113.472 22.555 114.335 22.555C115.63 22.4599 116.637 22.8881 117.357 23.7446ZM112.897 24.7915C112.609 25.3149 112.417 26.1239 112.417 27.2183C112.417 28.3603 112.561 29.1692 112.897 29.6451C113.184 30.1685 113.664 30.4064 114.287 30.4064C114.911 30.4064 115.391 30.1685 115.678 29.6451C115.966 29.1217 116.158 28.3127 116.158 27.2183C116.158 26.1239 116.014 25.2673 115.678 24.7915C115.391 24.3157 114.911 24.0302 114.287 24.0302C113.664 24.0302 113.232 24.3157 112.897 24.7915Z" fill="#D3E7FF"/>
<path d="M125.797 22.6978L125.605 24.3632H123.351V31.7863H121.193V24.3632H118.843V22.6978H125.797Z" fill="#D3E7FF"/>
<path d="M140.712 28.7885C140.712 29.4071 140.568 29.9781 140.329 30.454C140.041 30.9298 139.657 31.3105 139.13 31.596C138.602 31.8815 137.931 32.0243 137.163 32.0243C136.012 32.0243 135.101 31.7387 134.525 31.1677C133.902 30.5967 133.614 29.7878 133.614 28.7885V22.6978H135.772V28.6934C135.772 29.2644 135.868 29.6926 136.108 29.9781C136.348 30.2636 136.684 30.4064 137.163 30.4064C137.643 30.4064 138.026 30.2636 138.218 29.9781C138.458 29.6926 138.554 29.2644 138.554 28.6934V22.6978H140.712V28.7885Z" fill="#D3E7FF"/>
<path d="M149.584 31.7863H146.803L144.165 24.7439C144.261 25.4576 144.309 26.0286 144.357 26.5521C144.405 27.0755 144.453 27.6941 144.453 28.4554V31.7863H142.534V22.6978H145.22L147.906 29.7402C147.714 28.5506 147.618 27.4086 147.618 26.3617V22.6978H149.584V31.7863Z" fill="#D3E7FF"/>
<path d="M153.709 22.6978V31.7863H151.551V22.6978H153.709Z" fill="#D3E7FF"/>
<path d="M162.533 22.6978L159.991 31.7863H157.306L154.668 22.6978H156.97L158.697 30.1209L160.327 22.6978H162.533Z" fill="#D3E7FF"/>
<path d="M169.056 22.6978L168.816 24.2204H165.603V26.4093H168.433V27.932H165.603V30.2636H169.056V31.8339H163.445V22.6978H169.056Z" fill="#D3E7FF"/>
<path d="M173.66 28.3127H172.796V31.7863H170.638V22.6978H173.66C174.907 22.6978 175.866 22.9357 176.489 23.3639C177.113 23.7922 177.448 24.506 177.448 25.4576C177.448 26.0286 177.305 26.5521 177.017 26.9327C176.729 27.3134 176.297 27.6465 175.674 27.932L177.976 31.7863H175.53L173.66 28.3127ZM172.844 26.8376H173.756C174.235 26.8376 174.619 26.7424 174.859 26.5045C175.098 26.2666 175.242 25.9335 175.242 25.4576C175.242 25.0294 175.098 24.6963 174.859 24.506C174.619 24.3156 174.187 24.2204 173.66 24.2204H172.892V26.8376H172.844Z" fill="#D3E7FF"/>
<path d="M183.683 22.7452C184.211 22.9356 184.642 23.2211 185.074 23.6018L184.067 24.7914C183.443 24.2679 182.772 24.03 182.053 24.03C181.669 24.03 181.381 24.1252 181.141 24.2679C180.902 24.4107 180.806 24.6486 180.806 24.9341C180.806 25.1245 180.854 25.3148 180.949 25.41C181.045 25.5527 181.237 25.6479 181.477 25.7906C181.717 25.8858 182.1 26.0286 182.58 26.2189C183.491 26.5044 184.211 26.8851 184.642 27.3133C185.074 27.7416 185.314 28.3602 185.314 29.1691C185.314 29.7401 185.17 30.216 184.882 30.6918C184.594 31.1201 184.163 31.4532 183.635 31.6911C183.108 31.929 182.436 32.0717 181.669 32.0717C180.902 32.0717 180.278 31.9766 179.703 31.7387C179.127 31.5007 178.647 31.1676 178.216 30.787L179.319 29.5974C179.655 29.8829 180.038 30.1208 180.422 30.2635C180.806 30.4063 181.189 30.5015 181.621 30.5015C182.053 30.5015 182.436 30.4063 182.676 30.216C182.916 30.0256 183.06 29.7401 183.06 29.407C183.06 29.1691 183.012 28.9788 182.916 28.836C182.82 28.6933 182.628 28.5505 182.436 28.4078C182.196 28.265 181.861 28.1698 181.429 28.0271C180.422 27.7416 179.703 27.3609 179.271 26.8851C178.839 26.4568 178.647 25.8858 178.647 25.172C178.647 24.6486 178.791 24.1728 179.079 23.7921C179.367 23.4114 179.75 23.0783 180.278 22.888C180.758 22.6977 181.333 22.5549 182.005 22.5549C182.58 22.4597 183.156 22.5549 183.683 22.7452Z" fill="#D3E7FF"/>
<path d="M188.912 22.6978V31.7863H186.753V22.6978H188.912Z" fill="#D3E7FF"/>
<path d="M197.16 22.6978L196.968 24.3632H194.714V31.7863H192.556V24.3632H190.206V22.6978H197.16Z" fill="#D3E7FF"/>
<path d="M203.874 22.6978L203.634 24.2204H200.421V26.4093H203.25V27.932H200.421V30.2636H203.874V31.8339H198.263V22.6978H203.874Z" fill="#D3E7FF"/>
<path d="M211.739 22.6978L211.547 24.3632H209.293V31.7863H207.135V24.3632H204.785V22.6978H211.739Z" fill="#D3E7FF"/>
<path d="M215 22.6978V31.7863H212.842V22.6978H215Z" fill="#D3E7FF"/>
</svg>
