<svg width="24" height="25" viewBox="0 0 24 25" fill="none" xmlns="http://www.w3.org/2000/svg">
<path d="M23.6161 10.0742H0.389893V14.9254H23.6161V10.0742Z" fill="white"/>
<path d="M23.6099 10.0744H0.389893V6.39937C0.389893 5.49032 1.12489 4.75537 2.03389 4.75537H21.9749C22.8839 4.75537 23.6189 5.49037 23.6189 6.39937L23.6099 10.0744Z" fill="#3DB4EA"/>
<path d="M8.99383 9.05749C8.76283 9.05749 8.57983 8.86849 8.57983 8.64349C8.57983 8.41849 8.76883 8.22949 8.99383 8.22949C9.22483 8.22949 9.40783 8.41849 9.40783 8.64349C9.40783 8.86849 9.21883 9.05749 8.99383 9.05749Z" fill="white"/>
<path d="M11.9999 9.05749C11.7689 9.05749 11.5859 8.86849 11.5859 8.64349C11.5859 8.41849 11.7749 8.22949 11.9999 8.22949C12.2309 8.22949 12.4109 8.41849 12.4109 8.64349C12.4109 8.86849 12.2309 9.05749 11.9999 9.05749Z" fill="white"/>
<path d="M10.4938 9.05749C10.2628 9.05749 10.0798 8.86849 10.0798 8.64349C10.0798 8.41849 10.2688 8.22949 10.4938 8.22949C10.7188 8.22949 10.9078 8.41849 10.9078 8.64349C10.9078 8.86849 10.7248 9.05749 10.4938 9.05749Z" fill="white"/>
<path d="M11.9999 6.60338C11.7689 6.60338 11.5859 6.41439 11.5859 6.18939C11.5859 5.95839 11.7749 5.77539 11.9999 5.77539C12.2309 5.77539 12.4109 5.96439 12.4109 6.18939C12.4109 6.42038 12.2309 6.60338 11.9999 6.60338Z" fill="white"/>
<path d="M7.4909 9.05749C7.2599 9.05749 7.0769 8.86849 7.0769 8.64349C7.0769 8.41849 7.2659 8.22949 7.4909 8.22949C7.7219 8.22949 7.9049 8.41849 7.9049 8.64349C7.9049 8.86849 7.7189 9.05749 7.4909 9.05749Z" fill="white"/>
<path d="M8.99383 7.81823C8.76283 7.81823 8.57983 7.62923 8.57983 7.40423C8.57983 7.17323 8.76883 6.99023 8.99383 6.99023C9.22483 6.99023 9.40783 7.17923 9.40783 7.40423C9.40783 7.62923 9.21883 7.81823 8.99383 7.81823Z" fill="white"/>
<path d="M10.4938 7.81823C10.2628 7.81823 10.0798 7.62923 10.0798 7.40423C10.0798 7.17323 10.2688 6.99023 10.4938 6.99023C10.7188 6.99023 10.9078 7.17923 10.9078 7.40423C10.9078 7.62923 10.7248 7.81823 10.4938 7.81823Z" fill="white"/>
<path d="M8.99383 6.60338C8.76283 6.60338 8.57983 6.41439 8.57983 6.18939C8.57983 5.95839 8.76883 5.77539 8.99383 5.77539C9.22483 5.77539 9.40783 5.96439 9.40783 6.18939C9.40783 6.42038 9.21883 6.60338 8.99383 6.60338Z" fill="white"/>
<path d="M10.4938 6.60338C10.2628 6.60338 10.0798 6.41439 10.0798 6.18939C10.0798 5.95839 10.2688 5.77539 10.4938 5.77539C10.7188 5.77539 10.9078 5.96439 10.9078 6.18939C10.9078 6.42038 10.7248 6.60338 10.4938 6.60338Z" fill="white"/>
<path d="M7.4909 7.81823C7.2599 7.81823 7.0769 7.62923 7.0769 7.40423C7.0769 7.17323 7.2659 6.99023 7.4909 6.99023C7.7219 6.99023 7.9049 7.17923 7.9049 7.40423C7.9049 7.62923 7.7189 7.81823 7.4909 7.81823Z" fill="white"/>
<path d="M5.9909 9.05749C5.7599 9.05749 5.5769 8.86849 5.5769 8.64349C5.5769 8.41849 5.7659 8.22949 5.9909 8.22949C6.2219 8.22949 6.4049 8.41849 6.4049 8.64349C6.4049 8.86849 6.2159 9.05749 5.9909 9.05749Z" fill="white"/>
<path d="M11.9999 7.81823C11.7689 7.81823 11.5859 7.62923 11.5859 7.40423C11.5859 7.17323 11.7749 6.99023 11.9999 6.99023C12.2309 6.99023 12.4109 7.17923 12.4109 7.40423C12.4109 7.62923 12.2309 7.81823 11.9999 7.81823Z" fill="white"/>
<path d="M22.023 20.2442H1.97696C1.10096 20.2442 0.386963 19.5302 0.386963 18.6542V14.9282H23.613V18.6542C23.61 19.5332 22.899 20.2442 22.023 20.2442Z" fill="#259245"/>
<path d="M23.3069 15.3156H0.692941C0.482941 15.3156 0.314941 15.1416 0.314941 14.9256C0.314941 14.7096 0.482941 14.5356 0.692941 14.5356H23.31C23.52 14.5356 23.688 14.7096 23.688 14.9256C23.685 15.1417 23.5169 15.3156 23.3069 15.3156Z" fill="#B21727"/>
<path d="M23.3069 10.4616H0.692941C0.482941 10.4616 0.314941 10.2876 0.314941 10.0716C0.314941 9.85564 0.482941 9.68164 0.692941 9.68164H23.31C23.52 9.68164 23.688 9.85564 23.688 10.0716C23.6879 10.2876 23.5169 10.4616 23.3069 10.4616Z" fill="#B21727"/>
<path d="M4.51492 9.04253C3.62092 9.04253 2.88892 8.31053 2.88892 7.41653C2.88892 6.52253 3.62092 5.79053 4.51492 5.79053C4.73092 5.79053 4.90492 5.96453 4.90492 6.18053C4.90492 6.39653 4.73092 6.57053 4.51492 6.57053C4.04692 6.57053 3.66292 6.95453 3.66292 7.42253C3.66292 7.89053 4.04692 8.27453 4.51492 8.27453C4.73092 8.27453 4.90492 8.44853 4.90492 8.66453C4.90492 8.88053 4.72492 9.04253 4.51492 9.04253Z" fill="white"/>
<path d="M21.951 20.6286H2.049C0.918 20.6286 0 19.7106 0 18.5796V6.42058C0 5.28958 0.918 4.37158 2.049 4.37158H21.951C23.082 4.37158 24 5.28958 24 6.42058V18.5856C24 19.7106 23.082 20.6286 21.951 20.6286ZM2.049 5.14563C1.347 5.14563 0.774 5.71863 0.774 6.42063V18.5856C0.774 19.2876 1.347 19.8606 2.049 19.8606H21.951C22.653 19.8606 23.226 19.2876 23.226 18.5856V6.42058C23.226 5.71858 22.653 5.14558 21.951 5.14558L2.049 5.14563Z" fill="#111A21"/>
</svg>
