<svg width="638" height="123" viewBox="0 0 638 123" fill="none" xmlns="http://www.w3.org/2000/svg">
<path d="M0 0C0 3.63348 2.94446 6.59409 6.55811 6.59409H110.685C114.298 6.59409 117.243 3.63348 117.243 0H0Z" fill="#2678D9"/>
<path d="M46.9907 29.0864L46.6103 31.9092H43.3271V42.9999H39.6235V31.9092H36.1401V29.0864H46.9907Z" fill="#144176"/>
<path d="M52.4428 28.7261C53.4972 28.7261 54.4247 28.8796 55.2255 29.1865C56.0396 29.4935 56.767 29.9539 57.4076 30.5679L55.746 32.5298C54.7851 31.769 53.7775 31.3887 52.7231 31.3887C52.1759 31.3887 51.7555 31.4954 51.4619 31.709C51.1816 31.9092 51.0415 32.1961 51.0415 32.5698C51.0415 32.8367 51.1149 33.0569 51.2617 33.2304C51.4085 33.4039 51.6554 33.5708 52.0024 33.7309C52.3494 33.8911 52.8966 34.0913 53.644 34.3315C55.072 34.7853 56.113 35.3592 56.767 36.0532C57.4343 36.7338 57.768 37.6814 57.768 38.8959C57.768 39.7768 57.5411 40.5575 57.0873 41.2382C56.6336 41.9055 55.9729 42.426 55.1054 42.7997C54.2512 43.1734 53.2436 43.3603 52.0825 43.3603C49.867 43.3603 48.0586 42.6863 46.6572 41.3383L48.479 39.3163C49.5867 40.2239 50.7412 40.6777 51.9423 40.6777C52.5696 40.6777 53.0568 40.5442 53.4038 40.2773C53.7508 39.997 53.9243 39.63 53.9243 39.1762C53.9243 38.8559 53.8575 38.5956 53.7241 38.3955C53.5906 38.1819 53.3504 37.9951 53.0034 37.8349C52.6697 37.6614 52.1759 37.4746 51.5219 37.2744C49.9471 36.7806 48.8393 36.1866 48.1987 35.4926C47.5581 34.7986 47.2378 33.9244 47.2378 32.8701C47.2378 32.0426 47.458 31.3153 47.8984 30.688C48.3522 30.0607 48.9728 29.5802 49.7602 29.2466C50.561 28.8996 51.4552 28.7261 52.4428 28.7261Z" fill="#144176"/>
<path d="M70.2617 38.3354C70.2617 39.2963 70.0481 40.1572 69.621 40.9179C69.2073 41.6786 68.58 42.2792 67.7392 42.7196C66.8984 43.1467 65.8707 43.3603 64.6562 43.3603C62.8144 43.3603 61.4198 42.9132 60.4722 42.019C59.5246 41.1114 59.0508 39.8836 59.0508 38.3354V29.0864H62.7544V38.2153C62.7544 39.0561 62.9012 39.6767 63.1948 40.0771C63.5018 40.4641 63.9889 40.6576 64.6562 40.6576C65.3235 40.6576 65.804 40.4575 66.0976 40.0571C66.3912 39.6567 66.5381 39.0427 66.5381 38.2153V29.0864H70.2617V38.3354Z" fill="#144176"/>
<path d="M81.0413 29.0864L80.661 31.709H75.9164V34.6718H80.0604V37.2143H75.9164V40.3774H80.9813V42.9999H72.2128V29.0864H81.0413Z" fill="#144176"/>
<path d="M9.77026 13.3228C9.77026 16.9562 12.7147 19.9168 16.3284 19.9168V104.429V106.986C16.3284 108.735 17.6668 110.081 19.4067 110.081H30.3815C36.9396 110.081 43.23 112.1 48.5836 115.733L59.2907 123L67.7225 116.675C73.3438 112.369 80.3034 110.081 87.263 110.081H97.8363C99.5762 110.081 100.915 108.735 100.915 106.986V104.429V19.9168H101.718C105.331 19.9168 108.276 16.9562 108.276 13.3228H9.77026ZM63.7074 111.427L59.023 114.926L52.1972 110.216C45.7729 105.775 38.1441 103.487 30.2476 103.487H22.7526V82.7626H30.2476C36.8057 82.7626 43.0962 84.7812 48.4497 88.4147L59.1568 95.6816L67.5887 89.3567C73.2099 85.0503 80.1696 82.7626 87.1292 82.7626H94.2226V103.487H87.1292C78.8312 103.487 70.5331 106.313 63.7074 111.427ZM55.4094 57.3282V85.0503L52.3311 82.8971C50.4573 81.5514 48.4497 80.4748 46.3083 79.5328V57.3282H55.4094ZM61.9675 57.3282H70.3993V80.0426L71.2023 79.6674C68.5256 80.8786 66.1165 82.3589 63.7074 84.1083L61.8336 85.454V57.3282H61.9675ZM94.3565 76.1685H87.263C83.7832 76.1685 80.3034 76.7068 76.9574 77.6488V57.4628H82.4448C86.0585 57.4628 89.0029 54.5022 89.0029 50.8687H27.7047C27.7047 54.5022 30.6491 57.4628 34.2628 57.4628H39.7502V77.5142C36.6719 76.7068 33.5936 76.3031 30.3815 76.3031H22.8865V19.9168H94.3565V76.1685Z" fill="#2678D9"/>
<path d="M156.812 24.6279L156.156 29.3429H148.981V52.9999H142.954V29.3429H135.41V24.6279H156.812Z" fill="#144176"/>
<path d="M172.858 52.9999L171.259 46.6449H162.362L160.763 52.9999H154.49L163.223 24.6279H170.562L179.254 52.9999H172.858ZM163.51 42.1759H170.111L166.79 29.0969L163.51 42.1759Z" fill="#144176"/>
<path d="M190.527 23.9719C192.577 23.9719 194.354 24.2726 195.857 24.8739C197.388 25.4479 198.795 26.3363 200.08 27.5389L197.21 30.8599C196.199 30.0399 195.187 29.4386 194.176 29.0559C193.165 28.6733 192.085 28.4819 190.937 28.4819C189.68 28.4819 188.668 28.7553 187.903 29.3019C187.165 29.8213 186.796 30.5729 186.796 31.5569C186.796 32.2403 186.946 32.8006 187.247 33.2379C187.575 33.6753 188.135 34.0853 188.928 34.4679C189.721 34.8506 190.91 35.2879 192.495 35.7799C195.31 36.6819 197.415 37.8026 198.809 39.1419C200.203 40.4539 200.9 42.3399 200.9 44.7999C200.9 46.5493 200.463 48.0936 199.588 49.4329C198.713 50.7449 197.442 51.7836 195.775 52.5489C194.108 53.2869 192.153 53.6559 189.912 53.6559C187.671 53.6559 185.675 53.3006 183.926 52.5899C182.177 51.8793 180.673 50.9089 179.416 49.6789L182.491 46.2759C183.584 47.2053 184.719 47.9159 185.894 48.4079C187.069 48.8726 188.354 49.1049 189.748 49.1049C191.224 49.1049 192.399 48.7633 193.274 48.0799C194.176 47.3966 194.627 46.4399 194.627 45.2099C194.627 44.4446 194.463 43.8159 194.135 43.3239C193.834 42.8046 193.301 42.3399 192.536 41.9299C191.771 41.5199 190.664 41.0963 189.215 40.6589C186.126 39.7023 183.912 38.5543 182.573 37.2149C181.261 35.8756 180.605 34.1263 180.605 31.9669C180.605 30.3816 181.029 28.9876 181.876 27.7849C182.723 26.5549 183.899 25.6119 185.402 24.9559C186.905 24.2999 188.614 23.9719 190.527 23.9719Z" fill="#144176"/>
<path d="M220.474 52.9999V40.5769H211.085V52.9999H205.058V24.6279H211.085V35.8209H220.474V24.6279H226.501V52.9999H220.474Z" fill="#144176"/>
<path d="M238.512 24.6279V52.9999H232.485V24.6279H238.512ZM254.625 24.6279L245.154 37.4199L255.363 52.9999H248.311L238.758 37.8709L248.188 24.6279H254.625Z" fill="#144176"/>
<path d="M274.923 24.6279L274.267 29.0149H264.017V36.3949H272.955V40.7409H264.017V48.5719H275.005V52.9999H257.99V24.6279H274.923Z" fill="#144176"/>
<path d="M301.053 52.9999H293.304L284.284 30.4909C284.53 32.4316 284.722 34.2629 284.858 35.9849C285.022 37.6796 285.104 39.6749 285.104 41.9709V52.9999H279.651V24.6279H287.236L296.42 47.1779C295.874 43.5153 295.6 40.1533 295.6 37.0919V24.6279H301.053V52.9999Z" fill="#144176"/>
<path d="M325.857 24.6279L325.201 29.3429H318.026V52.9999H311.999V29.3429H304.455V24.6279H325.857Z" fill="#144176"/>
<path d="M347.6 23.9719C349.65 23.9719 351.427 24.2726 352.93 24.8739C354.461 25.4479 355.868 26.3363 357.153 27.5389L354.283 30.8599C353.272 30.0399 352.26 29.4386 351.249 29.0559C350.238 28.6733 349.158 28.4819 348.01 28.4819C346.753 28.4819 345.741 28.7553 344.976 29.3019C344.238 29.8213 343.869 30.5729 343.869 31.5569C343.869 32.2403 344.019 32.8006 344.32 33.2379C344.648 33.6753 345.208 34.0853 346.001 34.4679C346.794 34.8506 347.983 35.2879 349.568 35.7799C352.383 36.6819 354.488 37.8026 355.882 39.1419C357.276 40.4539 357.973 42.3399 357.973 44.7999C357.973 46.5493 357.536 48.0936 356.661 49.4329C355.786 50.7449 354.515 51.7836 352.848 52.5489C351.181 53.2869 349.226 53.6559 346.985 53.6559C344.744 53.6559 342.748 53.3006 340.999 52.5899C339.25 51.8793 337.746 50.9089 336.489 49.6789L339.564 46.2759C340.657 47.2053 341.792 47.9159 342.967 48.4079C344.142 48.8726 345.427 49.1049 346.821 49.1049C348.297 49.1049 349.472 48.7633 350.347 48.0799C351.249 47.3966 351.7 46.4399 351.7 45.2099C351.7 44.4446 351.536 43.8159 351.208 43.3239C350.907 42.8046 350.374 42.3399 349.609 41.9299C348.844 41.5199 347.737 41.0963 346.288 40.6589C343.199 39.7023 340.985 38.5543 339.646 37.2149C338.334 35.8756 337.678 34.1263 337.678 31.9669C337.678 30.3816 338.102 28.9876 338.949 27.7849C339.796 26.5549 340.972 25.6119 342.475 24.9559C343.978 24.2999 345.687 23.9719 347.6 23.9719Z" fill="#144176"/>
<path d="M380.07 24.6279L379.414 29.3429H372.239V52.9999H366.212V29.3429H358.668V24.6279H380.07Z" fill="#144176"/>
<path d="M396.116 52.9999L394.517 46.6449H385.62L384.021 52.9999H377.748L386.481 24.6279H393.82L402.512 52.9999H396.116ZM386.768 42.1759H393.369L390.048 29.0969L386.768 42.1759Z" fill="#144176"/>
<path d="M421.911 24.6279L421.255 29.3429H414.08V52.9999H408.053V29.3429H400.509V24.6279H421.911Z" fill="#144176"/>
<path d="M441.926 24.6279L441.27 29.0149H431.02V36.3949H439.958V40.7409H431.02V48.5719H442.008V52.9999H424.993V24.6279H441.926Z" fill="#144176"/>
<path d="M159.19 92.6522C159.19 94.5928 158.78 96.3148 157.96 97.8182C157.14 99.3215 155.91 100.511 154.27 101.385C152.657 102.233 150.689 102.656 148.366 102.656C144.867 102.656 142.189 101.754 140.33 99.9502C138.499 98.1188 137.583 95.6862 137.583 92.6522V73.6282H143.61V92.3652C143.61 94.2785 143.993 95.7135 144.758 96.6702C145.523 97.5995 146.726 98.0642 148.366 98.0642C150.006 98.0642 151.209 97.5995 151.974 96.6702C152.767 95.7135 153.163 94.2785 153.163 92.3652V73.6282H159.19V92.6522Z" fill="#144176"/>
<path d="M186.221 102H178.472L169.452 79.4912C169.698 81.4318 169.89 83.2632 170.026 84.9852C170.19 86.6798 170.272 88.6752 170.272 90.9712V102H164.819V73.6282H172.404L181.588 96.1782C181.042 92.5155 180.768 89.1535 180.768 86.0922V73.6282H186.221V102Z" fill="#144176"/>
<path d="M198.233 73.6282V102H192.206V73.6282H198.233Z" fill="#144176"/>
<path d="M224.84 73.6282L216.681 102H209.342L200.896 73.6282H207.333L213.114 96.9982L218.69 73.6282H224.84Z" fill="#144176"/>
<path d="M244.453 73.6282L243.797 78.0152H233.547V85.3952H242.485V89.7412H233.547V97.5722H244.535V102H227.52V73.6282H244.453Z" fill="#144176"/>
<path d="M258.283 90.8892H255.208V102H249.181V73.6282H258.037C261.837 73.6282 264.693 74.3388 266.606 75.7602C268.52 77.1542 269.476 79.2725 269.476 82.1152C269.476 83.9738 269.012 85.5045 268.082 86.7072C267.18 87.9098 265.773 88.9348 263.859 89.7822L271.198 102H264.351L258.283 90.8892ZM255.208 86.6252H258.365C259.978 86.6252 261.194 86.2698 262.014 85.5592C262.834 84.8212 263.244 83.6732 263.244 82.1152C263.244 80.6665 262.807 79.6142 261.932 78.9582C261.085 78.2748 259.746 77.9332 257.914 77.9332H255.208V86.6252Z" fill="#144176"/>
<path d="M282.697 72.9722C284.747 72.9722 286.523 73.2728 288.027 73.8742C289.557 74.4482 290.965 75.3365 292.25 76.5392L289.38 79.8602C288.368 79.0402 287.357 78.4388 286.346 78.0562C285.334 77.6735 284.255 77.4822 283.107 77.4822C281.849 77.4822 280.838 77.7555 280.073 78.3022C279.335 78.8215 278.966 79.5732 278.966 80.5572C278.966 81.2405 279.116 81.8008 279.417 82.2382C279.745 82.6755 280.305 83.0855 281.098 83.4682C281.89 83.8508 283.079 84.2882 284.665 84.7802C287.48 85.6822 289.585 86.8028 290.979 88.1422C292.373 89.4542 293.07 91.3402 293.07 93.8002C293.07 95.5495 292.632 97.0938 291.758 98.4332C290.883 99.7452 289.612 100.784 287.945 101.549C286.277 102.287 284.323 102.656 282.082 102.656C279.84 102.656 277.845 102.301 276.096 101.59C274.346 100.88 272.843 99.9092 271.586 98.6792L274.661 95.2762C275.754 96.2055 276.888 96.9162 278.064 97.4082C279.239 97.8728 280.524 98.1052 281.918 98.1052C283.394 98.1052 284.569 97.7635 285.444 97.0802C286.346 96.3968 286.797 95.4402 286.797 94.2102C286.797 93.4448 286.633 92.8162 286.305 92.3242C286.004 91.8048 285.471 91.3402 284.706 90.9302C283.94 90.5202 282.833 90.0965 281.385 89.6592C278.296 88.7025 276.082 87.5545 274.743 86.2152C273.431 84.8758 272.775 83.1265 272.775 80.9672C272.775 79.3818 273.198 77.9878 274.046 76.7852C274.893 75.5552 276.068 74.6122 277.572 73.9562C279.075 73.3002 280.783 72.9722 282.697 72.9722Z" fill="#144176"/>
<path d="M303.255 73.6282V102H297.228V73.6282H303.255Z" fill="#144176"/>
<path d="M328.099 73.6282L327.443 78.3432H320.268V102H314.241V78.3432H306.697V73.6282H328.099Z" fill="#144176"/>
<path d="M352.255 73.6282L343.153 91.2992V102H337.126V91.3402L328.024 73.6282H334.625L340.283 86.5022L345.9 73.6282H352.255Z" fill="#144176"/>
<path d="M376.288 72.9722C378.884 72.9722 381.126 73.5598 383.012 74.7352C384.898 75.8832 386.346 77.5642 387.358 79.7782C388.369 81.9922 388.875 84.6708 388.875 87.8142C388.875 90.9028 388.369 93.5678 387.358 95.8092C386.346 98.0232 384.898 99.7178 383.012 100.893C381.126 102.068 378.884 102.656 376.288 102.656C373.691 102.656 371.436 102.082 369.523 100.934C367.637 99.7588 366.188 98.0642 365.177 95.8502C364.165 93.6088 363.66 90.9302 363.66 87.8142C363.66 84.7528 364.165 82.1152 365.177 79.9012C366.215 77.6598 367.678 75.9515 369.564 74.7762C371.477 73.5735 373.718 72.9722 376.288 72.9722ZM376.288 77.4822C374.21 77.4822 372.639 78.3022 371.573 79.9422C370.534 81.5822 370.015 84.2062 370.015 87.8142C370.015 91.4222 370.548 94.0462 371.614 95.6862C372.68 97.3262 374.238 98.1462 376.288 98.1462C378.365 98.1462 379.923 97.3398 380.962 95.7272C382 94.0872 382.52 91.4495 382.52 87.8142C382.52 84.1788 382 81.5548 380.962 79.9422C379.923 78.3022 378.365 77.4822 376.288 77.4822Z" fill="#144176"/>
<path d="M393.442 102V73.6282H409.924L409.268 78.0152H399.469V86.0512H407.997V90.4382H399.469V102H393.442Z" fill="#144176"/>
<path d="M440.405 73.6282L439.749 78.0152H429.499V85.3952H438.437V89.7412H429.499V97.5722H440.487V102H423.472V73.6282H440.405Z" fill="#144176"/>
<path d="M455.805 72.9722C457.582 72.9722 459.126 73.2318 460.438 73.7512C461.75 74.2432 463.035 75.0085 464.292 76.0472L461.299 79.5322C459.659 78.1928 457.937 77.5232 456.133 77.5232C454.11 77.5232 452.498 78.3568 451.295 80.0242C450.12 81.6642 449.532 84.2472 449.532 87.7732C449.532 91.2172 450.12 93.7728 451.295 95.4402C452.498 97.0802 454.124 97.9002 456.174 97.9002C457.24 97.9002 458.21 97.7088 459.085 97.3262C459.96 96.9162 460.875 96.3422 461.832 95.6042L464.62 99.0892C463.609 100.128 462.351 100.989 460.848 101.672C459.372 102.328 457.732 102.656 455.928 102.656C453.386 102.656 451.158 102.082 449.245 100.934C447.332 99.7862 445.842 98.1052 444.776 95.8912C443.71 93.6498 443.177 90.9438 443.177 87.7732C443.177 84.6845 443.724 82.0332 444.817 79.8192C445.91 77.5778 447.414 75.8832 449.327 74.7352C451.24 73.5598 453.4 72.9722 455.805 72.9722Z" fill="#144176"/>
<path d="M478.427 72.9722C481.024 72.9722 483.265 73.5598 485.151 74.7352C487.037 75.8832 488.486 77.5642 489.497 79.7782C490.509 81.9922 491.014 84.6708 491.014 87.8142C491.014 90.9028 490.509 93.5678 489.497 95.8092C488.486 98.0232 487.037 99.7178 485.151 100.893C483.265 102.068 481.024 102.656 478.427 102.656C475.831 102.656 473.576 102.082 471.662 100.934C469.776 99.7588 468.328 98.0642 467.316 95.8502C466.305 93.6088 465.799 90.9302 465.799 87.8142C465.799 84.7528 466.305 82.1152 467.316 79.9012C468.355 77.6598 469.817 75.9515 471.703 74.7762C473.617 73.5735 475.858 72.9722 478.427 72.9722ZM478.427 77.4822C476.35 77.4822 474.778 78.3022 473.712 79.9422C472.674 81.5822 472.154 84.2062 472.154 87.8142C472.154 91.4222 472.687 94.0462 473.753 95.6862C474.819 97.3262 476.377 98.1462 478.427 98.1462C480.505 98.1462 482.063 97.3398 483.101 95.7272C484.14 94.0872 484.659 91.4495 484.659 87.8142C484.659 84.1788 484.14 81.5548 483.101 79.9422C482.063 78.3022 480.505 77.4822 478.427 77.4822Z" fill="#144176"/>
<path d="M516.984 102H509.235L500.215 79.4912C500.461 81.4318 500.652 83.2632 500.789 84.9852C500.953 86.6798 501.035 88.6752 501.035 90.9712V102H495.582V73.6282H503.167L512.351 96.1782C511.804 92.5155 511.531 89.1535 511.531 86.0922V73.6282H516.984V102Z" fill="#144176"/>
<path d="M534.162 72.9722C536.758 72.9722 539 73.5598 540.886 74.7352C542.772 75.8832 544.22 77.5642 545.232 79.7782C546.243 81.9922 546.749 84.6708 546.749 87.8142C546.749 90.9028 546.243 93.5678 545.232 95.8092C544.22 98.0232 542.772 99.7178 540.886 100.893C539 102.068 536.758 102.656 534.162 102.656C531.565 102.656 529.31 102.082 527.397 100.934C525.511 99.7588 524.062 98.0642 523.051 95.8502C522.039 93.6088 521.534 90.9302 521.534 87.8142C521.534 84.7528 522.039 82.1152 523.051 79.9012C524.089 77.6598 525.552 75.9515 527.438 74.7762C529.351 73.5735 531.592 72.9722 534.162 72.9722ZM534.162 77.4822C532.084 77.4822 530.513 78.3022 529.447 79.9422C528.408 81.5822 527.889 84.2062 527.889 87.8142C527.889 91.4222 528.422 94.0462 529.488 95.6862C530.554 97.3262 532.112 98.1462 534.162 98.1462C536.239 98.1462 537.797 97.3398 538.836 95.7272C539.874 94.0872 540.394 91.4495 540.394 87.8142C540.394 84.1788 539.874 81.5548 538.836 79.9422C537.797 78.3022 536.239 77.4822 534.162 77.4822Z" fill="#144176"/>
<path d="M578.507 102H572.603L571.988 90.4792C571.797 87.0352 571.701 84.1105 571.701 81.7052C571.701 80.4205 571.715 79.4912 571.742 78.9172L566.945 98.9662H561.246L556.121 78.8762C556.23 80.5435 556.285 82.4158 556.285 84.4932C556.285 86.7072 556.23 88.7435 556.121 90.6022L555.506 102H549.643L551.857 73.6282H559.524L564.198 93.1852L568.585 73.6282H576.334L578.507 102Z" fill="#144176"/>
<path d="M589.174 73.6282V102H583.147V73.6282H589.174Z" fill="#144176"/>
<path d="M606.392 72.9722C608.169 72.9722 609.713 73.2318 611.025 73.7512C612.337 74.2432 613.622 75.0085 614.879 76.0472L611.886 79.5322C610.246 78.1928 608.524 77.5232 606.72 77.5232C604.697 77.5232 603.085 78.3568 601.882 80.0242C600.707 81.6642 600.119 84.2472 600.119 87.7732C600.119 91.2172 600.707 93.7728 601.882 95.4402C603.085 97.0802 604.711 97.9002 606.761 97.9002C607.827 97.9002 608.797 97.7088 609.672 97.3262C610.547 96.9162 611.462 96.3422 612.419 95.6042L615.207 99.0892C614.196 100.128 612.938 100.989 611.435 101.672C609.959 102.328 608.319 102.656 606.515 102.656C603.973 102.656 601.745 102.082 599.832 100.934C597.919 99.7862 596.429 98.1052 595.363 95.8912C594.297 93.6498 593.764 90.9438 593.764 87.7732C593.764 84.6845 594.311 82.0332 595.404 79.8192C596.497 77.5778 598.001 75.8832 599.914 74.7352C601.827 73.5598 603.987 72.9722 606.392 72.9722Z" fill="#144176"/>
<path d="M626.873 72.9722C628.923 72.9722 630.699 73.2728 632.203 73.8742C633.733 74.4482 635.141 75.3365 636.426 76.5392L633.556 79.8602C632.544 79.0402 631.533 78.4388 630.522 78.0562C629.51 77.6735 628.431 77.4822 627.283 77.4822C626.025 77.4822 625.014 77.7555 624.249 78.3022C623.51 78.8215 623.142 79.5732 623.142 80.5572C623.142 81.2405 623.292 81.8008 623.593 82.2382C623.921 82.6755 624.481 83.0855 625.274 83.4682C626.066 83.8508 627.255 84.2882 628.841 84.7802C631.656 85.6822 633.76 86.8028 635.155 88.1422C636.549 89.4542 637.246 91.3402 637.246 93.8002C637.246 95.5495 636.808 97.0938 635.934 98.4332C635.059 99.7452 633.788 100.784 632.121 101.549C630.453 102.287 628.499 102.656 626.258 102.656C624.016 102.656 622.021 102.301 620.272 101.59C618.522 100.88 617.019 99.9092 615.762 98.6792L618.837 95.2762C619.93 96.2055 621.064 96.9162 622.24 97.4082C623.415 97.8728 624.699 98.1052 626.094 98.1052C627.57 98.1052 628.745 97.7635 629.62 97.0802C630.522 96.3968 630.973 95.4402 630.973 94.2102C630.973 93.4448 630.809 92.8162 630.481 92.3242C630.18 91.8048 629.647 91.3402 628.882 90.9302C628.116 90.5202 627.009 90.0965 625.561 89.6592C622.472 88.7025 620.258 87.5545 618.919 86.2152C617.607 84.8758 616.951 83.1265 616.951 80.9672C616.951 79.3818 617.374 77.9878 618.222 76.7852C619.069 75.5552 620.244 74.6122 621.748 73.9562C623.251 73.3002 624.959 72.9722 626.873 72.9722Z" fill="#144176"/>
</svg>
