<svg width="54" height="56" viewBox="0 0 54 56" fill="none" xmlns="http://www.w3.org/2000/svg">
<path d="M0 0C0 1.65427 1.34057 3.00219 2.98581 3.00219H50.3931C52.0383 3.00219 53.3789 1.65427 53.3789 0H0Z" fill="#2678D9"/>
<path d="M21.3942 13.2427L21.221 14.5278H19.7262V19.5773H18.04V14.5278H16.4541V13.2427H21.3942Z" fill="#144176"/>
<path d="M23.8765 13.0786C24.3565 13.0786 24.7788 13.1485 25.1434 13.2882C25.514 13.428 25.8452 13.6376 26.1369 13.9172L25.3804 14.8104C24.9429 14.464 24.4841 14.2908 24.0041 14.2908C23.7549 14.2908 23.5635 14.3395 23.4299 14.4367C23.3022 14.5278 23.2384 14.6585 23.2384 14.8286C23.2384 14.9501 23.2719 15.0504 23.3387 15.1294C23.4055 15.2084 23.518 15.2843 23.6759 15.3572C23.8339 15.4302 24.0831 15.5213 24.4233 15.6307C25.0735 15.8373 25.5475 16.0986 25.8452 16.4145C26.149 16.7244 26.3009 17.1558 26.3009 17.7088C26.3009 18.1098 26.1976 18.4653 25.991 18.7752C25.7844 19.079 25.4837 19.316 25.0887 19.4861C24.6998 19.6563 24.241 19.7413 23.7124 19.7413C22.7037 19.7413 21.8804 19.4345 21.2424 18.8208L22.0718 17.9002C22.5761 18.3134 23.1017 18.52 23.6486 18.52C23.9342 18.52 24.156 18.4592 24.314 18.3377C24.4719 18.2101 24.5509 18.043 24.5509 17.8364C24.5509 17.6906 24.5206 17.5721 24.4598 17.4809C24.399 17.3837 24.2897 17.2986 24.1317 17.2257C23.9798 17.1467 23.7549 17.0617 23.4572 16.9705C22.7402 16.7457 22.2358 16.4753 21.9442 16.1593C21.6525 15.8434 21.5067 15.4454 21.5067 14.9653C21.5067 14.5886 21.6069 14.2574 21.8075 13.9718C22.0141 13.6862 22.2966 13.4675 22.6551 13.3156C23.0197 13.1576 23.4268 13.0786 23.8765 13.0786Z" fill="#144176"/>
<path d="M31.9891 17.4536C31.9891 17.8911 31.8919 18.283 31.6974 18.6294C31.5091 18.9757 31.2235 19.2492 30.8407 19.4497C30.4579 19.6441 29.99 19.7413 29.437 19.7413C28.5985 19.7413 27.9635 19.5378 27.5321 19.1307C27.1007 18.7175 26.885 18.1584 26.885 17.4536V13.2427H28.5712V17.3989C28.5712 17.7817 28.638 18.0643 28.7717 18.2466C28.9114 18.4228 29.1332 18.5109 29.437 18.5109C29.7409 18.5109 29.9596 18.4197 30.0933 18.2374C30.227 18.0551 30.2938 17.7756 30.2938 17.3989V13.2427H31.9891V17.4536Z" fill="#144176"/>
<path d="M36.8969 13.2427L36.7238 14.4367H34.5636V15.7856H36.4503V16.9432H34.5636V18.3833H36.8696V19.5773H32.8774V13.2427H36.8969Z" fill="#144176"/>
<path d="M4.44824 6.06567C4.44824 7.71994 5.78881 9.06786 7.43405 9.06786V47.5449V48.709C7.43405 49.5055 8.0434 50.1182 8.83555 50.1182H13.8322C16.818 50.1182 19.6819 51.0372 22.1193 52.6915L26.9941 56L30.833 53.1204C33.3923 51.1598 36.5609 50.1182 39.7295 50.1182H44.5433C45.3355 50.1182 45.9448 49.5055 45.9448 48.709V47.5449V9.06786H46.3105C47.9557 9.06786 49.2963 7.71994 49.2963 6.06567H4.44824ZM29.005 50.7309L26.8723 52.3239L23.7646 50.1795C20.8397 48.1576 17.3664 47.116 13.7713 47.116H10.3589V37.6806H13.7713C16.7571 37.6806 19.621 38.5996 22.0584 40.2539L26.9332 43.5624L30.7721 40.6827C33.3313 38.7221 36.5 37.6806 39.6686 37.6806H42.8981V47.116H39.6686C35.8906 47.116 32.1126 48.4027 29.005 50.7309ZM25.227 26.1007V38.7221L23.8255 37.7418C22.9724 37.1291 22.0584 36.639 21.0834 36.2101V26.1007H25.227ZM28.2128 26.1007H32.0517V36.4422L32.4173 36.2714C31.1986 36.8228 30.1018 37.4967 29.005 38.2932L28.1519 38.9059V26.1007H28.2128ZM42.959 34.6784H39.7295C38.1452 34.6784 36.5609 34.9234 35.0375 35.3523V26.162H37.5358C39.1811 26.162 40.5217 24.814 40.5217 23.1598H12.6135C12.6135 24.814 13.9541 26.162 15.5993 26.162H18.0976V35.2911C16.6961 34.9234 15.2946 34.7396 13.8322 34.7396H10.4199V9.06786H42.959V34.6784Z" fill="#2678D9"/>
</svg>
