<svg width="56" height="58" viewBox="0 0 56 58" fill="none" xmlns="http://www.w3.org/2000/svg">
<path d="M0 0C0 1.71335 1.38844 3.10941 3.09244 3.10941H52.1928C53.8968 3.10941 55.2853 1.71335 55.2853 0H0Z" fill="#2678D9"/>
<path d="M4.60742 6.28223C4.60742 7.99557 5.99586 9.39164 7.69986 9.39164V49.2428V50.4485C7.69986 51.2735 8.33097 51.9081 9.15142 51.9081H14.3265C17.419 51.9081 20.3852 52.8599 22.9096 54.5733L27.9585 58L31.9345 55.0175C34.5852 52.9868 37.8669 51.9081 41.1487 51.9081H46.1345C46.9549 51.9081 47.586 51.2735 47.586 50.4485V49.2428V9.39164H47.9647C49.6687 9.39164 51.0572 7.99557 51.0572 6.28223H4.60742ZM30.0412 52.5426L27.8323 54.1925L24.6136 51.9715C21.5843 49.8774 17.987 48.7986 14.2634 48.7986H10.7292V39.0262H14.2634C17.3559 39.0262 20.3221 39.9781 22.8465 41.6914L27.8954 45.1181L31.8714 42.1356C34.5221 40.105 37.8038 39.0262 41.0856 39.0262H44.4305V48.7986H41.0856C37.1727 48.7986 33.2598 50.1312 30.0412 52.5426ZM26.1283 27.0328V40.105L24.6767 39.0897C23.7932 38.4551 22.8465 37.9474 21.8367 37.5032V27.0328H26.1283ZM29.2207 27.0328H33.1967V37.7436L33.5754 37.5667C32.3132 38.1378 31.1772 38.8358 30.0412 39.6608L29.1576 40.2954V27.0328H29.2207ZM44.4936 35.9168H41.1487C39.5078 35.9168 37.8669 36.1706 36.2892 36.6148V27.0962H38.8767C40.5807 27.0962 41.9692 25.7002 41.9692 23.9868H13.0643C13.0643 25.7002 14.4527 27.0962 16.1567 27.0962H18.7443V36.5514C17.2927 36.1706 15.8412 35.9803 14.3265 35.9803H10.7923V9.39164H44.4936V35.9168Z" fill="#2678D9"/>
<path d="M18.6181 19.6717H20.1958V14.9124H22.6572V19.6717H24.8661C25.8127 19.6717 26.5701 19.4178 27.0749 18.9102C27.5798 18.4025 27.8323 17.641 27.8323 16.6892V16.3084C27.8323 15.42 27.5798 14.6585 27.0749 14.1509C26.5701 13.6432 25.8127 13.3894 24.8661 13.3894H22.8465H22.6572H16.9141V14.9124H18.6181V19.6717V19.6717ZM24.2349 14.9124H24.8029C25.3078 14.9124 25.6234 15.0393 25.8758 15.2297C26.0652 15.42 26.1914 15.8008 26.1914 16.3084V16.6892C26.1914 17.2603 26.0652 17.641 25.8758 17.8314C25.6865 18.0218 25.3078 18.1487 24.8029 18.1487H24.2349V14.9124Z" fill="#144176"/>
<path d="M30.4196 13.3894H28.8418V19.6717H30.4196V13.3894Z" fill="#144176"/>
<path d="M32.1246 19.0371C32.3771 19.291 32.6295 19.4179 32.9451 19.5448C33.2606 19.6717 33.6393 19.7352 34.018 19.7352C34.3966 19.7352 34.7753 19.6717 35.0909 19.5448C35.4064 19.4179 35.6589 19.2275 35.9113 19.0371C36.1637 18.7833 36.29 18.5295 36.4162 18.2122C36.5424 17.8949 36.6055 17.5141 36.6055 17.1334V13.4529H35.0277V17.1334C35.0277 17.5776 34.9646 17.8949 34.7753 18.0218C34.586 18.2122 34.3966 18.2756 34.0811 18.2756C33.7655 18.2756 33.5131 18.2122 33.3869 18.0218C33.1975 17.8314 33.1344 17.5141 33.1344 17.1334V13.4529H31.5566V17.1334C31.5566 17.5141 31.6198 17.8949 31.746 18.2122C31.746 18.5295 31.8722 18.7833 32.1246 19.0371Z" fill="#144176"/>
</svg>
