<svg width="118" height="123" viewBox="0 0 118 123" fill="none" xmlns="http://www.w3.org/2000/svg">
<path d="M0 0C0 3.63348 2.94446 6.59409 6.55811 6.59409H110.685C114.298 6.59409 117.243 3.63348 117.243 0H0Z" fill="white"/>
<path d="M46.9907 29.0865L46.6103 31.9092H43.3271V43H39.6235V31.9092H36.1401V29.0865H46.9907Z" fill="white"/>
<path d="M52.4428 28.7262C53.4972 28.7262 54.4247 28.8796 55.2255 29.1866C56.0396 29.4936 56.767 29.954 57.4076 30.5679L55.746 32.5298C54.7851 31.7691 53.7775 31.3887 52.7231 31.3887C52.1759 31.3887 51.7555 31.4955 51.4619 31.709C51.1816 31.9092 51.0415 32.1962 51.0415 32.5699C51.0415 32.8368 51.1149 33.057 51.2617 33.2305C51.4085 33.404 51.6554 33.5708 52.0024 33.731C52.3494 33.8912 52.8966 34.0914 53.644 34.3316C55.072 34.7854 56.113 35.3593 56.767 36.0533C57.4343 36.7339 57.768 37.6815 57.768 38.896C57.768 39.7769 57.5411 40.5576 57.0873 41.2383C56.6336 41.9056 55.9729 42.4261 55.1054 42.7998C54.2512 43.1735 53.2436 43.3603 52.0825 43.3603C49.867 43.3603 48.0586 42.6864 46.6572 41.3384L48.479 39.3164C49.5867 40.224 50.7412 40.6777 51.9423 40.6777C52.5696 40.6777 53.0568 40.5443 53.4038 40.2774C53.7508 39.9971 53.9243 39.6301 53.9243 39.1763C53.9243 38.856 53.8575 38.5957 53.7241 38.3955C53.5906 38.182 53.3504 37.9951 53.0034 37.835C52.6697 37.6615 52.1759 37.4746 51.5219 37.2744C49.9471 36.7806 48.8393 36.1867 48.1987 35.4927C47.5581 34.7987 47.2378 33.9245 47.2378 32.8702C47.2378 32.0427 47.458 31.3153 47.8984 30.6881C48.3522 30.0608 48.9728 29.5803 49.7602 29.2467C50.561 28.8997 51.4552 28.7262 52.4428 28.7262Z" fill="white"/>
<path d="M70.2617 38.3355C70.2617 39.2964 70.0481 40.1572 69.621 40.918C69.2073 41.6787 68.58 42.2793 67.7392 42.7197C66.8984 43.1468 65.8707 43.3603 64.6562 43.3603C62.8144 43.3603 61.4198 42.9132 60.4722 42.019C59.5246 41.1115 59.0508 39.8836 59.0508 38.3355V29.0865H62.7544V38.2154C62.7544 39.0562 62.9012 39.6768 63.1948 40.0772C63.5018 40.4642 63.9889 40.6577 64.6562 40.6577C65.3235 40.6577 65.804 40.4575 66.0976 40.0571C66.3912 39.6568 66.5381 39.0428 66.5381 38.2154V29.0865H70.2617V38.3355Z" fill="white"/>
<path d="M81.0413 29.0865L80.661 31.709H75.9164V34.6719H80.0604V37.2144H75.9164V40.3775H80.9813V43H72.2128V29.0865H81.0413Z" fill="white"/>
<path d="M9.77023 13.3228C9.77023 16.9562 12.7147 19.9168 16.3283 19.9168V104.429V106.986C16.3283 108.735 17.6667 110.081 19.4066 110.081H30.3814C36.9395 110.081 43.23 112.1 48.5835 115.733L59.2906 123L67.7225 116.675C73.3437 112.369 80.3034 110.081 87.263 110.081H97.8363C99.5762 110.081 100.915 108.735 100.915 106.986V104.429V19.9168H101.718C105.331 19.9168 108.276 16.9562 108.276 13.3228H9.77023ZM63.7073 111.427L59.023 114.926L52.1972 110.216C45.7729 105.775 38.1441 103.487 30.2476 103.487H22.7526V82.7626H30.2476C36.8057 82.7626 43.0961 84.7812 48.4497 88.4147L59.1568 95.6816L67.5887 89.3567C73.2099 85.0503 80.1695 82.7626 87.1292 82.7626H94.2226V103.487H87.1292C78.8311 103.487 70.5331 106.313 63.7073 111.427ZM55.4093 57.3282V85.0503L52.331 82.8971C50.4573 81.5514 48.4497 80.4748 46.3083 79.5328V57.3282H55.4093ZM61.9674 57.3282H70.3993V80.0426L71.2023 79.6674C68.5255 80.8786 66.1164 82.3589 63.7073 84.1083L61.8336 85.454V57.3282H61.9674ZM94.3565 76.1685H87.263C83.7832 76.1685 80.3034 76.7068 76.9574 77.6488V57.4628H82.4448C86.0584 57.4628 89.0029 54.5022 89.0029 50.8687H27.7047C27.7047 54.5022 30.6491 57.4628 34.2628 57.4628H39.7502V77.5142C36.6719 76.7068 33.5936 76.3031 30.3814 76.3031H22.8865V19.9168H94.3565V76.1685Z" fill="white"/>
</svg>
