<svg width="118" height="123" viewBox="0 0 118 123" fill="none" xmlns="http://www.w3.org/2000/svg">
<path d="M0 0C0 3.63348 2.94446 6.59409 6.55811 6.59409H110.685C114.298 6.59409 117.243 3.63348 117.243 0H0Z" fill="white"/>
<path d="M9.77023 13.3228C9.77023 16.9562 12.7147 19.9168 16.3283 19.9168V104.429V106.986C16.3283 108.735 17.6667 110.081 19.4066 110.081H30.3814C36.9395 110.081 43.23 112.1 48.5835 115.733L59.2906 123L67.7225 116.675C73.3437 112.369 80.3034 110.081 87.263 110.081H97.8363C99.5762 110.081 100.915 108.735 100.915 106.986V104.429V19.9168H101.718C105.331 19.9168 108.276 16.9562 108.276 13.3228H9.77023ZM63.7073 111.427L59.023 114.926L52.1972 110.216C45.7729 105.775 38.1441 103.487 30.2476 103.487H22.7526V82.7626H30.2476C36.8057 82.7626 43.0961 84.7812 48.4497 88.4147L59.1568 95.6816L67.5887 89.3567C73.2099 85.0503 80.1695 82.7626 87.1292 82.7626H94.2226V103.487H87.1292C78.8311 103.487 70.5331 106.313 63.7073 111.427ZM55.4093 57.3282V85.0503L52.331 82.8971C50.4573 81.5514 48.4497 80.4748 46.3083 79.5328V57.3282H55.4093ZM61.9674 57.3282H70.3993V80.0426L71.2023 79.6674C68.5255 80.8786 66.1164 82.3589 63.7073 84.1083L61.8336 85.454V57.3282H61.9674ZM94.3565 76.1685H87.263C83.7832 76.1685 80.3034 76.7068 76.9574 77.6488V57.4628H82.4448C86.0584 57.4628 89.0029 54.5022 89.0029 50.8687H27.7047C27.7047 54.5022 30.6491 57.4628 34.2628 57.4628H39.7502V77.5142C36.6719 76.7068 33.5936 76.3031 30.3814 76.3031H22.8865V19.9168H94.3565V76.1685Z" fill="white"/>
<path d="M45.0852 29L44.7505 31.6403H41.174V43.5215H37.7439V31.6403H34V29H45.0852Z" fill="white"/>
<path d="M57.2077 40.9022V46H54.8234L54.4469 43.5215H46.7919L46.4154 46H44.031V40.9022H45.0977C45.3905 40.5669 45.6276 40.1409 45.8089 39.624C46.0041 39.0931 46.1784 38.3737 46.3317 37.4657C46.4991 36.5576 46.6943 35.2584 46.9174 33.5681L47.4821 29H55.9319V40.9022H57.2077ZM52.6063 31.5355H50.3684L50.2011 33.2747C50.0338 34.8952 49.8455 36.1874 49.6364 37.1513C49.4412 38.1153 49.1971 38.8906 48.9043 39.4773C48.6255 40.0501 48.256 40.525 47.7958 40.9022H52.6063V31.5355Z" fill="white"/>
<path d="M70.1207 43.5215H66.7533V38.0943C66.7533 36.0966 66.9137 34.1898 67.2344 32.3737L63.0722 43.5215H58.9519V29H62.3193V34.532C62.3193 35.6915 62.2774 36.6554 62.1938 37.4237C62.1101 38.1921 61.9846 39.0861 61.8173 40.1059L66.0631 29H70.1207V43.5215Z" fill="white"/>
<path d="M80.1306 39.1839C79.7123 40.3155 79.2313 41.2026 78.6875 41.8452C78.1576 42.4878 77.5162 42.9627 76.7633 43.2701C76.0243 43.5774 75.09 43.78 73.9606 43.8778L73.5005 41.5728C74.4208 41.461 75.1249 41.2724 75.6129 41.007C76.101 40.7276 76.5123 40.2875 76.8469 39.6868H75.7593L71.3253 29H74.8391L77.8718 37.7381L80.528 29H84L80.1306 39.1839Z" fill="white"/>
</svg>
