<svg width="181" height="40" viewBox="0 0 181 40" fill="none" xmlns="http://www.w3.org/2000/svg">
<path d="M0.476074 39.8847H9.26602V0H0.476074V39.8847ZM31.5708 39.8847H40.3608V0H31.5708V39.8847ZM21.2038 39.8847H29.9938V0H21.2038V39.8847ZM10.843 25.5405H19.633V0H10.843V25.5405Z" fill="#17406C"/>
<path d="M52.4761 1.78335V0H61.3477L60.3432 1.78049L58.0043 1.78335V11.2156H55.8194V1.78335H52.4761Z" fill="#17406C"/>
<path d="M66.3908 6.91048H69.6315L68.7663 4.26332C68.5708 3.6503 68.3362 2.89794 68.0625 2.00627H67.9745C67.8963 2.27563 67.7741 2.66574 67.6079 3.17659C67.4515 3.68745 67.3391 4.04969 67.2706 4.26332L66.3908 6.91048ZM62.6222 11.2156L66.8454 0H69.1916L73.4148 11.2156H71.0979L70.2034 8.56844H65.8336L64.9391 11.2156H62.6222Z" fill="#17406C"/>
<path d="M75.7745 11.2156V0H77.9594V9.44619H81.3467V0H83.5316V9.44619H86.8896V0H89.0891V11.2156H75.7745Z" fill="#17406C"/>
<path d="M92.7393 11.2156V0H94.9241V4.80669H94.9681L99.3086 0H102.051L97.461 4.91815L102.124 11.2156H99.4992L96.0826 6.38105L94.9241 7.63497V11.2156H92.7393Z" fill="#17406C"/>
<path d="M104.454 11.2156V0H112.314L111.318 1.78335H106.639V4.54197H111.757V6.29746H106.639V9.44619H112.461V11.2156H104.454Z" fill="#17406C"/>
<path d="M115.334 11.2156V0H117.504V4.56984H121.947V0H124.132V11.2156H121.947V6.33925H117.504V11.2156H115.334Z" fill="#17406C"/>
<path d="M126.712 1.78335V0H135.583L134.581 1.78335H132.24V11.2156H130.055V1.78335H126.712Z" fill="#17406C"/>
<path d="M55.5486 25.4824V14.2668H64.3029V25.4824H62.1327V16.0502H57.7189V25.4824H55.5486Z" fill="#17406C"/>
<path d="M67.953 25.4824V14.2668H75.8128L74.8083 16.0502H70.1379V18.8088H75.2555V20.5643H70.1379V23.713H75.9594V25.4824H67.953Z" fill="#17406C"/>
<path d="M78.8323 25.4824V14.2668H83.4954C84.7565 14.2668 85.7341 14.5873 86.4282 15.2281C87.132 15.869 87.484 16.7096 87.484 17.7499C87.484 18.8274 87.1222 19.6772 86.3988 20.2995C85.6852 20.9126 84.732 21.2191 83.5394 21.2191H81.0172V25.4824H78.8323ZM81.0172 19.4497H83.2315C83.8669 19.4497 84.3606 19.3057 84.7125 19.0178C85.0644 18.7205 85.2404 18.2979 85.2404 17.7499C85.2404 17.2019 85.0693 16.7839 84.7272 16.496C84.385 16.1988 83.8864 16.0502 83.2315 16.0502H81.0172V19.4497Z" fill="#17406C"/>
<path d="M89.741 19.8258C89.741 18.6648 90.1711 17.7267 91.0314 17.0115C91.8917 16.2963 93.0208 15.883 94.4187 15.7715V14.2668H96.6036V15.7576C98.0211 15.8876 99.1551 16.3056 100.006 17.0115C100.866 17.7174 101.296 18.6555 101.296 19.8258C101.296 20.9776 100.871 21.9111 100.02 22.6263C99.1698 23.3415 98.0309 23.7687 96.6036 23.908V25.4824H94.4187V23.8941C93.0012 23.7548 91.8672 23.3322 91.0167 22.6263C90.1662 21.9204 89.741 20.9869 89.741 19.8258ZM91.9992 19.8258C91.9992 21.1262 92.8057 21.8925 94.4187 22.1247V17.5549C92.8057 17.7592 91.9992 18.5162 91.9992 19.8258ZM96.6036 22.1247C97.3368 22.0504 97.9234 21.8228 98.3633 21.442C98.8032 21.0519 99.0232 20.5132 99.0232 19.8258C99.0232 19.1385 98.7983 18.6091 98.3486 18.2375C97.9087 17.8567 97.327 17.6245 96.6036 17.5409V22.1247Z" fill="#17406C"/>
<path d="M104.272 25.4824V14.2668H112.131L111.126 16.0502H106.457V18.8088H111.574V20.5643H106.457V23.713H112.278V25.4824H104.272Z" fill="#17406C"/>
<path d="M115.151 25.4824V14.2668H117.336V19.0735H117.38L121.72 14.2668H124.462L119.873 19.185L124.536 25.4824H121.911L118.494 20.6479L117.336 21.9018V25.4824H115.151Z" fill="#17406C"/>
<path d="M125.796 16.0502V14.2668H134.667L133.67 16.0502H131.324V25.4824H129.139V16.0502H125.796Z" fill="#17406C"/>
<path d="M55.3179 28.5336H57.6348L59.5851 32.5322C59.8099 32.9688 60.0739 33.5446 60.3769 34.2598H60.4062C60.5138 34.0183 60.6604 33.6886 60.8461 33.2706C61.0417 32.8527 61.1492 32.6158 61.1688 32.5601L62.9871 28.5336H65.2306L61.0954 37.4504C60.372 39.0201 59.2087 39.8049 57.6055 39.8049H56.8429V38.0216H57.2535C57.7325 38.0216 58.0942 37.9566 58.3386 37.8265C58.5928 37.6872 58.8226 37.4039 59.0278 36.9767L59.2918 36.3218L55.3179 28.5336Z" fill="#17406C"/>
<path d="M67.7663 39.7492V28.5336H69.9365V33.1034H74.3796V28.5336H76.5645V39.7492H74.3796V34.8729H69.9365V39.7492H67.7663Z" fill="#17406C"/>
<path d="M80.2146 28.5336H82.3995V33.6189C82.3995 34.4363 82.3604 35.3651 82.2822 36.4054H82.3409L83.3673 34.6221L86.8573 28.5336H89.0862V39.7492H86.9013V34.7196C86.9013 33.8465 86.9453 32.9177 87.0333 31.9331H86.9746L85.9335 33.8279L82.4435 39.7492H80.2146V28.5336Z" fill="#17406C"/>
<path d="M92.7363 39.7492V28.5336H97.2528C98.5529 28.5336 99.5159 28.7983 100.142 29.3278C100.777 29.8572 101.095 30.5863 101.095 31.5152C101.095 32.0446 100.968 32.5044 100.713 32.8945C100.459 33.2846 100.127 33.5864 99.7163 33.8001C100.186 33.9765 100.601 34.2923 100.963 34.7475C101.324 35.2026 101.505 35.7692 101.505 36.4472C101.505 37.4039 101.183 38.1934 100.537 38.8157C99.8922 39.4381 98.9929 39.7492 97.8393 39.7492H92.7363ZM94.9212 37.9798H97.4874C97.9664 37.9798 98.377 37.8498 98.7191 37.5897C99.0711 37.3203 99.247 36.9395 99.247 36.4472C99.247 35.9828 99.0906 35.602 98.7778 35.3048C98.465 35.0075 98.0202 34.8589 97.4434 34.8589H94.9212V37.9798ZM94.9212 33.1034H97.0768C97.6047 33.1034 98.0299 32.9873 98.3525 32.7551C98.6751 32.5229 98.8364 32.1653 98.8364 31.6823C98.8364 30.7721 98.2646 30.317 97.1208 30.317H94.9212V33.1034Z" fill="#17406C"/>
<path d="M104.554 39.7492V28.5336H112.414L111.417 30.317H106.739V33.0756H111.857V34.8311H106.739V37.9798H112.561V39.7492H104.554Z" fill="#17406C"/>
<path d="M115.433 39.7492V28.5336H120.097C121.358 28.5336 122.335 28.8541 123.029 29.4949C123.733 30.1358 124.085 30.9764 124.085 32.0167C124.085 33.0942 123.723 33.944 123 34.5664C122.286 35.1794 121.333 35.4859 120.141 35.4859H117.618V39.7492H115.433ZM117.618 33.7165H119.833C120.468 33.7165 120.962 33.5725 121.314 33.2846C121.666 32.9873 121.842 32.5647 121.842 32.0167C121.842 31.4687 121.67 31.0507 121.328 30.7628C120.986 30.4656 120.488 30.317 119.833 30.317H117.618V33.7165Z" fill="#17406C"/>
<path d="M126.342 34.1344C126.342 32.3418 126.831 30.9207 127.809 29.8711C128.796 28.8123 130.072 28.2828 131.636 28.2828C132.662 28.2828 133.542 28.5475 134.275 29.077C135.008 29.6064 135.551 30.2705 135.903 31.0693L134.026 31.6545C133.391 30.5956 132.584 30.0662 131.606 30.0662C130.688 30.0662 129.954 30.4377 129.407 31.1808C128.869 31.9145 128.6 32.8991 128.6 34.1344C128.6 35.3884 128.874 36.3869 129.422 37.1299C129.969 37.8637 130.697 38.2306 131.606 38.2306C132.203 38.2306 132.736 38.0541 133.205 37.7011C133.674 37.3389 134.011 36.9024 134.217 36.3915L136.196 36.9627C136.05 37.3157 135.859 37.6547 135.624 37.9798C135.39 38.3049 135.092 38.63 134.73 38.9551C134.368 39.2709 133.918 39.5263 133.381 39.7214C132.853 39.9071 132.271 40 131.636 40C130.101 40 128.835 39.4799 127.838 38.4396C126.841 37.3993 126.342 35.9642 126.342 34.1344Z" fill="#17406C"/>
<path d="M138.908 28.5336H141.093V33.6189C141.093 34.4363 141.054 35.3651 140.975 36.4054H141.034L142.061 34.6221L145.551 28.5336H147.779V39.7492H145.594V34.7196C145.594 33.8465 145.638 32.9177 145.726 31.9331H145.668L144.627 33.8279L141.137 39.7492H138.908V28.5336Z" fill="#17406C"/>
<path d="M150.359 30.317V28.5336H159.231L158.225 30.317H155.887V39.7492H153.702V30.317H150.359Z" fill="#17406C"/>
<path d="M161.796 39.7492V28.5336H169.655L168.656 30.317H163.981V33.0756H169.098V34.8311H163.981V37.9798H169.802V39.7492H161.796Z" fill="#17406C"/>
<path d="M171.604 30.317V28.5336H180.476L179.478 30.317H177.133V39.7492H174.948V30.317H171.604Z" fill="#17406C"/>
</svg>
