<svg width="159" height="40" viewBox="0 0 159 40" fill="none" xmlns="http://www.w3.org/2000/svg">
<path d="M0.911621 39.8851H9.70157V0.000427246H0.911621V39.8851ZM32.0064 39.8851H40.7963V0.000427246H32.0064V39.8851ZM21.6394 39.8851H30.4293V0.000427246H21.6394V39.8851ZM11.2786 25.5409H20.0685V0.000427246H11.2786V25.5409Z" fill="#17406C"/>
<path d="M97.8027 23.6888H93.3451V20.6783H97.352V19.0349H93.3451V16.3658H97.3301L97.9046 14.5987H91.396V25.4704H97.8027V23.6888Z" fill="#17406C"/>
<path d="M107.911 24.7648V22.7213C107.114 23.361 106.118 23.7007 105.096 23.6814H104.856C104.396 23.6836 103.939 23.5927 103.515 23.4142C103.09 23.2356 102.706 22.973 102.385 22.6422C102.065 22.3113 101.814 21.9191 101.649 21.4891C101.484 21.0591 101.407 20.6001 101.424 20.1397C101.409 19.6352 101.497 19.133 101.685 18.6644C101.872 18.1958 102.154 17.7708 102.513 17.416C102.872 17.0612 103.3 16.7842 103.771 16.6022C104.242 16.4202 104.745 16.3372 105.249 16.3584C105.885 16.3584 106.513 16.4973 107.089 16.7658L107.642 15.0638C106.818 14.6729 105.914 14.4812 105.002 14.5042C101.972 14.3883 99.4218 16.751 99.3064 19.7809C99.3005 19.9344 99.3011 20.0881 99.308 20.2415C99.162 23.0492 101.32 25.4436 104.127 25.5896C104.162 25.5912 104.197 25.5929 104.231 25.5937H104.798C105.896 25.6432 106.983 25.3537 107.911 24.7648Z" fill="#17406C"/>
<path d="M117.539 14.5987H109.162V16.431H112.216V25.4704H114.201V16.431H116.95L117.539 14.5987Z" fill="#17406C"/>
<path d="M62.8025 35.5128C62.8025 36.9674 62.0755 38.1015 60.3809 38.1015C58.6868 38.1015 57.9156 37.0544 57.9156 35.4984V28.9973H55.9232V35.3602C55.9232 37.2944 56.5852 39.9998 60.352 39.9998C64.1189 39.9998 64.8023 37.44 64.8023 35.411V28.9973H62.8025V35.5128Z" fill="#17406C"/>
<path d="M75.027 35.6002L68.0458 29.0047H67.7551V39.8834H69.7111V33.3167L76.6848 39.8834H76.976V29.0047H75.027V35.6002Z" fill="#17406C"/>
<path d="M80.0154 38.9556C80.0154 39.468 80.4308 39.8835 80.9433 39.8835H81.0798C81.5923 39.8835 82.0077 39.468 82.0077 38.9556V29.9252C82.0077 29.4127 81.5923 28.9973 81.0798 28.9973H80.9433C80.4308 28.9973 80.0154 29.4127 80.0154 29.9252V38.9556Z" fill="#17406C"/>
<path d="M88.9526 36.8437L86.0802 29.0043H83.9641L88.1818 39.8835H89.687L94.0503 29.0043H91.9342L88.9526 36.8437Z" fill="#17406C"/>
<path d="M116.535 31.8985C116.535 31.3096 117.022 30.6696 118.186 30.6696C119.138 30.6989 120.049 31.0618 120.76 31.6948V29.6588C119.961 29.1313 119.02 28.8575 118.062 28.8731C115.743 28.8731 114.47 30.3277 114.47 32.0293C114.47 35.331 119.117 34.8802 119.117 36.8799C119.117 37.5563 118.593 38.1308 117.481 38.1308C116.35 38.0667 115.268 37.6466 114.39 36.9307V39.0104C115.346 39.6716 116.485 40.0174 117.648 39.9994C119.968 39.9994 121.335 38.7048 121.335 36.8944C121.335 33.4982 116.535 33.7457 116.535 31.8985Z" fill="#17406C"/>
<path d="M123.865 38.9556C123.865 39.468 124.281 39.8835 124.793 39.8835H124.93C125.442 39.8835 125.858 39.468 125.858 38.9556V29.9252C125.858 29.4127 125.442 28.9973 124.93 28.9973H124.793C124.281 28.9973 123.865 29.4127 123.865 29.9252V38.9556Z" fill="#17406C"/>
<path d="M59.4283 19.7764H57.8211V16.2565H59.5953C59.8289 16.2267 60.0661 16.2492 60.2899 16.3225C60.5137 16.3958 60.7183 16.518 60.889 16.6803C61.0596 16.8426 61.192 17.0408 61.2764 17.2606C61.3609 17.4804 61.3953 17.7163 61.3773 17.9511C61.3869 18.2041 61.3421 18.4562 61.2458 18.6904C61.1495 18.9246 61.004 19.1353 60.8192 19.3084C60.6344 19.4815 60.4146 19.6128 60.1746 19.6936C59.9346 19.7743 59.6801 19.8025 59.4283 19.7764ZM63.3552 17.9366C63.3552 15.7476 62.0825 14.5698 59.8427 14.5698H55.9303V25.4774H57.8285L57.8211 21.4998H59.719C62.0243 21.4998 63.3552 20.1252 63.3552 17.9366Z" fill="#17406C"/>
<path d="M79.0553 21.2235C79.7316 20.99 80.312 20.54 80.7064 19.9431C81.1009 19.3462 81.2873 18.6359 81.2369 17.9222C81.2369 15.9076 80.0005 14.5912 77.6663 14.5912H73.892V25.4993H75.7973V16.2784H77.3463C77.5844 16.2633 77.8229 16.2971 78.0474 16.3778C78.2718 16.4585 78.4773 16.5843 78.6513 16.7476C78.8252 16.9108 78.9638 17.1079 79.0585 17.3268C79.1533 17.5457 79.2022 17.7816 79.2022 18.0201C79.2022 18.2587 79.1533 18.4946 79.0585 18.7135C78.9638 18.9324 78.8252 19.1295 78.6513 19.2927C78.4773 19.456 78.2718 19.5818 78.0474 19.6625C77.8229 19.7432 77.5844 19.777 77.3463 19.7619H76.0011V19.9001L79.6805 25.4704H81.8621L79.0553 21.2235Z" fill="#17406C"/>
<path d="M85.5857 20.9761H89.1707V19.2889H85.5857V16.3658H89.1707L89.7382 14.5987H83.6367V25.47H85.5857V20.9761Z" fill="#17406C"/>
<path d="M71.6308 23.6888H67.1802V20.6783H71.1801V19.0349H67.1802V16.3658H71.1582L71.7327 14.5987H65.2316V25.4704H71.6308V23.6888Z" fill="#17406C"/>
<path d="M101.918 30.7714L102.493 29.0043H95.9844V39.8831H102.399V38.1015H97.9405V35.0839H101.94V33.4475H97.9405V30.7714H101.918Z" fill="#17406C"/>
<path d="M112.62 9.38259H108.141V6.3506H112.159V4.70718H108.141V2.01831H112.137L112.714 0.243333H106.176V11.1724H112.62V9.38259Z" fill="#17406C"/>
<path d="M112.201 32.3352C112.201 30.3136 110.965 28.9972 108.63 28.9972H104.907V39.9053H106.812V30.6844H108.361C108.599 30.6693 108.838 30.7031 109.063 30.7838C109.287 30.8645 109.492 30.9904 109.666 31.1536C109.84 31.3168 109.979 31.5139 110.074 31.7328C110.168 31.9517 110.217 32.1877 110.217 32.4262C110.217 32.6647 110.168 32.9007 110.074 33.1195C109.979 33.3384 109.84 33.5355 109.666 33.6988C109.492 33.862 109.287 33.9878 109.063 34.0685C108.838 34.1492 108.599 34.1831 108.361 34.1679H106.987V34.3131C106.987 34.3131 109.234 37.7081 110.674 39.8834H112.855L109.997 35.6365C110.677 35.4058 111.262 34.9572 111.66 34.3602C112.058 33.7632 112.249 33.0514 112.201 32.3352Z" fill="#17406C"/>
<path d="M127.85 30.837H130.905V39.8835H132.89V30.837H135.639L136.228 29.0047H127.85V30.837Z" fill="#17406C"/>
<path d="M82.0015 8.17424C82.0015 4.76697 77.1826 5.00988 77.1826 3.15778C77.1826 2.56557 77.6684 1.92057 78.8372 1.92057C79.7176 1.92057 80.6431 2.28513 81.425 2.9524V0.911418C80.8101 0.478396 79.862 0.121668 78.7155 0.121668C76.3858 0.121668 75.1103 1.55642 75.1103 3.28686C75.1103 6.6034 79.7783 6.14811 79.7783 8.15939C79.7783 8.83491 79.2467 9.41928 78.1311 9.41928C77.1826 9.41928 76.1202 9.01719 75.027 8.21259V10.2998C75.9 10.9373 77.0758 11.2941 78.2981 11.2941C80.6282 11.2941 82.0015 9.99582 82.0015 8.17424Z" fill="#17406C"/>
<path d="M86.1416 6.6034H91.1362V11.1724H93.1393V0.243333H91.1362V4.82018H86.1416V0.243333H84.1382V11.1724H86.1416V6.6034Z" fill="#17406C"/>
<path d="M97.8135 5.71588L102.178 11.1728H104.713L99.9617 5.2676L104.273 0.243298H101.89L97.8135 5.05562V0.243298H95.81V11.1728H97.8135V5.71588Z" fill="#17406C"/>
<path d="M122.142 6.86941L115.129 0.243749H114.833V11.1728H116.799V4.57769L123.804 11.1728H124.1V0.243749H122.142V6.86941Z" fill="#17406C"/>
<path d="M56.2404 11.0512H58.2348V1.96307H60.9962L61.588 0.121694H53.1721V1.96307H56.2404V11.0512Z" fill="#17406C"/>
<path d="M130.773 11.1728V2.08471H133.534L134.126 0.243336H125.71V2.08471H128.778V11.1728H130.773Z" fill="#17406C"/>
<path d="M144.318 38.0874H139.861V35.0769H143.868V33.4335H139.861V30.7644H143.846L144.42 28.9972H137.912V39.869H144.318V38.0874Z" fill="#17406C"/>
<path d="M146.034 30.837H149.089V39.8835H151.074V30.837H153.823L154.412 29.0047H146.034V30.837Z" fill="#17406C"/>
<path d="M156.484 39.0714C156.484 39.5839 156.899 39.9994 157.412 39.9994H157.548C158.061 39.9994 158.476 39.5839 158.476 39.0714V30.0411C158.476 29.5286 158.061 29.1132 157.548 29.1132H157.412C156.899 29.1132 156.484 29.5286 156.484 30.0411V39.0714Z" fill="#17406C"/>
<path fill-rule="evenodd" clip-rule="evenodd" d="M68.1616 0C69.6191 0 70.8684 0.534286 71.8798 1.60286C72.8911 2.67143 73.4116 3.97571 73.4116 5.51571C73.4116 7.05571 72.8911 8.34429 71.8798 9.41286C70.8684 10.4814 69.6191 11 68.1616 11C66.6892 11 65.4399 10.4814 64.4286 9.41286C63.4173 8.34429 62.9116 7.05571 62.9116 5.51571C62.9116 3.97571 63.4173 2.67143 64.4286 1.60286C65.4399 0.534286 66.6892 0 68.1616 0ZM70.4371 7.99857C69.8125 8.65857 69.054 8.98857 68.1616 8.98857C67.2544 8.98857 66.4959 8.65857 65.8713 7.99857C65.2466 7.33857 64.9492 6.52143 64.9492 5.51571C64.9492 4.52571 65.2466 3.69286 65.8713 3.01714C66.4959 2.35714 67.2544 2.01143 68.1616 2.01143C69.054 2.01143 69.8125 2.35714 70.4371 3.01714C71.0618 3.69286 71.3741 4.52571 71.3741 5.51571C71.3741 6.52143 71.0618 7.33857 70.4371 7.99857Z" fill="#17406C"/>
</svg>
