<svg width="352" height="254" viewBox="0 0 352 254" fill="none" xmlns="http://www.w3.org/2000/svg">
<g opacity="0.1">
<path d="M0 -203C0 -189.5 11 -178.5 24.5 -178.5H413.5C427 -178.5 438 -189.5 438 -203H0Z" fill="url(#paint0_linear_1322_13702)"/>
<path d="M36.5034 -153.502C36.5034 -140.002 47.5034 -129.001 61.0034 -129.001V194.5C61.0034 201 66.0034 206 72.5034 206H113.503C138.003 206 161.503 213.5 181.503 227L221.503 254L253.003 230.5C274.003 214.5 300.003 206 326.003 206H365.503C372.003 206 377.003 201 377.003 194.5V-129.001H380.003C393.503 -129.001 404.504 -140.002 404.504 -153.502H36.5034ZM238.003 211L220.503 224L195.003 206.5C171.003 190 142.503 181.5 113.003 181.5H85.0034V104.499H113.003C137.503 104.499 161.003 111.999 181.003 125.499L221.003 152.5L252.503 129C273.503 112.999 299.503 104.499 325.503 104.499H352.003V181.5H325.503C294.503 181.5 263.503 192 238.003 211ZM207.003 9.99904V112.999L195.503 104.999C188.503 99.9994 181.003 95.9994 173.003 92.4994V9.99904H207.003ZM263.003 9.99904V94.3933L266.003 92.9994C256.003 97.4994 247.003 102.999 238.003 109.499L231.003 114.499V9.99904H263.003ZM352.503 79.9993H326.003C313.003 79.9993 300.003 81.9994 287.503 85.4994V10.4991H308.003C321.503 10.4991 332.503 -0.500992 332.503 -14.001H103.503C103.503 -0.500992 114.503 10.4991 128.003 10.4991H148.503V84.9993C137.003 81.9993 125.503 80.4994 113.503 80.4994H85.5034V-129.001H352.503V79.9993Z" fill="url(#paint1_linear_1322_13702)"/>
</g>
<defs>
<linearGradient id="paint0_linear_1322_13702" x1="220.503" y1="-203" x2="220.503" y2="254" gradientUnits="userSpaceOnUse">
<stop stop-color="#144176"/>
<stop offset="1" stop-color="#144176" stop-opacity="0"/>
</linearGradient>
<linearGradient id="paint1_linear_1322_13702" x1="220.503" y1="-203" x2="220.503" y2="254" gradientUnits="userSpaceOnUse">
<stop stop-color="#144176"/>
<stop offset="1" stop-color="#144176" stop-opacity="0"/>
</linearGradient>
</defs>
</svg>
