<svg width="152" height="28" viewBox="0 0 152 28" fill="none" xmlns="http://www.w3.org/2000/svg">
<path d="M28.4922 0H0.492188V28H28.4922V0Z" fill="#F7A600"/>
<path d="M20.8037 12.3337C18.9143 11.8613 18.4419 11.6251 18.4419 10.8904V10.8379C18.4419 10.313 18.9143 9.89317 19.8327 9.89317C20.8562 9.94566 21.8534 10.3393 22.6669 10.9691L23.9002 9.15841C22.7456 8.23994 21.3285 7.74135 19.8327 7.76759C17.6022 7.76759 16.0014 9.07968 16.0014 11.0478V11.0741C16.0014 13.2521 17.4185 13.8557 19.6228 14.4068C21.4597 14.8791 21.8271 15.194 21.8271 15.7976V15.8238C21.8271 16.4536 21.2236 16.8735 20.2788 16.8735C19.0717 16.8473 17.8908 16.3749 16.9986 15.5614L16.9461 15.5089C16.9461 15.5089 16.7887 15.3777 16.6837 15.2727C16.6312 15.2465 16.605 15.194 16.5525 15.1415C16.3426 15.9025 16.0014 16.6111 15.5553 17.2671L15.8177 17.5033C17.0511 18.4742 18.5994 19.0253 20.1739 18.9991C22.5356 18.9991 24.1889 17.792 24.1889 15.6139V15.5876C24.2676 13.7245 23.0342 12.9372 20.8037 12.3337ZM18.337 20.7835L12.4588 16.0075C11.2517 17.0834 9.44099 17.1622 8.15514 16.2174C6.84305 15.2465 6.39694 13.5145 7.05298 12.045C7.70903 10.5755 9.33602 9.76196 10.9105 10.1031C12.485 10.4442 13.6134 11.8613 13.6134 13.4883C13.6134 14.1181 13.4297 14.7217 13.0886 15.2465L14.7943 16.6636C16.3951 14.328 16.0014 11.1528 13.8758 9.26337C11.7503 7.37396 8.54877 7.37396 6.42318 9.26337C4.29759 11.1528 3.90397 14.328 5.50472 16.6636C7.10547 18.9991 10.202 19.7863 12.7475 18.5005L18.1533 21.0722L18.337 20.7835Z" fill="white"/>
<path d="M47.883 7.67579C48.0759 7.24298 48.1723 7.02657 48.3067 6.95993C48.4233 6.90203 48.5604 6.90203 48.6771 6.95993C48.8114 7.02657 48.9078 7.24298 49.1008 7.6758L50.6375 11.1232C50.6945 11.2512 50.723 11.3152 50.7672 11.3642C50.8062 11.4075 50.8539 11.4422 50.9072 11.4659C50.9674 11.4927 51.0371 11.5001 51.1764 11.5148L54.93 11.911C55.4012 11.9607 55.6369 11.9856 55.7418 12.0927C55.8329 12.1858 55.8752 12.3161 55.8562 12.445C55.8343 12.5933 55.6583 12.752 55.3063 13.0692L52.5025 15.596C52.3984 15.6898 52.3464 15.7367 52.3134 15.7938C52.2843 15.8443 52.266 15.9004 52.2599 15.9584C52.253 16.024 52.2675 16.0925 52.2966 16.2296L53.0798 19.9218C53.1781 20.3854 53.2272 20.6172 53.1577 20.75C53.0974 20.8655 52.9865 20.946 52.8581 20.9678C52.7102 20.9928 52.505 20.8744 52.0945 20.6377L48.8249 18.7519C48.7036 18.6819 48.6429 18.6469 48.5784 18.6332C48.5214 18.6211 48.4624 18.6211 48.4053 18.6332C48.3408 18.6469 48.2801 18.6819 48.1588 18.7519L44.8892 20.6377C44.4787 20.8744 44.2735 20.9928 44.1256 20.9678C43.9972 20.946 43.8863 20.8655 43.826 20.75C43.7565 20.6172 43.8057 20.3854 43.904 19.9218L44.6871 16.2296C44.7162 16.0925 44.7307 16.024 44.7238 15.9584C44.7177 15.9004 44.6995 15.8443 44.6703 15.7938C44.6374 15.7367 44.5853 15.6898 44.4813 15.596L41.6774 13.0692C41.3254 12.752 41.1494 12.5933 41.1275 12.445C41.1085 12.3161 41.1509 12.1858 41.242 12.0927C41.3469 11.9856 41.5825 11.9607 42.0537 11.911L45.8073 11.5148C45.9466 11.5001 46.0163 11.4927 46.0765 11.4659C46.1298 11.4422 46.1775 11.4075 46.2166 11.3642C46.2607 11.3152 46.2892 11.2512 46.3463 11.1232L47.883 7.67579Z" fill="#F7A600"/>
<path d="M67.883 7.67579C68.0759 7.24298 68.1723 7.02657 68.3067 6.95993C68.4233 6.90203 68.5604 6.90203 68.6771 6.95993C68.8114 7.02657 68.9078 7.24298 69.1008 7.6758L70.6375 11.1232C70.6945 11.2512 70.723 11.3152 70.7672 11.3642C70.8062 11.4075 70.8539 11.4422 70.9072 11.4659C70.9674 11.4927 71.0371 11.5001 71.1764 11.5148L74.93 11.911C75.4012 11.9607 75.6369 11.9856 75.7418 12.0927C75.8329 12.1858 75.8752 12.3161 75.8562 12.445C75.8343 12.5933 75.6583 12.752 75.3063 13.0692L72.5025 15.596C72.3984 15.6898 72.3464 15.7367 72.3134 15.7938C72.2843 15.8443 72.266 15.9004 72.2599 15.9584C72.253 16.024 72.2675 16.0925 72.2966 16.2296L73.0798 19.9218C73.1781 20.3854 73.2272 20.6172 73.1577 20.75C73.0974 20.8655 72.9865 20.946 72.8581 20.9678C72.7102 20.9928 72.505 20.8744 72.0945 20.6377L68.8249 18.7519C68.7036 18.6819 68.6429 18.6469 68.5784 18.6332C68.5214 18.6211 68.4624 18.6211 68.4053 18.6332C68.3408 18.6469 68.2801 18.6819 68.1588 18.7519L64.8892 20.6377C64.4787 20.8744 64.2735 20.9928 64.1256 20.9678C63.9972 20.946 63.8863 20.8655 63.826 20.75C63.7565 20.6172 63.8057 20.3854 63.904 19.9218L64.6871 16.2296C64.7162 16.0925 64.7307 16.024 64.7238 15.9584C64.7177 15.9004 64.6995 15.8443 64.6703 15.7938C64.6374 15.7367 64.5853 15.6898 64.4813 15.596L61.6774 13.0692C61.3254 12.752 61.1494 12.5933 61.1275 12.445C61.1085 12.3161 61.1509 12.1858 61.242 12.0927C61.3469 11.9856 61.5825 11.9607 62.0537 11.911L65.8073 11.5148C65.9466 11.5001 66.0163 11.4927 66.0765 11.4659C66.1298 11.4422 66.1775 11.4075 66.2166 11.3642C66.2607 11.3152 66.2892 11.2512 66.3463 11.1232L67.883 7.67579Z" fill="#F7A600"/>
<path d="M87.883 7.67579C88.0759 7.24298 88.1723 7.02657 88.3067 6.95993C88.4233 6.90203 88.5604 6.90203 88.6771 6.95993C88.8114 7.02657 88.9078 7.24298 89.1008 7.6758L90.6375 11.1232C90.6945 11.2512 90.723 11.3152 90.7672 11.3642C90.8062 11.4075 90.8539 11.4422 90.9072 11.4659C90.9674 11.4927 91.0371 11.5001 91.1764 11.5148L94.93 11.911C95.4012 11.9607 95.6369 11.9856 95.7418 12.0927C95.8329 12.1858 95.8752 12.3161 95.8562 12.445C95.8343 12.5933 95.6583 12.752 95.3063 13.0692L92.5025 15.596C92.3984 15.6898 92.3464 15.7367 92.3134 15.7938C92.2843 15.8443 92.266 15.9004 92.2599 15.9584C92.253 16.024 92.2675 16.0925 92.2966 16.2296L93.0798 19.9218C93.1781 20.3854 93.2272 20.6172 93.1577 20.75C93.0974 20.8655 92.9865 20.946 92.8581 20.9678C92.7102 20.9928 92.505 20.8744 92.0945 20.6377L88.8249 18.7519C88.7036 18.6819 88.6429 18.6469 88.5784 18.6332C88.5214 18.6211 88.4624 18.6211 88.4053 18.6332C88.3408 18.6469 88.2801 18.6819 88.1588 18.7519L84.8892 20.6377C84.4787 20.8744 84.2735 20.9928 84.1256 20.9678C83.9972 20.946 83.8863 20.8655 83.826 20.75C83.7565 20.6172 83.8057 20.3854 83.904 19.9218L84.6871 16.2296C84.7162 16.0925 84.7307 16.024 84.7238 15.9584C84.7177 15.9004 84.6995 15.8443 84.6703 15.7938C84.6374 15.7367 84.5853 15.6898 84.4813 15.596L81.6774 13.0692C81.3254 12.752 81.1494 12.5933 81.1275 12.445C81.1085 12.3161 81.1509 12.1858 81.242 12.0927C81.3469 11.9856 81.5825 11.9607 82.0537 11.911L85.8073 11.5148C85.9466 11.5001 86.0163 11.4927 86.0765 11.4659C86.1298 11.4422 86.1775 11.4075 86.2166 11.3642C86.2607 11.3152 86.2892 11.2512 86.3463 11.1232L87.883 7.67579Z" fill="#F7A600"/>
<path d="M107.883 7.67579C108.076 7.24298 108.172 7.02657 108.307 6.95993C108.423 6.90203 108.56 6.90203 108.677 6.95993C108.811 7.02657 108.908 7.24298 109.101 7.6758L110.637 11.1232C110.695 11.2512 110.723 11.3152 110.767 11.3642C110.806 11.4075 110.854 11.4422 110.907 11.4659C110.967 11.4927 111.037 11.5001 111.176 11.5148L114.93 11.911C115.401 11.9607 115.637 11.9856 115.742 12.0927C115.833 12.1858 115.875 12.3161 115.856 12.445C115.834 12.5933 115.658 12.752 115.306 13.0692L112.502 15.596C112.398 15.6898 112.346 15.7367 112.313 15.7938C112.284 15.8443 112.266 15.9004 112.26 15.9584C112.253 16.024 112.268 16.0925 112.297 16.2296L113.08 19.9218C113.178 20.3854 113.227 20.6172 113.158 20.75C113.097 20.8655 112.987 20.946 112.858 20.9678C112.71 20.9928 112.505 20.8744 112.095 20.6377L108.825 18.7519C108.704 18.6819 108.643 18.6469 108.578 18.6332C108.521 18.6211 108.462 18.6211 108.405 18.6332C108.341 18.6469 108.28 18.6819 108.159 18.7519L104.889 20.6377C104.479 20.8744 104.273 20.9928 104.126 20.9678C103.997 20.946 103.886 20.8655 103.826 20.75C103.756 20.6172 103.806 20.3854 103.904 19.9218L104.687 16.2296C104.716 16.0925 104.731 16.024 104.724 15.9584C104.718 15.9004 104.699 15.8443 104.67 15.7938C104.637 15.7367 104.585 15.6898 104.481 15.596L101.677 13.0692C101.325 12.752 101.149 12.5933 101.128 12.445C101.109 12.3161 101.151 12.1858 101.242 12.0927C101.347 11.9856 101.582 11.9607 102.054 11.911L105.807 11.5148C105.947 11.5001 106.016 11.4927 106.077 11.4659C106.13 11.4422 106.178 11.4075 106.217 11.3642C106.261 11.3152 106.289 11.2512 106.346 11.1232L107.883 7.67579Z" fill="#F7A600"/>
<path d="M127.883 7.67579C128.076 7.24298 128.172 7.02657 128.307 6.95993C128.423 6.90203 128.56 6.90203 128.677 6.95993C128.811 7.02657 128.908 7.24298 129.101 7.6758L130.637 11.1232C130.695 11.2512 130.723 11.3152 130.767 11.3642C130.806 11.4075 130.854 11.4422 130.907 11.4659C130.967 11.4927 131.037 11.5001 131.176 11.5148L134.93 11.911C135.401 11.9607 135.637 11.9856 135.742 12.0927C135.833 12.1858 135.875 12.3161 135.856 12.445C135.834 12.5933 135.658 12.752 135.306 13.0692L132.502 15.596C132.398 15.6898 132.346 15.7367 132.313 15.7938C132.284 15.8443 132.266 15.9004 132.26 15.9584C132.253 16.024 132.268 16.0925 132.297 16.2296L133.08 19.9218C133.178 20.3854 133.227 20.6172 133.158 20.75C133.097 20.8655 132.987 20.946 132.858 20.9678C132.71 20.9928 132.505 20.8744 132.095 20.6377L128.825 18.7519C128.704 18.6819 128.643 18.6469 128.578 18.6332C128.521 18.6211 128.462 18.6211 128.405 18.6332C128.341 18.6469 128.28 18.6819 128.159 18.7519L124.889 20.6377C124.479 20.8744 124.273 20.9928 124.126 20.9678C123.997 20.946 123.886 20.8655 123.826 20.75C123.756 20.6172 123.806 20.3854 123.904 19.9218L124.687 16.2296C124.716 16.0925 124.731 16.024 124.724 15.9584C124.718 15.9004 124.699 15.8443 124.67 15.7938C124.637 15.7367 124.585 15.6898 124.481 15.596L121.677 13.0692C121.325 12.752 121.149 12.5933 121.128 12.445C121.109 12.3161 121.151 12.1858 121.242 12.0927C121.347 11.9856 121.582 11.9607 122.054 11.911L125.807 11.5148C125.947 11.5001 126.016 11.4927 126.077 11.4659C126.13 11.4422 126.178 11.4075 126.217 11.3642C126.261 11.3152 126.289 11.2512 126.346 11.1232L127.883 7.67579Z" fill="#F7A600"/>
<path d="M142.132 18.48L143.332 17.28C143.508 17.52 143.732 17.728 144.004 17.92C144.452 18.24 145.108 18.56 146.052 18.56C147.508 18.56 148.372 17.68 148.372 16.4C148.372 15.12 147.508 14.24 146.052 14.24C145.364 14.24 144.868 14.528 144.5 14.8C144.292 14.976 144.116 15.152 143.972 15.36L142.692 15.2L143.092 8.8H149.412V10.48H144.612L144.452 13.2C144.596 13.104 144.772 13.008 144.964 12.928C145.3 12.784 145.748 12.64 146.372 12.64C148.548 12.64 150.132 14.224 150.132 16.4C150.132 18.576 148.532 20.16 146.052 20.16C144.708 20.16 143.764 19.76 143.108 19.328C142.724 19.088 142.404 18.8 142.132 18.48Z" fill="white"/>
</svg>
