<svg width="490" height="490" viewBox="0 0 490 490" fill="none" xmlns="http://www.w3.org/2000/svg">
<path d="M99.7597 158.301L101.478 161.769L105.317 162.331L102.538 165.035L103.196 168.853L99.7597 167.05L96.3342 168.853L96.9917 165.035L94.2131 162.331L98.0523 161.769L99.7597 158.301Z" fill="#EBEBEB"/>
<path d="M443.002 321.867L444.72 325.346L448.559 325.908L445.78 328.602L446.438 332.43L443.002 330.627L439.576 332.43L440.234 328.602L437.455 325.908L441.294 325.346L443.002 321.867Z" fill="#F5F5F5"/>
<path d="M375.021 422.715L376.739 426.183L380.568 426.745L377.789 429.449L378.447 433.267L375.021 431.464L371.596 433.267L372.243 429.449L369.475 426.745L373.303 426.183L375.021 422.715Z" fill="#F5F5F5"/>
<path d="M219.484 96.6855L220.12 97.9793L221.552 98.1914C221.632 98.2019 221.707 98.2349 221.769 98.2865C221.831 98.3382 221.876 98.4064 221.901 98.4832C221.925 98.56 221.928 98.6421 221.907 98.72C221.887 98.798 221.844 98.8684 221.785 98.9232L220.725 99.9307L220.969 101.352C220.981 101.431 220.971 101.512 220.941 101.586C220.91 101.66 220.86 101.724 220.795 101.771C220.73 101.818 220.654 101.847 220.574 101.853C220.494 101.86 220.414 101.844 220.343 101.808L219.07 101.129L217.798 101.808C217.726 101.844 217.646 101.86 217.566 101.853C217.486 101.847 217.41 101.818 217.345 101.771C217.28 101.724 217.23 101.66 217.199 101.586C217.169 101.512 217.159 101.431 217.172 101.352L217.405 99.9307L216.345 98.9232C216.285 98.8677 216.243 98.7964 216.223 98.7177C216.203 98.6389 216.206 98.5561 216.232 98.479C216.257 98.402 216.305 98.3339 216.368 98.2829C216.431 98.2319 216.508 98.2002 216.589 98.1914L218.01 97.9793L218.646 96.6855C218.671 96.5939 218.726 96.5133 218.802 96.4558C218.877 96.3983 218.97 96.3672 219.065 96.3672C219.16 96.3672 219.252 96.3983 219.328 96.4558C219.404 96.5133 219.458 96.5939 219.484 96.6855Z" fill="#EBEBEB"/>
<path d="M44.326 406.199L44.9623 407.482L46.3834 407.694C46.4641 407.706 46.5401 407.739 46.6026 407.791C46.6651 407.843 46.7118 407.912 46.7372 407.989C46.7626 408.067 46.7658 408.15 46.7464 408.229C46.727 408.308 46.6857 408.38 46.6274 408.437L45.5668 409.434L45.8108 410.855C45.8233 410.934 45.8137 411.015 45.7831 411.089C45.7525 411.163 45.7021 411.227 45.6374 411.274C45.5727 411.321 45.4962 411.35 45.4164 411.356C45.3366 411.363 45.2565 411.347 45.185 411.311L43.9124 410.643L42.6398 411.311C42.5683 411.347 42.4882 411.363 42.4084 411.356C42.3286 411.35 42.2521 411.321 42.1874 411.274C42.1227 411.227 42.0723 411.163 42.0417 411.089C42.0111 411.015 42.0015 410.934 42.014 410.855L42.258 409.434L41.1974 408.437C41.1393 408.381 41.0979 408.309 41.0779 408.231C41.058 408.153 41.0602 408.071 41.0845 407.993C41.1087 407.916 41.1539 407.848 41.2151 407.795C41.2763 407.742 41.3509 407.707 41.4308 407.694L42.8519 407.482L43.4988 406.199C43.5271 406.112 43.5824 406.036 43.6567 405.982C43.731 405.928 43.8205 405.898 43.9124 405.898C44.0043 405.898 44.0938 405.928 44.1681 405.982C44.2424 406.036 44.2977 406.112 44.326 406.199Z" fill="#F5F5F5"/>
<path d="M72.9282 83.0559L73.5645 84.3498L74.9963 84.5513C75.0761 84.564 75.1508 84.5987 75.2119 84.6515C75.2731 84.7044 75.3183 84.7732 75.3426 84.8503C75.3668 84.9274 75.3691 85.0097 75.3491 85.088C75.3291 85.1663 75.2878 85.2375 75.2296 85.2936L74.1691 86.3542L74.413 87.7647C74.4299 87.8447 74.4233 87.928 74.394 88.0044C74.3647 88.0808 74.314 88.1471 74.2478 88.1953C74.1817 88.2435 74.103 88.2716 74.0213 88.2761C73.9396 88.2806 73.8583 88.2614 73.7873 88.2207L72.5146 87.5526L71.242 88.2207C71.1709 88.2614 71.0897 88.2806 71.0079 88.2761C70.9262 88.2716 70.8476 88.2435 70.7814 88.1953C70.7153 88.1471 70.6645 88.0808 70.6352 88.0044C70.6059 87.928 70.5993 87.8447 70.6163 87.7647L70.8496 86.3542L69.789 85.2936C69.7307 85.2368 69.6894 85.1648 69.67 85.0857C69.6506 85.0066 69.6538 84.9237 69.6792 84.8463C69.7046 84.7689 69.7513 84.7002 69.8138 84.6481C69.8763 84.5959 69.9523 84.5624 70.033 84.5513L71.4541 84.3498L72.1328 83.0559C72.1669 82.9788 72.2226 82.9133 72.2932 82.8673C72.3638 82.8214 72.4463 82.7969 72.5305 82.7969C72.6148 82.7969 72.6972 82.8214 72.7678 82.8673C72.8384 82.9133 72.8942 82.9788 72.9282 83.0559Z" fill="#EBEBEB"/>
<path d="M71.2106 338.666C71.2127 338.945 71.1318 339.219 70.9781 339.452C70.8244 339.685 70.6048 339.868 70.3473 339.976C70.0897 340.085 69.8058 340.114 69.5315 340.061C69.2572 340.008 69.0049 339.874 68.8065 339.677C68.6082 339.48 68.4728 339.229 68.4175 338.955C68.3622 338.681 68.3896 338.397 68.496 338.139C68.6024 337.88 68.7832 337.66 69.0154 337.504C69.2476 337.349 69.5207 337.266 69.8001 337.266C70.1724 337.266 70.5295 337.413 70.7938 337.675C71.058 337.937 71.2078 338.293 71.2106 338.666Z" fill="#EBEBEB"/>
<path d="M272.224 162.162C272.226 162.441 272.145 162.715 271.991 162.948C271.838 163.182 271.618 163.364 271.36 163.472C271.103 163.581 270.819 163.61 270.545 163.557C270.27 163.504 270.018 163.37 269.82 163.173C269.621 162.977 269.486 162.725 269.431 162.451C269.375 162.177 269.403 161.893 269.509 161.635C269.616 161.377 269.796 161.156 270.029 161C270.261 160.845 270.534 160.762 270.813 160.762C270.998 160.76 271.181 160.796 271.352 160.865C271.523 160.935 271.679 161.038 271.81 161.168C271.941 161.298 272.045 161.453 272.116 161.623C272.187 161.794 272.224 161.977 272.224 162.162Z" fill="#EBEBEB"/>
<path d="M199.09 84.223C199.09 84.502 199.007 84.7747 198.852 85.0066C198.697 85.2386 198.477 85.4194 198.219 85.5261C197.961 85.6329 197.677 85.6608 197.404 85.6064C197.13 85.552 196.879 85.4176 196.682 85.2204C196.484 85.0231 196.35 84.7718 196.296 84.4982C196.241 84.2246 196.269 83.941 196.376 83.6832C196.483 83.4255 196.663 83.2052 196.895 83.0502C197.127 82.8952 197.4 82.8125 197.679 82.8125C198.052 82.8153 198.409 82.9648 198.673 83.2287C198.937 83.4926 199.087 83.8498 199.09 84.223Z" fill="#F5F5F5"/>
<path d="M201.323 427.988C205.513 426.999 208.108 422.801 207.119 418.611C206.13 414.421 201.932 411.826 197.742 412.815C193.552 413.804 190.957 418.002 191.946 422.192C192.935 426.382 197.133 428.977 201.323 427.988Z" fill="#F0F0F0"/>
<path d="M196.852 415.84C195.255 415.837 193.699 416.342 192.408 417.282C191.749 418.794 191.587 420.476 191.946 422.086C192.305 423.696 193.166 425.15 194.404 426.239C195.643 427.328 197.196 427.996 198.838 428.145C200.481 428.295 202.129 427.918 203.544 427.071C204.17 425.912 204.485 424.611 204.457 423.294C204.429 421.978 204.06 420.691 203.385 419.56C202.711 418.428 201.754 417.492 200.609 416.842C199.463 416.192 198.169 415.85 196.852 415.85V415.84Z" fill="#E6E6E6"/>
<path d="M136.485 284.918H71.9512V255.785L136.485 179.066H167.367V257.44H183.371V284.918H167.367V308.759H136.485V284.918ZM136.485 257.44V217.309L102.378 257.44H136.485Z" fill="#024DA5"/>
<path d="M194.411 244.482C194.411 220.238 198.773 203.269 207.498 193.576C216.223 183.883 229.518 179.04 247.385 179.047C255.961 179.047 263.006 180.107 268.521 182.228C273.531 184.034 278.118 186.845 282.001 190.49C285.273 193.614 288.045 197.223 290.22 201.191C292.372 205.333 293.993 209.73 295.045 214.278C297.443 223.993 298.64 233.966 298.609 243.973C298.609 267.106 294.695 284.036 286.868 294.762C279.042 305.487 265.562 310.853 246.43 310.861C235.698 310.861 227.026 309.15 220.415 305.728C213.752 302.25 208.139 297.054 204.157 290.679C201.082 285.984 198.689 279.561 196.978 271.409C195.201 262.545 194.341 253.522 194.411 244.482ZM229.557 244.567C229.557 260.828 230.989 271.918 233.852 277.836C236.716 283.753 240.877 286.726 246.335 286.755C248.067 286.774 249.786 286.449 251.391 285.799C252.997 285.149 254.458 284.187 255.689 282.969C258.333 280.444 260.277 276.457 261.522 271.006C262.766 265.555 263.388 257.07 263.388 245.553C263.388 228.627 261.953 217.247 259.082 211.414C256.212 205.581 251.906 202.668 246.165 202.676C240.311 202.676 236.069 205.649 233.439 211.595C230.809 217.541 229.515 228.531 229.557 244.567Z" fill="#024DA5"/>
<path d="M374.108 284.918H309.574V255.785L374.108 179.066H404.99V257.44H421.047V284.918H404.99V308.759H374.108V284.918ZM374.108 257.44V217.309L340.012 257.44H374.108Z" fill="#024DA5"/>
<g opacity="0.3">
<path opacity="0.3" d="M193.035 134.304C193.035 134.696 192.919 135.08 192.7 135.406C192.482 135.733 192.171 135.987 191.808 136.137C191.445 136.287 191.046 136.325 190.661 136.248C190.276 136.17 189.923 135.981 189.646 135.702C189.369 135.424 189.181 135.069 189.106 134.684C189.03 134.299 189.071 133.899 189.223 133.537C189.375 133.175 189.63 132.866 189.958 132.649C190.285 132.433 190.67 132.318 191.063 132.32C191.323 132.32 191.58 132.372 191.82 132.472C192.06 132.571 192.278 132.718 192.461 132.902C192.645 133.086 192.79 133.305 192.888 133.545C192.987 133.786 193.037 134.044 193.035 134.304Z" fill="#024DA5"/>
<path opacity="0.3" d="M57.2554 210.48C58.0285 210.48 58.6553 209.853 58.6553 209.08C58.6553 208.306 58.0285 207.68 57.2554 207.68C56.4822 207.68 55.8555 208.306 55.8555 209.08C55.8555 209.853 56.4822 210.48 57.2554 210.48Z" fill="#024DA5"/>
<path opacity="0.3" d="M288.536 414.919C289.643 414.919 290.541 414.022 290.541 412.915C290.541 411.808 289.643 410.91 288.536 410.91C287.429 410.91 286.532 411.808 286.532 412.915C286.532 414.022 287.429 414.919 288.536 414.919Z" fill="#024DA5"/>
<path opacity="0.3" d="M336.737 333.366C337.51 333.366 338.137 332.739 338.137 331.966C338.137 331.193 337.51 330.566 336.737 330.566C335.964 330.566 335.337 331.193 335.337 331.966C335.337 332.739 335.964 333.366 336.737 333.366Z" fill="#024DA5"/>
<path opacity="0.3" d="M429.715 81.2749C429.715 81.5518 429.633 81.8224 429.479 82.0526C429.325 82.2829 429.107 82.4623 428.851 82.5682C428.595 82.6742 428.314 82.7019 428.042 82.6479C427.771 82.5939 427.521 82.4606 427.325 82.2648C427.13 82.069 426.996 81.8196 426.942 81.548C426.888 81.2764 426.916 80.995 427.022 80.7392C427.128 80.4834 427.307 80.2647 427.537 80.1109C427.768 79.9571 428.038 79.875 428.315 79.875C428.686 79.875 429.043 80.0225 429.305 80.285C429.568 80.5476 429.715 80.9036 429.715 81.2749Z" fill="#024DA5"/>
<path opacity="0.3" d="M163.076 53.0444C163.076 53.3213 162.994 53.592 162.84 53.8222C162.686 54.0524 162.468 54.2318 162.212 54.3378C161.956 54.4437 161.674 54.4715 161.403 54.4175C161.131 54.3634 160.882 54.2301 160.686 54.0343C160.49 53.8385 160.357 53.5891 160.303 53.3176C160.249 53.046 160.277 52.7645 160.383 52.5087C160.489 52.2529 160.668 52.0343 160.898 51.8805C161.128 51.7266 161.399 51.6445 161.676 51.6445C162.046 51.6473 162.401 51.7957 162.663 52.0576C162.925 52.3196 163.073 52.674 163.076 53.0444Z" fill="#024DA5"/>
<path opacity="0.3" d="M274.379 126.495C275.152 126.495 275.779 125.868 275.779 125.095C275.779 124.322 275.152 123.695 274.379 123.695C273.606 123.695 272.979 124.322 272.979 125.095C272.979 125.868 273.606 126.495 274.379 126.495Z" fill="#024DA5"/>
</g>
<path d="M129.647 126.508C142.48 126.508 152.884 116.104 152.884 103.271C152.884 90.4384 142.48 80.0352 129.647 80.0352C116.814 80.0352 106.411 90.4384 106.411 103.271C106.411 116.104 116.814 126.508 129.647 126.508Z" fill="#024DA5"/>
<path opacity="0.7" d="M129.647 126.508C142.48 126.508 152.884 116.104 152.884 103.271C152.884 90.4384 142.48 80.0352 129.647 80.0352C116.814 80.0352 106.411 90.4384 106.411 103.271C106.411 116.104 116.814 126.508 129.647 126.508Z" fill="white"/>
<path opacity="0.2" d="M121.64 85.7423C118.476 85.7326 115.343 86.3714 112.435 87.6194C108.861 91.5475 106.739 96.581 106.424 101.882C106.108 107.184 107.617 112.433 110.7 116.758C113.782 121.082 118.252 124.221 123.367 125.652C128.481 127.082 133.931 126.719 138.81 124.621C141.835 121.288 143.827 117.148 144.544 112.704C145.262 108.26 144.673 103.703 142.85 99.5869C141.028 95.4709 138.049 91.9726 134.276 89.5169C130.504 87.0611 126.099 85.7535 121.598 85.7529L121.64 85.7423Z" fill="#024DA5"/>
<path opacity="0.2" d="M119.328 91.8828C119.328 92.3023 119.204 92.7124 118.971 93.0612C118.738 93.41 118.407 93.6819 118.019 93.8424C117.631 94.0029 117.205 94.0449 116.793 93.9631C116.382 93.8813 116.004 93.6792 115.707 93.3826C115.411 93.086 115.209 92.708 115.127 92.2966C115.045 91.8851 115.087 91.4587 115.248 91.0711C115.408 90.6835 115.68 90.3522 116.029 90.1192C116.378 89.8861 116.788 89.7617 117.207 89.7617C117.77 89.7617 118.309 89.9852 118.707 90.383C119.105 90.7807 119.328 91.3202 119.328 91.8828Z" fill="#024DA5"/>
<path opacity="0.2" d="M144.315 89.7617C144.315 90.1812 144.19 90.5913 143.957 90.9401C143.724 91.2889 143.393 91.5608 143.005 91.7213C142.618 91.8818 142.191 91.9238 141.78 91.842C141.368 91.7602 140.99 91.5581 140.694 91.2615C140.397 90.9649 140.195 90.5869 140.113 90.1755C140.031 89.764 140.073 89.3376 140.234 88.95C140.394 88.5624 140.666 88.2312 141.015 87.9981C141.364 87.765 141.774 87.6406 142.194 87.6406C142.756 87.6406 143.296 87.8641 143.693 88.2619C144.091 88.6596 144.315 89.1992 144.315 89.7617Z" fill="#024DA5"/>
<path opacity="0.2" d="M140.072 104.904C140.072 105.592 139.868 106.265 139.486 106.837C139.104 107.409 138.561 107.855 137.925 108.118C137.289 108.381 136.59 108.45 135.915 108.316C135.24 108.182 134.621 107.851 134.134 107.364C133.648 106.878 133.316 106.258 133.182 105.583C133.048 104.908 133.117 104.209 133.38 103.573C133.643 102.938 134.089 102.394 134.661 102.012C135.233 101.63 135.906 101.426 136.594 101.426C137.516 101.426 138.401 101.792 139.053 102.445C139.706 103.097 140.072 103.982 140.072 104.904Z" fill="#024DA5"/>
<path opacity="0.2" d="M129.021 114.821C129.021 115.74 128.749 116.638 128.239 117.402C127.728 118.166 127.003 118.761 126.154 119.112C125.305 119.464 124.371 119.556 123.47 119.377C122.569 119.198 121.741 118.755 121.092 118.106C120.442 117.456 120 116.628 119.82 115.727C119.641 114.826 119.733 113.892 120.085 113.043C120.436 112.195 121.032 111.469 121.796 110.959C122.56 110.448 123.458 110.176 124.376 110.176C125.608 110.176 126.79 110.665 127.661 111.536C128.532 112.407 129.021 113.589 129.021 114.821Z" fill="#024DA5"/>
<path d="M405.036 383.556C407.623 372.594 400.834 361.61 389.872 359.022C378.91 356.435 367.926 363.224 365.339 374.186C362.751 385.149 369.54 396.133 380.503 398.72C391.465 401.307 402.449 394.518 405.036 383.556Z" fill="#024DA5"/>
<path opacity="0.3" d="M405.036 383.556C407.623 372.594 400.834 361.61 389.872 359.022C378.91 356.435 367.926 363.224 365.339 374.186C362.751 385.149 369.54 396.133 380.503 398.72C391.465 401.307 402.449 394.518 405.036 383.556Z" fill="white"/>
<path opacity="0.4" d="M398.068 363.08C393.547 361.716 388.693 361.963 384.334 363.781C379.976 365.598 376.383 368.873 374.171 373.045C371.958 377.217 371.263 382.027 372.204 386.655C373.145 391.283 375.663 395.44 379.329 398.417C381.23 398.995 383.206 399.288 385.194 399.287C389.404 399.286 393.511 397.982 396.95 395.554C400.39 393.126 402.994 389.693 404.404 385.726C405.815 381.759 405.963 377.453 404.829 373.398C403.694 369.343 401.333 365.739 398.068 363.08Z" fill="#024DA5"/>
<path d="M365.722 384.99C343.949 395.235 360.186 403.136 390.867 392.106C419.279 381.893 430.107 369.018 404.654 373.016C406.022 378.372 370.441 392.233 365.722 384.99Z" fill="#024DA5"/>
<path opacity="0.2" d="M397.823 179.066C369.306 198.336 332.389 223.789 322.197 284.918H320.023C329.939 224.468 365.509 198.411 394.037 179.066H397.823Z" fill="black"/>
<path d="M250.303 370.426C232.274 370.426 214.447 362.292 205.761 349.014C200.405 340.806 194.18 323.615 212.718 300.675L214.362 302.011C201.254 318.238 198.836 334.517 207.543 347.858C218.148 364.084 243.166 372.251 264.525 366.439C286.404 360.489 299.682 341.463 300.965 314.239C305.345 221.114 354.819 192.427 390.941 171.481C413.392 158.468 429.608 149.072 426.044 129.229C425.546 126.483 424.454 124.584 422.683 123.418C418.069 120.374 409.055 122.484 398.619 124.913C378.14 129.685 350.1 136.218 333.396 107.807L335.231 106.746C351.139 133.822 377.196 127.745 398.142 122.866C409.055 120.332 418.472 118.136 423.849 121.668C426.129 123.163 427.529 125.528 428.091 128.879C431.92 150.175 414.304 160.398 391.98 173.337C356.272 194.039 307.381 222.387 303.054 314.388C301.718 342.598 287.868 362.335 265.045 368.539C260.237 369.819 255.279 370.454 250.303 370.426Z" fill="#024DA5"/>
<path opacity="0.2" d="M250.303 370.426C232.274 370.426 214.447 362.292 205.761 349.014C200.405 340.806 194.18 323.615 212.718 300.675L214.362 302.011C201.254 318.238 198.836 334.517 207.543 347.858C218.148 364.084 243.166 372.251 264.525 366.439C286.404 360.489 299.682 341.463 300.965 314.239C305.345 221.114 354.819 192.427 390.941 171.481C413.392 158.468 429.608 149.072 426.044 129.229C425.546 126.483 424.454 124.584 422.683 123.418C418.069 120.374 409.055 122.484 398.619 124.913C378.14 129.685 350.1 136.218 333.396 107.807L335.231 106.746C351.139 133.822 377.196 127.745 398.142 122.866C409.055 120.332 418.472 118.136 423.849 121.668C426.129 123.163 427.529 125.528 428.091 128.879C431.92 150.175 414.304 160.398 391.98 173.337C356.272 194.039 307.381 222.387 303.054 314.388C301.718 342.598 287.868 362.335 265.045 368.539C260.237 369.819 255.279 370.454 250.303 370.426Z" fill="white"/>
<path d="M311.56 82.7383C316.447 82.7665 321.301 83.5279 325.962 84.9972C325.962 84.9972 337.628 104.903 339.007 109.464C338.519 113.96 330.936 121.331 330.936 121.331L311.56 82.7383Z" fill="#024DA5"/>
<path opacity="0.3" d="M311.56 82.7383C316.447 82.7665 321.301 83.5279 325.962 84.9972C325.962 84.9972 337.628 104.903 339.007 109.464C338.519 113.96 330.936 121.331 330.936 121.331L311.56 82.7383Z" fill="white"/>
<path d="M346.112 179.385C341.62 173.892 337.523 168.087 333.852 162.013C332.961 160.479 332.117 158.917 331.318 157.326C330.862 156.424 330.427 155.523 330.003 154.611C329.446 153.723 329.014 152.763 328.719 151.758C327.447 138.321 332.049 128.426 327.659 117.641L310.181 124.47C310.181 124.47 311.666 143.687 315.06 155.226C317.181 162.363 321.932 168.536 326.524 174.252C327.956 176.034 329.334 177.868 330.766 179.661C332.198 181.453 333.64 182.906 335.008 184.592C337.076 187.148 337.755 189.598 336.196 192.61L335.931 193.087C335.485 193.872 337.564 194.763 338.879 193.087C341 190.351 340.703 190.52 342.549 188.187C343.673 186.777 344.956 185.239 346.07 183.945C346.607 183.309 346.905 182.505 346.913 181.673C346.92 180.84 346.637 180.031 346.112 179.385Z" fill="#024DA5"/>
<path opacity="0.7" d="M346.112 179.385C341.62 173.892 337.523 168.087 333.852 162.013C332.961 160.479 332.117 158.917 331.318 157.326C330.862 156.424 330.427 155.523 330.003 154.611C329.446 153.723 329.014 152.763 328.719 151.758C327.447 138.321 332.049 128.426 327.659 117.641L310.181 124.47C310.181 124.47 311.666 143.687 315.06 155.226C317.181 162.363 321.932 168.536 326.524 174.252C327.956 176.034 329.334 177.868 330.766 179.661C332.198 181.453 333.64 182.906 335.008 184.592C337.076 187.148 337.755 189.598 336.196 192.61L335.931 193.087C335.485 193.872 337.564 194.763 338.879 193.087C341 190.351 340.703 190.52 342.549 188.187C343.673 186.777 344.956 185.239 346.07 183.945C346.607 183.309 346.905 182.505 346.913 181.673C346.92 180.84 346.637 180.031 346.112 179.385Z" fill="white"/>
<path opacity="0.3" d="M341.838 173.859C339.065 176.832 335.986 179.505 332.654 181.835C333.11 182.344 333.555 182.895 334.011 183.383C337.348 181.129 340.378 178.452 343.026 175.418L341.838 173.859Z" fill="#024DA5"/>
<path opacity="0.3" d="M346.112 179.383L345.985 179.234C345.169 180.171 344.694 181.356 344.638 182.596C344.57 183.447 344.708 184.302 345.041 185.088L346.049 183.89C346.575 183.26 346.869 182.469 346.881 181.648C346.892 180.827 346.621 180.027 346.112 179.383Z" fill="#024DA5"/>
<path d="M307.403 95.4652C305.508 98.3023 303.235 100.868 300.647 103.09C299.212 104.327 297.639 105.395 295.959 106.272C295.077 106.724 294.162 107.111 293.223 107.428L292.502 107.661L292.269 107.725L291.77 107.863C291.463 107.936 291.151 107.985 290.837 108.011C289.942 108.08 289.042 107.997 288.175 107.767C287.081 107.457 286.033 107.004 285.057 106.421C284.272 105.962 283.511 105.462 282.777 104.925C281.451 103.939 280.183 102.877 278.98 101.744C276.66 99.5456 274.532 97.1543 272.617 94.5956C272.248 94.0971 272.065 93.4856 272.099 92.8665C272.133 92.2475 272.382 91.6597 272.803 91.2046C273.225 90.7496 273.791 90.4558 274.406 90.374C275.02 90.2922 275.644 90.4274 276.17 90.7565H276.255C278.758 92.3473 281.282 94.0229 283.742 95.5183C284.993 96.25 286.202 96.9924 287.401 97.5651C287.948 97.8515 288.511 98.1065 289.087 98.3287C289.446 98.4871 289.83 98.5805 290.222 98.6044C290.286 98.6044 290.222 98.5302 289.829 98.5408C289.706 98.5334 289.582 98.5334 289.458 98.5408L289.225 98.5938L289.575 98.4135C290.046 98.16 290.503 97.8803 290.943 97.5757C291.892 96.9066 292.779 96.1542 293.594 95.3274C295.447 93.3857 297.182 91.3352 298.791 89.1869C299.672 88.2009 300.89 87.5798 302.206 87.4454C303.521 87.3111 304.84 87.6732 305.902 88.4607C306.965 89.2482 307.694 90.4043 307.948 91.7021C308.202 93 307.962 94.3459 307.275 95.4758L307.403 95.4652Z" fill="#024DA5"/>
<path opacity="0.7" d="M307.403 95.4652C305.508 98.3023 303.235 100.868 300.647 103.09C299.212 104.327 297.639 105.395 295.959 106.272C295.077 106.724 294.162 107.111 293.223 107.428L292.502 107.661L292.269 107.725L291.77 107.863C291.463 107.936 291.151 107.985 290.837 108.011C289.942 108.08 289.042 107.997 288.175 107.767C287.081 107.457 286.033 107.004 285.057 106.421C284.272 105.962 283.511 105.462 282.777 104.925C281.451 103.939 280.183 102.877 278.98 101.744C276.66 99.5456 274.532 97.1543 272.617 94.5956C272.248 94.0971 272.065 93.4856 272.099 92.8665C272.133 92.2475 272.382 91.6597 272.803 91.2046C273.225 90.7496 273.791 90.4558 274.406 90.374C275.02 90.2922 275.644 90.4274 276.17 90.7565H276.255C278.758 92.3473 281.282 94.0229 283.742 95.5183C284.993 96.25 286.202 96.9924 287.401 97.5651C287.948 97.8515 288.511 98.1065 289.087 98.3287C289.446 98.4871 289.83 98.5805 290.222 98.6044C290.286 98.6044 290.222 98.5302 289.829 98.5408C289.706 98.5334 289.582 98.5334 289.458 98.5408L289.225 98.5938L289.575 98.4135C290.046 98.16 290.503 97.8803 290.943 97.5757C291.892 96.9066 292.779 96.1542 293.594 95.3274C295.447 93.3857 297.182 91.3352 298.791 89.1869C299.672 88.2009 300.89 87.5798 302.206 87.4454C303.521 87.3111 304.84 87.6732 305.902 88.4607C306.965 89.2482 307.694 90.4043 307.948 91.7021C308.202 93 307.962 94.3459 307.275 95.4758L307.403 95.4652Z" fill="white"/>
<path d="M268.64 88.4848L269.881 90.6059C269.881 90.6059 270.825 93.3844 272.723 93.8935L277.877 92.2285L277.612 91.7937C276.955 90.7968 277.029 88.856 277.252 87.244C277.474 85.632 276.647 85.5789 276.032 85.9819C275.596 86.4833 275.29 87.0843 275.141 87.7318C274.888 87.3816 274.608 87.0518 274.303 86.7455L272.734 85.1759C272.405 84.8541 271.966 84.6687 271.506 84.6568C271.045 84.645 270.598 84.8077 270.252 85.1123L268.98 86.2471C268.678 86.5263 268.48 86.8999 268.418 87.3065C268.356 87.7131 268.435 88.1286 268.64 88.4848Z" fill="#024DA5"/>
<path opacity="0.7" d="M268.64 88.4848L269.881 90.6059C269.881 90.6059 270.825 93.3844 272.723 93.8935L277.877 92.2285L277.612 91.7937C276.955 90.7968 277.029 88.856 277.252 87.244C277.474 85.632 276.647 85.5789 276.032 85.9819C275.596 86.4833 275.29 87.0843 275.141 87.7318C274.888 87.3816 274.608 87.0518 274.303 86.7455L272.734 85.1759C272.405 84.8541 271.966 84.6687 271.506 84.6568C271.045 84.645 270.598 84.8077 270.252 85.1123L268.98 86.2471C268.678 86.5263 268.48 86.8999 268.418 87.3065C268.356 87.7131 268.435 88.1286 268.64 88.4848Z" fill="white"/>
<path d="M316.767 80.8483C311.05 82.3636 305.574 84.6733 300.499 87.7099C299.707 88.2055 299.086 88.9312 298.718 89.7899C298.35 90.6485 298.254 91.5991 298.441 92.5141C300.488 102.526 305.144 115.931 310.171 124.468L333.619 114.764C333.778 110.628 328.083 97.2441 322.282 84.3056C321.243 81.983 319.238 80.2544 316.767 80.8483Z" fill="#024DA5"/>
<path opacity="0.8" d="M316.767 80.8483C311.05 82.3636 305.574 84.6733 300.499 87.7099C299.707 88.2055 299.086 88.9312 298.718 89.7899C298.35 90.6485 298.254 91.5991 298.441 92.5141C300.488 102.526 305.144 115.931 310.171 124.468L333.619 114.764C333.778 110.628 328.083 97.2441 322.282 84.3056C321.243 81.983 319.238 80.2544 316.767 80.8483Z" fill="white"/>
<path opacity="0.3" d="M325.919 92.5043L321.264 90.9453C322.324 93.6709 326.068 97.1176 328.687 99.1432C327.839 97.0222 326.895 94.795 325.919 92.5043Z" fill="#024DA5"/>
<path d="M315.229 70.35C313.289 66.6593 309.1 64.8034 304.073 65.217C299.83 65.5776 296.076 69.9046 296.522 72.2377C296.967 74.5709 300.53 75.5678 301.209 76.3738L298.272 78.4949C297.924 78.7461 297.63 79.0651 297.408 79.4327C297.187 79.8003 297.042 80.2089 296.983 80.634C296.923 81.059 296.95 81.4917 297.063 81.906C297.175 82.3203 297.369 82.7076 297.635 83.0446C298.876 84.6142 300.509 86.2262 301.453 87.414C309.577 87.2019 315.59 84.1051 317.764 81.125C316.947 77.3495 317.117 74.0194 315.229 70.35Z" fill="#024DA5"/>
<path opacity="0.8" d="M315.229 70.35C313.289 66.6593 309.1 64.8034 304.073 65.217C299.83 65.5776 296.076 69.9046 296.522 72.2377C296.967 74.5709 300.53 75.5678 301.209 76.3738L298.272 78.4949C297.924 78.7461 297.63 79.0651 297.408 79.4327C297.187 79.8003 297.042 80.2089 296.983 80.634C296.923 81.059 296.95 81.4917 297.063 81.906C297.175 82.3203 297.369 82.7076 297.635 83.0446C298.876 84.6142 300.509 86.2262 301.453 87.414C309.577 87.2019 315.59 84.1051 317.764 81.125C316.947 77.3495 317.117 74.0194 315.229 70.35Z" fill="white"/>
<path d="M311.242 72.6399C311.818 74.1189 311.944 75.7357 311.602 77.2859C311.26 78.8361 310.466 80.2501 309.32 81.3492C308.175 82.4483 306.729 83.1832 305.166 83.4608C303.603 83.7385 301.993 83.5465 300.539 82.9092C299.085 82.2719 297.853 81.2179 296.998 79.8803C296.143 78.5428 295.703 76.9817 295.735 75.3946C295.767 73.8074 296.269 72.2654 297.177 70.9633C298.086 69.6613 299.359 68.6578 300.838 68.0796C302.822 67.3065 305.033 67.3525 306.983 68.2075C308.934 69.0625 310.465 70.6566 311.242 72.6399Z" fill="#263238"/>
<path d="M380.102 168.217C379.985 164.727 379.826 165.035 379.731 162.097C379.667 160.294 379.656 158.29 379.646 156.561C379.642 155.74 379.355 154.946 378.834 154.312C378.312 153.678 377.587 153.244 376.782 153.083C375.383 152.796 373.972 152.531 372.54 152.234C370.706 151.842 368.892 151.418 367.1 150.898C365.7 150.495 364.321 150.05 362.953 149.551C361.585 149.053 360.047 148.491 358.626 147.833C356.951 147.123 355.296 146.359 353.663 145.564C351.828 144.694 350.015 143.782 348.201 142.859C341.223 131.31 341.074 123.695 333.587 114.766L317.509 122.041C317.509 122.041 329.324 142.997 337.362 151.884C341.997 156.996 349.262 159.308 355.741 160.984C360.418 162.182 365.159 163.105 369.9 163.985C371.745 164.324 373.749 164.452 375.34 165.555C376.517 166.457 377.324 167.758 377.61 169.213C377.68 169.51 377.744 169.807 377.801 170.104C378.002 170.995 380.176 170.316 380.102 168.217Z" fill="#024DA5"/>
<path opacity="0.8" d="M380.102 168.217C379.985 164.727 379.826 165.035 379.731 162.097C379.667 160.294 379.656 158.29 379.646 156.561C379.642 155.74 379.355 154.946 378.834 154.312C378.312 153.678 377.587 153.244 376.782 153.083C375.383 152.796 373.972 152.531 372.54 152.234C370.706 151.842 368.892 151.418 367.1 150.898C365.7 150.495 364.321 150.05 362.953 149.551C361.585 149.053 360.047 148.491 358.626 147.833C356.951 147.123 355.296 146.359 353.663 145.564C351.828 144.694 350.015 143.782 348.201 142.859C341.223 131.31 341.074 123.695 333.587 114.766L317.509 122.041C317.509 122.041 329.324 142.997 337.362 151.884C341.997 156.996 349.262 159.308 355.741 160.984C360.418 162.182 365.159 163.105 369.9 163.985C371.745 164.324 373.749 164.452 375.34 165.555C376.517 166.457 377.324 167.758 377.61 169.213C377.68 169.51 377.744 169.807 377.801 170.104C378.002 170.995 380.176 170.316 380.102 168.217Z" fill="white"/>
<path opacity="0.3" d="M371.946 152.095C371.31 151.957 370.674 151.819 370.027 151.66C370.08 155.33 368.362 161.65 367.736 163.57L369.751 163.952C371.072 160.131 371.812 156.135 371.946 152.095Z" fill="#024DA5"/>
<path opacity="0.3" d="M379.689 156.559C379.686 155.74 379.4 154.946 378.881 154.313C378.361 153.679 377.639 153.244 376.836 153.08L375.775 152.879C375.946 154.085 376.563 155.182 377.504 155.954C378.109 156.514 378.835 156.928 379.625 157.163C379.689 156.973 379.689 156.76 379.689 156.559Z" fill="#024DA5"/>
<path d="M309.747 72.7063C310.171 74.3183 308.368 76.0046 306.936 74.6153C305.6 73.1825 304.138 71.8728 302.567 70.7019C301.093 69.7792 303.055 68.1672 305.377 68.7929C306.368 69.0419 307.284 69.5283 308.045 70.21C308.806 70.8918 309.39 71.7485 309.747 72.7063Z" fill="white"/>
<path d="M309.863 123.951C309.12 124.227 310.478 125.5 310.478 125.5C310.478 125.5 325.325 120.42 334.34 115.191C334.362 114.875 334.308 114.558 334.182 114.266C334.057 113.975 333.864 113.717 333.619 113.516C325.904 117.44 317.972 120.924 309.863 123.951Z" fill="#024DA5"/>
<path opacity="0.5" d="M309.863 123.951C309.12 124.227 310.478 125.5 310.478 125.5C310.478 125.5 325.325 120.42 334.34 115.191C334.362 114.875 334.308 114.558 334.182 114.266C334.057 113.975 333.864 113.717 333.619 113.516C325.904 117.44 317.972 120.924 309.863 123.951Z" fill="white"/>
<path d="M320.787 80.1493C323.714 81.6341 326.461 83.1931 329.271 84.9217C330.639 85.7914 331.997 86.6716 333.344 87.6261C334.69 88.5806 336.027 89.5563 337.374 90.6592L337.872 91.0728L338.498 91.6455C338.871 91.9791 339.225 92.3332 339.558 92.706C339.898 93.0772 340.184 93.4378 340.46 93.7666C340.735 94.0953 341.032 94.4877 341.276 94.8271C342.265 96.1905 343.178 97.6067 344.013 99.0692C345.656 101.905 347.075 104.866 348.255 107.925C348.473 108.503 348.484 109.138 348.287 109.723C348.089 110.308 347.695 110.807 347.171 111.135C346.648 111.462 346.027 111.598 345.414 111.519C344.801 111.441 344.235 111.152 343.811 110.703L343.758 110.64C341.637 108.381 339.59 106.005 337.533 103.789C335.475 101.572 333.386 99.3238 331.657 98.3375C329.25 96.8421 326.567 95.3468 323.905 93.8832L315.887 89.429C314.644 88.7708 313.713 87.6457 313.299 86.3013C312.886 84.9568 313.023 83.503 313.681 82.2598C314.34 81.0166 315.465 80.0857 316.809 79.6721C318.154 79.2584 319.607 79.3957 320.851 80.0539L320.787 80.1493Z" fill="#024DA5"/>
<path opacity="0.8" d="M320.787 80.1493C323.714 81.6341 326.461 83.1931 329.271 84.9217C330.639 85.7914 331.997 86.6716 333.344 87.6261C334.69 88.5806 336.027 89.5563 337.374 90.6592L337.872 91.0728L338.498 91.6455C338.871 91.9791 339.225 92.3332 339.558 92.706C339.898 93.0772 340.184 93.4378 340.46 93.7666C340.735 94.0953 341.032 94.4877 341.276 94.8271C342.265 96.1905 343.178 97.6067 344.013 99.0692C345.656 101.905 347.075 104.866 348.255 107.925C348.473 108.503 348.484 109.138 348.287 109.723C348.089 110.308 347.695 110.807 347.171 111.135C346.648 111.462 346.027 111.598 345.414 111.519C344.801 111.441 344.235 111.152 343.811 110.703L343.758 110.64C341.637 108.381 339.59 106.005 337.533 103.789C335.475 101.572 333.386 99.3238 331.657 98.3375C329.25 96.8421 326.567 95.3468 323.905 93.8832L315.887 89.429C314.644 88.7708 313.713 87.6457 313.299 86.3013C312.886 84.9568 313.023 83.503 313.681 82.2598C314.34 81.0166 315.465 80.0857 316.809 79.6721C318.154 79.2584 319.607 79.3957 320.851 80.0539L320.787 80.1493Z" fill="white"/>
<path d="M350.768 113.215L349.867 110.956C349.867 110.956 349.368 108.072 347.576 107.266L342.273 108.103L342.454 108.57C342.941 109.631 342.57 111.571 342.093 113.12C341.616 114.668 342.422 114.87 343.1 114.562C343.482 114.392 343.853 113.703 344.256 112.971C344.454 113.34 344.677 113.694 344.925 114.032L346.229 115.824C346.502 116.196 346.905 116.45 347.357 116.537C347.809 116.623 348.278 116.535 348.668 116.291L350.111 115.368C350.448 115.137 350.697 114.798 350.817 114.407C350.936 114.016 350.919 113.595 350.768 113.215Z" fill="#024DA5"/>
<path opacity="0.8" d="M350.768 113.215L349.867 110.956C349.867 110.956 349.368 108.072 347.576 107.266L342.273 108.103L342.454 108.57C342.941 109.631 342.57 111.571 342.093 113.12C341.616 114.668 342.422 114.87 343.1 114.562C343.482 114.392 343.853 113.703 344.256 112.971C344.454 113.34 344.677 113.694 344.925 114.032L346.229 115.824C346.502 116.196 346.905 116.45 347.357 116.537C347.809 116.623 348.278 116.535 348.668 116.291L350.111 115.368C350.448 115.137 350.697 114.798 350.817 114.407C350.936 114.016 350.919 113.595 350.768 113.215Z" fill="white"/>
<path opacity="0.3" d="M316.311 92.3438L315.017 92.4498L307.074 111.624C307.508 111.655 307.945 111.62 308.368 111.518C308.368 111.518 318.719 107.658 321.847 106.216C319.747 101.878 316.311 92.3438 316.311 92.3438Z" fill="#024DA5"/>
<path d="M301.813 97.374C302.778 102.386 304.57 107.203 307.116 111.628C310.997 110.291 317.467 107.767 320.606 106.325C318.496 101.802 316.623 97.1714 314.996 92.4531C311.676 92.6758 304.39 95.465 301.813 97.374Z" fill="white"/>
<path opacity="0.3" d="M309.694 101.52C309.539 102.039 309.233 102.5 308.816 102.845C308.399 103.19 307.889 103.403 307.35 103.458C306.812 103.513 306.269 103.407 305.791 103.154C305.313 102.9 304.92 102.511 304.663 102.034C304.407 101.558 304.297 101.016 304.348 100.477C304.4 99.9381 304.61 99.4265 304.952 99.007C305.294 98.5875 305.752 98.2789 306.27 98.1202C306.788 97.9615 307.34 97.9599 307.859 98.1156C308.553 98.3241 309.137 98.7998 309.481 99.4381C309.825 100.076 309.901 100.825 309.694 101.52Z" fill="#024DA5"/>
<path opacity="0.6" d="M311.719 97.8721C311.677 98.0491 311.583 98.2095 311.449 98.3322C311.315 98.4549 311.147 98.5342 310.967 98.5597C310.787 98.5851 310.603 98.5556 310.441 98.4749C310.278 98.3942 310.143 98.2662 310.054 98.1075C309.965 97.9489 309.927 97.7672 309.943 97.5861C309.959 97.4051 310.03 97.2332 310.146 97.093C310.261 96.9529 310.417 96.851 310.592 96.8007C310.766 96.7505 310.952 96.7542 311.125 96.8115C311.34 96.8802 311.52 97.0279 311.631 97.2248C311.741 97.4216 311.772 97.6529 311.719 97.8721Z" fill="#024DA5"/>
<path opacity="0.6" d="M314.094 96.9495C314.069 97.0725 314.019 97.189 313.947 97.2914C313.874 97.3939 313.781 97.4801 313.673 97.5445C313.566 97.6089 313.446 97.6501 313.321 97.6654C313.196 97.6807 313.07 97.6699 312.95 97.6336C312.83 97.5972 312.718 97.5362 312.623 97.4544C312.528 97.3726 312.451 97.2718 312.397 97.1585C312.343 97.0451 312.313 96.9218 312.31 96.7963C312.306 96.6709 312.329 96.546 312.376 96.4298C312.41 96.3176 312.466 96.2132 312.54 96.1225C312.615 96.0319 312.706 95.9569 312.81 95.9017C312.913 95.8465 313.027 95.8123 313.143 95.801C313.26 95.7897 313.378 95.8016 313.49 95.8359C313.717 95.9047 313.908 96.0601 314.021 96.2686C314.134 96.477 314.16 96.7217 314.094 96.9495Z" fill="#024DA5"/>
<path opacity="0.5" d="M317.424 105.211L307.615 109.082L307.031 107.152L316.831 103.281L317.424 105.211Z" fill="#024DA5"/>
<path opacity="0.2" d="M263.304 252.603C263.281 258.778 262.685 264.938 261.522 271.003C260.271 276.454 258.327 280.442 255.69 282.966C254.461 284.185 253.003 285.148 251.398 285.798C249.794 286.448 248.077 286.772 246.346 286.752C240.895 286.752 236.734 283.779 233.864 277.833C233.359 276.765 232.931 275.663 232.581 274.535C226.518 279.741 220.873 285.415 215.697 291.503L210.065 298.142C213.096 301.214 216.593 303.787 220.427 305.767C227.03 309.182 235.699 310.893 246.431 310.9C248.319 310.9 250.143 310.847 251.914 310.741C258.407 301.133 263.78 290.815 267.928 279.986L283.677 238.922L263.304 252.603Z" fill="black"/>
<path d="M121.331 308.631L139.89 327.191L191.857 278.226C173.944 271.385 139.116 290.804 121.331 308.631Z" fill="#263238"/>
<path d="M186.056 373.322C180.127 367.383 167.496 354.763 167.496 354.763L216.461 302.797C223.259 320.667 203.841 355.527 186.056 373.322Z" fill="#263238"/>
<path d="M257.089 256.347L277.335 217.309L238.297 237.575C225.757 244.079 214.179 252.287 203.893 261.968L137.344 324.613L170.041 357.31L232.686 290.761C242.371 280.472 250.584 268.89 257.089 256.347Z" fill="#024DA5"/>
<path opacity="0.8" d="M257.089 256.347L277.335 217.309L238.297 237.575C225.757 244.079 214.179 252.287 203.893 261.968L137.344 324.613L170.041 357.31L232.686 290.761C242.371 280.472 250.584 268.89 257.089 256.347Z" fill="white"/>
<path d="M215.517 292.807C223.073 292.807 229.198 286.682 229.198 279.126C229.198 271.57 223.073 265.445 215.517 265.445C207.961 265.445 201.836 271.57 201.836 279.126C201.836 286.682 207.961 292.807 215.517 292.807Z" fill="white"/>
<path d="M215.517 287.92C220.372 287.92 224.309 283.983 224.309 279.128C224.309 274.272 220.372 270.336 215.517 270.336C210.661 270.336 206.725 274.272 206.725 279.128C206.725 283.983 210.661 287.92 215.517 287.92Z" fill="#024DA5"/>
<path opacity="0.3" d="M181.102 345.56L149.084 313.543L175.301 288.875L205.77 319.355L181.102 345.56Z" fill="#024DA5"/>
<path d="M128.574 337.922C104.606 339.863 96.6628 355.209 93.9478 375.603C92.5691 386.006 91.954 396.538 83.2258 402.625C82.7008 402.982 82.3054 403.499 82.099 404.1C81.8926 404.7 81.8863 405.351 82.081 405.955C82.2756 406.56 82.6608 407.085 83.1788 407.452C83.6969 407.819 84.3198 408.008 84.9545 407.991C117.131 406.984 132.138 391.235 134.025 384.66C133.53 388.097 132.644 391.466 131.385 394.703C131.153 395.274 131.108 395.904 131.255 396.502C131.402 397.1 131.735 397.637 132.205 398.035C132.675 398.434 133.259 398.674 133.873 398.721C134.488 398.768 135.101 398.62 135.627 398.298C144.652 392.645 155.978 382.231 156.731 365.337C150.092 355.93 128.574 337.922 128.574 337.922Z" fill="#024DA5"/>
<path opacity="0.2" d="M128.574 337.922C104.606 339.863 96.6628 355.209 93.9478 375.603C92.5691 386.006 91.954 396.538 83.2258 402.625C82.7008 402.982 82.3054 403.499 82.099 404.1C81.8926 404.7 81.8863 405.351 82.081 405.955C82.2756 406.56 82.6608 407.085 83.1788 407.452C83.6969 407.819 84.3198 408.008 84.9545 407.991C117.131 406.984 132.138 391.235 134.025 384.66C133.53 388.097 132.644 391.466 131.385 394.703C131.153 395.274 131.108 395.904 131.255 396.502C131.402 397.1 131.735 397.637 132.205 398.035C132.675 398.434 133.259 398.674 133.873 398.721C134.488 398.768 135.101 398.62 135.627 398.298C144.652 392.645 155.978 382.231 156.731 365.337C150.092 355.93 128.574 337.922 128.574 337.922Z" fill="white"/>
<path d="M160.454 372.579L122.062 334.188L142.509 329.766L164.876 352.132L160.454 372.579Z" fill="#024DA5"/>
</svg>
