<svg width="52" height="43" viewBox="0 0 52 43" fill="none" xmlns="http://www.w3.org/2000/svg">
<g clip-path="url(#clip0)">
<path d="M20.0962 2.50266C17.7209 1.23985 15.5784 0.631836 13.5757 0.631836C10.4551 0.631836 7.56743 1.52048 5.00579 3.25099C1.97839 5.40244 0.441406 8.02159 0.441406 11.1552V17.7031C0.487982 19.0127 1.60579 20.2287 3.79483 21.4915C5.33182 22.2866 6.77565 22.8479 8.17291 23.0817C8.91812 23.222 9.66332 23.3623 10.362 23.3623C12.225 23.3623 14.2277 22.8946 16.3702 22.006V25.888C16.3702 26.9169 16.277 27.8056 16.0441 28.6474C15.2058 31.9214 12.3181 33.5583 7.52086 33.5583V30.7053L0.441406 33.1842C0.487982 34.4938 1.60579 35.7098 3.79483 36.9726C4.67976 37.4403 5.56469 37.8145 6.44963 38.0951C7.05511 38.2822 7.70716 38.4693 8.26606 38.5628V38.6096C8.96469 38.7499 9.7099 38.7966 10.362 38.7966C12.1784 38.7966 13.9017 38.516 15.5318 37.908C15.5784 37.908 15.5784 37.908 15.625 37.8612C16.7894 37.4403 17.8606 36.8323 18.8852 36.1307L18.9318 36.084C21.9126 33.9793 23.4031 31.3601 23.4031 28.2733V6.29108C23.4031 4.9815 22.2852 3.7187 20.0962 2.50266ZM16.0907 13.1196C15.2524 16.3935 12.3647 18.0305 7.56743 18.0305V13.5873C7.56743 12.6051 7.66059 11.6697 7.80031 10.9214C8.68524 7.60066 11.5263 6.01046 16.4167 6.01046V10.4069C16.3702 11.3891 16.277 12.2777 16.0907 13.1196Z" fill="url(#paint0_linear)"/>
<path d="M43.7089 5.96351V25.8878C43.7089 26.9635 43.5692 27.9457 43.3363 28.7876C42.4514 31.9212 39.7034 33.5582 34.9062 33.5582C34.9062 33.5582 34.1144 37.4869 35.8377 38.6094C35.8843 38.6562 35.9308 38.6562 35.9308 38.7029C36.5363 38.7965 37.1884 38.8432 37.7473 38.8432C40.8678 38.8432 43.7089 37.9546 46.2706 36.1773C49.298 34.0726 50.7884 31.4067 50.7884 28.3199V6.2909C49.7637 5.26195 45.5254 5.8232 43.7089 5.96351Z" fill="url(#paint1_linear)"/>
<path d="M23.4496 6.29108V6.80555C22.9839 5.3089 17.2551 5.96368 16.4168 5.96368C11.5263 5.96368 8.68524 7.55388 7.84689 10.8746C7.70716 11.6697 7.56744 12.5583 7.56744 13.5405V17.9837C7.56744 21.4448 7.75374 22.8946 8.17291 23.035C6.77565 22.7543 5.33182 22.1931 3.79483 21.4448C1.65237 20.1819 0.487982 18.9659 0.441406 17.6563V11.1085C0.441406 8.02159 1.97839 5.35567 4.95922 3.25099C7.52086 1.47371 10.4085 0.631836 13.5291 0.631836C15.5318 0.631836 17.6743 1.23985 20.0496 2.50266C22.2852 3.7187 23.4031 4.9815 23.4496 6.29108Z" fill="url(#paint2_linear)"/>
<path d="M8.26606 38.5624C6.8688 38.2818 5.33182 37.7673 3.79483 36.9722C1.65237 35.7094 0.487982 34.4934 0.441406 33.1838L7.52086 30.6582V33.5112C7.52086 34.4934 7.42771 36.9722 8.26606 38.5624Z" fill="url(#paint3_linear)"/>
<path d="M50.7895 6.29118C49.7648 5.26223 45.4799 5.82348 43.71 5.96379C38.9128 5.96379 36.1182 7.50722 35.2799 10.6876C35.0004 11.5295 34.9073 12.5117 34.9073 13.5874V33.5117C34.9073 33.5117 34.9073 35.0551 35.373 37.113C35.5128 37.721 35.9319 38.6097 35.9319 38.6564C34.5812 38.3758 33.0908 37.9549 31.6004 37.1598C31.4607 37.113 31.2744 37.0662 31.1347 36.9727C28.9922 35.7099 27.8278 34.4938 27.7812 33.1843V11.1553C27.7812 8.06846 29.3182 5.40254 32.2991 3.29786C34.9073 1.52058 37.7949 0.678711 40.9155 0.678711C42.9182 0.678711 45.0607 1.28673 47.4826 2.54953C49.6717 3.7188 50.7429 4.98161 50.7895 6.29118Z" fill="url(#paint4_linear)"/>
<path d="M50.6966 32.062C49.5322 35.3827 44.502 35.523 41.1486 36.0843C37.7486 36.6455 24.9404 41.1355 21.3541 42.2112C14.6938 44.2691 6.26367 38.0954 6.26367 38.0954H6.44997C7.05545 38.2825 7.70751 38.4696 8.26641 38.5631V38.6099C8.96504 38.7502 9.71025 38.797 10.3623 38.797C12.1787 38.797 13.902 38.5163 15.5322 37.9083H15.5787C15.5787 37.9083 15.6253 37.9083 15.6253 37.8615C16.7897 37.4406 17.8609 36.8326 18.8856 36.131L18.9322 36.0843C27.9678 31.6878 37.5623 29.817 44.176 28.6945C49.113 27.8526 50.7897 22.8482 50.7897 20.4629C50.976 23.4094 52.2335 27.7591 50.6966 32.062Z" fill="white"/>
<path d="M50.697 20.4622C50.6504 19.8542 50.6504 19.4333 50.6504 19.293C50.6504 19.3865 50.697 19.8542 50.697 20.4622Z" fill="url(#paint5_linear)"/>
<path d="M27.8279 37.0189L28.2936 38.3285L27.4553 38.6091L26.9895 37.2995L24.7539 35.4287L25.6854 35.1013L27.2224 36.4109L27.6416 34.3998L28.4799 34.1191L27.8279 37.0189Z" fill="#00316B"/>
<path d="M28.8982 34.3534C28.7585 34.3066 28.7119 34.2131 28.6654 34.0728C28.6188 33.9325 28.6188 33.7922 28.7119 33.6986C28.8051 33.6051 28.8982 33.5115 29.038 33.4648C29.1777 33.418 29.3174 33.418 29.4571 33.4648C29.5969 33.5115 29.6434 33.6051 29.69 33.7454C29.7366 33.8857 29.7366 34.026 29.6434 34.1196C29.5969 34.2599 29.4571 34.3066 29.3174 34.3534C29.1777 34.4002 29.038 34.4002 28.8982 34.3534ZM29.038 34.9147L29.8763 34.634L30.8078 37.487L29.9695 37.7677L29.038 34.9147Z" fill="#00316B"/>
<path d="M30.2969 33.2777L31.1352 32.9971L32.3462 36.9726L31.5078 37.2532L30.2969 33.2777Z" fill="#00316B"/>
<path d="M31.9258 32.7631L32.7641 32.5293L33.9751 36.5048L33.1367 36.7386L31.9258 32.7631Z" fill="#00316B"/>
<path d="M33.7893 32.8563C33.6496 32.8096 33.603 32.716 33.5564 32.5757C33.5098 32.4354 33.5564 32.2951 33.603 32.2015C33.6961 32.0612 33.7893 32.0145 33.929 31.9677C34.0687 31.9209 34.2085 31.9209 34.3482 31.9677C34.4879 32.0145 34.5345 32.108 34.5811 32.2483C34.6276 32.3886 34.6276 32.5289 34.5345 32.6225C34.4413 32.716 34.3482 32.8096 34.2085 32.8563C34.0222 32.9031 33.929 32.9031 33.7893 32.8563ZM33.8824 33.3708L34.7208 33.137L35.5591 36.0367L34.7208 36.2706L33.8824 33.3708Z" fill="#00316B"/>
<path d="M37.2817 34.3532L37.0023 34.8677L37.1886 35.616L36.3502 35.8499L35.2324 31.8276L36.0708 31.5938L36.6763 33.8855L37.5612 32.3889L38.5859 32.1082L37.7009 33.6984L39.4708 35.008L38.4927 35.2419L37.2817 34.3532Z" fill="#00316B"/>
</g>
<defs>
<linearGradient id="paint0_linear" x1="47.8183" y1="30.7147" x2="-1.0969" y2="15.8608" gradientUnits="userSpaceOnUse">
<stop stop-color="#B58642"/>
<stop offset="1" stop-color="#F0B678"/>
</linearGradient>
<linearGradient id="paint1_linear" x1="69.8994" y1="35.2763" x2="40.4575" y2="21.1566" gradientUnits="userSpaceOnUse">
<stop stop-color="#B58642"/>
<stop offset="1" stop-color="#F0B678"/>
</linearGradient>
<linearGradient id="paint2_linear" x1="2.48346" y1="25.895" x2="14.3859" y2="3.44144" gradientUnits="userSpaceOnUse">
<stop stop-color="#B58642"/>
<stop offset="1" stop-color="#F0B678"/>
</linearGradient>
<linearGradient id="paint3_linear" x1="11.7763" y1="40.5171" x2="1.90741" y2="30.3563" gradientUnits="userSpaceOnUse">
<stop stop-color="#A98C60"/>
<stop offset="1" stop-color="#DFB581"/>
</linearGradient>
<linearGradient id="paint4_linear" x1="47.1701" y1="22.0625" x2="25.421" y2="15.6728" gradientUnits="userSpaceOnUse">
<stop stop-color="#B58642"/>
<stop offset="1" stop-color="#F0B678"/>
</linearGradient>
<linearGradient id="paint5_linear" x1="50.3538" y1="19.5959" x2="50.9742" y2="20.1003" gradientUnits="userSpaceOnUse">
<stop stop-color="#A98C60"/>
<stop offset="1" stop-color="#DFB581"/>
</linearGradient>
<clipPath id="clip0">
<rect width="51" height="42" fill="white" transform="translate(0.441406 0.631836)"/>
</clipPath>
</defs>
</svg>
