<svg width="424" height="234" viewBox="0 0 424 234" fill="none" xmlns="http://www.w3.org/2000/svg">
<path d="M439.309 85.1633C430.625 70.2612 433.957 38.8929 433.957 38.8929L432 40.679C440.706 17.9348 433.417 8.75052 433.417 8.75052C411.934 -23.1991 379.777 -2.08255 379.777 -2.08255C379.777 -2.08255 356.188 1.67996 364.915 29.8565C365.444 31.5686 365.666 33.6507 365.729 35.8279C365.655 36.0816 362.017 49.4406 360.716 51.9454C359.774 53.7632 364.502 56.268 367.242 57.5363C373.356 84.2015 374.731 83.2609 374.731 83.2609C385.531 83.7787 394.131 82.0137 401.091 78.8854C402.054 83.9056 403.038 89.2957 403.038 89.2957C405.354 107.654 379.417 119.47 379.417 119.47L428.657 138.05L477.57 106.882C477.57 106.882 449.898 103.331 439.309 85.1633Z" fill="white" stroke="#405391" stroke-miterlimit="10"/>
<path d="M193.077 248.97L357.669 234.025L453.283 260.712L453.727 267.497L289.135 282.441L193.521 255.765L193.077 248.97Z" fill="white" stroke="#405391" stroke-miterlimit="10" stroke-linejoin="round"/>
<path d="M197.541 249.594L358.801 240.134L334.133 139.075L176.512 146.431L197.541 249.594Z" fill="white" stroke="#405391" stroke-miterlimit="10" stroke-linejoin="round"/>
<path d="M262.352 146.199C262.606 147.309 262.045 148.376 261.103 148.587C260.162 148.799 259.189 148.08 258.935 146.97C258.681 145.861 259.242 144.793 260.183 144.582C261.135 144.37 262.098 145.089 262.352 146.199Z" fill="#405391"/>
<path d="M176.512 146.431L334.133 139.075L176.512 146.431L197.541 249.594L193.087 249.139L173.529 149.559L176.512 146.431Z" fill="white"/>
<path d="M176.512 146.431L334.133 139.075L176.512 146.431ZM176.512 146.431L197.541 249.594L193.087 249.139L173.529 149.559L176.512 146.431Z" stroke="#405391" stroke-miterlimit="10" stroke-linejoin="round"/>
<path d="M188.708 154.644L326.56 148.154L344.923 228.012L206.521 240.431L188.708 154.644Z" fill="#8FB6FF" stroke="#405391" stroke-miterlimit="10"/>
<path d="M193.077 248.97L288.691 275.656L453.283 260.712L357.669 234.025L193.077 248.97Z" fill="white" stroke="#405391" stroke-miterlimit="10" stroke-linejoin="round"/>
<path d="M264.34 165.413L316.087 162.306C316.5 162.285 316.86 162.559 316.965 162.961L322.117 183.623C322.244 184.141 321.884 184.648 321.355 184.691L278.747 187.819C278.557 187.84 278.377 187.914 278.24 188.041L271.713 195.577C271.205 196.031 270.401 195.756 270.285 195.08L263.536 166.438C263.43 165.92 263.811 165.434 264.34 165.413Z" fill="white" stroke="#405391" stroke-miterlimit="10" stroke-linejoin="round"/>
<path d="M272.157 204.359L325.406 200.259L328.961 212.508L326.496 212.772L324.063 213.026L275.331 217.401L272.157 204.359Z" fill="white" stroke="#405391" stroke-miterlimit="10" stroke-linejoin="round"/>
<path d="M262.627 217.317L250.79 165.794L213.683 167.326L208.383 170.793L219.596 224.81L257.327 220.773L262.627 217.317Z" fill="white" stroke="#405391" stroke-miterlimit="10" stroke-linejoin="round"/>
<path d="M213.683 167.326L250.79 165.794L262.627 217.317L224.906 221.344L213.683 167.326Z" fill="white" stroke="#405391" stroke-miterlimit="10" stroke-linejoin="round"/>
<path d="M219.596 224.81L224.906 221.344" stroke="#405391" stroke-miterlimit="10"/>
<path d="M238.16 166.312L240.127 176.87C240.18 177.145 240.54 177.219 240.699 176.986L242.38 174.503C242.507 174.312 242.772 174.281 242.952 174.429L245.258 176.373C245.49 176.564 245.829 176.363 245.765 176.067L243.555 166.09L238.16 166.312Z" fill="#405391"/>
<path d="M226.217 189.479L249.499 187.672" stroke="#405391" stroke-miterlimit="10" stroke-linecap="round" stroke-linejoin="round"/>
<path d="M226.99 194.478L250.261 192.66" stroke="#405391" stroke-miterlimit="10" stroke-linecap="round" stroke-linejoin="round"/>
<path d="M283.518 171.849L291.356 171.289" stroke="#405391" stroke-miterlimit="10" stroke-linecap="round" stroke-linejoin="round"/>
<path d="M283.772 175.295L312.872 173.783" stroke="#405391" stroke-miterlimit="10" stroke-linecap="round" stroke-linejoin="round"/>
<path d="M284.237 178.93L313.326 177.408" stroke="#405391" stroke-miterlimit="10" stroke-linecap="round" stroke-linejoin="round"/>
<path d="M279.075 175.337C279.625 177.757 278.398 180.104 276.336 180.569C274.273 181.044 272.147 179.459 271.597 177.039C271.047 174.618 272.274 172.272 274.336 171.807C276.399 171.342 278.525 172.917 279.075 175.337Z" fill="white" stroke="#405391" stroke-miterlimit="10" stroke-linejoin="round"/>
<path d="M278.874 208.724C279.012 209.337 278.705 209.929 278.176 210.056C277.647 210.172 277.118 209.77 276.97 209.157C276.833 208.544 277.139 207.953 277.668 207.826C278.197 207.709 278.737 208.111 278.874 208.724Z" fill="#405391"/>
<path d="M282.714 208.29C282.852 208.903 282.545 209.495 282.016 209.622C281.487 209.738 280.958 209.337 280.81 208.724C280.673 208.111 280.979 207.519 281.508 207.392C282.037 207.276 282.577 207.677 282.714 208.29Z" fill="#405391"/>
<path d="M286.543 207.858C286.681 208.471 286.374 209.063 285.845 209.19C285.316 209.306 284.787 208.904 284.639 208.291C284.502 207.678 284.808 207.086 285.337 206.959C285.866 206.843 286.406 207.245 286.543 207.858Z" fill="#405391"/>
<path d="M475.962 115.813C475.962 115.813 473.815 104.188 472.651 144.825C471.572 182.862 471.149 222.781 471.149 222.781C471.149 222.781 450.522 223.383 428.446 233.011L414.155 238.94C414.155 238.94 451.252 259.465 477.654 267.666C501.973 275.213 504.247 256.664 501.349 211.599C501.349 211.588 487.523 119.016 475.962 115.813Z" fill="white" stroke="#405391" stroke-miterlimit="10" stroke-linejoin="round"/>
<path d="M378.391 -11.9424C378.391 -11.9424 347.398 4.57672 365.137 21.1592L386.198 0.127235L378.391 -11.9424Z" fill="#405391"/>
<path d="M378.391 -11.9431C378.391 -11.9431 340.48 25.1536 363.201 14.7538C410.675 -6.96513 408.242 47.7603 408.242 47.7603C408.242 47.7603 414.779 41.8101 412.367 48.0351L424.733 67.1859C424.733 67.1859 451.167 57.1983 452.574 23.9382C453.05 12.7035 441.996 -38.8091 378.391 -11.9431Z" fill="#405391"/>
<path d="M394.671 10.0615C395.379 15.737 394.671 38.4072 404.698 40.0665C414.726 41.7258 402.974 11.6046 402.974 11.6046L394.671 10.0615Z" fill="#405391"/>
<path d="M362.821 131.867C350.815 185.779 345.261 241.477 345.261 241.477C345.261 241.477 321.546 234.755 299.046 231.119L274.463 224.524C273.67 224.165 265.144 220.233 262.383 217.507C259.485 214.632 257.888 222.537 262.447 226.141C263.822 227.23 264.89 228.192 265.758 229.027L259.834 229.946C258.819 230.105 257.867 230.548 257.105 231.246C252.98 234.987 239.524 247.395 242.074 248.167C242.708 248.357 243.417 248.368 244.189 248.251C239.588 252.045 239.228 256.009 240.508 256.136C242.433 256.336 244.866 254.952 247.289 252.997C245.162 255.459 242.518 260.892 245.469 260.754C249.425 260.575 252.747 257.499 255.91 252.299C255.91 252.299 255.127 253.652 255.476 253.335L253.128 257.129C253.128 257.129 257.909 261.325 261.389 263.28C264.71 265.14 266.646 258.292 261.95 255.47C261.95 255.47 263.642 253.779 265.007 250.175C265.007 250.175 278.197 256.548 284.935 251.496L289.346 251.919C300.866 259.127 359.372 285.401 367.39 284.798C385.595 283.445 389.054 247.681 397.855 169.513C397.855 169.535 368.205 107.696 362.821 131.867Z" fill="white" stroke="#405391" stroke-miterlimit="10" stroke-linejoin="round"/>
<path d="M488.92 211.313C498.302 209.76 513.45 204.581 513.461 204.528C513.461 204.528 507.653 131.402 489.184 109.747C488.243 107.728 485.143 103.553 475.232 102.095C472.291 101.662 469.404 101.123 466.632 100.531C456.943 98.4486 449.052 95.5528 446.799 94.126C446.799 94.126 446.809 94.2105 446.83 94.3479C446.777 94.3162 446.714 94.2845 446.661 94.2528C446.661 94.2528 447.105 96.208 446.407 98.4909C446.344 98.6917 446.28 98.8925 446.196 99.1039C446.164 99.1885 446.122 99.2836 446.079 99.3681C445.931 99.6958 445.772 100.034 445.572 100.362C442.546 105.35 422.48 107.358 402.424 96.7682C402.424 96.7682 367.972 116.289 358.79 123.063C344.701 153.058 338.65 220.794 338.65 217.644C338.65 216.788 367.358 231.817 386.018 232.631C386.124 237.947 381.448 305.091 381.448 305.091C381.448 305.091 462.581 309.234 498.525 290.125C498.525 290.125 484.361 242.978 486.021 229.819C486.265 228.255 488.528 215.15 488.92 211.313Z" fill="#8FB6FF" stroke="#405391" stroke-miterlimit="10"/>
<path d="M381.723 -12.3757C381.723 -12.3757 341.993 -21.6341 344.489 -11.414C346.986 -1.19391 357.267 7.72619 357.267 7.72619C357.267 7.72619 345.557 7.43027 351.703 13.37C357.849 19.3096 362.99 18.8658 362.99 18.8658L381.723 -12.3757Z" fill="#405391"/>
<path d="M401.092 78.9067C401.092 78.9067 405.175 77.8815 412.674 71.3711" stroke="#405391" stroke-miterlimit="10"/>
<path d="M408.422 30.8184C408.422 30.8184 405.661 -20.3348 378.751 -14.0569" stroke="white" stroke-width="2" stroke-miterlimit="10"/>
<path d="M424.447 45.5507C425.056 36.0561 418.035 27.8726 408.766 27.2723C399.497 26.6721 391.49 33.8823 390.881 43.3769C390.272 52.8715 397.293 61.055 406.562 61.6552C415.831 62.2555 423.839 55.0452 424.447 45.5507Z" fill="#8FB6FF" stroke="#405391" stroke-miterlimit="10"/>
<path d="M419.021 44.938C418.577 51.7549 413.119 56.9548 406.814 56.5532C400.51 56.141 395.75 50.2859 396.194 43.469C396.638 36.6521 402.096 31.4522 408.401 31.8538C414.705 32.2554 419.465 38.1211 419.021 44.938Z" fill="white" stroke="#405391" stroke-miterlimit="10"/>
<path d="M370.754 39.5068C370.765 40.8808 371.632 41.9905 372.69 41.98C373.748 41.9694 374.594 40.8491 374.583 39.4751C374.573 38.1012 373.705 36.9915 372.648 37.002C371.59 37.0126 370.744 38.1329 370.754 39.5068Z" fill="#405391"/>
<path d="M380.105 32.2773C378.561 30.1635 376.371 29.4131 374.626 28.853C372.69 28.2294 370.786 27.6058 369.971 28.5042C369.485 29.0432 369.453 30.0578 369.876 30.6919C370.458 31.5903 371.77 31.548 372.997 31.6748C377.746 32.1716 380.465 35.0146 381.004 34.3171C381.3 33.926 380.518 32.848 380.105 32.2773Z" fill="#405391"/>
<path d="M371.093 64.2266C371.093 64.2266 376.307 64.0152 379.703 60.5381" stroke="#405391" stroke-miterlimit="10"/>
<path d="M366.935 3.06445C366.935 3.06445 353.66 21.803 360.43 21.7713C370.659 21.7185 380.771 8.43343 378.92 7.74645C377.069 7.04891 366.935 3.06445 366.935 3.06445Z" fill="#405391"/>
<path d="M358.822 123.053C358.822 123.053 401.663 112.463 400.711 166.682L398.743 231.68C398.743 231.68 390.746 233.329 382.432 232.356" stroke="#405391" stroke-miterlimit="10"/>
<path d="M265.758 229.027L273.099 227.97" stroke="#405391" stroke-miterlimit="10" stroke-linejoin="round"/>
<g clip-path="url(#clip0)">
<path d="M212.7 166.26C212.7 167.62 211.6 168.72 210.24 168.72C208.88 168.72 207.78 167.62 207.78 166.26C207.78 164.9 208.88 163.8 210.24 163.8C211.6 163.8 212.7 164.9 212.7 166.26Z" fill="white" stroke="#405391" stroke-miterlimit="10" stroke-linejoin="round"/>
<path d="M328.86 148.35C328.86 149.71 327.76 150.81 326.4 150.81C325.04 150.81 323.94 149.71 323.94 148.35C323.94 146.99 325.04 145.89 326.4 145.89C327.76 145.89 328.86 146.99 328.86 148.35Z" fill="white" stroke="#405391" stroke-miterlimit="10" stroke-linejoin="round"/>
<path d="M184.44 90.1104C184.44 91.4704 183.34 92.5704 181.98 92.5704C180.62 92.5704 179.52 91.4704 179.52 90.1104C179.52 88.7504 180.62 87.6504 181.98 87.6504C183.34 87.6504 184.44 88.7504 184.44 90.1104Z" fill="white" stroke="#405391" stroke-miterlimit="10" stroke-linejoin="round"/>
<path d="M95.41 161.35C95.41 162.71 94.31 163.81 92.95 163.81C91.59 163.81 90.49 162.71 90.49 161.35C90.49 159.99 91.59 158.89 92.95 158.89C94.31 158.89 95.41 159.99 95.41 161.35Z" fill="white" stroke="#405391" stroke-miterlimit="10" stroke-linejoin="round"/>
<path d="M160.39 137.03C163.54 136.86 166.04 134.27 166.04 131.08C166.04 127.79 163.37 125.12 160.08 125.12C159.48 125.12 158.9 125.21 158.35 125.38C157.34 121.22 153.6 118.12 149.12 118.12C144.68 118.12 140.97 121.16 139.92 125.27C139.5 125.17 139.06 125.12 138.61 125.12C135.32 125.12 132.65 127.79 132.65 131.08C132.65 134.21 135.07 136.78 138.14 137.02L160.39 137.03Z" fill="white" stroke="#405391" stroke-miterlimit="10" stroke-linejoin="round"/>
<path d="M191.06 33.99C194.34 33.82 196.95 31.11 196.95 27.78C196.95 24.34 194.16 21.56 190.72 21.56C190.09 21.56 189.49 21.65 188.92 21.83C187.86 17.48 183.96 14.25 179.29 14.25C174.66 14.25 170.78 17.43 169.68 21.72C169.24 21.62 168.78 21.56 168.31 21.56C164.87 21.56 162.08 24.35 162.08 27.78C162.08 31.05 164.61 33.73 167.81 33.98L191.06 33.99Z" fill="white" stroke="#405391" stroke-miterlimit="10" stroke-linejoin="round"/>
<path d="M290.78 13V15.82" stroke="#405391" stroke-miterlimit="10" stroke-linejoin="round"/>
<path d="M281.78 17.96L284.22 19.37" stroke="#405391" stroke-miterlimit="10" stroke-linejoin="round"/>
<path d="M281.58 28.2401L284.02 26.8301" stroke="#405391" stroke-miterlimit="10" stroke-linejoin="round"/>
<path d="M290.38 33.5505V30.7305" stroke="#405391" stroke-miterlimit="10" stroke-linejoin="round"/>
<path d="M299.38 28.5897L296.93 27.1797" stroke="#405391" stroke-miterlimit="10" stroke-linejoin="round"/>
<path d="M299.58 18.3096L297.13 19.7196" stroke="#405391" stroke-miterlimit="10" stroke-linejoin="round"/>
<path d="M122.89 56.5098V59.3398" stroke="#405391" stroke-miterlimit="10" stroke-linejoin="round"/>
<path d="M113.89 61.4795L116.33 62.8895" stroke="#405391" stroke-miterlimit="10" stroke-linejoin="round"/>
<path d="M113.69 71.7498L116.13 70.3398" stroke="#405391" stroke-miterlimit="10" stroke-linejoin="round"/>
<path d="M122.49 77.07V74.25" stroke="#405391" stroke-miterlimit="10" stroke-linejoin="round"/>
<path d="M131.49 72.0995L129.04 70.6895" stroke="#405391" stroke-miterlimit="10" stroke-linejoin="round"/>
<path d="M131.69 61.8301L129.24 63.2401" stroke="#405391" stroke-miterlimit="10" stroke-linejoin="round"/>
<path d="M143.19 175.28V178.11" stroke="#405391" stroke-miterlimit="10" stroke-linejoin="round"/>
<path d="M134.19 180.25L136.63 181.66" stroke="#405391" stroke-miterlimit="10" stroke-linejoin="round"/>
<path d="M133.99 190.52L136.43 189.11" stroke="#405391" stroke-miterlimit="10" stroke-linejoin="round"/>
<path d="M142.78 195.841V193.011" stroke="#405391" stroke-miterlimit="10" stroke-linejoin="round"/>
<path d="M151.78 190.87L149.34 189.46" stroke="#405391" stroke-miterlimit="10" stroke-linejoin="round"/>
<path d="M151.99 180.601L149.54 182.011" stroke="#405391" stroke-miterlimit="10" stroke-linejoin="round"/>
</g>
<g clip-path="url(#clip1)">
<path d="M27.69 126.59C13.8 127.64 2.41997 138.68 0.949968 152.53C0.379968 157.97 1.30997 163.14 3.36997 167.69C3.75997 168.55 3.77997 169.52 3.48997 170.41L0.609968 179.31C0.069968 181 1.57997 182.62 3.29997 182.19L11.69 180.09C12.68 179.84 13.74 179.97 14.61 180.51C19.7 183.67 25.83 185.32 32.38 184.79C46.52 183.66 57.97 172.2 59.08 158.06C60.49 140.1 45.64 125.22 27.69 126.59Z" fill="white" stroke="#405391" stroke-miterlimit="10" stroke-linejoin="round"/>
<path d="M43.3699 152.329V163.319C43.3699 163.319 40.3799 167.659 30.4399 167.659C20.4999 167.659 17.5099 163.319 17.5099 163.319V152.329" fill="#8FB6FF"/>
<path d="M43.3699 152.329V163.319C43.3699 163.319 40.3799 167.659 30.4399 167.659C20.4999 167.659 17.5099 163.319 17.5099 163.319V152.329" stroke="#405391" stroke-miterlimit="10"/>
<path d="M39.8499 154.189V171.139" stroke="#405391" stroke-miterlimit="10"/>
<path d="M30.1299 158.499L10.5899 150.189C9.90991 149.899 9.93991 148.929 10.6299 148.679L30.1699 141.429C30.3499 141.359 30.5499 141.359 30.7399 141.429L50.2799 148.679C50.9699 148.939 50.9899 149.899 50.3199 150.189L30.7599 158.499C30.5599 158.589 30.3299 158.589 30.1299 158.499Z" fill="#8FB6FF" stroke="#405391" stroke-miterlimit="10"/>
<path d="M39.8499 174.13C39.0199 174.13 38.3499 173.46 38.3499 172.63C38.3499 171.8 39.0199 171.13 39.8499 171.13C40.6799 171.13 41.3499 171.8 41.3499 172.63C41.3399 173.46 40.6699 174.13 39.8499 174.13Z" fill="#405391"/>
</g>
<defs>
<clipPath id="clip0">
<rect width="239.36" height="182.84" fill="white" transform="translate(90 13)"/>
</clipPath>
<clipPath id="clip1">
<rect width="59.67" height="59.38" fill="white" transform="translate(0 126)"/>
</clipPath>
</defs>
</svg>
