<svg width="50" height="117" viewBox="0 0 50 117" fill="none" xmlns="http://www.w3.org/2000/svg">
<path fill-rule="evenodd" clip-rule="evenodd" d="M112.416 27.6732L62.1701 1.21216C61.0353 0.604224 59.7654 0.285767 58.4751 0.285767C57.1849 0.285767 55.915 0.604224 54.7802 1.21216L4.53444 27.6732C2.95843 28.5011 1.70636 29.8252 0.976348 31.4369C0.246337 33.0487 0.0800404 34.8557 0.503937 36.5715C0.927833 38.2873 1.9177 39.814 3.31671 40.9102C4.71572 42.0063 6.44405 42.6093 8.22809 42.6234H108.72C110.504 42.6098 112.232 42.0074 113.632 40.9115C115.031 39.8155 116.022 38.2887 116.446 36.5728C116.87 34.8569 116.704 33.0496 115.974 31.4376C115.244 29.8256 113.992 28.5012 112.416 27.6732ZM8.22271 34.6851L58.4685 8.22408L108.714 34.6851H8.22271ZM108.714 108.776H8.22271C7.15946 108.776 6.13974 109.195 5.38791 109.939C4.63609 110.683 4.21374 111.692 4.21374 112.745C4.21374 113.798 4.63609 114.807 5.38791 115.551C6.13974 116.296 7.15946 116.714 8.22271 116.714H108.714C109.777 116.715 110.797 116.297 111.55 115.553C112.302 114.81 112.725 113.8 112.726 112.748C112.727 111.695 112.305 110.685 111.554 109.94C110.802 109.195 109.783 108.777 108.72 108.776H108.714ZM108.714 55.8539C109.777 55.8539 110.797 55.4355 111.549 54.6911C112.301 53.9467 112.723 52.9375 112.723 51.8848C112.723 50.8321 112.301 49.8228 111.549 49.0785C110.797 48.3341 109.777 47.9156 108.714 47.9156H8.22271C7.15946 47.9156 6.13974 48.3341 5.38791 49.0785C4.63609 49.8228 4.21374 50.8321 4.21374 51.8848C4.21374 52.9375 4.63609 53.9467 5.38791 54.6911C6.13974 55.4355 7.15946 55.8539 8.22271 55.8539H13.2741V95.5455H8.22271C7.15946 95.5455 6.13974 95.964 5.38791 96.7083C4.63609 97.4527 4.21374 98.462 4.21374 99.5147C4.21374 100.567 4.63609 101.577 5.38791 102.321C6.13974 103.065 7.15946 103.484 8.22271 103.484H108.714C109.777 103.484 110.797 103.065 111.549 102.321C112.301 101.577 112.723 100.567 112.723 99.5147C112.723 98.462 112.301 97.4527 111.549 96.7083C110.797 95.964 109.777 95.5455 108.714 95.5455H101.439V55.8539H108.714ZM47.8875 55.8539H53.3183V95.5455H47.8927V55.8539H47.8875ZM39.955 95.5455H34.6097V55.8539H39.955V95.5455ZM61.3362 55.8539H66.6334V95.5455H61.3362V55.8539ZM74.6994 55.8539H80.0447V95.5455H74.6994V55.8539ZM21.2465 55.8539H26.6158V95.5455H21.2465V55.8539ZM93.408 95.5455H88.0627V55.8539H93.408V95.5455Z" fill="#EFF0F2" fill-opacity="0.8"/>
</svg>
