<svg width="87" height="84" viewBox="0 0 87 84" fill="none" xmlns="http://www.w3.org/2000/svg">
<path fill-rule="evenodd" clip-rule="evenodd" d="M122.877 6.33549L68.0077 -22.5606C66.7685 -23.2245 65.3817 -23.5723 63.9727 -23.5723C62.5637 -23.5723 61.1769 -23.2245 59.9377 -22.5606L5.06814 6.33549C3.3471 7.23954 1.9798 8.6855 1.18261 10.4456C0.385422 12.2056 0.203821 14.179 0.666727 16.0526C1.12963 17.9263 2.21059 19.5936 3.73834 20.7906C5.2661 21.9876 7.15348 22.646 9.10169 22.6615H118.841C120.789 22.6467 122.677 21.9888 124.205 20.792C125.734 19.5952 126.815 17.9279 127.278 16.0541C127.741 14.1802 127.56 12.2066 126.763 10.4463C125.966 8.68592 124.599 7.23967 122.877 6.33549ZM9.09581 13.9927L63.9654 -14.9034L118.835 13.9927H9.09581ZM118.835 94.9018H9.09581C7.93472 94.9018 6.82116 95.3588 6.00015 96.1716C5.17913 96.9845 4.71792 98.0866 4.71792 99.2362C4.71792 100.386 5.17913 101.488 6.00015 102.301C6.82116 103.114 7.93472 103.571 9.09581 103.571H118.835C119.996 103.571 121.11 103.115 121.932 102.303C122.753 101.491 123.215 100.389 123.216 99.239C123.217 98.0894 122.756 96.9864 121.936 96.173C121.115 95.3596 120.002 94.9025 118.841 94.9018H118.835ZM118.835 37.1096C119.996 37.1096 121.11 36.6526 121.931 35.8397C122.752 35.0268 123.213 33.9247 123.213 32.7751C123.213 31.6256 122.752 30.5234 121.931 29.7106C121.11 28.8977 119.996 28.4407 118.835 28.4407H9.09581C7.93472 28.4407 6.82116 28.8977 6.00015 29.7106C5.17913 30.5234 4.71792 31.6256 4.71792 32.7751C4.71792 33.9247 5.17913 35.0268 6.00015 35.8397C6.82116 36.6526 7.93472 37.1096 9.09581 37.1096H14.612V80.4537H9.09581C7.93472 80.4537 6.82116 80.9107 6.00015 81.7236C5.17913 82.5364 4.71792 83.6386 4.71792 84.7881C4.71792 85.9377 5.17913 87.0398 6.00015 87.8527C6.82116 88.6656 7.93472 89.1225 9.09581 89.1225H118.835C119.996 89.1225 121.11 88.6656 121.931 87.8527C122.752 87.0398 123.213 85.9377 123.213 84.7881C123.213 83.6386 122.752 82.5364 121.931 81.7236C121.11 80.9107 119.996 80.4537 118.835 80.4537H110.891V37.1096H118.835ZM52.4107 37.1096H58.3413V80.4537H52.4164V37.1096H52.4107ZM43.7483 80.4537H37.9111V37.1096H43.7483V80.4537ZM67.0971 37.1096H72.8817V80.4537H67.0971V37.1096ZM81.69 37.1096H87.5272V80.4537H81.69V37.1096ZM23.3181 37.1096H29.1815V80.4537H23.3181V37.1096ZM102.12 80.4537H96.283V37.1096H102.12V80.4537Z" fill="#F2F4F7"/>
</svg>
