<svg width="128" height="128" viewBox="0 0 128 128" fill="none" xmlns="http://www.w3.org/2000/svg">
<path d="M8 6C8 9.4267 10.7874 12.2188 14.2083 12.2188H112.782C116.203 12.2188 118.99 9.4267 118.99 6H8Z" fill="white"/>
<path d="M17.25 18.5645C17.25 21.9911 20.0374 24.7833 23.4583 24.7833V104.486V106.897C23.4583 108.547 24.7254 109.816 26.3725 109.816H36.7619C42.9703 109.816 48.9252 111.72 53.9933 115.146L64.1293 122L72.1115 116.035C77.4329 111.974 84.0214 109.816 90.6098 109.816H100.619C102.266 109.816 103.533 108.547 103.533 106.897V104.486V24.7833H104.293C107.714 24.7833 110.502 21.9911 110.502 18.5645H17.25ZM68.3105 111.085L63.8759 114.385L57.4142 109.943C51.3325 105.755 44.1106 103.597 36.6352 103.597H29.54V84.0524H36.6352C42.8436 84.0524 48.7985 85.9561 53.8666 89.3828L64.0026 96.2362L71.9848 90.2712C77.3062 86.21 83.8947 84.0524 90.4831 84.0524H97.1982V103.597H90.4831C82.6276 103.597 74.7722 106.262 68.3105 111.085ZM60.455 60.0655V86.21L57.5409 84.1793C55.7671 82.9102 53.8666 81.8949 51.8393 81.0065V60.0655H60.455ZM66.6633 60.0655H74.6455V81.4872L75.4057 81.1334C72.8717 82.2756 70.5911 83.6717 68.3105 85.3216L66.5366 86.5907V60.0655H66.6633ZM97.325 77.8336H90.6098C87.3156 77.8336 84.0214 78.3413 80.8538 79.2297V60.1925H86.0486C89.4695 60.1925 92.2569 57.4003 92.2569 53.9736H34.2279C34.2279 57.4003 37.0153 60.1925 40.4363 60.1925H45.631V79.1027C42.7169 78.3413 39.8028 77.9605 36.7619 77.9605H29.6667V24.7833H97.325V77.8336Z" fill="white"/>
<path d="M45.376 45.3433H48.5435V35.8248H53.4849V45.3433H57.9194C59.8199 45.3433 61.3403 44.8357 62.3539 43.8204C63.3675 42.8051 63.8743 41.2821 63.8743 39.3784V38.6169C63.8743 36.8401 63.3675 35.3171 62.3539 34.3018C61.3403 33.2865 59.8199 32.7788 57.9194 32.7788H53.865H53.4849H41.9551V35.8248H45.376V45.3433ZM56.6524 35.8248H57.7927C58.8063 35.8248 59.4398 36.0786 59.9466 36.4593C60.3267 36.8401 60.5801 37.6016 60.5801 38.6169V39.3784C60.5801 40.5206 60.3267 41.2821 59.9466 41.6628C59.5665 42.0436 58.8063 42.2974 57.7927 42.2974H56.6524V35.8248Z" fill="#D3E7FF"/>
<path d="M69.0699 32.7788H65.9023V45.3433H69.0699V32.7788Z" fill="#D3E7FF"/>
<path d="M72.4899 44.0743C72.9967 44.5819 73.5035 44.8357 74.137 45.0896C74.7705 45.3434 75.5307 45.4703 76.2909 45.4703C77.0511 45.4703 77.8114 45.3434 78.4449 45.0896C79.0784 44.8357 79.5852 44.455 80.092 44.0743C80.5988 43.5666 80.8522 43.0589 81.1056 42.4244C81.359 41.7898 81.4857 41.0283 81.4857 40.2668V32.9058H78.3182V40.2668C78.3182 41.1552 78.1915 41.7898 77.8114 42.0436C77.4312 42.4244 77.0511 42.5513 76.4176 42.5513C75.7841 42.5513 75.2773 42.4244 75.0239 42.0436C74.6438 41.6629 74.5171 41.0283 74.5171 40.2668V32.9058H71.3496V40.2668C71.3496 41.0283 71.4763 41.7898 71.7297 42.4244C71.7297 43.0589 71.9831 43.5666 72.4899 44.0743Z" fill="#D3E7FF"/>
</svg>
