<svg width="175" height="53" viewBox="0 0 175 53" fill="none" xmlns="http://www.w3.org/2000/svg">
<path fill-rule="evenodd" clip-rule="evenodd" d="M60.0169 24.527V2.88516H67.7523C69.3927 2.88516 70.4483 3.24377 71.3857 3.60237C73.4958 4.67818 74.4322 6.71128 74.4322 8.5043C74.4322 10.5374 73.612 11.9718 71.9706 13.0476C74.4322 13.6453 75.8393 15.3198 75.8393 17.9496C75.8393 20.9389 74.0807 23.0906 71.1504 24.0479C70.0958 24.4065 68.9241 24.526 67.1655 24.526H60.0169V24.527ZM69.5099 6.59175C68.9241 6.35268 68.3382 6.23315 67.517 6.23315H63.5321V11.8523H67.2826C68.3372 11.8523 69.0412 11.7328 69.6271 11.3741C70.0228 11.1491 70.3515 10.8192 70.5784 10.4192C70.8053 10.0192 70.9219 9.56408 70.916 9.10198C70.916 8.02718 70.3301 7.06989 69.5099 6.59175ZM70.5655 15.5589C70.0968 15.3198 69.3927 15.2003 68.221 15.2003H63.5331V21.178H67.8695C69.2756 21.178 69.9796 20.9389 70.5655 20.6999C71.62 20.2217 72.0887 19.2644 72.0887 18.0691C72.0887 16.8738 71.62 16.038 70.5655 15.5589ZM96.9355 24.527V2.88516H100.57V24.527H96.9355ZM123.307 24.527V2.88516H126.941V24.527H123.307ZM138.544 2.76562C140.887 2.76562 143.232 3.3633 144.522 3.96198L144.404 7.54904C142.528 6.59276 140.771 5.99408 138.545 5.99408C136.551 5.99408 134.795 6.59175 134.795 8.26625C134.795 12.69 145.695 10.896 145.695 18.1897C145.695 22.2548 142.413 24.7661 137.49 24.7661C134.209 24.7661 131.98 23.8098 130.34 22.8525L131.864 19.8631C133.154 20.6999 135.264 21.5366 137.607 21.5366C139.833 21.5366 141.827 20.6999 141.827 18.7873C141.827 14.1234 131.044 16.1565 131.044 8.86291C131.043 4.91827 134.089 2.76562 138.544 2.76562ZM162.805 24.527V15.2013H152.607V24.527H148.974V2.88516H152.607V11.7338H162.805V2.88516H166.437V24.527H162.805ZM67.9867 28.2336C70.213 28.2336 71.9716 28.7117 73.8463 29.5485L72.7918 32.6574C71.7372 32.1782 70.3301 31.5816 68.3382 31.5816C64.3533 31.5816 61.8916 35.0491 61.8916 39.2338C61.8916 43.5391 64.2361 47.0056 68.3382 47.0056C70.3301 47.0056 71.7372 46.4079 72.7918 45.9298L73.8463 49.0377C71.9706 49.8744 70.213 50.3536 67.9867 50.3536C61.6573 50.3536 58.0239 45.8103 58.0239 39.3534C58.0239 33.2551 61.6573 28.2336 67.9867 28.2336ZM147.218 28.2336C149.56 28.2336 151.32 28.7117 153.077 29.5485L152.022 32.6574C150.967 32.1782 149.56 31.5816 147.569 31.5816C143.584 31.5816 141.123 35.0491 141.123 39.2338C141.123 43.5391 143.467 47.0056 147.569 47.0056C149.561 47.0056 150.967 46.4079 152.022 45.9298L153.077 49.0377C151.319 49.8744 149.56 50.3536 147.218 50.3536C140.888 50.3536 137.255 45.8103 137.255 39.3534C137.254 33.2551 140.888 28.2336 147.218 28.2336ZM94.4739 39.2328C94.4739 45.6897 90.49 50.3536 84.5121 50.3536C78.5343 50.3536 74.5494 45.8103 74.5494 39.3534C74.5494 32.8965 78.5353 28.2336 84.5121 28.2336C90.6071 28.2336 94.4739 32.7769 94.4739 39.2328ZM90.7233 39.2328C90.7233 34.5699 88.0293 31.5806 84.5121 31.5806C80.9959 31.5806 78.3009 34.57 78.3009 39.3523C78.3009 44.0162 80.9969 47.0046 84.5121 47.0046C88.0293 47.0046 90.7233 44.0162 90.7233 39.2328ZM96.9355 41.8636V28.4727H100.57V41.9831C100.57 45.6897 102.446 47.0046 105.492 47.0046C108.539 47.0046 110.414 45.6897 110.414 41.9831V28.4727H114.047V41.8636C114.047 47.7228 110.765 50.3536 105.492 50.3536C100.217 50.3536 96.9355 47.7228 96.9355 41.8636ZM120.845 34.3309H120.729C120.845 35.0481 120.845 36.2444 120.845 37.2007V49.994H117.213V28.4727H121.198L130.925 43.1795H131.043C130.925 42.4623 130.925 41.2659 130.925 40.3096V28.4727H134.559V49.994H131.393L120.845 34.3309ZM155.891 49.994V28.4727H159.523V49.994H155.891ZM162.805 49.994V28.4727H166.437V46.647H174.76V49.994H162.805ZM120.494 3.00571H103.382V6.35268H110.18V24.527H113.814V6.35268H120.494V3.00571ZM90.491 24.527C87.4424 17.9506 86.6222 16.1576 85.3333 16.1576H81.9343V24.527H78.3009V3.00571H85.4505C90.9587 3.00571 92.9526 5.87556 92.9526 9.10299C92.9526 12.0924 91.4283 14.0049 89.0839 14.7221C90.0223 15.3198 91.0778 17.3529 94.594 24.527H90.491ZM85.6838 6.23315H81.9333V12.8096H85.5667C88.1455 12.8096 89.3162 11.4947 89.3162 9.46159C89.3172 7.66857 88.2627 6.23315 85.6838 6.23315Z" fill="#264E91"/>
<path fill-rule="evenodd" clip-rule="evenodd" d="M24.5026 13.2878C24.5026 20.1033 18.9945 25.6029 12.3136 25.6029C5.74986 25.6029 0.241699 20.1023 0.241699 13.2878C0.241699 6.47328 5.74986 0.972668 12.3136 0.972668C18.9945 0.972668 24.5026 6.47227 24.5026 13.2878ZM50.2878 13.2878C50.29 14.9056 49.9793 16.5081 49.3734 18.0032C48.7675 19.4984 47.8784 20.8569 46.757 22.0009C45.6356 23.1449 44.3039 24.052 42.8382 24.6701C41.3726 25.2881 39.8018 25.6051 38.2159 25.6029C31.535 25.6029 26.144 20.1023 26.144 13.2878C26.144 6.47328 31.536 0.972668 38.2159 0.972668C39.8018 0.970401 41.3726 1.28739 42.8382 1.90548C44.3039 2.52357 45.6356 3.43061 46.757 4.57462C47.8784 5.71864 48.7675 7.07714 49.3734 8.5723C49.9793 10.0675 50.29 11.6699 50.2878 13.2878ZM24.5026 39.712C24.5026 46.5275 18.9945 52.0271 12.3136 52.0271C5.74986 52.0271 0.241699 46.5265 0.241699 39.712C0.241699 32.8955 5.74986 27.3969 12.3136 27.3969C18.9945 27.3969 24.5026 32.8955 24.5026 39.712ZM50.2878 39.712C50.29 41.3299 49.9793 42.9323 49.3734 44.4275C48.7675 45.9226 47.8784 47.2811 46.757 48.4252C45.6356 49.5692 44.3039 50.4762 42.8382 51.0943C41.3726 51.7124 39.8018 52.0294 38.2159 52.0271C36.63 52.0294 35.0592 51.7124 33.5936 51.0943C32.128 50.4762 30.7963 49.5692 29.6749 48.4252C28.5534 47.2811 27.6643 45.9226 27.0584 44.4275C26.4526 42.9323 26.1418 41.3299 26.144 39.712C26.1418 38.0941 26.4526 36.4917 27.0584 34.9965C27.6643 33.5014 28.5534 32.1429 29.6749 30.9989C30.7963 29.8548 32.128 28.9478 33.5936 28.3297C35.0592 27.7116 36.63 27.3946 38.2159 27.3969C39.8019 27.3945 41.3727 27.7114 42.8384 28.3294C44.3041 28.9475 45.6358 29.8545 46.7573 30.9986C47.8787 32.1426 48.7678 33.5012 49.3737 34.9964C49.9795 36.4916 50.2901 38.0941 50.2878 39.712Z" fill="#45A0DC"/>
</svg>
