<?xml version="1.0" encoding="utf-8"?>
<!-- Generator: Adobe Illustrator 25.0.1, SVG Export Plug-In . SVG Version: 6.00 Build 0)  -->
<svg version="1.1" id="Layer_1" xmlns="http://www.w3.org/2000/svg" xmlns:xlink="http://www.w3.org/1999/xlink" x="0px" y="0px"
	 viewBox="0 0 305 571" style="enable-background:new 0 0 305 571;" xml:space="preserve">
<style type="text/css">
	.st0{fill:#605350;}
	.st1{fill:url(#SVGID_1_);}
	.st2{fill:url(#SVGID_2_);}
	.st3{fill:#404C58;}
	.st4{fill:#726A66;}
	.st5{fill:none;stroke:#726A66;stroke-miterlimit:10;}
	.st6{fill:#2F465A;}
	.st7{fill:#FFFFFF;fill-opacity:0.31;}
	.st8{fill:url(#SVGID_3_);}
	.st9{fill:#EAEAEA;}
	.st10{fill:url(#SVGID_4_);}
	.st11{fill:url(#SVGID_5_);}
	.st12{fill:url(#SVGID_6_);}
	.st13{fill:url(#SVGID_7_);}
	.st14{fill:url(#SVGID_8_);}
	.st15{fill:url(#SVGID_9_);}
	.st16{fill:url(#SVGID_10_);}
	.st17{fill:url(#SVGID_11_);}
	.st18{fill:url(#SVGID_12_);}
	.st19{fill:url(#SVGID_13_);}
	.st20{fill:url(#SVGID_14_);}
	.st21{fill:#969696;}
	.st22{fill:#B2B2B2;}
	.st23{fill:#DBDBDB;}
	.st24{fill:#8E8783;}
	.st25{fill:#766E6A;}
	.st26{fill:#202123;}
	.st27{fill:#766E6C;}
	.st28{fill:#301F1B;}
	.st29{fill:#543933;}
	.st30{fill:#C6C6C6;}
	.st31{fill:url(#SVGID_15_);}
	.st32{fill:#3C3736;}
	.st33{fill:#7A7A7A;}
	.st34{fill:#B0877E;}
	.st35{fill:#BFBFBF;}
	.st36{fill:url(#SVGID_16_);}
	.st37{fill:#37312B;}
	.st38{enable-background:new    ;}
	.st39{clip-path:url(#SVGID_18_);enable-background:new    ;}
	.st40{fill:#858585;}
	.st41{fill:#898989;}
	.st42{fill:#FFFFFF;}
	.st43{clip-path:url(#SVGID_20_);enable-background:new    ;}
	.st44{clip-path:url(#SVGID_22_);enable-background:new    ;}
	.st45{fill:#6F7986;}
	.st46{clip-path:url(#SVGID_24_);enable-background:new    ;}
	.st47{fill:#6E7885;}
	.st48{clip-path:url(#SVGID_26_);enable-background:new    ;}
	.st49{clip-path:url(#SVGID_28_);enable-background:new    ;}
	.st50{clip-path:url(#SVGID_30_);enable-background:new    ;}
	.st51{clip-path:url(#SVGID_32_);enable-background:new    ;}
	.st52{fill:#D3E7FF;}
	.st53{clip-path:url(#SVGID_34_);enable-background:new    ;}
	.st54{fill:#868686;}
	.st55{clip-path:url(#SVGID_36_);enable-background:new    ;}
	.st56{clip-path:url(#SVGID_38_);enable-background:new    ;}
	.st57{clip-path:url(#SVGID_40_);enable-background:new    ;}
	.st58{fill:#717C89;}
	.st59{clip-path:url(#SVGID_42_);enable-background:new    ;}
	.st60{clip-path:url(#SVGID_44_);enable-background:new    ;}
	.st61{clip-path:url(#SVGID_46_);enable-background:new    ;}
	.st62{clip-path:url(#SVGID_48_);enable-background:new    ;}
	.st63{clip-path:url(#SVGID_50_);enable-background:new    ;}
	.st64{clip-path:url(#SVGID_52_);enable-background:new    ;}
	.st65{fill:#818181;}
	.st66{fill:#8C8C8C;}
	.st67{clip-path:url(#SVGID_54_);enable-background:new    ;}
	.st68{clip-path:url(#SVGID_56_);enable-background:new    ;}
	.st69{clip-path:url(#SVGID_58_);enable-background:new    ;}
	.st70{clip-path:url(#SVGID_60_);enable-background:new    ;}
	.st71{clip-path:url(#SVGID_62_);enable-background:new    ;}
</style>
<path class="st0" d="M275.3,533.3l8.9-0.2l3.6,32.4l-12.9,0L275.3,533.3z"/>
<linearGradient id="SVGID_1_" gradientUnits="userSpaceOnUse" x1="176.8662" y1="564.2528" x2="187.2112" y2="36.0315" gradientTransform="matrix(1 0 0 -1 0 571.8898)">
	<stop  offset="0" style="stop-color:#9C9692"/>
	<stop  offset="1" style="stop-color:#716965"/>
</linearGradient>
<path class="st1" d="M90.2,537.8l5-528.5l148.6,34.6L284.2,533L90.2,537.8z"/>
<linearGradient id="SVGID_2_" gradientUnits="userSpaceOnUse" x1="48.9732" y1="561.7479" x2="59.3183" y2="33.5267" gradientTransform="matrix(1 0 0 -1 0 571.8898)">
	<stop  offset="0" style="stop-color:#DED5D1"/>
	<stop  offset="1" style="stop-color:#A89E98"/>
</linearGradient>
<path class="st2" d="M30.2,177l65-167.8l-5,528.5L13,535.4L30.2,177z"/>
<path class="st3" d="M251.9,485.4l-138.3,2.7l-0.8-432.4l19.5,4.3l3.8,0.8l9.2,2l4.1,0.9l7,1.5l3.8,0.8l8.1,1.8l3.9,0.9l7.7,1.7
	l3.8,0.8l7.8,1.7l0,0l4.1,0.9l7.2,1.6l4.2,0.9l16.9,3.7L251.9,485.4z"/>
<path class="st4" d="M112.9,44.9l-0.1-5.5l116.5,26l30.1,418.9l-5.5,0.1L225.1,69.6L112.9,44.9z"/>
<path class="st5" d="M112.7,39.4l0.8,448.7"/>
<path class="st4" d="M84,79.3c0,0-5.4,398.6-5.4,398c0-0.1-1.5,0.1-4.1,0.6c-1.2,0.2-2.6,0.5-4.1,0.8l0,0c-0.4,0.1-0.8,0.2-1.2,0.2
	c-0.5,0.1-1.1,0.2-1.7,0.3c-1.3,0.3-2.6,0.5-4,0.8c-0.3,0.1-0.6,0.1-0.9,0.2c-0.5,0.1-1.1,0.2-1.6,0.4c-1.5,0.3-3,0.6-4.6,1
	c-0.4,0.1-0.7,0.2-1.1,0.2c-0.2,0-0.4,0.1-0.6,0.1c-1,0.2-2.1,0.5-3.2,0.7l0,0c-0.4,0.1-0.8,0.2-1.2,0.3c-0.2,0-0.4,0.1-0.7,0.1
	c-1.2,0.3-2.5,0.5-3.7,0.8c-0.3,0.1-0.6,0.1-0.9,0.2c-0.2,0-0.3,0.1-0.5,0.1c-0.9,0.2-1.9,0.4-2.8,0.6c-0.4,0.1-0.7,0.2-1.1,0.2
	c-0.2,0-0.3,0.1-0.5,0.1c-0.9,0.2-1.9,0.4-2.8,0.6c-0.4,0.1-0.8,0.2-1.1,0.2c-0.2,0-0.4,0.1-0.6,0.1c-1,0.2-1.9,0.4-2.8,0.6
	c-0.4,0.1-0.8,0.2-1.1,0.2c-0.1,0-0.1,0-0.2,0c-1,0.2-1.9,0.4-2.7,0.6c0,0-0.1,0-0.1,0c-0.4,0.1-0.7,0.2-1,0.2c-0.1,0-0.1,0-0.2,0
	c-1,0.2-1.8,0.4-2.5,0.5c-0.1,0-0.2,0-0.3,0.1c-0.3,0.1-0.6,0.1-0.8,0.2c-0.6,0.1-0.9,0.2-0.9,0.2l9.2-265l0-0.2l0-0.4l0.8-24.5
	l1.5-3.4l1.6-3.7l2.8-6.5l0.9-2.1l3.9-9.1l0.5-1.1l4.1-9.6l0,0l4.6-10.8l0,0l4.7-11l0.4-0.9l3-7.2l2.1-4.9l4.5-10.6l1-2.3l4.6-10.8
	l1.1-2.6L79,91.1L84,79.3z"/>
<path class="st4" d="M84.4,66.4l-0.2-7.8L31.4,191.9l-13,298l5.8-1.2l10.2-295.6L84.4,66.4z"/>
<path class="st5" d="M84.4,58.6l-5.8,418.7l-60.3,12.6"/>
<path class="st6" d="M121.4,58.6l0.9-1.9l-0.8,67.1L121.4,58.6z"/>
<path class="st7" d="M122.3,56.7l1.8,0l-0.8,67.7l-1.8,0L122.3,56.7z"/>
<path class="st6" d="M136,56.9l0.1,3.9l1.1,74.6l5.3,352.1l-4,0.1L132.2,60l0-0.1L136,56.9z"/>
<path class="st7" d="M136.5,93.2l0.7,42.2l5.9,352.1l-2.2,0l-6.7-387.3L136.5,93.2z"/>
<path class="st6" d="M158.2,487.2l-4.8,0.1l-8.1-424.4l0-0.6l4-2.9l0.1,4.4l0.7,31.3l0,0.7L158.2,487.2z"/>
<path class="st7" d="M158.6,487.2l-2.2,0l-8.3-385.4l1.9-6.8l0,0.7L158.6,487.2z"/>
<path class="st6" d="M173.1,486.9l-4.3,0.1L156.3,65.3l0-0.1c0.1-0.2,3.7-2.5,3.7-2.5l0.1,3.5l1,30.9l0,0.1L173.1,486.9z"/>
<path class="st7" d="M173.9,486.9l-2.2,0l-12.4-382.8l1.8-7l0,0.1L173.9,486.9z"/>
<path class="st6" d="M187.8,486.6l-4.4,0.1L168.1,68l0.1-0.1l3.8-3.1l0.1,4l3.7,100.1L187.8,486.6z"/>
<path class="st7" d="M188,486.6l-2.2,0l-14.4-379.8l1.9-7.1l2.6,69.2L188,486.6z"/>
<path class="st6" d="M179.9,70.5l3.6-2.9l18.8,413.5l-4.7,0.1L179.9,70.5z"/>
<path class="st7" d="M185.1,102.1l-1.8,6.5l17,373l2.3,0L185.1,102.1z"/>
<path class="st6" d="M191.2,73.3l4.1-3.5l21.5,412.9l-4.7,0.1L191.2,73.3z"/>
<path class="st7" d="M197.3,104.6l-2,6.7l19.5,370l2.5,0L197.3,104.6z"/>
<path class="st6" d="M202.8,75.5l4-3l23.9,411l-5.1-0.8L202.8,75.5z"/>
<path class="st7" d="M208.9,107.2l-2.1,6.3l22.1,368.3l2.5,0L208.9,107.2z"/>
<path class="st6" d="M213.9,79.4c0-0.1,1.9-2.7,1.9-2.7l2.8,65.8L213.9,79.4z"/>
<path class="st7" d="M215.8,76.7l1.8,0.2l2.8,65.5l-1.8,0L215.8,76.7z"/>
<linearGradient id="SVGID_3_" gradientUnits="userSpaceOnUse" x1="80.8771" y1="454.9979" x2="84.1028" y2="455.0609" gradientTransform="matrix(1 0 0 -1 0 571.8898)">
	<stop  offset="0" style="stop-color:#B2B2B2"/>
	<stop  offset="0.4919" style="stop-color:#B0B0B0"/>
	<stop  offset="0.6691" style="stop-color:#A9A9A9"/>
	<stop  offset="0.7954" style="stop-color:#9E9E9E"/>
	<stop  offset="0.8975" style="stop-color:#8D8D8D"/>
	<stop  offset="0.9839" style="stop-color:#777777"/>
	<stop  offset="1" style="stop-color:#727272"/>
</linearGradient>
<path class="st8" d="M83.5,84.3c0,0-3.2-0.1-3.2,0.1c0,0.2,0.2,9.6,0.2,9.6l1.2,2.4l-0.3,22.7l1,3l-0.2,27.4l0.7,0L83.5,84.3z"/>
<path class="st9" d="M79.3,86l0.9-1.6l0.2,9.6l1.2,2.4l-0.3,22.7l0.9,2.8l-0.1,27.6l-0.5,0l-0.1-27.3l-1.3-3.1l0.4-22.3
	c0,0-1.3-2.4-1.2-2.5C79.5,94.3,79.3,86,79.3,86z"/>
<linearGradient id="SVGID_4_" gradientUnits="userSpaceOnUse" x1="23.7718" y1="51.4029" x2="24.0361" y2="51.4079" gradientTransform="matrix(1 0 0 -1 0 571.8898)">
	<stop  offset="0.4395" style="stop-color:#C9C9C9"/>
	<stop  offset="0.52" style="stop-color:#C4C4C4"/>
	<stop  offset="0.6109" style="stop-color:#B7B7B7"/>
	<stop  offset="0.6342" style="stop-color:#B2B2B2"/>
</linearGradient>
<path class="st10" d="M23.8,520.1l0.2,0.8l-0.3,0L23.8,520.1z"/>
<linearGradient id="SVGID_5_" gradientUnits="userSpaceOnUse" x1="22.0283" y1="231.5078" x2="40.3429" y2="231.8657" gradientTransform="matrix(1 0 0 -1 0 571.8898)">
	<stop  offset="0.4395" style="stop-color:#C9C9C9"/>
	<stop  offset="0.52" style="stop-color:#C4C4C4"/>
	<stop  offset="0.6109" style="stop-color:#B7B7B7"/>
	<stop  offset="0.6342" style="stop-color:#B2B2B2"/>
</linearGradient>
<path class="st11" d="M37.4,191.8l-0.9,25.8l0,1.5l-1.8,53L27.6,488c-1,0.2-1.8,0.4-2.5,0.5c-0.1,0-0.2,0-0.3,0.1l9.3-260.3
	l-0.7-1.7l-1.1-2.6l-0.8-1.9l1.2-30.2L37.4,191.8z"/>
<path class="st9" d="M33.5,225.3l0,0.9l-1.1-2.4l-0.8-1.7l0.8,1.3L33.5,225.3z"/>
<path class="st9" d="M34.4,228.3l-9.3,260.2c-0.1,0-0.2,0-0.3,0.1c-0.3,0.1-0.6,0.1-0.8,0.2l9.4-262.2l0-0.4L34.4,228.3z"/>
<linearGradient id="SVGID_6_" gradientUnits="userSpaceOnUse" x1="25.9118" y1="236.4758" x2="42.8758" y2="236.8077" gradientTransform="matrix(1 0 0 -1 0 571.8898)">
	<stop  offset="0.4395" style="stop-color:#C9C9C9"/>
	<stop  offset="0.52" style="stop-color:#C4C4C4"/>
	<stop  offset="0.6109" style="stop-color:#B7B7B7"/>
	<stop  offset="0.6342" style="stop-color:#B2B2B2"/>
</linearGradient>
<path class="st12" d="M39.9,182.8l0,0.4l-0.6,21.1l0,1.6l-7.6,281.2c-1,0.2-1.9,0.4-2.7,0.6c0,0-0.1,0-0.1,0l7.7-268.4l-0.1-0.2
	l-2.6-6l0.7-17.5l0.1-3.7l0.3-9L39.9,182.8z"/>
<path class="st9" d="M37.6,219.3L29,487.7c0,0-0.1,0-0.1,0c-0.4,0.1-0.7,0.2-1,0.2l6.9-215.8l1.7-52.5l-2.5-6.6l2.6,4.6L37.6,219.3z
	"/>
<linearGradient id="SVGID_7_" gradientUnits="userSpaceOnUse" x1="52.87" y1="271.8983" x2="71.8689" y2="272.2703" gradientTransform="matrix(1 0 0 -1 0 571.8898)">
	<stop  offset="0.4395" style="stop-color:#C9C9C9"/>
	<stop  offset="0.52" style="stop-color:#C4C4C4"/>
	<stop  offset="0.6109" style="stop-color:#B7B7B7"/>
	<stop  offset="0.6342" style="stop-color:#B2B2B2"/>
</linearGradient>
<path class="st13" d="M68.3,117.9L61,480.7c-1.5,0.3-3,0.6-4.6,1l8.5-325l-2.4-5.5l0.6-22.7l0.3-10.5L68.3,117.9L68.3,117.9z"/>
<path class="st9" d="M65,156.7l-8.5,325c-0.4,0.1-0.7,0.2-1.1,0.2l8.4-324.7l-1.2-6L65,156.7z"/>
<linearGradient id="SVGID_8_" gradientUnits="userSpaceOnUse" x1="59.8519" y1="279.2554" x2="77.8529" y2="279.6071" gradientTransform="matrix(1 0 0 -1 0 571.8898)">
	<stop  offset="0" style="stop-color:#C9C9C9"/>
	<stop  offset="0.4052" style="stop-color:#C5C5C5"/>
	<stop  offset="0.7901" style="stop-color:#BABABA"/>
	<stop  offset="0.9628" style="stop-color:#B2B2B2"/>
</linearGradient>
<path class="st14" d="M74.2,104.7l-0.2,22l-6.4,352.7c-1.3,0.3-2.6,0.5-4,0.8l6.7-336.6l-1.7-3.8l0.1-24.2l0-10.8L74.2,104.7
	L74.2,104.7z"/>
<path class="st9" d="M70.2,143.6l-6.7,336.6c-0.3,0.1-0.6,0.1-0.9,0.2l6.6-335.8l-0.7-4.8L70.2,143.6z"/>
<linearGradient id="SVGID_9_" gradientUnits="userSpaceOnUse" x1="66.6422" y1="286.8186" x2="83.4442" y2="287.1475" gradientTransform="matrix(1 0 0 -1 0 571.8898)">
	<stop  offset="0" style="stop-color:#C9C9C9"/>
	<stop  offset="0.4052" style="stop-color:#C5C5C5"/>
	<stop  offset="0.7901" style="stop-color:#BABABA"/>
	<stop  offset="0.9628" style="stop-color:#B2B2B2"/>
</linearGradient>
<path class="st15" d="M79.7,91.1l-5.1,386.8c-1.2,0.2-2.6,0.5-4.1,0.8h0l5.9-348.3l-2.2-5.7l0-0.1l0.2-22.6l0.1-11L79.7,91.1
	L79.7,91.1z"/>
<path class="st9" d="M76.8,130l-6.3,348.7l0,0c-0.4,0.1-0.8,0.2-1.2,0.2l6-347.5l-1.1-6.7l0-0.1L76.8,130z"/>
<linearGradient id="SVGID_10_" gradientUnits="userSpaceOnUse" x1="29.8942" y1="242.4518" x2="47.3543" y2="242.7937" gradientTransform="matrix(1 0 0 -1 0 571.8898)">
	<stop  offset="0.4395" style="stop-color:#C9C9C9"/>
	<stop  offset="0.52" style="stop-color:#C4C4C4"/>
	<stop  offset="0.6109" style="stop-color:#B7B7B7"/>
	<stop  offset="0.6342" style="stop-color:#B2B2B2"/>
</linearGradient>
<path class="st16" d="M44.3,171.7l0,1.2l-0.6,22l0,1l-7.9,290.2c-1,0.2-1.9,0.4-2.8,0.6l8-278.6l-1.7-4l-1-2.3l0.6-16.7l0.1-2.5
	l0.4-11L44.3,171.7L44.3,171.7z"/>
<path class="st9" d="M41,208.2l-8,278.6c-0.4,0.1-0.8,0.2-1.1,0.2l8.1-278.4l-0.7-2.7l-0.9-3.9l1,2.3L41,208.2z"/>
<linearGradient id="SVGID_11_" gradientUnits="userSpaceOnUse" x1="33.7577" y1="247.6145" x2="46.5069" y2="247.2655" gradientTransform="matrix(1 0 0 -1 0 571.8898)">
	<stop  offset="4.341760e-02" style="stop-color:#C9C9C9"/>
	<stop  offset="0.4389" style="stop-color:#C4C4C4"/>
	<stop  offset="0.8856" style="stop-color:#B7B7B7"/>
	<stop  offset="1" style="stop-color:#B2B2B2"/>
</linearGradient>
<path class="st17" d="M49,163.3l-0.6,21.3l0,1.3l-8.1,299.4c-0.9,0.2-1.9,0.4-2.8,0.6l8.2-286.1l-2.1-4.8l-0.6-1.4l0.7-19.5l0.1-2.3
	l0.3-8.4L49,163.3L49,163.3z"/>
<path class="st9" d="M45.7,199.7l-8.2,286.1c-0.4,0.1-0.8,0.2-1.1,0.2l8.3-285.9l-1-4.2l-0.6-2.5l0.6,1.4L45.7,199.7z"/>
<linearGradient id="SVGID_12_" gradientUnits="userSpaceOnUse" x1="38.5829" y1="253.0808" x2="56.7797" y2="253.4367" gradientTransform="matrix(1 0 0 -1 0 571.8898)">
	<stop  offset="0.4395" style="stop-color:#C9C9C9"/>
	<stop  offset="0.52" style="stop-color:#C4C4C4"/>
	<stop  offset="0.6109" style="stop-color:#B7B7B7"/>
	<stop  offset="0.6342" style="stop-color:#B2B2B2"/>
</linearGradient>
<path class="st18" d="M53.5,152.4l-0.6,22.1l0,1.8l-8.3,308c-0.9,0.2-1.9,0.4-2.8,0.6l8.4-296l-1.9-4.4l-0.8-1.9l0.7-19.4l0,0
	l0.4-10.8L53.5,152.4z"/>
<path class="st9" d="M50.3,188.9l-8.4,296c-0.4,0.1-0.7,0.2-1.1,0.2l8.5-295.8l-0.8-3.4l-0.8-3.2l0.8,1.9L50.3,188.9z"/>
<linearGradient id="SVGID_13_" gradientUnits="userSpaceOnUse" x1="42.6947" y1="259.0248" x2="61.1977" y2="259.3867" gradientTransform="matrix(1 0 0 -1 0 571.8898)">
	<stop  offset="0.4395" style="stop-color:#C9C9C9"/>
	<stop  offset="0.52" style="stop-color:#C4C4C4"/>
	<stop  offset="0.6109" style="stop-color:#B7B7B7"/>
	<stop  offset="0.6342" style="stop-color:#B2B2B2"/>
</linearGradient>
<path class="st19" d="M57.9,141.4l-8.1,341.7c-1.2,0.3-2.5,0.5-3.7,0.8l8.5-305.3l-1.6-4.1l-0.7-1.8l0.7-20.2l0,0l0.4-10.9
	L57.9,141.4L57.9,141.4z"/>
<path class="st9" d="M54.5,178.6L46,483.9c-0.3,0.1-0.6,0.1-0.9,0.2l8.3-304.9l-0.5-3l-0.6-3.6l0.7,1.8L54.5,178.6z"/>
<linearGradient id="SVGID_14_" gradientUnits="userSpaceOnUse" x1="48.1648" y1="263.6609" x2="66.0234" y2="264.011" gradientTransform="matrix(1 0 0 -1 0 571.8898)">
	<stop  offset="0.4395" style="stop-color:#C9C9C9"/>
	<stop  offset="0.52" style="stop-color:#C4C4C4"/>
	<stop  offset="0.6109" style="stop-color:#B7B7B7"/>
	<stop  offset="0.6342" style="stop-color:#B2B2B2"/>
</linearGradient>
<path class="st20" d="M62.6,133.4l-7.9,348.7c-1,0.2-2.1,0.5-3.2,0.7l7.8-312.4l-0.1-0.3l-1.1-2.5l-0.6-1.4l0.1-2.7l0-0.5l0.4-22.5
	l0.1-7.1L62.6,133.4L62.6,133.4z"/>
<path class="st9" d="M59.3,166.9l-0.1,3.1l-7.7,312.7l0,0c-0.4,0.1-0.8,0.2-1.2,0.3l7.7-315.4l0-0.3l-0.6-3.8l-0.1-0.8l0.1,0.3
	L59.3,166.9z"/>
<path class="st21" d="M30.2,177l-1.6-0.7L93.7,6.8l151.4,35.3l-1.2,1.8L95.2,9.2L30.2,177z"/>
<path class="st22" d="M245.1,42.1l0-2.3L93.5,3.9l0.2,2.9L245.1,42.1z"/>
<path class="st23" d="M93.5,3.9l0.2,2.9L28.6,176.3l1.7-7.1L93.5,3.9z"/>
<path class="st24" d="M68,509.2l10-2.4l0,30.5l-3-0.1l0,3.2l-7.8-0.3L68,509.2z"/>
<path class="st0" d="M74.9,539.3l0-2.2l15.3,0.7l68.9-1.7l0.1,3.6l-69,1.4l-15.4-0.5L74.9,539.3z"/>
<path class="st4" d="M68,509.2l4.1,3.2l5.8-1.3l0-4.3L68,509.2z"/>
<path class="st25" d="M70.6,540.4l0.8-28.4l6.5-1.1l0,26.3l-3,0l0,3.4L70.6,540.4z"/>
<path class="st26" d="M113.4,537.2l-0.7-33.5l145.5-0.4l2.6,30.3L113.4,537.2z"/>
<path class="st0" d="M159.2,539.7l-69,1.4l0.5,26.3l69.4,0.7L159.2,539.7z"/>
<path class="st27" d="M90.3,541.1l-78.1-2.8l-1.3,20.2l80,8.9L90.3,541.1z"/>
<path class="st0" d="M67.1,540.2l0.1-3.1l-55.7-1.9l-0.2,3.1L67.1,540.2z"/>
<path class="st28" d="M226.4,528l0.1,6.9l18.9-0.4l14.7,11.7l5.7-0.1l24.8,20.2l2.2,1.7l2.3-0.3l-0.8-12L246.5,526L226.4,528z"/>
<path class="st29" d="M294.4,555.7l10-0.2l-49.2-30l-8.7,0.4L294.4,555.7z"/>
<path class="st0" d="M295.1,567.8l-0.8-12l10-0.2l0.4,11.8L295.1,567.8z"/>
<path class="st30" d="M142.6,503.5c0,0,12.7-2.4,15.2-2.6l-0.2-12.7c0,0-2.4,0.6-6.6,1.7c-4.2,1.2-8.6,2.3-8.6,2.3L142.6,503.5z"/>
<linearGradient id="SVGID_15_" gradientUnits="userSpaceOnUse" x1="159.887" y1="77.6874" x2="141.414" y2="74.5234" gradientTransform="matrix(1 0 0 -1 0 571.8898)">
	<stop  offset="0" style="stop-color:#58534F"/>
	<stop  offset="1" style="stop-color:#746C6A"/>
</linearGradient>
<path class="st31" d="M142.6,503.5c0,0,12.7-2.4,15.2-2.6l-0.2-12.7c0,0-2.4,0.6-6.6,1.7c-4.2,1.2-8.6,2.3-8.6,2.3L142.6,503.5z"/>
<path class="st32" d="M142.6,503.5l12.8-0.1l2.4-0.4l0-2c0,0-4.7,0.7-8.1,1.3C146.2,502.8,142.6,503.5,142.6,503.5z"/>
<path class="st33" d="M195.9,572.4l96.9-4.4l0-1.8l-96.9,4.5L195.9,572.4z"/>
<path class="st23" d="M292.8,566.3l-2.5-1l-94.5,4.1l0,1.3L292.8,566.3z"/>
<path class="st33" d="M192.7,569.8l96.9-4.4l0-1.8l-96.9,4.4L192.7,569.8z"/>
<path class="st23" d="M289.6,563.7l-2.5-1l-94.5,4.1l0,1.3L289.6,563.7z"/>
<path class="st33" d="M190.2,567l96.9-4.4l0-1.8l-96.9,4.5L190.2,567z"/>
<path class="st23" d="M287.1,560.9l-2.5-1l-94.5,4.1l0,1.3L287.1,560.9z"/>
<path class="st33" d="M187.6,564.3l96.9-4.4l0-1.8l-96.9,4.5L187.6,564.3z"/>
<path class="st23" d="M284.5,558.2l-2.5-1l-94.5,4.1l0,1.3L284.5,558.2z"/>
<path class="st33" d="M185.1,561.6l96.9-4.4l0-1.8l-96.9,4.5L185.1,561.6z"/>
<path class="st23" d="M282,555.5l-3.3-0.9l-93.6,4.1l0,1.3L282,555.5z"/>
<path class="st33" d="M181.8,559l96.9-4.4l0-1.8l-96.9,4.4L181.8,559z"/>
<path class="st23" d="M278.6,552.9l-4.1-0.9l-92.8,4.1l0,1.3L278.6,552.9z"/>
<path class="st33" d="M177.7,556.4l96.9-4.4l0-1.8l-96.9,4.4L177.7,556.4z"/>
<path class="st23" d="M274.6,550.3l-3.9-0.9l-93.1,4.1l0,1.3L274.6,550.3z"/>
<path class="st33" d="M270.7,547.6l0,1.8l-90.1,4l-1.7-1.6L270.7,547.6z"/>
<path class="st23" d="M270.7,547.6l-91.7,4.2l-0.6-0.5l-0.1,0l29.6-1.3l59.7-2.6L270.7,547.6z"/>
<path class="st33" d="M267.7,545.6l0,1.8l-58.2,2.6l-29.6,1.3l-0.1,0l-1.6-1.5L267.7,545.6z"/>
<path class="st23" d="M267.7,545.6l-89.4,4.1l-0.5-0.4l-0.1-0.1l75.4-3.3l6.7-0.3L267.7,545.6z"/>
<path class="st33" d="M259.7,543.8l0,1.8l-8.2,0.4l-75.3,3.4l-0.1-0.1l-1.5-1.5L259.7,543.8z"/>
<path class="st23" d="M259.7,543.8l-85.2,3.9l-0.5-0.5l-0.1-0.1l47.9-2.1l35.1-1.6L259.7,543.8z"/>
<path class="st33" d="M256.9,541.7l0,1.8l-35.1,1.6l-47.8,2.1l-0.1-0.1l-1.6-1.5L256.9,541.7z"/>
<path class="st23" d="M256.9,541.7l-84.5,3.9l-0.4-0.3l-0.2-0.2l83.1-3.5l0,0L256.9,541.7z"/>
<path class="st33" d="M254.8,539.8l0,1.8l-1,0l-81.8,3.7l-0.2-0.2l-1.4-1.4L254.8,539.8z"/>
<path class="st23" d="M254.8,539.8l-84.5,3.9l-0.4-0.4l-0.2-0.2l82.2-3.5l0.9,0L254.8,539.8z"/>
<path class="st33" d="M252.2,537.9l0,1.8l-82.3,3.7l-0.2-0.2l-1.5-1.4L252.2,537.9z"/>
<path class="st23" d="M252.2,537.9l-83.9,3.9l-0.4-0.3l-0.2-0.2l80.5-3.5l2.3,0L252.2,537.9z"/>
<path class="st33" d="M250.4,535.9l0,1.7l-1.2,0.1l-81.3,3.7l-0.2-0.2l-1.4-1.4L250.4,535.9z"/>
<path class="st23" d="M250.4,535.9l-84.1,3.9l-0.5-0.5l-0.1-0.1l53.2-2.3l29.2-1.2L250.4,535.9z"/>
<path class="st33" d="M248,534l0,1.8l-29.2,1.3l-53.1,2.4l-0.1-0.1l-1.6-1.5L248,534z"/>
<path class="st23" d="M248,534l-83.9,3.9l-0.6-0.6l80.4-3.5L248,534z"/>
<path class="st33" d="M244.2,532l0,1.8l-29.2,1.3l-53.1,2.3l-0.1-0.1l-1.6-1.5L244.2,532z"/>
<path class="st23" d="M244.2,532l-83.9,3.8l-0.6-0.6l80.4-3.4L244.2,532z"/>
<path class="st27" d="M137.5,536.8l-0.1-7.7l12.4-1.3l35.2,32.7l0.2,12.7l-25-5.2l-1.7-28.3l-20.9,0.3L137.5,536.8z"/>
<path class="st29" d="M195.8,560.2l-10.9,0.4l-35.2-32.7l11.6-0.5L195.8,560.2z"/>
<path class="st0" d="M184.9,560.6l0.2,12.7l10.8-0.8l-0.1-12.2L184.9,560.6z"/>
<path class="st0" d="M166,545.3c-0.1-0.1-5.9-0.2-5.9-0.2l0.9,25.4l6-1.2L166,545.3z"/>
<path class="st27" d="M153.1,545.2l6.9-0.1l0.9,25.4l-7.4-2.4L153.1,545.2z"/>
<path class="st34" d="M157.4,479.7l6.2-1.7l1.3,67.2l-6.3-0.3L157.4,479.7z"/>
<path class="st29" d="M272.2,479.7l-108.6-1.6l1.2,63.5l9.8-0.2l-1.3-44.6l91.3,0.1l3.1,50.4l1.7,0.2l-0.7-7.8l6.9-1.1L272.2,479.7z
	"/>
<path class="st28" d="M257.8,527.1c-0.2-0.1-1.3-30.2-1.3-30.2l8.1,0l2.2,35.7L257.8,527.1z"/>
<path class="st32" d="M263.9,496.8l-33.5,6.4l-57.2,0.5l0.1-6.8c0,0,37.4-3.2,55.4-3.4C246.7,493.2,263.9,496.8,263.9,496.8z"/>
<path class="st35" d="M168.2,482.7l0-0.4c0,0,29.8-3.3,61.6-2.8c31.9,0.5,37.3,2.9,37.3,2.9l0.2,0.5L168.2,482.7z"/>
<linearGradient id="SVGID_16_" gradientUnits="userSpaceOnUse" x1="172.5775" y1="81.9659" x2="267.0645" y2="83.8049" gradientTransform="matrix(1 0 0 -1 0 571.8898)">
	<stop  offset="0" style="stop-color:#867871"/>
	<stop  offset="1" style="stop-color:#63584D"/>
</linearGradient>
<path class="st36" d="M173.3,496.8c0,0,42-0.7,58.4-0.5c16.4,0.2,32.2,0.5,32.2,0.5l3.4-14c0,0-14.2-2.9-38.9-2.6
	c-24.7,0.3-60.2,2.5-60.2,2.5L173.3,496.8z"/>
<path class="st37" d="M187.8,484.9c0,0.1,0,0.2,0,0.2c0,0.1,0,0.1,0,0.2c0,0,0,0.1,0,0.1c0,0,0,0.1,0,0.1l-0.1,0
	c0-0.1-0.1-0.2-0.1-0.3c0-0.1-0.1-0.1-0.1-0.2c-0.1,0-0.1,0-0.2,0l-0.1,0l0.1,1.3c0,0.1,0,0.1,0,0.1c0,0,0,0,0.1,0.1
	c0,0,0.1,0,0.2,0l0,0c-0.1,0-0.1,0-0.2,0c-0.1,0-0.2,0-0.3,0c-0.1,0-0.2,0-0.2,0c-0.1,0-0.1,0-0.2,0l0,0c0.1,0,0.1,0,0.2,0
	c0,0,0.1,0,0.1-0.1c0,0,0-0.1,0-0.1l-0.1-1.3l-0.1,0c-0.1,0-0.1,0-0.2,0.1c-0.1,0-0.1,0.1-0.1,0.2c0,0.1-0.1,0.2-0.1,0.3l-0.1,0
	c0,0,0,0,0-0.1c0,0,0-0.1,0-0.1c0,0,0-0.1,0-0.2c0-0.1,0-0.1,0-0.2c0.1,0,0.1,0,0.2,0c0.1,0,0.2,0,0.3,0c0.1,0,0.2,0,0.2,0
	s0.2,0,0.2,0c0.1,0,0.2,0,0.3,0C187.6,484.9,187.7,484.9,187.8,484.9z"/>
<path class="st37" d="M188.8,484.8c0.2,0,0.3,0,0.4,0.1c0.1,0.1,0.2,0.2,0.3,0.3c0.1,0.1,0.1,0.3,0.1,0.5c0,0.2,0,0.3-0.1,0.5
	c-0.1,0.1-0.2,0.2-0.3,0.3c-0.1,0.1-0.3,0.1-0.4,0.1c-0.2,0-0.3,0-0.4-0.1c-0.1-0.1-0.2-0.2-0.3-0.3c-0.1-0.1-0.1-0.3-0.1-0.5
	c0-0.2,0-0.3,0.1-0.5c0.1-0.1,0.2-0.2,0.3-0.3C188.5,484.8,188.6,484.8,188.8,484.8z M188.8,484.8c-0.1,0-0.2,0-0.2,0.1
	c-0.1,0.1-0.1,0.2-0.1,0.3c0,0.1,0,0.3,0,0.4c0,0.2,0,0.3,0.1,0.4c0,0.1,0.1,0.2,0.2,0.3c0.1,0.1,0.1,0.1,0.2,0.1
	c0.1,0,0.2,0,0.2-0.1c0.1-0.1,0.1-0.2,0.1-0.3c0-0.1,0-0.3,0-0.4c0-0.2,0-0.3-0.1-0.4c0-0.1-0.1-0.2-0.2-0.3
	C188.9,484.8,188.9,484.8,188.8,484.8z"/>
<path class="st37" d="M190.4,484.7c0.1,0,0.2,0,0.2,0c0.1,0,0.1,0,0.1,0.1c0,0,0,0,0,0c0,0,0,0,0,0c0,0,0,0,0-0.1l0.1,0
	c0,0,0,0.1,0,0.1c0,0,0,0.1,0,0.2c0,0.1,0,0.2,0,0.3l-0.1,0c0-0.1,0-0.2-0.1-0.2c0-0.1-0.1-0.1-0.1-0.2
	C190.6,484.8,190.5,484.8,190.4,484.7c0,0.1-0.1,0.1-0.1,0.1c0,0-0.1,0.1-0.1,0.2c0,0.1,0,0.1,0.1,0.2c0,0,0.1,0.1,0.1,0.1
	c0.1,0,0.1,0.1,0.2,0.1c0.1,0,0.1,0.1,0.2,0.1c0.1,0,0.1,0.1,0.2,0.2c0,0.1,0.1,0.1,0.1,0.2c0,0.1,0,0.2-0.1,0.3
	c0,0.1-0.1,0.1-0.2,0.2c-0.1,0-0.2,0.1-0.3,0.1c-0.1,0-0.2,0-0.2,0c-0.1,0-0.1,0-0.1-0.1c0,0-0.1,0-0.1,0c0,0,0,0,0,0.1h-0.1
	c0,0,0-0.1,0-0.1c0-0.1,0-0.1,0-0.2c0-0.1,0-0.2,0-0.3h0.1c0,0.1,0,0.2,0.1,0.3s0.1,0.2,0.1,0.2c0.1,0.1,0.1,0.1,0.2,0.1
	c0.1,0,0.1,0,0.2-0.1c0.1,0,0.1-0.1,0.1-0.2c0-0.1,0-0.2-0.1-0.2c-0.1-0.1-0.2-0.1-0.3-0.2c-0.1,0-0.1-0.1-0.2-0.1
	c-0.1,0-0.1-0.1-0.2-0.2c0-0.1-0.1-0.1-0.1-0.2c0-0.1,0-0.2,0.1-0.2c0-0.1,0.1-0.1,0.2-0.1C190.2,484.7,190.3,484.7,190.4,484.7z"/>
<path class="st37" d="M191.2,486.4L191.2,486.4c0-0.1,0.1-0.1,0.1-0.1c0,0,0,0,0-0.1c0,0,0-0.1,0-0.1l0-1.2c0-0.1,0-0.1,0-0.1
	c0,0,0,0-0.1-0.1s-0.1,0-0.1,0l0,0c0,0,0.1,0,0.2,0c0.1,0,0.1,0,0.2,0c0.1,0,0.1,0,0.2,0c0.1,0,0.1,0,0.2,0l0,0c-0.1,0-0.1,0-0.1,0
	c0,0,0,0,0,0.1c0,0,0,0.1,0,0.1l0,1.2c0,0.1,0,0.1,0,0.1c0,0,0,0,0.1,0.1c0,0,0.1,0,0.1,0v0c0,0-0.1,0-0.2,0c-0.1,0-0.1,0-0.2,0
	c-0.1,0-0.1,0-0.2,0C191.3,486.3,191.3,486.3,191.2,486.4z M191.6,485.5L191.6,485.5l0.9-0.1v0L191.6,485.5z M192.2,486.3
	L192.2,486.3c0.1-0.1,0.1-0.1,0.1-0.1c0,0,0,0,0-0.1c0,0,0-0.1,0-0.1l0-1.2c0-0.1,0-0.1,0-0.1c0,0,0,0-0.1-0.1c0,0-0.1,0-0.1,0l0,0
	c0,0,0.1,0,0.2,0c0.1,0,0.1,0,0.2,0c0.1,0,0.1,0,0.2,0c0.1,0,0.1,0,0.2,0v0c-0.1,0-0.1,0-0.1,0c0,0,0,0-0.1,0.1c0,0,0,0.1,0,0.1
	l0,1.2c0,0.1,0,0.1,0,0.1c0,0,0,0,0.1,0.1c0,0,0.1,0,0.1,0v0c0,0-0.1,0-0.2,0c-0.1,0-0.1,0-0.2,0c-0.1,0-0.1,0-0.2,0
	C192.3,486.3,192.3,486.3,192.2,486.3z"/>
<path class="st37" d="M193.8,484.6L193.8,484.6c-0.1,0-0.1,0.1-0.1,0.1c0,0,0,0,0,0.1c0,0,0,0.1,0,0.1l0,1.2c0,0.1,0,0.1,0,0.1
	c0,0,0,0,0.1,0.1c0,0,0.1,0,0.1,0v0c0,0-0.1,0-0.2,0c-0.1,0-0.1,0-0.2,0c-0.1,0-0.1,0-0.2,0c-0.1,0-0.1,0-0.2,0v0c0.1,0,0.1,0,0.1,0
	c0,0,0,0,0.1-0.1c0,0,0-0.1,0-0.1l0-1.2c0-0.1,0-0.1,0-0.1c0,0,0,0-0.1-0.1c0,0-0.1,0-0.1,0v0c0,0,0.1,0,0.2,0c0.1,0,0.1,0,0.2,0
	c0.1,0,0.1,0,0.2,0C193.7,484.6,193.8,484.6,193.8,484.6z M194.6,484.6L194.6,484.6c0,0.1-0.1,0.1-0.2,0.1c-0.1,0-0.1,0.1-0.2,0.2
	l-0.4,0.5l0.1-0.2l0.6,0.9c0,0,0,0.1,0.1,0.1c0,0,0.1,0,0.1,0.1v0c-0.1,0-0.1,0-0.2,0c-0.1,0-0.1,0-0.2,0c0,0-0.1,0-0.1,0
	c0,0-0.1,0-0.2,0v0c0.1,0,0.1,0,0.1,0c0,0,0,0,0-0.1l-0.4-0.5c0,0,0-0.1-0.1-0.1c0,0,0,0-0.1,0c0,0,0,0-0.1,0v-0.1
	c0.1,0,0.1,0,0.2-0.1c0.1,0,0.1-0.1,0.2-0.2l0.1-0.2c0.1-0.1,0.1-0.1,0.1-0.2c0,0,0-0.1,0-0.1c0,0-0.1,0-0.1,0l0,0
	c0.1,0,0.1,0,0.2,0c0.1,0,0.1,0,0.2,0C194.5,484.6,194.5,484.6,194.6,484.6z"/>
<path class="st37" d="M196,484.5c0,0.1,0,0.1,0,0.2c0,0.1,0,0.1,0,0.1c0,0,0,0.1,0,0.1c0,0,0,0.1,0,0.1H196c0-0.1,0-0.2-0.1-0.3
	c0-0.1-0.1-0.1-0.1-0.1c-0.1,0-0.1,0-0.2,0l-0.1,0c0,0-0.1,0-0.1,0c0,0,0,0,0,0c0,0,0,0.1,0,0.1l0,1.2c0,0,0,0.1,0,0.1c0,0,0,0,0,0
	c0,0,0.1,0,0.1,0l0.1,0c0.1,0,0.1,0,0.2-0.1s0.1-0.1,0.1-0.2c0-0.1,0.1-0.2,0.1-0.3h0.1c0,0.1,0,0.1,0,0.2c0,0,0,0.1,0,0.2
	c0,0.1,0,0.1,0,0.2c-0.1,0-0.2,0-0.3,0c-0.1,0-0.2,0-0.3,0c-0.1,0-0.1,0-0.2,0c-0.1,0-0.2,0-0.3,0c-0.1,0-0.2,0-0.3,0l0,0
	c0.1,0,0.1,0,0.1,0c0,0,0,0,0-0.1c0,0,0-0.1,0-0.1l0-1.2c0-0.1,0-0.1,0-0.1c0,0,0,0-0.1-0.1c0,0-0.1,0-0.1,0l0,0c0.1,0,0.2,0,0.3,0
	c0.1,0,0.2,0,0.3,0c0.1,0,0.2,0,0.2,0c0.1,0,0.2,0,0.2,0C195.9,484.5,195.9,484.5,196,484.5z M195.7,485.3L195.7,485.3l-0.4,0.1v0
	L195.7,485.3z M195.7,485c0,0.1,0,0.2,0,0.2c0,0,0,0.1,0,0.1c0,0,0,0.1,0,0.1c0,0,0,0.1,0,0.2l-0.1,0c0-0.1,0-0.1,0-0.1
	c0,0-0.1-0.1-0.1-0.1c0,0-0.1,0-0.2,0v0c0.1,0,0.1,0,0.1-0.1c0,0,0.1-0.1,0.1-0.1C195.7,485.1,195.7,485.1,195.7,485L195.7,485z"/>
<path class="st37" d="M197.8,484.5L197.8,484.5c-0.1,0.1-0.1,0.1-0.1,0.1c0,0,0,0,0,0.1c0,0,0,0.1,0,0.2l0,1.3c0,0,0,0-0.1,0
	s0,0-0.1,0l-1.1-1.3l0,0.9c0,0.1,0,0.1,0,0.2c0,0,0,0.1,0.1,0.1c0,0,0.1,0,0.2,0l0,0c0,0-0.1,0-0.1,0c0,0-0.1,0-0.1,0
	c0,0-0.1,0-0.1,0c0,0-0.1,0-0.1,0v0c0.1,0,0.1,0,0.1,0c0,0,0-0.1,0-0.1c0,0,0-0.1,0-0.2l0-1.1c0-0.1,0-0.1,0-0.1c0,0,0,0-0.1-0.1
	c0,0-0.1,0-0.1,0l0,0c0,0,0.1,0,0.1,0c0,0,0.1,0,0.1,0c0,0,0.1,0,0.1,0c0,0,0.1,0,0.1,0l0.9,1.1l0-0.7c0-0.1,0-0.2,0-0.2
	c0,0,0-0.1-0.1-0.1c0,0-0.1,0-0.2,0l0,0c0,0,0.1,0,0.1,0c0.1,0,0.1,0,0.1,0C197.6,484.5,197.7,484.5,197.8,484.5
	C197.7,484.5,197.8,484.5,197.8,484.5z"/>
<path class="st37" d="M199.4,484.4c0,0.1,0,0.2,0,0.2c0,0.1,0,0.1,0,0.2c0,0,0,0.1,0,0.1c0,0,0,0.1,0,0.1h-0.1
	c0-0.1-0.1-0.2-0.1-0.3c0-0.1-0.1-0.1-0.1-0.2c-0.1,0-0.1,0-0.2,0h-0.1l0,1.3c0,0.1,0,0.1,0,0.1c0,0,0,0,0.1,0.1c0,0,0.1,0,0.2,0
	l0,0c-0.1,0-0.1,0-0.2,0c-0.1,0-0.2,0-0.3,0c-0.1,0-0.2,0-0.2,0c-0.1,0-0.1,0-0.2,0v0c0.1,0,0.1,0,0.2,0c0,0,0.1,0,0.1-0.1
	c0,0,0-0.1,0-0.1l0-1.3h-0.1c-0.1,0-0.1,0-0.2,0.1c-0.1,0-0.1,0.1-0.1,0.2c0,0.1-0.1,0.2-0.1,0.3l-0.1,0c0,0,0,0,0-0.1
	c0,0,0-0.1,0-0.1c0,0,0-0.1,0-0.2c0-0.1,0-0.2,0-0.2c0.1,0,0.2,0,0.2,0c0.1,0,0.2,0,0.3,0c0.1,0,0.2,0,0.2,0c0.1,0,0.1,0,0.2,0
	c0.1,0,0.2,0,0.3,0C199.2,484.4,199.3,484.4,199.4,484.4z"/>
<path class="st37" d="M201.3,484.4c0.3,0,0.5,0.1,0.7,0.2c0.2,0.1,0.2,0.3,0.2,0.6c0,0.2,0,0.3-0.1,0.4c-0.1,0.1-0.2,0.2-0.3,0.3
	c-0.1,0.1-0.3,0.1-0.5,0.1c0,0-0.1,0-0.2,0c-0.1,0-0.1,0-0.2,0c-0.1,0-0.1,0-0.2,0c-0.1,0-0.1,0-0.2,0l0,0c0.1,0,0.1,0,0.1,0
	c0,0,0,0,0-0.1c0,0,0-0.1,0-0.1l0-1.2c0-0.1,0-0.1,0-0.1c0,0,0,0-0.1-0.1s-0.1,0-0.1,0v0c0,0,0.1,0,0.2,0c0.1,0,0.1,0,0.2,0
	c0.1,0,0.1,0,0.2,0C201.2,484.4,201.2,484.4,201.3,484.4z M201.3,484.5c-0.1,0-0.1,0-0.1,0c0,0,0,0.1,0,0.2l0,1.2c0,0.1,0,0.1,0,0.2
	c0,0,0.1,0,0.1,0c0.1,0,0.2,0,0.3-0.1c0.1-0.1,0.1-0.2,0.2-0.3c0-0.1,0-0.3,0-0.4c0-0.3,0-0.5-0.1-0.6
	C201.6,484.5,201.5,484.4,201.3,484.5z"/>
<path class="st37" d="M203.1,484.4l0.6,1.5c0,0.1,0,0.1,0.1,0.1c0,0,0.1,0,0.1,0l0,0c0,0-0.1,0-0.2,0c-0.1,0-0.1,0-0.2,0
	c-0.1,0-0.1,0-0.2,0c-0.1,0-0.1,0-0.2,0l0,0c0.1,0,0.1,0,0.2,0c0,0,0-0.1,0-0.2l-0.4-1.1l0-0.1l-0.3,0.9c0,0.1-0.1,0.2-0.1,0.3
	c0,0.1,0,0.1,0.1,0.1c0,0,0.1,0,0.2,0v0c-0.1,0-0.1,0-0.1,0c0,0-0.1,0-0.1,0c0,0-0.1,0-0.1,0c0,0-0.1,0-0.1,0v0c0,0,0.1,0,0.1-0.1
	c0,0,0.1-0.1,0.1-0.2l0.5-1.4C203,484.4,203,484.4,203.1,484.4C203,484.4,203.1,484.4,203.1,484.4z M203.3,485.4L203.3,485.4
	l-0.7,0.1l0,0L203.3,485.4z"/>
<path class="st37" d="M205.3,484.4L205.3,484.4c0,0.1-0.1,0.1-0.1,0.1c0,0-0.1,0.1-0.1,0.2l-0.5,1.3c0,0,0,0,0,0c0,0,0,0,0,0
	c0,0,0,0,0,0c0,0,0,0,0,0l-0.6-1.5c0-0.1,0-0.1-0.1-0.1c0,0,0,0-0.1,0l0,0c0,0,0.1,0,0.2,0c0.1,0,0.1,0,0.2,0c0.1,0,0.1,0,0.2,0
	c0.1,0,0.1,0,0.2,0l0,0c-0.1,0-0.1,0-0.2,0c0,0,0,0.1,0,0.2l0.4,1.1l-0.1,0.1l0.3-0.9c0-0.1,0.1-0.2,0.1-0.3c0-0.1,0-0.1-0.1-0.1
	c0,0-0.1,0-0.1,0v0c0.1,0,0.1,0,0.1,0c0,0,0.1,0,0.1,0C205.1,484.4,205.2,484.4,205.3,484.4C205.2,484.4,205.3,484.4,205.3,484.4z"
	/>
<path class="st37" d="M206.1,484.4L206.1,484.4c-0.1,0-0.1,0.1-0.1,0.1c0,0,0,0-0.1,0.1c0,0,0,0.1,0,0.1l0,1.2c0,0,0,0.1,0,0.1
	c0,0,0,0,0,0c0,0,0.1,0,0.1,0l0.1,0c0.1,0,0.1,0,0.2-0.1c0.1,0,0.1-0.1,0.1-0.2c0-0.1,0.1-0.2,0.1-0.3h0.1c0,0.1,0,0.1,0,0.2
	c0,0,0,0.1,0,0.2c0,0.1,0,0.1,0,0.2c-0.1,0-0.2,0-0.3,0c-0.1,0-0.2,0-0.3,0c-0.1,0-0.1,0-0.2,0c-0.1,0-0.2,0-0.3,0
	c-0.1,0-0.2,0-0.3,0l0,0c0.1,0,0.1,0,0.1,0c0,0,0,0,0-0.1c0,0,0-0.1,0-0.1l0-1.2c0-0.1,0-0.1,0-0.1c0,0,0,0-0.1-0.1c0,0-0.1,0-0.1,0
	l0,0c0,0,0.1,0,0.2,0c0.1,0,0.1,0,0.2,0c0.1,0,0.1,0,0.2,0C206,484.4,206,484.4,206.1,484.4z"/>
<path class="st37" d="M207.6,484.4l0.6,1.5c0,0.1,0,0.1,0.1,0.1c0,0,0.1,0,0.1,0v0c0,0-0.1,0-0.2,0c-0.1,0-0.1,0-0.2,0
	c-0.1,0-0.1,0-0.2,0c-0.1,0-0.1,0-0.2,0l0,0c0.1,0,0.1,0,0.1,0c0,0,0-0.1,0-0.2l-0.4-1.1l0-0.1l-0.4,0.9c0,0.1-0.1,0.2-0.1,0.3
	c0,0.1,0,0.1,0.1,0.1c0,0,0.1,0,0.2,0v0c-0.1,0-0.1,0-0.1,0c0,0-0.1,0-0.1,0c0,0-0.1,0-0.1,0c0,0-0.1,0-0.1,0v0c0,0,0.1,0,0.1-0.1
	c0,0,0.1-0.1,0.1-0.2l0.5-1.4C207.4,484.4,207.5,484.4,207.6,484.4C207.5,484.4,207.5,484.4,207.6,484.4z M207.7,485.4L207.7,485.4
	l-0.7,0l0,0L207.7,485.4z"/>
<path class="st37" d="M209.6,484.4c0,0.1,0,0.2,0,0.2c0,0.1,0,0.1,0,0.2c0,0,0,0.1,0,0.1c0,0,0,0.1,0,0.1l-0.1,0
	c0-0.1-0.1-0.2-0.1-0.3c0-0.1-0.1-0.1-0.1-0.2c-0.1,0-0.1,0-0.2,0h-0.1l0,1.3c0,0.1,0,0.1,0,0.1c0,0,0,0.1,0.1,0.1c0,0,0.1,0,0.2,0
	l0,0c-0.1,0-0.1,0-0.2,0c-0.1,0-0.2,0-0.3,0c-0.1,0-0.2,0-0.2,0c-0.1,0-0.1,0-0.2,0l0,0c0.1,0,0.1,0,0.2,0c0,0,0.1,0,0.1-0.1
	c0,0,0-0.1,0-0.1l0-1.3h-0.1c-0.1,0-0.1,0-0.2,0c-0.1,0-0.1,0.1-0.1,0.2c0,0.1-0.1,0.2-0.1,0.3l-0.1,0c0,0,0,0,0-0.1
	c0,0,0-0.1,0-0.1c0,0,0-0.1,0-0.2c0-0.1,0-0.1,0-0.2c0.1,0,0.1,0,0.2,0c0.1,0,0.2,0,0.3,0c0.1,0,0.2,0,0.2,0c0.1,0,0.2,0,0.2,0
	c0.1,0,0.2,0,0.3,0C209.5,484.4,209.6,484.4,209.6,484.4z"/>
<path class="st37" d="M239.3,485.1c0,0.1,0,0.1,0,0.2c0,0.1,0,0.1,0,0.1c0,0,0,0.1,0,0.1c0,0,0,0.1,0,0.1h-0.1c0-0.1,0-0.2-0.1-0.3
	c0-0.1-0.1-0.1-0.1-0.1c-0.1,0-0.1,0-0.2,0h-0.1l0,1.2c0,0.1,0,0.1,0,0.1c0,0,0,0,0.1,0.1c0,0,0.1,0,0.2,0l0,0c0,0-0.1,0-0.2,0
	c-0.1,0-0.2,0-0.3,0c-0.1,0-0.2,0-0.2,0c-0.1,0-0.1,0-0.2,0v0c0.1,0,0.1,0,0.2,0c0,0,0.1,0,0.1-0.1c0,0,0-0.1,0-0.1l0-1.2h-0.1
	c-0.1,0-0.1,0-0.2,0c-0.1,0-0.1,0.1-0.1,0.1c0,0.1-0.1,0.2-0.1,0.3l-0.1,0c0,0,0,0,0-0.1c0,0,0-0.1,0-0.1c0,0,0-0.1,0-0.1
	c0-0.1,0-0.1,0-0.2c0.1,0,0.1,0,0.2,0c0.1,0,0.2,0,0.3,0c0.1,0,0.2,0,0.2,0c0.1,0,0.1,0,0.2,0c0.1,0,0.2,0,0.3,0
	C239.1,485.1,239.2,485.1,239.3,485.1z"/>
<path class="st37" d="M240,485.2l0.5,1.3c0,0,0,0.1,0.1,0.1c0,0,0.1,0,0.1,0l0,0c0,0-0.1,0-0.2,0c-0.1,0-0.1,0-0.2,0
	c-0.1,0-0.1,0-0.2,0c-0.1,0-0.1,0-0.2,0l0,0c0.1,0,0.1,0,0.1,0c0,0,0-0.1,0-0.1l-0.3-1l0-0.1l-0.4,0.8c0,0.1-0.1,0.2-0.1,0.2
	c0,0.1,0,0.1,0.1,0.1c0,0,0.1,0,0.1,0l0,0c-0.1,0-0.1,0-0.1,0c0,0-0.1,0-0.1,0c0,0-0.1,0-0.1,0c0,0-0.1,0-0.1,0l0,0
	c0,0,0.1,0,0.1-0.1c0,0,0.1-0.1,0.1-0.2l0.6-1.2C239.9,485.2,239.9,485.2,240,485.2C240,485.2,240,485.2,240,485.2z M240.2,486.1
	L240.2,486.1l-0.7,0l0,0L240.2,486.1z"/>
<path class="st37" d="M241.4,485.2c0.1,0,0.2,0,0.2,0c0.1,0,0.1,0,0.1,0.1c0,0,0,0,0,0c0,0,0,0,0,0c0,0,0,0,0.1-0.1l0.1,0
	c0,0,0,0.1,0,0.1c0,0,0,0.1,0,0.1c0,0.1,0,0.1,0,0.2l-0.1,0c0-0.1,0-0.1,0-0.2c0-0.1-0.1-0.1-0.1-0.2
	C241.6,485.3,241.5,485.3,241.4,485.2c0,0-0.1,0.1-0.1,0.1c-0.1,0-0.1,0.1-0.1,0.2c0,0.1,0,0.1,0,0.1c0,0,0.1,0.1,0.1,0.1
	c0.1,0,0.1,0.1,0.2,0.1c0.1,0,0.1,0.1,0.2,0.1c0.1,0,0.1,0.1,0.1,0.2c0,0.1,0,0.1,0,0.2c0,0.1,0,0.2-0.1,0.2
	c-0.1,0.1-0.1,0.1-0.2,0.1s-0.2,0-0.3,0c-0.1,0-0.2,0-0.2,0c-0.1,0-0.1,0-0.1-0.1c0,0-0.1,0-0.1,0c0,0,0,0-0.1,0.1l-0.1,0
	c0,0,0-0.1,0-0.1c0,0,0-0.1,0-0.2c0-0.1,0-0.2,0-0.3l0.1,0c0,0.1,0,0.2,0,0.3c0,0.1,0.1,0.1,0.1,0.2c0.1,0.1,0.1,0.1,0.2,0.1
	c0.1,0,0.1,0,0.2,0c0.1,0,0.1-0.1,0.1-0.2c0-0.1,0-0.2-0.1-0.2c-0.1-0.1-0.1-0.1-0.2-0.2c-0.1,0-0.1-0.1-0.2-0.1
	c-0.1,0-0.1-0.1-0.1-0.2c0-0.1-0.1-0.1,0-0.2c0-0.1,0-0.2,0.1-0.2c0.1-0.1,0.1-0.1,0.2-0.1C241.2,485.2,241.3,485.2,241.4,485.2z"/>
<path class="st37" d="M242.1,486.8L242.1,486.8c0.1,0,0.1,0,0.1-0.1c0,0,0,0,0.1,0c0,0,0-0.1,0-0.1l0.1-1c0,0,0-0.1,0-0.1s0,0,0-0.1
	c0,0-0.1,0-0.1,0l0,0c0,0,0.1,0,0.2,0c0.1,0,0.1,0,0.2,0c0.1,0,0.1,0,0.2,0c0.1,0,0.1,0,0.2,0l0,0c-0.1,0-0.1,0-0.1,0s0,0-0.1,0
	c0,0,0,0.1,0,0.1l-0.1,1c0,0,0,0.1,0,0.1c0,0,0,0,0,0.1c0,0,0.1,0,0.1,0l0,0c0,0-0.1,0-0.2,0c-0.1,0-0.1,0-0.2,0c-0.1,0-0.1,0-0.2,0
	C242.2,486.8,242.1,486.8,242.1,486.8z M242.5,486L242.5,486l0.9,0l0,0L242.5,486z M243.1,486.8L243.1,486.8c0.1,0,0.1,0,0.1-0.1
	c0,0,0,0,0.1,0c0,0,0-0.1,0-0.1l0.1-1c0-0.1,0-0.1,0-0.1c0,0,0,0,0-0.1c0,0-0.1,0-0.1,0l0,0c0,0,0.1,0,0.2,0c0.1,0,0.1,0,0.2,0
	c0.1,0,0.1,0,0.2,0c0.1,0,0.1,0,0.1,0l0,0c-0.1,0-0.1,0-0.1,0c0,0,0,0-0.1,0c0,0,0,0.1,0,0.1l-0.1,1c0,0.1,0,0.1,0,0.1
	c0,0,0,0,0,0.1c0,0,0.1,0,0.1,0l0,0c0,0-0.1,0-0.1,0c-0.1,0-0.1,0-0.2,0c-0.1,0-0.1,0-0.2,0C243.2,486.8,243.1,486.8,243.1,486.8z"
	/>
<path class="st37" d="M244.7,485.4L244.7,485.4c-0.1,0-0.1,0-0.1,0.1c0,0,0,0-0.1,0c0,0,0,0.1,0,0.1l-0.1,1c0,0,0,0.1,0,0.1
	c0,0,0,0,0,0.1c0,0,0.1,0,0.1,0l0,0c0,0-0.1,0-0.2,0c-0.1,0-0.1,0-0.2,0c-0.1,0-0.1,0-0.2,0c-0.1,0-0.1,0-0.2,0l0,0
	c0.1,0,0.1,0,0.1,0c0,0,0,0,0.1,0c0,0,0-0.1,0-0.1l0.1-1c0-0.1,0-0.1,0-0.1c0,0,0,0,0-0.1c0,0-0.1,0-0.1,0l0,0c0,0,0.1,0,0.2,0
	c0.1,0,0.1,0,0.2,0c0.1,0,0.1,0,0.2,0C244.7,485.4,244.7,485.4,244.7,485.4z M245.5,485.5L245.5,485.5c-0.1,0.1-0.1,0.1-0.2,0.1
	c-0.1,0-0.1,0.1-0.2,0.1l-0.5,0.4l0.1-0.2l0.5,0.8c0,0,0,0.1,0.1,0.1c0,0,0.1,0,0.1,0.1l0,0c-0.1,0-0.1,0-0.2,0c-0.1,0-0.1,0-0.2,0
	c0,0-0.1,0-0.1,0c0,0-0.1,0-0.2,0l0,0c0.1,0,0.1,0,0.1,0c0,0,0,0,0-0.1l-0.3-0.5c0,0,0-0.1-0.1-0.1c0,0,0,0-0.1,0s0,0-0.1,0l0,0
	c0.1,0,0.1,0,0.2,0c0.1,0,0.1-0.1,0.2-0.1l0.1-0.1c0.1-0.1,0.1-0.1,0.1-0.2c0,0,0-0.1,0-0.1c0,0-0.1,0-0.1,0l0,0c0.1,0,0.1,0,0.2,0
	c0.1,0,0.1,0,0.2,0C245.4,485.4,245.5,485.5,245.5,485.5z"/>
<path class="st37" d="M246.9,485.5c0,0.1,0,0.1,0,0.2c0,0.1,0,0.1,0,0.1c0,0,0,0.1,0,0.1c0,0,0,0,0,0.1l-0.1,0c0-0.1,0-0.2-0.1-0.2
	c0-0.1-0.1-0.1-0.1-0.1c-0.1,0-0.1,0-0.2,0l-0.1,0c0,0-0.1,0-0.1,0c0,0,0,0,0,0c0,0,0,0,0,0.1l-0.1,1.1c0,0,0,0.1,0,0.1c0,0,0,0,0,0
	s0.1,0,0.1,0l0.1,0c0.1,0,0.1,0,0.2,0c0.1,0,0.1-0.1,0.1-0.1c0-0.1,0.1-0.2,0.1-0.3l0.1,0c0,0,0,0.1,0,0.2c0,0,0,0.1,0,0.1
	c0,0.1,0,0.1,0,0.2c-0.1,0-0.2,0-0.3,0c-0.1,0-0.2,0-0.3,0c-0.1,0-0.1,0-0.2,0c-0.1,0-0.2,0-0.3,0c-0.1,0-0.2,0-0.3,0l0,0
	c0.1,0,0.1,0,0.1,0c0,0,0,0,0.1,0c0,0,0-0.1,0-0.1l0.1-1c0,0,0-0.1,0-0.1c0,0,0,0,0-0.1c0,0-0.1,0-0.1,0l0,0c0.1,0,0.2,0,0.3,0
	c0.1,0,0.2,0,0.3,0c0.1,0,0.2,0,0.2,0c0.1,0,0.1,0,0.2,0C246.8,485.5,246.9,485.5,246.9,485.5z M246.5,486.2L246.5,486.2l-0.4,0l0,0
	L246.5,486.2z M246.6,486c0,0.1,0,0.1,0,0.2c0,0,0,0.1,0,0.1c0,0,0,0.1,0,0.1c0,0,0,0.1,0,0.2l-0.1,0c0,0,0-0.1,0-0.1
	c0,0,0-0.1-0.1-0.1c0,0-0.1,0-0.1,0l0,0c0.1,0,0.1,0,0.2,0c0,0,0.1-0.1,0.1-0.1C246.5,486,246.5,486,246.6,486L246.6,486z"/>
<path class="st37" d="M248.7,485.7L248.7,485.7c-0.1,0-0.1,0.1-0.1,0.1c0,0,0,0-0.1,0.1c0,0,0,0.1,0,0.2l-0.1,1.2c0,0,0,0-0.1,0
	c0,0,0,0-0.1,0l-0.9-1.2l-0.1,0.8c0,0.1,0,0.1,0,0.2c0,0,0,0.1,0.1,0.1c0,0,0.1,0,0.1,0l0,0c0,0-0.1,0-0.1,0c0,0-0.1,0-0.1,0
	c0,0-0.1,0-0.1,0c0,0-0.1,0-0.1,0l0,0c0,0,0.1,0,0.1,0c0,0,0,0,0.1-0.1c0,0,0-0.1,0-0.2l0.1-0.9c0,0,0-0.1,0-0.1c0,0,0,0,0-0.1
	c0,0-0.1,0-0.1,0l0,0c0,0,0.1,0,0.1,0c0,0,0.1,0,0.1,0c0,0,0.1,0,0.1,0c0,0,0.1,0,0.1,0l0.8,1.1l0.1-0.7c0-0.1,0-0.1,0-0.2
	c0,0,0-0.1-0.1-0.1c0,0-0.1,0-0.1,0l0,0c0,0,0.1,0,0.1,0c0.1,0,0.1,0,0.1,0C248.5,485.7,248.6,485.7,248.7,485.7
	C248.6,485.7,248.6,485.7,248.7,485.7z"/>
<path class="st37" d="M250.2,485.8c0,0.1,0,0.1,0,0.2c0,0.1,0,0.1,0,0.2c0,0,0,0.1,0,0.1c0,0,0,0.1,0,0.1l-0.1,0
	c0-0.1,0-0.2-0.1-0.3c0-0.1-0.1-0.1-0.1-0.2c-0.1,0-0.1-0.1-0.2-0.1l-0.1,0l-0.1,1.2c0,0.1,0,0.1,0,0.1s0,0,0.1,0.1c0,0,0.1,0,0.2,0
	l0,0c0,0-0.1,0-0.2,0c-0.1,0-0.2,0-0.2,0c-0.1,0-0.2,0-0.2,0c-0.1,0-0.1,0-0.2,0l0,0c0.1,0,0.1,0,0.2,0c0,0,0.1,0,0.1-0.1
	c0,0,0-0.1,0-0.1l0.1-1.2l-0.1,0c-0.1,0-0.1,0-0.2,0c-0.1,0-0.1,0.1-0.1,0.1c0,0.1-0.1,0.2-0.1,0.3l-0.1,0c0,0,0,0,0-0.1
	c0,0,0-0.1,0-0.1c0,0,0-0.1,0-0.2c0-0.1,0-0.1,0-0.2c0.1,0,0.1,0,0.2,0c0.1,0,0.2,0,0.2,0c0.1,0,0.2,0,0.2,0c0.1,0,0.1,0,0.2,0
	c0.1,0,0.2,0,0.3,0C250.1,485.8,250.2,485.8,250.2,485.8z"/>
<path class="st37" d="M252,485.9c0.1,0,0.2,0,0.2,0c0.1,0,0.1,0,0.1,0.1c0,0,0,0,0,0c0,0,0,0,0,0c0,0,0,0,0.1-0.1l0.1,0
	c0,0,0,0.1,0,0.1c0,0,0,0.1,0,0.1c0,0.1,0,0.1,0,0.2l-0.1,0c0-0.1,0-0.1,0-0.2c0-0.1-0.1-0.1-0.1-0.2C252.2,486,252.1,486,252,485.9
	c0,0.1-0.1,0.1-0.1,0.1c0,0-0.1,0.1-0.1,0.2c0,0.1,0,0.1,0,0.1c0,0,0.1,0.1,0.1,0.1c0.1,0,0.1,0.1,0.2,0.2c0.1,0.1,0.1,0.1,0.2,0.1
	c0.1,0,0.1,0.1,0.1,0.2c0,0.1,0,0.1,0,0.2c0,0.1,0,0.2-0.1,0.2c-0.1,0.1-0.1,0.1-0.2,0.1c-0.1,0-0.2,0-0.3,0c-0.1,0-0.2,0-0.2,0
	c-0.1,0-0.1,0-0.1-0.1c0,0-0.1,0-0.1,0c0,0,0,0-0.1,0.1l-0.1,0c0,0,0-0.1,0-0.1c0,0,0-0.1,0-0.2c0-0.1,0-0.2,0-0.3l0.1,0
	c0,0.1,0,0.2,0,0.3c0,0.1,0.1,0.1,0.1,0.2c0.1,0.1,0.1,0.1,0.2,0.1c0.1,0,0.1,0,0.2,0c0.1,0,0.1-0.1,0.1-0.2c0-0.1,0-0.2-0.1-0.2
	c-0.1-0.1-0.1-0.1-0.2-0.2c-0.1,0-0.1-0.1-0.2-0.1c-0.1,0-0.1-0.1-0.1-0.2c0-0.1,0-0.1,0-0.2c0-0.1,0-0.2,0.1-0.2
	c0.1-0.1,0.1-0.1,0.2-0.1C251.8,485.9,251.9,485.9,252,485.9z"/>
<path class="st37" d="M254.2,486.1c0,0.1,0,0.1,0,0.2c0,0.1,0,0.1,0,0.2c0,0,0,0.1,0,0.1c0,0,0,0.1,0,0.1l-0.1,0
	c0-0.1,0-0.2-0.1-0.3c0-0.1-0.1-0.1-0.1-0.2c-0.1,0-0.1-0.1-0.2-0.1l-0.1,0l-0.1,1.2c0,0.1,0,0.1,0,0.1c0,0,0,0,0.1,0.1
	c0,0,0.1,0,0.2,0l0,0c0,0-0.1,0-0.2,0c-0.1,0-0.2,0-0.2,0c-0.1,0-0.2,0-0.2,0c-0.1,0-0.1,0-0.2,0l0,0c0.1,0,0.1,0,0.2,0
	c0,0,0.1,0,0.1,0c0,0,0-0.1,0-0.1l0.1-1.2l-0.1,0c-0.1,0-0.1,0-0.2,0c-0.1,0-0.1,0.1-0.1,0.1c0,0.1-0.1,0.2-0.1,0.3l-0.1,0
	c0,0,0,0,0-0.1c0,0,0-0.1,0-0.1c0,0,0-0.1,0-0.2c0-0.1,0-0.1,0-0.2c0.1,0,0.1,0,0.2,0c0.1,0,0.2,0,0.2,0c0.1,0,0.2,0,0.2,0
	c0.1,0,0.1,0,0.2,0c0.1,0,0.2,0,0.2,0C254,486.1,254.1,486.1,254.2,486.1z"/>
<path class="st37" d="M254.9,486.2l0.4,1.4c0,0.1,0,0.1,0.1,0.1c0,0,0,0,0.1,0l0,0c0,0-0.1,0-0.2,0c-0.1,0-0.1,0-0.2,0
	c-0.1,0-0.1,0-0.2,0c-0.1,0-0.1,0-0.2,0l0,0c0.1,0,0.1,0,0.2,0s0-0.1,0-0.1l-0.3-1l0-0.1l-0.4,0.8c-0.1,0.1-0.1,0.2-0.1,0.2
	c0,0.1,0,0.1,0,0.1c0,0,0.1,0,0.1,0l0,0c-0.1,0-0.1,0-0.1,0c0,0-0.1,0-0.1,0c0,0-0.1,0-0.1,0c0,0-0.1,0-0.1,0l0,0c0,0,0.1,0,0.1,0
	c0,0,0.1-0.1,0.1-0.2l0.7-1.2C254.8,486.2,254.8,486.2,254.9,486.2C254.9,486.2,254.9,486.2,254.9,486.2z M255,487.1L255,487.1
	l-0.7,0l0,0L255,487.1z"/>
<path class="st37" d="M256.9,486.4c0,0.1,0,0.1,0,0.2c0,0.1,0,0.1,0,0.2c0,0,0,0.1,0,0.1c0,0,0,0.1,0,0.1l-0.1,0
	c0-0.1,0-0.2-0.1-0.3c0-0.1-0.1-0.1-0.1-0.2c0,0-0.1-0.1-0.2-0.1l-0.1,0l-0.1,1.2c0,0.1,0,0.1,0,0.1c0,0,0,0,0.1,0.1
	c0,0,0.1,0,0.1,0l0,0c0,0-0.1,0-0.2,0c-0.1,0-0.2,0-0.2,0c-0.1,0-0.2,0-0.2,0s-0.1,0-0.2,0l0,0c0.1,0,0.1,0,0.2,0c0,0,0.1,0,0.1,0
	c0,0,0-0.1,0-0.1l0.1-1.2l0,0c-0.1,0-0.1,0-0.2,0c-0.1,0-0.1,0.1-0.1,0.1c0,0.1-0.1,0.2-0.1,0.3l-0.1,0c0,0,0,0,0-0.1
	c0,0,0-0.1,0-0.1c0,0,0-0.1,0-0.1c0-0.1,0-0.1,0-0.2c0.1,0,0.1,0,0.2,0c0.1,0,0.2,0,0.2,0c0.1,0,0.2,0,0.2,0c0.1,0,0.1,0,0.2,0
	c0.1,0,0.2,0,0.2,0C256.8,486.4,256.9,486.4,256.9,486.4z"/>
<path class="st37" d="M258.3,486.5c0,0.1,0,0.1,0,0.2c0,0.1,0,0.1,0,0.1c0,0,0,0.1,0,0.1s0,0,0,0.1l-0.1,0c0-0.1,0-0.2,0-0.2
	c0-0.1-0.1-0.1-0.1-0.1c-0.1,0-0.1,0-0.2-0.1l-0.1,0c0,0-0.1,0-0.1,0c0,0,0,0,0,0c0,0,0,0,0,0.1l-0.1,1.1c0,0,0,0.1,0,0.1
	c0,0,0,0,0,0s0.1,0,0.1,0l0.1,0c0.1,0,0.1,0,0.2,0c0.1,0,0.1-0.1,0.2-0.1c0-0.1,0.1-0.1,0.1-0.3l0.1,0c0,0,0,0.1,0,0.2
	c0,0,0,0.1,0,0.1c0,0.1,0,0.1,0,0.2c-0.1,0-0.2,0-0.3,0c-0.1,0-0.2,0-0.3,0c-0.1,0-0.1,0-0.2,0c-0.1,0-0.2,0-0.3,0
	c-0.1,0-0.2,0-0.3,0l0,0c0,0,0.1,0,0.1,0c0,0,0,0,0.1,0c0,0,0-0.1,0-0.1l0.1-1c0,0,0-0.1,0-0.1c0,0,0,0,0-0.1c0,0-0.1,0-0.1,0l0,0
	c0.1,0,0.2,0,0.3,0c0.1,0,0.2,0,0.3,0c0.1,0,0.2,0,0.2,0c0.1,0,0.1,0,0.2,0C258.2,486.5,258.2,486.5,258.3,486.5z M257.9,487.2
	L257.9,487.2h-0.4l0,0L257.9,487.2z M258,486.9c0,0.1,0,0.1,0,0.2c0,0,0,0.1,0,0.1c0,0,0,0.1,0,0.1c0,0,0,0.1,0,0.2l-0.1,0
	c0-0.1,0-0.1,0-0.1c0,0,0-0.1-0.1-0.1c0,0-0.1,0-0.1-0.1l0,0c0.1,0,0.1,0,0.2,0c0,0,0.1-0.1,0.1-0.1C257.9,487,257.9,487,258,486.9
	L258,486.9z"/>
<path class="st37" d="M235.4,489L235.4,489C235.4,489,235.3,489,235.4,489c-0.1,0.1-0.1,0.1-0.1,0.2c0,0,0,0.1,0,0.2l0,0.5
	c0,0.1,0,0.2,0,0.2c0,0.1,0,0.1-0.1,0.2c0,0.1-0.1,0.1-0.1,0.1c-0.1,0-0.1,0-0.2,0c-0.1,0-0.1,0-0.2,0c-0.1,0-0.1,0-0.2-0.1
	c0,0-0.1-0.1-0.1-0.1c0,0,0-0.1,0-0.2c0-0.1,0-0.1,0-0.2l0-0.6c0,0,0-0.1,0-0.1c0,0,0,0,0,0c0,0-0.1,0-0.1,0v0c0,0,0.1,0,0.1,0
	c0.1,0,0.1,0,0.2,0c0.1,0,0.1,0,0.2,0c0.1,0,0.1,0,0.1,0v0c0,0-0.1,0-0.1,0c0,0,0,0,0,0c0,0,0,0.1,0,0.1l0,0.8c0,0.1,0,0.2,0,0.2
	c0,0.1,0,0.1,0.1,0.1c0,0,0.1,0,0.2,0c0.1,0,0.2,0,0.2-0.1c0,0,0.1-0.1,0.1-0.2c0-0.1,0-0.2,0-0.3l0-0.5c0-0.1,0-0.1,0-0.2
	s0-0.1-0.1-0.1c0,0-0.1,0-0.1,0v0c0,0,0.1,0,0.1,0c0,0,0.1,0,0.1,0C235.3,489,235.3,489,235.4,489C235.4,489,235.4,489,235.4,489z"
	/>
<path class="st37" d="M236.8,489L236.8,489C236.8,489,236.7,489,236.8,489c-0.1,0.1-0.1,0.1-0.1,0.2c0,0,0,0.1,0,0.2l0,1.1
	c0,0,0,0,0,0c0,0,0,0-0.1,0l-0.8-1.2l0,0.8c0,0.1,0,0.1,0,0.2c0,0,0,0.1,0.1,0.1c0,0,0.1,0,0.1,0l0,0c0,0-0.1,0-0.1,0
	c0,0-0.1,0-0.1,0c0,0-0.1,0-0.1,0c0,0-0.1,0-0.1,0v0c0,0,0.1,0,0.1,0c0,0,0,0,0-0.1c0,0,0-0.1,0-0.2l0-0.9c0,0,0-0.1,0-0.1
	c0,0,0,0,0,0c0,0-0.1,0-0.1,0v0c0,0,0,0,0.1,0c0,0,0.1,0,0.1,0c0,0,0.1,0,0.1,0c0,0,0.1,0,0.1,0l0.7,1l0-0.6c0-0.1,0-0.1,0-0.2
	c0,0,0-0.1-0.1-0.1c0,0-0.1,0-0.1,0v0c0,0,0.1,0,0.1,0c0,0,0.1,0,0.1,0C236.7,489,236.7,489,236.8,489
	C236.8,489,236.8,489,236.8,489z"/>
<path class="st37" d="M237.5,489L237.5,489C237.5,489.1,237.5,489.1,237.5,489c-0.1,0.1-0.1,0.1-0.1,0.1c0,0,0,0.1,0,0.1l0,1
	c0,0.1,0,0.1,0,0.1s0,0,0,0c0,0,0.1,0,0.1,0v0c0,0-0.1,0-0.1,0s-0.1,0-0.2,0c-0.1,0-0.1,0-0.2,0c-0.1,0-0.1,0-0.1,0l0,0
	c0,0,0.1,0,0.1,0c0,0,0,0,0,0c0,0,0-0.1,0-0.1l0-1c0,0,0-0.1,0-0.1c0,0,0,0,0-0.1c0,0-0.1,0-0.1,0v0c0,0,0.1,0,0.1,0
	c0.1,0,0.1,0,0.2,0c0.1,0,0.1,0,0.2,0C237.4,489,237.5,489,237.5,489z"/>
<path class="st37" d="M238.9,489.1L238.9,489.1c0,0.1-0.1,0.1-0.1,0.1c0,0-0.1,0.1-0.1,0.2l-0.4,1.2c0,0,0,0,0,0c0,0,0,0,0,0
	c0,0,0,0,0,0c0,0,0,0,0,0l-0.4-1.3c0-0.1,0-0.1-0.1-0.1c0,0,0,0-0.1,0l0,0c0,0,0.1,0,0.1,0c0.1,0,0.1,0,0.2,0c0.1,0,0.1,0,0.2,0
	c0.1,0,0.1,0,0.1,0l0,0c-0.1,0-0.1,0-0.1,0c0,0,0,0.1,0,0.1l0.3,1l0,0.1l0.3-0.8c0-0.1,0.1-0.2,0.1-0.2c0-0.1,0-0.1,0-0.1
	c0,0-0.1,0-0.1,0v0c0,0,0.1,0,0.1,0c0,0,0.1,0,0.1,0C238.8,489.1,238.8,489.1,238.9,489.1C238.9,489.1,238.9,489.1,238.9,489.1z"/>
<path class="st37" d="M240,489.1c0,0.1,0,0.1,0,0.2c0,0.1,0,0.1,0,0.1c0,0,0,0.1,0,0.1s0,0,0,0.1l0,0c0-0.1,0-0.2-0.1-0.2
	c0-0.1-0.1-0.1-0.1-0.1c0,0-0.1,0-0.1,0l-0.1,0c0,0-0.1,0-0.1,0c0,0,0,0,0,0c0,0,0,0.1,0,0.1l0,1.1c0,0,0,0.1,0,0.1c0,0,0,0,0,0
	c0,0,0,0,0.1,0l0.1,0c0.1,0,0.1,0,0.2,0c0,0,0.1-0.1,0.1-0.1c0-0.1,0.1-0.1,0.1-0.3l0,0c0,0,0,0.1,0,0.2c0,0,0,0.1,0,0.1
	c0,0.1,0,0.1,0,0.2c-0.1,0-0.1,0-0.2,0c-0.1,0-0.2,0-0.2,0c0,0-0.1,0-0.2,0c-0.1,0-0.2,0-0.2,0s-0.2,0-0.2,0l0,0c0,0,0.1,0,0.1,0
	c0,0,0,0,0,0c0,0,0-0.1,0-0.1l0-1c0-0.1,0-0.1,0-0.1c0,0,0,0,0-0.1s-0.1,0-0.1,0l0,0c0.1,0,0.1,0,0.2,0c0.1,0,0.2,0,0.2,0
	c0.1,0,0.1,0,0.2,0c0.1,0,0.1,0,0.2,0C239.9,489.1,239.9,489.1,240,489.1z M239.7,489.8L239.7,489.8l-0.3,0l0,0L239.7,489.8z
	 M239.7,489.5c0,0.1,0,0.1,0,0.2c0,0,0,0.1,0,0.1c0,0,0,0.1,0,0.1c0,0,0,0.1,0,0.2l0,0c0,0,0-0.1,0-0.1c0,0,0-0.1-0.1-0.1
	c0,0-0.1,0-0.1,0l0,0c0.1,0,0.1,0,0.1,0c0,0,0.1-0.1,0.1-0.1C239.7,489.6,239.7,489.6,239.7,489.5L239.7,489.5z"/>
<path class="st37" d="M240.2,489.1c0,0,0.1,0,0.1,0c0.1,0,0.1,0,0.2,0c0.1,0,0.1,0,0.2,0c0.1,0,0.1,0,0.1,0c0.2,0,0.3,0,0.4,0.1
	c0.1,0.1,0.1,0.2,0.1,0.3c0,0,0,0.1,0,0.1c0,0-0.1,0.1-0.1,0.1c0,0-0.1,0.1-0.2,0.1c-0.1,0-0.2,0-0.3,0l-0.2,0l0,0l0.2,0
	c0.1,0,0.1,0,0.2,0c0,0,0.1-0.1,0.1-0.1c0-0.1,0-0.1,0-0.2c0-0.1,0-0.2,0-0.3c0-0.1-0.1-0.1-0.2-0.1c-0.1,0-0.1,0-0.1,0
	c0,0,0,0.1,0,0.1l0,1c0,0.1,0,0.1,0,0.1c0,0,0,0,0,0c0,0,0.1,0,0.1,0l0,0c0,0-0.1,0-0.1,0c-0.1,0-0.1,0-0.2,0c-0.1,0-0.1,0-0.2,0
	c-0.1,0-0.1,0-0.1,0l0,0c0,0,0.1,0,0.1,0c0,0,0,0,0,0c0,0,0-0.1,0-0.1l0-1c0-0.1,0-0.1,0-0.1C240.3,489.2,240.3,489.2,240.2,489.1
	C240.3,489.2,240.2,489.2,240.2,489.1L240.2,489.1z M240.5,489.9c0.1,0,0.1,0,0.1,0c0,0,0.1,0,0.1,0c0,0,0.1,0,0.1,0
	c0.1,0,0.2,0,0.3,0.1c0.1,0,0.1,0.1,0.1,0.2l0,0.2c0,0.1,0,0.1,0,0.1c0,0,0,0,0.1,0c0,0,0,0,0,0c0,0,0,0,0,0l0,0
	c0,0-0.1,0.1-0.1,0.1c0,0-0.1,0-0.1,0c-0.1,0-0.1,0-0.2-0.1c0,0-0.1-0.1-0.1-0.2l0-0.2c0-0.1,0-0.1,0-0.2c0,0,0-0.1,0-0.1
	c0,0,0,0-0.1,0L240.5,489.9L240.5,489.9z"/>
<path class="st37" d="M242,489.2c0.1,0,0.1,0,0.2,0c0,0,0.1,0,0.1,0.1c0,0,0,0,0,0c0,0,0,0,0,0c0,0,0,0,0-0.1l0,0c0,0,0,0.1,0,0.1
	c0,0,0,0.1,0,0.1c0,0.1,0,0.1,0,0.2l0,0c0-0.1,0-0.1,0-0.2c0-0.1-0.1-0.1-0.1-0.2C242.2,489.3,242.1,489.3,242,489.2
	c0,0.1-0.1,0.1-0.1,0.1c0,0-0.1,0.1-0.1,0.2c0,0.1,0,0.1,0,0.1c0,0,0.1,0.1,0.1,0.1c0,0,0.1,0.1,0.2,0.1c0.1,0,0.1,0.1,0.2,0.1
	c0,0,0.1,0.1,0.1,0.1c0,0.1,0,0.1,0,0.2c0,0.1,0,0.2-0.1,0.2c0,0.1-0.1,0.1-0.2,0.1c-0.1,0-0.2,0-0.2,0c-0.1,0-0.1,0-0.2,0
	c0,0-0.1,0-0.1-0.1c0,0-0.1,0-0.1,0c0,0,0,0,0,0.1l0,0c0,0,0-0.1,0-0.1c0,0,0-0.1,0-0.2c0-0.1,0-0.2,0-0.3l0,0c0,0.1,0,0.2,0,0.3
	c0,0.1,0.1,0.1,0.1,0.2c0,0,0.1,0.1,0.2,0.1c0.1,0,0.1,0,0.2,0c0.1,0,0.1-0.1,0.1-0.2c0-0.1,0-0.2-0.1-0.2c-0.1-0.1-0.1-0.1-0.2-0.2
	c-0.1,0-0.1-0.1-0.2-0.1c0,0-0.1-0.1-0.1-0.2c0-0.1,0-0.1,0-0.2c0-0.1,0-0.2,0.1-0.2c0-0.1,0.1-0.1,0.2-0.1
	C241.9,489.2,241.9,489.2,242,489.2z"/>
<path class="st37" d="M243.3,489.3L243.3,489.3C243.2,489.4,243.2,489.4,243.3,489.3c-0.1,0.1-0.1,0.1-0.1,0.1c0,0,0,0.1,0,0.1
	l-0.1,1c0,0,0,0.1,0,0.1c0,0,0,0,0,0.1c0,0,0.1,0,0.1,0l0,0c0,0-0.1,0-0.1,0c-0.1,0-0.1,0-0.2,0c-0.1,0-0.1,0-0.2,0
	c-0.1,0-0.1,0-0.1,0l0,0c0,0,0.1,0,0.1,0c0,0,0,0,0,0c0,0,0-0.1,0-0.1l0.1-1c0-0.1,0-0.1,0-0.1c0,0,0,0,0-0.1c0,0-0.1,0-0.1,0l0,0
	c0,0,0.1,0,0.1,0c0.1,0,0.1,0,0.2,0c0.1,0,0.1,0,0.2,0C243.2,489.3,243.2,489.3,243.3,489.3z"/>
<path class="st37" d="M244.6,489.4c0,0.1,0,0.1,0,0.2c0,0.1,0,0.1,0,0.1c0,0,0,0.1,0,0.1c0,0,0,0.1,0,0.1l0,0c0-0.1,0-0.2-0.1-0.3
	c0-0.1-0.1-0.1-0.1-0.1c0,0-0.1,0-0.2-0.1l0,0l-0.1,1.2c0,0.1,0,0.1,0,0.1c0,0,0,0,0.1,0.1c0,0,0.1,0,0.1,0l0,0c0,0-0.1,0-0.2,0
	c-0.1,0-0.1,0-0.2,0c-0.1,0-0.1,0-0.2,0c-0.1,0-0.1,0-0.2,0l0,0c0.1,0,0.1,0,0.1,0c0,0,0.1,0,0.1-0.1c0,0,0-0.1,0-0.1l0.1-1.2l0,0
	c-0.1,0-0.1,0-0.2,0c0,0-0.1,0.1-0.1,0.1c0,0.1-0.1,0.2-0.1,0.3l0,0c0,0,0,0,0-0.1c0,0,0-0.1,0-0.1c0,0,0-0.1,0-0.1
	c0-0.1,0-0.1,0-0.2c0.1,0,0.1,0,0.2,0c0.1,0,0.1,0,0.2,0c0.1,0,0.1,0,0.2,0c0.1,0,0.1,0,0.2,0c0.1,0,0.1,0,0.2,0
	C244.4,489.4,244.5,489.4,244.6,489.4z"/>
<path class="st37" d="M245.8,489.5L245.8,489.5c0,0.1-0.1,0.1-0.1,0.1c0,0-0.1,0.1-0.1,0.2l-0.4,0.7l-0.1,0l-0.4-0.9
	c0-0.1,0-0.1-0.1-0.1c0,0,0,0,0,0l0,0c0,0,0.1,0,0.1,0c0,0,0.1,0,0.1,0c0.1,0,0.1,0,0.2,0c0.1,0,0.1,0,0.2,0l0,0c0,0-0.1,0-0.1,0
	c0,0,0,0-0.1,0c0,0,0,0,0,0.1l0.3,0.6l-0.1,0.1l0.2-0.4c0.1-0.1,0.1-0.2,0.1-0.2c0-0.1,0-0.1,0-0.1c0,0-0.1,0-0.1,0l0,0
	c0,0,0.1,0,0.1,0c0,0,0.1,0,0.1,0C245.7,489.5,245.7,489.5,245.8,489.5C245.8,489.5,245.8,489.5,245.8,489.5z M245.4,490.2l0,0.5
	c0,0,0,0.1,0,0.1c0,0,0,0,0,0.1c0,0,0.1,0,0.1,0l0,0c0,0-0.1,0-0.1,0s-0.1,0-0.2,0c-0.1,0-0.1,0-0.2,0c-0.1,0-0.1,0-0.1,0l0,0
	c0,0,0.1,0,0.1,0c0,0,0,0,0,0c0,0,0-0.1,0-0.1l0-0.4l0.2,0.1L245.4,490.2z"/>
<path class="st37" d="M247,489.6c0.1,0,0.3,0.1,0.4,0.1c0.1,0.1,0.2,0.2,0.2,0.3c0,0.1,0.1,0.2,0.1,0.4c0,0.2-0.1,0.3-0.1,0.4
	c-0.1,0.1-0.2,0.2-0.3,0.2s-0.2,0.1-0.4,0.1c-0.1,0-0.3-0.1-0.4-0.1c-0.1-0.1-0.2-0.2-0.2-0.3c0-0.1-0.1-0.2-0.1-0.4
	c0-0.2,0.1-0.3,0.1-0.4c0.1-0.1,0.2-0.2,0.3-0.2C246.7,489.6,246.9,489.6,247,489.6z M247,489.6c-0.1,0-0.1,0-0.2,0.1
	c-0.1,0.1-0.1,0.1-0.1,0.2c0,0.1-0.1,0.2-0.1,0.4c0,0.1,0,0.3,0,0.4c0,0.1,0.1,0.2,0.1,0.3c0.1,0.1,0.1,0.1,0.2,0.1
	c0.1,0,0.1,0,0.2-0.1c0.1-0.1,0.1-0.1,0.1-0.2c0-0.1,0.1-0.2,0.1-0.4c0-0.1,0-0.3,0-0.4c0-0.1-0.1-0.2-0.1-0.3
	C247.1,489.6,247.1,489.6,247,489.6z"/>
<path class="st37" d="M248.8,489.8c0,0.1,0,0.1,0,0.2c0,0.1,0,0.1,0,0.1c0,0,0,0.1,0,0.1s0,0,0,0.1l0,0c0-0.1,0-0.2,0-0.3
	c0-0.1-0.1-0.1-0.1-0.1c0,0-0.1,0-0.1-0.1l-0.1,0c0,0-0.1,0-0.1,0c0,0,0,0,0,0c0,0,0,0.1,0,0.1l-0.1,1c0,0.1,0,0.1,0,0.1
	c0,0,0,0,0.1,0.1c0,0,0.1,0,0.1,0l0,0c0,0-0.1,0-0.2,0c-0.1,0-0.1,0-0.2,0c-0.1,0-0.1,0-0.2,0c-0.1,0-0.1,0-0.1,0l0,0
	c0,0,0.1,0,0.1,0c0,0,0,0,0,0c0,0,0-0.1,0-0.1l0.1-1c0,0,0-0.1,0-0.1c0,0,0,0,0-0.1c0,0-0.1,0-0.1,0l0,0c0.1,0,0.1,0,0.2,0
	c0.1,0,0.2,0,0.2,0c0.1,0,0.1,0,0.2,0c0.1,0,0.1,0,0.2,0C248.7,489.8,248.8,489.8,248.8,489.8z M248.5,490.4L248.5,490.4l-0.4,0l0,0
	L248.5,490.4z M248.6,490.2c0,0.1,0,0.1,0,0.2c0,0,0,0.1,0,0.1c0,0,0,0.1,0,0.1c0,0,0,0.1,0,0.2l0,0c0-0.1,0-0.1,0-0.1
	c0,0,0-0.1-0.1-0.1c0,0-0.1,0-0.1,0l0,0c0.1,0,0.1,0,0.1,0c0,0,0.1-0.1,0.1-0.1C248.5,490.2,248.5,490.2,248.6,490.2L248.6,490.2z"
	/>
<path class="st37" d="M250.4,489.9c0,0.1,0,0.1,0,0.2c0,0.1,0,0.1,0,0.1c0,0,0,0.1,0,0.1c0,0,0,0,0,0.1l0,0c0-0.1,0-0.2,0-0.2
	c0-0.1-0.1-0.1-0.1-0.1c0,0-0.1,0-0.1-0.1l-0.1,0c0,0-0.1,0-0.1,0s0,0,0,0c0,0,0,0.1,0,0.1l-0.1,1.1c0,0,0,0.1,0,0.1c0,0,0,0,0,0
	c0,0,0,0,0.1,0l0.1,0c0.1,0,0.1,0,0.2,0c0,0,0.1-0.1,0.1-0.1c0-0.1,0.1-0.1,0.1-0.3l0,0c0,0,0,0.1,0,0.2c0,0,0,0.1,0,0.1
	c0,0.1,0,0.1,0,0.2c-0.1,0-0.1,0-0.2,0c-0.1,0-0.2,0-0.2,0c0,0-0.1,0-0.2,0c-0.1,0-0.2,0-0.2,0c-0.1,0-0.2,0-0.2,0l0,0
	c0,0,0.1,0,0.1,0c0,0,0,0,0,0c0,0,0-0.1,0-0.1l0.1-1c0,0,0-0.1,0-0.1c0,0,0,0,0-0.1c0,0-0.1,0-0.1,0l0,0c0.1,0,0.1,0,0.2,0
	c0.1,0,0.2,0,0.2,0c0.1,0,0.1,0,0.2,0c0.1,0,0.1,0,0.2,0C250.3,489.9,250.3,489.9,250.4,489.9z M250,490.6L250,490.6l-0.3,0l0,0
	L250,490.6z M250.1,490.3c0,0.1,0,0.1,0,0.2c0,0,0,0.1,0,0.1c0,0,0,0.1,0,0.1s0,0.1,0,0.2l0,0c0,0,0-0.1,0-0.1c0,0,0-0.1-0.1-0.1
	c0,0-0.1,0-0.1,0l0,0c0.1,0,0.1,0,0.1,0c0,0,0.1-0.1,0.1-0.1C250,490.4,250.1,490.3,250.1,490.3L250.1,490.3z"/>
<path class="st37" d="M251.3,490c0.1,0,0.2,0,0.2,0.1c0.1,0,0.1,0.1,0.1,0.1c0,0,0,0,0.1,0c0,0,0,0,0-0.1l0,0c0,0.1,0,0.1,0,0.2
	c0,0.1,0,0.2,0,0.3l0,0c0-0.1,0-0.1,0-0.2c0,0,0-0.1,0-0.1c0,0,0-0.1-0.1-0.1c0,0-0.1-0.1-0.1-0.1C251.4,490.1,251.4,490,251.3,490
	c0,0.1-0.1,0.1-0.1,0.1c-0.1,0-0.1,0.1-0.1,0.1s-0.1,0.1-0.1,0.2c0,0.1,0,0.2,0,0.3c0,0.1,0,0.2,0,0.3c0,0.1,0,0.2,0,0.2
	c0,0.1,0.1,0.1,0.1,0.2c0.1,0,0.1,0.1,0.2,0.1c0,0,0.1,0,0.1,0c0,0,0.1,0,0.1-0.1c0.1,0,0.1-0.1,0.1-0.1c0-0.1,0-0.1,0.1-0.2l0,0
	c0,0.1,0,0.2,0,0.3c0,0.1,0,0.1,0,0.2l0,0c0-0.1,0-0.1,0-0.1c0,0,0,0-0.1,0c-0.1,0-0.1,0.1-0.2,0.1c-0.1,0-0.1,0-0.2,0
	c-0.1,0-0.3-0.1-0.4-0.1c-0.1-0.1-0.2-0.2-0.2-0.3c0-0.1-0.1-0.3,0-0.4c0-0.2,0.1-0.3,0.1-0.4c0.1-0.1,0.2-0.2,0.3-0.2
	C251,490,251.2,490,251.3,490z"/>
<path class="st37" d="M252.7,490.1c0.1,0,0.3,0.1,0.3,0.1c0.1,0.1,0.2,0.2,0.2,0.3c0,0.1,0.1,0.3,0,0.4c0,0.2-0.1,0.3-0.1,0.4
	c-0.1,0.1-0.2,0.2-0.3,0.2c-0.1,0.1-0.2,0.1-0.4,0.1c-0.1,0-0.2-0.1-0.3-0.1c-0.1-0.1-0.2-0.2-0.2-0.3c0-0.1-0.1-0.3,0-0.4
	c0-0.2,0.1-0.3,0.1-0.4c0.1-0.1,0.2-0.2,0.3-0.2C252.4,490.1,252.5,490.1,252.7,490.1z M252.6,490.2c-0.1,0-0.1,0-0.2,0.1
	c-0.1,0.1-0.1,0.1-0.1,0.2c0,0.1-0.1,0.2-0.1,0.4c0,0.1,0,0.3,0,0.4c0,0.1,0.1,0.2,0.1,0.3c0.1,0.1,0.1,0.1,0.2,0.1
	c0.1,0,0.1,0,0.2-0.1c0.1-0.1,0.1-0.1,0.1-0.2c0-0.1,0.1-0.2,0.1-0.4c0-0.1,0-0.3,0-0.4c0-0.1-0.1-0.2-0.1-0.3
	C252.8,490.2,252.7,490.2,252.6,490.2z"/>
<path class="st37" d="M254.7,490.4L254.7,490.4c0,0-0.1,0.1-0.1,0.1c0,0,0,0,0,0.1c0,0,0,0.1,0,0.2l-0.1,1.1c0,0,0,0,0,0
	c0,0,0,0,0,0l-0.7-1.2l-0.1,0.8c0,0.1,0,0.1,0,0.2c0,0,0,0.1,0,0.1c0,0,0.1,0,0.1,0l0,0c0,0-0.1,0-0.1,0c0,0-0.1,0-0.1,0
	c0,0-0.1,0-0.1,0c0,0-0.1,0-0.1,0l0,0c0,0,0.1,0,0.1,0c0,0,0,0,0-0.1c0,0,0-0.1,0-0.2l0.1-0.9c0,0,0-0.1,0-0.1c0,0,0,0,0-0.1
	c0,0,0,0-0.1,0l0,0c0,0,0,0,0.1,0c0,0,0.1,0,0.1,0s0.1,0,0.1,0c0,0,0.1,0,0.1,0l0.6,1.1l0.1-0.6c0-0.1,0-0.1,0-0.2c0,0,0-0.1,0-0.1
	c0,0-0.1,0-0.1,0l0,0c0,0,0.1,0,0.1,0c0,0,0.1,0,0.1,0C254.6,490.4,254.6,490.4,254.7,490.4C254.7,490.4,254.7,490.4,254.7,490.4z"
	/>
<path class="st37" d="M255.6,490.5c0.1,0,0.3,0.1,0.3,0.1c0.1,0.1,0.2,0.2,0.2,0.3c0,0.1,0.1,0.3,0,0.4c0,0.2-0.1,0.3-0.1,0.4
	c-0.1,0.1-0.2,0.2-0.3,0.2s-0.2,0.1-0.4,0.1c-0.1,0-0.3-0.1-0.3-0.1c-0.1-0.1-0.2-0.2-0.2-0.3c0-0.1-0.1-0.3,0-0.4
	c0-0.2,0.1-0.3,0.1-0.4c0.1-0.1,0.2-0.2,0.3-0.2C255.3,490.5,255.4,490.5,255.6,490.5z M255.5,490.5c-0.1,0-0.1,0-0.2,0.1
	c-0.1,0.1-0.1,0.1-0.2,0.2c0,0.1-0.1,0.2-0.1,0.4c0,0.1,0,0.3,0,0.4c0,0.1,0.1,0.2,0.1,0.3c0.1,0.1,0.1,0.1,0.2,0.1
	c0.1,0,0.1,0,0.2-0.1c0.1-0.1,0.1-0.1,0.2-0.2c0-0.1,0.1-0.2,0.1-0.4c0-0.1,0-0.3,0-0.4c0-0.1-0.1-0.2-0.1-0.3
	C255.7,490.5,255.6,490.5,255.5,490.5z"/>
<path class="st37" d="M258,490.8L258,490.8C258,490.9,257.9,490.9,258,490.8c-0.1,0.1-0.1,0.1-0.1,0.1s0,0.1,0,0.1l-0.1,1
	c0,0.1,0,0.1,0,0.1c0,0,0,0,0,0.1c0,0,0,0,0.1,0l0,0c0,0-0.1,0-0.1,0c-0.1,0-0.1,0-0.2,0c-0.1,0-0.1,0-0.2,0c-0.1,0-0.1,0-0.1,0l0,0
	c0,0,0.1,0,0.1,0c0,0,0,0,0,0c0,0,0-0.1,0-0.1l0.1-1.1h0l-0.6,1.3l0,0l-0.4-1.4l-0.1,1c0,0.1,0,0.1,0,0.2c0,0,0,0.1,0,0.1
	c0,0,0.1,0,0.1,0.1l0,0c0,0-0.1,0-0.1,0c0,0-0.1,0-0.1,0c0,0-0.1,0-0.1,0c0,0-0.1,0-0.1,0l0,0c0,0,0.1,0,0.1,0c0,0,0,0,0-0.1
	c0,0,0-0.1,0-0.2l0.1-0.9c0-0.1,0-0.1,0-0.1c0,0,0,0,0-0.1c0,0-0.1,0-0.1,0l0,0c0,0,0,0,0.1,0c0,0,0.1,0,0.1,0c0.1,0,0.1,0,0.2,0
	c0.1,0,0.1,0,0.1,0l0.3,1.1l-0.1,0l0.5-1c0,0,0,0,0.1,0c0,0,0,0,0.1,0c0.1,0,0.1,0,0.2,0C257.9,490.8,258,490.8,258,490.8z"/>
<path class="st37" d="M258.7,490.9L258.7,490.9c0,0-0.1,0-0.1,0c0,0,0,0,0,0c0,0,0,0.1,0,0.1l-0.1,1c0,0,0,0.1,0,0.1c0,0,0,0,0,0.1
	c0,0,0.1,0,0.1,0l0,0c0,0-0.1,0-0.1,0c-0.1,0-0.1,0-0.2,0c-0.1,0-0.1,0-0.2,0c-0.1,0-0.1,0-0.1,0l0,0c0,0,0.1,0,0.1,0c0,0,0,0,0,0
	c0,0,0-0.1,0-0.1l0.1-1c0-0.1,0-0.1,0-0.1c0,0,0,0,0-0.1s0,0-0.1,0l0,0c0,0,0.1,0,0.1,0c0.1,0,0.1,0,0.2,0c0.1,0,0.1,0,0.2,0
	C258.7,490.9,258.7,490.9,258.7,490.9z"/>
<path class="st37" d="M259.6,491c0.1,0,0.2,0,0.2,0.1c0,0,0.1,0.1,0.1,0.1c0,0,0,0,0.1,0c0,0,0-0.1,0-0.1l0,0c0,0.1,0,0.1,0,0.2
	c0,0.1,0,0.2,0,0.3l0,0c0-0.1,0-0.1,0-0.2c0,0,0-0.1,0-0.1c0,0,0-0.1-0.1-0.1c0,0-0.1-0.1-0.1-0.1
	C259.7,491.1,259.6,491.1,259.6,491c0,0-0.1,0.1-0.1,0.1c-0.1,0-0.1,0.1-0.1,0.1c0,0.1-0.1,0.1-0.1,0.2c0,0.1,0,0.2-0.1,0.3
	c0,0.1,0,0.2,0,0.3c0,0.1,0,0.2,0,0.2c0,0.1,0.1,0.1,0.1,0.2c0,0,0.1,0.1,0.2,0.1c0,0,0.1,0,0.1,0c0,0,0.1,0,0.1-0.1
	c0.1,0,0.1-0.1,0.1-0.1c0-0.1,0-0.1,0.1-0.2l0,0c0,0.1,0,0.2,0,0.3c0,0.1,0,0.1,0,0.2l0,0c0-0.1,0-0.1,0-0.1c0,0,0,0-0.1,0
	c0,0-0.1,0.1-0.2,0.1c-0.1,0-0.1,0-0.2,0c-0.1,0-0.3-0.1-0.3-0.1c-0.1-0.1-0.2-0.2-0.2-0.3c0-0.1-0.1-0.3,0-0.4
	c0-0.1,0.1-0.3,0.1-0.4c0.1-0.1,0.2-0.2,0.3-0.2C259.3,491,259.4,491,259.6,491z"/>
<path class="st37" d="M260.7,491.2c0.1,0,0.1,0,0.2,0.1s0.1,0,0.1,0.1c0,0,0,0,0,0s0,0,0,0c0,0,0,0,0.1-0.1l0,0c0,0,0,0.1,0,0.1
	c0,0,0,0.1,0,0.1c0,0.1,0,0.1,0,0.2l0,0c0-0.1,0-0.1,0-0.2c0-0.1,0-0.1-0.1-0.2C260.9,491.3,260.8,491.2,260.7,491.2
	c0,0.1-0.1,0.1-0.1,0.1c0,0-0.1,0.1-0.1,0.1c0,0.1,0,0.1,0,0.1c0,0,0,0.1,0.1,0.1c0,0,0.1,0.1,0.2,0.2c0.1,0.1,0.1,0.1,0.1,0.2
	s0.1,0.1,0.1,0.2c0,0.1,0,0.1,0,0.2c0,0.1,0,0.2-0.1,0.2c0,0.1-0.1,0.1-0.2,0.1c-0.1,0-0.2,0-0.2,0c-0.1,0-0.1,0-0.2-0.1
	c0,0-0.1,0-0.1-0.1c0,0,0,0-0.1,0c0,0,0,0-0.1,0.1l0,0c0,0,0-0.1,0-0.1c0,0,0-0.1,0-0.2c0-0.1,0-0.2,0-0.3l0,0c0,0.1,0,0.2,0,0.3
	c0,0.1,0,0.1,0.1,0.2c0,0.1,0.1,0.1,0.2,0.1c0.1,0,0.1,0,0.2,0c0.1,0,0.1-0.1,0.1-0.2c0-0.1,0-0.2-0.1-0.2c0-0.1-0.1-0.1-0.2-0.2
	c-0.1,0-0.1-0.1-0.2-0.2c0,0-0.1-0.1-0.1-0.2c0-0.1,0-0.1,0-0.2c0-0.1,0-0.2,0.1-0.2c0-0.1,0.1-0.1,0.2-0.1
	C260.6,491.2,260.6,491.2,260.7,491.2z"/>
<path class="st37" d="M183.8,489.3L183.8,489.3c0,0-0.1,0.1-0.1,0.1c0,0,0,0,0,0.1c0,0,0,0.1,0,0.1l0.1,1.2c0,0.1,0,0.1,0,0.1
	c0,0,0,0,0.1,0.1c0,0,0.1,0,0.1,0l0,0c0,0-0.1,0-0.2,0c-0.1,0-0.1,0-0.2,0c-0.1,0-0.1,0-0.2,0c-0.1,0-0.1,0-0.2,0l0,0
	c0.1,0,0.1,0,0.1,0c0,0,0,0,0-0.1c0,0,0-0.1,0-0.1l-0.1-1.2c0-0.1,0-0.1,0-0.1c0,0,0,0-0.1-0.1c0,0-0.1,0-0.1,0l0,0c0,0,0.1,0,0.2,0
	c0.1,0,0.1,0,0.2,0c0.1,0,0.1,0,0.2,0C183.7,489.3,183.8,489.3,183.8,489.3z"/>
<path class="st37" d="M184.8,489.2c0.2,0,0.3,0,0.4,0.1c0.1,0.1,0.2,0.2,0.3,0.3c0.1,0.1,0.1,0.3,0.1,0.5c0,0.2,0,0.3-0.1,0.5
	c-0.1,0.1-0.2,0.2-0.3,0.3c-0.1,0.1-0.3,0.1-0.4,0.1c-0.2,0-0.3,0-0.4-0.1c-0.1-0.1-0.2-0.2-0.3-0.3c-0.1-0.1-0.1-0.3-0.1-0.5
	c0-0.2,0-0.3,0.1-0.5c0.1-0.1,0.2-0.2,0.3-0.3C184.5,489.3,184.7,489.2,184.8,489.2z M185.8,490.8L185.8,490.8c0,0.1,0,0.2,0,0.2
	c0,0.1-0.1,0.1-0.1,0.2c0,0-0.1,0.1-0.1,0.1s-0.1,0-0.2,0c-0.1,0-0.2,0-0.3,0c-0.1,0-0.2,0-0.3-0.1c-0.1,0-0.2-0.1-0.3-0.1
	c0,0,0,0,0,0c0,0,0,0,0,0c0,0-0.1,0-0.1,0c0,0-0.1,0-0.1,0c0,0-0.1,0-0.1,0c0,0,0,0,0,0c0,0,0-0.1,0.1-0.1c0.1,0,0.1,0,0.2,0
	c0.1,0,0.1,0,0.1-0.1c0,0,0.1,0,0.1-0.1c0,0,0.1,0,0.2,0l0,0c0,0-0.1,0-0.1,0c0,0-0.1,0-0.1,0.1c0,0-0.1,0-0.1,0.1
	c0.1,0,0.2,0,0.3,0c0.1,0,0.2,0,0.3,0c0.1,0,0.2,0,0.2,0c0.1,0,0.2,0,0.2-0.1C185.7,491,185.7,490.9,185.8,490.8z M184.8,489.3
	c-0.1,0-0.2,0-0.2,0.1c-0.1,0.1-0.1,0.2-0.1,0.3c0,0.1,0,0.3,0,0.4c0,0.2,0,0.3,0.1,0.4c0,0.1,0.1,0.2,0.2,0.3
	c0.1,0.1,0.2,0.1,0.2,0.1c0.1,0,0.2,0,0.2-0.1c0.1-0.1,0.1-0.2,0.1-0.3c0-0.1,0-0.3,0-0.4c0-0.2,0-0.3-0.1-0.4
	c0-0.1-0.1-0.2-0.2-0.3C185,489.3,184.9,489.3,184.8,489.3z"/>
<path class="st37" d="M187.3,489.1c0,0.1,0,0.2,0,0.2c0,0.1,0,0.1,0,0.2c0,0,0,0.1,0,0.1c0,0,0,0.1,0,0.1l-0.1,0
	c0-0.1-0.1-0.2-0.1-0.3c0-0.1-0.1-0.1-0.1-0.2c-0.1,0-0.1,0-0.2,0l-0.1,0l0.1,1.3c0,0.1,0,0.1,0,0.1c0,0,0,0.1,0.1,0.1
	c0,0,0.1,0,0.2,0v0c-0.1,0-0.1,0-0.2,0c-0.1,0-0.2,0-0.3,0c-0.1,0-0.2,0-0.2,0c-0.1,0-0.1,0-0.2,0v0c0.1,0,0.1,0,0.2,0
	c0,0,0.1,0,0.1-0.1c0,0,0-0.1,0-0.1l-0.1-1.3l0,0c-0.1,0-0.1,0-0.2,0.1c0,0-0.1,0.1-0.1,0.2c0,0.1-0.1,0.2-0.1,0.3l-0.1,0
	c0,0,0,0,0-0.1c0,0,0-0.1,0-0.1c0,0,0-0.1,0-0.2c0-0.1,0-0.1,0-0.2c0.1,0,0.1,0,0.2,0c0.1,0,0.2,0,0.3,0c0.1,0,0.2,0,0.2,0
	c0.1,0,0.1,0,0.2,0c0.1,0,0.2,0,0.3,0C187.1,489.1,187.2,489.1,187.3,489.1z"/>
<path class="st37" d="M188.1,489.1L188.1,489.1c0,0.1-0.1,0.1-0.1,0.1c0,0,0,0,0,0.1s0,0.1,0,0.1l0.1,1.2c0,0.1,0,0.1,0,0.1
	c0,0,0,0,0.1,0.1s0.1,0,0.1,0v0c0,0-0.1,0-0.2,0c-0.1,0-0.1,0-0.2,0c-0.1,0-0.1,0-0.2,0c-0.1,0-0.1,0-0.2,0v0c0.1,0,0.1,0,0.1,0
	c0,0,0,0,0.1-0.1c0,0,0-0.1,0-0.1l-0.1-1.2c0-0.1,0-0.1,0-0.1c0,0,0,0-0.1-0.1c0,0-0.1,0-0.1,0l0,0c0,0,0.1,0,0.2,0
	c0.1,0,0.1,0,0.2,0c0.1,0,0.1,0,0.2,0C188,489.1,188.1,489.1,188.1,489.1z"/>
<path class="st37" d="M188.9,489c0.1,0,0.2,0,0.2,0c0.1,0,0.1,0,0.1,0.1c0,0,0,0,0,0c0,0,0,0,0,0c0,0,0,0,0-0.1h0.1c0,0,0,0.1,0,0.1
	c0,0,0,0.1,0,0.2c0,0.1,0,0.2,0,0.3h-0.1c0-0.1,0-0.2-0.1-0.2c0-0.1-0.1-0.1-0.1-0.2C189.1,489.1,189,489.1,188.9,489
	c0,0.1-0.1,0.1-0.1,0.1c0,0-0.1,0.1-0.1,0.2c0,0.1,0,0.1,0.1,0.2c0,0,0.1,0.1,0.1,0.1c0.1,0,0.1,0.1,0.2,0.1c0.1,0,0.1,0.1,0.2,0.1
	c0.1,0,0.1,0.1,0.2,0.2c0,0.1,0.1,0.1,0.1,0.2c0,0.1,0,0.2-0.1,0.3c0,0.1-0.1,0.1-0.2,0.2c-0.1,0-0.2,0.1-0.3,0.1
	c-0.1,0-0.2,0-0.2,0c-0.1,0-0.1,0-0.1-0.1c0,0-0.1,0-0.1,0c0,0,0,0,0,0.1l-0.1,0c0,0,0-0.1,0-0.1c0,0,0-0.1,0-0.2c0-0.1,0-0.2,0-0.3
	l0.1,0c0,0.1,0,0.2,0.1,0.3c0,0.1,0.1,0.2,0.1,0.2c0.1,0.1,0.1,0.1,0.2,0.1c0.1,0,0.1,0,0.2-0.1c0.1,0,0.1-0.1,0.1-0.2
	c0-0.1,0-0.2-0.1-0.2c-0.1-0.1-0.2-0.1-0.3-0.2c-0.1,0-0.1-0.1-0.2-0.1c-0.1,0-0.1-0.1-0.2-0.2c0-0.1-0.1-0.1-0.1-0.2
	c0-0.1,0-0.2,0.1-0.2c0-0.1,0.1-0.1,0.2-0.1C188.7,489,188.8,489,188.9,489z"/>
<path class="st37" d="M190.5,488.9c0.2,0,0.3,0,0.4,0.1c0.1,0.1,0.2,0.2,0.3,0.3c0.1,0.1,0.1,0.3,0.1,0.5c0,0.2,0,0.3-0.1,0.5
	c-0.1,0.1-0.2,0.2-0.3,0.3c-0.1,0.1-0.3,0.1-0.4,0.1c-0.2,0-0.3,0-0.4-0.1c-0.1-0.1-0.2-0.2-0.3-0.3c-0.1-0.1-0.1-0.3-0.1-0.5
	c0-0.2,0-0.3,0.1-0.5c0.1-0.1,0.2-0.2,0.3-0.3C190.2,489,190.4,489,190.5,488.9z M190.5,489c-0.1,0-0.2,0-0.2,0.1
	c-0.1,0.1-0.1,0.2-0.1,0.3c0,0.1,0,0.3,0,0.4c0,0.2,0,0.3,0.1,0.4c0,0.1,0.1,0.2,0.2,0.3c0.1,0.1,0.1,0.1,0.2,0.1
	c0.1,0,0.2,0,0.2-0.1c0.1-0.1,0.1-0.2,0.1-0.3c0-0.1,0-0.3,0-0.4c0-0.2,0-0.3-0.1-0.4c0-0.1-0.1-0.2-0.2-0.3
	C190.7,489,190.6,489,190.5,489z"/>
<path class="st37" d="M192.2,488.9c0.3,0,0.5,0,0.7,0.2c0.2,0.1,0.2,0.3,0.2,0.6c0,0.2,0,0.3-0.1,0.5c-0.1,0.1-0.2,0.2-0.3,0.3
	c-0.1,0.1-0.3,0.1-0.5,0.1c0,0-0.1,0-0.2,0c-0.1,0-0.1,0-0.2,0c-0.1,0-0.1,0-0.2,0c-0.1,0-0.1,0-0.2,0v0c0,0,0.1,0,0.1,0
	c0,0,0,0,0-0.1c0,0,0-0.1,0-0.1l0-1.2c0-0.1,0-0.1,0-0.1c0,0,0,0-0.1-0.1c0,0-0.1,0-0.1,0v0c0,0,0.1,0,0.2,0c0.1,0,0.1,0,0.2,0
	c0.1,0,0.1,0,0.2,0C192.1,488.9,192.2,488.9,192.2,488.9z M192.2,489c-0.1,0-0.1,0-0.1,0c0,0,0,0.1,0,0.2l0,1.2c0,0.1,0,0.1,0,0.2
	s0.1,0,0.1,0c0.1,0,0.2,0,0.3-0.1c0.1-0.1,0.1-0.2,0.2-0.3c0-0.1,0-0.3,0-0.4c0-0.3-0.1-0.5-0.1-0.6
	C192.6,489,192.4,488.9,192.2,489z"/>
<path class="st37" d="M194.1,488.8L194.1,488.8c0,0.1-0.1,0.1-0.1,0.1c0,0,0,0,0,0.1c0,0,0,0.1,0,0.1l0,1.2c0,0.1,0,0.1,0,0.1
	c0,0,0,0,0.1,0.1c0,0,0.1,0,0.1,0l0,0c0,0-0.1,0-0.2,0c-0.1,0-0.1,0-0.2,0c-0.1,0-0.1,0-0.2,0c-0.1,0-0.1,0-0.2,0l0,0
	c0.1,0,0.1,0,0.1,0c0,0,0,0,0-0.1c0,0,0-0.1,0-0.1l0-1.2c0-0.1,0-0.1,0-0.1c0,0,0,0-0.1-0.1c0,0-0.1,0-0.1,0l0,0c0,0,0.1,0,0.2,0
	c0.1,0,0.1,0,0.2,0c0.1,0,0.1,0,0.2,0C194,488.9,194,488.9,194.1,488.8z"/>
<path class="st37" d="M195.6,488.8L195.6,488.8c0,0.1-0.1,0.1-0.1,0.1c0,0-0.1,0.1-0.1,0.2l-0.4,0.9l-0.1,0l-0.6-1
	c0-0.1-0.1-0.1-0.1-0.1c0,0,0,0-0.1,0v-0.1c0,0,0.1,0,0.1,0c0,0,0.1,0,0.1,0c0.1,0,0.1,0,0.2,0c0.1,0,0.2,0,0.2,0l0,0
	c0,0-0.1,0-0.1,0c0,0-0.1,0-0.1,0c0,0,0,0,0,0.1l0.4,0.7l-0.1,0.1l0.2-0.5c0.1-0.1,0.1-0.2,0.1-0.3c0-0.1,0-0.1-0.1-0.1
	c0,0-0.1,0-0.1,0l0,0c0.1,0,0.1,0,0.1,0c0,0,0.1,0,0.1,0C195.4,488.8,195.5,488.8,195.6,488.8C195.5,488.8,195.6,488.8,195.6,488.8z
	 M195.1,489.6l0,0.6c0,0.1,0,0.1,0,0.1c0,0,0,0,0.1,0.1c0,0,0.1,0,0.1,0l0,0c0,0-0.1,0-0.2,0c-0.1,0-0.1,0-0.2,0c-0.1,0-0.1,0-0.2,0
	c-0.1,0-0.1,0-0.2,0v0c0,0,0.1,0,0.1,0c0,0,0,0,0-0.1c0,0,0-0.1,0-0.1l0-0.5l0.2,0.1L195.1,489.6z"/>
<path class="st37" d="M196.4,488.7c0.2,0,0.3,0,0.4,0.1c0.1,0.1,0.2,0.2,0.3,0.3c0.1,0.1,0.1,0.3,0.1,0.5c0,0.2,0,0.3-0.1,0.5
	c-0.1,0.1-0.2,0.2-0.3,0.3c-0.1,0.1-0.3,0.1-0.4,0.1c-0.2,0-0.3,0-0.4-0.1c-0.1-0.1-0.2-0.2-0.3-0.3c-0.1-0.1-0.1-0.3-0.1-0.5
	c0-0.2,0-0.3,0.1-0.5c0.1-0.1,0.2-0.2,0.3-0.3C196.1,488.8,196.3,488.7,196.4,488.7z M196.4,488.8c-0.1,0-0.2,0-0.2,0.1
	c-0.1,0.1-0.1,0.2-0.1,0.3c0,0.1,0,0.3,0,0.4c0,0.2,0,0.3,0.1,0.4c0,0.1,0.1,0.2,0.2,0.3c0.1,0.1,0.1,0.1,0.2,0.1
	c0.1,0,0.2,0,0.2-0.1c0.1-0.1,0.1-0.2,0.1-0.3c0-0.1,0-0.3,0-0.4c0-0.2,0-0.3-0.1-0.4c0-0.1-0.1-0.2-0.2-0.3
	C196.6,488.8,196.5,488.8,196.4,488.8z"/>
<path class="st37" d="M198.9,488.7c0,0.1,0,0.2,0,0.2c0,0.1,0,0.1,0,0.2c0,0,0,0.1,0,0.1c0,0,0,0.1,0,0.1l-0.1,0
	c0-0.1-0.1-0.2-0.1-0.3c0-0.1-0.1-0.1-0.1-0.2c-0.1,0-0.1,0-0.2,0l-0.1,0l0,1.3c0,0.1,0,0.1,0,0.1c0,0,0,0.1,0.1,0.1
	c0,0,0.1,0,0.2,0v0c-0.1,0-0.1,0-0.2,0c-0.1,0-0.2,0-0.3,0c-0.1,0-0.2,0-0.2,0c-0.1,0-0.1,0-0.2,0v0c0.1,0,0.1,0,0.2,0
	c0,0,0.1,0,0.1-0.1c0,0,0-0.1,0-0.1l0-1.3h-0.1c-0.1,0-0.1,0-0.2,0.1s-0.1,0.1-0.1,0.2c0,0.1-0.1,0.2-0.1,0.3l-0.1,0c0,0,0,0,0-0.1
	c0,0,0-0.1,0-0.1c0,0,0-0.1,0-0.2c0-0.1,0-0.1,0-0.2c0.1,0,0.2,0,0.2,0c0.1,0,0.2,0,0.3,0c0.1,0,0.2,0,0.2,0c0.1,0,0.1,0,0.2,0
	c0.1,0,0.2,0,0.3,0C198.7,488.7,198.8,488.7,198.9,488.7z"/>
<path class="st37" d="M201,488.7L201,488.7c0,0.1-0.1,0.1-0.1,0.1c0,0,0,0.1,0,0.1c0,0,0,0.1,0,0.2l0,0.6c0,0.1,0,0.2,0,0.3
	c0,0.1,0,0.2-0.1,0.2c0,0.1-0.1,0.1-0.2,0.2c-0.1,0-0.2,0.1-0.3,0.1c-0.1,0-0.1,0-0.2,0c-0.1,0-0.1,0-0.2-0.1
	c-0.1,0-0.1-0.1-0.1-0.1c0-0.1,0-0.1-0.1-0.2c0-0.1,0-0.2,0-0.3l0-0.7c0-0.1,0-0.1,0-0.1c0,0,0,0-0.1-0.1c0,0-0.1,0-0.1,0l0,0
	c0,0,0.1,0,0.2,0c0.1,0,0.1,0,0.2,0c0.1,0,0.1,0,0.2,0c0.1,0,0.1,0,0.2,0l0,0c-0.1,0-0.1,0-0.1,0c0,0,0,0-0.1,0.1c0,0,0,0.1,0,0.1
	l0,0.9c0,0.1,0,0.2,0,0.3c0,0.1,0.1,0.1,0.1,0.2c0.1,0,0.1,0.1,0.2,0c0.1,0,0.2,0,0.3-0.1c0.1-0.1,0.1-0.1,0.1-0.2
	c0-0.1,0-0.2,0-0.3l0-0.6c0-0.1,0-0.2,0-0.2c0,0,0-0.1-0.1-0.1c0,0-0.1,0-0.1,0l0,0c0,0,0.1,0,0.1,0c0.1,0,0.1,0,0.1,0
	C200.9,488.7,200.9,488.7,201,488.7C201,488.7,201,488.7,201,488.7z"/>
<path class="st37" d="M202.7,488.6L202.7,488.6c0,0.1-0.1,0.1-0.1,0.1c0,0,0,0.1,0,0.1s0,0.1,0,0.2l0,1.3c0,0,0,0-0.1,0
	c0,0,0,0-0.1,0l-1-1.3l0,0.9c0,0.1,0,0.2,0,0.2c0,0,0,0.1,0.1,0.1c0,0,0.1,0,0.2,0v0c0,0-0.1,0-0.1,0c-0.1,0-0.1,0-0.1,0
	c0,0-0.1,0-0.1,0c0,0-0.1,0-0.1,0v0c0.1,0,0.1,0,0.1,0c0,0,0,0,0-0.1c0,0,0-0.1,0-0.2l0-1.1c0-0.1,0-0.1,0-0.1c0,0,0,0-0.1-0.1
	c0,0-0.1,0-0.1,0v0c0,0,0.1,0,0.1,0c0,0,0.1,0,0.1,0c0,0,0.1,0,0.1,0c0,0,0.1,0,0.1,0l0.9,1.1l0-0.7c0-0.1,0-0.2,0-0.2
	c0,0,0-0.1-0.1-0.1c0,0-0.1,0-0.1,0v0c0,0,0.1,0,0.1,0c0.1,0,0.1,0,0.1,0C202.5,488.7,202.6,488.7,202.7,488.6
	C202.6,488.6,202.7,488.6,202.7,488.6z"/>
<path class="st37" d="M203.6,488.6L203.6,488.6c0,0-0.1,0.1-0.1,0.1c0,0,0,0-0.1,0.1c0,0,0,0.1,0,0.1l0,1.2c0,0.1,0,0.1,0,0.1
	c0,0,0,0,0.1,0.1s0.1,0,0.1,0v0c0,0-0.1,0-0.2,0c-0.1,0-0.1,0-0.2,0c-0.1,0-0.1,0-0.2,0c-0.1,0-0.1,0-0.2,0l0,0c0.1,0,0.1,0,0.1,0
	c0,0,0,0,0-0.1c0,0,0-0.1,0-0.1l0-1.2c0-0.1,0-0.1,0-0.1c0,0,0,0-0.1-0.1c0,0-0.1,0-0.1,0v0c0,0,0.1,0,0.2,0c0.1,0,0.1,0,0.2,0
	c0.1,0,0.1,0,0.2,0C203.5,488.6,203.5,488.6,203.6,488.6z"/>
<path class="st37" d="M205.2,488.6L205.2,488.6c0,0.1-0.1,0.1-0.1,0.1c0,0-0.1,0.1-0.1,0.2l-0.5,1.3c0,0,0,0,0,0c0,0,0,0,0,0
	c0,0,0,0,0,0c0,0,0,0,0,0l-0.6-1.5c0-0.1,0-0.1-0.1-0.1c0,0-0.1,0-0.1,0l0,0c0,0,0.1,0,0.2,0c0.1,0,0.1,0,0.2,0c0.1,0,0.1,0,0.2,0
	c0.1,0,0.1,0,0.2,0v0c-0.1,0-0.1,0-0.1,0c0,0,0,0.1,0,0.2l0.4,1.1l-0.1,0.1l0.3-0.9c0-0.1,0.1-0.2,0.1-0.3c0-0.1,0-0.1-0.1-0.1
	c0,0-0.1,0-0.1,0l0,0c0.1,0,0.1,0,0.2,0c0,0,0.1,0,0.1,0C205.1,488.6,205.1,488.6,205.2,488.6C205.2,488.6,205.2,488.6,205.2,488.6z
	"/>
<path class="st37" d="M206.6,488.6c0,0.1,0,0.1,0,0.2c0,0.1,0,0.1,0,0.2c0,0,0,0.1,0,0.1c0,0,0,0.1,0,0.1h-0.1c0-0.1,0-0.2-0.1-0.3
	c0-0.1-0.1-0.1-0.1-0.1c-0.1,0-0.1,0-0.2,0l-0.1,0c0,0-0.1,0-0.1,0c0,0,0,0,0,0c0,0,0,0.1,0,0.1l0,1.2c0,0.1,0,0.1,0,0.1
	c0,0,0,0,0,0s0.1,0,0.1,0l0.1,0c0.1,0,0.1,0,0.2,0c0.1,0,0.1-0.1,0.1-0.2c0-0.1,0.1-0.2,0.1-0.3l0.1,0c0,0,0,0.1,0,0.2
	c0,0,0,0.1,0,0.2c0,0.1,0,0.1,0,0.2c-0.1,0-0.2,0-0.3,0c-0.1,0-0.2,0-0.3,0c-0.1,0-0.1,0-0.2,0c-0.1,0-0.2,0-0.3,0
	c-0.1,0-0.2,0-0.3,0l0,0c0.1,0,0.1,0,0.1,0c0,0,0,0,0-0.1c0,0,0-0.1,0-0.1l0-1.2c0-0.1,0-0.1,0-0.1c0,0,0,0-0.1-0.1c0,0-0.1,0-0.1,0
	l0,0c0.1,0,0.2,0,0.3,0c0.1,0,0.2,0,0.3,0c0.1,0,0.2,0,0.2,0c0.1,0,0.2,0,0.2,0C206.4,488.6,206.5,488.6,206.6,488.6z M206.2,489.4
	L206.2,489.4l-0.4,0.1l0,0L206.2,489.4z M206.3,489.1c0,0.1,0,0.2,0,0.2c0,0,0,0.1,0,0.1c0,0,0,0.1,0,0.1c0,0,0,0.1,0,0.2l-0.1,0
	c0-0.1,0-0.1,0-0.2c0-0.1-0.1-0.1-0.1-0.1c0,0-0.1,0-0.2,0l0,0c0.1,0,0.1,0,0.1-0.1s0.1-0.1,0.1-0.1
	C206.2,489.2,206.2,489.1,206.3,489.1L206.3,489.1z"/>
<path class="st37" d="M206.8,488.6c0,0,0.1,0,0.2,0c0.1,0,0.1,0,0.2,0c0.1,0,0.1,0,0.2,0c0.1,0,0.1,0,0.1,0c0.2,0,0.4,0,0.5,0.1
	c0.1,0.1,0.2,0.2,0.2,0.3c0,0.1,0,0.1,0,0.2c0,0.1-0.1,0.1-0.1,0.2c-0.1,0-0.1,0.1-0.2,0.1c-0.1,0-0.2,0-0.3,0l-0.2,0l0,0l0.2,0
	c0.1,0,0.2,0,0.2-0.1c0,0,0.1-0.1,0.1-0.1c0-0.1,0-0.1,0-0.2c0-0.1,0-0.2-0.1-0.3c0-0.1-0.1-0.1-0.2-0.1c-0.1,0-0.1,0-0.1,0
	c0,0,0,0.1,0,0.2l0,1.2c0,0.1,0,0.1,0,0.1c0,0,0,0,0.1,0.1c0,0,0.1,0,0.1,0l0,0c0,0-0.1,0-0.2,0c-0.1,0-0.1,0-0.2,0
	c-0.1,0-0.1,0-0.2,0c-0.1,0-0.1,0-0.2,0v0c0.1,0,0.1,0,0.1,0c0,0,0,0,0.1-0.1c0,0,0-0.1,0-0.1l0-1.2c0-0.1,0-0.1,0-0.1
	c0,0,0,0-0.1-0.1C206.9,488.7,206.8,488.7,206.8,488.6L206.8,488.6z M207.2,489.4c0.1,0,0.1,0,0.2,0s0.1,0,0.1,0c0,0,0.1,0,0.1,0
	c0.1,0,0.2,0,0.3,0.1c0.1,0,0.1,0.1,0.1,0.2l0.1,0.2c0,0.1,0,0.1,0,0.1c0,0,0,0,0.1,0c0,0,0,0,0.1,0c0,0,0,0,0,0l0,0
	c0,0.1-0.1,0.1-0.1,0.1c0,0-0.1,0-0.2,0c-0.1,0-0.2,0-0.2-0.1c-0.1,0-0.1-0.1-0.1-0.2l0-0.2c0-0.1,0-0.1,0-0.2c0,0,0-0.1-0.1-0.1
	c0,0-0.1,0-0.1,0L207.2,489.4L207.2,489.4z"/>
<path class="st37" d="M209,488.6c0.1,0,0.2,0,0.2,0c0,0,0.1,0,0.1,0.1c0,0,0,0,0,0c0,0,0,0,0,0c0,0,0,0,0.1-0.1h0.1c0,0,0,0.1,0,0.1
	s0,0.1,0,0.2c0,0.1,0,0.2,0,0.3h-0.1c0-0.1,0-0.2-0.1-0.2c0-0.1-0.1-0.1-0.1-0.2C209.2,488.7,209.2,488.6,209,488.6
	c0,0.1-0.1,0.1-0.1,0.1c-0.1,0-0.1,0.1-0.1,0.2c0,0.1,0,0.1,0,0.2c0,0,0.1,0.1,0.1,0.1c0.1,0,0.1,0.1,0.2,0.2c0.1,0,0.1,0.1,0.2,0.1
	c0.1,0,0.1,0.1,0.1,0.2c0,0.1,0.1,0.1,0.1,0.2c0,0.1,0,0.2-0.1,0.3c-0.1,0.1-0.1,0.1-0.2,0.2c-0.1,0-0.2,0.1-0.3,0
	c-0.1,0-0.2,0-0.2,0c-0.1,0-0.1,0-0.1-0.1c0,0-0.1,0-0.1,0c0,0,0,0-0.1,0.1h-0.1c0,0,0-0.1,0-0.1c0-0.1,0-0.1,0-0.2
	c0-0.1,0-0.2,0-0.3l0.1,0c0,0.1,0,0.2,0.1,0.3c0,0.1,0.1,0.2,0.1,0.2c0.1,0.1,0.1,0.1,0.2,0.1c0.1,0,0.1,0,0.2-0.1
	c0.1,0,0.1-0.1,0.1-0.2c0-0.1,0-0.2-0.1-0.2c-0.1-0.1-0.2-0.1-0.3-0.2c-0.1,0-0.1-0.1-0.2-0.1c-0.1,0-0.1-0.1-0.2-0.2
	c0-0.1-0.1-0.1-0.1-0.2c0-0.1,0-0.2,0.1-0.2c0-0.1,0.1-0.1,0.2-0.1C208.8,488.6,208.9,488.6,209,488.6z"/>
<path class="st37" d="M210.5,488.6L210.5,488.6c0,0-0.1,0.1-0.1,0.1c0,0,0,0,0,0.1c0,0,0,0.1,0,0.1l0,1.2c0,0.1,0,0.1,0,0.1
	c0,0,0,0,0.1,0.1c0,0,0.1,0,0.1,0v0c0,0-0.1,0-0.2,0c-0.1,0-0.1,0-0.2,0c-0.1,0-0.1,0-0.2,0c-0.1,0-0.1,0-0.2,0l0,0
	c0.1,0,0.1,0,0.1,0c0,0,0,0,0-0.1c0,0,0-0.1,0-0.1l0-1.2c0-0.1,0-0.1,0-0.1c0,0,0,0-0.1-0.1c0,0-0.1,0-0.1,0v0c0,0,0.1,0,0.2,0
	c0.1,0,0.1,0,0.2,0c0.1,0,0.1,0,0.2,0C210.4,488.6,210.5,488.6,210.5,488.6z"/>
<path class="st37" d="M212.1,488.6c0,0.1,0,0.2,0,0.2c0,0.1,0,0.1,0,0.2c0,0,0,0.1,0,0.1c0,0,0,0.1,0,0.1l-0.1,0
	c0-0.1-0.1-0.2-0.1-0.3c0-0.1-0.1-0.1-0.1-0.2c-0.1,0-0.1,0-0.2,0h-0.1l0,1.3c0,0.1,0,0.1,0,0.1c0,0,0,0.1,0.1,0.1c0,0,0.1,0,0.2,0
	l0,0c-0.1,0-0.1,0-0.2,0c-0.1,0-0.2,0-0.3,0c-0.1,0-0.2,0-0.2,0c-0.1,0-0.1,0-0.2,0v0c0.1,0,0.1,0,0.2,0c0,0,0.1,0,0.1-0.1
	c0,0,0-0.1,0-0.1l0-1.3h-0.1c-0.1,0-0.1,0-0.2,0s-0.1,0.1-0.1,0.2c0,0.1-0.1,0.2-0.1,0.3l-0.1,0c0,0,0,0,0-0.1c0,0,0-0.1,0-0.1
	c0,0,0-0.1,0-0.2c0-0.1,0-0.1,0-0.2c0.1,0,0.1,0,0.2,0c0.1,0,0.2,0,0.3,0c0.1,0,0.2,0,0.2,0c0.1,0,0.2,0,0.2,0c0.1,0,0.2,0,0.3,0
	C212,488.6,212,488.6,212.1,488.6z"/>
<path class="st37" d="M213.5,488.6c0,0.1,0,0.1,0,0.2c0,0.1,0,0.1,0,0.1c0,0,0,0.1,0,0.1c0,0,0,0.1,0,0.1h-0.1c0-0.1,0-0.2-0.1-0.3
	c0-0.1-0.1-0.1-0.1-0.1c-0.1,0-0.1,0-0.2,0l-0.1,0c0,0-0.1,0-0.1,0c0,0,0,0,0,0c0,0,0,0.1,0,0.1l0,1.2c0,0.1,0,0.1,0,0.1
	c0,0,0,0,0,0c0,0,0.1,0,0.1,0l0.1,0c0.1,0,0.1,0,0.2,0c0.1,0,0.1-0.1,0.1-0.2c0-0.1,0.1-0.2,0.1-0.3l0.1,0c0,0,0,0.1,0,0.2
	c0,0,0,0.1,0,0.2c0,0.1,0,0.1,0,0.2c-0.1,0-0.2,0-0.3,0c-0.1,0-0.2,0-0.3,0c-0.1,0-0.1,0-0.2,0c-0.1,0-0.2,0-0.3,0
	c-0.1,0-0.2,0-0.3,0v0c0.1,0,0.1,0,0.1,0c0,0,0,0,0.1-0.1c0,0,0-0.1,0-0.1l0-1.2c0-0.1,0-0.1,0-0.1c0,0,0,0-0.1-0.1c0,0-0.1,0-0.1,0
	v0c0.1,0,0.2,0,0.3,0c0.1,0,0.2,0,0.3,0c0.1,0,0.2,0,0.2,0c0.1,0,0.2,0,0.2,0C213.4,488.6,213.4,488.6,213.5,488.6z M213.1,489.4
	L213.1,489.4l-0.4,0v0L213.1,489.4z M213.2,489.1c0,0.1,0,0.2,0,0.2c0,0,0,0.1,0,0.1c0,0,0,0.1,0,0.1c0,0,0,0.1,0,0.2h-0.1
	c0-0.1,0-0.1,0-0.2c0,0-0.1-0.1-0.1-0.1c0,0-0.1,0-0.1,0v0c0.1,0,0.1,0,0.1-0.1c0,0,0.1-0.1,0.1-0.1
	C213.1,489.2,213.2,489.2,213.2,489.1L213.2,489.1z"/>
<path class="st37" d="M215.2,488.7c0,0.1,0,0.2,0,0.2c0,0.1,0,0.1,0,0.2c0,0,0,0.1,0,0.1c0,0,0,0.1,0,0.1h-0.1
	c0-0.1-0.1-0.2-0.1-0.3c0-0.1-0.1-0.1-0.1-0.2c-0.1,0-0.1,0-0.2-0.1h-0.1l0,1.3c0,0.1,0,0.1,0,0.1c0,0,0,0.1,0.1,0.1
	c0,0,0.1,0,0.2,0v0c-0.1,0-0.1,0-0.2,0c-0.1,0-0.2,0-0.3,0c-0.1,0-0.2,0-0.2,0c-0.1,0-0.1,0-0.2,0v0c0.1,0,0.1,0,0.2,0
	c0,0,0.1,0,0.1-0.1c0,0,0-0.1,0-0.1l0-1.3l-0.1,0c-0.1,0-0.1,0-0.2,0s-0.1,0.1-0.1,0.2c0,0.1-0.1,0.2-0.1,0.3l-0.1,0
	c0,0,0-0.1,0-0.1c0,0,0-0.1,0-0.1c0,0,0-0.1,0-0.2c0-0.1,0-0.2,0-0.2c0.1,0,0.1,0,0.2,0c0.1,0,0.2,0,0.3,0c0.1,0,0.2,0,0.2,0
	c0.1,0,0.1,0,0.2,0c0.1,0,0.2,0,0.3,0C215,488.7,215.1,488.7,215.2,488.7z"/>
<path class="st37" d="M216.1,488.7L216.1,488.7c0,0-0.1,0-0.1,0.1s0,0,0,0.1c0,0,0,0.1,0,0.1l0,1.2c0,0.1,0,0.1,0,0.1
	c0,0,0,0,0.1,0.1c0,0,0.1,0,0.1,0v0c0,0-0.1,0-0.2,0c-0.1,0-0.1,0-0.2,0c-0.1,0-0.1,0-0.2,0s-0.1,0-0.2,0l0,0c0.1,0,0.1,0,0.1,0
	c0,0,0,0,0-0.1c0,0,0-0.1,0-0.1l0-1.2c0-0.1,0-0.1,0-0.1c0,0,0,0-0.1-0.1c0,0-0.1,0-0.1,0v0c0,0,0.1,0,0.2,0c0.1,0,0.1,0,0.2,0
	c0.1,0,0.1,0,0.2,0C216,488.7,216,488.7,216.1,488.7z"/>
<path class="st0" d="M284.6,533l-9.3,0.3l0.1,2.2l9.4-0.3L284.6,533z"/>
<g>
	<g>
		<g class="st38">
			<g class="st38">
				<defs>
					<path id="SVGID_17_" class="st38" d="M191.1,32.8l-1.4,1.3c-0.2,0.2-0.5,0.3-0.9,0.2l1.4-1.3C190.5,33.1,190.8,33,191.1,32.8z"
						/>
				</defs>
				<clipPath id="SVGID_18_">
					<use xlink:href="#SVGID_17_"  style="overflow:visible;"/>
				</clipPath>
				<g class="st39">
					<path class="st40" d="M191.1,32.8l-1.4,1.3c-0.2,0.2-0.5,0.3-0.9,0.2l1.4-1.3C190.5,33.1,190.8,33,191.1,32.8"/>
				</g>
			</g>
			<g>
				<polygon class="st41" points="190.2,33 188.8,34.3 169.4,30.5 170.8,29.3 				"/>
			</g>
			<g>
				<path class="st42" d="M191.3,32c0,0.7-0.5,1.1-1.2,1l-19.4-3.8c-0.7-0.1-1.2-0.8-1.3-1.5L191.3,32z"/>
			</g>
			<g class="st38">
				<defs>
					<path id="SVGID_19_" class="st38" d="M170.8,29.3l-1.4,1.3c-0.7-0.1-1.2-0.8-1.3-1.5l1.4-1.3C169.6,28.5,170.1,29.1,170.8,29.3
						z"/>
				</defs>
				<clipPath id="SVGID_20_">
					<use xlink:href="#SVGID_19_"  style="overflow:visible;"/>
				</clipPath>
				<g class="st43">
					<path class="st40" d="M170.8,29.3l-1.4,1.3c-0.7-0.1-1.2-0.8-1.3-1.5l1.4-1.3C169.6,28.5,170.1,29.1,170.8,29.3"/>
				</g>
			</g>
		</g>
		<g class="st38">
			<g class="st38">
				<defs>
					<path id="SVGID_21_" class="st38" d="M189.5,35l-1.4,1.3c-0.2,0.2-0.5,0.3-0.9,0.2l1.4-1.3C189,35.2,189.3,35.2,189.5,35z"/>
				</defs>
				<clipPath id="SVGID_22_">
					<use xlink:href="#SVGID_21_"  style="overflow:visible;"/>
				</clipPath>
				<g class="st44">
					<path class="st40" d="M189.5,35l-1.4,1.3c-0.2,0.2-0.5,0.3-0.9,0.2l1.4-1.3C189,35.2,189.3,35.2,189.5,35"/>
				</g>
			</g>
			<g>
				<polygon class="st41" points="188.6,35.2 187.3,36.4 187.1,36.4 188.5,35.1 				"/>
			</g>
			<g>
				<polygon class="st45" points="183.7,37.2 182.3,38.5 182.2,37 183.6,35.8 				"/>
			</g>
			<g class="st38">
				<defs>
					<path id="SVGID_23_" class="st38" d="M183.6,37.5l-1.4,1.3c0.1-0.1,0.1-0.2,0.1-0.3l1.4-1.3C183.7,37.4,183.7,37.5,183.6,37.5z
						"/>
				</defs>
				<clipPath id="SVGID_24_">
					<use xlink:href="#SVGID_23_"  style="overflow:visible;"/>
				</clipPath>
				<g class="st46">
					<path class="st47" d="M183.6,37.5l-1.4,1.3c0.1-0.1,0.1-0.2,0.1-0.3l1.4-1.3C183.7,37.4,183.7,37.5,183.6,37.5"/>
				</g>
			</g>
			<g class="st38">
				<defs>
					<path id="SVGID_25_" class="st38" d="M184.1,38l-1.4,1.3c0,0,0,0,0,0L184.1,38C184.1,38,184.1,38,184.1,38z"/>
				</defs>
				<clipPath id="SVGID_26_">
					<use xlink:href="#SVGID_25_"  style="overflow:visible;"/>
				</clipPath>
				<g class="st48">
					<path class="st47" d="M184.1,38l-1.4,1.3c0,0,0,0,0,0L184.1,38C184.1,38,184.1,38,184.1,38"/>
				</g>
			</g>
			<g class="st38">
				<defs>
					<path id="SVGID_27_" class="st38" d="M184.1,38l-1.4,1.3c-0.1,0.1-0.2,0.1-0.3,0.1l1.4-1.3C183.9,38.1,184,38.1,184.1,38z"/>
				</defs>
				<clipPath id="SVGID_28_">
					<use xlink:href="#SVGID_27_"  style="overflow:visible;"/>
				</clipPath>
				<g class="st49">
					<path class="st47" d="M184.1,38l-1.4,1.3c-0.1,0.1-0.2,0.1-0.3,0.1l1.4-1.3C183.9,38.1,184,38.1,184.1,38"/>
				</g>
			</g>
			<g>
				<polygon class="st45" points="182.3,37 180.9,38.2 180.9,36.8 182.2,35.5 				"/>
			</g>
			<g class="st38">
				<defs>
					<path id="SVGID_29_" class="st38" d="M182.4,37.4l-1.4,1.3c-0.1-0.1-0.1-0.3-0.1-0.4l1.4-1.3C182.3,37.1,182.4,37.3,182.4,37.4
						z"/>
				</defs>
				<clipPath id="SVGID_30_">
					<use xlink:href="#SVGID_29_"  style="overflow:visible;"/>
				</clipPath>
				<g class="st50">
					<path class="st47" d="M182.4,37.4l-1.4,1.3c-0.1-0.1-0.1-0.3-0.1-0.4l1.4-1.3C182.3,37.1,182.4,37.3,182.4,37.4"/>
				</g>
			</g>
			<g class="st38">
				<defs>
					<path id="SVGID_31_" class="st38" d="M183.8,38.2l-1.4,1.3c-0.1,0-0.3,0-0.4,0c-0.2,0-0.3-0.1-0.4-0.2l1.4-1.3
						c0.1,0.1,0.3,0.1,0.4,0.2C183.5,38.2,183.6,38.2,183.8,38.2z"/>
				</defs>
				<clipPath id="SVGID_32_">
					<use xlink:href="#SVGID_31_"  style="overflow:visible;"/>
				</clipPath>
				<g class="st51">
					<path class="st47" d="M183.8,38.2l-1.4,1.3c-0.1,0-0.3,0-0.4,0c-0.2,0-0.3-0.1-0.4-0.2l1.4-1.3c0.1,0.1,0.3,0.1,0.4,0.2
						C183.5,38.2,183.6,38.2,183.8,38.2"/>
				</g>
			</g>
			<g>
				<path class="st52" d="M184.2,35.9l0.1,1.4c0,0.2,0,0.3-0.1,0.4c-0.1,0.1-0.1,0.2-0.2,0.3c-0.1,0.1-0.2,0.1-0.3,0.1
					c-0.1,0-0.3,0-0.4,0c-0.2,0-0.3-0.1-0.4-0.2c-0.1-0.1-0.2-0.1-0.3-0.3c-0.1-0.1-0.2-0.2-0.2-0.3c-0.1-0.1-0.1-0.3-0.1-0.4
					l-0.1-1.4l0.6,0.1l0.1,1.4c0,0.2,0,0.3,0.1,0.4c0.1,0.1,0.2,0.1,0.3,0.2c0.1,0,0.2,0,0.3,0c0.1,0,0.1-0.2,0.1-0.3l-0.1-1.4
					L184.2,35.9z"/>
			</g>
			<g class="st38">
				<defs>
					<path id="SVGID_33_" class="st38" d="M182.9,38l-1.4,1.3c-0.1-0.1-0.2-0.1-0.3-0.3c-0.1-0.1-0.2-0.2-0.2-0.3l1.4-1.3
						c0,0.1,0.1,0.2,0.2,0.3C182.7,37.9,182.8,37.9,182.9,38z"/>
				</defs>
				<clipPath id="SVGID_34_">
					<use xlink:href="#SVGID_33_"  style="overflow:visible;"/>
				</clipPath>
				<g class="st53">
					<path class="st47" d="M182.9,38l-1.4,1.3c-0.1-0.1-0.2-0.1-0.3-0.3c-0.1-0.1-0.2-0.2-0.2-0.3l1.4-1.3c0,0.1,0.1,0.2,0.2,0.3
						C182.7,37.9,182.8,37.9,182.9,38"/>
				</g>
			</g>
			<g>
				<polygon class="st54" points="187.8,45.3 186.4,46.6 185.9,36.2 187.3,34.9 				"/>
			</g>
			<g class="st38">
				<defs>
					<path id="SVGID_35_" class="st38" d="M186.3,41.2l-1.4,1.3c-0.2,0.2-0.5,0.3-0.9,0.2l1.4-1.3C185.7,41.5,186.1,41.4,186.3,41.2
						z"/>
				</defs>
				<clipPath id="SVGID_36_">
					<use xlink:href="#SVGID_35_"  style="overflow:visible;"/>
				</clipPath>
				<g class="st55">
					<path class="st40" d="M186.3,41.2l-1.4,1.3c-0.2,0.2-0.5,0.3-0.9,0.2l1.4-1.3C185.7,41.5,186.1,41.4,186.3,41.2"/>
				</g>
			</g>
			<g class="st38">
				<defs>
					<path id="SVGID_37_" class="st38" d="M180,35.8l-1.4,1.3c-0.1-0.1-0.2-0.2-0.4-0.2l1.4-1.3C179.8,35.6,179.9,35.7,180,35.8z"/>
				</defs>
				<clipPath id="SVGID_38_">
					<use xlink:href="#SVGID_37_"  style="overflow:visible;"/>
				</clipPath>
				<g class="st56">
					<path class="st47" d="M180,35.8l-1.4,1.3c-0.1-0.1-0.2-0.2-0.4-0.2l1.4-1.3C179.8,35.6,179.9,35.7,180,35.8"/>
				</g>
			</g>
			<g>
				<polygon class="st45" points="181.3,37.7 179.9,39 179.8,36.5 181.2,35.3 				"/>
			</g>
			<g class="st38">
				<defs>
					<path id="SVGID_39_" class="st38" d="M180.2,36.2l-1.4,1.3c0-0.2-0.1-0.4-0.1-0.4l1.4-1.3C180.1,35.9,180.2,36,180.2,36.2z"/>
				</defs>
				<clipPath id="SVGID_40_">
					<use xlink:href="#SVGID_39_"  style="overflow:visible;"/>
				</clipPath>
				<g class="st57">
					<path class="st47" d="M180.2,36.2l-1.4,1.3c0-0.2-0.1-0.4-0.1-0.4l1.4-1.3C180.1,35.9,180.2,36,180.2,36.2"/>
				</g>
			</g>
			<g>
				<polygon class="st45" points="180.2,36.4 178.8,37.6 178.8,37.5 180.2,36.2 				"/>
			</g>
			<g>
				<polygon class="st58" points="179.6,35.6 178.2,36.8 178,36.8 179.4,35.5 				"/>
			</g>
			<g>
				<polygon class="st58" points="181.9,37.9 180.5,39.1 179.9,39 181.3,37.7 				"/>
			</g>
			<g>
				<polygon class="st41" points="185.4,41.4 184,42.7 183,42.5 184.4,41.2 				"/>
			</g>
			<g class="st38">
				<defs>
					<path id="SVGID_41_" class="st38" d="M180.1,36.8l-1.4,1.3c0.1-0.1,0.1-0.2,0.1-0.4l1.4-1.3C180.2,36.6,180.2,36.7,180.1,36.8z
						"/>
				</defs>
				<clipPath id="SVGID_42_">
					<use xlink:href="#SVGID_41_"  style="overflow:visible;"/>
				</clipPath>
				<g class="st59">
					<path class="st47" d="M180.1,36.8l-1.4,1.3c0.1-0.1,0.1-0.2,0.1-0.4l1.4-1.3C180.2,36.6,180.2,36.7,180.1,36.8"/>
				</g>
			</g>
			<g class="st38">
				<defs>
					<path id="SVGID_43_" class="st38" d="M180.6,37.3l-1.4,1.3c0,0,0,0,0,0L180.6,37.3C180.6,37.3,180.6,37.3,180.6,37.3z"/>
				</defs>
				<clipPath id="SVGID_44_">
					<use xlink:href="#SVGID_43_"  style="overflow:visible;"/>
				</clipPath>
				<g class="st60">
					<path class="st47" d="M180.6,37.3l-1.4,1.3c0,0,0,0,0,0L180.6,37.3C180.6,37.3,180.6,37.3,180.6,37.3"/>
				</g>
			</g>
			<g>
				<polygon class="st58" points="178.8,35.4 177.4,36.7 176.4,36.5 177.8,35.2 				"/>
			</g>
			<g class="st38">
				<defs>
					<path id="SVGID_45_" class="st38" d="M180.6,37.3l-1.4,1.3c-0.2,0.2-0.5,0.2-0.8,0.1l1.4-1.3C180.1,37.5,180.4,37.5,180.6,37.3
						z"/>
				</defs>
				<clipPath id="SVGID_46_">
					<use xlink:href="#SVGID_45_"  style="overflow:visible;"/>
				</clipPath>
				<g class="st61">
					<path class="st47" d="M180.6,37.3l-1.4,1.3c-0.2,0.2-0.5,0.2-0.8,0.1l1.4-1.3C180.1,37.5,180.4,37.5,180.6,37.3"/>
				</g>
			</g>
			<g>
				<polygon class="st45" points="178.9,37.3 177.5,38.5 177.4,36.7 178.8,35.4 				"/>
			</g>
			<g>
				<polygon class="st58" points="179.7,37.4 178.4,38.7 177.5,38.5 178.9,37.3 				"/>
			</g>
			<g>
				<polygon class="st45" points="176.5,35 175.1,36.2 175.1,35.6 176.5,34.4 				"/>
			</g>
			<g>
				<polygon class="st58" points="177.2,35.1 175.8,36.4 175.1,36.2 176.5,35 				"/>
			</g>
			<g>
				<polygon class="st41" points="187.3,34.9 185.9,36.2 172.6,33.6 174,32.3 				"/>
			</g>
			<g>
				<polygon class="st41" points="183.2,41 181.8,42.2 180.2,41.9 181.6,40.7 				"/>
			</g>
			<g>
				<polygon class="st41" points="181.6,40.7 180.2,41.9 180.2,41.9 181.6,40.7 				"/>
			</g>
			<g>
				<polygon class="st41" points="187.8,46.5 186.5,47.8 185.1,47.6 186.5,46.3 				"/>
			</g>
			<g>
				<path class="st52" d="M180.5,35.4c0.2,0.2,0.3,0.6,0.3,0.9l0,0.2c0,0.4-0.1,0.7-0.3,0.8c-0.2,0.2-0.5,0.2-0.8,0.1l-0.9-0.2
					l-0.1-1.9l-1-0.2l0.1,1.9l-0.6-0.1l-0.1-1.9l-0.7-0.1l0-0.6l2.3,0.4l0.1,0l0.8,0.2C180,35,180.3,35.2,180.5,35.4z M180.2,36.4
					l0-0.2c0-0.2-0.1-0.4-0.1-0.4c-0.1-0.1-0.2-0.2-0.4-0.2l-0.2,0l0.1,1.3l0.2,0c0.2,0,0.3,0,0.4,0
					C180.2,36.7,180.2,36.6,180.2,36.4"/>
			</g>
			<g>
				<polygon class="st58" points="177.9,37.1 176.5,38.4 175.9,38.2 177.3,37 				"/>
			</g>
			<g>
				<polygon class="st45" points="177.3,37 175.9,38.2 175.8,36.4 177.2,35.1 				"/>
			</g>
			<g>
				<polygon class="st41" points="180.4,40.4 179,41.7 177.3,41.4 178.7,40.1 				"/>
			</g>
			<g>
				<polygon class="st54" points="183.4,45.2 182,46.4 181.8,42.2 183.2,41 				"/>
			</g>
			<g>
				<polygon class="st54" points="188,50.4 186.6,51.6 186.5,47.8 187.8,46.5 				"/>
			</g>
			<g class="st38">
				<defs>
					<path id="SVGID_47_" class="st38" d="M189.2,51.6l-1.4,1.3c-0.1,0.1-0.2,0.1-0.4,0.1l1.4-1.3C188.9,51.8,189.1,51.7,189.2,51.6
						z"/>
				</defs>
				<clipPath id="SVGID_48_">
					<use xlink:href="#SVGID_47_"  style="overflow:visible;"/>
				</clipPath>
				<g class="st62">
					<path class="st40" d="M189.2,51.6l-1.4,1.3c-0.1,0.1-0.2,0.1-0.4,0.1l1.4-1.3C188.9,51.8,189.1,51.7,189.2,51.6"/>
				</g>
			</g>
			<g>
				<polygon class="st41" points="177.5,39.9 176.1,41.2 175.1,41 176.4,39.7 				"/>
			</g>
			<g class="st38">
				<defs>
					<path id="SVGID_49_" class="st38" d="M186.5,46.3l-1.4,1.3c-1.3-0.3-2.6-0.1-3.6,0.5l1.4-1.3C183.9,46.2,185.2,46,186.5,46.3z"
						/>
				</defs>
				<clipPath id="SVGID_50_">
					<use xlink:href="#SVGID_49_"  style="overflow:visible;"/>
				</clipPath>
				<g class="st63">
					<path class="st40" d="M186.5,46.3l-1.4,1.3c-1.3-0.3-2.6-0.1-3.6,0.5l1.4-1.3C183.9,46.2,185.2,46,186.5,46.3"/>
				</g>
			</g>
			<g class="st38">
				<defs>
					<path id="SVGID_51_" class="st38" d="M176.4,39.7l-1.4,1.3c-0.7-0.1-1.3-0.8-1.3-1.5l1.4-1.3C175.2,38.9,175.8,39.6,176.4,39.7
						z"/>
				</defs>
				<clipPath id="SVGID_52_">
					<use xlink:href="#SVGID_51_"  style="overflow:visible;"/>
				</clipPath>
				<g class="st64">
					<path class="st40" d="M176.4,39.7l-1.4,1.3c-0.7-0.1-1.3-0.8-1.3-1.5l1.4-1.3C175.2,38.9,175.8,39.6,176.4,39.7"/>
				</g>
			</g>
			<g>
				<polygon class="st54" points="180.6,45.6 179.3,46.8 179,41.7 180.4,40.4 				"/>
			</g>
			<g>
				<polygon class="st54" points="177.6,43.6 176.3,44.9 176.1,41.2 177.5,39.9 				"/>
			</g>
			<g>
				<polygon class="st65" points="182.9,46.8 181.6,48.1 180.1,48.9 181.4,47.7 				"/>
			</g>
			<g>
				<polygon class="st66" points="181.4,47.7 180.1,48.9 178,47.2 179.4,45.9 				"/>
			</g>
			<g class="st38">
				<defs>
					<path id="SVGID_53_" class="st38" d="M179.4,45.9l-1.4,1.3c-1-0.9-2.2-1.5-3.4-1.7l1.4-1.3C177.1,44.5,178.3,45.1,179.4,45.9z"
						/>
				</defs>
				<clipPath id="SVGID_54_">
					<use xlink:href="#SVGID_53_"  style="overflow:visible;"/>
				</clipPath>
				<g class="st67">
					<path class="st40" d="M179.4,45.9l-1.4,1.3c-1-0.9-2.2-1.5-3.4-1.7l1.4-1.3C177.1,44.5,178.3,45.1,179.4,45.9"/>
				</g>
			</g>
			<g>
				<polygon class="st41" points="175.9,44.2 174.6,45.5 173.2,45.2 174.5,44 				"/>
			</g>
			<g>
				<path class="st42" d="M171.5,30.6l18.3,3.6c0,0.7-0.5,1.1-1.2,1l-0.2,0l0.8,15.6l0,0.5c0,0.3-0.2,0.5-0.5,0.5l-2-0.4
					c-1.3-0.3-2.6-0.1-3.6,0.5l-1.5,0.9l-2.1-1.7c-1-0.9-2.2-1.5-3.4-1.7l-2-0.4c-0.3-0.1-0.6-0.4-0.6-0.7l0-0.5l-0.8-15.6
					C172.1,32,171.5,31.3,171.5,30.6z M187.8,45.3l-0.5-10.4L174,32.3l0.5,10.4l1.4,0.3c0.6,0.1,1.2,0.3,1.8,0.6l-0.2-3.7l-1-0.2
					c-0.7-0.1-1.3-0.8-1.3-1.5l11.4,2.2c0,0.7-0.5,1.1-1.2,1l-1-0.2l0.2,3.7c0.6-0.1,1.3,0,1.9,0.1L187.8,45.3 M188,50.4l-0.2-3.8
					l-1.3-0.3c-1.3-0.3-2.6-0.1-3.6,0.5l-1.5,0.9l-2.1-1.7c-1-0.9-2.2-1.5-3.4-1.7l-1.4-0.3l0.2,3.8l1.4,0.3c1.5,0.3,2.9,1,4.1,2
					l1.3,1.1l0.8-0.5c1.2-0.7,2.7-0.9,4.3-0.6L188,50.4 M178.9,44.2c0.4,0.3,0.8,0.5,1.2,0.8l0.6,0.5l-0.3-5.1l-1.7-0.3L178.9,44.2
					 M181.8,45.9l0.3-0.2c0.4-0.2,0.8-0.4,1.2-0.5l-0.2-4.2l-1.6-0.3l0,0L181.8,45.9"/>
			</g>
			<g>
				<polygon class="st52" points="181.8,35.4 181.9,37.9 181.3,37.7 181.2,35.3 				"/>
			</g>
			<g class="st38">
				<defs>
					<path id="SVGID_55_" class="st38" d="M172.8,32.1l-1.4,1.3c-0.7-0.1-1.3-0.8-1.3-1.5l1.4-1.3C171.5,31.3,172.1,32,172.8,32.1z"
						/>
				</defs>
				<clipPath id="SVGID_56_">
					<use xlink:href="#SVGID_55_"  style="overflow:visible;"/>
				</clipPath>
				<g class="st68">
					<path class="st40" d="M172.8,32.1l-1.4,1.3c-0.7-0.1-1.3-0.8-1.3-1.5l1.4-1.3C171.5,31.3,172.1,32,172.8,32.1"/>
				</g>
			</g>
			<g>
				<polygon class="st41" points="188.7,51.7 187.4,53 185.4,52.6 186.8,51.3 				"/>
			</g>
			<g class="st38">
				<defs>
					<path id="SVGID_57_" class="st38" d="M186.8,51.3l-1.4,1.3c-1.3-0.3-2.6-0.1-3.6,0.5l1.4-1.3C184.2,51.3,185.5,51.1,186.8,51.3
						z"/>
				</defs>
				<clipPath id="SVGID_58_">
					<use xlink:href="#SVGID_57_"  style="overflow:visible;"/>
				</clipPath>
				<g class="st69">
					<path class="st40" d="M186.8,51.3l-1.4,1.3c-1.3-0.3-2.6-0.1-3.6,0.5l1.4-1.3C184.2,51.3,185.5,51.1,186.8,51.3"/>
				</g>
			</g>
			<g>
				<polygon class="st65" points="183.2,51.9 181.8,53.1 180.3,54 181.7,52.7 				"/>
			</g>
			<g>
				<polygon class="st66" points="181.7,52.7 180.3,54 178.3,52.3 179.6,51 				"/>
			</g>
			<g class="st38">
				<defs>
					<path id="SVGID_59_" class="st38" d="M179.6,51l-1.4,1.3c-1-0.9-2.2-1.5-3.4-1.7l1.4-1.3C177.4,49.5,178.6,50.1,179.6,51z"/>
				</defs>
				<clipPath id="SVGID_60_">
					<use xlink:href="#SVGID_59_"  style="overflow:visible;"/>
				</clipPath>
				<g class="st70">
					<path class="st40" d="M179.6,51l-1.4,1.3c-1-0.9-2.2-1.5-3.4-1.7l1.4-1.3C177.4,49.5,178.6,50.1,179.6,51"/>
				</g>
			</g>
			<g>
				<polygon class="st54" points="173.5,47.7 172.2,49 171.4,33.4 172.8,32.1 				"/>
			</g>
			<g>
				<polygon class="st54" points="173.6,48.2 172.2,49.5 172.2,49 173.5,47.7 				"/>
			</g>
			<g>
				<polygon class="st41" points="176.2,49.3 174.8,50.6 172.8,50.2 174.1,48.9 				"/>
			</g>
			<g class="st38">
				<defs>
					<path id="SVGID_61_" class="st38" d="M174.1,48.9l-1.4,1.3c-0.3-0.1-0.6-0.4-0.6-0.7l1.4-1.3C173.6,48.5,173.8,48.8,174.1,48.9
						z"/>
				</defs>
				<clipPath id="SVGID_62_">
					<use xlink:href="#SVGID_61_"  style="overflow:visible;"/>
				</clipPath>
				<g class="st71">
					<path class="st40" d="M174.1,48.9l-1.4,1.3c-0.3-0.1-0.6-0.4-0.6-0.7l1.4-1.3C173.6,48.5,173.8,48.8,174.1,48.9"/>
				</g>
			</g>
		</g>
	</g>
</g>
</svg>
