<svg width="260" height="124" viewBox="0 0 260 124" fill="none" xmlns="http://www.w3.org/2000/svg">
<path fill-rule="evenodd" clip-rule="evenodd" d="M23.4388 123.033C10.4073 122.521 0 111.794 0 98.6373C0 86.1106 9.43382 75.7874 21.5844 74.3845C23.0022 54.6412 39.4686 39.0643 59.5731 39.0643C62.5176 39.0643 65.3839 39.3984 68.1364 40.0308C76.8138 16.6889 99.8747 0 126.959 0C152.652 0 174.725 15.0184 184.332 36.4877C187.523 35.6207 190.88 35.1579 194.345 35.1579C215.38 35.1579 232.433 52.2104 232.433 73.2456C232.433 73.6312 232.427 74.0154 232.416 74.3981C233.382 74.2819 234.365 74.2221 235.363 74.2221C248.847 74.2221 259.778 85.1532 259.778 98.6373C259.778 112.121 248.847 123.053 235.363 123.053C235.036 123.053 234.71 123.046 234.386 123.033V123.053H23.4388V123.033Z" fill="#E1E6F0"/>
</svg>
