<svg width="119" height="56" viewBox="0 0 119 56" fill="none" xmlns="http://www.w3.org/2000/svg">
<path fill-rule="evenodd" clip-rule="evenodd" d="M10.6668 55.9912C4.73629 55.758 0 50.8765 0 44.8888C0 39.188 4.29321 34.49 9.82281 33.8516C10.468 24.8666 17.9617 17.7777 27.1111 17.7777C28.451 17.7777 29.7555 17.9298 31.0081 18.2176C34.9571 7.59495 45.4518 0 57.7777 0C69.4704 0 79.5153 6.83473 83.8876 16.6052C85.3396 16.2106 86.8674 16 88.4444 16C98.0173 16 105.778 23.7604 105.778 33.3333C105.778 33.5088 105.775 33.6836 105.77 33.8578C106.21 33.8049 106.657 33.7777 107.111 33.7777C113.247 33.7777 118.222 38.7523 118.222 44.8888C118.222 51.0253 113.247 55.9999 107.111 55.9999C106.962 55.9999 106.814 55.997 106.667 55.9912V56H10.6668V55.9912Z" fill="#E1E6F0"/>
</svg>
