<svg width="244" height="116" viewBox="0 0 244 116" fill="none" xmlns="http://www.w3.org/2000/svg">
<path fill-rule="evenodd" clip-rule="evenodd" d="M21.9954 115.456C9.76643 114.975 0 104.909 0 92.5624C0 80.8073 8.85263 71.1199 20.2547 69.8033C21.5851 51.276 37.0374 36.6584 55.9037 36.6584C58.6669 36.6584 61.3568 36.972 63.9398 37.5654C72.0827 15.6611 93.7233 0 119.14 0C143.251 0 163.963 14.0934 172.979 34.2405C175.973 33.4268 179.124 32.9925 182.376 32.9925C202.115 32.9925 218.117 48.9947 218.117 68.7344C218.117 69.0962 218.112 69.4568 218.101 69.816C219.008 69.707 219.93 69.6509 220.866 69.6509C233.52 69.6509 243.778 79.9087 243.778 92.5624C243.778 105.216 233.52 115.474 220.866 115.474C220.559 115.474 220.254 115.468 219.951 115.456V115.474H21.9954V115.456Z" fill="#EEF3F8"/>
</svg>
