<svg width="157" height="74" viewBox="0 0 157 74" fill="none" xmlns="http://www.w3.org/2000/svg">
<path fill-rule="evenodd" clip-rule="evenodd" d="M14.0954 73.9884C6.25867 73.6802 0 67.2297 0 59.3174C0 51.7842 5.67318 45.5762 12.9801 44.7325C13.8327 32.8595 23.7351 23.492 35.8253 23.492C37.596 23.492 39.3197 23.693 40.975 24.0732C46.1933 10.0362 60.0613 0 76.3491 0C91.8002 0 105.074 9.03162 110.851 21.9426C112.77 21.4212 114.789 21.1429 116.873 21.1429C129.523 21.1429 139.778 31.3977 139.778 44.0476C139.778 44.2795 139.774 44.5105 139.767 44.7407C140.348 44.6708 140.94 44.6348 141.54 44.6348C149.648 44.6348 156.222 51.2084 156.222 59.3174C156.222 67.4263 149.648 73.9999 141.54 73.9999C141.343 73.9999 141.147 73.996 140.952 73.9884V73.9999H14.0954V73.9884Z" fill="#EEF3F8"/>
</svg>
