<svg width="216" height="54" viewBox="0 0 216 54" fill="none" xmlns="http://www.w3.org/2000/svg">
<path d="M106.558 35.0505H95.939V18.0918H106.558V20.4349H99.0079V25.0516H106.083V27.3715H99.0079V32.6957H106.558V35.0505Z" fill="#122E8D"/>
<path d="M117.511 21.9893C118.119 21.9893 118.62 22.0279 119.014 22.1053L118.718 24.6456C118.29 24.5528 117.845 24.5064 117.383 24.5064C116.176 24.5064 115.196 24.8621 114.442 25.5736C113.698 26.285 113.325 27.2091 113.325 28.3459V35.0505H110.308V22.2213H112.67L113.068 24.4832H113.222C113.693 23.7176 114.305 23.1106 115.059 22.6621C115.821 22.2135 116.638 21.9893 117.511 21.9893Z" fill="#122E8D"/>
<path d="M130.544 35.0505L129.941 33.2641H129.838C129.153 34.0452 128.464 34.5788 127.771 34.8649C127.078 35.1433 126.187 35.2825 125.1 35.2825C123.705 35.2825 122.613 34.9422 121.826 34.2617C121.047 33.5812 120.657 32.6184 120.657 31.3734C120.657 30.051 121.201 29.0535 122.288 28.3807C123.375 27.7079 125.032 27.3406 127.257 27.2787L129.71 27.2091V26.5247C129.71 25.705 129.496 25.0941 129.068 24.692C128.648 24.2821 127.993 24.0772 127.103 24.0772C126.376 24.0772 125.678 24.1739 125.01 24.3672C124.342 24.5605 123.7 24.7887 123.084 25.0516L122.108 23.1028C122.879 22.7394 123.722 22.4649 124.638 22.2793C125.554 22.0859 126.418 21.9893 127.232 21.9893C129.038 21.9893 130.399 22.345 131.315 23.0564C132.239 23.7679 132.702 24.8853 132.702 26.4087V35.0505H130.544ZM126.05 33.1945C127.146 33.1945 128.023 32.92 128.683 32.371C129.35 31.8142 129.684 31.037 129.684 30.0394V28.9259L127.861 28.9955C126.44 29.0419 125.404 29.2584 124.753 29.645C124.111 30.024 123.79 30.6078 123.79 31.3966C123.79 31.9688 123.979 32.4135 124.355 32.7305C124.732 33.0399 125.297 33.1945 126.05 33.1945Z" fill="#122E8D"/>
<path d="M146.454 31.3966C146.454 32.6493 145.949 33.6121 144.939 34.2849C143.929 34.9499 142.482 35.2825 140.599 35.2825C138.707 35.2825 137.187 35.0234 136.04 34.5053V32.1506C137.71 32.8465 139.263 33.1945 140.701 33.1945C142.559 33.1945 143.488 32.688 143.488 31.675C143.488 31.3502 143.385 31.0795 143.18 30.863C142.974 30.6465 142.636 30.4222 142.165 30.1902C141.694 29.9582 141.04 29.6953 140.201 29.4014C138.566 28.8292 137.457 28.257 136.875 27.6847C136.301 27.1125 136.015 26.3701 136.015 25.4576C136.015 24.3595 136.503 23.5088 137.478 22.9056C138.463 22.2947 139.798 21.9893 141.485 21.9893C143.154 21.9893 144.733 22.2947 146.223 22.9056L145.247 24.9588C143.715 24.3865 142.426 24.1004 141.382 24.1004C139.79 24.1004 138.994 24.5103 138.994 25.33C138.994 25.7321 139.199 26.0724 139.61 26.3507C140.029 26.6291 140.937 27.0119 142.332 27.4991C143.505 27.909 144.357 28.284 144.887 28.6243C145.418 28.9645 145.812 29.3589 146.069 29.8074C146.326 30.2482 146.454 30.7779 146.454 31.3966Z" fill="#122E8D"/>
<path d="M161.696 35.0505H158.666V27.1395C158.666 26.1574 158.46 25.4266 158.049 24.9472C157.638 24.46 156.996 24.2164 156.123 24.2164C154.959 24.2164 154.103 24.5605 153.555 25.2488C153.016 25.9293 152.746 27.0661 152.746 28.6591V35.0505H149.728V22.2213H152.091L152.515 23.9032H152.669C153.063 23.2923 153.632 22.8206 154.377 22.4881C155.13 22.1555 155.956 21.9893 156.855 21.9893C159.038 21.9893 160.485 22.6621 161.195 24.0076H161.401C161.82 23.3735 162.411 22.8786 163.173 22.5229C163.934 22.1671 164.808 21.9893 165.792 21.9893C167.487 21.9893 168.72 22.3759 169.49 23.1492C170.269 23.9226 170.659 25.1018 170.659 26.6871V35.0505H167.641V27.1395C167.641 26.1574 167.431 25.4266 167.012 24.9472C166.601 24.46 165.959 24.2164 165.086 24.2164C163.913 24.2164 163.053 24.5489 162.505 25.214C161.966 25.8713 161.696 26.8843 161.696 28.2531V35.0505Z" fill="#122E8D"/>
<path d="M184.886 35.0505L184.462 33.3685H184.308C183.889 33.964 183.29 34.4318 182.511 34.7721C181.74 35.1123 180.858 35.2825 179.865 35.2825C178.145 35.2825 176.861 34.8958 176.013 34.1225C175.166 33.3492 174.742 32.1776 174.742 30.6078V22.2213H177.785V30.1322C177.785 31.1143 178.008 31.8528 178.453 32.3478C178.898 32.8349 179.596 33.0785 180.546 33.0785C181.813 33.0785 182.742 32.7383 183.332 32.0578C183.932 31.3695 184.231 30.2212 184.231 28.6127V22.2213H187.262V35.0505H184.886Z" fill="#122E8D"/>
<path d="M201.104 31.3966C201.104 32.6493 200.599 33.6121 199.589 34.2849C198.579 34.9499 197.132 35.2825 195.249 35.2825C193.357 35.2825 191.837 35.0234 190.69 34.5053V32.1506C192.359 32.8465 193.913 33.1945 195.351 33.1945C197.209 33.1945 198.138 32.688 198.138 31.675C198.138 31.3502 198.035 31.0795 197.829 30.863C197.624 30.6465 197.286 30.4222 196.815 30.1902C196.344 29.9582 195.689 29.6953 194.85 29.4014C193.215 28.8292 192.107 28.257 191.525 27.6847C190.951 27.1125 190.664 26.3701 190.664 25.4576C190.664 24.3595 191.152 23.5088 192.128 22.9056C193.113 22.2947 194.448 21.9893 196.135 21.9893C197.804 21.9893 199.383 22.2947 200.873 22.9056L199.897 24.9588C198.365 24.3865 197.076 24.1004 196.032 24.1004C194.44 24.1004 193.643 24.5103 193.643 25.33C193.643 25.7321 193.849 26.0724 194.26 26.3507C194.679 26.6291 195.587 27.0119 196.982 27.4991C198.155 27.909 199.007 28.284 199.537 28.6243C200.068 28.9645 200.462 29.3589 200.719 29.8074C200.975 30.2482 201.104 30.7779 201.104 31.3966Z" fill="#122E8D"/>
<path d="M208.564 27.7079H203.454V25.6432H208.564V20.9105H210.876V25.6432H215.999V27.7079H210.876V32.4174H208.564V27.7079Z" fill="#122E8D"/>
<g clip-path="url(#clip0)">
<path d="M0.0107422 51.7266C0.0107422 52.8311 0.906173 53.7266 2.01074 53.7266H81.3758C82.4803 53.7266 83.3758 52.8311 83.3758 51.7266V2.27539C83.3758 1.17082 82.4803 0.275391 81.3758 0.275391H2.01074C0.906172 0.275391 0.0107422 1.17082 0.0107422 2.27539V51.7266Z" fill="#122E8D"/>
<path d="M24.0329 20.8861L24.6219 19.1221L23.0782 18.032H24.9871L25.576 16.2698L26.1649 18.0338H28.0732L26.5301 19.1221L27.1184 20.8861L25.576 19.7942L24.0329 20.8861ZM21.7891 29.6892L22.3793 27.9264L20.835 26.8357H22.7432L23.334 25.0747L23.923 26.8357H25.8318L24.2881 27.9264L24.8771 29.6898L23.334 28.5997L21.7891 29.6892ZM40.1335 46.691L40.7237 44.9306L39.1806 43.8411H41.0889L41.6778 42.0765L42.268 43.8411H44.175L42.6319 44.9306L43.2208 46.691L41.6778 45.6033L40.1335 46.691ZM30.7281 14.6215L31.3183 12.8593L29.7746 11.7686H31.6835L32.2724 10.0058L32.862 11.7686H34.7696L33.2253 12.8593L33.8155 14.6215L32.2724 13.5326L30.7281 14.6215ZM24.1568 38.039L24.7457 36.2762L23.2033 35.1873H25.1109L25.6998 33.4239L26.2906 35.1873H28.1982L26.6539 36.2762L27.2454 38.039L25.6998 36.9501L24.1568 38.039ZM30.884 44.3944L31.4735 42.6322L29.9299 41.5409H31.8375L32.427 39.7799L33.0172 41.5409H34.9261L33.3805 42.6322L33.972 44.3944L32.427 43.3031L30.884 44.3944ZM49.2278 44.2116L49.8186 42.4488L48.273 41.3599H50.1812L50.7714 39.5965L51.3623 41.3599H53.2692L51.7274 42.4488L52.3145 44.2116L50.7714 43.1233L49.2278 44.2116ZM55.7061 37.9781L56.295 36.2159L54.7526 35.127H56.6602L57.2497 33.3635L57.8393 35.127H59.7475L58.2045 36.2159L58.7928 37.9781L57.2497 36.8886L55.7061 37.9781ZM58.5106 29.295L59.0983 27.5334L57.5552 26.4421H59.4634L60.0536 24.6793L60.6407 26.4421H62.5495L61.0065 27.5334L61.5961 29.295L60.0536 28.2055L58.5106 29.295ZM55.7997 20.6125L56.388 18.8491L54.8443 17.7602H56.7526L57.3434 15.9974L57.933 17.7602H59.8406L58.2969 18.8491L58.8871 20.6125L57.3434 19.5236L55.7997 20.6125ZM49.1039 14.4704L49.6948 12.7076L48.1486 11.6175H50.0574L50.6476 9.85527L51.2372 11.6175H53.1467L51.6017 12.7076L52.1913 14.4704L50.6476 13.3815L49.1039 14.4704ZM39.8544 11.9282L40.4434 10.1666L38.8997 9.07593H40.8079L41.3968 7.3125L41.987 9.07593H43.894L42.3503 10.1666L42.9405 11.9301L41.3968 10.8387L39.8544 11.9282Z" fill="#FCFC02"/>
</g>
<defs>
<clipPath id="clip0">
<rect width="83.3864" height="53.4512" fill="white" transform="translate(0 0.275391)"/>
</clipPath>
</defs>
</svg>
