<svg width="1440" height="248" viewBox="0 0 1440 248" fill="none" xmlns="http://www.w3.org/2000/svg">
<path d="M1639 152.808C1639 197.265 1639 220.336 1639 264.793C1637.76 264.793 1636.32 265 1635.08 265C1008.83 265 382.376 265 -243.87 265C-244.696 265 -245.522 265 -246.348 265C-246.761 265 -247.381 264.793 -247.794 264.793C-247.794 264.38 -248 264.38 -248 264.173C-248 169.676 -248 96.5647 -248 2.27449C-248 1.65416 -248 1.03385 -247.794 0.413516V0.206726C-247.794 0.206726 -247.794 0.206777 -247.587 0C-232.927 0 -218.061 0 -202.988 0C-202.988 66.1686 -202.988 132.337 -202.988 198.712C-201.543 198.712 -200.304 198.712 -198.858 198.712C-198.858 197.679 -198.858 196.645 -198.858 195.611C-198.858 162.32 -198.858 129.029 -198.858 95.5309C-198.858 94.497 -198.858 93.6699 -198.652 92.636C-186.883 92.636 -175.32 92.636 -163.551 92.636C-163.551 127.995 -163.551 163.354 -163.551 198.712C-162.105 198.712 -160.866 198.712 -159.421 198.712C-159.421 189.821 -159.421 180.93 -159.421 172.038C-159.421 163.147 -159.421 154.255 -159.421 145.364C-159.421 136.473 -159.421 127.788 -159.421 118.897C-159.421 110.005 -159.421 101.321 -159.421 92.4293C-159.421 83.5379 -159.421 74.6464 -159.421 65.755C-159.421 57.0704 -159.628 48.1789 -159.421 39.4943C-156.324 38.874 -109.866 39.0808 -108.215 39.7011C-108.215 41.3553 -108.215 43.0095 -108.215 44.6637C-108.215 46.318 -108.215 48.1789 -108.215 49.8332C-108.215 51.4874 -108.421 53.1416 -107.802 55.0026C-96.4453 55.0026 -85.2955 55.0026 -73.7328 55.0026C-73.7328 67.2024 -73.7328 78.9887 -73.7328 90.9818C-73.7328 102.975 -73.7328 114.968 -73.7328 126.961C-73.7328 138.954 -73.7328 150.74 -73.7328 162.733C-73.7328 174.726 -73.7328 186.719 -73.7328 198.506C-72.2875 198.506 -71.0486 198.506 -69.6032 198.506C-69.6032 158.184 -69.6032 118.07 -69.6032 77.9548C-66.919 77.5413 -29.1336 77.5413 -27.4818 78.1616C-27.4818 81.47 -27.4818 84.7785 -27.4818 88.2937C-23.7652 88.5004 -20.4616 88.5005 -16.745 88.7072C-16.745 93.4631 -16.745 97.8054 -16.745 102.355C-16.745 106.904 -16.7449 111.246 -16.5385 116.002C-15.0931 115.795 -13.8543 115.795 -12.6154 115.795C-12.2025 115.795 -11.7895 115.381 -11.7895 115.175C-11.3765 114.348 -10.7571 114.141 -9.9312 114.141C-8.69234 113.934 -7.45346 113.934 -6.42107 113.934C4.72873 113.934 15.6721 113.934 26.8219 113.934C27.4413 113.934 28.0607 113.934 28.6801 114.141C28.8866 116.002 29.2996 117.863 29.506 119.931C31.7773 119.931 33.8421 119.931 35.9069 119.931C41.4818 119.931 46.8502 119.931 52.4251 120.137C53.251 120.137 54.2834 120.551 55.1093 120.758C56.1417 120.964 57.174 121.585 58.4129 121.585C60.8907 121.792 63.5749 121.585 66.0526 121.791C67.2915 121.791 68.3238 121.998 69.5627 122.205C69.5627 123.032 69.5627 123.446 69.5627 124.066C69.5627 147.845 69.3563 171.625 69.3563 195.404C69.3563 196.024 69.3563 196.645 69.3563 197.265C69.5627 198.712 69.7692 199.126 71.4211 199.126C72.2469 199.126 73.2793 199.126 74.1053 198.919C74.1053 197.058 74.1053 195.404 74.1053 193.75C74.1053 191.062 73.8988 188.374 73.8988 185.686C73.8988 183.204 74.7247 180.93 76.17 178.862C77.8218 176.381 79.2672 173.899 80.919 171.625C81.1255 171.211 81.332 170.798 81.5384 170.384C80.2996 169.557 79.2672 168.73 78.0283 168.11C74.3117 165.421 72.6599 161.906 73.2793 157.357C73.8987 150.947 78.6477 146.398 85.0486 146.191C91.8623 145.984 96.6114 149.706 97.6437 156.323C98.4696 160.872 97.4372 164.801 93.3076 167.696C92.2753 168.316 91.4493 169.143 90.6234 169.971C90.2105 170.384 89.7975 171.004 89.3846 171.418C90.83 173.692 92.2753 175.76 93.5141 177.828C94.1336 178.655 94.5465 179.275 95.5789 179.689C96.8178 180.103 97.2308 180.93 97.2308 182.17C97.2308 187.133 97.2308 192.096 97.2308 196.852C97.2308 197.472 97.2308 198.299 97.2308 198.919C100.534 199.333 105.283 198.919 106.935 198.299C106.935 166.869 106.935 135.232 106.935 103.802C107.348 103.595 107.348 103.388 107.555 103.388C111.271 101.734 114.988 100.287 118.704 98.6326C119.53 98.219 120.356 98.4257 121.182 98.8393C123.66 100.08 126.344 101.114 128.822 102.561C132.125 104.215 132.125 104.422 132.125 108.144C132.125 136.473 132.125 164.801 132.125 193.129C132.125 194.577 132.125 195.818 132.332 197.265C132.538 199.126 132.951 199.333 135.223 198.919C135.223 198.092 135.223 197.472 135.223 196.645C135.429 174.313 135.842 151.981 136.049 129.856C136.049 129.442 136.049 129.235 136.049 128.822C136.049 127.788 136.668 127.168 137.494 126.961C140.385 126.341 143.069 126.754 145.753 127.995C145.753 130.063 144.101 131.717 144.927 133.991C145.96 131.717 147.611 130.476 149.263 129.236C150.089 128.822 150.708 128.202 151.328 127.374C152.154 126.134 153.186 125.927 154.632 125.72C155.251 125.72 155.87 125.514 156.283 125.1C156.903 124.686 157.522 123.859 158.142 123.239C158.761 122.619 159.174 121.998 158.968 120.964C158.555 120.551 157.935 120.137 157.522 119.931C157.522 118.69 157.729 117.863 158.968 117.656C162.271 116.829 165.368 117.036 168.466 118.07C168.879 119.31 169.085 120.344 168.053 121.378C167.433 121.792 167.433 122.825 167.02 123.653C167.433 123.859 167.846 123.859 168.053 123.859C171.769 124.066 174.66 125.927 177.138 128.615C178.17 129.649 179.409 130.269 180.441 131.096C181.061 131.51 181.68 131.717 182.3 132.13C182.3 134.198 182.3 136.473 182.3 138.54C182.919 136.059 182.919 133.785 182.506 131.303C182.506 130.89 182.3 130.476 182.093 130.269C181.061 129.649 181.267 128.615 181.267 127.581C184.984 126.341 188.494 125.927 192.211 127.995C192.004 128.822 191.798 129.442 191.591 130.063C191.385 130.476 191.385 131.096 191.385 131.51C191.591 134.612 192.211 137.507 192.211 140.608C192.417 149.706 192.417 159.011 192.417 168.11C192.417 177.621 192.211 187.133 192.211 196.852C192.211 197.679 192.211 198.506 192.211 199.126C195.308 199.126 198.405 199.126 201.296 199.126C201.296 192.509 201.296 185.892 201.296 179.276C200.676 179.069 200.057 178.862 199.437 178.655C198.611 178.242 197.579 178.035 196.753 177.414C195.514 176.587 195.514 175.967 196.753 175.14C197.372 174.726 197.992 174.313 198.611 174.106C199.85 173.486 201.296 173.072 202.534 172.452C203.98 171.831 204.186 171.625 203.98 169.971C203.98 169.143 203.773 168.316 203.36 167.489C202.947 166.455 203.154 165.628 203.98 165.008C204.599 164.388 205.632 164.388 206.664 165.008C207.49 165.421 207.49 166.249 207.077 166.869C206.87 167.489 206.664 168.109 206.457 168.73C205.838 171.831 206.251 172.245 209.142 172.865C209.555 172.865 209.968 173.072 210.381 173.072C211 173.279 211.619 173.486 212.239 173.899C213.271 174.52 213.891 175.554 213.684 176.794C213.684 178.035 212.652 178.242 211.619 178.655C210.794 178.862 209.761 179.069 208.935 179.276C208.935 185.892 208.935 192.509 208.935 199.126C212.445 199.126 215.955 199.126 219.466 199.126C219.466 198.092 219.672 197.265 219.672 196.645C219.879 188.994 220.085 181.343 220.085 173.899C220.085 172.245 220.085 170.798 219.259 169.143C218.433 167.903 219.053 166.869 220.498 166.248C221.117 166.042 221.737 165.835 222.356 165.835C223.595 165.835 225.04 165.835 226.486 165.835C228.344 165.835 228.551 166.249 228.344 168.11C227.931 171.211 227.518 174.313 227.518 177.414C227.518 184.238 227.931 191.062 228.138 197.885C228.138 198.299 228.344 198.712 228.344 199.333C230.615 199.333 232.887 199.333 235.158 199.333C235.158 198.299 235.158 197.265 235.158 196.438C235.364 192.716 235.571 189.201 235.984 185.479C236.19 183.825 237.016 182.791 238.462 182.17C240.113 181.55 241.352 180.309 242.385 178.862C242.591 178.448 243.004 178.242 243.211 177.828C244.036 178.862 244.862 180.516 246.721 179.482C246.927 174.106 246.927 168.937 247.134 163.56C251.676 163.147 316.097 163.354 317.955 163.974C317.955 164.594 317.955 165.421 317.955 166.042C317.955 169.971 317.955 173.899 317.955 178.035C317.955 179.482 318.575 179.896 319.814 179.276C320.433 178.862 321.053 179.069 321.466 179.276C322.292 179.689 323.117 180.309 324.15 180.723C328.073 183.204 329.931 186.719 329.725 191.269C329.518 193.336 329.518 195.404 329.312 197.472C329.312 198.092 329.312 198.919 329.312 199.54C331.583 199.54 333.441 199.54 335.506 199.54C335.506 198.506 335.713 197.472 335.713 196.645C335.713 193.957 335.919 191.062 335.919 188.374C336.126 183.411 336.125 178.448 336.332 173.486C336.332 172.245 336.332 170.798 335.506 169.557C335.093 169.143 335.3 168.316 335.093 167.696C338.397 166.662 341.494 166.662 344.591 167.489C342.526 178.242 343.765 188.787 344.178 199.54C347.275 199.54 349.96 199.54 353.263 199.54C352.85 198.713 352.644 197.885 352.231 197.265C350.372 194.577 350.372 191.889 352.024 189.201C352.231 188.994 352.437 188.58 352.437 188.374C353.057 186.513 353.676 184.652 354.089 182.791C354.502 180.516 354.502 178.448 354.502 176.174C354.502 170.177 354.296 164.181 354.296 158.184C354.296 155.91 353.883 154.049 352.644 151.981C352.024 150.947 351.818 149.293 351.818 147.845C351.818 147.225 353.263 146.605 353.883 145.984C353.883 145.984 354.089 145.778 354.296 145.778C355.534 145.157 355.741 144.33 355.741 142.883C355.534 141.435 355.741 139.988 355.741 138.54C355.534 126.134 355.121 113.934 355.741 101.527C355.741 99.8732 355.947 98.4257 356.154 96.7715C356.567 97.1851 356.773 97.3919 356.773 97.8054C356.98 101.734 357.393 105.663 357.393 109.592C357.393 120.344 357.186 131.097 356.98 141.642C356.98 143.71 357.186 145.157 359.251 146.191C361.316 147.225 361.729 150.74 360.283 152.395C358.838 154.049 358.425 155.91 358.425 157.977C358.425 163.767 358.219 169.557 358.425 175.347C358.425 180.309 358.838 185.272 361.109 189.821C362.142 191.889 361.935 193.75 360.696 195.818C360.077 196.852 359.664 198.299 358.838 199.746C362.968 199.54 366.684 199.333 370.607 199.333C370.814 181.964 371.02 164.801 371.02 147.639C377.628 144.537 384.441 143.71 391.668 143.917C391.462 162.32 391.462 180.723 391.255 199.333C392.494 198.506 392.081 197.472 392.287 196.645C392.494 180.93 392.494 165.215 392.7 149.5C392.7 147.018 392.7 144.744 392.907 142.262C392.907 141.022 392.494 139.988 391.255 139.574C391.049 139.368 390.842 139.368 390.636 139.161C389.397 138.54 388.984 137.507 388.777 136.266C388.777 134.198 388.777 132.13 388.571 130.269C388.571 129.029 388.777 128.408 390.016 127.995C391.668 127.374 393.32 126.341 394.765 125.514C398.069 123.653 399.721 120.964 400.134 117.242C400.546 114.141 400.96 111.246 401.579 107.938C402.611 110.832 403.437 113.52 403.024 116.415C402.611 119.517 403.644 121.585 406.121 123.032C406.741 123.446 407.36 124.066 408.186 124.48C410.251 125.72 412.316 127.168 414.587 128.408C415.413 128.822 415.826 129.442 415.826 130.476C415.826 132.337 415.619 134.405 415.619 136.266C415.619 137.3 415.206 138.127 414.381 138.747C413.968 139.161 413.555 139.368 412.935 139.574C412.109 139.988 411.903 140.608 411.696 141.229C411.49 143.296 412.316 144.123 414.381 144.123C420.575 144.123 426.563 145.778 432.757 147.639C432.757 165.008 432.757 182.377 432.757 199.54C436.887 200.367 439.158 199.333 441.016 196.024C441.223 195.611 441.429 194.99 441.842 194.577C442.462 193.543 443.287 192.923 444.526 192.923C445.559 192.716 446.591 192.716 447.623 192.716C449.482 192.509 450.927 191.889 452.166 190.441C452.785 189.614 453.405 188.787 453.818 187.753C454.437 186.513 455.057 185.065 455.47 183.618C456.502 179.896 457.328 176.174 458.154 172.452C455.263 170.591 452.372 169.971 449.275 169.971C449.895 173.693 451.753 176.174 454.85 177.828C454.85 178.655 454.85 179.482 455.057 180.309C452.785 180.103 450.927 179.482 449.895 177.621C448.656 175.14 447.417 172.659 446.385 170.177C445.559 168.316 446.178 167.489 448.243 167.489C449.688 167.489 451.134 167.489 452.579 167.489C453.611 167.489 454.231 167.076 454.231 166.042C454.437 162.94 454.644 159.838 454.644 156.737C454.644 155.496 454.644 154.049 453.611 152.601C452.579 154.876 454.644 157.357 452.579 159.011C451.34 159.011 450.308 158.598 449.688 157.357C448.449 154.876 447.211 152.601 445.972 150.12C445.352 148.879 444.733 147.639 444.113 146.398C445.559 145.778 446.798 145.157 448.036 144.744C453.198 142.676 458.154 143.503 462.283 147.018C463.316 147.845 464.348 148.879 465.38 149.706C465.793 150.12 466.413 150.327 466.826 150.327C469.51 150.12 471.162 148.466 471.781 145.778C470.749 144.33 469.097 143.71 467.652 143.09C465.793 142.056 463.729 141.229 461.87 139.988C461.251 139.574 460.632 139.161 460.219 138.127C462.696 138.954 464.761 139.574 467.032 140.401C468.891 141.022 470.749 141.435 472.607 141.022C474.053 140.815 474.259 140.401 474.466 138.954C474.672 137.093 474.879 135.025 475.704 133.371C475.911 132.957 476.324 132.337 476.737 132.13C478.389 131.51 480.04 131.096 481.692 130.476C481.073 132.544 480.247 134.612 479.627 136.679C479.008 139.161 479.421 140.195 481.692 141.229C483.138 141.849 484.583 142.262 486.028 142.676C488.3 143.296 489.125 143.917 489.332 146.398C489.332 146.812 489.538 147.432 489.538 148.052C490.777 148.052 491.81 147.845 492.842 148.052C493.874 148.259 494.907 148.673 496.352 148.879C495.526 150.327 494.494 151.154 493.049 151.154C491.603 151.154 490.158 150.947 488.713 150.533C486.648 149.706 484.789 148.466 482.725 147.432C482.105 147.018 481.279 146.605 480.66 146.191C479.834 147.845 479.421 149.706 479.215 151.361C479.215 153.222 479.834 154.876 481.692 155.91C482.725 156.53 483.757 157.15 484.996 157.357C490.984 158.805 496.765 160.872 502.959 160.666C504.818 160.666 506.057 161.493 506.676 163.147C507.295 165.008 507.915 166.869 508.121 168.73C508.534 173.279 508.741 177.828 508.947 182.377C508.947 182.791 508.947 183.204 508.947 183.825C507.089 183.204 506.47 181.964 506.057 180.516C504.818 176.174 503.166 171.831 502.753 167.282C502.547 165.215 501.308 164.181 499.243 163.354C499.036 164.801 498.623 165.835 498.623 167.076C498.211 169.971 497.591 172.865 495.733 175.14C495.526 175.554 495.32 175.967 495.113 176.381C494.7 177.414 495.113 178.035 495.733 178.655C497.178 179.689 498.623 180.309 500.482 180.103C501.927 182.791 502.34 185.686 503.166 188.374C503.992 191.062 504.405 193.957 505.024 196.645C505.231 196.851 505.437 196.852 505.437 196.852C508.121 196.852 510.393 197.265 512.251 199.333C512.457 199.54 512.87 199.746 513.283 199.746C514.316 199.746 515.348 199.746 516.794 199.746C516.794 198.712 516.794 197.885 516.794 197.058C517 183.618 517 170.177 517.206 156.737C517.206 155.91 517.206 155.083 517.413 154.049C518.445 154.049 519.065 154.049 519.891 154.049C526.085 154.049 532.486 154.049 538.68 154.049C540.538 154.049 540.745 153.842 541.158 152.188C541.158 151.774 541.364 151.361 541.364 150.947C541.777 148.259 542.397 147.639 544.875 147.639C553.547 147.639 562.425 147.639 571.097 147.639C571.717 147.639 572.336 147.639 572.955 147.845C573.162 163.354 573.368 178.655 573.368 194.163C575.433 192.509 576.466 190.028 578.324 188.374C578.53 190.855 578.53 193.336 578.53 195.818C578.53 198.299 578.53 200.574 578.53 203.055C579.976 203.055 581.215 203.055 582.453 203.055C582.453 202.435 582.66 202.021 582.66 201.607C582.66 199.54 582.66 197.265 582.866 195.197C583.073 180.309 584.105 165.628 581.834 150.947C581.421 147.639 580.802 144.537 579.356 141.642C578.53 140.195 578.117 138.54 577.704 136.886C577.085 134.198 578.117 131.924 580.595 130.683C581.834 130.063 583.279 129.442 584.725 129.236C586.583 128.822 588.441 128.615 590.506 128.202C590.506 127.581 590.713 126.961 590.713 126.341C590.919 123.652 591.125 120.758 591.125 118.07C591.332 112.9 593.19 108.765 596.7 105.043C600.211 101.321 604.34 98.6325 609.089 96.7715C612.186 95.5309 614.251 93.6698 614.251 90.1546C614.457 90.3614 614.664 90.3614 614.664 90.5682C615.077 93.0495 616.729 94.2902 618.794 95.3241C620.239 95.9444 621.478 96.7716 622.923 97.5987C625.194 99.0461 627.672 100.7 629.943 102.355C634.073 105.87 636.551 110.419 637.17 115.588C637.583 119.103 637.583 122.619 637.789 126.134C637.789 126.961 637.789 127.788 637.789 128.615C638.615 128.822 639.441 129.029 640.061 129.236C642.538 129.856 645.016 130.476 647.494 131.303C651.417 132.751 651.83 133.785 650.385 137.713C649.559 139.988 648.32 142.056 647.494 144.33C646.874 145.778 646.255 147.018 646.255 148.466C645.636 156.323 644.603 164.181 644.81 172.038C645.016 179.896 644.81 187.753 645.016 195.611C645.016 198.092 645.223 200.573 645.842 202.848C648.733 203.675 649.559 203.055 650.385 200.367C650.591 199.746 650.798 198.919 650.798 198.299C655.96 198.299 660.915 198.092 666.077 198.092C666.903 193.957 667.522 189.821 667.522 185.892C667.522 182.584 666.077 179.896 663.599 177.621C659.676 174.106 657.818 173.692 653.069 175.967C651.83 176.381 650.798 177.001 649.559 177.621C649.559 176.794 649.352 176.381 649.352 175.967C649.146 169.557 649.146 163.147 649.765 156.53C650.178 151.774 651.211 147.018 653.482 142.676C654.308 141.022 654.927 139.161 655.547 137.3C656.372 134.198 655.959 131.303 653.482 129.029C653.275 128.822 653.275 128.615 653.069 128.202C655.753 127.375 658.231 126.754 660.502 125.927C665.458 124.273 670.206 122.412 675.162 120.551C677.846 119.517 679.911 117.656 680.943 114.968C681.563 113.107 683.008 112.073 684.866 111.866C689.822 111.039 694.777 110.832 699.733 111.866C702.004 112.28 704.069 113.314 705.308 115.588C705.927 116.622 706.753 117.449 707.372 118.276C708.198 119.517 709.231 120.344 710.676 120.964C712.121 121.378 713.567 121.791 715.012 122.205C717.49 122.825 719.968 123.032 722.445 123.653C737.105 127.581 750.526 134.405 762.915 143.09C771.587 149.293 780.052 155.91 786.66 164.594C787.279 165.215 787.692 166.042 788.518 166.455C789.757 167.489 791.203 168.11 792.648 169.143C793.68 169.764 794.713 170.591 795.745 171.418C796.571 172.245 797.397 173.279 798.223 174.106C798.429 174.313 798.842 174.726 799.462 175.14C800.081 165.215 800.494 155.703 801.113 146.191C811.024 144.951 820.522 143.71 830.227 142.676C830.227 141.435 830.433 140.401 830.433 139.368C830.64 130.89 830.846 122.412 831.053 113.934C831.053 111.246 831.672 110.419 834.356 109.592C836.008 109.178 837.66 108.971 839.312 108.558C841.996 107.937 844.68 107.524 847.364 106.904C849.016 106.49 849.016 106.283 849.016 104.629C849.016 101.941 849.223 99.2529 849.223 96.5648C849.223 95.7377 849.429 94.9106 849.429 94.0835C851.081 93.8767 852.733 93.4632 854.385 93.4632C861.198 93.2564 867.806 92.8428 874.619 92.636C889.073 92.636 903.526 92.8428 917.98 93.6699C919.219 93.6699 920.251 94.2902 920.87 95.3241C921.696 96.9783 923.141 97.5986 925 97.8054C926.858 98.0122 928.717 98.4257 930.575 98.8393C935.117 99.8732 935.737 100.907 935.53 105.456C935.324 110.419 935.324 115.588 935.117 120.551C935.117 121.171 935.324 121.998 935.324 122.619C935.737 122.825 935.943 122.825 936.15 122.825C939.866 123.239 943.583 123.653 947.093 124.066C951.842 124.686 956.591 125.72 961.133 126.341C961.959 126.547 962.579 126.754 963.405 126.961C963.198 129.235 962.992 131.51 962.785 133.991C961.34 133.164 960.101 132.337 958.656 132.957C958.656 133.371 958.449 133.785 958.449 133.991C958.036 139.368 957.417 144.537 957.417 149.913C957.417 164.181 957.623 178.448 957.83 192.716C957.83 193.13 958.036 193.75 958.036 194.37C959.688 194.37 961.34 194.784 962.992 193.957C962.992 183.204 962.992 172.245 962.992 161.493C976.619 163.56 990.04 165.628 1002.64 171.625C1002.64 173.486 1002.02 175.347 1002.43 177.621C1004.91 177.621 1007.18 177.621 1009.86 177.621C1009.86 185.272 1009.86 192.716 1009.86 200.16C1011.1 200.16 1012.13 200.367 1013.17 200.367C1014.2 200.367 1014.61 199.953 1015.02 199.126C1015.44 197.885 1015.85 196.645 1016.47 195.611C1017.3 193.75 1017.91 191.682 1017.91 189.614C1017.91 188.58 1018.12 187.547 1018.12 186.513C1018.33 182.377 1018.53 178.448 1017.91 174.52C1017.5 171.831 1016.26 169.97 1013.37 169.764C1012.96 169.764 1012.75 169.557 1012.34 169.557C1010.07 169.143 1008.42 167.903 1007.38 166.042C1006.56 164.388 1005.73 162.94 1005.11 161.079C1002.64 154.049 1002.22 146.812 1002.64 139.574C1002.64 139.368 1002.84 139.161 1002.84 138.747C1004.08 138.747 1005.32 138.747 1006.56 138.747C1007.18 138.747 1007.8 138.747 1008.42 138.54C1011.1 137.713 1013.79 136.473 1016.68 135.646C1017.91 135.232 1018.53 134.405 1018.74 133.164C1018.95 131.924 1019.57 130.683 1019.98 129.236C1021.42 129.856 1022.87 129.442 1023.9 130.683C1024.11 130.89 1024.73 131.096 1025.14 131.096C1026.17 131.096 1027.21 130.89 1028.24 130.683C1035.05 129.236 1041.87 127.788 1048.68 126.547C1051.16 126.134 1053.02 125.514 1053.43 122.619C1053.64 121.378 1054.46 121.171 1055.7 121.378C1057.15 121.585 1058.18 122.412 1059 123.446C1060.04 124.686 1061.07 125.72 1062.72 125.927C1063.13 125.1 1063.55 124.273 1063.96 123.653C1065.61 123.032 1066.64 124.48 1067.88 125.1C1068.3 124.48 1068.5 124.066 1068.91 123.446C1070.77 124.686 1072.63 124.066 1074.49 123.239C1074.9 123.032 1075.73 122.825 1075.94 123.239C1076.97 124.273 1078 123.653 1079.03 123.653C1080.68 123.446 1082.13 123.032 1083.78 122.825C1085.85 122.412 1088.12 122.205 1090.18 121.791C1091.01 121.585 1092.04 120.964 1092.66 120.344C1095.14 117.449 1097.41 114.348 1099.89 111.659C1101.95 109.385 1104.02 107.11 1106.29 105.249C1108.97 102.975 1111.86 101.114 1114.75 99.046C1119.71 95.7376 1125.08 93.4631 1130.86 92.4293C1132.92 92.0157 1134.78 91.6021 1136.64 90.7749C1138.7 89.9478 1139.32 88.7072 1138.91 86.4327C1138.5 84.9852 1138.91 83.9513 1139.94 83.1242C1140.15 82.9175 1140.56 82.7107 1140.98 82.7107C1142.21 82.7107 1143.25 84.1581 1143.04 85.3988C1143.04 85.8123 1142.83 86.2259 1142.83 86.6395C1142.42 88.7072 1143.25 90.1546 1145.31 90.7749C1146.76 91.1885 1148.2 91.6021 1149.85 92.0157C1153.57 93.2563 1157.49 94.0835 1161.21 95.5309C1170.5 99.4597 1177.94 106.076 1184.75 113.52C1184.96 113.727 1184.96 113.727 1185.16 113.934C1187.43 117.656 1190.94 120.551 1192.59 124.686C1192.59 124.893 1192.8 124.893 1193.21 125.1C1193.63 124.273 1194.25 123.446 1194.45 122.619C1194.66 121.792 1195.28 121.378 1196.11 121.378C1196.72 121.378 1197.14 121.585 1197.76 121.585C1197.96 122.619 1198.17 123.652 1198.38 124.686C1199.62 123.652 1199.2 121.378 1201.06 121.378C1202.92 122.412 1203.13 124.686 1205.19 125.72C1205.19 124.48 1205.4 123.653 1205.4 122.619C1206.43 122.619 1207.25 122.619 1208.08 122.619C1208.29 123.446 1208.29 124.066 1208.49 125.1C1209.73 124.066 1210.56 123.239 1211.59 122.412C1212.42 123.446 1213.04 124.273 1213.66 125.1C1215.31 124.273 1215.93 122.412 1217.99 123.032C1218.2 123.446 1218.4 123.859 1218.61 124.066C1220.68 124.066 1222.12 122.619 1224.39 123.032C1223.57 125.514 1225.22 126.754 1226.87 128.202C1228.52 129.649 1230.17 131.303 1231.83 132.544C1233.06 133.578 1233.68 134.818 1233.68 136.473C1233.48 143.71 1233.48 150.947 1233.27 158.184C1233.27 161.079 1233.27 163.974 1233.06 166.869C1233.06 167.489 1232.86 168.316 1232.86 169.143C1231.41 168.11 1230.17 167.489 1229.14 166.662C1227.7 165.628 1226.66 165.628 1225.01 166.455C1219.23 169.35 1216.13 174.106 1214.89 180.516C1213.86 185.892 1214.07 191.269 1214.28 196.645C1214.28 197.679 1214.48 198.919 1214.48 199.953C1217.37 200.367 1235.13 200.16 1236.78 199.746C1236.78 195.404 1236.78 190.855 1236.78 186.306C1236.78 181.757 1236.78 177.208 1236.78 172.865C1236.78 168.316 1236.78 163.767 1236.78 159.425C1236.78 154.876 1236.78 150.327 1236.78 145.984C1236.78 141.435 1236.57 137.093 1236.78 132.544C1242.36 132.13 1496.74 131.303 1498.59 131.924C1498.59 132.337 1498.8 132.751 1498.8 133.371C1498.8 138.954 1499.01 144.537 1499.01 150.12C1498.8 160.872 1499.01 171.625 1499.42 182.17C1499.63 187.753 1499.83 193.129 1500.04 198.712C1500.04 199.126 1500.25 199.746 1500.25 200.16C1502.52 200.367 1502.72 200.367 1502.72 198.299C1502.72 197.679 1502.72 197.058 1502.72 196.438C1502.52 188.787 1502.31 180.93 1502.31 173.279C1502.31 166.455 1502.11 159.632 1502.11 152.808C1502.11 151.361 1502.31 149.913 1502.93 148.672C1503.76 146.605 1504.17 144.537 1504.17 142.262C1504.17 140.195 1504.17 138.127 1503.96 136.059C1503.96 132.957 1505.62 130.476 1507.47 128.408C1508.3 127.374 1509.54 127.168 1510.78 127.581C1510.78 128.202 1510.78 128.615 1510.78 129.442C1512.43 128.615 1514.08 128.615 1515.11 126.754C1515.32 126.547 1515.53 126.341 1515.73 126.134C1517.18 125.72 1518 124.686 1519.04 123.859C1520.28 122.825 1521.72 122.205 1522.75 121.171C1523.58 120.344 1524.82 119.931 1525.85 118.897C1526.47 118.276 1527.3 118.069 1528.12 117.656C1529.77 116.829 1530.81 115.795 1531.43 113.934C1531.84 112.9 1531.63 112.28 1530.6 111.659C1531.22 110.626 1531.42 109.798 1531.22 108.351C1531.22 107.937 1530.81 107.524 1530.39 106.904C1531.84 105.663 1531.22 104.216 1531.22 102.768C1530.81 102.561 1530.6 102.561 1530.19 102.355V102.148C1530.81 100.7 1532.46 99.0461 1530.19 97.1851C1531.22 95.7377 1531.63 94.2903 1531.22 92.4293C1530.19 92.8428 1528.95 93.0495 1528.53 93.8766C1527.3 95.9444 1524.61 95.9444 1523.58 98.0121C1523.58 98.2189 1523.17 98.219 1522.96 98.219C1521.1 99.4596 1519.24 100.494 1517.38 101.734C1517.18 101.734 1517.18 102.148 1517.18 102.148C1516.97 102.354 1516.77 102.975 1516.35 102.975C1514.49 103.595 1513.26 105.043 1511.81 106.283C1509.54 108.558 1506.85 108.558 1503.96 108.144C1503.76 106.076 1503.55 104.009 1503.76 101.941C1503.76 89.3276 1503.96 76.7142 1503.96 63.894C1503.96 60.5856 1503.76 57.2771 1502.52 54.1755C1501.9 52.3145 1501.07 50.4535 1500.45 48.5926C1500.25 48.179 1500.25 47.5586 1500.04 46.9383C1500.66 46.7315 1501.07 46.7315 1501.49 46.7315C1504.79 46.1112 1505.41 45.0773 1505.62 41.7689C1505.62 41.3553 1505.62 40.9418 1505.62 40.5282C1505.62 36.1859 1505.62 31.8436 1505.62 27.5013C1505.62 22.9522 1504.79 18.6099 1501.69 15.0947C1500.45 13.6472 1499.63 11.993 1499.01 9.92526C1500.04 9.71849 1501.07 9.30496 1502.11 9.30496C1503.96 9.51173 1505.2 8.68461 1505.82 7.0304C1506.44 5.78974 1507.27 5.37615 1508.51 5.37615C1515.94 5.58292 1523.37 5.58294 1530.6 5.58294C1531.84 5.58294 1533.08 5.58297 1533.7 7.23719C1533.9 7.65074 1534.52 8.06429 1535.14 8.27107C1535.97 8.68463 1536.79 8.89139 1537.62 9.09817C1538.86 9.51172 1539.89 10.1321 1540.51 11.1659C1541.54 13.0269 1541.96 15.0947 1542.16 16.9557C1541.96 17.1624 1541.96 17.1624 1541.96 17.1624C1541.75 17.3692 1541.34 17.576 1541.13 17.576C1538.03 18.8167 1536.79 21.0912 1536.79 24.3996C1536.79 29.7758 1536.79 35.152 1536.79 40.5282C1536.79 43.6299 1537.41 46.7315 1539.68 49.2129C1541.34 51.0738 1541.13 53.1416 1539.89 55.2094C1538.45 57.6907 1538.03 60.172 1537.83 62.8601C1537.62 69.0634 1537.41 75.06 1537.41 81.2633C1537.41 98.4257 1537.62 115.588 1537.83 132.751C1537.83 136.886 1538.03 141.022 1538.03 145.364C1538.03 146.398 1538.24 147.225 1539.48 147.639C1541.96 148.466 1543.4 150.327 1544.64 152.601C1545.26 153.842 1546.08 154.049 1547.12 154.049C1547.74 154.049 1548.56 154.049 1549.18 154.049C1578.5 154.049 1607.62 154.049 1636.94 154.049C1637.35 152.395 1638.17 152.601 1639 152.808ZM1154.19 198.506C1154.4 191.062 1154.6 184.031 1154.6 177.001C1154.6 174.933 1154.4 172.865 1154.19 170.798C1153.16 163.974 1149.85 158.805 1143.87 155.289C1142.83 154.669 1141.8 154.669 1140.77 155.083C1135.61 157.357 1132.51 161.493 1130.86 166.662C1129.83 169.97 1129.21 173.279 1129.21 176.587C1129.21 183.618 1129.41 190.855 1129.62 197.885C1129.62 198.092 1129.83 198.299 1129.83 198.506C1137.67 198.506 1145.93 198.506 1154.19 198.506ZM1195.28 198.506C1195.28 198.092 1195.49 197.885 1195.49 197.472C1195.49 190.855 1195.69 184.445 1195.69 177.828C1195.69 170.384 1191.98 164.801 1185.99 160.666C1183.72 159.011 1182.06 159.011 1180 160.666C1174.43 165.008 1170.91 170.591 1170.91 177.828C1170.91 183.825 1170.91 190.028 1170.91 196.024C1170.91 196.851 1170.91 197.472 1170.91 198.299C1179.17 198.506 1187.23 198.506 1195.28 198.506ZM1108.97 198.506C1108.97 197.885 1109.18 197.679 1109.18 197.265C1109.18 190.441 1109.18 183.825 1109.18 177.001C1109.18 175.553 1108.97 174.106 1108.56 172.865C1107.11 167.696 1103.6 164.181 1099.47 161.286C1097.82 160.252 1096.58 160.252 1095.14 161.286C1090.8 163.974 1087.5 167.489 1085.85 172.245C1085.23 173.899 1084.81 175.76 1084.81 177.621C1084.61 184.031 1084.81 190.441 1084.81 197.058C1084.81 197.472 1085.02 198.092 1085.02 198.506C1092.66 198.506 1100.71 198.506 1108.97 198.506ZM1069.53 198.506C1069.53 198.092 1069.74 197.679 1069.74 197.265C1069.74 192.509 1069.74 187.753 1069.53 182.997C1069.12 175.967 1065.82 170.591 1059.62 167.076C1058.18 166.249 1057.15 166.249 1055.7 167.076C1049.3 171.004 1045.17 176.587 1044.76 184.445C1044.55 188.787 1044.76 193.129 1044.76 197.265C1044.76 197.679 1044.96 198.092 1044.96 198.506C1053.22 198.506 1061.28 198.506 1069.53 198.506ZM607.437 146.398C601.449 145.984 595.668 145.778 589.68 145.364C589.474 147.225 589.474 148.673 589.267 150.327C588.854 153.428 588.028 156.53 588.028 159.425C587.822 172.452 587.822 185.479 587.822 198.299C587.822 201.814 588.028 201.814 591.538 201.401C591.745 201.401 591.745 201.194 591.951 201.194C591.951 200.78 592.158 200.16 591.951 199.746C591.951 195.818 591.745 191.889 591.745 187.96C591.745 183.204 591.745 178.242 591.951 173.486C591.951 171.004 592.984 169.143 595.255 168.11C598.146 166.662 600.623 164.594 602.688 162.113C603.101 161.699 603.721 161.286 604.34 160.666C604.34 161.286 604.34 161.699 604.34 161.906C604.34 174.106 604.547 186.306 604.547 198.506C604.547 201.401 604.959 201.814 607.85 201.401C608.057 201.401 608.263 201.194 608.47 201.194C608.883 198.919 608.057 149.5 607.437 146.398ZM1533.49 44.8705C1533.49 44.457 1533.7 44.2502 1533.7 44.0434C1533.7 39.9079 1533.9 35.5656 1533.9 31.43C1533.9 28.9487 1533.49 26.4674 1533.28 23.9861C1533.08 22.5386 1532.25 21.298 1531.22 20.4709C1529.98 19.2302 1528.74 19.2302 1527.5 20.6777C1527.3 20.8845 1527.09 21.0912 1526.88 21.298C1525.23 22.7454 1524.4 22.7454 1522.96 21.0912C1521.1 19.0234 1519.24 19.0234 1518 21.298V21.5048C1517.18 22.5387 1515.73 22.7454 1514.7 21.7116C1514.29 21.298 1514.08 20.8844 1513.67 20.4709C1512.84 19.6438 1511.4 19.437 1510.78 20.0573C1508.71 21.7115 1507.06 23.7793 1506.85 26.6742C1506.65 29.5691 1506.65 32.4639 1506.65 35.3588C1506.65 38.2537 1507.06 40.9418 1507.27 43.8366C1507.27 44.2502 1507.47 44.8706 1507.47 45.4909C1516.15 44.8706 1524.82 44.8705 1533.49 44.8705ZM1406.92 150.12C1406.92 150.74 1406.71 151.154 1406.71 151.774C1406.71 164.801 1406.71 178.035 1406.71 191.062C1406.71 191.682 1406.92 192.302 1406.92 192.716C1412.08 192.716 1416.83 192.716 1421.99 192.716C1421.99 178.448 1421.99 164.181 1421.79 150.12C1416.62 150.12 1411.87 150.12 1406.92 150.12ZM1444.91 192.716C1444.7 178.448 1444.7 164.181 1444.5 150.12C1439.34 150.12 1434.38 150.12 1429.42 150.12C1429.42 164.388 1429.42 178.448 1429.42 192.716C1434.59 192.716 1439.75 192.716 1444.91 192.716ZM1330.32 192.716C1330.32 178.448 1330.32 164.388 1330.32 150.327C1325.36 150.327 1320.4 149.913 1315.66 150.12C1315.24 153.635 1315.24 191.269 1315.66 192.716C1320.4 192.716 1325.15 192.716 1330.32 192.716ZM1338.16 150.327C1337.75 152.808 1337.75 191.269 1338.16 192.716C1343.12 192.716 1347.87 192.716 1352.82 192.716C1353.23 190.441 1353.03 151.774 1352.62 150.327C1347.87 150.327 1342.91 150.327 1338.16 150.327ZM1398.87 192.716C1398.87 178.448 1398.87 164.388 1398.87 150.12C1393.91 150.12 1388.96 150.12 1384.21 150.12C1383.79 152.808 1383.79 191.062 1384.21 192.509C1389.16 192.716 1393.91 192.716 1398.87 192.716ZM621.065 201.401C622.51 201.401 623.749 201.401 624.988 201.401C624.988 199.54 625.194 197.679 625.194 195.818C625.607 195.818 626.02 195.818 626.227 195.611C626.64 195.611 626.846 195.611 627.259 195.611C628.498 195.404 629.324 194.784 629.53 193.75C630.356 190.028 631.182 186.099 631.802 182.17C632.215 179.275 631.182 176.587 628.911 174.52C628.085 173.692 627.053 173.072 626.02 172.452C625.401 172.038 624.988 171.625 624.988 170.798C624.988 166.662 624.781 162.527 624.781 158.391C624.781 155.91 625.401 153.428 626.846 151.154C629.943 151.154 632.834 151.154 635.518 151.154C636.964 154.049 637.377 156.944 637.377 159.838C637.377 172.452 637.377 185.065 637.377 197.885C637.377 198.299 637.377 198.712 637.377 199.126C637.377 200.367 638.202 201.194 639.441 201.401C640.68 201.607 641.3 200.987 641.506 199.54C641.713 197.885 641.713 196.231 641.713 194.784C641.713 189.408 641.506 184.238 641.506 178.862C641.713 168.73 640.887 158.805 640.474 148.879C640.474 148.466 640.267 148.052 640.267 147.432C639.854 147.432 639.441 147.225 639.028 147.225C636.757 147.018 634.279 147.018 632.008 146.812C629.943 146.812 627.672 146.605 625.607 146.605C622.923 146.811 621.684 147.639 621.271 150.327C620.858 152.808 620.652 155.289 620.652 157.771C620.652 171.625 620.652 185.479 620.858 199.333C621.065 200.16 621.065 200.78 621.065 201.401ZM1292.53 150.327C1292.53 155.083 1292.53 159.838 1292.53 164.594C1292.53 169.35 1292.53 174.106 1292.53 178.655C1292.53 183.411 1292.32 187.96 1292.74 192.716C1297.69 192.716 1302.44 192.716 1307.4 192.716C1307.19 178.448 1307.19 164.388 1306.78 150.327C1301.82 150.327 1297.28 150.327 1292.53 150.327ZM950.603 200.574C950.603 199.746 950.603 198.919 950.603 198.299C950.603 180.723 950.603 162.94 950.603 145.364C950.603 144.33 950.603 143.296 950.397 142.262C949.984 140.195 948.745 138.954 946.886 138.747C946.267 138.54 945.648 138.54 944.822 138.54C942.964 138.54 941.518 139.574 941.105 141.435C940.692 142.883 940.692 144.123 940.692 145.571C940.692 163.147 940.692 180.93 940.692 198.506C940.692 199.126 940.692 199.746 940.899 200.574C943.996 200.574 947.093 200.574 950.603 200.574ZM1361.49 150.327C1361.49 164.388 1361.49 178.448 1361.49 192.509C1363.77 192.923 1374.5 192.716 1376.15 192.096C1375.95 178.242 1375.74 164.388 1375.53 150.327C1370.79 150.327 1366.24 150.327 1361.49 150.327ZM493.255 181.55C491.81 180.516 490.984 179.689 489.951 179.069C487.887 177.828 486.028 176.587 484.996 173.899C484.376 172.038 483.551 171.832 481.692 172.038C479.214 172.245 476.53 172.245 474.053 172.452C470.955 172.659 467.858 172.865 464.968 173.899C463.316 174.52 461.87 175.347 461.044 177.001C458.773 181.343 456.502 185.892 454.231 190.235C454.024 190.441 454.024 190.855 453.818 191.475C464.348 192.302 474.878 193.13 485.409 193.75C485.615 192.923 485.615 192.509 485.822 191.889C486.028 188.58 487.474 186.099 490.364 184.238C491.19 183.825 492.016 182.791 493.255 181.55ZM928.923 201.607C928.923 200.987 929.13 200.78 929.13 200.574C929.13 182.997 929.13 165.628 929.13 148.052C929.13 147.018 928.923 145.778 928.51 144.744C927.684 142.469 925.826 141.022 923.967 141.229C921.696 141.435 920.251 142.676 919.632 144.744C919.219 146.191 919.012 147.639 919.012 149.086C919.012 165.835 919.012 182.791 919.012 199.54C919.012 200.16 919.012 200.78 919.219 201.607C922.316 201.607 925.619 201.607 928.923 201.607ZM896.506 201.401C899.603 201.814 904.971 201.607 906.417 201.194C906.417 200.573 906.417 199.746 906.417 199.126C906.417 194.163 906.417 189.201 906.417 184.445C906.417 174.52 906.623 164.388 906.83 154.462C906.83 153.635 907.036 152.601 906.83 151.774C906.623 150.12 906.211 148.466 905.798 147.018C904.972 145.157 902.7 144.123 900.429 144.33C898.571 144.537 897.332 145.778 896.919 148.259C896.713 149.706 896.506 151.154 896.506 152.395C896.506 168.11 896.506 183.824 896.506 199.333C896.3 199.953 896.3 200.78 896.506 201.401ZM881.64 201.607C881.64 200.987 881.846 200.574 881.846 199.953C881.846 185.479 881.846 171.004 881.846 156.323C881.846 155.289 881.64 154.255 881.433 153.222C880.814 151.154 879.162 150.12 876.478 150.327C874.206 150.327 872.761 151.567 872.142 153.635C871.935 154.876 871.729 156.116 871.729 157.15C871.729 171.418 871.729 185.479 871.729 199.746C871.729 200.367 871.935 200.987 871.935 201.607C875.239 201.607 878.336 201.607 881.64 201.607ZM280.583 177.208C277.692 179.276 274.389 181.137 271.498 183.411C266.336 187.133 265.923 192.716 265.923 198.299C267.988 198.712 294.83 198.712 296.482 198.299C296.688 195.611 296.275 192.716 296.069 190.028C295.656 186.306 293.591 184.031 290.287 182.377C286.984 180.723 283.887 179.069 280.583 177.208ZM748.668 199.333C747.842 192.923 746.603 186.926 743.506 181.55C742.68 180.103 741.648 178.862 740.409 177.621C737.931 175.347 735.041 174.933 731.737 175.76C729.466 176.381 727.607 177.621 725.955 179.069C724.51 180.309 723.684 181.757 723.478 183.618C722.858 188.374 723.271 193.13 723.891 197.885C723.891 198.092 724.097 198.092 724.304 198.299C732.356 198.506 740.202 198.919 748.668 199.333ZM763.121 198.092C771.38 198.506 779.433 198.919 787.486 199.126C786.66 193.13 785.627 187.547 782.737 182.17C782.117 181.136 781.498 180.103 780.672 179.069C777.162 174.726 772.413 173.899 767.664 176.587C766.631 177.208 765.806 177.828 764.98 178.448C763.534 179.689 762.502 181.343 762.296 183.204C761.676 186.513 761.883 190.028 762.089 193.543C762.295 194.99 762.708 196.438 763.121 198.092ZM706.959 195.611C706.959 194.784 707.166 194.163 707.166 193.543C706.959 190.028 706.547 186.306 706.134 182.791C705.927 179.896 704.275 177.828 701.798 176.174C700.559 175.347 699.32 174.726 697.874 174.106C693.125 172.452 687.964 174.106 685.073 178.448C684.04 180.103 683.215 181.757 682.802 183.618C681.976 187.34 681.356 191.062 680.737 194.991C680.737 195.197 680.737 195.404 680.943 195.818C689.615 195.611 698.287 195.611 706.959 195.611ZM856.036 201.607C856.036 200.574 856.243 199.953 856.243 199.126C856.243 186.719 856.449 174.52 856.449 162.113C856.449 161.079 856.449 160.045 856.449 159.011C856.243 157.977 856.036 156.944 855.623 155.91C854.798 154.049 853.146 153.015 851.287 152.808C849.223 152.808 847.984 154.049 847.158 155.91C846.538 157.357 846.332 159.011 846.332 160.666C846.332 173.486 846.332 186.513 846.332 199.333C846.332 199.953 846.332 200.573 846.332 201.401C849.636 201.607 852.733 201.607 856.036 201.607ZM831.465 201.607C831.465 200.78 831.672 199.953 831.672 199.333C831.672 194.577 831.672 189.821 831.672 185.272C831.672 178.242 831.672 171.211 831.672 164.181C831.672 162.526 831.259 160.666 830.846 159.011C830.227 157.15 828.781 155.91 826.717 155.91C824.652 155.91 823.206 157.15 822.587 158.805C822.174 160.045 821.761 161.493 821.761 162.94C821.761 175.14 821.761 187.34 821.761 199.746C821.761 200.367 821.968 200.987 821.968 201.401C825.065 201.607 828.162 201.607 831.465 201.607ZM1034.02 198.506C1034.02 192.096 1034.23 185.892 1034.23 179.689C1034.23 178.862 1034.02 178.242 1033.19 177.828C1030.72 176.587 1028.45 175.14 1025.97 173.899C1025.14 173.486 1024.11 173.279 1023.08 173.072C1023.08 173.693 1022.87 174.106 1022.87 174.726C1022.87 178.655 1022.66 182.791 1022.66 186.719C1022.46 191.062 1024.73 194.577 1026.17 198.506C1028.86 198.506 1031.34 198.506 1034.02 198.506ZM803.797 201.401C804.417 201.607 804.624 201.607 804.83 201.607C805.243 201.607 805.862 201.607 806.275 201.607C808.547 201.401 809.166 200.78 809.166 198.712C809.166 196.851 809.166 194.991 809.166 193.336C809.166 186.926 809.166 180.723 809.166 174.313C809.166 171.418 809.579 168.73 809.372 165.835C809.372 163.767 808.753 161.493 808.34 159.425C807.927 157.977 807.101 156.737 805.449 156.117C805.243 156.323 805.036 156.737 804.83 156.944C803.798 158.598 803.797 160.459 803.797 162.113C803.797 174.52 803.797 186.926 803.797 199.126C803.797 200.16 803.797 200.573 803.797 201.401ZM613.012 201.401C616.316 202.021 616.522 201.814 616.522 198.919C616.522 198.713 616.522 198.713 616.522 198.506C616.522 193.957 616.522 189.201 616.522 184.652C616.522 175.967 616.729 167.489 616.729 158.805C616.729 155.703 616.316 152.601 615.903 149.5C615.903 148.673 615.696 147.845 614.87 147.018C613.632 148.879 613.425 150.74 613.425 152.601C613.219 158.598 612.806 164.594 612.806 170.591C612.806 180.103 613.012 189.614 613.012 199.126C613.012 199.746 613.012 200.573 613.012 201.401ZM1527.71 60.3788C1527.71 56.0365 1524.61 52.5213 1520.89 52.7281C1516.77 52.9349 1512.84 55.8297 1513.05 60.172C1513.05 64.3075 1516.35 67.616 1520.48 67.616C1524.82 67.616 1527.71 64.5143 1527.71 60.3788ZM899.603 130.476C899.603 122.205 900.223 114.348 899.603 106.49C899.397 105.043 898.984 103.595 898.777 102.355C895.474 101.527 894.648 102.561 894.441 105.456V105.663C894.441 113.314 894.441 120.964 894.441 128.615C894.441 129.236 894.441 129.856 894.648 130.476C896.3 130.476 897.745 130.476 899.603 130.476ZM860.992 135.439C860.992 135.025 861.198 134.818 861.198 134.612C861.198 127.374 861.198 119.931 861.198 112.693C861.198 111.246 860.785 109.798 860.579 108.351C860.372 107.524 859.959 107.317 859.134 107.11C857.275 106.904 856.449 107.524 856.036 109.385C856.036 110.005 856.036 110.419 856.036 111.039C856.036 118.483 856.036 125.927 856.036 133.371C856.036 133.991 856.036 134.612 856.243 135.439C857.688 135.439 859.34 135.439 860.992 135.439ZM873.793 133.578C873.793 132.957 873.793 132.544 873.793 132.13C874 126.547 874 120.758 874 115.175C874 112.9 873.793 110.832 873.587 108.558C873.38 107.317 872.968 106.283 872.761 105.249C869.251 104.836 868.631 105.456 868.631 108.558V108.765C868.631 116.209 868.631 123.859 868.631 131.303C868.631 131.924 868.631 132.544 868.631 133.371C870.49 133.578 872.142 133.578 873.793 133.578ZM837.453 111.246C834.356 110.419 833.324 111.866 833.324 114.554C833.324 122.205 833.324 129.856 833.324 137.507C833.324 138.127 833.324 138.747 833.53 139.368C835.182 139.368 836.834 139.574 838.279 139.368C838.486 138.954 838.486 138.954 838.486 138.747C838.486 131.303 838.692 123.653 838.486 116.209C838.486 114.554 838.486 112.693 837.453 111.246ZM913.231 128.615C913.231 128.202 913.437 127.788 913.437 127.581C913.437 120.551 913.437 113.314 913.437 106.283C913.437 104.215 913.024 102.355 912.818 100.287C911.992 100.287 911.579 100.287 911.166 100.287C909.514 100.287 909.101 100.7 908.688 102.148C908.482 102.768 908.482 103.595 908.482 104.422C908.482 111.866 908.482 119.31 908.482 126.547C908.482 127.168 908.482 127.788 908.688 128.615C909.927 128.615 911.579 128.615 913.231 128.615ZM849.016 137.507C849.016 137.093 849.223 136.886 849.223 136.679C849.223 129.442 849.429 122.205 849.429 114.968C849.429 113.107 849.223 111.039 848.19 109.385C845.299 108.558 844.267 109.592 844.061 112.693V112.9C844.061 120.551 844.061 128.202 844.061 135.852C844.061 136.473 844.061 137.093 844.267 137.713C845.3 137.713 846.332 137.713 847.158 137.713C847.984 137.507 848.603 137.507 849.016 137.507ZM885.769 104.422C882.672 103.595 881.64 104.836 881.64 107.524V107.731C881.64 115.381 881.64 122.825 881.64 130.476C881.64 131.096 881.639 131.717 881.846 132.544C883.498 132.544 885.15 132.751 886.802 132.337C886.802 125.307 887.008 118.483 886.802 111.453C886.802 109.178 886.802 106.697 885.769 104.422ZM923.967 124.686C923.967 124.273 924.174 124.066 924.174 123.859C924.174 117.036 924.174 110.212 924.174 103.182C924.174 102.148 923.761 101.114 923.555 100.287C923.348 99.2529 922.316 99.2529 921.49 99.2529C920.664 99.2529 919.838 99.4596 919.632 100.493C919.425 101.734 919.012 103.182 918.806 104.422C917.98 111.039 918.806 117.656 919.012 124.273C919.012 124.48 919.219 124.686 919.219 124.893C920.87 124.686 922.316 124.686 923.967 124.686ZM498.211 181.964C492.842 184.445 488.506 187.546 488.093 194.163C489.332 194.37 490.364 194.577 491.603 194.37C494.081 194.37 496.765 194.37 499.243 194.163C502.547 193.75 503.579 191.682 502.34 188.58C501.308 185.892 499.656 184.031 498.211 181.964ZM929.955 98.6326C929.955 106.697 929.955 114.554 929.955 122.619C930.988 122.619 931.814 122.619 933.053 122.619C932.846 114.348 933.466 106.283 932.64 98.0121C931.607 98.4257 930.781 98.4258 929.955 98.6326ZM169.085 136.266C169.911 136.266 170.53 136.059 170.737 135.232C170.943 134.405 170.53 133.785 169.704 133.578C169.085 133.371 168.466 133.164 168.053 133.164C164.955 133.164 161.858 133.164 158.761 133.164C158.142 133.164 157.729 133.371 157.316 133.578C156.696 133.785 156.49 134.405 156.696 135.025C156.903 135.439 157.316 135.852 157.729 136.059C158.348 136.266 158.968 136.059 159.587 136.059C161.652 136.059 163.51 135.852 165.575 136.059C166.607 135.646 167.846 136.059 169.085 136.266ZM170.117 167.903C171.15 166.455 171.15 165.628 169.498 165.008C165.781 163.974 162.065 163.974 158.348 164.801C157.316 165.008 156.696 165.628 156.903 167.076C158.968 167.903 161.239 167.076 163.304 167.282C165.368 167.696 167.64 167.696 170.117 167.903ZM156.696 143.71C157.729 143.71 158.761 143.917 159.793 143.917C161.445 143.917 163.304 143.917 164.955 143.917C166.401 143.917 167.846 144.123 169.085 144.33C169.911 144.33 170.324 144.123 170.53 143.503C170.53 143.089 170.324 142.262 169.911 142.056C169.498 141.642 168.672 141.435 168.053 141.229C166.401 141.022 164.955 140.815 163.304 140.815C161.858 140.815 160.206 140.815 158.761 141.022C157.729 141.229 156.696 141.642 156.696 143.71ZM156.696 178.035C157.109 178.242 157.316 178.242 157.522 178.448C161.445 178.655 165.575 178.862 169.498 178.862C169.911 178.862 170.53 178.448 170.737 178.035C170.943 177.621 170.53 177.001 170.324 176.587C169.911 176.174 169.085 175.76 168.466 175.76C165.575 175.554 162.478 175.553 159.381 175.553C158.968 175.553 158.555 175.76 157.935 175.967C157.109 176.174 156.696 176.794 156.696 178.035ZM156.696 148.466C157.522 148.466 158.348 148.879 158.968 148.672C161.445 148.052 164.13 148.259 166.607 148.672C167.433 148.879 168.466 149.086 169.498 148.879C169.911 148.879 170.737 148.259 170.737 147.845C170.943 147.432 170.53 146.605 170.117 146.398C169.704 145.984 168.879 145.778 168.259 145.778C164.542 145.364 160.826 145.364 157.316 146.398C157.109 146.398 157.109 146.605 156.903 146.812C156.696 147.225 156.696 147.639 156.696 148.466ZM156.696 183.204C157.729 183.204 158.555 183.204 159.381 183.204C161.239 183.204 163.097 182.997 164.955 183.204C166.194 183.204 167.433 183.411 168.466 183.618C170.324 183.825 170.53 183.411 170.117 181.136C165.575 180.309 161.032 180.103 156.49 181.136C156.696 181.757 156.696 182.17 156.696 183.204ZM156.696 137.92C156.903 139.781 157.109 140.195 158.761 139.781C162.065 139.161 165.162 139.368 168.259 139.988C168.672 139.988 169.292 139.988 169.704 139.781C170.117 139.574 170.737 139.161 170.737 138.747C170.737 138.334 170.324 137.713 169.911 137.507C169.498 137.093 168.879 136.886 168.466 136.886C167.02 136.679 165.368 136.473 163.923 136.473C161.445 136.886 158.968 136.679 156.696 137.92ZM157.109 152.808C160.619 151.981 164.13 152.188 167.433 152.808C167.846 152.808 168.466 153.015 168.879 153.015C169.704 153.015 170.53 153.015 170.943 152.188C171.15 151.567 170.53 150.74 169.292 150.327C169.085 150.327 168.879 150.12 168.466 150.12C166.194 149.913 163.923 149.706 161.652 149.706C159.794 149.706 158.142 150.12 156.696 151.361C156.903 151.774 156.903 152.188 157.109 152.808ZM156.696 193.75C157.729 193.75 158.555 194.163 159.174 193.957C162.271 193.13 165.368 193.75 168.672 194.163C170.53 194.37 170.943 193.957 170.737 191.889C166.194 190.648 161.652 190.855 157.109 191.682C156.696 192.509 156.696 192.923 156.696 193.75ZM156.49 161.079C157.522 162.113 158.555 162.113 160 162.113C161.858 161.906 163.51 161.906 165.368 162.113C166.401 162.113 167.64 162.32 168.672 162.527C169.498 162.733 170.117 162.733 170.53 161.906C168.053 158.184 159.587 157.771 156.49 161.079ZM156.903 157.357C157.729 157.357 158.348 157.357 159.174 157.357C161.652 157.357 164.13 157.357 166.607 157.357C168.053 157.357 169.292 157.357 170.737 157.15C169.085 154.669 166.814 154.256 164.336 154.049C161.858 153.842 159.381 154.255 156.903 155.289C156.696 156.116 156.696 156.53 156.903 157.357ZM170.737 173.072C170.117 171.211 168.879 170.177 167.227 170.177C164.336 170.177 161.445 170.384 158.348 170.591C157.522 170.591 156.696 171.004 156.696 172.245C161.239 173.279 165.781 173.072 170.737 173.072ZM170.53 188.787C170.737 186.926 170.324 186.306 168.672 186.306C167.227 186.306 165.781 186.306 164.543 186.306C162.684 186.306 160.826 186.306 158.968 186.306C157.935 186.306 157.109 186.513 156.903 187.96C161.239 188.167 165.781 188.374 170.53 188.787ZM156.903 197.472C161.239 199.746 165.781 198.919 170.324 198.506C168.259 195.611 161.858 195.818 156.903 197.472ZM25.3765 125.927C20.2145 125.307 16.7044 125.513 15.0526 126.754C16.7044 127.788 24.5506 128.408 25.583 127.374C25.583 126.961 25.3765 126.547 25.3765 125.927ZM66.2591 137.507C65.2267 137.093 64.8138 136.679 64.1943 136.679C61.7166 136.679 59.0323 136.679 56.5546 136.679C55.5222 136.679 55.1093 137.507 55.5223 138.747C59.0324 138.54 62.5425 139.368 66.2591 137.507ZM24.9636 191.682C21.6599 190.441 18.1498 189.821 14.8461 191.682C18.3563 193.543 21.6599 193.13 24.9636 191.682ZM51.1862 153.842C49.7408 152.394 49.3279 151.981 48.0891 151.981C46.2307 151.981 44.5789 151.981 42.7206 151.981C42.1012 151.981 41.2753 152.188 40.4494 152.395C40.6559 153.015 40.6559 153.428 40.8623 153.635C44.166 153.842 47.4696 153.842 51.1862 153.842ZM15.0526 163.767C15.0526 163.974 15.0526 164.181 15.0526 164.388C15.8785 164.594 16.7045 164.801 17.7368 165.008C19.5952 165.008 21.2469 165.008 23.1053 165.008C24.5506 165.008 24.757 164.801 25.3765 162.94C21.8664 162.94 18.3563 162.113 15.0526 163.767ZM40.2429 174.726C43.3401 176.381 49.1214 176.381 50.9797 174.52C47.4696 173.279 44.166 173.072 40.2429 174.726ZM25.17 136.679C20.0081 136.059 16.498 136.266 15.0526 137.713C18.3563 139.161 21.6599 138.954 25.17 138.127C24.9635 137.713 25.17 137.3 25.17 136.679ZM14.8461 142.676C18.3563 143.917 21.6599 143.71 25.17 142.676C22.6923 140.608 17.3239 140.608 14.8461 142.676ZM66.0526 164.594C65.0202 163.354 64.1943 162.94 63.162 162.94C61.3036 162.94 59.4453 162.94 57.5871 162.94C56.9676 162.94 56.3482 163.147 55.5223 163.354C55.7288 163.974 55.9353 164.388 55.9353 165.008C59.2389 164.801 62.336 164.801 66.0526 164.594ZM40.8623 164.181C44.166 165.421 47.4696 165.421 51.1862 164.181C48.502 162.32 43.5465 162.32 40.8623 164.181ZM40.6559 137.3C43.753 139.367 49.1214 139.161 50.9797 137.093C47.4696 136.059 44.166 136.266 40.6559 137.3ZM65.6396 175.347C65.6396 175.14 65.6396 175.14 65.8461 174.933C65.2267 174.52 64.8138 173.899 64.1943 173.899C61.3036 173.692 58.6194 173.486 55.7288 174.106L55.5223 174.313C55.5223 175.347 56.1417 175.553 57.174 175.553C59.2388 175.553 61.5101 175.347 63.5749 175.347C64.1943 175.553 64.8137 175.347 65.6396 175.347ZM15.2591 152.808C15.2591 153.015 15.2591 153.222 15.2591 153.428C18.5627 153.635 21.6599 153.842 24.9636 154.255C25.17 153.635 25.17 153.222 25.3765 152.395C21.8664 152.188 18.5627 151.154 15.2591 152.808ZM15.0526 174.52C15.0526 174.726 15.0526 174.726 15.2591 174.933C18.5627 175.14 21.6599 175.347 24.9636 175.76C25.17 175.14 25.17 174.726 25.3765 174.313C23.9311 173.899 17.7368 173.486 16.498 173.899C16.085 173.899 15.4656 174.313 15.0526 174.52ZM55.9353 153.428C59.4454 154.669 63.7814 154.462 65.8461 153.222C64.1943 151.567 60.0648 151.567 55.9353 153.428ZM467.445 150.12C467.652 150.533 467.652 151.154 467.858 151.567C468.271 152.188 468.684 153.428 469.097 153.428C469.923 153.428 470.749 152.808 471.575 152.395C471.988 152.188 471.988 151.361 472.194 150.947C470.543 149.706 469.097 149.5 467.445 150.12ZM1519.04 141.435C1520.89 141.022 1521.1 140.815 1521.51 139.161C1520.48 139.988 1519.86 140.608 1519.04 141.435ZM1528.74 134.405C1527.5 134.612 1526.88 135.232 1526.26 136.473C1527.71 136.059 1528.53 135.646 1528.74 134.405Z" fill="#EFF0F2"/>
<path d="M1232.86 127.995C1232.03 126.134 1230.38 124.686 1228.94 123.239C1227.08 121.171 1225.43 118.69 1223.98 116.209C1222.95 114.554 1223.98 112.9 1224.6 111.039C1319.79 110.626 1414.97 110.212 1510.16 109.798C1510.57 112.487 1510.98 114.968 1509.13 117.036C1508.51 117.863 1508.09 118.69 1507.47 119.724C1506.85 120.964 1506.03 122.205 1505 123.032C1504.17 123.653 1503.55 124.893 1502.93 125.72C1502.31 126.547 1501.69 126.961 1500.66 126.961C1497.77 126.961 1494.67 126.961 1491.78 126.961C1457.51 127.168 1423.44 127.168 1389.16 127.375C1354.06 127.581 1318.96 127.581 1283.86 127.788C1267.75 127.788 1251.65 127.995 1235.54 127.995C1234.51 127.995 1233.68 127.995 1232.86 127.995Z" fill="#EFF0F2"/>
<path d="M1311.53 107.11C1313.18 105.87 1314.83 104.629 1316.69 103.595C1322.26 100.287 1328.46 98.219 1334.65 96.358C1344.77 93.4631 1355.09 91.3954 1365.83 91.1886C1376.57 90.9818 1387.1 92.4293 1397.21 95.1174C1405.06 97.3919 1412.49 100.494 1419.72 104.216C1420.96 104.836 1422.2 105.663 1423.44 106.697C1421.58 107.317 1313.59 107.938 1311.53 107.11Z" fill="#EFF0F2"/>
<path d="M1518.62 108.351C1519.24 107.317 1520.07 106.49 1521.72 106.283C1520.69 107.524 1519.86 108.144 1518.62 108.351Z" fill="#EFF0F2"/>
<path d="M1528.12 106.49C1527.5 107.524 1526.68 108.351 1525.02 108.558C1526.06 107.317 1527.09 106.697 1528.12 106.49Z" fill="#EFF0F2"/>
<path d="M1528.12 111.453C1527.5 112.693 1526.47 113.107 1525.44 113.52C1526.06 112.28 1527.09 111.659 1528.12 111.453Z" fill="#EFF0F2"/>
<path d="M1521.51 111.659C1520.69 112.28 1519.66 112.9 1518.83 113.52C1518.83 113.314 1518.62 113.314 1518.62 113.107C1519.24 112.073 1520.28 111.659 1521.31 111.039C1521.31 111.453 1521.51 111.659 1521.51 111.659Z" fill="#EFF0F2"/>
<path d="M1514.49 121.791C1513.67 122.412 1512.64 123.032 1511.81 123.653C1512.02 121.998 1513.05 121.585 1514.49 121.791Z" fill="#EFF0F2"/>
<path d="M1525.23 103.595C1526.06 102.354 1527.09 101.734 1528.74 101.321C1527.71 102.561 1526.88 103.388 1525.23 103.595Z" fill="#EFF0F2"/>
<path d="M1518.42 118.069C1519.24 117.449 1520.28 116.829 1521.1 116.209C1521.1 116.415 1521.31 116.415 1521.31 116.622C1520.69 117.449 1519.86 118.069 1518.42 118.069Z" fill="#EFF0F2"/>
<path d="M1528.33 96.5648C1527.71 97.5987 1526.88 98.4258 1525.23 98.6326C1526.06 97.3919 1527.09 96.7716 1528.33 96.5648Z" fill="#EFF0F2"/>
<path d="M1521.72 101.527C1520.9 102.561 1520.07 103.388 1518.62 103.595C1519.24 102.354 1520.07 101.734 1521.72 101.527Z" fill="#EFF0F2"/>
<path d="M1515.53 116.002C1515.32 114.348 1516.35 114.554 1517.18 114.141C1517.18 114.348 1517.38 114.348 1517.38 114.554C1516.76 114.968 1516.15 115.588 1515.53 116.002Z" fill="#EFF0F2"/>
<path d="M1515.32 105.663C1515.94 104.422 1516.56 104.215 1517.8 104.422C1517.38 105.663 1516.56 105.456 1515.32 105.663Z" fill="#EFF0F2"/>
<path d="M1515.53 119.931C1516.15 119.517 1516.77 119.31 1517.59 118.897C1517.38 120.137 1517.38 120.137 1515.73 120.344C1515.73 120.137 1515.53 120.137 1515.53 119.931Z" fill="#EFF0F2"/>
<path d="M1524.4 104.836C1523.79 105.043 1523.17 105.249 1522.34 105.663C1522.75 104.422 1523.58 104.215 1524.2 104.215C1524.2 104.629 1524.4 104.836 1524.4 104.836Z" fill="#EFF0F2"/>
<path d="M1524.4 109.798C1523.79 110.005 1523.17 110.419 1522.55 110.832C1522.96 109.592 1522.96 109.592 1524.2 109.385C1524.4 109.592 1524.4 109.592 1524.4 109.798Z" fill="#EFF0F2"/>
<path d="M1513.46 107.11C1513.87 106.904 1514.49 106.49 1515.11 106.283C1515.11 107.731 1514.08 107.317 1513.46 107.11Z" fill="#EFF0F2"/>
<path d="M1522.34 115.381C1522.55 114.348 1523.58 114.554 1524.2 114.141C1523.99 115.382 1523.99 115.381 1522.34 115.381Z" fill="#EFF0F2"/>
<path d="M1515.11 111.246C1515.32 109.592 1516.35 109.592 1516.97 109.178C1516.97 109.385 1517.18 109.385 1517.18 109.592C1516.77 110.005 1516.15 110.419 1515.11 111.246Z" fill="#EFF0F2"/>
<path d="M1524.4 100.08C1523.79 100.287 1523.17 100.494 1522.55 100.7C1522.55 100.494 1522.34 100.287 1522.34 100.08C1522.96 99.8731 1523.58 99.6664 1523.99 99.2529C1524.2 99.6664 1524.2 99.8731 1524.4 100.08Z" fill="#EFF0F2"/>
</svg>
