<svg width="1171" height="128" viewBox="0 0 1171 128" fill="none" xmlns="http://www.w3.org/2000/svg">
<path opacity="0.04" d="M28.996 147.48H0.196713V-0.0390482H28.996V147.48ZM167.334 73.7203C167.334 87.9473 166.781 98.7212 165.676 106.042C164.709 113.363 162.223 119.993 158.217 125.932L170.856 138.571L155.731 153.695L142.471 140.85C134.183 146.098 124.307 148.723 112.843 148.723C97.0966 148.723 83.9055 143.543 73.2698 133.184C66.5016 126.415 62.2888 119.026 60.6312 111.014C59.1119 102.865 58.3522 90.4336 58.3522 73.7203C58.3522 57.0071 59.1119 44.6448 60.6312 36.6335C62.2888 28.484 66.5016 21.0252 73.2698 14.257C83.9055 3.89754 97.0966 -1.28219 112.843 -1.28219C128.727 -1.28219 141.849 3.89754 152.209 14.257C158.977 21.0252 163.19 28.484 164.847 36.6335C166.505 44.7829 167.334 57.1452 167.334 73.7203ZM138.534 73.7203C138.534 60.0458 137.982 50.5151 136.877 45.1282C135.91 39.7413 134.045 35.4594 131.283 32.2825C126.725 27.0337 120.578 24.4093 112.843 24.4093C105.246 24.4093 99.0303 27.0337 94.1959 32.2825C91.4334 35.4594 89.5687 39.7413 88.6018 45.1282C87.6349 50.5151 87.1515 60.0458 87.1515 73.7203C87.1515 87.3948 87.6349 96.9255 88.6018 102.312C89.5687 107.561 91.4334 111.774 94.1959 114.951C99.1685 120.338 105.384 123.031 112.843 123.031C116.434 123.031 119.611 122.134 122.374 120.338L109.528 107.699L124.653 92.3674L135.841 103.556C137.637 98.0306 138.534 88.0855 138.534 73.7203ZM287.306 25.6524H248.769V147.48H219.97V25.6524H181.432V-0.0390482H287.306V25.6524ZM339.578 147.48H310.778V-0.0390482H339.578V147.48ZM469.213 103.97C469.213 117.921 464.103 128.902 453.881 136.913C443.66 144.786 430.538 148.723 414.515 148.723C402.775 148.723 392.622 147.273 384.059 144.372C375.495 141.333 367.691 136.292 360.646 129.247L379.293 110.6C387.581 118.888 399.391 123.031 414.723 123.031C423.286 123.031 429.778 121.443 434.198 118.266C438.757 115.089 441.036 110.531 441.036 104.592C441.036 99.4809 439.516 95.4062 436.478 92.3674C433.853 89.8811 429.433 88.2236 423.217 87.3948L405.606 84.7014C393.175 82.9057 383.644 78.831 377.014 72.4772C369.97 65.5709 366.448 55.9021 366.448 43.4707C366.448 30.0725 371.075 19.2986 380.329 11.1492C389.584 2.86159 402.084 -1.28219 417.83 -1.28219C437.721 -1.28219 453.605 4.45004 465.484 15.9145L447.251 33.94C440.345 27.1718 430.262 23.7877 417.002 23.7877C409.681 23.7877 404.087 25.5834 400.219 29.1746C396.352 32.6278 394.418 37.0478 394.418 42.4348C394.418 46.8548 395.799 50.377 398.562 53.0014C401.739 55.9021 406.228 57.7668 412.029 58.5955L429.64 61.289C442.21 63.0846 451.602 66.9522 457.818 72.8916C465.415 79.936 469.213 90.2955 469.213 103.97ZM597.841 36.6335C599.498 44.7829 600.327 57.1452 600.327 73.7203C600.327 90.2955 599.498 102.658 597.841 110.807C596.183 118.957 591.97 126.415 585.202 133.184C574.843 143.543 561.721 148.723 545.836 148.723C529.814 148.723 516.623 143.543 506.263 133.184C499.495 126.415 495.282 119.026 493.625 111.014C492.105 102.865 491.345 90.4336 491.345 73.7203C491.345 57.0071 492.105 44.6448 493.625 36.6335C495.282 28.484 499.495 21.0252 506.263 14.257C516.623 3.89754 529.814 -1.28219 545.836 -1.28219C561.721 -1.28219 574.843 3.89754 585.202 14.257C591.97 21.0252 596.183 28.484 597.841 36.6335ZM571.528 73.7203C571.528 60.0458 570.975 50.5151 569.87 45.1282C568.903 39.7413 567.039 35.4594 564.276 32.2825C559.718 27.0337 553.571 24.4093 545.836 24.4093C538.239 24.4093 532.024 27.0337 527.189 32.2825C524.427 35.4594 522.562 39.7413 521.595 45.1282C520.628 50.5151 520.145 60.0458 520.145 73.7203C520.145 87.3948 520.628 96.9255 521.595 102.312C522.562 107.561 524.427 111.774 527.189 114.951C532.162 120.338 538.377 123.031 545.836 123.031C553.433 123.031 559.58 120.338 564.276 114.951C567.039 111.636 568.903 107.354 569.87 102.105C570.975 96.7184 571.528 87.2567 571.528 73.7203ZM735.115 41.1916C736.22 48.3742 736.773 59.2171 736.773 73.7203C736.773 88.2236 736.22 99.1356 735.115 106.456C734.148 113.639 731.593 120.131 727.449 125.932C717.09 140.297 702.241 147.48 682.903 147.48H629.656V-0.0390482H682.903C702.241 -0.0390482 717.09 7.14351 727.449 21.5086C731.593 27.3099 734.148 33.8709 735.115 41.1916ZM706.937 100.241C707.628 94.9918 707.973 86.1517 707.973 73.7203C707.973 61.289 707.628 52.4489 706.937 47.2001C706.247 41.9513 704.589 37.8075 701.965 34.7688C697.13 28.6912 689.948 25.6524 680.417 25.6524H658.455V121.788H680.417C689.948 121.788 697.13 118.749 701.965 112.672C704.589 109.633 706.247 105.489 706.937 100.241ZM795.03 147.48H766.231V-0.0390482H795.03V147.48ZM930.053 -0.0390482L885.714 86.9805V147.48H857.122V86.9805L812.783 -0.0390482H844.069L871.625 59.4243L898.767 -0.0390482H930.053ZM1047.43 36.6335C1049.08 44.7829 1049.91 57.1452 1049.91 73.7203C1049.91 90.2955 1049.08 102.658 1047.43 110.807C1045.77 118.957 1041.55 126.415 1034.79 133.184C1024.43 143.543 1011.31 148.723 995.421 148.723C979.398 148.723 966.207 143.543 955.848 133.184C949.079 126.415 944.867 119.026 943.209 111.014C941.69 102.865 940.93 90.4336 940.93 73.7203C940.93 57.0071 941.69 44.6448 943.209 36.6335C944.867 28.484 949.079 21.0252 955.848 14.257C966.207 3.89754 979.398 -1.28219 995.421 -1.28219C1011.31 -1.28219 1024.43 3.89754 1034.79 14.257C1041.55 21.0252 1045.77 28.484 1047.43 36.6335ZM1021.11 73.7203C1021.11 60.0458 1020.56 50.5151 1019.45 45.1282C1018.49 39.7413 1016.62 35.4594 1013.86 32.2825C1009.3 27.0337 1003.16 24.4093 995.421 24.4093C987.824 24.4093 981.608 27.0337 976.774 32.2825C974.011 35.4594 972.147 39.7413 971.18 45.1282C970.213 50.5151 969.729 60.0458 969.729 73.7203C969.729 87.3948 970.213 96.9255 971.18 102.312C972.147 107.561 974.011 111.774 976.774 114.951C981.746 120.338 987.962 123.031 995.421 123.031C1003.02 123.031 1009.16 120.338 1013.86 114.951C1016.62 111.636 1018.49 107.354 1019.45 102.105C1020.56 96.7184 1021.11 87.2567 1021.11 73.7203ZM1170.09 25.6524H1131.55V147.48H1102.75V25.6524H1064.21V-0.0390482H1170.09V25.6524Z" fill="white"/>
</svg>
