<svg width="109" height="84" viewBox="0 0 109 84" fill="none" xmlns="http://www.w3.org/2000/svg">
<path fill-rule="evenodd" clip-rule="evenodd" d="M28.0849 20.0195C26.4951 21.4154 25.4922 23.4578 25.4922 25.7413C25.4922 29.9269 28.8715 33.3275 33.0405 33.3275C35.3087 33.3275 37.3416 32.3149 38.7267 30.7176C36.1779 30.026 33.8539 28.6742 31.9866 26.7971C30.1193 24.9199 28.774 22.583 28.0849 20.0195Z" fill="#0D80C5"/>
<path fill-rule="evenodd" clip-rule="evenodd" d="M42.6511 0.894531C34.3033 0.894531 27.5478 7.68944 27.5478 16.0805C27.5478 17.4435 27.7438 18.7652 28.0849 20.0213C29.4569 18.8143 31.2178 18.1494 33.0405 18.1501C37.2076 18.1501 40.5887 21.5444 40.5887 25.743C40.5887 27.6501 39.882 29.3884 38.7267 30.7199C39.9761 31.0611 41.2893 31.2546 42.6511 31.2546C50.9786 31.2546 57.7434 24.4579 57.7434 16.0811C57.7434 7.68944 50.9786 0.894531 42.6511 0.894531ZM0.997559 72.9185H1.33862C6.95237 72.9185 9.34228 70.4205 9.34228 64.6308V36.2222H20.7554V66.2732C20.7554 77.3026 13.2765 83.5486 4.81871 83.5486H0.997559V72.9185ZM27.4654 36.2222H38.8699V73.4254H27.4654V36.2222ZM22.5953 25.743C22.5953 21.5444 19.2135 18.1501 15.0519 18.1501C14.0605 18.1493 13.0786 18.3453 12.1625 18.7266C11.2464 19.1079 10.4141 19.6672 9.71304 20.3724C9.01202 21.0776 8.4561 21.915 8.07709 22.8365C7.69808 23.7581 7.50341 24.7457 7.50422 25.743C7.50422 29.9287 10.8798 33.3292 15.0519 33.3292C19.2135 33.3292 22.5953 29.928 22.5953 25.743ZM97.3807 73.4254H109L95.6004 36.2216H83.9722L70.5686 73.4254H82.1931L83.8554 67.7581H95.7104L97.3807 73.4254ZM86.1544 59.9518L89.785 47.5848L93.4206 59.9518H86.1544ZM63.6724 63.379C58.742 63.379 54.7445 59.5513 54.7445 54.8241C54.7445 50.102 58.7414 46.2755 63.6724 46.2755C65.9658 46.2755 68.0607 47.1038 69.6389 48.4669V37.3937C67.4542 36.5004 64.4356 35.9917 61.932 35.9917C51.5852 35.9917 43.203 44.4247 43.203 54.8248C43.203 65.236 51.5852 73.6573 61.932 73.6573C64.4356 73.6573 67.4542 73.1553 69.6389 72.2559V61.1882C68.0607 62.5463 65.9664 63.379 63.6724 63.379Z" fill="#0D80C5"/>
</svg>
