<svg width="311" height="248" viewBox="0 0 311 248" fill="none" xmlns="http://www.w3.org/2000/svg">
<g opacity="0.1">
<path d="M0 -179C0 -166.268 10.347 -155.894 23.0457 -155.894H388.954C401.653 -155.894 412 -166.268 412 -179H0Z" fill="url(#paint0_linear_1322_18167)"/>
<path d="M34.3366 -132.318C34.3366 -119.586 44.6836 -109.211 57.3822 -109.211V195.885C57.3822 202.015 62.0854 206.731 68.1996 206.731H106.766C129.811 206.731 151.916 213.804 170.729 226.536L208.355 252L237.985 229.837C257.738 214.747 282.195 206.731 306.652 206.731H343.807C349.921 206.731 354.624 202.015 354.624 195.885V-109.211H357.446C370.145 -109.211 380.492 -119.586 380.492 -132.318H34.3366ZM223.875 211.446L207.414 223.707L183.428 207.202C160.853 191.641 134.044 183.624 106.295 183.624H79.9576V111.005H106.295C129.341 111.005 151.446 118.078 170.259 130.81L207.885 156.274L237.515 134.111C257.268 119.021 281.725 111.005 306.181 111.005H331.108V183.624H306.181C277.022 183.624 247.862 193.527 223.875 211.446ZM194.716 21.8809V119.021L183.898 111.476C177.314 106.761 170.259 102.988 162.734 99.6876V21.8809H194.716ZM247.391 21.8809V101.474L250.213 100.159C240.807 104.403 232.341 109.59 223.875 115.72L217.291 120.436V21.8809H247.391ZM331.579 87.8987H306.652C294.423 87.8987 282.195 89.7849 270.437 93.0858V22.3525H289.72C302.419 22.3525 312.766 11.9783 312.766 -0.753723H97.3594C97.3594 11.9783 107.706 22.3525 120.405 22.3525H139.688V92.6143C128.871 89.7849 118.053 88.3703 106.766 88.3703H80.4279V-109.211H331.579V87.8987Z" fill="url(#paint1_linear_1322_18167)"/>
</g>
<defs>
<linearGradient id="paint0_linear_1322_18167" x1="207.414" y1="-179" x2="207.414" y2="252" gradientUnits="userSpaceOnUse">
<stop stop-color="#144176"/>
<stop offset="1" stop-color="#144176" stop-opacity="0"/>
</linearGradient>
<linearGradient id="paint1_linear_1322_18167" x1="207.414" y1="-179" x2="207.414" y2="252" gradientUnits="userSpaceOnUse">
<stop stop-color="#144176"/>
<stop offset="1" stop-color="#144176" stop-opacity="0"/>
</linearGradient>
</defs>
</svg>
