<svg width="177" height="42" viewBox="0 0 177 42" fill="none" xmlns="http://www.w3.org/2000/svg">
<path d="M78.7526 5.89551H78.0234V36.068H78.7526V5.89551Z" fill="white"/>
<path d="M26.4573 15.7158H23.1836V26.9348H26.4573V15.7158Z" fill="white"/>
<path d="M33.0409 15.7158H29.793V26.9348H33.0704V20.3149C33.0704 18.4091 34.0279 17.4382 35.5782 17.4382C36.9812 17.4382 37.7435 18.5169 37.7435 20.0847V26.9168H41.0173V20.2501C41.0173 18.2976 42.0005 17.4454 43.595 17.4454C45.1895 17.4454 45.7088 18.7902 45.7088 20.0919V26.924H48.9825V19.5597C48.9347 16.9815 47.4801 15.4317 44.6998 15.4533C43.1873 15.5185 41.7412 16.0782 40.5938 17.0427C39.8573 16.0107 38.5279 15.4497 36.9775 15.4497C35.5266 15.4497 33.9284 16.0358 33.0925 17.0427H33.0409V15.7158Z" fill="white"/>
<path d="M61.2351 24.6262C60.4876 24.9961 59.6611 25.1884 58.823 25.1871C56.4883 25.1871 55.0853 23.4575 55.0853 21.2317C55.0853 18.6283 56.956 17.4849 58.8009 17.4849C59.1734 17.4848 59.5444 17.5295 59.9057 17.6179C60.2739 17.7067 60.6356 17.8196 60.9883 17.9559L61.7948 16.2084C60.8074 15.7077 59.7111 15.4462 58.5984 15.446C54.242 15.446 51.6348 18.2292 51.6348 21.372C51.6348 23.6589 53.3066 27.2044 58.4253 27.2044C59.6448 27.1888 60.8429 26.8893 61.92 26.3306L61.2351 24.6262Z" fill="white"/>
<path d="M22.1777 12.0083C22.1777 11.5105 22.3289 11.0238 22.6122 10.6099C22.8954 10.1959 23.298 9.87332 23.769 9.68281C24.24 9.4923 24.7584 9.44246 25.2584 9.53958C25.7584 9.6367 26.2177 9.87643 26.5782 10.2284C26.9387 10.5805 27.1843 11.029 27.2837 11.5172C27.3832 12.0055 27.3321 12.5116 27.137 12.9715C26.9419 13.4315 26.6115 13.8246 26.1876 14.1012C25.7637 14.3777 25.2653 14.5254 24.7555 14.5254C24.0718 14.5254 23.4162 14.2602 22.9327 13.7881C22.4493 13.3161 22.1777 12.6759 22.1777 12.0083Z" fill="#FFCC00"/>
<path d="M21.4121 11.5878C14.3601 13.8316 9.87109 17.2045 9.87109 20.998C9.87109 24.1732 13.0381 27.0642 18.2378 29.2361C15.1702 27.7186 13.2958 25.7697 13.1007 23.5151C12.8061 20.1351 16.3634 16.7694 22.2296 14.166C21.6851 13.5722 21.3802 12.8055 21.3716 12.0085C21.3776 11.8712 21.3911 11.7344 21.4121 11.5986V11.5878ZM57.1877 10.2106C52.1742 9.21474 47.0692 8.72552 41.9531 8.75068C37.1045 8.73136 32.2652 9.16969 27.503 10.0596C27.9277 10.6246 28.1561 11.3076 28.1548 12.0085C28.1548 12.0301 28.1548 12.048 28.1548 12.0696C32.3404 10.8846 36.6352 10.1042 40.9773 9.73953C46.3772 9.22161 51.823 9.38476 57.1803 10.225L57.1877 10.2106ZM74.0315 20.998C74.0315 17.8265 70.8645 14.9355 65.6685 12.7636C68.7323 14.2631 70.6067 16.2084 70.8019 18.4594C71.3432 24.655 58.8485 30.8326 42.929 32.235C37.5289 32.7518 32.0831 32.5875 26.7259 31.746C31.7363 32.7474 36.8389 33.2426 41.9531 33.2238C59.6697 33.2238 74.0315 27.7474 74.0315 20.998Z" fill="white"/>
<path d="M167 24.1084C167 22.8391 166.572 21.167 163.667 20.0631C162.326 19.5597 161.222 18.9161 161.222 17.4346C161.222 15.9531 162.098 14.9175 163.656 14.9175C164.48 14.927 165.287 15.1571 165.987 15.5827L166.455 14.3745C165.55 13.8238 164.496 13.5531 163.431 13.5978C162.883 13.5783 162.337 13.669 161.827 13.8643C161.316 14.0596 160.852 14.3552 160.464 14.7329C160.075 15.1105 159.771 15.5622 159.568 16.0597C159.366 16.5573 159.271 17.0901 159.288 17.6252C159.288 19.0203 159.951 20.5018 162.407 21.4619C164.249 22.1811 164.985 22.9434 164.985 24.2127C164.985 25.8416 163.917 26.9024 162.231 26.9024C161.324 26.9235 160.43 26.6928 159.653 26.2372L159.141 27.5712C159.907 28.053 160.89 28.3659 162.558 28.3659C165.136 28.3659 167 26.6111 167 24.1084ZM157.09 28.1573L155.33 13.8064H153.267L150.233 24.1911C150.08 24.7198 149.957 25.2564 149.865 25.7985H149.806C149.713 25.2507 149.59 24.7081 149.438 24.1732L146.492 13.8064H144.422L142.669 28.1573H144.356L145.49 17.4022C145.578 16.5464 145.597 15.7338 145.597 15.7338H145.641C145.641 15.7338 145.81 16.5464 146.046 17.4022C146.046 17.4022 149.058 27.956 149.121 28.1645H150.425C150.509 27.9128 153.544 17.4238 153.544 17.4238C153.801 16.5248 153.949 15.7338 153.949 15.7338H153.993C153.993 15.7338 154.015 16.5248 154.1 17.4238C154.1 17.4238 155.204 27.9739 155.23 28.1645L157.09 28.1573ZM140.537 28.1573V26.8628H135.687V21.3756H140.044V20.1063H135.687V15.1009H140.537V13.8064H133.724V28.1573H140.537ZM128.941 17.938C128.941 20.002 127.785 21.1742 125.395 21.1742C124.971 21.1796 124.549 21.1386 124.135 21.052V15.0362C124.655 14.7997 125.227 14.6922 125.8 14.7233C127.958 14.7233 128.941 15.7445 128.941 17.938ZM131.224 28.1573L126.418 21.8359V21.7927C129.11 21.7532 130.881 20.2933 130.881 17.8373C130.881 15.1692 129.173 13.5835 125.844 13.5835C124.578 13.5541 123.323 13.8243 122.187 14.3709V28.1573H124.131V21.4619H124.172L129 28.1573H131.224ZM120.224 28.1573L114.969 20.4802L119.978 13.8064H117.926L113.22 20.4587H113.176V13.8064H111.232V28.1573H113.176V20.732H113.22L118.007 28.1573H120.224ZM103.266 28.1573V13.8064H101.3V20.1063H95.7761V13.8064H93.8134V28.1573H95.7761V21.3756H101.3V28.1573H103.266ZM91.3277 15.1009V13.8064H84.5371V28.1573H86.4999V21.3756H90.8379V20.1063H86.4999V15.1009H91.3277Z" fill="white"/>
</svg>
