<svg width="77" height="81" viewBox="0 0 77 81" fill="none" xmlns="http://www.w3.org/2000/svg">
<path d="M0 0C0 2.36515 1.92372 4.29231 4.28464 4.29231H72.3142C74.6752 4.29231 76.5989 2.36515 76.5989 0H0Z" fill="white"/>
<path d="M6.38379 8.67188C6.38379 11.037 8.3075 12.9642 10.6684 12.9642V67.9758V69.6402C10.6684 70.7789 11.5428 71.6549 12.6796 71.6549H19.8498C24.1344 71.6549 28.2442 72.9689 31.7419 75.334L38.7372 80.0643L44.246 75.9472C47.9186 73.1441 52.4655 71.6549 57.0125 71.6549H63.9204C65.0571 71.6549 65.9315 70.7789 65.9315 69.6402V67.9758V12.9642H66.4562C68.8171 12.9642 70.7408 11.037 70.7408 8.67188H6.38379ZM41.6228 72.5309L38.5623 74.8085L34.1028 71.7425C29.9056 68.8518 24.9214 67.3626 19.7624 67.3626H14.8656V53.8725H19.7624C24.047 53.8725 28.1568 55.1865 31.6544 57.5516L38.6498 62.2819L44.1586 58.1648C47.8311 55.3617 52.3781 53.8725 56.9251 53.8725H61.5595V67.3626H56.9251C51.5037 67.3626 46.0823 69.2022 41.6228 72.5309ZM36.2014 37.3165V55.3617L34.1902 53.9601C32.966 53.0841 31.6544 52.3833 30.2554 51.7701V37.3165H36.2014ZM40.486 37.3165H45.9949V52.102L46.5195 51.8577C44.7707 52.6461 43.1967 53.6097 41.6228 54.7485L40.3986 55.6245V37.3165H40.486ZM61.6469 49.5802H57.0125C54.739 49.5802 52.4655 49.9306 50.2795 50.5438V37.4041H53.8646C56.2255 37.4041 58.1492 35.4769 58.1492 33.1117H18.101C18.101 35.4769 20.0247 37.4041 22.3856 37.4041H25.9707V50.4562C23.9596 49.9306 21.9484 49.6678 19.8498 49.6678H14.9531V12.9642H61.6469V49.5802Z" fill="white"/>
<path d="M25.796 27.1556H27.982V20.5858H31.3923V27.1556H34.4527C35.7643 27.1556 36.8136 26.8052 37.5132 26.1044C38.2127 25.4036 38.5625 24.3525 38.5625 23.0385V22.5129C38.5625 21.2865 38.2127 20.2354 37.5132 19.5346C36.8136 18.8338 35.7643 18.4834 34.4527 18.4834H31.6546H31.3923H23.4351V20.5858H25.796V27.1556ZM33.5783 20.5858H34.3653C35.0648 20.5858 35.502 20.7609 35.8518 21.0237C36.1141 21.2865 36.289 21.8121 36.289 22.5129V23.0385C36.289 23.8269 36.1141 24.3525 35.8518 24.6153C35.5894 24.8781 35.0648 25.0533 34.3653 25.0533H33.5783V20.5858Z" fill="#D3E7FF"/>
<path d="M42.1472 18.4834H39.9609V27.1556H42.1472V18.4834Z" fill="#D3E7FF"/>
<path d="M44.5082 26.2794C44.858 26.6298 45.2079 26.805 45.6451 26.9802C46.0824 27.1554 46.6071 27.243 47.1318 27.243C47.6565 27.243 48.1812 27.1554 48.6184 26.9802C49.0557 26.805 49.4055 26.5422 49.7553 26.2794C50.1051 25.929 50.28 25.5787 50.4549 25.1407C50.6298 24.7027 50.7172 24.1771 50.7172 23.6515V18.5708H48.531V23.6515C48.531 24.2647 48.4435 24.7027 48.1812 24.8779C47.9188 25.1407 47.6565 25.2283 47.2192 25.2283C46.782 25.2283 46.4322 25.1407 46.2573 24.8779C45.9949 24.6151 45.9075 24.1771 45.9075 23.6515V18.5708H43.7212V23.6515C43.7212 24.1771 43.8086 24.7027 43.9835 25.1407C43.9835 25.5787 44.1584 25.929 44.5082 26.2794Z" fill="#D3E7FF"/>
</svg>
