<svg width="232" height="232" viewBox="0 0 232 232" fill="none" xmlns="http://www.w3.org/2000/svg">
<path d="M27.495 23.7637C27.495 29.2131 31.9278 33.6533 37.368 33.6533H194.127C199.567 33.6533 204 29.2131 204 23.7637H27.495Z" fill="white"/>
<path d="M42.2051 43.748C42.2051 49.1975 46.6379 53.6377 52.0781 53.6377V180.387V184.222C52.0781 186.845 54.093 188.864 56.7123 188.864H73.2345C83.1075 188.864 92.5775 191.891 100.637 197.34L116.756 208.239L129.45 198.753C137.913 192.295 148.39 188.864 158.868 188.864H174.785C177.405 188.864 179.42 186.845 179.42 184.222V180.387V53.6377H180.629C186.069 53.6377 190.502 49.1975 190.502 43.748H42.2051ZM123.405 190.882L116.353 196.13L106.077 189.065C96.4058 182.405 84.9209 178.974 73.033 178.974H61.7496V147.892H73.033C82.906 147.892 92.376 150.92 100.436 156.369L116.555 167.268L129.249 157.782C137.711 151.323 148.189 147.892 158.666 147.892H169.345V178.974H158.666C146.174 178.974 133.681 183.212 123.405 190.882ZM110.913 109.746V151.323L106.279 148.094C103.458 146.076 100.436 144.461 97.2118 143.048V109.746H110.913ZM120.786 109.746H133.48V143.813L134.689 143.25C130.659 145.067 127.032 147.287 123.405 149.91L120.585 151.929V109.746H120.786ZM169.547 138.003H158.868C153.629 138.003 148.39 138.81 143.353 140.223V109.948H151.614C157.054 109.948 161.487 105.508 161.487 100.059H69.2047C69.2047 105.508 73.6375 109.948 79.0777 109.948H87.3388V140.021C82.7045 138.81 78.0703 138.204 73.2345 138.204H61.9511V53.6377H169.547V138.003Z" fill="white"/>
<path d="M86.9363 86.3346H91.9736V71.1974H99.8317V86.3346H106.884C109.906 86.3346 112.324 85.5273 113.936 83.9127C115.548 82.298 116.354 79.8761 116.354 76.8486V75.6377C116.354 72.8121 115.548 70.3901 113.936 68.7755C112.324 67.1608 109.906 66.3535 106.884 66.3535H100.436H99.8317H81.4961V71.1974H86.9363V86.3346ZM104.869 71.1974H106.682C108.294 71.1974 109.302 71.6011 110.108 72.2066C110.712 72.8121 111.115 74.023 111.115 75.6377V76.8486C111.115 78.6651 110.712 79.8761 110.108 80.4816C109.503 81.0871 108.294 81.4907 106.682 81.4907H104.869V71.1974Z" fill="#D3E7FF"/>
<path d="M124.613 66.3535H119.576V86.3346H124.613V66.3535Z" fill="#D3E7FF"/>
<path d="M130.055 84.3138C130.861 85.1211 131.667 85.5247 132.674 85.9284C133.682 86.332 134.891 86.5339 136.1 86.5339C137.309 86.5339 138.518 86.332 139.525 85.9284C140.533 85.5247 141.339 84.9192 142.144 84.3138C142.95 83.5064 143.353 82.6991 143.756 81.69C144.159 80.6808 144.361 79.4698 144.361 78.2589V66.5527H139.324V78.2589C139.324 79.6717 139.122 80.6808 138.518 81.0845C137.913 81.69 137.309 81.8918 136.301 81.8918C135.294 81.8918 134.488 81.69 134.085 81.0845C133.48 80.479 133.279 79.4698 133.279 78.2589V66.5527H128.242V78.2589C128.242 79.4698 128.443 80.6808 128.846 81.69C128.846 82.6991 129.249 83.5064 130.055 84.3138Z" fill="#D3E7FF"/>
</svg>
