<svg width="271" height="204" viewBox="0 0 271 204" fill="none" xmlns="http://www.w3.org/2000/svg">
<path d="M133.906 200C187.042 200 230.12 157.048 230.12 103.879C230.12 50.7095 186.852 7.75781 133.906 7.75781C80.7696 7.75781 37.6914 50.7095 37.6914 103.879C37.6914 157.048 80.7696 200 133.906 200Z" fill="#EBF2FA"/>
<path d="M235.247 10.596C238.182 10.596 240.561 8.22402 240.561 5.29801C240.561 2.372 238.182 0 235.247 0C232.313 0 229.934 2.372 229.934 5.29801C229.934 8.22402 232.313 10.596 235.247 10.596Z" fill="#DBEDFF"/>
<path d="M42.8175 40.681C45.7521 40.681 48.1311 38.309 48.1311 35.383C48.1311 32.457 45.7521 30.085 42.8175 30.085C39.8829 30.085 37.5039 32.457 37.5039 35.383C37.5039 38.309 39.8829 40.681 42.8175 40.681Z" fill="#DBEDFF"/>
<path d="M10.3662 142.857C15.8162 142.857 20.2343 138.452 20.2343 133.018C20.2343 127.584 15.8162 123.178 10.3662 123.178C4.91616 123.178 0.498047 127.584 0.498047 133.018C0.498047 138.452 4.91616 142.857 10.3662 142.857Z" fill="#DBEDFF"/>
<g filter="url(#filter0_d_5831_15458)">
<path d="M225.592 53.3902V164.72C225.592 167.986 222.862 170.708 219.586 170.708H49.9162C46.6402 170.844 43.9102 168.122 43.9102 164.856V53.3902C43.9102 49.9877 46.6402 47.4019 49.9162 47.4019H219.586C222.999 47.4019 225.592 50.1238 225.592 53.3902Z" fill="url(#paint0_linear_5831_15458)"/>
</g>
<path d="M225.592 53.3902V61.9645H43.9102V53.3902C43.9102 49.9877 46.6402 47.4019 49.9162 47.4019H219.586C222.999 47.4019 225.592 50.1238 225.592 53.3902Z" fill="url(#paint1_linear_5831_15458)"/>
<path d="M109.701 105.108C112.49 105.108 114.751 102.854 114.751 100.073C114.751 97.2914 112.49 95.0369 109.701 95.0369C106.912 95.0369 104.65 97.2914 104.65 100.073C104.65 102.854 106.912 105.108 109.701 105.108Z" fill="#17406C"/>
<path d="M159.935 105.108C162.725 105.108 164.986 102.854 164.986 100.073C164.986 97.2914 162.725 95.0369 159.935 95.0369C157.146 95.0369 154.885 97.2914 154.885 100.073C154.885 102.854 157.146 105.108 159.935 105.108Z" fill="#17406C"/>
<path d="M143.007 138.18H127.172C124.715 138.18 122.668 136.139 122.668 133.689C122.668 131.239 124.715 129.198 127.172 129.198H142.87C145.327 129.198 147.375 131.239 147.375 133.689C147.511 136.139 145.464 138.18 143.007 138.18Z" fill="#17406C"/>
<path d="M51.9635 57.2007C53.0943 57.2007 54.011 56.2867 54.011 55.1592C54.011 54.0317 53.0943 53.1177 51.9635 53.1177C50.8327 53.1177 49.916 54.0317 49.916 55.1592C49.916 56.2867 50.8327 57.2007 51.9635 57.2007Z" fill="#E8EDF2"/>
<path d="M58.3795 57.2007C59.5103 57.2007 60.427 56.2867 60.427 55.1592C60.427 54.0317 59.5103 53.1177 58.3795 53.1177C57.2487 53.1177 56.332 54.0317 56.332 55.1592C56.332 56.2867 57.2487 57.2007 58.3795 57.2007Z" fill="#E8EDF2"/>
<path d="M64.9303 57.2007C66.0611 57.2007 66.9778 56.2867 66.9778 55.1592C66.9778 54.0317 66.0611 53.1177 64.9303 53.1177C63.7995 53.1177 62.8828 54.0317 62.8828 55.1592C62.8828 56.2867 63.7995 57.2007 64.9303 57.2007Z" fill="#E8EDF2"/>
<path d="M218.221 32.9753C216.856 32.9753 215.764 31.8865 215.764 30.5255V3.16952C215.764 1.80852 216.856 0.719727 218.221 0.719727C219.586 0.719727 220.678 1.80852 220.678 3.16952V30.5255C220.678 31.8865 219.586 32.9753 218.221 32.9753Z" fill="#17406C"/>
<path d="M238.15 53.9344C238.15 52.5734 239.242 51.4846 240.607 51.4846H268.044C269.409 51.4846 270.501 52.5734 270.501 53.9344C270.501 55.2954 269.409 56.3842 268.044 56.3842H240.607C239.242 56.3842 238.15 55.2954 238.15 53.9344Z" fill="#17406C"/>
<path d="M235.967 36.2418C235.011 35.2892 235.011 33.656 235.967 32.7033L255.486 13.3771C256.442 12.4244 258.08 12.4244 259.035 13.3771C259.991 14.3298 259.991 15.963 259.035 16.9157L239.652 36.2418C238.56 37.1945 236.922 37.1945 235.967 36.2418Z" fill="#17406C"/>
<defs>
<filter id="filter0_d_5831_15458" x="21.9102" y="36.4019" width="225.682" height="167.311" filterUnits="userSpaceOnUse" color-interpolation-filters="sRGB">
<feFlood flood-opacity="0" result="BackgroundImageFix"/>
<feColorMatrix in="SourceAlpha" type="matrix" values="0 0 0 0 0 0 0 0 0 0 0 0 0 0 0 0 0 0 127 0" result="hardAlpha"/>
<feOffset dy="11"/>
<feGaussianBlur stdDeviation="11"/>
<feColorMatrix type="matrix" values="0 0 0 0 0.397708 0 0 0 0 0.47749 0 0 0 0 0.575 0 0 0 0.27 0"/>
<feBlend mode="normal" in2="BackgroundImageFix" result="effect1_dropShadow_5831_15458"/>
<feBlend mode="normal" in="SourceGraphic" in2="effect1_dropShadow_5831_15458" result="shape"/>
</filter>
<linearGradient id="paint0_linear_5831_15458" x1="134.692" y1="44.5496" x2="134.692" y2="172.042" gradientUnits="userSpaceOnUse">
<stop stop-color="#FDFEFF"/>
<stop offset="0.9964" stop-color="#ECF0F5"/>
</linearGradient>
<linearGradient id="paint1_linear_5831_15458" x1="218.385" y1="47.4019" x2="49.7663" y2="54.7261" gradientUnits="userSpaceOnUse">
<stop stop-color="#335272" stop-opacity="0.93"/>
<stop offset="1" stop-color="#17406C"/>
</linearGradient>
</defs>
</svg>
