<svg width="60" height="60" viewBox="0 0 60 60" fill="none" xmlns="http://www.w3.org/2000/svg">
<rect width="60" height="60" rx="4" fill="white" fill-opacity="0.16"/>
<path d="M34.4004 34.5745C35.0164 34.5745 35.4564 34.9265 35.6324 35.4545C35.7204 35.5433 35.7204 35.5433 35.8075 35.5433C36.0117 35.4201 36.2546 35.355 36.4983 35.355C36.7808 35.355 37.0677 35.443 37.3035 35.6305C37.7435 35.9816 37.8324 36.5105 37.6555 37.0393C37.6555 37.1282 37.7435 37.1282 37.7435 37.2145C38.2724 37.3033 38.7124 37.7433 38.7995 38.2705C38.8875 38.7993 38.6235 39.3265 38.1835 39.5905C38.1835 39.6793 38.1835 39.7665 38.1835 39.8545C38.4475 40.2065 38.5355 40.8233 38.2724 41.2633C38.0419 41.647 37.6124 41.8969 37.1557 41.8969C37.0879 41.8969 37.0193 41.8908 36.9524 41.8793C36.9524 41.9682 36.8635 41.9682 36.7764 42.0545C36.7764 42.5833 36.5124 43.0233 35.9844 43.1993C35.8084 43.2873 35.7204 43.2873 35.5444 43.2873C35.1933 43.2873 34.8404 43.1113 34.5764 42.8473C34.4875 42.8473 34.4875 42.8473 34.4004 42.8473C34.3133 42.8473 34.3124 42.8473 34.2244 42.8473C33.9674 43.1043 33.6154 43.2689 33.2388 43.2689C33.0998 43.2689 32.959 43.2477 32.8173 43.2002C32.3773 43.0242 32.0253 42.5842 32.0253 42.0553C32.0253 41.9673 31.9373 41.9673 31.8493 41.8802C31.7806 41.8917 31.7138 41.8978 31.646 41.8978C31.1893 41.8978 30.7598 41.6479 30.5293 41.2642C30.2653 40.8242 30.2653 40.2953 30.6182 39.8553C30.6182 39.7673 30.6182 39.6802 30.6182 39.5913C30.1782 39.3273 29.9142 38.8002 30.0022 38.2713C30.0902 37.7425 30.5302 37.3025 31.0582 37.2153C31.0582 37.1273 31.1462 37.1273 31.1462 37.0402C30.9702 36.5113 31.0582 35.9842 31.4982 35.6313C31.734 35.4421 32.02 35.3559 32.3034 35.3559C32.5471 35.3559 32.79 35.421 32.9942 35.5442C33.0822 35.4553 33.0822 35.4553 33.1693 35.4553C33.3444 34.9273 33.8724 34.5745 34.4004 34.5745ZM34.4004 32.8145C33.641 32.8145 32.9167 33.1066 32.3667 33.595C32.3447 33.595 32.3236 33.595 32.3016 33.595C31.6064 33.595 30.9297 33.8309 30.3964 34.2577C29.7892 34.7434 29.4214 35.4122 29.3246 36.1488C28.7746 36.6081 28.3847 37.2576 28.2633 37.9809C28.1445 38.6929 28.2906 39.4127 28.6443 40.0173C28.4956 40.7336 28.617 41.4992 29.0192 42.1671C29.3914 42.7875 29.9705 43.2486 30.6375 43.4818C30.9693 44.0802 31.5026 44.566 32.1617 44.83C32.1934 44.8432 32.225 44.8546 32.2576 44.8661C32.5753 44.9717 32.9044 45.0253 33.237 45.0253C33.6278 45.0253 34.0176 44.9479 34.3837 44.8036C34.7551 44.962 35.1502 45.0456 35.5427 45.0456C35.848 45.0456 36.2071 45.0271 36.6594 44.8238C37.3379 44.566 37.8711 44.0837 38.1923 43.4713C38.847 43.2328 39.4155 42.7769 39.7816 42.1671C40.1591 41.5397 40.2735 40.7714 40.1363 40.0481C40.5023 39.4382 40.6555 38.7052 40.5349 37.9818C40.4143 37.2567 40.0245 36.6073 39.4745 36.1479C39.3794 35.4096 39.0107 34.7399 38.4009 34.2559C37.8694 33.83 37.1926 33.5941 36.4974 33.5941C36.4843 33.5941 36.4719 33.5941 36.4579 33.5941C35.9149 33.0996 35.1924 32.8145 34.4004 32.8145Z" fill="white"/>
<path d="M37.9209 43.2871V50.3271L34.4009 47.6871L30.8809 50.3271V43.2871" stroke="white" stroke-width="2" stroke-miterlimit="10" stroke-linejoin="round"/>
<path d="M35.2806 16.8C35.2806 14.5578 36.4889 12.598 38.2841 11.52H16.8006C13.4038 11.52 10.6406 14.2832 10.6406 17.68V19.44C10.6406 19.9258 11.0349 20.32 11.5206 20.32H15.9206H34.4006C34.8873 20.32 35.2806 19.9258 35.2806 19.44V17.68V16.8Z" fill="white"/>
<path d="M41.4399 12.3999C39.0094 12.3999 37.0399 14.3702 37.0399 16.7999V17.6799V19.4399C37.0399 20.8954 35.8554 22.0799 34.3999 22.0799H15.9199V47.5999C15.9199 48.0865 16.3142 48.4799 16.7999 48.4799H30.8799V42.7273C29.8019 41.7602 29.1199 40.3619 29.1199 38.7999C29.1199 35.8845 31.4845 33.5199 34.3999 33.5199C37.3154 33.5199 39.6799 35.8845 39.6799 38.7999C39.6799 40.4323 38.9381 41.8922 37.7738 42.8602V48.4799H44.9599C45.4466 48.4799 45.8399 48.0865 45.8399 47.5999V19.4399V17.6799V16.7999C45.8399 14.3702 43.8705 12.3999 41.4399 12.3999ZM39.6799 31.7599H22.0799V29.9999H39.6799V31.7599ZM39.6799 26.4799H22.0799V24.7199H39.6799V26.4799Z" fill="white"/>
</svg>
