<svg width="177" height="42" viewBox="0 0 177 42" fill="none" xmlns="http://www.w3.org/2000/svg">
<path d="M56.1929 20.3149L63.5138 29.0836L70.9308 20.3149V33.985C72.4994 33.985 74.004 33.3678 75.1134 32.2697C76.2225 31.1712 76.8458 29.6814 76.8458 28.1283V8.06958C74.6874 8.06958 73.6761 8.6999 72.8671 9.60599L63.653 20.3149L54.2665 9.57316C53.2519 8.50621 52.1744 8.06958 50.2148 8.06958V28.0626C50.2148 29.6299 50.8435 31.1328 51.9628 32.2411C53.0822 33.3495 54.6001 33.9719 56.1829 33.9719V20.3149" fill="white"/>
<path opacity="0.38" d="M43.7894 17.8297C40.5666 14.4876 30.9215 17.2092 30.2485 18.2466C30.3632 17.5201 30.5797 16.8129 30.8917 16.1455C20.8321 24.7927 32.523 38.3053 40.6164 39.1589C30.2352 32.8425 29.8605 21.3161 43.7894 17.8297Z" fill="url(#paint0_linear)"/>
<path d="M43.8918 8.45357C43.0974 8.19323 42.2651 8.06356 41.4283 8.06927H30.248C32.6817 15.2919 42.7479 11.7693 42.7413 15.9485C43.9183 16.5821 44.283 17.2124 43.789 17.8395C42.5158 16.3917 30.5266 16.4475 30.248 24.2215V25.295C30.4503 31.6212 33.0995 33.5319 35.3209 33.9193L35.4701 33.9422L35.7354 33.9751C35.9144 33.9751 36.0935 34.0013 36.2758 34.0013V23.0823H42.3069C42.3069 23.0823 49.4123 23.0823 49.4123 15.9945C49.4123 11.0569 45.9839 9.15612 43.8918 8.45357Z" fill="white"/>
<path d="M41.5714 15.4234C41.6311 15.2822 40.958 15.1575 40.0529 15.1575C40.0065 15.2363 40.7425 15.5974 41.1934 15.6039C41.2654 15.6007 41.336 15.5829 41.401 15.5521C41.466 15.5209 41.524 15.4772 41.5714 15.4234Z" fill="white"/>
<path d="M85.5898 14.3902C85.2829 14.3902 84.8587 14.3902 84.5337 14.3902V17.5362C84.5337 17.605 84.5058 17.6712 84.457 17.7194C84.4083 17.7677 84.3415 17.7954 84.272 17.7954H82.584C82.5506 17.7981 82.5172 17.7936 82.4856 17.782C82.4531 17.7713 82.4243 17.7543 82.3999 17.731C82.3755 17.7087 82.3557 17.681 82.3421 17.6506C82.3286 17.6202 82.3223 17.5871 82.3223 17.5541V8.84898C82.3223 8.40211 82.5028 8.28592 82.909 8.22336C83.7891 8.10896 84.6755 8.05176 85.5628 8.05351C87.5396 8.05351 89.4893 8.74173 89.4893 11.1817V11.2979C89.4893 13.6842 87.5396 14.3902 85.5898 14.3902ZM87.2688 11.1459C87.2688 10.2522 86.6911 9.85892 85.5898 9.85892H84.5337V12.5402C84.6782 12.5402 85.4364 12.5402 85.5898 12.5402C86.7543 12.5402 87.2688 12.1112 87.2688 11.2353V11.1459Z" fill="white"/>
<path d="M98.1554 17.7597H96.1516C96.0071 17.7597 95.962 17.6346 95.8898 17.5005L94.1387 14.2562H93.9942H93.0916V17.5452C93.0916 17.614 93.0636 17.6802 93.0149 17.7284C92.9661 17.7767 92.8993 17.8044 92.8298 17.8044H91.1329C91.0634 17.8044 90.9966 17.7767 90.9478 17.7284C90.8991 17.6802 90.8711 17.614 90.8711 17.5452V8.858C90.8711 8.41113 91.0516 8.29493 91.4578 8.23237C92.3244 8.10099 93.199 8.02324 94.0755 8C96.305 8 98.02 8.74181 98.02 11.0298V11.1996C98.0534 11.7528 97.9072 12.3025 97.6039 12.769C97.3006 13.2347 96.8547 13.5931 96.3321 13.7915L98.3089 17.4469C98.3197 17.4943 98.3197 17.5425 98.3089 17.5899C98.354 17.6971 98.2999 17.7597 98.1554 17.7597ZM95.7995 11.0477C95.7995 10.2612 95.1857 9.89474 94.0845 9.89474C93.904 9.89474 93.227 9.89474 93.0645 9.89474V12.4687C93.2089 12.4687 93.8498 12.4687 93.9672 12.4687C95.3392 12.4687 95.7725 12.1202 95.7725 11.2354L95.7995 11.0477Z" fill="white"/>
<path d="M103.39 17.8758C101.233 17.8758 99.5176 16.7229 99.5176 13.7199V12.1827C99.5176 9.17074 101.233 8.01782 103.39 8.01782C105.547 8.01782 107.262 9.17074 107.262 12.1827V13.7199C107.262 16.7229 105.547 17.8758 103.39 17.8758ZM105.015 12.1827C105.015 10.6276 104.491 9.96618 103.39 9.96618C102.289 9.96618 101.783 10.6276 101.783 12.1827V13.7199C101.783 15.275 102.298 15.9364 103.39 15.9364C104.482 15.9364 105.015 15.275 105.015 13.7199V12.1827Z" fill="white"/>
<path d="M110.504 18.9841L109.908 19.9762C109.763 20.2264 109.691 20.289 109.511 20.289H107.796C107.772 20.2917 107.749 20.2899 107.727 20.2818C107.705 20.2747 107.685 20.2622 107.668 20.2461C107.651 20.2291 107.639 20.2094 107.631 20.1871C107.623 20.1657 107.622 20.1424 107.624 20.1192C107.624 20.0504 107.643 19.9824 107.678 19.9226L108.382 18.5641C108.787 17.8982 108.961 17.1198 108.879 16.3476V8.38428C108.876 8.353 108.881 8.32172 108.891 8.29223C108.901 8.26184 108.917 8.23503 108.938 8.21179C108.959 8.18856 108.985 8.16889 109.013 8.15548C109.042 8.14297 109.073 8.13493 109.105 8.13403H110.91C110.941 8.13493 110.972 8.14297 111.001 8.15548C111.03 8.16889 111.055 8.18856 111.077 8.21179C111.098 8.23503 111.114 8.26184 111.124 8.29223C111.134 8.32172 111.138 8.353 111.135 8.38428V16.3476C111.206 17.2699 110.985 18.1914 110.504 18.9841Z" fill="white"/>
<path d="M118.626 17.715C117.786 17.8347 116.938 17.8884 116.089 17.8759C114.401 17.8759 112.912 17.4558 112.912 15.0963V10.7885C112.912 8.4379 114.41 8.01785 116.098 8.01785C116.944 8.00623 117.789 8.06254 118.626 8.18766C118.806 8.18766 118.888 8.27703 118.888 8.44684V9.6534C118.888 9.72222 118.86 9.78835 118.811 9.83661C118.762 9.88487 118.695 9.91259 118.626 9.91259H115.972C115.358 9.91259 115.133 10.1181 115.133 10.8063V11.9861H118.518C118.587 11.9861 118.654 12.0138 118.703 12.062C118.751 12.1103 118.779 12.1764 118.779 12.2453V13.4786C118.779 13.5475 118.751 13.6136 118.703 13.6619C118.654 13.7101 118.587 13.7378 118.518 13.7378H115.133V15.1142C115.133 15.7845 115.358 16.0079 115.972 16.0079H118.626C118.695 16.0079 118.762 16.0356 118.811 16.0839C118.86 16.1322 118.888 16.1983 118.888 16.2671V17.4737C118.888 17.6077 118.806 17.6882 118.626 17.715Z" fill="white"/>
<path d="M126.136 17.6615C125.499 17.817 124.843 17.8894 124.187 17.876C122.201 17.876 120.314 16.8393 120.314 13.7559V12.1292C120.314 9.04581 122.201 8.01801 124.187 8.01801C124.844 8.0064 125.499 8.08147 126.136 8.24145C126.326 8.29508 126.425 8.34869 126.425 8.52744V9.78763C126.43 9.82248 126.426 9.85823 126.415 9.8913C126.403 9.92526 126.384 9.95566 126.359 9.98068C126.333 10.0057 126.303 10.0245 126.268 10.0361C126.235 10.0477 126.199 10.0513 126.164 10.0468C125.667 10.0468 124.945 9.9485 124.232 9.9485C123.329 9.9485 122.607 10.4133 122.607 12.1382V13.7648C122.607 15.4897 123.329 15.9545 124.232 15.9545C124.945 15.9545 125.667 15.8919 126.164 15.8562C126.199 15.8517 126.235 15.8553 126.268 15.8669C126.303 15.8785 126.333 15.8973 126.359 15.9223C126.384 15.9473 126.403 15.9777 126.415 16.0117C126.426 16.0448 126.43 16.0805 126.425 16.1154V17.3666C126.425 17.5453 126.326 17.6079 126.136 17.6615Z" fill="white"/>
<path d="M134.043 9.96641H131.922V17.5007C131.922 17.5695 131.894 17.6357 131.845 17.6839C131.796 17.7322 131.729 17.7599 131.66 17.7599H129.945C129.875 17.7599 129.808 17.7322 129.76 17.6839C129.711 17.6357 129.683 17.5695 129.683 17.5007V9.96641H127.553C127.518 9.9673 127.485 9.96195 127.453 9.95033C127.422 9.93782 127.393 9.91993 127.369 9.8967C127.343 9.87257 127.324 9.84486 127.311 9.81448C127.298 9.78319 127.291 9.75013 127.291 9.71616V8.38448C127.291 8.35051 127.298 8.31746 127.311 8.28618C127.324 8.25579 127.343 8.22807 127.369 8.20394C127.393 8.18071 127.422 8.16283 127.453 8.15032C127.485 8.1387 127.518 8.13333 127.553 8.13423H134.043C134.113 8.13155 134.182 8.15658 134.234 8.20306C134.287 8.24953 134.318 8.31476 134.323 8.38448V9.71616C134.318 9.78588 134.287 9.85112 134.234 9.8976C134.182 9.94407 134.113 9.96909 134.043 9.96641Z" fill="white"/>
<path d="M90.5719 33.8472H88.8478C88.8171 33.8437 88.7873 33.8347 88.7593 33.8195C88.7323 33.8052 88.7088 33.7847 88.6889 33.7605C88.67 33.7364 88.6555 33.7087 88.6474 33.6792C88.6384 33.6497 88.6366 33.6184 88.6402 33.5881V28.2256C88.6402 28.1362 88.5951 28.1183 88.568 28.1183C88.5409 28.1183 88.5048 28.1183 88.4687 28.2077L87.2862 30.3438C87.2483 30.4126 87.1924 30.4689 87.1238 30.5064C87.0552 30.5449 86.9766 30.5627 86.8981 30.5583H85.851C85.7716 30.5618 85.6922 30.544 85.6218 30.5064C85.5523 30.4689 85.4936 30.4126 85.4539 30.3438L84.2804 28.1988C84.2804 28.1362 84.2172 28.1094 84.1721 28.1094C84.127 28.1094 84.1089 28.1094 84.1089 28.2166V33.5791C84.1125 33.6095 84.1107 33.6408 84.1017 33.6703C84.0936 33.6998 84.0791 33.7275 84.0602 33.7516C84.0403 33.7757 84.0169 33.7963 83.9898 33.8106C83.9618 33.8258 83.932 33.8347 83.9013 33.8383H82.1773C82.0689 33.8383 81.9516 33.8383 81.9516 33.6596V24.6685C81.9489 24.6077 81.9588 24.5469 81.9823 24.4897C82.0049 24.4334 82.0401 24.3825 82.0843 24.3396C82.1285 24.2976 82.1818 24.2654 82.2395 24.2448C82.2973 24.2243 82.3596 24.2162 82.421 24.2216H83.6486C83.7686 24.2171 83.8878 24.2484 83.9907 24.3101C84.0927 24.3717 84.1748 24.462 84.2263 24.5701L86.2301 28.2703C86.2843 28.3686 86.3204 28.4311 86.3746 28.4311C86.4287 28.4311 86.4648 28.3686 86.519 28.2703L88.5228 24.5701C88.5734 24.4638 88.6537 24.3744 88.7548 24.3128C88.8559 24.2502 88.9733 24.2189 89.0915 24.2216H90.3281C90.3895 24.2189 90.4509 24.2296 90.5087 24.2511C90.5664 24.2734 90.6188 24.3065 90.6621 24.3494C90.7064 24.3914 90.7406 24.4432 90.7641 24.4995C90.7876 24.5559 90.7984 24.6166 90.7976 24.6774V33.6685C90.7976 33.8115 90.6802 33.8472 90.5719 33.8472Z" fill="white"/>
<path d="M99.6441 33.8473H97.9201C97.8876 33.8464 97.8551 33.8384 97.8253 33.825C97.7955 33.8107 97.7684 33.791 97.7468 33.7669C97.7251 33.7428 97.708 33.7151 97.698 33.6838C97.6872 33.6534 97.6827 33.6203 97.6854 33.5882V30.4422H94.8421V33.5882C94.843 33.6212 94.8376 33.6534 94.8267 33.6847C94.815 33.7151 94.7969 33.7437 94.7744 33.7678C94.7518 33.7919 94.7247 33.8116 94.694 33.825C94.6642 33.8384 94.6318 33.8464 94.5984 33.8473H92.8653C92.7958 33.8473 92.729 33.8196 92.6802 33.7714C92.6315 33.7231 92.6035 33.657 92.6035 33.5882V26.9834C92.6035 24.6507 94.0297 24.1323 95.7808 24.1323H96.7647C98.5249 24.1323 99.933 24.6507 99.933 26.9834V33.5882C99.933 33.6248 99.9258 33.6606 99.9104 33.6936C99.896 33.7276 99.8743 33.7571 99.8472 33.7812C99.8201 33.8062 99.7877 33.8241 99.7524 33.8357C99.7172 33.8473 99.6811 33.8509 99.6441 33.8473ZM97.6673 26.9834C97.6673 26.2684 97.4507 26.0896 96.7196 26.0896H95.7628C95.0497 26.0896 94.8601 26.3041 94.8601 26.9834V28.6189H97.6673V26.9834Z" fill="white"/>
<path d="M109.031 33.8473H107.28C107.247 33.8473 107.214 33.841 107.183 33.8276C107.152 33.8142 107.124 33.7945 107.102 33.7704C107.078 33.7463 107.061 33.7177 107.05 33.6855C107.038 33.6542 107.034 33.6211 107.037 33.5881V27.8145C107.037 26.3577 106.558 26.027 105.484 26.027C104.971 26.0234 104.459 26.0502 103.95 26.1074V33.6059C103.952 33.639 103.948 33.6721 103.936 33.7034C103.925 33.7355 103.908 33.7641 103.885 33.7883C103.862 33.8124 103.834 33.8321 103.803 33.8455C103.773 33.8589 103.739 33.8651 103.706 33.8651H101.964C101.929 33.8651 101.896 33.858 101.864 33.8455C101.834 33.8321 101.806 33.8133 101.781 33.7883C101.758 33.7641 101.74 33.7355 101.727 33.7043C101.716 33.673 101.71 33.6399 101.711 33.6059V25.1511C101.711 24.5702 101.874 24.4272 102.379 24.3467C103.325 24.2198 104.277 24.1456 105.231 24.1233C107.777 24.1233 109.275 24.8294 109.275 27.8323V33.6059C109.275 33.6703 109.25 33.7311 109.204 33.7767C109.158 33.8222 109.096 33.8473 109.031 33.8473Z" fill="white"/>
<path d="M118.121 33.8473H116.397C116.365 33.8464 116.332 33.8384 116.303 33.825C116.273 33.8107 116.246 33.791 116.224 33.7669C116.202 33.7428 116.185 33.7151 116.175 33.6838C116.165 33.6534 116.16 33.6203 116.163 33.5882V30.4422H113.319V33.5882C113.322 33.6212 113.318 33.6543 113.306 33.6856C113.295 33.7178 113.278 33.7464 113.254 33.7705C113.232 33.7946 113.204 33.8143 113.173 33.8277C113.142 33.8411 113.109 33.8473 113.076 33.8473H111.352C111.282 33.8473 111.215 33.8196 111.167 33.7714C111.118 33.7231 111.09 33.657 111.09 33.5882V26.9834C111.09 24.6507 112.516 24.1323 114.267 24.1323H115.224C116.975 24.1323 118.383 24.6507 118.383 26.9834V33.5882C118.383 33.6221 118.376 33.6561 118.363 33.6874C118.35 33.7186 118.331 33.7473 118.306 33.7714C118.282 33.7955 118.253 33.8143 118.222 33.8277C118.19 33.8402 118.156 33.8473 118.121 33.8473ZM116.163 26.9834C116.163 26.2684 115.955 26.0896 115.26 26.0896H114.303C113.581 26.0896 113.401 26.3041 113.401 26.9834V28.6189H116.244L116.163 26.9834Z" fill="white"/>
<path d="M126.669 26.1431C126.037 26.1431 125.062 26.0359 123.961 26.0359C122.86 26.0359 122.246 26.5453 122.246 28.2434V29.8611C122.246 31.6486 123.068 32.0597 123.708 32.0597C124.078 32.0597 124.403 32.0597 124.719 32.0597V29.0835C124.717 29.0505 124.721 29.0174 124.733 28.9861C124.744 28.9539 124.761 28.9253 124.784 28.9012C124.807 28.8771 124.835 28.8574 124.866 28.844C124.896 28.8306 124.93 28.8244 124.963 28.8244H126.642C126.676 28.8244 126.711 28.8315 126.742 28.844C126.774 28.8574 126.803 28.8762 126.827 28.9003C126.851 28.9244 126.87 28.9531 126.884 28.9843C126.897 29.0156 126.904 29.0496 126.904 29.0835V33.4361C126.904 33.6148 126.832 33.6953 126.642 33.731C125.676 33.9205 124.693 34.0099 123.708 33.9991C122.219 33.9991 119.98 33.159 119.98 29.879V28.2792C119.98 24.9723 122.057 24.1411 123.961 24.1411C124.873 24.1402 125.781 24.2421 126.669 24.445C126.804 24.445 126.895 24.5165 126.895 24.6327V26.009C126.868 26.1163 126.786 26.1431 126.669 26.1431Z" fill="white"/>
<path d="M134.313 33.8024C133.474 33.9222 132.625 33.9767 131.777 33.9633C130.089 33.9633 128.6 33.5432 128.6 31.1837V26.8759C128.6 24.5253 130.098 24.1052 131.786 24.1052C132.632 24.0936 133.477 24.1499 134.313 24.2751C134.494 24.2751 134.575 24.3644 134.575 24.5342V25.7408C134.575 25.8096 134.547 25.8758 134.498 25.924C134.45 25.9723 134.383 26 134.313 26H131.66C131.046 26 130.82 26.2055 130.82 26.8937V28.0735H134.214C134.284 28.0735 134.35 28.1012 134.399 28.1494C134.448 28.1977 134.476 28.2638 134.476 28.3327V29.566C134.476 29.6349 134.448 29.701 134.399 29.7493C134.35 29.7975 134.284 29.8252 134.214 29.8252H130.82V31.2016C130.82 31.8719 131.046 32.0953 131.66 32.0953H134.313C134.383 32.0953 134.45 32.123 134.498 32.1713C134.547 32.2196 134.575 32.2857 134.575 32.3545V33.5611C134.575 33.6952 134.494 33.7756 134.313 33.8024Z" fill="white"/>
<path d="M143.539 33.8473H141.544C141.4 33.8473 141.346 33.7222 141.283 33.5881L139.522 30.3438H139.378H138.475V33.6328C138.475 33.7016 138.447 33.7677 138.399 33.816C138.35 33.8643 138.283 33.892 138.214 33.892H136.481C136.411 33.892 136.344 33.8643 136.295 33.816C136.247 33.7677 136.219 33.7016 136.219 33.6328V24.9456C136.219 24.4987 136.399 24.3825 136.805 24.3199C137.686 24.2073 138.572 24.151 139.459 24.1501C141.689 24.1501 143.404 24.892 143.404 27.1799V27.3497C143.437 27.903 143.291 28.4526 142.988 28.9192C142.684 29.3848 142.238 29.7432 141.716 29.9416L143.693 33.597C143.703 33.6444 143.703 33.6927 143.693 33.74C143.702 33.7847 143.702 33.8473 143.539 33.8473ZM141.183 27.1353C141.183 26.3488 140.569 25.9823 139.468 25.9823C139.288 25.9823 138.611 25.9823 138.448 25.9823V28.5563C138.593 28.5563 139.234 28.5563 139.351 28.5563C140.732 28.5563 141.156 28.2077 141.156 27.3229L141.183 27.1353Z" fill="white"/>
<path d="M147.781 33.9634C146.948 33.9741 146.117 33.8776 145.308 33.6774C145.182 33.6774 145.046 33.5612 145.046 33.4182V32.1312C145.042 32.099 145.045 32.0669 145.055 32.0365C145.065 32.0061 145.082 31.9775 145.105 31.9551C145.127 31.9319 145.155 31.914 145.185 31.9024C145.216 31.8908 145.248 31.8872 145.281 31.8899H145.326C145.859 31.9435 147.303 32.0418 147.808 32.0418C148.711 32.0418 148.973 31.7558 148.973 31.1481C148.973 30.7727 148.792 30.5672 148.07 30.165L146.265 29.1014C145.795 28.8798 145.398 28.5276 145.125 28.0888C144.85 27.65 144.71 27.1414 144.721 26.6257C144.721 25.1957 145.534 24.0964 148.07 24.0964C149.003 24.1054 149.935 24.201 150.85 24.3824C150.906 24.3914 150.957 24.4191 150.994 24.462C151.03 24.5049 151.05 24.5585 151.049 24.6148V25.9286C151.052 25.9581 151.048 25.9885 151.038 26.0162C151.027 26.0439 151.011 26.0698 150.989 26.0904C150.967 26.1109 150.941 26.1261 150.913 26.136C150.884 26.1449 150.853 26.1476 150.823 26.1431C150.453 26.1431 148.937 26.0001 148.052 26.0001C147.303 26.0001 147.032 26.2236 147.032 26.6883C147.032 27.1531 147.195 27.2246 147.935 27.5821L149.605 28.4758C150.143 28.676 150.604 29.0362 150.927 29.5063C151.25 29.9773 151.419 30.535 151.41 31.1034C151.356 32.5066 150.444 33.9634 147.781 33.9634Z" fill="white"/>
<defs>
<linearGradient id="paint0_linear" x1="34.199" y1="34.3165" x2="38.4698" y2="14.2294" gradientUnits="userSpaceOnUse">
<stop stop-color="#EDEDED" stop-opacity="0"/>
<stop offset="1" stop-color="#B5B5B6"/>
</linearGradient>
</defs>
</svg>
