<svg width="40" height="40" viewBox="0 0 40 40" fill="none" xmlns="http://www.w3.org/2000/svg">
<g clip-path="url(#clip0)">
<path d="M10.5469 0C8.60828 0 7.03125 1.57703 7.03125 3.51562C7.03125 5.45422 8.60828 7.03125 10.5469 7.03125C12.4855 7.03125 14.0625 5.45422 14.0625 3.51562C14.0625 1.57703 12.4855 0 10.5469 0Z" fill="white"/>
<path d="M36.4844 0H19.9219C17.9833 0 16.4062 1.57703 16.4062 3.51562V7.67984C16.7533 7.88195 17.085 8.11289 17.3767 8.40453L19.6747 10.7025L21.3409 9.86938C22.458 9.31273 23.4295 9.28898 24.4445 9.51133L30.0682 6.69938C31.8017 5.84062 33.9045 6.51609 34.7832 8.26836C35.6588 10.0173 34.9483 12.1214 33.213 12.9891L27.8236 15.6838C27.4098 16.8057 26.608 17.7198 25.5318 18.2568L24.5453 18.75H36.4844C38.423 18.75 40 17.173 40 15.2344V3.51562C40 1.57703 38.423 0 36.4844 0Z" fill="white"/>
<path d="M32.6889 9.31979C32.3982 8.74073 31.6967 8.50838 31.1165 8.79565L24.5812 12.0632C23.9305 11.6902 23.1301 11.5971 22.3892 11.9661L19.2123 13.5546L15.7196 10.0618C15.2767 9.61885 14.6885 9.3751 14.0625 9.3751H4.6875C2.10227 9.3751 0 11.4774 0 14.0626V21.172C0 22.7874 1.60961 23.9217 3.12539 23.3818L4.6875 22.8303C4.6875 28.0042 4.6875 32.4608 4.6875 37.6564C4.6875 38.9506 5.7368 40.0001 7.03125 40.0001C8.3257 40.0001 9.375 38.9506 9.375 37.6564C9.375 34.5702 9.375 32.2993 9.375 29.3751C9.375 28.7278 9.89969 28.2032 10.5469 28.2032C11.1941 28.2032 11.7188 28.7278 11.7188 29.3751C11.7188 32.3941 11.7188 34.5592 11.7188 37.6564C11.7188 38.9506 12.768 40.0001 14.0625 40.0001C15.357 40.0001 16.4062 38.9506 16.4062 37.6564C16.4062 30.4401 16.4062 25.2094 16.4062 18.0531L17.9684 18.6036C18.6216 18.8348 19.238 18.782 19.7983 18.5029L24.4858 16.1592C25.2963 15.7548 25.7395 14.9422 25.7537 14.0977L32.1648 10.8922C32.7438 10.6027 32.9784 9.89885 32.6889 9.31979Z" fill="white"/>
</g>
<defs>
<clipPath id="clip0">
<rect width="40" height="40" fill="white"/>
</clipPath>
</defs>
</svg>
