<svg width="222" height="55" viewBox="0 0 222 55" fill="none" xmlns="http://www.w3.org/2000/svg">
<g clip-path="url(#clip0)">
<path d="M0.00976562 54.3543H81.2825V0.644531H0.00976562V54.3543Z" fill="#122E8D"/>
<path d="M23.4292 21.3541L24.0034 19.5816L22.4985 18.4862H24.3594L24.9336 16.7155L25.5077 18.488H27.3681L25.8637 19.5816L26.4373 21.3541L24.9336 20.2569L23.4292 21.3541ZM21.2417 30.1998L21.8171 28.4285L20.3115 27.3325H22.1719L22.7479 25.563L23.322 27.3325H25.183L23.678 28.4285L24.2522 30.2004L22.7479 29.1051L21.2417 30.1998ZM39.1257 47.2838L39.7011 45.515L38.1968 44.4202H40.0571L40.6312 42.647L41.2066 44.4202H43.0657L41.5614 45.515L42.1356 47.2838L40.6312 46.1909L39.1257 47.2838ZM29.9564 15.0592L30.5317 13.2885L29.0268 12.1925H30.8878L31.4619 10.4211L32.0367 12.1925H33.8964L32.3909 13.2885L32.9662 15.0592L31.4619 13.9651L29.9564 15.0592ZM23.55 38.59L24.1241 36.8186L22.6204 35.7245H24.4801L25.0543 33.9525L25.6303 35.7245H27.49L25.9845 36.8186L26.5611 38.59L25.0543 37.4958L23.55 38.59ZM30.1083 44.9761L30.6831 43.2054L29.1782 42.1088H31.0379L31.6127 40.3393L32.188 42.1088H34.049L32.5422 43.2054L33.1188 44.9761L31.6127 43.8795L30.1083 44.9761ZM47.9917 44.7925L48.5677 43.0211L47.0609 41.927H48.9213L49.4967 40.155L50.0726 41.927H51.9318L50.4287 43.0211L51.001 44.7925L49.4967 43.6989L47.9917 44.7925ZM54.3074 38.5288L54.8816 36.758L53.3779 35.6639H55.2376L55.8124 33.8919L56.3871 35.6639H58.2475L56.7432 36.758L57.3167 38.5288L55.8124 37.434L54.3074 38.5288ZM57.0416 29.8037L57.6145 28.0336L56.1102 26.937H57.9705L58.5459 25.1656L59.1182 26.937H60.9792L59.4748 28.0336L60.0496 29.8037L58.5459 28.7089L57.0416 29.8037ZM54.3987 21.0792L54.9723 19.3073L53.4673 18.2131H55.3277L55.9037 16.4418L56.4784 18.2131H58.3382L56.8332 19.3073L57.4086 21.0792L55.9037 19.9851L54.3987 21.0792ZM47.871 14.9074L48.447 13.136L46.9396 12.0406H48.8006L49.3759 10.2699L49.9507 12.0406H51.8123L50.3061 13.136L50.8809 14.9074L49.3759 13.8132L47.871 14.9074ZM38.8536 12.3529L39.4278 10.5828L37.9228 9.4868H39.7832L40.3573 7.71484L40.9327 9.4868H42.7918L41.2869 10.5828L41.8623 12.3547L40.3573 11.2581L38.8536 12.3529Z" fill="#FCFC02"/>
</g>
<path d="M97.2272 15.7518H91.6401V5.27256H97.2272V6.72044H93.2548V9.57319H96.9772V11.0067H93.2548V14.2967H97.2272V15.7518Z" fill="#122E8D"/>
<path d="M104.469 15.7518L104.247 14.7124H104.165C103.945 15.0804 103.629 15.3695 103.22 15.5797C102.814 15.79 102.35 15.8951 101.828 15.8951C100.923 15.8951 100.247 15.6562 99.8012 15.1783C99.3553 14.7005 99.1324 13.9765 99.1324 13.0065V7.82427H100.733V12.7126C100.733 13.3195 100.851 13.7759 101.085 14.0817C101.319 14.3827 101.686 14.5332 102.186 14.5332C102.853 14.5332 103.341 14.323 103.652 13.9025C103.967 13.4772 104.125 12.7676 104.125 11.7737V7.82427H105.719V15.7518H104.469Z" fill="#122E8D"/>
<path d="M111.773 7.68091C112.092 7.68091 112.356 7.7048 112.563 7.75259L112.408 9.32232C112.182 9.26497 111.948 9.2363 111.705 9.2363C111.07 9.2363 110.554 9.45611 110.158 9.89573C109.766 10.3354 109.57 10.9064 109.57 11.6088V15.7518H107.982V7.82427H109.226L109.435 9.22197H109.516C109.764 8.7489 110.086 8.37379 110.482 8.09664C110.883 7.81949 111.313 7.68091 111.773 7.68091Z" fill="#122E8D"/>
<path d="M120.582 11.7737C120.582 13.0686 120.269 14.0793 119.643 14.8056C119.017 15.5319 118.146 15.8951 117.029 15.8951C116.33 15.8951 115.713 15.7279 115.177 15.3934C114.641 15.0589 114.229 14.5786 113.941 13.9527C113.653 13.3267 113.509 12.6003 113.509 11.7737C113.509 10.4883 113.82 9.48478 114.441 8.76324C115.063 8.04169 115.939 7.68091 117.069 7.68091C118.15 7.68091 119.006 8.05124 119.636 8.79191C120.267 9.52779 120.582 10.5217 120.582 11.7737ZM115.144 11.7737C115.144 13.6038 115.781 14.5189 117.056 14.5189C118.317 14.5189 118.947 13.6038 118.947 11.7737C118.947 9.96263 118.312 9.05711 117.042 9.05711C116.375 9.05711 115.891 9.29126 115.59 9.75955C115.292 10.2278 115.144 10.8992 115.144 11.7737Z" fill="#122E8D"/>
<path d="M126.203 15.8951C125.257 15.8951 124.523 15.5343 124.001 14.8128H123.906C123.969 15.4818 124.001 15.8879 124.001 16.0313V19.2783H122.413V7.82427H123.697C123.733 7.9724 123.807 8.326 123.92 8.88509H124.001C124.496 8.0823 125.239 7.68091 126.23 7.68091C127.162 7.68091 127.887 8.0393 128.405 8.75607C128.928 9.47284 129.189 10.4787 129.189 11.7737C129.189 13.0686 128.923 14.0793 128.392 14.8056C127.865 15.5319 127.135 15.8951 126.203 15.8951ZM125.818 9.05711C125.187 9.05711 124.726 9.25303 124.433 9.64486C124.145 10.0367 124.001 10.6627 124.001 11.5228V11.7737C124.001 12.7389 124.145 13.439 124.433 13.8738C124.721 14.3039 125.192 14.5189 125.845 14.5189C126.394 14.5189 126.818 14.28 127.115 13.8021C127.412 13.3243 127.561 12.6434 127.561 11.7593C127.561 10.8705 127.412 10.1992 127.115 9.74521C126.822 9.28648 126.39 9.05711 125.818 9.05711Z" fill="#122E8D"/>
<path d="M132.621 15.7518H131.033V7.82427H132.621V15.7518ZM130.939 5.72413C130.939 5.42308 131.015 5.19133 131.169 5.02886C131.326 4.86639 131.549 4.78516 131.837 4.78516C132.117 4.78516 132.333 4.86639 132.486 5.02886C132.644 5.19133 132.722 5.42308 132.722 5.72413C132.722 6.01083 132.644 6.23781 132.486 6.40506C132.333 6.56753 132.117 6.64876 131.837 6.64876C131.549 6.64876 131.326 6.56753 131.169 6.40506C131.015 6.23781 130.939 6.01083 130.939 5.72413Z" fill="#122E8D"/>
<path d="M139.573 15.7518L139.255 14.6479H139.201C138.841 15.1306 138.478 15.4603 138.114 15.6371C137.749 15.8091 137.28 15.8951 136.708 15.8951C135.974 15.8951 135.4 15.6849 134.986 15.2643C134.576 14.8438 134.371 14.2489 134.371 13.4796C134.371 12.6625 134.657 12.046 135.229 11.6303C135.801 11.2146 136.672 10.9876 137.843 10.9494L139.134 10.9064V10.4835C139.134 9.97697 139.021 9.59947 138.796 9.35099C138.575 9.09773 138.231 8.9711 137.762 8.9711C137.379 8.9711 137.012 9.03083 136.661 9.15029C136.31 9.26975 135.972 9.41072 135.648 9.57319L135.134 8.36901C135.54 8.14442 135.983 7.97479 136.465 7.8601C136.947 7.74064 137.402 7.68091 137.83 7.68091C138.78 7.68091 139.496 7.90072 139.978 8.34034C140.465 8.77996 140.708 9.47045 140.708 10.4118V15.7518H139.573ZM137.208 14.6049C137.785 14.6049 138.246 14.4353 138.593 14.096C138.944 13.752 139.12 13.2717 139.12 12.6553V11.9672L138.161 12.0102C137.413 12.0389 136.868 12.1727 136.526 12.4116C136.188 12.6457 136.019 13.0065 136.019 13.4939C136.019 13.8475 136.118 14.1223 136.316 14.3182C136.515 14.5093 136.812 14.6049 137.208 14.6049Z" fill="#122E8D"/>
<path d="M149.497 15.7518H147.903V10.8777C147.903 10.2661 147.786 9.80972 147.551 9.50868C147.322 9.20763 146.955 9.05711 146.45 9.05711C145.779 9.05711 145.288 9.26736 144.977 9.68787C144.667 10.1084 144.511 10.8132 144.511 11.8023V15.7518H142.924V7.82427H144.167L144.39 8.86358H144.471C144.696 8.48608 145.016 8.1946 145.43 7.98912C145.844 7.78365 146.304 7.68091 146.808 7.68091C148.601 7.68091 149.497 8.64855 149.497 10.5838V15.7518Z" fill="#122E8D"/>
<path d="M159.671 6.59142C158.744 6.59142 158.014 6.94025 157.482 7.6379C156.951 8.33556 156.685 9.29842 156.685 10.5265C156.685 11.8119 156.94 12.7843 157.449 13.4437C157.962 14.1032 158.703 14.4329 159.671 14.4329C160.09 14.4329 160.496 14.3899 160.887 14.3039C161.279 14.2131 161.687 14.0984 162.11 13.9598V15.4292C161.336 15.7398 160.457 15.8951 159.475 15.8951C158.03 15.8951 156.92 15.4316 156.145 14.5046C155.37 13.5728 154.983 12.242 154.983 10.5122C154.983 9.42266 155.17 8.46936 155.544 7.65224C155.922 6.83512 156.467 6.20914 157.178 5.7743C157.89 5.33946 158.726 5.12204 159.685 5.12204C160.694 5.12204 161.626 5.34663 162.482 5.7958L161.901 7.22218C161.568 7.05493 161.214 6.90919 160.84 6.78495C160.471 6.65593 160.081 6.59142 159.671 6.59142Z" fill="#122E8D"/>
<path d="M170.697 11.7737C170.697 13.0686 170.384 14.0793 169.758 14.8056C169.132 15.5319 168.26 15.8951 167.143 15.8951C166.445 15.8951 165.828 15.7279 165.292 15.3934C164.756 15.0589 164.344 14.5786 164.056 13.9527C163.768 13.3267 163.624 12.6003 163.624 11.7737C163.624 10.4883 163.934 9.48478 164.556 8.76324C165.177 8.04169 166.053 7.68091 167.184 7.68091C168.265 7.68091 169.121 8.05124 169.751 8.79191C170.382 9.52779 170.697 10.5217 170.697 11.7737ZM165.258 11.7737C165.258 13.6038 165.896 14.5189 167.17 14.5189C168.431 14.5189 169.062 13.6038 169.062 11.7737C169.062 9.96263 168.427 9.05711 167.157 9.05711C166.49 9.05711 166.006 9.29126 165.704 9.75955C165.407 10.2278 165.258 10.8992 165.258 11.7737Z" fill="#122E8D"/>
<path d="M178.824 15.7518H177.23V10.8634C177.23 10.2565 177.122 9.80494 176.906 9.50868C176.689 9.20763 176.352 9.05711 175.892 9.05711C175.28 9.05711 174.829 9.26975 174.541 9.69504C174.257 10.1155 174.115 10.818 174.115 11.8023V15.7518H172.528V7.82427H173.771L173.994 8.86358H174.075C174.282 8.48608 174.582 8.1946 174.973 7.98912C175.37 7.78365 175.804 7.68091 176.277 7.68091C177.426 7.68091 178.187 8.09664 178.561 8.92809H178.669C178.889 8.53626 179.2 8.23044 179.601 8.01063C180.002 7.79082 180.461 7.68091 180.979 7.68091C181.871 7.68091 182.52 7.91983 182.925 8.39768C183.335 8.87553 183.54 9.60425 183.54 10.5838V15.7518H181.952V10.8634C181.952 10.2565 181.842 9.80494 181.621 9.50868C181.405 9.20763 181.067 9.05711 180.608 9.05711C179.991 9.05711 179.538 9.26259 179.25 9.67353C178.966 10.0797 178.824 10.7057 178.824 11.5515V15.7518Z" fill="#122E8D"/>
<path d="M187.343 15.7518H185.756V7.82427H187.343V15.7518ZM185.661 5.72413C185.661 5.42308 185.738 5.19133 185.891 5.02886C186.048 4.86639 186.271 4.78516 186.56 4.78516C186.839 4.78516 187.055 4.86639 187.208 5.02886C187.366 5.19133 187.445 5.42308 187.445 5.72413C187.445 6.01083 187.366 6.23781 187.208 6.40506C187.055 6.56753 186.839 6.64876 186.56 6.64876C186.271 6.64876 186.048 6.56753 185.891 6.40506C185.738 6.23781 185.661 6.01083 185.661 5.72413Z" fill="#122E8D"/>
<path d="M194.64 13.4939C194.64 14.268 194.374 14.863 193.842 15.2787C193.311 15.6896 192.55 15.8951 191.559 15.8951C190.564 15.8951 189.764 15.735 189.161 15.4149V13.9598C190.039 14.3899 190.856 14.6049 191.613 14.6049C192.59 14.6049 193.079 14.2919 193.079 13.6659C193.079 13.4653 193.025 13.298 192.917 13.1642C192.809 13.0304 192.631 12.8918 192.383 12.7485C192.135 12.6051 191.791 12.4427 191.349 12.2611C190.489 11.9075 189.906 11.5539 189.6 11.2003C189.298 10.8466 189.147 10.3879 189.147 9.82406C189.147 9.14551 189.404 8.61988 189.917 8.24716C190.435 7.86966 191.138 7.68091 192.025 7.68091C192.903 7.68091 193.734 7.86966 194.518 8.24716L194.005 9.51584C193.198 9.16224 192.52 8.98543 191.971 8.98543C191.133 8.98543 190.714 9.23869 190.714 9.74521C190.714 9.99369 190.823 10.2039 191.039 10.376C191.259 10.548 191.737 10.7845 192.471 11.0856C193.088 11.3388 193.536 11.5706 193.815 11.7808C194.095 11.9911 194.302 12.2348 194.437 12.5119C194.572 12.7843 194.64 13.1116 194.64 13.4939Z" fill="#122E8D"/>
<path d="M201.382 13.4939C201.382 14.268 201.116 14.863 200.585 15.2787C200.053 15.6896 199.292 15.8951 198.301 15.8951C197.306 15.8951 196.506 15.735 195.903 15.4149V13.9598C196.781 14.3899 197.599 14.6049 198.355 14.6049C199.333 14.6049 199.821 14.2919 199.821 13.6659C199.821 13.4653 199.767 13.298 199.659 13.1642C199.551 13.0304 199.373 12.8918 199.125 12.7485C198.878 12.6051 198.533 12.4427 198.092 12.2611C197.232 11.9075 196.648 11.5539 196.342 11.2003C196.04 10.8466 195.889 10.3879 195.889 9.82406C195.889 9.14551 196.146 8.61988 196.66 8.24716C197.178 7.86966 197.88 7.68091 198.767 7.68091C199.646 7.68091 200.477 7.86966 201.26 8.24716L200.747 9.51584C199.941 9.16224 199.263 8.98543 198.713 8.98543C197.876 8.98543 197.457 9.23869 197.457 9.74521C197.457 9.99369 197.565 10.2039 197.781 10.376C198.002 10.548 198.479 10.7845 199.213 11.0856C199.83 11.3388 200.278 11.5706 200.558 11.7808C200.837 11.9911 201.044 12.2348 201.179 12.5119C201.314 12.7843 201.382 13.1116 201.382 13.4939Z" fill="#122E8D"/>
<path d="M204.692 15.7518H203.105V7.82427H204.692V15.7518ZM203.01 5.72413C203.01 5.42308 203.087 5.19133 203.24 5.02886C203.397 4.86639 203.62 4.78516 203.909 4.78516C204.188 4.78516 204.404 4.86639 204.557 5.02886C204.715 5.19133 204.794 5.42308 204.794 5.72413C204.794 6.01083 204.715 6.23781 204.557 6.40506C204.404 6.56753 204.188 6.64876 203.909 6.64876C203.62 6.64876 203.397 6.56753 203.24 6.40506C203.087 6.23781 203.01 6.01083 203.01 5.72413Z" fill="#122E8D"/>
<path d="M213.596 11.7737C213.596 13.0686 213.283 14.0793 212.657 14.8056C212.031 15.5319 211.16 15.8951 210.043 15.8951C209.345 15.8951 208.728 15.7279 208.192 15.3934C207.656 15.0589 207.244 14.5786 206.955 13.9527C206.667 13.3267 206.523 12.6003 206.523 11.7737C206.523 10.4883 206.834 9.48478 207.455 8.76324C208.077 8.04169 208.953 7.68091 210.083 7.68091C211.164 7.68091 212.02 8.05124 212.651 8.79191C213.281 9.52779 213.596 10.5217 213.596 11.7737ZM208.158 11.7737C208.158 13.6038 208.795 14.5189 210.07 14.5189C211.331 14.5189 211.962 13.6038 211.962 11.7737C211.962 9.96263 211.326 9.05711 210.056 9.05711C209.39 9.05711 208.906 9.29126 208.604 9.75955C208.307 10.2278 208.158 10.8992 208.158 11.7737Z" fill="#122E8D"/>
<path d="M222.001 15.7518H220.406V10.8777C220.406 10.2661 220.289 9.80972 220.055 9.50868C219.825 9.20763 219.458 9.05711 218.954 9.05711C218.283 9.05711 217.792 9.26736 217.481 9.68787C217.17 10.1084 217.015 10.8132 217.015 11.8023V15.7518H215.427V7.82427H216.67L216.893 8.86358H216.974C217.2 8.48608 217.519 8.1946 217.934 7.98912C218.348 7.78365 218.807 7.68091 219.312 7.68091C221.104 7.68091 222.001 8.64855 222.001 10.5838V15.7518Z" fill="#122E8D"/>
<path d="M102.567 48.9678H98.6627V28.189H91.6392V24.8003H109.59V28.189H102.567V48.9678Z" fill="#122E8D"/>
<path d="M126.773 48.9678H113.265V24.8003H126.773V28.1394H117.169V34.7186H126.169V38.0247H117.169V45.6122H126.773V48.9678Z" fill="#122E8D"/>
<path d="M142.274 48.9678L135.349 28.7841H135.218C135.403 31.7816 135.496 34.5918 135.496 37.2147V48.9678H131.951V24.8003H137.456L144.087 44.0252H144.185L151.013 24.8003H156.534V48.9678H152.777V37.0163C152.777 35.8151 152.804 34.2502 152.858 32.3216C152.924 30.3931 152.978 29.2249 153.022 28.8172H152.891L145.721 48.9678H142.274Z" fill="#122E8D"/>
<path d="M178.633 32.1067C178.633 34.6304 177.817 36.5645 176.183 37.9089C174.55 39.2534 172.225 39.9257 169.209 39.9257H166.726V48.9678H162.822V24.8003H169.699C172.682 24.8003 174.915 25.4174 176.396 26.6517C177.887 27.886 178.633 29.7043 178.633 32.1067ZM166.726 36.603H168.8C170.804 36.603 172.274 36.2504 173.21 35.5451C174.147 34.8398 174.615 33.7378 174.615 32.239C174.615 30.8504 174.196 29.8145 173.357 29.1313C172.519 28.448 171.212 28.1064 169.437 28.1064H166.726V36.603Z" fill="#122E8D"/>
<path d="M202.121 24.8003V40.4381C202.121 42.2234 201.74 43.7883 200.978 45.1328C200.227 46.4662 199.132 47.4966 197.695 48.224C196.268 48.9403 194.559 49.2985 192.566 49.2985C189.604 49.2985 187.301 48.505 185.657 46.9181C184.013 45.3311 183.19 43.1491 183.19 40.372V24.8003H187.111V40.091C187.111 42.0856 187.568 43.5569 188.483 44.5046C189.397 45.4524 190.802 45.9262 192.697 45.9262C196.377 45.9262 198.218 43.9701 198.218 40.0579V24.8003H202.121Z" fill="#122E8D"/>
<path d="M222 42.4052C222 44.5542 221.232 46.2403 219.697 47.4636C218.161 48.6868 216.043 49.2985 213.343 49.2985C210.642 49.2985 208.432 48.8742 206.711 48.0256V44.2897C207.8 44.8077 208.954 45.2154 210.174 45.513C211.404 45.8105 212.548 45.9593 213.604 45.9593C215.15 45.9593 216.288 45.6617 217.018 45.0666C217.758 44.4715 218.129 43.6726 218.129 42.6697C218.129 41.7661 217.791 41.0001 217.116 40.372C216.441 39.7438 215.047 39 212.934 38.1404C210.757 37.2477 209.221 36.2283 208.328 35.0822C207.435 33.9361 206.989 32.5586 206.989 30.9496C206.989 28.9329 207.697 27.346 209.112 26.1888C210.528 25.0317 212.428 24.4531 214.813 24.4531C217.1 24.4531 219.375 24.9601 221.64 25.9739L220.399 29.1974C218.276 28.2937 216.381 27.8419 214.715 27.8419C213.452 27.8419 212.493 28.1229 211.84 28.6849C211.187 29.2359 210.86 29.9688 210.86 30.8835C210.86 31.5116 210.991 32.0516 211.252 32.5035C211.513 32.9443 211.944 33.3631 212.542 33.7598C213.141 34.1565 214.219 34.68 215.777 35.3302C217.53 36.0686 218.815 36.7573 219.631 37.3965C220.448 38.0357 221.047 38.7575 221.428 39.562C221.809 40.3665 222 41.3142 222 42.4052Z" fill="#122E8D"/>
<defs>
<clipPath id="clip0">
<rect width="81.2935" height="53.7098" fill="white" transform="translate(0 0.644531)"/>
</clipPath>
</defs>
</svg>
