<svg width="36" height="48" viewBox="0 0 36 48" fill="none" xmlns="http://www.w3.org/2000/svg">
<rect width="36" height="48" fill="#5F37D2"/>
<path d="M19.136 19.3164C18.794 19.545 18.3918 19.667 17.9804 19.667C17.4287 19.667 16.8997 19.4478 16.5096 19.0577C16.1195 18.6676 15.9003 18.1386 15.9003 17.5869C15.9003 17.1755 16.0223 16.7733 16.2509 16.4313C16.4795 16.0892 16.8043 15.8226 17.1844 15.6652C17.5645 15.5077 17.9827 15.4665 18.3862 15.5468C18.7897 15.6271 19.1603 15.8252 19.4512 16.1161C19.7421 16.407 19.9403 16.7776 20.0205 17.1811C20.1008 17.5846 20.0596 18.0028 19.9021 18.3829C19.7447 18.763 19.4781 19.0879 19.136 19.3164Z" fill="white"/>
<path d="M11.6021 19.3711C17.1888 20.6902 18.7836 20.6874 24.3587 19.3711L24.3645 19.37L24.394 19.3631C24.6317 19.3154 24.8786 19.3631 25.0815 19.4958C25.2844 19.6285 25.4271 19.8356 25.4788 20.0725C25.5304 20.3093 25.487 20.557 25.3578 20.7622C25.2286 20.9673 25.024 21.1135 24.788 21.1692C23.1292 21.5627 21.5807 21.9059 20.042 22.0827C20.0888 27.9196 20.7509 29.1925 21.4865 31.0744C21.5869 31.3314 21.581 31.6177 21.4703 31.8704C21.3595 32.1231 21.153 32.3215 20.896 32.4218C20.639 32.5222 20.3527 32.5164 20.1 32.4056C19.8473 32.2949 19.6489 32.0883 19.5486 31.8313C19.0459 30.5423 18.5617 29.4832 18.2624 27.2927H17.7031C17.4043 29.4797 16.9207 30.5405 16.4169 31.8313C16.3165 32.0883 16.1182 32.2949 15.8655 32.4056C15.6128 32.5164 15.3265 32.5222 15.0695 32.4218C14.8125 32.3215 14.6059 32.1231 14.4952 31.8704C14.3844 31.6177 14.3786 31.3314 14.479 31.0744C15.2116 29.1943 15.8743 27.9231 15.9235 22.0827C14.3848 21.9059 12.8363 21.561 11.1774 21.1692C10.9471 21.1054 10.7505 20.9548 10.6288 20.7491C10.5071 20.5434 10.4698 20.2985 10.5248 20.0659C10.5797 19.8333 10.7226 19.631 10.9235 19.5014C11.1243 19.3719 11.3676 19.3252 11.6021 19.3711Z" fill="white"/>
</svg>
