<svg width="177" height="42" viewBox="0 0 177 42" fill="none" xmlns="http://www.w3.org/2000/svg">
<path d="M19.5729 12.6177C11.5435 10.6785 5.93233 15.2865 2.48087 10.1052C2.47053 10.0843 2.46019 10.0739 2.44987 10.053C2.35685 9.90707 2.48087 9.69857 2.6462 9.74027C9.7558 11.45 10.9132 10.3866 13.8996 10.7515C16.6587 11.0851 19.5729 12.6177 19.5729 12.6177Z" fill="white"/>
<path d="M20.9891 13.9209C13.9207 12.868 8.90888 18.1953 5.12673 14.0982C5.11639 14.0877 5.10607 14.0669 5.08539 14.0564C4.98206 13.9418 5.05439 13.7333 5.20939 13.7437C11.668 14.2233 13.187 13.0765 15.8428 12.9618C18.3229 12.8575 20.9891 13.9209 20.9891 13.9209Z" fill="white"/>
<path d="M22.3012 15.5991C16.1319 14.7547 13.4865 20.3425 8.48499 16.9231C8.47467 16.9127 8.46433 16.9023 8.44367 16.8814C8.34032 16.7876 8.37132 16.5165 8.51599 16.5165C13.9825 16.527 15.4086 15.2446 17.713 14.9632C20.8339 14.5878 22.3012 15.5991 22.3012 15.5991Z" fill="white"/>
<path d="M25.0797 17.4442C21.8557 17.7883 22.362 20.3947 18.8279 19.8108C18.3627 19.7378 18.4661 19.4042 18.6729 19.3416C21.6386 18.4868 21.6386 17.9134 22.7031 17.4859C23.7158 17.1002 25.0797 17.4442 25.0797 17.4442Z" fill="white"/>
<path d="M23.6243 16.6417C18.9741 16.7355 17.7857 20.1028 13.8692 19.0082C13.2698 18.8414 13.4765 18.3827 13.7969 18.341C18.2818 17.6217 18.4987 16.9544 20.1624 16.5583C21.7228 16.183 23.6243 16.6417 23.6243 16.6417Z" fill="white"/>
<path d="M20.9679 12.6072C20.9368 12.6593 20.8645 12.6697 20.8129 12.6489C19.8518 12.0963 18.9528 11.45 17.9194 10.741C16.9481 10.0842 14.8606 9.18765 10.5204 9.39617C8.4537 9.50041 5.31226 9.92786 2.06747 7.6864C1.2821 7.15471 0.486395 6.24771 0.0730528 5.40326C0.0317175 5.33029 0.0110508 5.23645 0.000716514 5.14263C-0.00961593 5.0488 0.0937196 4.97583 0.186725 5.0071C8.21603 8.2598 10.5101 6.98792 15.5633 8.16597C17.6404 8.65596 20.2136 11.7002 20.9575 12.4612C20.9988 12.4925 20.9988 12.555 20.9679 12.6072Z" fill="white"/>
<path d="M27.9532 30.4342C27.8601 30.7261 27.8808 31.0702 27.6948 31.3204C27.4674 31.6541 26.9094 31.6853 26.6408 31.3829C26.4651 31.2266 26.4651 30.9764 26.4031 30.7783C26.0001 28.9956 25.6074 27.2129 25.2147 25.4196C25.1734 25.2946 25.2147 25.2111 25.3388 25.159C25.535 25.1069 25.5558 25.3258 25.6177 25.451C26.062 26.6707 26.4754 27.901 26.9301 29.1206C27.0747 29.5377 27.5605 29.4021 27.8808 29.5064C28.2219 29.7253 28.0151 30.132 27.9532 30.4342Z" fill="white"/>
<path d="M28.48 25.5137C28.5214 25.6282 28.4593 25.7638 28.3354 25.7847C28.263 25.7951 28.2011 25.7847 28.1804 25.6805C27.8807 25.0758 27.6223 24.4398 27.3123 23.8351C26.9092 23.4912 26.4857 23.1366 26.2376 22.6467C25.7933 21.8543 25.8346 20.8223 26.3307 20.0612C26.3719 20.0091 26.403 19.9466 26.4442 19.8943C26.5165 19.7901 26.6716 19.811 26.713 19.9362C26.7441 20.0299 26.7646 20.1237 26.806 20.2072C27.3641 21.9691 27.9014 23.7518 28.48 25.5137Z" fill="white"/>
<path d="M28.5634 17.1214C28.5427 17.5905 28.3671 18.0284 28.2534 18.4767C28.243 18.5079 28.2327 18.5288 28.2018 18.5392C28.1295 18.5705 28.0571 18.5184 28.0571 18.4454C28.0675 17.8303 28.2845 17.2256 28.1295 16.621C27.9021 15.7974 27.3441 15.078 27.3026 14.2023C27.2821 13.7436 27.3957 13.2953 27.4887 12.847C27.158 12.1485 27.003 11.3457 27.1787 10.5847C27.2098 10.4909 27.22 10.4909 27.2718 10.5638C27.5921 11.033 28.0157 11.5021 28.0157 12.1172C27.9745 12.9929 27.4991 13.8687 27.8194 14.7444C28.0777 15.5263 28.6357 16.2561 28.5634 17.1214Z" fill="white"/>
<path d="M31.2907 14.098C31.27 15.2448 30.278 16.1622 30.3917 17.3299C30.3917 17.7781 30.5053 18.2369 30.4537 18.6851C30.3814 19.0813 29.9369 19.1439 29.6167 19.2377C29.4306 19.3211 29.224 19.1022 29.2756 18.9145C29.2756 17.5592 29.2756 16.1935 29.2756 14.8382C29.2963 14.2752 29.4306 13.681 29.813 13.2535C30.0506 12.9721 30.2987 12.6906 30.5569 12.4091C30.6087 12.3465 30.6396 12.2736 30.6292 12.2006C30.6087 11.9504 30.5569 11.7314 30.6707 11.4395C30.8464 11.0746 31.0737 10.8557 31.3114 10.6159C31.3526 10.5742 31.4146 10.5951 31.425 10.6472C31.5903 11.3874 31.425 12.1902 31.0841 12.8574C31.1668 13.2535 31.2907 13.6706 31.2907 14.098Z" fill="white"/>
<path d="M44.343 9.90695C42.9376 10.3031 42.2865 10.7827 41.7286 11.231C41.7286 11.231 42.9995 10.7827 44.8287 10.5846C50.0162 10.0112 50.3159 11.9607 56.1234 9.69845C56.3198 9.66719 56.3714 9.82356 56.3198 9.90695C55.5448 11.2623 54.6871 12.7635 51.4422 12.899C47.9081 13.045 46.0688 11.6167 42.7515 12.0441C40.6332 12.3152 39.5378 12.9824 38.9282 13.389C46.1616 11.992 45.5623 15.203 52.6513 13.4933C52.734 13.4724 52.827 13.4516 52.9097 13.462C53.0956 13.4828 53.1679 13.7122 53.0544 13.8373C53.0026 13.8999 52.9302 13.9624 52.8786 14.025C51.9486 15.0362 50.967 16.1413 47.6601 15.8911C43.7746 15.5992 43.5265 13.1701 36.107 15.0258C43.2992 14.9945 43.1753 17.3715 48.5901 16.6626C48.7762 16.6417 48.8897 16.8711 48.7451 16.9962C48.6624 17.0692 48.5694 17.1317 48.4971 17.1943C47.6808 17.8406 46.4923 18.633 44.2603 18.1742C39.6101 17.1943 40.1991 15.2552 34.2159 16.3185C38.8764 16.4436 38.556 18.2681 43.3406 18.7164C43.3406 18.7164 43.3406 18.7164 43.351 18.7164C43.6092 18.7476 43.6815 19.0917 43.4646 19.2376C43.2992 19.3523 43.1133 19.4357 42.9376 19.5087C39.4448 20.8744 37.8224 16.4541 33.5339 17.4445C36.6031 17.7155 36.355 18.7581 39.1244 19.5191C39.4241 19.6025 39.3932 20.0091 39.0625 20.0404C35.7763 20.3741 36.0656 18.143 34.0505 18.0596C33.5132 18.0387 33.0172 18.3306 32.7485 18.8102C31.9527 20.2072 32.2731 21.5312 32.2215 22.2505C32.4076 23.0013 32.6865 23.731 32.6969 24.5232C32.7072 25.0758 32.6554 25.6493 32.4799 26.1809C32.1492 27.286 31.8185 28.3911 31.4776 29.5066C31.4052 29.7359 31.4154 29.9861 31.4981 30.205C31.6222 30.5387 31.7461 30.8618 31.7977 31.2164C31.9218 31.8105 31.8392 32.4256 31.6326 32.9991C31.1984 34.0729 30.7645 35.1468 30.3304 36.2308C30.2477 36.4289 30.1857 36.6375 30.0411 36.8043C29.8241 36.846 29.8448 36.5645 29.8653 36.4289C30.2891 32.4152 30.6922 28.4015 31.1054 24.3878L31.4361 23.4285C30.7852 23.9916 30.4957 24.7736 30.0721 25.472C30.0204 25.6387 29.7725 25.6701 29.7207 25.4824C29.7621 24.784 29.855 24.0853 29.8757 23.3869C29.9377 22.678 29.9275 21.9587 30.165 21.281C30.4338 20.593 30.9504 20.0404 31.3534 19.4461C32.0149 18.5913 32.5108 17.6217 32.8519 16.6C33.0585 15.9745 33.4926 15.422 34.0505 15.0779C35.9831 13.8477 37.1093 12.7844 38.9383 11.3873C40.6229 10.105 41.9249 9.10421 42.6688 8.80187C46.0688 7.39446 52.8994 8.90613 58.7481 5.0696C58.8928 4.98621 59.0788 5.15301 58.9651 5.39279C58.4176 6.78978 57.7665 7.68637 56.2164 8.45784C51.7522 10.6784 46.6266 9.26059 44.343 9.90695Z" fill="white"/>
<path d="M30.7845 12.3149C30.7845 12.3149 30.4021 11.6373 29.4721 11.5539C28.7694 11.4913 28.4492 11.7311 28.4492 11.7311C28.4492 11.7311 29.2966 11.4809 29.9578 12.0751C30.6193 12.6694 30.2575 13.1802 30.2575 13.1802C30.2575 13.1802 30.9809 12.7528 30.7845 12.3149Z" fill="white"/>
<path d="M30.7434 12.2217C30.7434 12.2217 30.2576 11.7004 29.2656 11.6587C29.2656 11.6587 29.8546 11.8047 29.9271 12.1278C30.051 12.7429 29.5137 13.5665 29.4103 13.9627C29.3276 14.3172 30.7434 12.2217 30.7434 12.2217Z" fill="white"/>
<path d="M116.477 29.5844V22.7972C116.477 22.575 116.295 22.3932 116.092 22.3932H114.997C114.774 22.3932 114.632 22.575 114.632 22.7972V28.5744C114.146 28.6148 113.315 28.6956 112.078 28.6956C110.193 28.6956 108.673 27.3826 108.673 24.0496V21.3428C108.673 17.7067 110.376 16.6967 112.261 16.6967C113.984 16.6967 114.916 16.7371 116.112 16.8381C116.133 16.8381 116.173 16.8381 116.193 16.8381C116.376 16.8381 116.457 16.7775 116.457 16.6361V15.6261C116.457 15.4241 116.295 15.3433 116.112 15.3231C115.342 15.2019 114.146 15.0403 112.261 15.0403C109.666 15.0403 106.828 16.4341 106.828 21.3428V24.0496C106.828 28.6754 109.544 30.3318 112.078 30.3318C113.984 30.3318 115.119 30.1904 116.112 30.0288C116.335 29.9884 116.477 29.8066 116.477 29.5844Z" fill="white"/>
<path d="M124.47 20.1711V19.2419C124.47 18.9591 124.308 18.9389 124.044 18.9389C122.362 18.9389 120.963 18.9995 119.808 19.5045C119.585 19.6055 119.443 19.7469 119.443 19.9691V29.7864C119.443 30.0086 119.605 30.1904 119.808 30.1904H120.862C121.085 30.1904 121.227 29.9884 121.227 29.7864V20.6963C121.997 20.5347 122.666 20.4943 124.044 20.4943C124.43 20.4943 124.47 20.3933 124.47 20.1711Z" fill="white"/>
<path d="M134.75 25.403V23.8678C134.75 20.8983 133.21 18.9389 130.23 18.9389C127.25 18.9389 125.729 20.8983 125.729 23.8678V25.403C125.729 28.3724 127.25 30.3318 130.23 30.3318C133.21 30.3318 134.75 28.3724 134.75 25.403ZM132.966 25.403C132.966 27.4836 132.115 28.7764 130.23 28.7764C128.324 28.7764 127.513 27.4634 127.513 25.403V23.8678C127.513 21.7872 128.344 20.4943 130.23 20.4943C132.135 20.4943 132.966 21.8074 132.966 23.8678V25.403Z" fill="white"/>
<path d="M145.675 25.5848V19.4843C145.675 19.2621 145.533 19.0803 145.31 19.0803H144.256C144.033 19.0803 143.891 19.2621 143.891 19.4843V25.5848C143.891 28.0088 142.857 28.7764 141.499 28.7764H141.316C139.958 28.7764 138.924 28.0088 138.924 25.5848V19.4843C138.924 19.2621 138.782 19.0803 138.56 19.0803H137.505C137.282 19.0803 137.141 19.2621 137.141 19.4843V25.5848C137.141 29.5642 139.938 30.3318 141.316 30.3318H141.499C142.877 30.3318 145.675 29.5642 145.675 25.5848Z" fill="white"/>
<path d="M156.999 25.3828V23.9284C156.999 20.8983 155.6 18.9389 152.58 18.9389C151.343 18.9389 149.924 19.1409 148.85 19.4035C148.485 19.4843 148.424 19.6055 148.424 19.8681V33.7659C148.424 33.9881 148.586 34.1497 148.789 34.1497H149.823C150.046 34.1497 150.208 33.9679 150.208 33.7659V30.1096C150.999 30.251 151.951 30.3318 152.58 30.3318C155.539 30.3318 156.999 28.5542 156.999 25.3828ZM155.215 25.3828C155.215 27.5442 154.566 28.837 152.58 28.837C151.931 28.837 150.877 28.7562 150.208 28.635V20.6357C150.776 20.5347 151.728 20.4337 152.58 20.4337C154.587 20.4337 155.215 21.8074 155.215 23.9284V25.3828Z" fill="white"/>
<path d="M81.2235 28.4937V15.5656C81.2235 15.3434 81.0208 15.1818 80.7978 15.1818H77.5139C77.2909 15.1818 77.1084 15.3434 77.1084 15.5656V26.7969C76.48 26.8777 75.73 26.9181 75.1624 26.9181C73.7232 26.9181 73.115 26.3121 73.115 24.4941V15.5656C73.115 15.3434 72.9326 15.1818 72.7096 15.1818H69.4054C69.1824 15.1818 69 15.3434 69 15.5656V24.4941C69 29.4028 71.6555 30.3724 75.5678 30.3724C76.4598 30.3724 78.9936 30.1906 79.9058 30.0492C80.8789 29.9078 81.2235 29.625 81.2235 28.4937Z" fill="white"/>
<path d="M87.9847 29.7866V15.5656C87.9847 15.3434 87.8022 15.1818 87.5792 15.1818H84.2548C84.0318 15.1818 83.8494 15.3434 83.8494 15.5656V29.7866C83.8494 30.0088 84.0318 30.1906 84.2548 30.1906H87.5792C87.8022 30.1906 87.9847 30.0088 87.9847 29.7866Z" fill="white"/>
<path d="M99.7821 29.5644V26.9787C99.7821 26.7363 99.7213 26.5545 99.3564 26.5949C98.4645 26.6959 97.6739 26.7767 96.5185 26.7767C95.4036 26.7767 94.4306 26.2717 94.4306 23.7265V21.6459C94.4306 19.0804 95.4238 18.5956 96.5185 18.5956C97.6739 18.5956 98.5253 18.6966 99.3564 18.7774C99.701 18.8178 99.7821 18.6764 99.7821 18.3936V15.808C99.7821 15.5252 99.6605 15.4646 99.3362 15.3636C98.8091 15.1818 97.7753 15 96.4982 15C92.7683 15 90.2547 17.02 90.2547 21.6459V23.7265C90.2547 28.3523 92.7683 30.3724 96.4982 30.3724C97.7753 30.3724 98.8091 30.1906 99.3362 30.0088C99.6605 29.9078 99.7821 29.827 99.7821 29.5644Z" fill="white"/>
</svg>
