<svg width="91" height="22" viewBox="0 0 91 22" fill="none" xmlns="http://www.w3.org/2000/svg">
<path d="M47.9832 16.8523C46.5983 17.0939 45.1957 17.2055 43.7926 17.1867C41.1601 17.1867 38.3379 15.359 38.3379 10.2554V7.26834C38.3379 1.85649 41.2969 0.317659 43.979 0.317659C45.3198 0.305125 46.6589 0.409384 47.9832 0.629299C48.1702 0.652088 48.3422 0.739259 48.3422 0.963732V2.07698C48.3422 2.23308 48.2595 2.30145 48.0692 2.30145H47.9871C46.7444 2.19092 45.7748 2.14534 43.9829 2.14534C42.0255 2.14534 40.2556 3.25916 40.2556 7.26834V10.2554C40.2556 13.9341 41.8352 15.3818 43.7959 15.3818C45.0782 15.3818 45.9508 15.2947 46.4461 15.2485V8.87554C46.4416 8.8197 46.4483 8.76274 46.4654 8.70918C46.4825 8.6562 46.5095 8.60663 46.5453 8.56447C46.5806 8.52288 46.6242 8.48869 46.6727 8.46533C46.7213 8.4414 46.7737 8.42887 46.8272 8.42716H47.965C48.0736 8.43343 48.1757 8.483 48.2496 8.56675C48.324 8.6505 48.3649 8.76102 48.3638 8.87554V16.3623C48.3671 16.4791 48.3301 16.5925 48.2606 16.6831C48.1906 16.7731 48.0918 16.8335 47.9832 16.8523Z" fill="#91A6BF"/>
<path d="M56.213 6.33346C55.233 6.29243 54.2512 6.36764 53.2866 6.55793V16.5863C53.2915 16.6951 53.2574 16.8016 53.1906 16.8842C53.1239 16.9674 53.0296 17.0198 52.9275 17.0312H51.8322C51.7257 17.025 51.6265 16.9754 51.5553 16.8916C51.4836 16.8085 51.4467 16.6991 51.4516 16.5863V5.75575C51.4577 5.64408 51.4957 5.5364 51.5603 5.44752C51.6248 5.35922 51.7136 5.29313 51.814 5.25781C53.0136 4.69948 54.468 4.63452 56.213 4.63452C56.4894 4.63452 56.6581 4.65731 56.6581 4.96895V5.99162C56.6581 6.22349 56.6151 6.33346 56.213 6.33346Z" fill="#91A6BF"/>
<path d="M63.2014 17.1864C60.1062 17.1864 58.5332 15.0243 58.5332 11.7484V10.0535C58.5332 6.77752 60.1134 4.61938 63.2014 4.61938C66.29 4.61938 67.8702 6.77752 67.8702 10.0535V11.7484C67.8702 15.0243 66.279 17.1864 63.2014 17.1864ZM66.0457 10.0535C66.0457 7.7734 65.1803 6.33313 63.2014 6.33313C61.2231 6.33313 60.3792 7.76201 60.3792 10.0535V11.7484C60.3792 14.0284 61.2231 15.4727 63.2014 15.4727C65.1803 15.4727 66.0457 14.0438 66.0457 11.7484V10.0535Z" fill="#91A6BF"/>
<path d="M74.894 17.1867H74.6927C73.2565 17.1867 70.3548 16.3395 70.3548 11.9503V5.2201C70.3504 5.16313 70.3571 5.10615 70.3747 5.05203C70.3923 4.99848 70.4199 4.94891 70.4563 4.90732C70.4927 4.86573 70.5374 4.83212 70.5865 4.80933C70.6356 4.78654 70.6891 4.77515 70.7426 4.77515H71.8379C71.8914 4.77629 71.9438 4.78825 71.9918 4.81161C72.0403 4.83497 72.0839 4.86858 72.1198 4.91017C72.1551 4.95176 72.1826 5.00075 72.1997 5.05431C72.2168 5.10729 72.2229 5.1637 72.2185 5.2201V11.9503C72.2185 14.6104 73.2962 15.4729 74.7037 15.4729H74.894C76.3015 15.4729 77.3792 14.6257 77.3792 11.9503V5.2201C77.3743 5.16427 77.3809 5.10787 77.398 5.05488C77.4145 5.0019 77.4416 4.9529 77.4769 4.91131C77.5122 4.86972 77.5552 4.8361 77.6032 4.81275C77.6511 4.78939 77.703 4.77686 77.7559 4.77515H78.8513C78.9042 4.77629 78.9566 4.78825 79.0052 4.81161C79.0537 4.83497 79.0973 4.86858 79.1331 4.91017C79.1684 4.95176 79.196 5.00075 79.2131 5.05431C79.2296 5.10729 79.2363 5.1637 79.2319 5.2201V11.9503C79.2319 16.3395 76.323 17.1867 74.894 17.1867Z" fill="#91A6BF"/>
<path d="M86.4104 17.187C85.5842 17.1756 84.7602 17.0941 83.9467 16.9437V20.9763C83.9467 21.0315 83.9362 21.0862 83.9163 21.1375C83.8965 21.1888 83.8667 21.2349 83.8297 21.2742C83.7928 21.3135 83.7492 21.3443 83.7007 21.366C83.6521 21.387 83.6003 21.3979 83.5479 21.3979H82.4707C82.4194 21.3973 82.3687 21.3859 82.3213 21.3642C82.2744 21.3426 82.2319 21.3113 82.1961 21.272C82.1608 21.2326 82.1332 21.1865 82.115 21.1352C82.0968 21.0845 82.088 21.0304 82.0902 20.9763V5.63805C82.0902 5.3492 82.1547 5.21646 82.532 5.12929C83.8011 4.80341 85.101 4.63135 86.4065 4.61597C89.5453 4.61597 90.9992 6.77466 90.9992 10.119V11.7188C91.003 15.226 89.4841 17.187 86.4104 17.187ZM89.1466 10.1224C89.1466 7.78137 88.4963 6.26931 86.4104 6.26931C85.5847 6.27444 84.7613 6.34793 83.9467 6.48979V15.3137C84.7613 15.455 85.5847 15.5302 86.4104 15.5376C88.4748 15.5376 89.1466 14.1128 89.1466 11.7376V10.1224Z" fill="#91A6BF"/>
<path d="M11.3297 17.0039C10.3816 17.16 7.73864 17.3577 6.82297 17.3577C2.75791 17.3577 0 16.278 0 10.8742V1.02415C0.000937616 0.96718 0.0125764 0.910777 0.0343071 0.858362C0.0559825 0.805947 0.0873093 0.759231 0.126469 0.71992C0.165573 0.680609 0.211679 0.649841 0.262089 0.629901C0.312555 0.60939 0.366278 0.600277 0.420164 0.601986H3.85316C3.90715 0.599707 3.9611 0.608821 4.01178 0.628762C4.06241 0.648702 4.10874 0.67947 4.14795 0.718781C4.18717 0.758093 4.2185 0.805382 4.24001 0.857797C4.26157 0.910212 4.27288 0.96661 4.27332 1.02415V10.8742C4.27332 12.8808 4.90533 13.5342 6.40281 13.5342C7.07872 13.532 7.75408 13.4864 8.42475 13.3975V1.02415C8.42475 0.96661 8.43633 0.910212 8.45784 0.857797C8.47935 0.805382 8.51079 0.758093 8.54995 0.718781C8.58911 0.67947 8.63544 0.648702 8.68618 0.628762C8.73692 0.608821 8.79042 0.599707 8.84447 0.601986H12.2563C12.3671 0.596859 12.4764 0.638446 12.5585 0.717069C12.6413 0.796261 12.6915 0.906219 12.6981 1.02415V15.2861C12.6981 16.5327 12.339 16.8483 11.3297 17.0039Z" fill="#374453"/>
<path d="M19.3088 17.1599H15.8545C15.7436 17.1565 15.6389 17.1081 15.5616 17.0243C15.4844 16.9406 15.4414 16.8283 15.4414 16.7115V1.02407C15.4425 0.967669 15.4535 0.911838 15.475 0.859993C15.4966 0.808148 15.5269 0.761432 15.5655 0.72269C15.6036 0.683379 15.6488 0.652612 15.6984 0.631532C15.7481 0.611022 15.801 0.600766 15.8545 0.601905H19.3088C19.3628 0.599626 19.4169 0.60874 19.4676 0.62868C19.5184 0.648621 19.5647 0.678819 19.6039 0.7187C19.643 0.758011 19.6745 0.805301 19.696 0.857716C19.7175 0.910131 19.7285 0.966529 19.7291 1.02407V16.7115C19.7296 16.7702 19.7191 16.8283 19.6982 16.8824C19.6772 16.9371 19.6463 16.9867 19.6072 17.0283C19.568 17.0699 19.5217 17.1029 19.4704 17.1257C19.4191 17.1479 19.3645 17.1599 19.3088 17.1599Z" fill="#374453"/>
<path d="M31.5214 16.9588C30.5634 17.2482 29.5695 17.3827 28.5729 17.3582C24.6983 17.3582 22.0879 15.1311 22.0879 10.0275V7.7469C22.0879 2.62846 24.6983 0.401405 28.5729 0.401405C29.569 0.378616 30.5628 0.513069 31.5214 0.800212C31.8589 0.914158 31.9847 0.979102 31.9847 1.29074V4.14451C31.9847 4.43336 31.8589 4.56611 31.6256 4.56611H31.5611C30.5821 4.44533 29.5982 4.37924 28.6126 4.36898C27.4742 4.36898 26.4583 4.90055 26.4583 7.73209V10.0121C26.4583 12.8203 27.4709 13.3792 28.6126 13.3792C29.5982 13.3673 30.5821 13.3 31.5611 13.1775H31.6003C31.8518 13.1775 31.9593 13.3109 31.9593 13.5997V16.4689C31.9847 16.7577 31.8589 16.8489 31.5214 16.9588Z" fill="#374453"/>
</svg>
