<svg width="91" height="22" viewBox="0 0 91 22" fill="none" xmlns="http://www.w3.org/2000/svg">
<path d="M47.9832 16.8523C46.5983 17.0939 45.1957 17.2055 43.7926 17.1867C41.1601 17.1867 38.3379 15.359 38.3379 10.2554V7.26834C38.3379 1.85649 41.2969 0.317659 43.979 0.317659C45.3198 0.305125 46.6589 0.409384 47.9832 0.629299C48.1702 0.652088 48.3422 0.739259 48.3422 0.963732V2.07698C48.3422 2.23308 48.2595 2.30145 48.0692 2.30145H47.9871C46.7444 2.19092 45.7748 2.14534 43.9829 2.14534C42.0255 2.14534 40.2556 3.25916 40.2556 7.26834V10.2554C40.2556 13.9341 41.8352 15.3818 43.7959 15.3818C45.0782 15.3818 45.9508 15.2947 46.4461 15.2485V8.87554C46.4416 8.8197 46.4483 8.76274 46.4654 8.70918C46.4825 8.6562 46.5095 8.60663 46.5453 8.56447C46.5806 8.52288 46.6242 8.48869 46.6727 8.46533C46.7213 8.4414 46.7737 8.42887 46.8272 8.42716H47.965C48.0736 8.43343 48.1757 8.483 48.2496 8.56675C48.324 8.6505 48.3649 8.76102 48.3638 8.87554V16.3623C48.3671 16.4791 48.3301 16.5925 48.2606 16.6831C48.1906 16.7731 48.0918 16.8335 47.9832 16.8523Z" fill="#91A6BF"/>
<path d="M56.213 6.33346C55.233 6.29243 54.2512 6.36764 53.2866 6.55793V16.5863C53.2915 16.6951 53.2574 16.8016 53.1906 16.8842C53.1239 16.9674 53.0296 17.0198 52.9275 17.0312H51.8322C51.7257 17.025 51.6265 16.9754 51.5553 16.8916C51.4836 16.8085 51.4467 16.6991 51.4516 16.5863V5.75575C51.4577 5.64408 51.4957 5.5364 51.5603 5.44752C51.6248 5.35922 51.7136 5.29313 51.814 5.25781C53.0136 4.69948 54.468 4.63452 56.213 4.63452C56.4894 4.63452 56.6581 4.65731 56.6581 4.96895V5.99162C56.6581 6.22349 56.6151 6.33346 56.213 6.33346Z" fill="#91A6BF"/>
<path d="M63.2014 17.1866C60.1062 17.1866 58.5332 15.0244 58.5332 11.7485V10.0536C58.5332 6.77764 60.1134 4.61951 63.2014 4.61951C66.29 4.61951 67.8702 6.77764 67.8702 10.0536V11.7485C67.8702 15.0244 66.279 17.1866 63.2014 17.1866ZM66.0457 10.0536C66.0457 7.77352 65.1803 6.33325 63.2014 6.33325C61.2231 6.33325 60.3792 7.76213 60.3792 10.0536V11.7485C60.3792 14.0286 61.2231 15.4728 63.2014 15.4728C65.1803 15.4728 66.0457 14.0439 66.0457 11.7485V10.0536Z" fill="#91A6BF"/>
<path d="M74.894 17.1868H74.6927C73.2565 17.1868 70.3548 16.3396 70.3548 11.9504V5.22022C70.3504 5.16325 70.3571 5.10628 70.3747 5.05215C70.3923 4.9986 70.4199 4.94903 70.4563 4.90744C70.4927 4.86585 70.5374 4.83224 70.5865 4.80945C70.6356 4.78666 70.6891 4.77527 70.7426 4.77527H71.8379C71.8914 4.77641 71.9438 4.78837 71.9918 4.81173C72.0403 4.83509 72.0839 4.8687 72.1198 4.91029C72.1551 4.95188 72.1826 5.00088 72.1997 5.05443C72.2168 5.10741 72.2229 5.16382 72.2185 5.22022V11.9504C72.2185 14.6105 73.2962 15.473 74.7037 15.473H74.894C76.3015 15.473 77.3792 14.6259 77.3792 11.9504V5.22022C77.3743 5.16439 77.3809 5.10799 77.398 5.055C77.4145 5.00202 77.4416 4.95302 77.4769 4.91143C77.5122 4.86984 77.5552 4.83623 77.6032 4.81287C77.6511 4.78951 77.703 4.77698 77.7559 4.77527H78.8513C78.9042 4.77641 78.9566 4.78837 79.0052 4.81173C79.0537 4.83509 79.0973 4.8687 79.1331 4.91029C79.1684 4.95188 79.196 5.00088 79.2131 5.05443C79.2296 5.10741 79.2363 5.16382 79.2319 5.22022V11.9504C79.2319 16.3396 76.323 17.1868 74.894 17.1868Z" fill="#91A6BF"/>
<path d="M86.4104 17.1869C85.5842 17.1755 84.7602 17.094 83.9467 16.9436V20.9761C83.9467 21.0314 83.9362 21.0861 83.9163 21.1374C83.8965 21.1886 83.8667 21.2348 83.8297 21.2741C83.7928 21.3134 83.7492 21.3442 83.7007 21.3658C83.6521 21.3869 83.6003 21.3977 83.5479 21.3977H82.4707C82.4194 21.3972 82.3687 21.3858 82.3213 21.3641C82.2744 21.3425 82.2319 21.3111 82.1961 21.2718C82.1608 21.2325 82.1332 21.1864 82.115 21.1351C82.0968 21.0844 82.088 21.0303 82.0902 20.9761V5.63793C82.0902 5.34908 82.1547 5.21634 82.532 5.12917C83.8011 4.80329 85.101 4.63123 86.4065 4.61584C89.5453 4.61584 90.9992 6.77454 90.9992 10.1188V11.7186C91.003 15.2259 89.4841 17.1869 86.4104 17.1869ZM89.1466 10.1223C89.1466 7.78125 88.4963 6.26919 86.4104 6.26919C85.5847 6.27432 84.7613 6.34781 83.9467 6.48967V15.3136C84.7613 15.4549 85.5847 15.5301 86.4104 15.5375C88.4748 15.5375 89.1466 14.1126 89.1466 11.7374V10.1223Z" fill="#91A6BF"/>
<path d="M11.3297 17.0038C10.3816 17.1599 7.73864 17.3576 6.82297 17.3576C2.75791 17.3576 0 16.2779 0 10.8741V1.02403C0.000937616 0.967058 0.0125764 0.910655 0.0343071 0.85824C0.0559825 0.805825 0.0873093 0.759109 0.126469 0.719798C0.165573 0.680487 0.211679 0.649719 0.262089 0.629779C0.312555 0.609268 0.366278 0.600155 0.420164 0.601864H3.85316C3.90715 0.599585 3.9611 0.608699 4.01178 0.62864C4.06241 0.64858 4.10874 0.679348 4.14795 0.718659C4.18717 0.757971 4.2185 0.80526 4.24001 0.857675C4.26157 0.91009 4.27288 0.966488 4.27332 1.02403V10.8741C4.27332 12.8806 4.90533 13.5341 6.40281 13.5341C7.07872 13.5318 7.75408 13.4863 8.42475 13.3974V1.02403C8.42475 0.966488 8.43633 0.91009 8.45784 0.857675C8.47935 0.80526 8.51079 0.757971 8.54995 0.718659C8.58911 0.679348 8.63544 0.64858 8.68618 0.62864C8.73692 0.608699 8.79042 0.599585 8.84447 0.601864H12.2563C12.3671 0.596737 12.4764 0.638324 12.5585 0.716947C12.6413 0.796139 12.6915 0.906097 12.6981 1.02403V15.286C12.6981 16.5326 12.339 16.8482 11.3297 17.0038Z" fill="white"/>
<path d="M19.3088 17.16H15.8545C15.7436 17.1566 15.6389 17.1082 15.5616 17.0244C15.4844 16.9407 15.4414 16.8284 15.4414 16.7116V1.02419C15.4425 0.967791 15.4535 0.911961 15.475 0.860115C15.4966 0.80827 15.5269 0.761554 15.5655 0.722812C15.6036 0.683501 15.6488 0.652734 15.6984 0.631654C15.7481 0.611144 15.801 0.600888 15.8545 0.602027H19.3088C19.3628 0.599748 19.4169 0.608862 19.4676 0.628803C19.5184 0.648743 19.5647 0.678941 19.6039 0.718822C19.643 0.758133 19.6745 0.805423 19.696 0.857838C19.7175 0.910253 19.7285 0.966651 19.7291 1.02419V16.7116C19.7296 16.7703 19.7191 16.8284 19.6982 16.8826C19.6772 16.9373 19.6463 16.9868 19.6072 17.0284C19.568 17.07 19.5217 17.1031 19.4704 17.1258C19.4191 17.1481 19.3645 17.16 19.3088 17.16Z" fill="white"/>
<path d="M31.5214 16.9588C30.5634 17.2482 29.5695 17.3827 28.5729 17.3582C24.6983 17.3582 22.0879 15.1311 22.0879 10.0275V7.7469C22.0879 2.62846 24.6983 0.401405 28.5729 0.401405C29.569 0.378616 30.5628 0.513069 31.5214 0.800212C31.8589 0.914158 31.9847 0.979102 31.9847 1.29074V4.14451C31.9847 4.43336 31.8589 4.56611 31.6256 4.56611H31.5611C30.5821 4.44533 29.5982 4.37924 28.6126 4.36898C27.4742 4.36898 26.4583 4.90055 26.4583 7.73209V10.0121C26.4583 12.8203 27.4709 13.3792 28.6126 13.3792C29.5982 13.3673 30.5821 13.3 31.5611 13.1775H31.6003C31.8518 13.1775 31.9593 13.3109 31.9593 13.5997V16.4689C31.9847 16.7577 31.8589 16.8489 31.5214 16.9588Z" fill="white"/>
</svg>
