<svg width="182" height="90" viewBox="0 0 182 90" fill="none" xmlns="http://www.w3.org/2000/svg">
<g clip-path="url(#clip0)">
<path d="M0.898438 0.492188H90.1102V89.704H0.898438V0.492188Z" fill="#0468B1"/>
<path d="M93.0835 0.195312H136.203V43.6031H93.0835V0.195312Z" fill="#0468B1"/>
<path d="M104.085 7.08062V24.1444C104.085 33.1253 108.546 36.4183 114.493 36.4183C120.738 36.4183 125.199 32.8259 125.199 23.845V6.78125H121.63V24.1444C121.63 30.431 118.657 33.4246 114.493 33.4246C110.628 33.4246 107.654 30.7304 107.654 24.1444V7.08062H104.085Z" fill="white"/>
<path d="M138.88 0.195312H181.999V43.6031H138.88V0.195312Z" fill="#0468B1"/>
<path d="M153.15 36.4186V24.1447C153.15 19.3549 153.15 15.7625 152.853 12.1701C154.34 15.4631 156.124 18.7561 158.206 21.7498L167.424 36.4186H171.29V7.67969H168.019V19.9536C168.019 24.444 168.019 28.0364 168.614 31.9281C167.424 28.9345 165.64 25.9409 163.559 22.3485L154.34 7.67969H150.177V36.718L153.15 36.4186Z" fill="white"/>
<path d="M138.88 46.2969H181.999V89.7046H138.88V46.2969Z" fill="#0468B1"/>
<path d="M167.725 55.5746C165.941 54.0778 163.265 53.1797 159.399 53.1797C156.425 53.1797 154.046 53.4791 152.262 53.7784V82.5173H155.83V70.8421C156.722 71.1415 157.614 71.1415 158.804 71.1415C162.372 71.1415 165.643 69.9441 167.428 67.8485C168.915 66.3517 169.807 64.2562 169.807 61.5619C170.401 59.167 169.509 57.0714 167.725 55.5746Z" fill="white"/>
<path d="M159.398 68.1504C158.209 68.1504 157.019 68.1504 156.127 67.8511V56.7746C156.722 56.7746 157.911 56.4752 159.695 56.4752C163.859 56.4752 166.535 58.2714 166.535 62.1631C166.535 66.0549 163.859 68.1504 159.398 68.1504ZM93.084 46.2969H136.203V89.7046H93.084V46.2969Z" fill="#0468B1"/>
<path d="M123.415 56.7721C121.036 54.3771 117.17 53.1797 111.817 53.1797C108.843 53.1797 106.167 53.4791 103.788 53.7784V82.5173C105.572 82.8167 107.951 82.8167 110.628 82.8167C116.278 82.8167 120.738 81.3199 123.415 78.6256C126.091 75.9313 127.578 72.0396 127.578 67.5492C127.578 62.46 126.091 59.167 123.415 56.7721Z" fill="white"/>
<path d="M111.523 79.5286C110.036 79.5286 108.549 79.5286 107.657 79.2293V56.4776C108.549 56.1783 110.036 55.8789 112.117 55.8789C120.146 55.8789 123.715 60.07 123.715 66.9554C123.715 75.0382 119.254 79.828 111.523 79.5286Z" fill="#0468B1"/>
<path d="M77.3225 46.8822C76.133 48.6664 74.3487 50.1533 73.4566 52.2349C73.4566 50.748 73.754 48.9638 73.1592 47.7743C72.2671 44.8006 71.375 42.1242 71.0776 38.5558V37.3663C71.6724 40.6374 74.9435 43.0163 74.6461 46.5848C74.6461 47.4769 74.3487 48.369 74.0514 48.9638V48.6664C74.6461 46.8822 74.6461 45.098 75.5382 43.3137C76.7277 40.9347 77.9172 38.5558 77.3225 35.582C79.7014 39.1505 79.1067 43.6111 77.3225 46.8822Z" fill="white"/>
<path d="M75.5402 28.4439C77.6219 31.4176 78.2166 35.8782 76.4324 39.1493C75.8376 40.6361 75.5402 42.123 75.2429 43.6099C75.2429 43.3125 75.2429 43.0151 74.9455 42.7178C74.3508 39.4467 71.0797 37.0677 69.8902 34.3913C69.2954 33.4992 69.2954 32.6071 68.998 31.1202C70.1875 33.4992 73.4586 34.6887 74.6481 37.6624C75.2429 38.2572 74.9455 39.1493 75.2429 40.0414C74.6481 37.0677 74.9455 34.3913 75.2429 31.715C75.2429 30.2281 74.9455 28.7412 74.3508 27.5518C74.6481 27.2544 74.9455 27.8491 75.5402 28.4439Z" fill="white"/>
<path d="M74.054 27.8488C74.6487 30.2278 73.7566 32.6068 74.3513 35.2831C72.8645 32.6068 70.1881 31.4173 68.1065 29.3357C66.917 28.1462 66.3223 26.3619 66.3223 24.8751C67.5118 27.5514 70.4855 28.1462 72.2697 30.5252C72.8645 31.1199 72.8645 31.7146 73.4592 32.3094C72.5671 30.2278 71.9723 27.8488 71.675 25.1724L69.8907 22.4961C71.675 23.0908 73.4592 25.4698 74.054 27.8488Z" fill="white"/>
<path d="M67.8067 22.1994C69.5909 23.9836 70.1857 25.7678 70.7804 27.8494L71.0778 28.4442C68.6988 26.66 66.3198 23.9836 64.5356 21.6046L62.7514 19.523C64.2382 20.1178 66.3198 20.7125 67.8067 22.1994ZM34.7983 20.1178C38.0694 18.3335 41.9353 17.7388 45.5037 17.4414C54.4249 17.4414 63.0487 22.7941 66.9146 30.8232C69.2936 35.5811 70.1857 42.1233 68.6988 47.476C66.9146 54.0182 61.5619 60.2631 55.317 62.9394C48.1801 66.2105 38.3668 65.6158 32.122 61.1552C23.4982 55.5051 19.9297 45.0971 22.6061 34.9864C24.0929 29.0389 28.8509 22.7941 34.7983 20.1178ZM27.9588 20.1178C26.1745 21.6046 24.985 23.6862 23.4982 25.4705C22.3087 26.66 20.8218 27.8494 19.335 29.0389C20.2271 27.2547 20.2271 25.4705 21.4166 24.281C22.9034 21.6046 25.5798 21.0099 27.9588 20.1178Z" fill="white"/>
<path d="M18.1441 25.4722C18.7388 24.2827 19.9283 23.688 21.4152 23.3906C19.0362 25.1749 19.3336 27.8512 18.4415 30.5276C18.1441 31.1223 17.8467 32.3118 17.5494 32.9065C18.1441 32.0144 18.7388 31.1223 19.3336 29.9328C21.1178 28.1486 23.4968 27.2565 24.3889 24.8775C24.3889 28.1486 21.7126 30.5276 19.0362 32.3118C17.8467 33.2039 16.9546 34.096 16.3599 35.5829V33.2039C16.6572 30.5276 16.3599 27.2565 18.1441 25.4722Z" fill="white"/>
<path d="M13.6857 34.6877C13.6857 31.714 14.8752 29.6324 16.3621 27.5508C14.5778 30.2271 16.0647 33.7956 15.7673 36.7693L15.4699 40.0404C15.4699 39.4457 15.4699 39.4457 15.7673 38.8509C16.3621 36.1746 18.4437 34.3903 20.2279 32.6061C20.8226 32.0114 20.8226 31.714 21.12 31.1193C20.8226 32.3087 20.5253 33.7956 19.9305 34.9851C18.4437 37.9588 15.4699 40.3378 15.1726 43.6089C15.4699 40.6352 13.091 37.9588 13.6857 34.6877Z" fill="white"/>
<path d="M12.1974 38.8521L13.0895 36.1758C12.4948 39.7443 14.8738 42.718 15.7659 45.6917L16.658 49.2602C15.4685 45.9891 17.2527 42.718 19.037 39.7443C19.6317 39.1495 19.6317 38.2574 19.9291 37.3653C20.2265 38.8521 19.6317 40.6364 19.3344 42.1232C18.7396 43.9075 18.1449 46.2864 17.5501 48.0707C16.9554 49.2602 17.2527 50.747 17.5501 51.9365C16.3606 49.5575 13.6843 47.4759 13.0895 44.7996C12.1974 43.3127 11.6027 40.9337 12.1974 38.8521Z" fill="white"/>
<path d="M11.8999 45.9888C12.1973 49.8546 16.3605 51.9362 18.4421 55.5047C19.0368 56.0994 19.3342 56.6942 20.2263 57.2889C20.2263 56.6942 19.6316 56.6942 19.6316 56.0994C19.0368 54.6126 18.7395 53.1257 19.0368 51.6389C19.3342 49.8546 19.929 47.773 19.6316 45.6914C21.4158 49.2599 20.8211 54.0178 21.7132 57.8837C22.0106 58.7758 22.3079 59.6679 22.9027 60.2627C19.3342 57.8837 14.5763 55.8021 13.0894 51.0441C11.8999 49.5573 11.8999 47.773 11.8999 45.9888Z" fill="white"/>
<path d="M14.2803 54.9117C16.0645 59.3723 21.4172 59.6697 24.3909 62.346C24.6883 62.9408 25.5804 63.5355 26.1752 63.5355C25.5804 62.9408 24.3909 62.0487 24.0936 61.1565C22.3093 58.4802 22.9041 54.6144 21.4172 51.6406C22.6067 53.4249 23.7962 54.9117 24.6883 56.9933C25.8778 59.9671 26.4725 63.2382 29.1489 65.3198C26.1752 64.4276 22.6067 64.725 19.9304 62.9408C17.254 61.1565 14.5776 58.4802 14.2803 54.9117Z" fill="white"/>
<path d="M19.335 63.5343C22.6061 67.1028 27.6614 65.9133 31.8246 66.8054C32.4194 66.8054 33.0141 67.1028 33.6088 67.1028C33.0141 66.8054 32.4194 66.8054 31.8246 66.508C28.5535 65.3185 27.9588 62.0474 26.1745 59.3711C28.5535 60.858 30.3377 62.9396 32.4194 65.0212C33.9062 66.2107 35.6905 66.8054 37.7721 67.4002C37.1773 67.6975 36.5826 67.4002 35.9878 67.6975C32.4194 68.5896 28.8509 69.7791 24.985 68.5896C22.9034 67.4002 20.5245 65.6159 19.335 63.5343Z" fill="white"/>
<path d="M62.1574 71.5608C58.5889 72.7503 55.0205 71.5608 52.0468 69.4792C50.8573 68.8844 49.9651 67.6949 48.4783 67.6949H46.9914C49.6678 68.8844 52.3441 70.6687 54.4257 73.0476C53.831 73.6424 53.5336 73.9398 52.9389 74.2371C50.8573 71.8581 48.4783 69.7765 45.5046 68.2897C44.9098 68.2897 44.6124 68.8844 44.0177 68.8844C41.9361 70.3713 39.5571 72.1555 38.0702 74.5345L36.5834 73.0476C38.9624 70.6687 41.3413 68.8844 44.0177 67.6949C41.3413 66.8028 39.5571 69.1818 37.4755 70.3713C35.0965 72.1555 31.8254 72.7503 28.8517 71.5608C27.0675 70.966 25.5806 70.0739 24.6885 68.587C27.0675 70.3713 30.3386 70.3713 33.0149 69.1818C36.5834 67.6949 40.1519 65.9107 44.3151 66.8028C44.9098 66.8028 45.5046 67.3976 46.0993 66.8028C49.3704 66.2081 52.6415 66.5054 55.6152 67.9923L58.5889 69.1818C61.2653 70.0739 64.239 69.7765 66.9154 68.2897C65.1311 70.0739 63.9417 71.2634 62.1574 71.5608Z" fill="white"/>
<path d="M66.0214 67.9954C61.8582 69.4823 57.9923 67.698 54.1265 67.1033H53.5317C55.316 66.5085 57.1002 66.2112 58.5871 64.7243C60.6687 62.6427 62.7503 60.5611 65.1293 59.0742C63.345 61.4532 63.345 64.7243 60.3713 66.2112C59.7766 66.8059 58.5871 66.8059 57.9923 67.1033C59.1818 67.1033 59.7766 66.5085 61.2634 66.5085C65.1293 65.9138 69.5899 66.5085 72.2662 63.2374C70.7793 65.319 68.103 67.4007 66.0214 67.9954Z" fill="white"/>
<path d="M68.1052 63.8329C66.3209 64.4276 63.942 64.4276 61.8604 65.3198C65.1314 62.346 65.1314 57.8854 67.2131 54.6144C67.8078 53.7222 68.4025 52.8301 69.2947 51.6406C67.8078 54.317 68.6999 57.8854 66.9157 60.5618C66.3209 61.7513 65.4288 62.6434 64.5367 63.5355C64.8341 63.5355 65.1315 63.2382 65.4288 62.9408C68.1052 60.5618 71.0789 59.6697 74.0526 57.5881C75.2421 56.696 76.1342 55.8038 76.729 54.317C76.4316 58.7776 71.971 62.6434 68.1052 63.8329Z" fill="white"/>
<path d="M73.1632 56.6952C71.379 57.5873 69.8921 58.4794 68.7026 59.9663C71.0816 56.1004 69.8921 50.7477 71.379 46.5845L71.9737 45.0977C71.6764 47.774 72.8659 49.8556 72.5685 52.532C72.5685 54.3162 71.9737 55.5057 71.0816 56.9926C72.2711 55.5057 72.8659 53.7215 74.3527 52.532C76.4343 50.7477 78.5159 48.3688 78.8133 45.6924C79.7054 50.153 77.0291 54.3162 73.1632 56.6952Z" fill="white"/>
<path d="M55.3197 56.3983C56.2118 55.8036 57.104 55.2088 57.6987 54.6141H57.104C56.5092 54.6141 56.5092 54.0194 56.5092 54.0194L55.0224 52.5325V52.2351C55.0224 52.5325 54.725 52.8299 54.4276 52.8299C54.4276 53.1272 54.4276 53.4246 54.725 53.4246C55.3197 53.722 55.9145 54.0194 55.9145 54.3167C55.6171 54.9115 54.725 55.2088 55.3197 56.101C55.6171 56.101 55.0223 56.101 55.3197 56.3983ZM46.9933 37.0691C47.2907 37.3665 47.588 37.0691 47.588 36.7717C47.8854 36.7717 48.1828 37.0691 48.1828 37.3665H48.7775C48.7775 36.4744 50.2644 36.7717 50.5618 35.5823H50.2644C50.2644 35.5823 49.967 35.5823 49.967 35.2849L50.5618 34.6901C49.3723 34.0954 48.4802 33.5006 47.2907 33.2033C46.6959 33.2033 46.3985 33.2033 45.8038 32.9059C46.1012 33.5006 45.8038 34.6901 46.1012 35.2849L46.6959 35.5823C46.9933 34.9875 47.2907 34.9875 47.588 34.6901H48.1828V35.5823C48.1828 36.7717 47.2907 36.7717 46.9933 37.0691ZM59.4829 45.0982C58.8882 46.8824 58.2934 48.3693 57.4013 49.5588C56.8066 50.1535 56.8066 50.7483 56.2118 51.0456L57.4013 51.9377V51.6404C57.4013 51.6404 57.4013 51.343 57.6987 51.343C58.2934 51.343 58.2934 51.9377 58.2934 51.9377C58.2934 52.5325 58.5908 52.5325 58.5908 53.1272C61.5645 49.8561 63.0514 45.9903 63.3488 41.8271L63.6462 41.5297H60.0777C60.0777 42.1245 60.0777 43.0166 59.7803 43.6113L60.3751 44.2061V44.8008C59.7803 45.3955 59.7803 45.3955 59.4829 45.0982ZM56.5092 34.6901C55.9145 34.0954 55.6171 33.2033 54.725 32.6085C53.5355 33.798 52.346 34.9875 51.4539 36.177L51.7513 36.4744C51.7513 36.177 52.0486 35.8796 52.0486 35.8796C52.346 35.2849 52.6434 35.8796 53.2381 35.8796H55.0224C55.6171 36.177 55.6171 36.4744 55.9145 36.7717V37.3665C55.9145 38.2586 56.5092 37.0691 56.8066 37.3665C57.104 37.3665 57.4013 37.3665 57.4013 37.6639C57.4013 38.2586 57.9961 37.9612 57.9961 38.2586C57.9961 38.556 57.6987 38.556 57.6987 38.556C57.6987 39.1507 57.104 39.1507 57.4013 39.4481C57.9961 39.4481 57.9961 38.8534 58.2934 38.556C57.9961 37.9612 57.9961 37.3665 57.6987 36.7717C57.104 36.7717 57.104 36.177 56.8066 36.177C55.9145 35.5823 56.8066 35.2849 56.5092 34.6901ZM46.1012 59.3721C46.9933 59.0747 47.8854 59.0747 49.0749 58.7773C48.7775 58.7773 48.4802 58.7773 48.4802 58.4799C47.8854 58.4799 47.8854 57.8852 47.588 57.2905C47.588 56.9931 47.588 56.6957 47.8854 56.3983C47.588 55.8036 46.9933 56.3983 46.3985 56.101C46.3985 56.101 46.1012 55.8036 45.8038 55.8036L46.1012 56.101V59.3721ZM46.9933 50.1535C47.2907 50.1535 46.9933 50.7483 47.2907 50.7483C47.8854 50.4509 48.1828 51.343 48.4802 50.7483C48.4802 50.1535 49.0749 50.1535 49.3723 50.1535C49.967 49.8561 50.5618 49.5588 50.5618 48.6666C49.967 48.6666 49.967 48.964 49.967 49.2614C49.6696 49.5588 49.3723 48.6666 49.3723 48.964V49.2614C48.7775 49.8561 48.7775 48.964 48.4802 49.2614V49.5588C48.1828 48.964 47.8854 49.2614 47.588 48.964H46.9933C46.9933 49.2614 46.3985 48.964 46.3985 49.2614C46.1012 49.2614 46.1012 49.8561 45.8038 49.8561C45.2091 49.8561 45.2091 50.4509 44.9117 50.1535V50.4509H45.5064C45.8038 49.8561 46.3985 50.4509 46.9933 50.1535ZM50.2644 45.6929C50.2644 45.9903 50.2644 46.2877 50.5618 46.2877C51.1565 46.2877 50.8591 46.8824 51.1565 46.8824C51.4539 46.8824 51.1565 46.585 51.1565 46.2877C51.1565 45.6929 50.8591 45.6929 50.2644 45.6929C50.5618 45.6929 50.5618 45.6929 50.2644 45.6929C50.5618 45.3955 50.5618 45.3955 50.2644 45.6929ZM49.967 29.0401C48.7775 28.4453 47.588 28.4453 46.1012 28.4453V32.0138H46.3985C48.1828 32.3112 50.2644 32.9059 51.7513 34.0954V34.3928C52.346 33.798 52.9407 32.9059 53.5355 32.3112L54.1302 32.0138H53.8329C52.6434 30.5269 51.1565 29.6348 49.967 29.0401ZM27.6641 42.4218L27.9614 44.5034C27.9614 45.0982 28.5562 46.2877 28.5562 46.8824C28.5562 46.585 28.5562 46.2877 29.1509 46.2877C29.1509 45.9903 29.4483 45.6929 29.1509 45.6929C29.1509 45.0982 29.4483 44.5034 29.7457 43.9087C30.3404 43.9087 30.3404 43.3139 30.9352 43.0166C31.2325 43.0166 31.5299 43.6113 31.5299 43.6113C30.9352 43.0166 30.9352 42.4218 31.2325 41.8271H27.3667L27.6641 42.4218ZM49.0749 48.0719C49.3723 47.7745 49.967 47.7745 49.967 47.4772C49.6696 47.1798 49.6696 47.4772 49.0749 48.0719C48.7775 47.7745 48.7775 48.0719 49.0749 48.0719ZM56.5092 41.8271L57.104 42.4218C57.6987 42.7192 57.104 43.0166 57.6987 43.3139C58.2934 43.6113 58.2934 43.9087 58.2934 44.5034V44.2061C58.5908 43.6113 58.2934 42.7192 58.5908 42.4218C57.9961 42.1245 57.104 42.1244 56.5092 41.8271ZM51.7513 50.4509C52.346 50.4509 52.346 51.0456 52.9407 51.0456C53.5355 50.7483 54.1302 51.0456 54.4276 50.7483C54.4276 50.1535 54.725 50.1535 55.0224 49.5588C55.3197 49.8561 55.3197 50.1535 55.3197 50.4509C55.6171 49.8561 55.9145 49.8561 56.2118 49.2614C56.8066 48.0719 57.6987 46.8824 57.9961 45.6929C57.6987 45.6929 57.4013 45.6929 57.104 45.9903C56.8066 45.9903 56.5092 46.2877 55.9145 45.9903H55.6171C55.6171 46.2877 55.3197 46.585 55.0224 46.2877C54.725 46.2877 54.725 45.9903 54.725 45.6929V46.2877C54.4276 46.585 54.4276 46.8824 54.1302 46.8824C53.8329 47.1798 53.5355 47.1798 53.2381 47.4772C53.2381 48.0719 52.6434 48.0719 52.346 48.0719H52.9407C53.5355 48.0719 53.5355 47.4772 53.5355 47.4772C53.8329 47.4772 54.1302 47.1798 54.1302 47.4772C54.4276 47.7745 54.4276 48.0719 54.4276 48.6666C54.1302 48.964 54.4276 49.2614 54.1302 49.8561C54.1302 50.4509 53.5355 50.4509 53.5355 50.7483C53.2381 51.0456 52.9407 51.0456 52.9407 51.0456C52.0486 50.4509 51.1565 50.4509 49.967 50.4509C49.967 50.4509 49.6696 50.4509 49.967 50.7483C50.8591 50.1535 51.1565 50.1535 51.7513 50.4509ZM44.6143 60.8589C39.8563 60.5615 35.6931 59.0747 32.422 55.5062L30.0431 57.8852C33.6115 61.1563 38.0721 63.2379 42.8301 63.5353C43.4248 63.5353 44.6143 63.5353 45.2091 63.8326L44.9117 63.5353L44.6143 60.8589ZM39.8563 48.0719C41.0458 48.964 42.5327 49.8561 44.3169 49.8561V48.964C44.3169 48.6666 44.9117 48.6666 44.9117 48.6666C44.9117 48.6666 45.2091 48.3693 44.9117 48.3693C44.6143 48.3693 44.6143 47.7745 44.6143 47.7745C44.6143 47.7745 44.9117 47.7745 44.9117 47.4772C44.6143 47.1798 44.9117 46.8824 44.9117 46.8824L45.2091 46.585C44.6143 46.8824 43.7222 46.585 43.1274 45.9903L42.5327 45.3955L39.8563 48.0719ZM38.6669 44.2061C38.3695 44.2061 38.3695 44.2061 38.6669 44.2061H38.0721C38.0721 43.6113 37.4774 43.9087 37.18 43.6113L38.0721 45.3955C38.3695 45.9903 38.6669 46.2877 38.9642 46.8824C39.2616 46.2877 39.559 46.2877 39.8563 45.6929V45.0982C39.8563 44.8008 39.8563 44.5034 39.559 44.5034C39.2616 44.5034 39.559 45.0982 39.559 45.0982H39.2616C38.9642 45.0982 38.6669 44.8008 38.6669 44.5034C38.9642 44.5034 38.6669 44.5034 38.6669 44.2061ZM41.0458 44.5034C41.0458 44.8008 40.7485 45.0982 40.4511 45.0982C40.7485 44.8008 41.0458 44.5034 41.3432 44.5034H41.0458ZM44.6143 56.101C41.6406 56.101 39.2616 54.9115 36.8826 53.1272C36.8826 53.4246 37.4774 53.722 37.18 53.722C36.8826 54.0194 36.5852 54.0194 36.2879 54.0194C35.6931 54.0194 35.0984 54.6141 34.5036 54.6141C33.9089 54.9115 33.9089 54.0194 33.3142 54.0194C36.5852 56.9931 40.4511 58.4799 44.9117 58.7773L45.2091 59.0747V55.5062L44.6143 56.101Z" fill="#0468B1"/>
<path d="M31.5306 54.6138C30.9358 54.3164 30.9358 54.019 30.3411 53.4243C29.7463 53.4243 29.7463 52.8295 29.4489 52.8295V52.2348V52.5321C28.8542 52.8295 28.8542 52.2348 28.5568 51.9374C27.9621 51.64 28.2595 50.7479 27.6647 51.0453C27.3673 51.0453 27.3673 50.7479 27.07 50.7479C26.4752 50.7479 26.4752 50.1532 26.4752 50.1532V50.4505C25.8805 50.4505 25.8805 49.8558 25.5831 49.8558H25.2857C24.9884 49.5584 24.691 49.261 24.691 48.6663C24.0962 48.0716 24.3936 47.4768 24.691 46.8821C24.691 46.8821 24.9884 46.5847 24.9884 46.2873C24.9884 45.9899 25.5831 45.9899 25.5831 45.9899C25.5831 45.9899 25.8805 45.9899 25.8805 46.2873C26.1778 46.2873 26.4752 46.2873 26.4752 45.9899C26.7726 45.6926 27.07 45.6926 27.07 45.6926C27.3673 45.9899 27.3673 46.2873 27.6647 46.2873L27.3673 45.9899C27.07 44.8005 26.7726 43.611 26.7726 42.4215V41.5294H22.6094C22.9067 45.3952 23.7989 48.6663 25.5831 51.9374C26.1778 53.7216 27.6647 54.9111 28.8542 56.398L31.2332 54.019L31.5306 54.6138ZM35.3964 26.6607C34.8017 27.2555 33.9095 27.8502 33.3148 28.445C34.2069 29.0397 35.099 29.9318 35.6938 30.5266V30.8239C37.478 29.0397 40.1544 27.8502 42.5333 27.2555C43.1281 27.2555 43.7228 26.9581 44.3176 27.2555V23.9844C41.0465 23.9844 38.3701 25.1739 35.3964 26.6607ZM32.4227 39.4477C32.4227 40.0425 32.4227 40.6372 32.1253 41.232C32.72 40.9346 33.0174 41.232 33.6122 41.232C33.3148 41.232 33.6122 40.6372 33.3148 40.6372C33.3148 40.3399 33.3148 40.0425 33.6122 39.7451C33.6122 39.1504 34.2069 39.1504 34.2069 38.5556C34.2069 37.9609 34.8017 38.2583 35.099 37.9609C35.3964 37.9609 35.099 37.6635 35.099 37.3661C35.3964 37.0688 35.6938 37.0688 35.9911 36.7714L36.5859 36.1766C37.1806 36.1766 37.1806 35.2845 38.0727 35.2845C37.1806 34.6898 36.2885 33.5003 35.3964 32.9056C34.2069 34.6898 33.0174 36.7714 32.4227 39.4477ZM33.0174 44.2057C33.0174 43.9083 32.72 43.9083 32.72 43.611C33.0174 43.0162 32.72 42.4215 33.3148 42.4215C32.72 42.4215 32.72 42.7188 32.1253 42.4215L32.4227 42.7188C32.4227 43.3136 32.72 44.2057 32.72 45.0978C32.72 44.5031 32.72 44.2057 33.0174 44.2057Z" fill="#0468B1"/>
<path d="M32.4201 29.3377L31.2306 31.122C29.149 34.0957 27.9595 37.3668 27.9595 40.9353H31.5279V40.6379C31.8253 37.3668 33.0148 34.0957 35.3938 31.7167C34.2043 30.8246 33.3122 30.2298 32.4201 29.3377ZM42.2334 51.6407C42.5307 51.3433 42.8281 51.0459 43.1255 51.0459C41.936 51.3433 41.3412 50.4512 40.1517 50.1538C39.557 49.8564 38.9623 49.5591 38.6649 48.9643C38.0701 49.8564 37.178 50.7486 36.2859 51.3433C36.8806 51.3433 36.8806 51.938 37.178 51.938C38.9623 53.4249 41.3412 54.0197 43.1255 54.6144L42.5307 54.317C41.936 53.7223 41.6386 53.1275 41.3412 52.5328C42.2334 52.2354 42.2334 51.938 42.2334 51.6407ZM34.2043 42.1247V42.7195C34.2043 43.3142 33.6095 42.7195 33.6095 43.0169V43.6116C33.3122 44.2064 34.2043 44.5037 34.2043 45.3958C34.5017 45.9906 34.2043 46.288 34.799 46.8827C34.799 47.4775 34.799 48.6669 35.3938 49.2617V49.8564C35.3938 50.4512 34.799 50.4512 34.799 50.4512C34.799 50.4512 35.0964 50.4512 35.0964 50.7486C35.9885 49.5591 36.8806 48.6669 38.3675 47.4775L37.7728 46.8827C37.178 45.6932 36.2859 44.2064 35.9885 42.7195L35.6912 42.4221C35.6912 43.0169 35.3938 43.0169 35.3938 43.6116C35.0964 43.6116 34.799 43.3142 34.799 43.3142C34.799 43.3142 34.5017 43.0169 34.799 42.7195H35.0964V42.1247C35.0964 41.8274 34.799 41.53 35.0964 41.53C35.3938 41.53 35.6912 41.8274 35.6912 42.1247C35.9885 42.1247 36.2859 42.1247 36.2859 41.8274C36.2859 41.53 36.5833 41.2326 36.2859 41.2326C36.5833 40.6379 36.2859 40.3405 36.2859 39.7458C35.9885 39.4484 35.6912 39.7458 35.3938 39.7458C34.5017 40.0431 35.6912 40.6379 35.3938 41.53C34.799 42.4221 34.5017 41.8274 34.2043 42.1247ZM64.5363 42.1247C64.2389 46.288 62.7521 49.5591 60.6705 52.8302C60.0757 53.4249 60.0757 54.0196 59.1836 54.317C60.0757 54.9118 60.9678 56.1013 61.8599 56.9934C65.4284 52.8302 67.51 48.0722 67.51 42.4221V42.1247H64.5363ZM32.4201 27.8509C35.9885 24.5798 39.8544 22.7955 44.6123 22.4982V18.9297C39.8544 19.2271 35.6912 20.7139 31.8253 23.3903C31.2306 23.985 30.6358 24.5798 29.7437 25.1745C30.9332 25.7693 31.8253 26.6614 32.4201 27.8509ZM44.6123 28.4456C41.6386 28.743 38.9623 29.9325 36.5833 31.7167C37.4754 32.3115 38.3675 33.5009 38.9623 34.0957C38.9623 34.0957 38.9623 33.7983 39.2596 33.7983C40.4491 33.2036 41.6386 32.3115 42.8281 32.0141C43.4228 32.0141 44.0176 31.7167 44.6123 31.7167V28.4456ZM44.6123 32.9062C42.5307 33.2036 41.0439 34.0957 39.557 35.5826H39.8544C40.1517 35.8799 40.4491 35.8799 40.7465 36.1773C40.7465 36.4747 40.4491 36.4747 40.4491 36.772H40.7465C41.0439 36.772 41.0439 36.772 41.0439 36.4747C41.3412 36.1773 41.3412 36.772 41.6386 36.772H42.2334C42.5307 36.4747 42.8281 36.772 42.8281 36.4747C43.4228 35.8799 43.1255 35.5826 43.4228 35.2852C43.7202 35.2852 43.4228 35.5826 43.4228 35.8799C44.0176 36.1773 44.0176 35.5826 44.6123 35.8799V32.9062ZM44.9097 38.2589C44.315 38.8536 44.0176 38.8536 43.4228 39.151C43.1255 39.4484 43.4228 39.7458 42.8281 39.7458C42.8281 40.0431 42.2334 40.3405 42.2334 40.3405C41.936 40.9353 42.2334 41.2326 41.936 41.8274C41.3412 42.4221 41.3412 41.2326 41.0439 41.2326H40.1517C39.8544 41.53 39.557 41.8274 39.8544 41.8274C39.8544 42.1247 39.2596 41.8274 39.2596 42.4221C39.8544 42.4221 39.8544 42.4221 40.4491 42.1247H41.0439C41.0439 42.1247 41.3412 42.1247 41.3412 42.4221C41.6386 42.4221 41.6386 41.8274 41.6386 41.8274C41.6386 41.53 41.936 41.53 42.2334 41.53C42.5307 41.53 42.2334 41.8274 42.2334 41.8274C42.8281 42.1247 42.2334 42.4221 41.936 42.7195C41.936 43.0169 41.936 43.3142 41.3412 43.3142V43.0169C41.3412 43.3142 41.3412 43.6116 41.6386 43.6116C41.936 43.3142 41.936 43.0169 42.2334 43.0169C42.5307 42.7195 42.2334 42.4221 42.5307 42.1247C43.1255 42.1247 43.7202 41.8274 44.315 42.4221V43.0169C44.315 43.3142 44.0176 43.6116 43.7202 43.6116V44.2064C43.4228 44.8011 42.8281 44.8011 42.2334 44.8011C42.8281 45.3958 44.0176 45.3958 44.9097 45.3958C45.5045 45.3958 45.2071 44.8011 45.5045 44.5037C45.8018 43.909 46.3966 44.2064 46.9913 43.909C47.2887 43.3142 47.5861 43.3142 47.5861 42.7195C46.9913 42.4221 46.9913 42.1247 46.9913 41.8274C46.6939 41.53 46.6939 41.2326 46.3966 41.2326V40.9353C46.3966 40.6379 46.6939 40.6379 46.6939 40.3405C46.3966 40.0431 46.3966 39.7458 46.3966 39.7458C45.8018 39.7458 45.8018 39.151 45.5045 39.151C45.5045 38.8536 44.9097 38.8536 44.9097 38.5563C44.315 38.8536 44.315 37.9615 43.7202 37.9615V37.3668C44.0176 37.0694 44.315 37.3668 44.315 37.3668H44.0176C43.7202 37.0694 43.4228 37.3668 43.1255 37.3668C44.9097 37.9615 44.6123 37.9615 44.9097 38.2589Z" fill="#0468B1"/>
<path d="M26.4732 40.9309V40.3361C26.7706 36.4703 27.9601 33.1992 30.0417 30.2254C30.6365 29.6307 30.9338 28.7386 31.826 28.4412L29.447 26.0622C26.1759 29.9281 23.7969 34.3887 23.4995 39.1466C23.4995 39.7414 23.4995 40.6335 23.2021 41.2282C24.0943 40.6335 25.5811 40.6335 26.4732 40.9309ZM58.8869 55.2047C58.5895 55.7995 57.6974 56.3942 57.1026 56.989C56.5079 57.5837 55.3184 57.8811 54.7236 59.0706C54.1289 59.6653 54.1289 59.9627 53.5342 60.2601C53.2368 60.8548 52.9394 60.8548 52.3447 61.1522C51.4525 62.0443 50.5604 60.5574 49.9657 60.5574L48.1814 60.8548C47.5867 60.8548 46.992 61.1522 46.3972 60.8548V64.4233H46.6946C52.3447 64.1259 57.4 62.0443 61.5632 58.1785L58.8869 55.7995V55.2047ZM46.0998 22.1964C46.3972 21.899 46.3972 21.899 46.6946 22.1964V22.7911H46.992C49.6683 23.0885 52.3447 23.6832 54.4263 25.1701C55.021 24.8727 55.6158 24.5754 55.9131 25.1701C56.5079 24.8727 56.5079 25.7649 57.1026 25.7649C57.4 25.7649 57.9947 26.657 57.9947 27.2517C57.9947 27.5491 58.5895 27.8465 58.5895 27.8465C59.1842 27.2517 59.779 26.3596 60.3737 25.7649L60.9685 25.4675C57.4 22.1964 52.9394 20.1148 48.4788 19.52C47.8841 19.52 46.6946 19.52 46.0998 19.2227V22.1964Z" fill="#0468B1"/>
<path d="M46.0981 27.2565C46.6929 26.9591 46.9903 27.2565 47.585 27.2565C49.964 27.8512 52.0456 28.446 54.1272 29.9328C53.8298 29.6354 53.5325 29.3381 53.5325 29.0407C53.5325 28.446 52.9377 28.446 52.9377 28.1486H53.2351C53.8298 28.7433 53.8298 28.7433 54.1272 29.3381C54.4246 29.3381 54.7219 29.3381 54.7219 29.6354C54.7219 29.9328 54.7219 30.2302 55.3167 30.5276C55.3167 31.1223 56.2088 31.7171 56.2088 32.3118C56.2088 32.6092 56.5062 32.3118 56.5062 32.3118L57.1009 33.2039V33.7987C57.3983 33.7987 57.6957 33.5013 57.6957 33.5013C58.2904 33.7987 57.6957 34.096 57.6957 34.3934H58.2904C58.2904 34.6908 57.993 34.9882 57.993 34.9882C57.993 35.2855 58.2904 35.2855 58.5878 35.2855C58.8852 35.2855 58.8852 35.5829 58.8852 35.8803C59.4799 36.475 58.5878 37.0698 58.8852 37.6645C59.1825 38.2593 58.8852 38.2593 58.5878 38.854C58.5878 39.4487 57.993 39.4487 57.993 40.0435H57.3983C57.1009 40.3409 57.6957 40.6382 57.3983 40.9356H58.5878C58.2904 40.3409 58.5878 39.7461 58.8852 39.1514C59.1825 38.5566 59.1825 38.2593 59.4799 37.9619C59.4799 37.9619 59.7773 37.6645 59.7773 37.9619C59.7773 38.5566 59.7773 38.854 59.4799 39.1514C60.0747 39.7461 59.7773 40.3409 60.0747 40.9356H63.6431V40.6382C63.3458 38.5566 63.0484 36.1776 62.1563 34.3934C61.8589 34.3934 61.5615 34.6908 61.5615 34.3934C61.5615 34.3934 61.2641 34.3934 61.5615 34.096C60.9668 33.5013 60.9668 33.2039 60.372 32.6092C59.7773 32.6092 59.4799 32.0144 58.8852 32.0144C58.2904 32.0144 58.5878 31.1223 57.993 31.4197C57.6957 31.4197 57.3983 30.8249 57.3983 30.8249C57.3983 30.2302 57.3983 29.6354 56.8036 29.0407C56.2088 28.7433 56.2088 29.6354 55.9114 29.3381C55.6141 29.3381 55.9114 28.7433 55.6141 28.7433C55.6141 28.446 55.3167 28.446 55.3167 28.1486C55.9114 27.5538 54.7219 27.5538 54.7219 26.6617C54.7219 26.067 54.1272 26.067 53.8298 25.4722C52.0456 24.8775 50.2614 23.9854 48.1798 23.688C47.585 23.688 47.2876 23.688 46.6929 23.3906V23.688C46.0981 25.1749 46.0981 26.067 46.0981 27.2565Z" fill="#0468B1"/>
<path d="M58.8872 28.4415C59.1846 28.4415 59.1846 29.0362 59.482 29.0362C60.3741 29.631 60.6714 30.5231 61.2662 30.8205C61.8609 31.7126 62.753 32.6047 62.753 33.4968C63.6452 35.8758 64.5373 37.9574 64.5373 40.9311H68.1058C67.8084 40.6338 68.1058 40.3364 67.8084 39.7416C67.2136 34.3889 65.132 29.9283 61.5636 26.0625C60.9688 26.9546 60.0767 27.8467 58.8872 28.4415Z" fill="#0468B1"/>
<path d="M46.3994 21.6065C46.3994 21.3091 46.9942 21.6065 46.9942 21.6065L48.7784 21.0117C49.3731 21.0117 50.2653 21.0117 50.5626 21.6065C49.9679 22.2012 49.6705 22.2012 49.0758 22.2012C48.1837 22.2012 47.2915 22.4986 46.3994 21.6065ZM56.5101 23.6881C56.8075 23.6881 57.1048 23.9854 57.1048 24.2828C57.1048 24.5802 57.4022 24.8776 57.1048 24.8776C56.5101 25.1749 56.5101 24.2828 55.9153 24.2828V23.9854C56.2127 23.3907 56.2127 23.9854 56.5101 23.6881Z" fill="white"/>
</g>
<defs>
<clipPath id="clip0">
<rect x="0.898438" y="0.195312" width="181.101" height="89.5097" rx="4" fill="white"/>
</clipPath>
</defs>
</svg>
