<svg width="92" height="92" viewBox="0 0 92 92" fill="none" xmlns="http://www.w3.org/2000/svg">
<path fill-rule="evenodd" clip-rule="evenodd" d="M55.0006 17.6912C55.2059 17.8277 55.3333 18.1374 55.3457 18.3875C55.3467 18.4348 55.371 18.4648 55.3104 18.4648C55.0718 18.6004 54.5024 18.7937 54.2217 18.8123C54.1457 18.8003 54.0698 18.7877 53.994 18.7746V18.8137L53.8785 18.9674L53.5989 19.1559C53.4776 19.2681 53.0266 19.9521 53.0266 20.091H52.9493C52.9045 19.6014 52.8595 19.1119 52.8142 18.6223C52.8085 18.5737 52.7603 18.5035 52.8338 18.5035C53.0352 18.3851 53.6848 18.2921 53.6848 18.0004C53.8041 18.0229 53.9616 18.1212 54.0905 18.0887C54.1501 18.072 54.1492 18.0004 54.2265 18.0004C54.3859 17.9074 54.8035 17.7293 55.0011 17.7293L55.0006 17.6912ZM58.4844 19.5101H58.5617C58.6271 19.7487 58.9187 20.1234 58.8991 20.3568C58.8776 20.604 58.2906 21.0828 58.2906 21.2517C58.1684 21.1901 57.0525 19.9988 57.0525 19.9354C57.3861 19.8423 57.7207 19.7492 58.0548 19.6552C58.1908 19.6175 58.3297 19.5488 58.4844 19.5488V19.5101ZM58.5617 24.1942C58.545 24.1684 58.6419 24.1713 58.6586 24.2004L58.5617 24.1942ZM55.1176 29.2649C55.1176 29.3155 55.1286 29.304 55.0784 29.304C55.1056 29.3317 55.1176 29.3331 55.1176 29.3814H55.1558V29.3422H55.1939C55.1683 29.3167 55.1428 29.2909 55.1176 29.2649ZM52.8333 31.3941C53.1755 31.4375 53.4934 31.6127 53.7988 31.7434C53.9425 31.794 54.0852 31.8461 54.226 31.8971V31.9358H54.1878V31.9745C53.6218 32.1754 53.2332 31.3201 52.6309 31.8871C52.5798 31.9344 52.4452 32.025 52.4452 32.0904H52.4071C52.4071 32.036 52.3818 32.0131 52.4452 32.0131C52.5751 31.8064 52.7049 31.6007 52.8333 31.3941ZM51.8649 32.0904V32.1678C51.904 32.1472 51.9431 32.1482 51.9431 32.0904H51.8649ZM61.8516 33.7939C61.9514 34.0125 62.2626 35.6553 62.1967 35.8706C62.1676 35.9636 62.0244 36.0386 61.9289 36.0386C61.8741 35.6515 61.8182 35.2658 61.7609 34.8783C61.7247 34.6587 61.6483 34.379 61.6913 34.1466C61.7442 34.0297 61.7986 33.9122 61.8516 33.7939ZM55.3486 34.2583C55.3829 34.3017 55.3963 34.3356 55.465 34.3356C55.4269 34.3103 55.3877 34.285 55.3486 34.2583ZM44.2397 35.8839C44.2531 35.9359 44.2665 35.988 44.2784 36.0386C44.2827 35.9842 44.2691 35.9299 44.2397 35.8839ZM38.2016 42.9673C38.2016 43.0184 38.2135 43.0065 38.1624 43.0065V43.0451C38.1939 43.0127 38.1882 43.0065 38.2402 43.0065L38.2016 42.9673ZM30.2275 44.3997V44.4383C30.1874 44.4469 30.2504 44.477 30.2662 44.477C30.2528 44.4515 30.2399 44.4257 30.2275 44.3997ZM30.576 44.5548C30.576 44.6106 30.5492 44.7094 30.6146 44.7094L30.576 44.5548ZM29.5694 44.8641C29.5694 44.9342 29.5383 45.1738 29.6085 45.1738C29.5947 45.0712 29.5827 44.9681 29.5694 44.8641ZM45.0912 47.7679V47.8061C44.9886 47.8581 44.8855 47.9106 44.7819 47.9607V47.9989H44.8592C44.9175 48.0166 45.169 48.0753 45.169 47.9989H45.2077C45.2077 47.9373 45.1776 47.8061 45.2463 47.8061L45.0912 47.7679ZM45.3623 47.9225C45.3623 47.9755 45.3356 48.038 45.401 48.038C45.401 47.986 45.3881 47.9989 45.4401 47.9989L45.3623 47.9225ZM53.5678 51.4063C53.5678 51.4564 53.5807 51.4444 53.5296 51.4444C53.5631 51.4883 53.5774 51.5218 53.6451 51.5218C53.6204 51.4826 53.5946 51.444 53.5678 51.4063ZM52.523 52.2573C52.523 52.3074 52.5359 52.2954 52.4849 52.2954C52.5121 52.3236 52.523 52.325 52.523 52.3737H52.5622V52.3346H52.6004L52.523 52.2573ZM33.0917 54.1545C33.1208 54.227 33.1776 54.3864 33.2855 54.3864V54.3473C33.2154 54.2814 33.1719 54.2065 33.0917 54.1545ZM58.9879 56.3218C59.1344 56.4001 59.1779 56.5948 59.2366 56.7395C59.3187 56.939 59.4509 57.1805 59.4633 57.4067C59.4719 57.5943 59.1316 58.7092 59.0299 58.8486C58.9321 58.9798 58.4037 59.3407 58.2524 59.3407C58.134 59.1832 57.7847 58.893 57.7555 58.7116C57.7116 58.4439 58.0686 57.7451 58.1665 57.4793C58.229 57.3041 58.2624 57.095 58.3717 56.9433C58.5378 56.707 58.7836 56.5252 58.9879 56.3218ZM28.021 57.0955C28.0043 57.1442 27.9461 57.2511 28.021 57.2511V57.2893H28.0602V57.0955H28.021ZM29.9564 59.302C29.9793 59.3273 29.9951 59.3402 29.9951 59.3793C29.9817 59.354 29.9698 59.3292 29.9564 59.302ZM25.5826 62.3987V62.4378H25.6217V62.476C25.6527 62.4435 25.6604 62.4497 25.6604 62.3987H25.5826ZM25.6986 62.476C25.6986 62.527 25.6852 62.5151 25.7377 62.5151V62.5533C25.7644 62.5251 25.7764 62.5151 25.7377 62.5151L25.6986 62.476ZM14.5506 67.8569C14.5639 67.907 14.5592 67.9724 14.6279 67.9724C14.6026 67.9342 14.5773 67.8951 14.5506 67.8569ZM51.4783 70.1016C51.4792 70.1622 51.4654 70.3336 51.5174 70.3336V70.2954C51.5031 70.2309 51.4911 70.167 51.4783 70.1016ZM73.4044 18.2462C74.0234 19.1631 74.6768 20.0671 75.4242 20.9148C75.9378 21.498 76.3535 22.1996 76.9286 22.7399L78.3147 23.9847C78.7481 24.3531 79.2998 24.6247 79.6964 25.0457H79.7346C79.7346 24.4338 79.4363 23.7035 79.274 23.1465C79.1242 22.6473 78.9729 22.1471 78.822 21.6479C78.5901 21.204 78.3557 20.7587 78.1238 20.3148L77.6575 19.45C77.4265 19.1087 77.0823 18.8428 76.8065 18.5293C76.385 18.0515 75.9526 17.5422 75.4624 17.1246C74.8396 16.6764 74.2153 16.2259 73.5924 15.7763L72.8784 15.2584L71.7701 14.6537C71.5081 14.5086 71.2442 14.3153 70.9487 14.2461C71.3515 14.9935 71.7186 15.7558 72.1672 16.4779C72.5801 17.0683 72.9915 17.6577 73.4044 18.2462ZM12.6624 24.523C12.9914 24.3804 13.3154 24.2263 13.6337 24.061C16.4716 22.5662 18.765 19.9583 20.1477 17.1227C20.5001 16.3943 20.8244 15.6527 21.1199 14.8995C21.1868 14.7277 21.3271 14.4929 21.2856 14.2848L20.404 14.69C19.6723 15.0556 18.9535 15.4608 18.2729 15.9214C16.0846 17.3995 14.079 19.5139 13.0676 21.9056C12.713 22.7413 12.4214 23.6028 12.4214 24.6199C12.5135 24.6199 12.5851 24.556 12.6624 24.523ZM73.8124 21.8698C73.8124 21.8536 73.8124 21.856 73.8124 21.8698V21.8698Z" fill="#4098DD"/>
<path fill-rule="evenodd" clip-rule="evenodd" d="M80.2944 22.3705C80.439 22.9413 80.5817 23.5112 80.724 24.082C80.806 24.9459 80.8872 25.8098 80.9683 26.6732C80.9879 27.1013 81.0103 27.5466 81.0896 27.9504H81.0504V27.9896H80.8566V27.9504H80.8185C80.8185 27.8927 80.8547 27.8745 80.8958 27.8344H80.8566C80.4858 27.5371 80.2276 27.1085 79.903 26.7749C79.6233 26.5257 79.3436 26.2752 79.0649 26.026C77.8345 24.871 76.4704 23.8443 75.1636 22.8439L74.2901 22.2015C74.1317 22.0927 73.9722 21.9824 73.8119 21.8736C73.8128 21.9099 73.8167 22.012 73.8353 22.0559C73.8892 22.1648 73.9446 22.2726 73.9985 22.38L74.5316 23.4444L75.9969 25.1888C76.8742 26.1506 77.7366 27.1171 78.6396 28.0788L79.7937 29.3231C80.4177 29.8743 81.0419 30.4251 81.6666 30.9755C82.016 31.2733 82.5057 31.6117 82.7925 31.9759H82.8307V32.015H82.8698L83.0507 30.9659C83.1133 30.6199 83.1748 30.2739 83.2364 29.9283C83.3118 29.5618 83.4025 29.1919 83.4087 28.801C83.4311 27.393 83.4564 25.9606 83.1591 24.7039C83.0483 24.2348 82.8627 23.7942 82.7276 23.3398C82.2365 21.6956 81.4805 19.9034 80.0958 18.7961C79.7975 18.5579 79.5336 18.3484 79.1532 18.2734L79.8181 20.2451C79.9775 20.9539 80.1359 21.6612 80.2944 22.3705ZM73.8119 21.8731V21.8712V21.8731ZM9.24687 32.4789C9.42967 32.4789 10.9307 31.0542 11.1966 30.8266C11.5923 30.4734 11.9865 30.1192 12.3822 29.766C12.9291 29.1785 13.4756 28.589 14.0226 28.0001C15.0459 26.9429 16.0134 25.8676 16.8868 24.7464C17.1302 24.4319 18.5258 22.5132 18.4203 22.2607C18.4203 22.2736 16.7269 23.5222 16.5288 23.6611C15.9866 24.0362 15.4946 24.4743 14.9609 24.8743C14.3873 25.3016 13.8414 25.7651 13.3267 26.2618C12.9773 26.5701 12.6261 26.8784 12.2753 27.1872C11.871 27.5901 11.5784 28.086 11.1431 28.4535V28.4926H11.1045V28.4535C11.0477 28.4535 11.0777 28.3251 11.073 28.2588L11.0763 27.4049C11.0424 27.0202 11.0267 26.5329 11.0868 26.1635C11.1412 25.6256 11.1947 25.0872 11.2481 24.5488C11.3288 24.0467 11.4963 23.5494 11.6242 23.0649C11.8424 22.2325 12.0614 21.424 12.3564 20.6393C12.4519 20.383 13.0408 18.9531 12.9234 18.7765C12.586 19.0557 12.2438 19.3416 11.9268 19.68C11.7359 19.8819 11.5861 20.1239 11.4295 20.3477C10.7656 21.2923 10.147 22.2077 9.68788 23.2554C9.52226 23.6486 9.35521 24.0415 9.18959 24.4352C8.98961 25.1235 8.9099 25.8833 8.85215 26.6331C8.78772 27.4474 8.67937 28.3661 8.72376 29.2253C8.78104 30.3636 9.14282 31.3807 9.24687 32.4789Z" fill="#4098DD"/>
<path fill-rule="evenodd" clip-rule="evenodd" d="M6.63452 39.4361C6.84977 40.1182 7.08317 40.7802 7.33374 41.4465C7.48123 41.8421 7.65544 42.234 7.73753 42.6559H7.77619L8.03727 42.1481C8.4148 41.3099 8.91547 40.5162 9.42092 39.7387C9.96789 38.8906 10.5134 38.0415 11.0604 37.1934C11.4561 36.4641 11.8513 35.7333 12.2469 35.0031L13.0598 33.472C13.1361 33.271 13.2111 33.0691 13.286 32.8682L14.3709 29.8384C14.3818 29.773 14.3895 29.7028 14.3566 29.6503V29.6895C14.1594 29.8661 13.9609 30.0417 13.7628 30.2169C13.3695 30.5629 12.9801 30.9061 12.6488 31.3103C11.5477 32.6458 10.2924 33.9149 9.26533 35.2866C9.02334 35.6069 8.7909 35.9219 8.55655 36.2359C8.38139 36.4684 8.15516 36.7008 8.04729 36.9666H7.96997V36.928C7.91794 36.928 7.93608 36.7237 7.93608 36.6559C7.92272 35.8078 7.98667 34.9745 7.92128 34.1411C7.85351 33.3006 7.78001 32.4429 7.6731 31.6229L7.64398 31.0846C7.53468 30.3467 7.44209 29.6169 7.41775 28.8346C7.42156 27.9588 7.42395 27.0816 7.42634 26.2062C7.42634 25.9003 7.47693 25.5046 7.38863 25.2383C6.78486 26.1141 6.25269 27.0348 5.97204 28.0691C5.84604 28.6881 5.71908 29.3067 5.59355 29.9248L5.52101 30.9275C5.48855 31.264 5.45466 31.5986 5.42078 31.9351C5.39643 32.4224 5.48235 32.9016 5.52101 33.3674C5.69378 35.5061 6.02693 37.5227 6.63452 39.4361ZM81.9376 33.9091C81.751 33.6843 81.5658 33.4591 81.3782 33.2343C81.0269 32.799 80.6742 32.3623 80.3229 31.9255L79.3197 30.9543C78.9537 30.5824 78.5678 30.2308 78.1637 29.9009C78.0248 29.7859 77.9131 29.6589 77.7608 29.573V29.5339C77.6778 29.5339 77.7933 29.814 77.8148 29.8746L78.9016 32.9312C79.1736 33.6366 79.554 34.2619 79.9039 34.9258C80.7291 36.4937 81.6312 38.0043 82.539 39.5321C82.9547 40.2299 83.4086 40.9181 83.8171 41.6226C83.9794 41.9285 84.1398 42.2335 84.3021 42.539C84.3021 42.5972 84.3254 42.5781 84.3794 42.5781C84.397 42.4993 84.4118 42.4206 84.429 42.3423C84.4476 42.1595 84.4348 41.9758 84.419 41.8039H84.4572C84.4844 41.8813 84.5092 41.9591 84.5345 42.0364H84.5736V41.9972C84.6238 41.9972 84.6634 41.7457 84.6834 41.6851C84.8586 41.2064 85.0328 40.7257 85.2075 40.2456C85.4366 39.6032 85.6132 38.9164 85.7726 38.2415C85.9077 37.6983 86.0418 37.1542 86.1764 36.6111C86.2408 36.1753 86.3033 35.7391 86.3673 35.3023C86.4923 34.5353 86.5902 33.7612 86.6284 32.9398C86.6589 32.5661 86.688 32.1909 86.7171 31.8172L86.5324 29.6904C86.4642 29.405 86.3964 29.1181 86.3291 28.8327C86.2694 28.564 86.2088 28.2943 86.1501 28.0261C86.0298 27.6767 85.8389 27.3498 85.7024 27.0133C85.5373 26.6105 85.3335 26.2296 85.1178 25.8535L84.7665 25.3142V27.8691C84.7665 28.4571 84.7937 29.0604 84.7135 29.6083L84.4052 31.9308C84.2653 32.7851 84.0725 33.6533 84.0023 34.5268C84.0004 35.2756 83.9966 36.023 83.9928 36.7719H83.9155C83.9155 36.7161 83.2072 35.7992 83.1174 35.6761C82.7232 35.0876 82.3309 34.4986 81.9376 33.9091Z" fill="#4098DD"/>
<path fill-rule="evenodd" clip-rule="evenodd" d="M3.61483 42.2649C3.7332 42.7064 3.85061 43.1479 3.96946 43.5894C4.13985 44.3005 4.37706 44.9659 4.5947 45.6393C4.68539 45.9224 4.75841 46.2159 4.88871 46.4813C5.05815 46.8282 5.2672 47.1571 5.44857 47.4984C5.75451 48.0754 6.05091 48.6515 6.43083 49.1922L7.85314 51.173C7.95147 51.173 8.00444 51.0947 8.04311 51.0164L9.33035 48.1556L9.72936 47.2506C10.1833 46.0522 10.6353 44.8523 11.0877 43.6519C11.2295 43.1937 11.3698 42.735 11.5101 42.2768C11.7158 41.6258 11.9201 40.9738 12.1258 40.3233L12.2709 38.9029C12.2986 38.5416 12.3859 37.8457 12.2661 37.5097C12.2661 37.6185 11.9435 38.0142 11.8709 38.123C11.4324 38.7779 11.0204 39.4502 10.6357 40.1381C10.3985 40.5533 10.2219 40.9829 9.99951 41.4072C9.26782 42.7956 8.70367 44.1979 8.30323 45.751C8.19822 46.1562 8.03499 46.5619 8.00826 46.9934H7.9696V47.0316H7.89228C7.60543 46.2335 7.31763 45.4341 7.03126 44.6356L6.66327 43.3498C6.36353 42.5694 6.03659 41.8258 5.77169 41.0287C5.59271 40.4732 5.41277 39.9171 5.23236 39.3616L4.70257 38.0805L4.41095 37.3135L4.08305 36.6472C3.9413 36.2807 3.80002 35.8454 3.5566 35.5352C3.49503 36.4 3.43203 37.2639 3.37046 38.1287C3.36951 38.7478 3.36664 39.3663 3.36426 39.9854C3.37046 40.3858 3.44301 40.7657 3.47356 41.148C3.50219 41.5237 3.5251 41.9179 3.61483 42.2649ZM85.4405 43.1274C85.1469 44.038 84.8782 44.9515 84.5513 45.8393C84.4496 46.1123 84.3695 46.4927 84.1857 46.7223V46.7614H84.1093C83.9986 46.3467 83.8893 45.93 83.7786 45.5143C83.4745 44.4666 83.181 43.4433 82.7338 42.473C82.4598 41.9275 82.184 41.381 81.9081 40.8349C81.5792 40.1491 81.2418 39.4437 80.8351 38.8003C80.5096 38.2862 79.9775 37.893 79.6968 37.3546H79.6586V37.3159C79.5904 37.3159 79.5999 37.3756 79.5923 37.4333C79.4887 38.2337 79.6901 38.9573 79.8395 39.6408C79.9364 40.0517 80.0314 40.4631 80.1278 40.8746L80.8409 43.5793C81.0098 44.0099 81.1764 44.4394 81.3435 44.8704C81.8112 46.1414 82.3119 47.3933 82.8507 48.6276C83.0598 49.0911 83.2674 49.554 83.4769 50.0175C83.6039 50.3458 83.7342 50.7444 83.9552 51.0198C83.9552 51.0699 83.9413 51.058 83.9933 51.058C84.5752 50.2461 85.156 49.4333 85.7374 48.6205C85.8419 48.4405 85.9445 48.2587 86.0466 48.0787C87.005 46.465 87.8307 44.711 88.2971 42.8529C88.3772 42.5288 88.5023 42.2176 88.5505 41.8816C88.7276 40.6612 88.7156 39.3487 88.7156 38.0524C88.7156 37.4534 88.6627 36.884 88.6082 36.3093C88.5829 36.0587 88.6183 35.7876 88.5214 35.5748C88.3853 35.8678 88.2474 36.159 88.1104 36.4515C87.5873 37.5235 87.2499 38.67 86.7941 39.783C86.5359 40.4469 86.2757 41.1094 86.0166 41.7723C85.8252 42.2248 85.6333 42.6763 85.4405 43.1274Z" fill="#4098DD"/>
<path fill-rule="evenodd" clip-rule="evenodd" d="M89.1797 46.2968C89.1797 46.4356 88.8256 46.8347 88.732 46.9669L87.2248 49.0598C86.3298 50.2988 85.5972 51.6577 84.634 52.8642C83.6337 54.0828 82.6318 55.2994 81.6314 56.5155H81.5933V56.5546H81.5541V56.5155H81.5159C81.5288 56.3747 81.5412 56.232 81.5532 56.0902C81.567 55.4841 81.5804 54.8765 81.5952 54.2708C81.6061 54.078 81.6157 53.8837 81.6267 53.6899C81.5818 52.3375 81.4321 50.9905 81.179 49.6612C81.1293 49.3414 81.0783 49.0225 81.0281 48.7028C80.821 48.0799 80.6124 47.4575 80.4043 46.8347C80.3008 46.4485 80.1953 46.0615 80.0903 45.6744C80.0382 45.4615 80.0044 45.1999 79.8889 45.0195C79.8779 45.3985 79.7734 45.7154 79.7089 46.0677C79.5662 46.8805 79.4216 47.6923 79.2794 48.5052C79.2087 49.0517 79.1973 49.6153 79.1892 50.2053L79.1023 52.6475C79.0865 53.153 79.1553 53.6522 79.2168 54.1176C79.2841 54.6407 79.3037 55.1552 79.3715 55.665C79.5066 56.7007 79.5338 57.7216 79.6707 58.7578C79.7442 59.4308 79.8173 60.1018 79.8889 60.7734H79.9662C79.9729 60.7557 79.9791 60.7361 79.9848 60.7166L81.4119 59.5811C81.9488 59.1391 82.4858 58.6962 83.0227 58.2547C83.3516 57.9516 83.6799 57.6471 84.0088 57.3431L85.203 56.2563C85.5461 55.8377 85.8898 55.4182 86.233 55.0006C86.9069 54.1811 87.4887 53.3291 87.9708 52.407C88.0705 52.1536 88.1703 51.9001 88.271 51.6472C88.3941 51.3479 88.5163 51.0477 88.6385 50.7475C88.7468 50.4296 88.8165 50.1108 88.9034 49.7781C88.974 49.4994 89.0471 49.254 89.0881 48.9643C89.1339 48.6293 89.301 46.4461 89.1797 46.2968ZM6.89826 56.5045C7.24429 56.8615 7.60799 57.1842 7.95784 57.5335C8.31676 57.8963 8.67472 58.259 9.03269 58.6222C9.64743 59.0919 10.2617 59.562 10.876 60.0326C11.2378 60.3104 11.579 60.6058 11.9565 60.8512C11.9565 60.9089 11.9795 60.8903 12.0339 60.8903C12.1475 59.3281 12.2601 57.7655 12.3723 56.2043C12.5479 54.1572 12.5756 52.071 12.5756 49.8969C12.5756 48.7495 12.3723 47.7797 12.2716 46.722C12.2381 46.3779 12.1909 45.4276 12.0334 45.2133C12.0043 45.6634 11.8014 46.071 11.6993 46.4944C11.5132 47.2633 11.2239 47.9811 11.0416 48.739C10.9266 49.2135 10.8917 49.7065 10.8187 50.2034C10.627 51.5259 10.501 52.8571 10.4412 54.192C10.4035 54.8111 10.3653 55.4311 10.3266 56.0501C10.3156 56.2625 10.2708 56.4568 10.2913 56.6711H10.2526V56.7484C10.204 56.7484 10.203 56.7398 10.1753 56.7093C10.0097 56.7093 8.64513 54.4803 8.44181 54.1868L7.3302 52.5425L5.39576 49.9203C4.93852 49.254 4.48032 48.5873 4.02165 47.921L2.85898 46.3746H2.82032V46.3364C2.74538 46.3364 2.78882 46.7998 2.80027 46.8752L2.90766 48.6192C2.98307 49.4077 3.14535 50.4157 3.45606 51.0887L4.04265 52.5578C4.21113 52.9334 4.46266 53.258 4.67553 53.615C4.82635 53.8675 4.97765 54.1195 5.12896 54.371L6.05919 55.4822C6.33888 55.8229 6.61857 56.1623 6.89826 56.5045Z" fill="#4098DD"/>
<path fill-rule="evenodd" clip-rule="evenodd" d="M86.7804 57.1357C86.7293 57.1357 86.7307 57.1485 86.7069 57.1786L83.8952 59.8223C82.8136 60.7668 81.7307 61.71 80.6491 62.6555C79.6404 63.4166 78.6308 64.1766 77.6203 64.9355L75.9216 66.2957C75.6457 66.5062 75.4014 66.784 75.0892 66.9286V66.9677H75.0128L75.051 66.7358C75.0009 66.7487 74.9484 66.7611 74.8964 66.774V66.7358C75.1937 66.7358 75.9665 64.3384 76.0915 63.9456L76.8141 61.5825L77.2337 59.5383C77.3353 59.0677 77.4322 58.5828 77.5449 58.1065L77.6895 57.3261C77.71 56.6445 77.6394 55.942 77.6083 55.2771C77.5916 54.9191 77.5487 54.5679 77.5339 54.2314C77.5239 54.0347 77.5468 53.7865 77.49 53.6133C77.0294 54.4915 76.5669 55.3697 76.1049 56.2479C75.6071 57.4898 75.1073 58.7293 74.6076 59.9693L74.1743 61.5792C73.9022 62.5376 73.6287 63.496 73.3567 64.4529C73.2822 64.7856 73.2058 65.1168 73.13 65.4505C72.8884 66.3678 72.7963 67.3095 72.6379 68.2817C72.5481 68.8263 72.4364 69.3847 72.4188 69.9484C73.3256 69.5971 74.2339 69.2425 75.1408 68.8903C75.5846 68.7199 76.029 68.548 76.4729 68.3757C77.0948 68.0469 77.7162 67.7166 78.3381 67.3868C78.7615 67.163 79.1834 66.9386 79.6048 66.7138C79.9365 66.4566 80.2687 66.1993 80.5995 65.9411C81.3359 65.3884 82.039 64.8367 82.7268 64.1923C83.1912 63.7298 83.6532 63.2669 84.1176 62.8034L85.1132 61.1601C85.4449 60.5664 85.7771 59.9707 86.1098 59.377C86.273 58.851 86.4353 58.3236 86.5971 57.7967C86.6577 57.5886 86.8181 57.3352 86.7799 57.0975L86.7804 57.1357ZM13.3798 67.4484C14.0933 67.8426 14.8169 68.2679 15.5691 68.6044C16.0578 68.791 16.5456 68.9752 17.0329 69.1618C17.4926 69.3408 17.9527 69.5188 18.4118 69.6969C18.7736 69.8458 19.1483 70.0252 19.544 70.1026L19.3588 68.5533C19.2051 67.1959 18.9874 65.9077 18.64 64.6472C18.4796 64.1561 18.3173 63.6635 18.155 63.1714C18.0339 62.7862 17.9121 62.4012 17.7899 62.0164C17.6434 61.6269 17.1814 59.7932 16.9456 59.6357L16.8731 59.6123C16.7786 59.6123 16.8793 59.4882 16.9117 59.4576C16.7461 59.0324 16.579 58.6057 16.4134 58.1785C16.0034 57.086 15.5352 56.0159 15.0646 54.9616C14.8942 54.5774 14.7224 54.1918 14.5506 53.8066H14.5119C14.5143 54.6323 14.5157 55.4575 14.5167 56.2827C14.5806 57.6568 14.7816 59.0338 15.0016 60.3497C15.1047 60.9726 15.1357 61.6112 15.2966 62.203L16.1557 64.9464C16.4373 65.712 16.832 66.3998 16.989 67.2388H16.9117V67.1997C15.9532 66.4422 14.9953 65.6839 14.038 64.925L11.3733 62.9065C10.8545 62.4722 10.3342 62.0369 9.81398 61.6026C9.28991 61.1682 8.71431 60.7563 8.22652 60.2824L6.45435 58.5336C6.08923 58.1804 5.75274 57.7356 5.33798 57.4449V57.4068H5.29932C5.39716 57.7423 5.49405 58.0788 5.59189 58.4153C5.67065 58.8085 5.67494 59.2405 5.82386 59.6027C6.43335 61.0904 7.45665 62.3724 8.61694 63.5699L9.72377 64.8247L11.1294 65.9397L12.357 66.9062C12.6987 67.089 13.0385 67.2689 13.3798 67.4484Z" fill="#4098DD"/>
<path fill-rule="evenodd" clip-rule="evenodd" d="M79.8134 69.1745C79.8134 69.2246 79.8243 69.2079 79.7752 69.2222C79.3408 69.3296 78.938 69.5391 78.5271 69.6966L76.8723 70.3391C74.977 71.1108 73.0521 71.8239 71.0561 72.401C70.0118 72.662 68.967 72.9202 67.9241 73.1794C67.6163 73.252 66.8808 73.3555 66.6526 73.5092C66.3252 73.5092 65.3048 73.8791 65.1043 73.7412C65.1778 73.7412 67.086 71.9466 67.2502 71.7423C67.665 71.2808 68.0778 70.8192 68.4921 70.3582L68.9928 69.6107C69.3421 69.0786 69.6825 68.564 69.9874 68.0156C70.1674 67.6997 70.3464 67.3828 70.5272 67.0658L71.3539 64.4594C71.4723 64.1472 72.0426 61.4883 71.9171 61.316L71.2747 61.8352C70.6408 62.5092 70.1096 63.2623 69.5397 63.9754C69.0734 64.5563 68.6047 65.15 68.1804 65.7543L66.2469 68.3373C65.702 69.1129 65.1725 69.8992 64.6585 70.6956C64.0089 71.695 63.3665 72.6783 62.6458 73.6414C62.3895 73.9817 62.159 74.3621 61.8516 74.6705V74.7086H61.8134V74.7478C62.357 74.8466 62.8983 74.9444 63.4419 75.0442L65.0313 75.3014L66.2245 75.3759C66.6784 75.405 67.1304 75.4317 67.5848 75.4599L70.1335 75.279C70.4709 75.196 70.8074 75.1129 71.1449 75.0308L72.3352 74.7277C72.7958 74.5607 73.2468 74.3569 73.6988 74.1731C74.0091 74.0452 74.3608 73.9307 74.6496 73.7565C75.575 73.1952 76.4003 72.4936 77.2728 71.823C77.9787 71.2765 78.644 70.6698 79.211 69.9615C79.4182 69.7005 79.6773 69.4843 79.8515 69.2122C79.9055 69.2127 79.8372 69.1836 79.8134 69.1745ZM26.4703 75.3167C27.6664 75.1816 28.7832 74.8943 29.9564 74.7483C29.9564 74.7082 29.9406 74.6953 29.9177 74.67L29.4734 74.103C29.2252 73.787 28.976 73.4691 28.7283 73.1522C28.4596 72.7002 28.1914 72.2473 27.9227 71.7938L27.3833 70.888L25.8322 68.8118C24.7765 67.3045 23.6971 65.8141 22.5942 64.341C22.2038 63.8188 21.779 63.3268 21.381 62.8103C21.0268 62.3507 20.6044 61.7541 20.047 61.5479C20.047 61.9665 20.1133 62.3841 20.1534 62.7879C20.1835 63.1067 20.1897 63.4151 20.2565 63.7129C20.3739 64.246 20.6245 64.7553 20.7982 65.2751C21.0235 65.9323 21.2473 66.5876 21.4712 67.2448C21.6602 67.5832 21.8473 67.9226 22.0358 68.261C22.2473 68.6533 22.452 69.0972 22.757 69.4446C22.757 69.51 22.8319 69.4351 22.873 69.4065H22.9116V69.4838C22.8462 69.4838 22.8477 69.5453 22.8343 69.5993C22.8706 69.5993 23.1126 69.9835 23.1574 70.056C23.4562 70.5491 23.8591 70.9853 24.2523 71.4311C24.6151 71.8421 24.9816 72.273 25.4016 72.6429C25.6918 72.9078 25.982 73.1723 26.2722 73.4381C26.4598 73.6085 26.7065 73.7832 26.8216 74.0123C26.4479 74.0123 26.076 73.8648 25.7343 73.7875C24.9139 73.5999 24.0915 73.3866 23.2944 73.1742C22.379 72.9021 21.4631 72.6277 20.5472 72.3566C19.7911 72.1532 19.08 71.8774 18.3397 71.6621C17.3756 71.3815 16.443 71.0636 15.508 70.7367L12.4295 69.5807C12.3626 69.5535 12.0906 69.4117 12.0376 69.5053C12.0376 69.6255 12.3989 69.9768 12.4872 70.0775C12.8585 70.498 13.2165 70.939 13.6336 71.3304C14.078 71.6884 14.5204 72.0463 14.9634 72.4053C15.4502 72.7728 15.9299 73.0849 16.4368 73.4099C16.7537 73.6056 17.0706 73.8004 17.3875 73.9965C17.818 74.2175 18.3044 74.3282 18.7616 74.4963C21.0512 75.3334 23.7918 75.6179 26.4703 75.3167ZM73.233 76.7605C73.1547 76.7743 73.0774 76.7868 73.0001 76.7996L72.7299 76.8378C72.5471 76.8378 72.2966 76.8407 72.1491 76.9151C72.0717 76.929 71.9944 76.9414 71.9171 76.9543C71.7763 76.9543 71.6059 76.9395 71.4909 76.9925C71.3444 76.9925 71.1439 76.9719 71.0265 77.0316C70.8131 77.0316 70.3039 77.0316 70.1363 77.1089C69.9956 77.1089 69.8252 77.0951 69.7101 77.1481C68.8415 77.1481 67.99 77.024 67.1543 76.9591L65.1043 76.7887C64.3512 76.7037 63.6266 76.5118 62.894 76.3858C61.15 76.0847 59.4375 75.7119 57.7073 75.4193C56.9857 75.2971 56.1485 75.29 55.3882 75.29C55.0264 75.29 54.5901 75.3358 54.2656 75.2518C53.8589 75.3711 53.2132 75.1773 52.8337 75.3291C52.7096 75.3291 52.5455 75.3215 52.4462 75.3673C52.3221 75.3673 52.1598 75.3587 52.0591 75.4064C51.8987 75.4064 51.6816 75.3811 51.5556 75.4456C51.4324 75.4456 51.2682 75.4379 51.1685 75.4838C51.0453 75.4838 50.8802 75.4761 50.7814 75.5229C50.2941 75.5229 49.7867 75.6952 49.3428 75.8126C49.0932 75.878 48.7902 75.8918 48.5749 76.025C48.1453 76.025 47.7611 76.2746 47.4022 76.4316C47.1206 76.55 46.838 76.6693 46.555 76.7877C46.3665 76.8688 46.134 77.0168 45.9045 76.9824L45.2425 76.7681C44.8153 76.6173 44.3872 76.466 43.96 76.3142L41.2132 75.5444C40.8419 75.51 40.4691 75.4752 40.0978 75.4398L39.1299 75.3673C38.4803 75.3573 37.8555 75.4083 37.2322 75.4389L36.0709 75.4828C35.9077 75.4847 35.6624 75.4556 35.5302 75.5229C35.2304 75.5229 34.7212 75.4809 34.4849 75.6002L34.2143 75.6384L33.9045 75.6766C33.8148 75.6904 33.7246 75.7028 33.6334 75.7157C33.5437 75.7286 33.4535 75.741 33.3628 75.7549L33.053 75.793C32.9633 75.8059 32.8731 75.8193 32.7819 75.8312C32.6922 75.8451 32.602 75.8575 32.5113 75.8704C32.3839 75.8704 32.2259 75.8575 32.1242 75.9095L31.8918 75.9477C31.8021 75.9615 31.7119 75.9739 31.6212 75.9868L31.3501 76.025C31.2475 76.0379 31.1434 76.0503 31.0408 76.0641C30.5268 76.0641 29.9531 76.2928 29.4839 76.4297L28.7183 76.645C28.5732 76.645 28.409 76.6627 28.2926 76.7223C28.1513 76.7223 27.9795 76.7428 27.8668 76.7996C27.7313 76.7996 27.5862 76.8221 27.4798 76.877C27.3289 76.877 27.1351 76.8879 27.0154 76.9543L26.7834 76.9925C26.6092 76.9925 26.4264 76.9719 26.2799 77.0316C26.014 77.0316 25.6537 76.9796 25.4284 77.0698C25.1453 77.0698 24.7387 77.012 24.4991 77.1089C24.1932 77.1089 23.7531 77.0416 23.493 77.1481C22.3656 77.1481 21.3189 77.1199 20.2426 76.9791C19.6484 76.896 19.0532 76.8111 18.4595 76.7266C18.3736 76.719 18.1827 76.6708 18.1211 76.7424C18.1139 76.7825 18.1865 76.845 18.2132 76.8693C18.7067 77.1982 19.1988 77.5275 19.6914 77.8563C20.1114 78.1585 20.6216 78.3236 21.0913 78.5441C21.5328 78.7522 21.9766 79.0076 22.4511 79.1517C22.8372 79.2486 23.2214 79.3436 23.6061 79.4405C23.9049 79.513 24.2027 79.5841 24.5 79.6548C25.0785 79.7192 25.7171 79.6996 26.3195 79.6996C27.3308 79.6996 28.2596 79.5541 29.2228 79.4777C29.9206 79.4219 30.6862 79.4209 31.3443 79.2529C32.9218 78.8472 34.5245 78.4382 36.0714 77.9504C37.5725 77.4769 39.0215 76.9481 40.639 76.7061L41.4156 76.5758C41.7134 76.5973 42.0093 76.6178 42.3057 76.6402C42.9601 76.6794 43.6197 76.7352 44.2101 76.8918L45.3637 77.1853H45.441V77.2626C44.9742 77.5022 44.506 77.7409 44.0378 77.9785C41.9115 78.9851 39.8105 80.229 37.9195 81.7L36.8331 82.507C36.658 82.6431 36.4809 82.7781 36.3057 82.9146H36.2671V82.9528L37.5056 82.9519C37.697 82.9519 37.9448 82.9762 38.1042 82.908C38.2922 82.8268 38.466 82.5901 38.6187 82.4383C39.0821 81.973 39.5441 81.5062 40.0062 81.0408C40.2944 80.7611 40.5822 80.4805 40.87 80.1989C41.3297 79.8715 41.7893 79.5426 42.2494 79.2138C42.6689 78.8763 43.13 78.5479 43.5968 78.2907C43.9123 78.136 44.2268 77.9814 44.5423 77.8253C44.8196 77.6826 45.388 77.3442 45.6821 77.3022C45.9637 77.2593 46.5541 77.5838 46.8085 77.7012C47.322 77.938 47.9086 78.0826 48.3859 78.3799C48.8565 78.6725 49.2798 79.0634 49.7142 79.4109C50.6148 80.1316 51.4825 80.8585 52.3149 81.7711C52.7297 82.2269 53.2547 82.6111 53.6088 83.107C53.6726 83.0986 53.7363 83.0892 53.7998 83.0788C54.0021 83.0908 54.2303 83.16 54.4618 83.1647C54.9009 83.159 55.3381 83.1519 55.7762 83.1452V83.107C55.6139 83.107 55.4006 82.8478 55.2746 82.7557L53.2638 81.2818C52.617 80.7821 51.9317 80.3645 51.2606 79.9115L49.2254 78.5942C48.5964 78.2792 47.9668 77.9642 47.3378 77.6483C47.0123 77.4888 46.6109 77.3471 46.3321 77.1075H46.2925V77.0683C46.4233 77.034 46.5526 76.9977 46.6825 76.9619C47.1469 76.8717 47.6098 76.7791 48.0733 76.6889C49.2861 76.551 50.5771 76.5557 51.7889 76.6732L52.5598 76.7385L56.4377 77.9819C57.8834 78.3585 59.3277 78.7331 60.7725 79.1078C61.6048 79.2791 62.4969 79.3417 63.3622 79.4376C64.0194 79.5101 64.6647 79.6686 65.342 79.6686C65.9854 79.6118 66.6273 79.5541 67.2717 79.4954C67.559 79.4639 67.8096 79.3751 68.0854 79.3173C68.5871 79.1942 69.0887 79.071 69.5899 78.9493C69.9674 78.8019 70.344 78.6549 70.7196 78.5064C71.1458 78.348 71.6202 78.2325 72.0173 78.0086C72.6679 77.579 73.318 77.149 73.9685 76.7204V76.6813L73.6206 76.7204C73.4974 76.7223 73.3318 76.7152 73.233 76.7605ZM73.1323 40.9558C73.0669 40.4127 73.002 39.8695 72.9356 39.3264C72.6316 37.3289 72.2307 35.4012 71.5362 33.5937C71.4255 33.335 71.3124 33.0749 71.1997 32.8147C69.3178 28.1111 66.0336 23.8833 61.8263 20.7284C61.1614 20.2287 60.4727 19.7256 59.7577 19.3218C58.996 18.8899 58.2419 18.4436 57.4367 18.0804C56.4401 17.6308 55.424 17.2432 54.3902 16.8566C52.9231 16.3064 51.4015 15.9143 49.8512 15.6868C48.6073 15.5078 47.354 15.4009 46.0978 15.3665C45.7914 15.357 45.5594 15.2539 45.2458 15.2539L45.0139 15.3699C44.7227 15.3699 44.1586 15.3059 43.9299 15.409C43.6674 15.409 43.0035 15.3971 42.8069 15.4863C42.6823 15.4863 42.5215 15.4792 42.4198 15.525C42.3301 15.5384 42.2399 15.5503 42.1492 15.5641C42.0217 15.5641 41.8661 15.5556 41.7621 15.6028C41.6108 15.6028 41.4185 15.6133 41.2972 15.6801C41.1316 15.6801 40.9235 15.6863 40.7942 15.7574C40.7044 15.7708 40.6142 15.7827 40.5235 15.7961C40.4457 15.809 40.3684 15.8214 40.2911 15.8348C40.2138 15.8481 40.1365 15.8601 40.0587 15.8739C39.7938 15.8739 39.5546 15.9679 39.3213 16.02C38.7847 16.1361 38.2532 16.2745 37.7281 16.4347C35.5578 17.101 33.5489 17.9358 31.5882 19.0207C30.9945 19.3486 30.3759 19.6812 29.8161 20.0755C28.588 20.937 27.4244 21.84 26.2765 22.8781C26.1729 22.9712 26.0722 23.0413 25.9257 23.0041L25.8918 22.9955C25.8918 23.1058 25.7081 23.1611 25.7372 23.3826C25.6923 23.3826 24.197 25.0412 24.0533 25.2273L22.9575 26.6028C21.7031 28.3941 20.5457 30.1954 19.7157 32.1986C18.8938 34.1764 18.1287 36.3381 17.8066 38.5565C17.6395 39.7053 17.4414 40.8966 17.4224 42.1175C17.3641 45.7573 17.7889 48.8965 18.8241 51.9998C19.2348 53.2314 19.7273 54.4341 20.2985 55.6L20.8526 56.6796C21.2507 57.3096 21.5953 57.9697 22.0057 58.5926C22.8129 59.8241 23.7157 60.9902 24.7058 62.0801C25.1277 62.5426 25.5549 63.0084 26.0216 63.4327C26.203 63.6007 26.3834 63.7673 26.5638 63.9363C26.749 64.0995 26.9714 64.2503 27.1309 64.4527H27.17V64.4909H27.2087C27.222 64.4408 27.2344 64.3883 27.2478 64.3362H27.2865V64.3754C27.3413 64.3754 27.3232 64.3625 27.3289 64.4126C27.3385 64.4995 27.3471 64.5591 27.3919 64.6259C27.5189 64.8159 27.7585 64.9438 27.9351 65.0846C28.4186 65.4682 28.9147 65.8354 29.4228 66.1857C31.3195 67.503 33.6229 68.7091 35.8132 69.4594C37.8393 70.152 39.9322 70.6908 42.1893 70.9452C48.3639 71.6425 54.6531 70.1396 59.3516 67.2973C60.6202 66.5284 61.9385 65.7127 63.0797 64.7057C63.8338 64.0408 64.5635 63.3678 65.2704 62.6409C65.5186 62.3875 65.7654 62.1321 66.0135 61.8773C68.5231 58.9333 70.4805 55.7852 71.7095 52.1897C71.9424 51.5063 72.1968 50.798 72.3629 50.0868C73.0316 47.1968 73.3065 44.2109 73.1323 40.9558ZM65.259 24.3505C65.5926 24.5959 65.8742 24.9381 66.1276 25.265C66.4574 25.6884 66.8163 26.0802 67.1342 26.505C68.83 28.7669 70.1535 31.1547 71.1587 33.7674C71.6054 34.9296 71.8842 36.1591 72.1973 37.3914C72.3156 37.8606 72.9963 42.0608 72.7438 42.329C72.6106 42.4693 71.6837 42.4001 71.4508 42.3929L69.1679 42.4063C68.7393 42.3834 68.1938 42.3424 67.7743 42.4268C67.7743 42.3715 67.6998 42.3194 67.6845 42.2636C67.6659 42.1242 67.6454 41.9844 67.6258 41.845C67.4965 39.785 67.0936 37.8845 66.5018 36.0751C66.361 35.6618 66.2183 35.248 66.0746 34.8341C65.7109 34.0648 65.383 33.283 64.9979 32.5322C64.8571 32.2563 64.4872 31.8234 64.4872 31.5103C64.4872 31.2521 65.2327 30.7591 65.4126 30.5438C65.4637 30.5438 65.4518 30.5557 65.4518 30.5047C65.3978 30.5047 65.406 30.4913 65.3845 30.4588C65.1683 30.1262 64.8122 29.8527 64.5325 29.5649C63.8204 28.8332 63.1064 28.1015 62.3943 27.3694H62.3551C62.3551 27.1699 64.9277 24.6999 65.259 24.3505ZM61.6979 57.8322V57.7941C61.3714 57.6041 61.1376 57.2571 60.8727 56.9913L59.0046 55.0644C58.8638 54.9108 58.4146 54.5666 58.3979 54.3757C58.3999 54.3571 58.4008 54.3385 58.4037 54.3189C58.4652 54.0913 58.8146 53.7595 58.9678 53.5591C59.4334 52.9423 59.8648 52.3003 60.2598 51.6361C60.6794 50.9192 60.9815 50.1584 61.2984 49.3885C61.4655 48.9795 61.6526 48.5504 61.758 48.1123C61.8645 47.7004 61.9676 47.287 62.0712 46.8751C62.1308 46.5807 62.1886 46.2862 62.2482 45.9903L62.3246 45.291C62.3877 44.7373 62.4344 44.1818 62.4644 43.6253C62.474 43.3957 62.4439 43.1442 62.5007 42.9371C62.5146 42.8868 62.5457 42.8431 62.5885 42.8134V42.7748C63.7603 42.7748 65.0738 42.7165 66.267 42.7953C66.5763 42.8149 66.9662 42.7084 67.2325 42.8526C67.2812 42.8526 67.2707 42.8406 67.2688 42.8898C67.2239 43.8067 67.2435 44.6682 67.1457 45.5612C67.0545 46.1807 66.9629 46.7988 66.8727 47.4178C66.7524 48.2373 66.4579 49.0435 66.2446 49.8257C65.7038 51.8031 64.7287 53.6321 63.65 55.3408C63.3789 55.7694 63.0553 56.1536 62.7627 56.5722C62.5456 56.8805 62.0606 57.6246 61.7366 57.7945C61.7361 57.8442 61.748 57.8322 61.6979 57.8322ZM33.6434 49.0144C33.5165 48.4774 33.1065 48.0431 32.9791 47.4956C32.875 47.0537 33.0506 46.5587 32.9996 46.1048C32.9561 45.7192 32.6101 45.4094 32.487 45.0524C32.4478 44.9412 32.497 44.8214 32.475 44.7073C32.4197 44.4219 32.3576 44.1145 32.2292 43.863L31.2336 42.5805C31.414 42.5805 31.5243 42.3266 31.6727 42.2622C31.9209 42.1533 32.2703 42.1109 32.55 42.077V42.1548C32.475 42.1548 32.3977 42.255 32.3567 42.3099C32.2951 42.3099 32.3529 42.4464 32.3662 42.5008C32.4607 42.9156 32.5538 43.3294 32.6478 43.7432C32.6722 43.9923 32.6101 44.2233 32.6273 44.4773H33.5561L33.211 43.8167C33.1375 43.5967 33.326 43.3752 33.3222 43.1614C33.3136 42.7438 33.0416 42.3218 33.0139 41.8837H32.8974C32.8974 41.9467 32.8297 41.9347 32.7791 41.9395C32.6617 41.9481 32.6049 41.8536 32.5528 41.7644C32.4913 41.6455 32.4278 41.5257 32.3662 41.4073C32.3314 41.193 32.7896 40.9062 32.9356 40.8002C33.3146 40.8231 33.8625 40.8776 34.0501 41.2513C34.1222 41.3978 34.1236 41.5925 34.1427 41.7667C34.1599 41.9228 34.2334 42.1476 34.1441 42.2918C34.0291 42.4746 33.7255 42.5867 33.5551 42.697C33.559 42.7227 33.5613 42.7466 33.5652 42.7705C33.5976 42.8903 33.6716 43.0745 33.7852 43.1418C33.9269 43.2253 34.2606 43.0535 34.3221 43.2506C34.3937 43.7756 34.4634 44.2997 34.535 44.8233C34.7651 46.08 35.2333 47.4407 35.8962 48.4908C36.3148 49.1528 36.7721 49.7737 37.2651 50.4047C37.3004 50.4515 37.3405 50.5192 37.3367 50.5884C37.3262 50.7545 37.0804 50.912 36.973 51.0314C36.6017 51.4394 36.2036 51.8704 35.7836 52.2413C35.6099 52.4155 35.4342 52.5883 35.2586 52.7615C35.1779 52.7615 35.1245 52.6842 35.0796 52.6312L34.135 51.2905C33.9842 51.0715 33.7322 50.8796 33.6377 50.6295C33.5967 50.5211 33.621 50.3646 33.6267 50.2434C33.6449 49.8611 33.7279 49.3761 33.6434 49.0144ZM28.8968 57.921C28.5723 57.5387 28.2472 57.1554 27.9217 56.7736C27.1701 55.7703 26.4907 54.7149 25.8885 53.6154C25.6575 53.1949 25.3281 52.6551 25.2341 52.1816C25.3033 52.1816 25.3721 52.1339 25.4279 52.1043C25.4904 52.1239 25.5525 52.1415 25.6155 52.1602C25.6952 52.2227 25.7567 52.4838 25.8837 52.615C26.497 53.1763 27.1103 53.7357 27.7236 54.2955C28.4964 54.9781 29.5669 54.842 30.4867 55.2286C30.8336 55.3752 31.0747 55.8047 31.435 55.9054C31.6007 55.9164 31.7653 55.9259 31.9314 55.936C31.9314 56.0796 29.6925 58.3067 29.4151 58.4518V58.4136C29.2099 58.3105 29.0481 58.0914 28.8968 57.921ZM45.159 31.0598C45.0936 31.1881 44.854 31.1447 44.7428 31.2015C44.6263 31.2149 44.5103 31.2268 44.3943 31.2402L44.0851 31.2793L43.8531 31.318C43.4574 31.318 43.0789 31.4669 42.7234 31.5685C41.2471 31.9838 39.9145 32.6587 38.7165 33.6175C38.3514 33.9359 37.9863 34.2523 37.6207 34.5697V34.6084H37.582C37.3138 34.3931 37.0775 34.122 36.8365 33.8815L35.512 32.5341C35.2824 32.3007 35.051 32.0668 34.82 31.8334C34.5589 31.5881 34.2563 31.3423 34.0592 31.0473C34.0071 31.0473 34.0205 31.0593 34.0205 31.0087C34.0773 31.0087 34.094 30.9614 34.1303 30.9252C34.8853 30.1448 35.7836 29.5678 36.657 29.0031C36.8241 28.8981 36.9897 28.7926 37.1553 28.6872C38.7051 27.8643 40.3183 27.1956 42.111 26.8377C42.6203 26.7346 43.1634 26.6415 43.697 26.6005C43.9557 26.5737 44.2134 26.546 44.4712 26.5184H45.2067C45.2067 27.6882 45.2262 28.8337 45.2081 30.0021C45.2038 30.2832 45.2678 30.8412 45.159 31.0598ZM34.3145 31.9127C34.629 32.2272 34.9378 32.5575 35.2524 32.872C35.648 33.2677 36.0304 33.6572 36.4294 34.0562C36.595 34.2218 36.8188 34.3984 36.9238 34.6079C36.8732 34.6213 36.8212 34.6332 36.7692 34.6466C36.3 34.6466 35.6891 34.5659 35.2657 34.6719C34.9937 34.7396 34.6262 35.0408 34.3923 35.2036C34.1518 35.3649 33.9093 35.5257 33.6673 35.6866L32.6946 36.6421C32.3247 37.254 31.9534 37.8659 31.5816 38.4782C31.5162 38.4782 31.5429 38.5398 31.5429 38.5942C31.6326 38.5942 31.6904 38.7054 31.6904 38.7866C31.6904 39.0433 31.3563 39.4361 31.257 39.6882C31.1654 40.0098 31.0718 40.3306 30.9787 40.6523C30.8866 40.9425 30.5745 42.2426 30.4041 42.3676C30.2409 42.4846 28.9493 42.4268 28.6391 42.4268V42.3882C28.5656 42.3882 28.6042 42.1051 28.6138 42.0407C28.7417 41.0613 28.8324 40.143 29.0863 39.2443C29.3879 38.1761 29.7154 37.149 30.2017 36.1791C30.3363 35.8975 30.4695 35.6155 30.6022 35.3339C31.033 34.5935 31.5084 33.8801 32.0259 33.1975L32.487 32.5685L33.632 31.3561C33.9083 31.4316 34.1088 31.707 34.3145 31.9127ZM32.9175 31.5342C32.6827 31.8163 32.4058 32.0458 32.182 32.3389L31.2966 33.4634C30.8189 34.1979 30.3664 34.9258 29.9707 35.699L29.5302 36.6206C29.4891 36.6206 29.4567 36.7987 29.4385 36.8469L28.894 38.3708L28.6567 39.3612C28.399 40.2953 28.2143 41.3381 28.2143 42.3877H28.1756C28.1756 42.4521 27.7642 42.4264 27.6726 42.4264H23.376C23.376 38.6343 24.6571 35.2083 26.3009 32.2367C26.5848 31.7676 26.8679 31.2979 27.1514 30.8287C27.7123 30.0229 28.33 29.258 28.9999 28.5402C29.2939 28.228 29.5865 27.9144 29.8796 27.6013C30.2075 27.7221 30.6208 28.2342 30.8776 28.4991C31.3806 29.0179 31.9142 29.4971 32.4097 30.0255C32.6879 30.3219 33.2167 30.6751 33.3633 31.0464C33.3012 31.0464 32.9791 31.4578 32.9175 31.5342ZM28.1756 42.8139C28.1756 43.2544 27.3714 43.9899 27.0664 44.3355C26.7543 44.6873 26.8049 45.3144 26.6455 45.7468C26.5705 45.9463 26.266 46.0132 26.088 46.0752C25.7945 46.174 25.5047 46.3492 25.1931 46.3969C24.6547 46.4752 24.1053 46.3363 23.5698 46.3363C23.5698 46.1926 23.4791 45.9263 23.461 45.7545C23.4309 45.3163 23.3994 44.8777 23.3689 44.4396C23.3379 43.9365 23.2772 43.3074 23.376 42.8139H28.1756ZM34.4462 55.8195C34.778 55.8195 35.6414 55.8147 35.8967 55.6992C36.1039 55.6033 36.2342 55.347 36.3602 55.1733C36.4337 55.0707 36.5477 54.9618 36.5291 54.8191C36.4723 54.4044 35.4476 53.4703 35.5106 53.1233C35.5445 52.9314 35.9726 52.5716 36.1287 52.4298C36.626 51.922 37.1229 51.4127 37.6202 50.9039C37.6527 50.9149 37.6846 50.9273 37.7171 50.9393C37.9772 51.0643 38.1915 51.3502 38.413 51.5387C38.7733 51.8108 39.1327 52.0824 39.4921 52.3525C40.0849 52.7377 40.7135 53.0861 41.3698 53.3548L42.6141 53.8058C42.6503 53.8311 42.6852 53.8555 42.7219 53.8793C42.8117 54.0015 42.825 54.1924 42.8551 54.3466L43.1052 55.6563L43.1849 55.8343C43.3324 55.9565 43.4799 56.0777 43.6278 56.199C43.8817 56.4366 44.1299 56.6829 44.3838 56.9139C44.4855 56.9998 44.5872 57.0834 44.6888 57.1683C44.864 57.2533 45.1107 57.2447 45.3241 57.2523V59.9232H45.285C45.285 59.9905 45.0458 59.9605 44.9757 59.9605C44.0416 59.9605 43.1176 59.8726 42.2623 59.7003C39.9723 59.234 37.8374 58.4241 35.9707 57.1125C35.4409 56.7407 34.9693 56.3202 34.4467 55.936L34.4462 55.8195ZM44.6836 51.0552C44.4225 51.1884 44.191 51.5239 43.9944 51.743C43.7247 52.0375 43.4536 52.331 43.1835 52.625C43.0312 52.8627 43.0035 53.1825 42.846 53.4202V53.4584C42.5076 53.4584 42.1277 53.2431 41.8313 53.1295C40.8326 52.7466 39.8949 52.2204 39.0478 51.5674C38.686 51.2877 38.3791 50.9455 38.0078 50.6724V50.6333C38.0393 50.4591 41.3717 47.0818 41.6466 46.9558V46.9176C42.1535 47.3233 42.6193 47.7295 43.1963 47.9963C43.3911 48.0727 43.5844 48.1471 43.7782 48.224C44.0746 48.2984 44.8535 48.3695 45.0301 48.5996C45.1714 48.7843 45.0406 49.2501 44.9757 49.4339C44.4492 49.4339 44.1605 49.1972 44.128 49.8983C44.1204 50.0315 44.0889 50.2257 44.1676 50.3298C44.2755 50.4147 44.3829 50.4987 44.4903 50.5813L44.7046 50.8276C44.7046 50.8777 44.6912 50.8657 44.7437 50.8657C44.7437 50.6495 45.0931 50.5207 45.22 50.4099C45.4114 50.241 45.4596 49.9513 45.6229 49.7675C45.6964 49.6816 45.8009 49.6463 45.8973 49.61C46.367 49.4291 46.3884 49.7379 46.7631 49.8262C46.902 49.8281 47.0418 49.8281 47.1807 49.8291C47.2982 49.8525 47.4137 49.8759 47.5301 49.8983C47.5301 49.8004 47.6327 49.6988 47.6848 49.6272C47.8208 49.6272 47.9272 49.7995 47.994 49.8983C48.174 49.8825 48.3539 49.8658 48.5338 49.8506C48.7911 49.8663 48.9224 50.229 48.9615 50.4405C48.805 50.4405 48.1019 50.6624 47.9773 50.7464C47.9076 50.8237 47.8356 50.9001 47.7659 50.9755C47.7139 51.0037 47.6604 51.0314 47.6074 51.0595C47.3755 51.0595 46.7946 51.1082 46.6648 50.9579C46.6051 50.8366 46.5445 50.7154 46.4839 50.5942V50.556L45.8229 50.7378C45.4506 50.8237 45.0186 50.882 44.6836 51.0552ZM49.182 58.7233C49.2221 59.1429 49.2297 59.4541 48.836 59.5901C48.7233 59.6235 48.6093 59.6564 48.4976 59.6908C48.3448 59.6908 48.1535 59.7008 48.0332 59.7681L47.8003 59.8063C47.6976 59.8192 47.5941 59.8316 47.4919 59.8454L47.1435 59.8836L46.8333 59.9228C46.6319 59.9228 46.3393 59.8788 46.1761 59.9619L45.7885 59.9228C45.7088 59.9228 45.7193 59.7968 45.7174 59.728C45.7164 58.9162 45.7136 58.1033 45.7112 57.2905C45.767 57.2905 45.8248 57.2418 45.8658 57.2132C46.4343 57.218 47.0018 57.2218 47.5688 57.2251C47.784 57.2204 48.267 57.1683 48.4355 57.2848C48.6451 57.4284 48.7534 57.763 48.8608 57.9783C48.9749 58.2098 49.1558 58.4522 49.182 58.7233ZM45.7107 63.9482V60.3872H45.7494C45.7494 60.3175 46.0238 60.3432 46.0968 60.337C46.8099 60.2688 47.5435 60.2129 48.2274 60.0888C48.4966 60.0387 48.7944 60.0244 49.0393 59.9228H49.0784C49.0784 60.0507 50.2979 61.9445 50.4406 62.0381C50.7613 62.2476 51.1947 62.3421 51.5575 62.4724C52.072 62.6552 52.5875 62.8361 53.1029 63.0189C53.1674 63.0161 53.2299 63.0103 53.2938 63.0079C53.5773 62.9454 53.9277 62.871 54.1692 62.7206C54.6212 62.44 55.0297 61.9293 55.4369 61.5589C55.6989 61.3183 55.96 61.0768 56.221 60.8353C56.4234 60.5976 56.4979 60.0411 56.5838 59.728C56.7962 58.9682 57.0062 58.2074 57.2186 57.448L57.4033 56.7049C57.4248 56.3517 57.0582 55.9422 57.1775 55.6066C57.2324 55.4491 57.8672 54.8038 58.0195 54.7361V54.6969C58.3531 54.8506 58.7058 55.2897 58.964 55.5723C59.7854 56.4171 60.6054 57.2604 61.4268 58.1033C61.4268 58.3978 59.5138 60.0311 59.195 60.2884C57.2682 61.8276 55.151 63.0624 52.8624 63.8847C52.1932 64.1243 51.5193 64.352 50.8191 64.5281C50.5404 64.5964 49.9504 64.6632 49.7366 64.8002C49.5304 64.8002 49.2846 64.8307 49.1166 64.9157C49.0393 64.9285 48.962 64.941 48.8847 64.9548L48.6527 64.993C48.563 65.0059 48.4728 65.0183 48.3825 65.0321L48.0723 65.0703C47.9501 65.0703 47.784 65.0636 47.6852 65.1094L47.4141 65.1476C47.2351 65.1476 47.0228 65.1261 46.8724 65.1868C46.67 65.1868 46.3794 65.1419 46.2147 65.2249C46.0753 65.2249 45.9083 65.2307 45.7885 65.1868L45.7436 65.171C45.6358 64.8312 45.7107 64.3267 45.7107 63.9482ZM57.8495 32.8381C57.9364 32.9637 58.0371 33.125 58.1841 33.1875C58.4237 33.2873 58.6948 33.2176 58.8872 33.4281C59.0709 33.6299 59.205 33.8686 59.3549 34.0896C59.7449 34.6727 60.0929 35.2827 60.3964 35.9152C60.5429 36.2164 60.7281 36.5214 60.8092 36.8516C60.8464 37.0077 60.782 37.2263 60.73 37.3557V37.3948H60.8063C60.8063 37.3389 60.8493 37.3089 60.8837 37.2788V37.2397H60.961C60.961 37.2903 60.9481 37.2788 61.0001 37.2788L61.0755 37.5571C61.0961 37.7275 61.0412 37.9007 61.0001 38.0534H61.0774C61.0774 38.1222 61.192 38.0811 61.2349 38.126C61.2798 38.2067 61.3228 38.2868 61.3671 38.368C61.6468 39.3655 61.8864 40.3587 61.9724 41.4584C61.9929 41.7281 62.0592 42.0402 62.0067 42.3113C62.0731 42.3113 62.0234 42.3509 62.0067 42.3886C61.5619 42.3886 61.1213 42.4264 60.6522 42.4264C60.4302 42.4264 60.1114 42.3529 59.9157 42.4273C59.6303 42.4273 58.6161 42.4531 58.4466 42.3328C58.3125 42.2388 58.0328 41.5176 58.0008 41.3386C57.9507 41.0542 58.166 39.4166 58.3039 39.2643C58.5082 39.0343 58.9144 39.0004 59.1745 38.8553C59.3124 38.7765 59.3468 38.5928 59.4633 38.4902C59.6122 38.356 59.8446 38.4004 60.0078 38.2897L60.5739 37.6664C60.5739 37.6215 60.561 37.6134 60.5357 37.589V37.6277C60.3949 37.6277 60.2794 37.8019 60.1415 37.832C59.9 37.8831 59.6475 37.7971 59.4127 37.7823V37.7437H59.3745C59.3745 37.549 59.8341 37.1676 59.8293 36.8908C59.8255 36.7204 59.6141 36.5719 59.4995 36.4569C59.3411 36.2985 59.1315 36.0092 58.9282 35.9286C58.7764 35.8665 58.586 35.8885 58.407 35.8861C58.0023 35.8789 57.4944 35.9491 57.1422 35.815C56.9231 35.7314 56.7146 35.2546 56.5427 35.078C56.3313 34.8594 56.0001 34.6633 55.7366 34.5315V34.4924C55.6722 34.4924 55.6975 34.4685 55.6975 34.4151C55.9323 34.4151 56.1356 34.4647 56.3556 34.4924C56.3556 34.1368 55.8402 34.1951 55.6201 34.0667H55.582C55.582 33.902 57.4042 32.2802 57.6329 31.9761C57.7455 32.043 57.8343 32.1322 57.904 32.2472C57.955 32.2472 57.9431 32.2339 57.9431 32.2864C57.8725 32.2864 57.7708 32.4993 57.7111 32.557C57.7107 32.663 57.7947 32.7594 57.8495 32.8381ZM58.8705 30.8569C58.8872 30.6899 59.4212 30.1782 59.5687 30.0403C59.8379 30.0932 60.0236 30.2885 60.2379 30.4488L61.0254 31.0221L61.5624 31.5304C61.8292 31.7575 62.0268 32.0845 62.3251 32.2706C62.4735 32.3627 63.1594 32.4281 63.3422 32.358C63.524 32.2864 63.935 31.7652 64.1092 31.8654C64.2714 31.9585 64.5669 32.6019 64.6676 32.7933C65.5515 34.4714 66.1897 36.1982 66.6765 38.095C66.7901 38.5451 67.4473 42.0302 67.1695 42.3276C67.0044 42.5003 62.9756 42.4039 62.4711 42.3877V42.349C62.4048 42.349 62.431 42.2894 62.431 42.2331C62.4224 41.7405 62.3442 41.2685 62.2845 40.7993C62.179 39.9736 61.9666 39.2137 61.7728 38.4396C61.6908 38.1551 61.6068 37.8697 61.5247 37.5857C61.4817 37.0669 62.0907 36.7471 61.8903 36.1944V36.1171H61.8511V36.1558C61.8082 36.1558 61.4239 36.6564 61.3094 36.7361V36.7748H61.2712V36.5037C61.2201 36.5171 61.1676 36.5295 61.1166 36.5424C61.0459 36.3963 60.9748 36.2498 60.9051 36.1033C60.6498 35.6198 60.4875 35.0394 60.1491 34.6074V34.5688C60.2245 34.5688 60.2851 34.6461 60.3419 34.6852C60.3419 34.7353 60.329 34.7239 60.3801 34.7239C60.3801 34.7019 60.7204 34.3354 60.7677 34.259H60.8059C60.8011 34.2485 60.7955 34.2385 60.7892 34.2289C60.488 33.6944 60.2317 33.1598 59.8561 32.6577C59.7358 32.4983 59.6341 32.3188 59.4718 32.19C59.2843 32.0401 59.0241 32.031 58.8323 31.8983C58.7803 31.8983 58.7931 31.9103 58.7931 31.8597C58.8576 31.8597 58.9301 31.705 58.9635 31.6506C59.207 31.2497 58.8332 31.2063 58.8705 30.8569ZM57.4777 53.4975C57.4376 53.4975 57.4267 53.4818 57.4004 53.4584V53.5357C57.3427 53.5357 57.3073 53.3706 57.2653 53.3176C57.1021 53.1123 56.8009 52.8832 56.7255 52.6379C56.6883 52.5186 56.7041 52.3544 56.6921 52.2203C56.6668 51.9611 56.4497 50.8591 56.3136 50.7111C56.086 50.4667 55.4812 50.9206 55.2603 50.987L54.962 51.0204V50.9813H54.9238C54.9238 50.9292 54.9295 50.9311 54.9572 50.8992C55.1195 50.7006 55.6621 50.2897 55.7261 50.1088C55.8483 49.7618 55.5619 49.3107 55.6497 48.9351C55.7103 48.6674 55.9285 48.4139 56.0635 48.181C56.2325 47.8331 56.3991 47.4866 56.5661 47.1396C56.6993 46.7797 56.831 46.4208 56.9632 46.0614C57.0582 45.7225 57.1522 45.3827 57.2486 45.0428C57.2692 45.019 57.2887 44.9932 57.3093 44.9679C57.4558 44.8252 57.7407 44.7889 57.9383 44.734C58.4633 44.5889 59.4943 44.409 59.7625 43.8974C59.8427 43.8974 59.563 43.4726 59.5296 43.3943C59.4652 43.3943 59.4905 43.3699 59.4905 43.317C59.6647 43.317 59.9386 43.6167 60.0665 43.3981C60.0412 43.179 59.5033 43.0607 59.3368 43.201C59.1196 43.201 58.8399 43.0063 58.6776 42.8912H58.6395V42.8139C58.9282 42.8139 59.2723 42.844 59.5296 42.7753C60.0899 42.7924 60.6426 42.7753 61.2326 42.7753C61.485 42.7753 61.7294 42.8211 61.9681 42.7753V42.8139C62.0258 42.8139 62.0201 42.8435 62.0334 42.8941C62.1174 43.2167 62.0659 43.6401 62.0501 43.9752C62.0139 44.7021 61.9795 45.4147 61.8301 46.0967C61.5581 47.3357 61.2278 48.5103 60.7815 49.6549C60.319 50.8371 59.6236 51.9143 58.891 52.9725C58.6633 53.2971 58.4118 53.802 58.0586 54.0006C58.0586 54.1481 57.5288 53.5667 57.4777 53.4975ZM57.7488 54.3103V54.3877C57.7379 54.3877 57.114 55.0721 57.0525 55.1613C56.9427 55.1613 56.8811 55.0129 56.8444 54.9337C56.6019 54.4258 56.5862 53.9037 56.6644 53.3033C57.0954 53.5104 57.3613 54.0187 57.7488 54.3103ZM55.6096 45.7836L56.1652 45.2977C56.2941 45.2443 56.4205 45.1894 56.5494 45.1364H56.7422C56.7422 45.4567 56.61 45.7798 56.5193 46.0681C56.2826 46.8121 55.959 47.487 55.5815 48.1552H55.5423V48.1944H55.5032C55.4698 47.9996 55.434 47.8049 55.3996 47.6097C55.34 47.2789 55.3829 46.7539 54.8617 46.9553C54.7739 46.9878 54.7119 47.2603 54.5925 47.361C54.4312 47.4942 53.6165 47.6985 53.375 47.73V47.6908H53.3368C53.3368 47.5968 53.3836 47.5023 53.4289 47.4298C53.5659 47.2059 54.0207 47.2183 54.2475 47.0484C54.7014 46.6279 55.1557 46.206 55.6096 45.7836ZM45.6334 20.2859C45.6381 19.0994 45.642 17.9129 45.6453 16.7263C45.6816 16.4008 45.5728 16.0429 45.7107 15.7574C50.3733 15.7574 54.7815 17.0285 58.4433 19.0125C59.3745 19.517 60.2637 20.106 61.1562 20.7083C62.2625 21.4534 63.3049 22.3497 64.291 23.3043C64.4409 23.4494 64.8953 23.8026 64.9034 24.0035C64.9143 24.3057 62.42 26.5542 62.0845 26.9828C61.938 26.9828 60.1773 25.1925 60.1391 25.0015C60.1391 24.8755 60.1381 24.7486 60.1362 24.6216C60.1157 24.2007 60.1243 23.7606 60.1109 23.3434C60.1052 23.1764 60.1238 22.9864 60.0436 22.8571C59.8814 22.597 59.626 22.3707 59.3974 22.1564L58.6748 21.4481C58.4958 21.3198 58.2104 21.4238 58.0214 21.3221C57.7966 21.1637 57.5722 21.0038 57.3465 20.8453C57.1751 20.7556 57.0024 20.6663 56.8291 20.5771C56.7079 20.5079 56.5408 20.3957 56.3919 20.3881H56.3547C56.3427 20.3895 56.3303 20.3895 56.3184 20.3905C56.065 20.4158 55.8421 20.5332 55.6092 20.6143L53.4518 21.409C53.4518 21.714 53.4322 22.0075 53.4518 22.2996H53.4127V22.3383C53.1888 22.2576 52.9645 22.175 52.7407 22.093C52.0988 21.8559 51.4428 21.6587 50.7766 21.5026C49.1562 21.126 47.4805 20.8673 45.6716 20.8673V20.8286C45.6076 20.8277 45.6334 20.3766 45.6334 20.2859ZM45.6716 21.2534C46.1364 21.2715 46.5994 21.2883 47.0628 21.3054C47.6313 21.3708 48.1983 21.4348 48.7658 21.4987C50.1011 21.7144 51.4138 22.0516 52.6877 22.5063C52.9029 22.5827 53.3821 22.6924 53.5258 22.8728C53.7048 23.0967 53.7802 23.6628 53.8437 23.9615L54.405 26.211C54.4646 26.4601 54.4947 26.7241 54.614 26.9427C54.614 27.0482 54.8312 26.9479 54.877 26.9284L56.3843 26.2644C56.6181 26.1618 56.8859 25.969 57.1685 26.0139C57.1685 26.3026 57.5011 26.5475 57.4362 26.8558C57.367 27.1718 56.778 27.451 56.7494 27.7598C56.7308 27.9412 57.083 28.4662 57.2295 28.5788L59.259 29.7305V29.8078C59.2089 29.8078 58.7015 30.3462 58.6017 30.4274V30.466H58.5235C58.5235 30.3706 58.3789 30.1925 58.3306 30.1176V30.0789C58.2113 30.0789 58.0538 30.6946 57.9822 30.8144V30.8531H57.944V30.8144C57.861 30.8144 57.7737 30.6584 57.6691 30.634C57.4362 30.5796 57.1136 30.6741 56.8993 30.5787C56.6458 30.466 56.4621 30.2107 56.242 30.0369L55.0918 29.173L54.7104 28.7826C54.5434 28.6256 54.3396 28.4113 54.2441 28.2132C54.0752 27.8624 54.2823 27.2696 54.0465 26.9632C53.8947 26.7646 53.6551 26.6439 53.4666 26.4988L52.125 25.4478C51.9178 25.2817 51.6577 25.1342 51.4787 24.9314H51.4014C51.4014 25.3414 51.9775 27.0396 51.8104 27.2863C51.7422 27.3846 51.241 27.1765 51.1608 27.145C50.0206 26.6936 48.8259 26.3947 47.6074 26.2559L45.7117 26.0926C45.5995 26.0926 45.62 25.7657 45.6148 25.6655C45.5847 25.0913 45.6343 24.52 45.6343 23.9248C45.6334 23.0399 45.5895 22.0953 45.6716 21.2534ZM45.6296 27.8338C45.6224 27.4142 45.5556 26.9074 45.6716 26.5179C47.5969 26.5179 49.3347 26.9097 50.9771 27.4782C51.2802 27.5822 51.6639 27.6753 51.9188 27.8638C52.081 27.9846 52.1044 28.2123 52.2658 28.3636L53.2671 29.2585C53.6074 29.5778 53.9534 29.9577 54.3429 30.1944C54.3429 30.2574 54.3663 30.2331 54.4202 30.2331C54.4202 30.1572 54.6317 30.0154 54.6942 29.9658C54.8183 29.8665 54.9328 29.7105 55.1118 29.731C55.2684 29.7482 55.4268 29.9028 55.549 29.9906C55.9633 30.2951 56.3579 30.6255 56.7303 30.98C56.9408 31.1834 57.1517 31.3857 57.3622 31.5872V31.6258C57.3379 31.7289 55.002 34.1006 54.825 34.1745C54.687 34.2304 54.5333 34.1846 54.3811 34.1936C54.1687 34.207 53.8542 34.3993 53.7348 34.1163C53.542 33.6653 54.0351 33.4901 54.3043 33.3293H54.3424C54.3424 33.1923 54.1353 33.1622 54.0375 33.1923C53.8885 33.2371 53.7625 33.356 53.605 33.3875C53.5835 33.3841 53.5602 33.3789 53.5396 33.3756C53.3382 33.3116 53.1659 33.0586 53.0094 32.9207C52.6972 32.6448 52.1498 32.6424 51.7097 32.6716V32.5942H51.7489C51.8701 32.4114 52.0333 32.3752 52.1775 32.2458C52.2156 32.1952 52.2529 32.1432 52.2901 32.0912L51.894 32.0368C51.7775 32.0692 51.9369 32.4864 51.3627 32.4405C51.1742 32.4253 51.0067 32.304 50.8434 32.2267L49.8779 31.8048C48.583 31.3619 47.1903 31.0755 45.6716 31.1237C45.6716 30.9676 45.5981 30.8369 45.5981 30.6579C45.5985 29.709 45.6439 28.774 45.6296 27.8338ZM45.6124 35.0714C45.6124 34.2924 45.6086 33.5173 45.6086 32.7441C45.6086 32.3398 45.5928 31.9155 45.6329 31.5117C47.6265 31.5117 49.477 31.854 51.0134 32.7503V32.8281C50.9246 32.8281 50.7561 33.0615 50.7041 33.1374H50.6649V33.176C50.8506 33.176 51.105 32.9765 51.3231 32.9441V33.0214C51.2859 33.0214 50.9045 33.4534 50.8587 33.5249C50.8038 33.5249 50.9995 33.7774 51.0525 33.8347C51.0525 34.0452 50.4082 34.6418 50.2192 34.7225L49.7743 34.8026C49.6502 34.8026 49.4879 34.7902 49.3872 34.8413C49.0789 34.8413 48.9185 34.9659 48.6909 35.1119V35.1506C48.5735 35.1506 48.4346 35.0914 48.3425 35.0346H48.3033V34.9573C48.3511 34.9573 48.5821 34.5292 48.6126 34.4537C48.6789 34.4537 48.509 33.8428 48.4971 33.7187H48.4198C48.4198 33.7559 48.0451 34.1406 47.9936 34.2218H47.9554C47.9601 34.2328 47.964 34.2437 47.9673 34.2542C48.1229 34.6523 48.0542 34.5673 47.7611 34.7635L47.5292 34.8022C47.2347 34.8022 46.4405 34.9487 46.2133 35.0728H46.136C46.136 35.5119 45.9832 35.4298 45.6324 35.4985V35.4594C45.5627 35.4594 45.6124 35.1496 45.6124 35.0714ZM46.261 36.4101C46.4123 36.4827 46.5903 36.5395 46.7173 36.6593C46.9001 36.8306 48.2165 38.7613 48.2107 38.9021C48.2021 39.0763 47.9048 39.1727 47.8007 39.2915H47.7626C47.7683 39.3016 47.7735 39.3097 47.7783 39.3197C47.9659 39.6452 48.1325 39.986 48.2919 40.3225C48.3673 40.4819 48.5257 40.648 48.5296 40.8399C48.5315 40.9783 48.4016 41.1339 48.3038 41.2274C48.3038 41.5376 48.5677 41.7906 48.5386 42.1123C48.5181 42.3361 48.3549 42.5395 48.2666 42.738C48.0652 43.1819 47.8184 43.621 47.6848 44.0916C47.6848 44.1637 47.5683 44.263 47.5382 44.3274C47.4895 44.4252 47.4318 44.5885 47.3349 44.6539C47.248 44.7107 47.1039 44.7044 46.987 44.7073C46.534 44.7135 46.1718 44.661 45.9035 45.0199C45.8415 45.0199 45.8782 45.1078 45.8754 45.1717C45.8625 45.312 45.8477 45.4509 45.8343 45.5912C45.7498 45.9086 45.4945 46.3325 45.6711 46.6852C45.6711 46.7721 45.7751 46.7907 45.7875 46.8818C45.831 47.2312 45.63 47.5567 45.3231 47.6526V47.6908H45.284C45.284 47.5443 45.1632 47.4813 45.1088 47.3711C45.0291 47.2107 44.9647 46.837 45.0134 46.6456C45.0134 46.584 44.9809 46.5878 44.9361 46.5683V46.6074C44.8855 46.6074 44.8926 46.616 44.8769 46.6542C44.843 46.7587 44.8077 46.8623 44.7738 46.9663C44.6397 47.1983 44.475 47.1162 44.4325 47.4584C44.6115 47.4584 44.7074 47.2961 44.7423 47.1491H44.7809C44.8086 47.2293 44.8354 47.3076 44.863 47.3858C44.8921 47.5892 44.7953 47.8445 44.7036 48.0001V48.0393C44.5475 48.0058 44.3915 47.97 44.2354 47.9366C42.9458 47.6775 41.8198 46.7453 41.1774 45.6017C41.0891 45.4442 40.8591 45.1865 40.8848 44.987C40.8973 44.8806 41.0228 44.8309 41.1073 44.7985C41.5101 44.641 41.9893 44.5565 42.4188 44.4739C42.7873 44.4018 43.1395 44.2572 43.5424 44.2453C43.5424 44.4858 43.4044 44.7737 43.3104 44.9808V45.0586C43.5424 45.0586 43.8078 45.1555 44.0278 45.0863C44.1691 45.0405 44.3652 44.6061 44.433 44.4777C44.6244 44.4777 43.9252 44.1064 43.8913 44.0907C43.8913 43.8849 44.4306 43.2583 44.56 43.0516C44.6807 42.8554 44.7012 42.6893 44.7012 42.4259C44.7012 42.2326 44.7208 42.0135 44.6287 41.8675C44.5237 41.7018 44.2889 41.583 44.1337 41.4789L43.078 40.7229H43.0393C42.8384 40.9721 42.6365 41.2212 42.4341 41.4703C42.0232 42.004 41.6103 42.5361 41.1994 43.0697C40.9693 43.3828 40.6367 43.6807 40.5231 44.052H40.4453L40.3293 43.6267C40.2009 43.653 40.0715 43.6783 39.9422 43.7036C39.9422 43.9045 40.0544 44.1088 40.1174 44.2902C40.3002 44.8262 40.5603 45.3349 40.8529 45.8194C41.0137 46.07 41.1746 46.3191 41.3354 46.5678H41.3741C41.3693 46.5788 41.3636 46.5883 41.3583 46.5983C41.1903 46.9062 40.6701 47.3281 40.3966 47.603C39.7962 48.2034 39.1952 48.802 38.5953 49.4014C38.3084 49.684 38.0221 49.9646 37.7352 50.2453V50.2844C37.6207 50.2844 37.2513 49.8167 37.1754 49.715C35.7564 47.8235 34.7546 45.6428 34.7546 43.0454H34.7937V43.0067L35.9611 43.4134C36.2198 43.4993 36.5344 43.4425 36.8055 43.5117C37.1357 43.5952 37.3997 43.8926 37.697 44.0501C37.8097 44.1093 37.961 44.0897 38.0478 44.1976C38.2006 44.3866 38.3142 44.6744 38.3939 44.904C38.5877 44.904 39.1041 44.8395 39.2554 44.7445C39.4391 44.6271 39.5236 44.3007 39.6167 44.1212C39.7427 43.8821 39.8673 43.6411 39.9918 43.4019C40.166 43.2287 40.3393 43.0545 40.5135 42.8817C40.6285 42.7676 40.7493 42.6058 40.891 42.5462C41.0528 42.5199 41.2142 42.4917 41.375 42.4655C41.4103 42.361 41.4442 42.2564 41.4791 42.151C41.5697 41.845 41.7053 41.5839 41.7678 41.2665C41.786 40.5831 41.8027 39.8996 41.8198 39.2161C41.8733 38.9221 42.3935 38.3732 42.5988 38.1179C42.7463 37.9284 42.8928 37.7384 43.0393 37.548C43.2894 37.2712 43.6884 37.1962 44.002 37.0378C44.2282 36.9218 44.4339 36.6765 44.6167 36.4946C44.6988 36.4111 44.8258 36.329 44.8549 36.2211C44.9108 36.0035 44.7704 35.6976 44.6588 35.5401C44.5184 35.342 43.246 34.3187 43.0622 34.2729C42.8312 34.2146 42.1296 34.8351 41.9024 34.9721C41.6313 35.1315 41.301 35.1616 40.9913 35.2417C40.6467 35.3286 40.1517 35.5272 39.7876 35.5162C39.5193 35.5066 39.2516 35.416 39.0086 35.3592C38.8273 35.3157 38.6402 35.2976 38.4889 35.1997L38.0846 34.8403C38.0846 34.6456 38.5891 34.2633 38.7342 34.1325C39.8467 33.1202 41.2671 32.3871 42.6947 31.9876C43.0427 31.9017 43.3901 31.8148 43.7385 31.7275L44.7036 31.5499C44.8501 31.5533 45.0812 31.5242 45.1551 31.6592C45.2687 31.8673 45.2067 32.294 45.2067 32.5565C45.2042 33.4721 45.201 34.3877 45.1971 35.3033C45.18 35.5043 45.0654 35.6298 45.0516 35.8465C45.1389 35.8465 45.2138 35.92 45.2864 35.9562L46.261 36.4101ZM45.2258 22.8781C45.2258 23.9181 45.2391 25.054 45.2072 26.0917H45.1685C45.1685 26.1513 44.5404 26.1256 44.4325 26.1695C44.2201 26.1695 43.9576 26.1394 43.7748 26.2081C43.6851 26.2215 43.5949 26.2334 43.5037 26.2468C43.4011 26.2602 43.2971 26.2721 43.1944 26.2859C43.0913 26.2988 42.9873 26.3112 42.8847 26.3246C42.7816 26.338 42.6775 26.3499 42.5749 26.3637C42.448 26.3637 42.3234 26.3828 42.2265 26.441C41.9039 26.441 41.4752 26.5231 41.2199 26.673C40.7097 26.673 40.0066 26.9756 39.5594 27.1484C38.7065 27.4763 37.8717 27.8185 37.0809 28.2638C36.3707 28.6628 35.7383 29.1482 35.0643 29.6141C34.746 29.8326 34.4591 30.0722 34.1618 30.3362C34.031 30.4498 33.8869 30.5491 33.7876 30.6994C33.6983 30.6994 33.6306 30.6545 33.5699 30.6025C32.508 29.5382 31.4446 28.4724 30.3812 27.408C30.3535 27.3679 30.3244 27.3259 30.3339 27.2701C30.3774 27.0076 31.9367 25.8535 32.2149 25.6468C34.7536 23.7415 37.646 22.4242 40.7961 21.7312C41.573 21.5575 42.3612 21.4387 43.1548 21.3756C43.5553 21.336 43.9543 21.2949 44.3547 21.2548C44.5786 21.2897 45.0224 21.1651 45.1723 21.3575C45.2993 21.5188 45.2258 22.606 45.2258 22.8781ZM29.7483 20.6148C31.8608 19.0884 34.2496 17.9897 36.7219 17.1664C37.6822 16.8461 38.6865 16.5249 39.7112 16.3412C40.5479 16.1899 41.3998 16.0157 42.2656 15.9202L43.9691 15.757H45.2463V20.8277H45.2076C45.2076 20.9064 44.4903 20.8544 44.3562 20.905C44.2053 20.905 44.0178 20.8869 43.8918 20.9436C43.6846 20.9436 43.4054 20.905 43.2336 20.9828L42.9625 21.0214C42.8465 21.0348 42.7305 21.0467 42.6145 21.0606C42.5119 21.0739 42.4074 21.0859 42.3048 21.0992L41.9568 21.1379C41.7702 21.1379 41.5196 21.1694 41.376 21.2544C41.0519 21.2544 40.7407 21.3546 40.451 21.4248C40.0663 21.5154 39.6878 21.599 39.3213 21.7068C36.4571 22.5449 33.8038 23.8417 31.4708 25.7094C31.0847 26.0167 30.7086 26.3179 30.3325 26.6616C30.2332 26.7556 30.1344 26.8506 30.0347 26.9446C29.7664 26.9446 29.1989 26.2458 28.998 26.0449C28.1308 25.1829 27.2635 24.3224 26.3958 23.4609C26.3949 23.0198 29.2968 20.9403 29.7483 20.6148ZM18.0925 39.1789L18.292 38.1661C18.4843 36.9891 18.7979 35.8775 19.1702 34.7912C20.2107 31.7466 21.5714 29.1167 23.5116 26.5317C24.2643 25.5266 25.1601 24.6445 26.0083 23.6914C26.423 23.9878 26.75 24.3858 27.1151 24.751L28.6801 26.3222C28.9574 26.599 29.3942 26.9031 29.5693 27.2524C29.6762 27.2524 29.324 27.6056 29.2782 27.6624C28.8873 28.133 28.4191 28.532 28.0396 29.0089C27.4774 29.7119 26.9953 30.4421 26.4856 31.1705C26.1925 31.5852 25.9773 32.0363 25.7186 32.4658C24.5139 34.4547 23.7445 36.8822 23.3102 39.2533C23.1806 39.9572 23.0882 40.6675 23.0333 41.3811C23.009 41.6894 23.0295 42.0569 22.9508 42.3486C22.9508 42.4564 22.5532 42.4235 22.4477 42.4259H17.8414C17.8405 41.3381 17.8949 40.2179 18.0925 39.1789ZM22.3103 58.3468C21.4927 57.0519 20.7147 55.7403 20.1038 54.3366C18.6098 50.9097 17.6701 47.0403 17.8018 42.8526H17.8405C17.8405 42.8005 17.8271 42.8134 17.8791 42.8134C18.2371 42.8134 18.7234 42.8803 19.0408 42.7748C19.4398 42.8511 19.9238 42.8134 20.3567 42.8134H22.9503C22.9503 43.6468 22.9708 44.4467 23.0338 45.2505C23.0601 45.5932 23.2238 46.0561 23.1078 46.4012C23.0314 46.6231 22.3857 46.8775 22.1785 46.9997C21.454 47.425 21.3886 47.845 21.1528 48.5752C21.0913 48.7619 20.9581 49.0339 20.9758 49.2425C21.0411 49.6553 21.1051 50.0668 21.1695 50.4777H21.2082V50.5159C21.3958 50.5159 21.6244 50.157 21.9399 50.1961C22.2415 50.2968 22.5413 50.3956 22.841 50.4954C23.1169 50.6009 23.4557 50.6529 23.7025 50.818L24.1292 51.3139L24.543 51.7015L25.0594 52.8284C25.2551 53.2145 25.4503 53.6001 25.6451 53.9863C26.067 54.7891 26.5958 55.5522 27.1089 56.3102C27.4707 56.8411 27.8696 57.3457 28.3026 57.8203L29.0042 58.6202C29.042 58.6685 29.0598 58.7296 29.0538 58.7906C29.0238 59.0002 28.3475 59.57 28.1718 59.7247C27.3098 60.5905 26.4459 61.4558 25.5821 62.3216C25.0962 62.3226 22.6296 58.8532 22.3103 58.3468ZM45.2353 70.6498C45.1575 70.7653 44.8105 70.719 44.6654 70.7204C43.0069 70.7467 41.4161 70.4918 39.9031 70.2197C38.749 70.0117 37.6407 69.6427 36.562 69.311C35.628 69.0237 34.745 68.6332 33.8635 68.2466C31.5388 67.2209 29.3777 65.8586 27.4497 64.2035C27.043 63.836 26.6359 63.47 26.2293 63.1034C26.0598 62.9344 25.8894 62.7932 25.7758 62.5937C25.8279 62.5937 25.8193 62.5851 25.8546 62.5574C27.0287 61.3957 28.2024 60.2335 29.3755 59.0708C29.8037 59.2851 30.1845 59.7347 30.5487 60.0664C31.0788 60.5498 31.6444 60.9929 32.2407 61.3918C33.2812 62.0853 34.303 62.7893 35.4271 63.3086C36.4266 63.7664 37.4457 64.1804 38.4812 64.5496C39.8191 65.0297 41.4614 65.3419 42.9615 65.4874C43.362 65.5147 43.7615 65.5423 44.1619 65.5705C44.4039 65.5781 45.0778 65.539 45.2363 65.6702C45.3184 65.7375 45.2988 65.864 45.3112 65.9686C45.316 66.2893 45.3193 66.6091 45.3231 66.9289L45.3036 69.0953C45.304 69.416 45.3838 70.4216 45.2353 70.6498ZM45.2845 65.1481C45.2845 65.2536 44.9155 65.2206 44.821 65.2163C44.4511 65.1939 44.0951 65.2116 43.7362 65.1772C42.7405 65.0822 41.7731 64.9739 40.8352 64.7868C38.1218 64.2441 35.6137 63.1554 33.3475 61.6854C32.549 61.167 31.7558 60.6191 31.026 59.9748C30.7239 59.708 29.9774 59.1758 29.8213 58.8293C29.7741 58.7267 29.848 58.6355 29.912 58.5634C30.4251 57.9778 31.0241 57.4786 31.572 56.9321L32.57 55.9689C32.7309 55.8692 32.9824 55.9083 33.1685 55.8591C33.3671 55.8711 33.61 55.8248 33.7866 55.9011C34.0176 55.9999 34.2415 56.2395 34.4262 56.4204C34.5789 56.5378 34.7312 56.6533 34.8834 56.7707C35.5892 57.3031 36.326 57.793 37.0899 58.2379C39.3795 59.5634 42.3239 60.3485 45.2835 60.3485V60.3876C45.348 60.3876 45.3227 60.7986 45.3227 60.8912V63.9487C45.3236 64.2794 45.3852 64.8703 45.2845 65.1481ZM64.5521 62.8156C64.0497 63.3199 63.532 63.8089 63 64.2818C60.5772 66.4196 57.6391 67.9884 54.6837 69.0781C53.8231 69.394 52.9211 69.7 52.0166 69.8976C51.514 70.0179 51.0124 70.1381 50.5103 70.2575C50.3647 70.2575 50.201 70.2761 50.085 70.3348C49.9953 70.3486 49.9041 70.361 49.8139 70.3739C49.6731 70.3739 49.4989 70.3944 49.3877 70.4512L49.0784 70.4894C48.9749 70.5033 48.8713 70.5157 48.7682 70.5286L48.4599 70.5667C48.3434 70.5806 48.227 70.593 48.1115 70.6059C47.9687 70.6059 47.8012 70.5911 47.6852 70.645C47.5387 70.645 47.3373 70.6245 47.2208 70.6832C47.0614 70.6832 46.8442 70.6579 46.7173 70.7223C46.5235 70.7223 45.84 70.7624 45.7455 70.6507C45.5885 70.4651 45.6911 68.8227 45.6911 68.4757C45.6911 67.5288 45.6501 66.5461 45.7107 65.612H45.7494C45.7494 65.5457 46.2305 65.5729 46.3302 65.571C47.8404 65.5476 49.3395 65.2922 50.7088 64.9324C52.3922 64.4885 53.9434 63.8828 55.466 63.1359C55.9141 62.9158 56.3881 62.6848 56.8057 62.4152C57.3594 62.0543 57.9316 61.6825 58.4791 61.3059C58.7263 61.1169 58.9731 60.9246 59.2203 60.7356C59.6079 60.4587 59.9735 60.1261 60.3353 59.7977C60.7882 59.3848 61.2789 58.9691 61.6588 58.4899C62.0263 58.5787 62.7465 59.5051 63.041 59.8192C63.6815 60.5036 64.3702 61.1465 64.9921 61.8534C65.0647 61.9355 65.1477 62.0295 65.1291 62.1555C65.0976 62.3479 64.6967 62.6705 64.5521 62.8156ZM72.8235 43.3194C72.7686 43.9265 72.8135 44.5388 72.7581 45.135C72.6605 46.1468 72.5225 47.1544 72.3443 48.1552C71.6732 51.9353 70.228 55.4057 68.1504 58.4842C67.6204 59.2719 67.0477 60.03 66.435 60.7551C66.1462 61.0983 65.857 61.4396 65.5682 61.7813C65.5448 61.7765 65.5205 61.7703 65.4976 61.7646C65.3773 61.6964 65.2943 61.5837 65.2031 61.4821C64.9831 61.251 64.7631 61.0186 64.5421 60.7876C64.0256 60.2487 63.5083 59.708 62.9899 59.1682C62.7002 58.8961 62.4196 58.6245 62.1752 58.3191C62.1241 58.2556 62.0802 58.1988 62.0893 58.11C62.1108 57.8957 62.6143 57.4203 62.768 57.2366C63.0763 56.8228 63.3832 56.409 63.6911 55.9947C64.4256 54.906 65.0857 53.7815 65.6198 52.5883C66.2928 51.0839 66.854 49.5093 67.1877 47.8436C67.317 47.1911 67.3991 46.5191 67.5213 45.86C67.6377 45.2285 67.6473 44.5646 67.6583 43.8978C67.6621 43.6353 67.6172 43.0487 67.6965 42.853C67.6965 42.802 68.085 42.7958 68.1618 42.7753L71.2565 42.7934C71.5315 42.7791 71.8326 42.7752 72.1123 42.7924C72.3128 42.8044 72.5447 42.7404 72.7295 42.8139C72.8096 42.8139 72.8321 43.2177 72.8235 43.3194Z" fill="#4098DD"/>
</svg>
