<svg width="111" height="129" viewBox="0 0 111 129" fill="none" xmlns="http://www.w3.org/2000/svg">
<path fill-rule="evenodd" clip-rule="evenodd" d="M147.878 6.33561L93.0082 -22.5605C91.769 -23.2244 90.3822 -23.5721 88.9732 -23.5721C87.5642 -23.5721 86.1774 -23.2244 84.9382 -22.5605L30.0686 6.33561C28.3476 7.23967 26.9803 8.68562 26.1831 10.4457C25.3859 12.2057 25.2043 14.1791 25.6672 16.0528C26.1301 17.9265 27.2111 19.5937 28.7388 20.7907C30.2666 21.9877 32.154 22.6462 34.1022 22.6616H143.841C145.79 22.6468 147.678 21.9889 149.206 20.7921C150.734 19.5953 151.815 17.928 152.279 16.0542C152.742 14.1803 152.561 12.2067 151.764 10.4464C150.967 8.68604 149.599 7.23979 147.878 6.33561ZM34.0963 13.9928L88.9659 -14.9033L143.835 13.9928H34.0963ZM143.835 94.9019H34.0963C32.9352 94.9019 31.8217 95.3589 31.0006 96.1717C30.1796 96.9846 29.7184 98.0867 29.7184 99.2363C29.7184 100.386 30.1796 101.488 31.0006 102.301C31.8217 103.114 32.9352 103.571 34.0963 103.571H143.835C144.997 103.571 146.11 103.115 146.932 102.303C147.754 101.491 148.216 100.389 148.216 99.2391C148.217 98.0896 147.757 96.9865 146.936 96.1731C146.116 95.3597 145.002 94.9027 143.841 94.9019H143.835ZM143.835 37.1097C144.997 37.1097 146.11 36.6527 146.931 35.8398C147.752 35.027 148.213 33.9248 148.213 32.7753C148.213 31.6257 147.752 30.5236 146.931 29.7107C146.11 28.8978 144.997 28.4408 143.835 28.4408H34.0963C32.9352 28.4408 31.8217 28.8978 31.0006 29.7107C30.1796 30.5236 29.7184 31.6257 29.7184 32.7753C29.7184 33.9248 30.1796 35.027 31.0006 35.8398C31.8217 36.6527 32.9352 37.1097 34.0963 37.1097H39.6125V80.4538H34.0963C32.9352 80.4538 31.8217 80.9108 31.0006 81.7237C30.1796 82.5365 29.7184 83.6387 29.7184 84.7883C29.7184 85.9378 30.1796 87.04 31.0006 87.8528C31.8217 88.6657 32.9352 89.1227 34.0963 89.1227H143.835C144.997 89.1227 146.11 88.6657 146.931 87.8528C147.752 87.04 148.213 85.9378 148.213 84.7883C148.213 83.6387 147.752 82.5365 146.931 81.7237C146.11 80.9108 144.997 80.4538 143.835 80.4538H135.891V37.1097H143.835ZM77.4112 37.1097H83.3417V80.4538H77.4169V37.1097H77.4112ZM68.7488 80.4538H62.9116V37.1097H68.7488V80.4538ZM92.0975 37.1097H97.8822V80.4538H92.0975V37.1097ZM106.691 37.1097H112.528V80.4538H106.691V37.1097ZM48.3186 37.1097H54.182V80.4538H48.3186V37.1097ZM127.121 80.4538H121.284V37.1097H127.121V80.4538Z" fill="#F2F4F7"/>
</svg>
