<svg width="260" height="234" viewBox="0 0 260 234" fill="none" xmlns="http://www.w3.org/2000/svg">
  <path d="M14.5434 14.6893C6.52968 14.6893 0 8.09412 0 0H260C260 8.09412 253.47 14.6893 245.457 14.6893H14.5434Z" fill="url(#paint0_linear_2484_10168)"/>
  <path fill-rule="evenodd" clip-rule="evenodd" d="M36.2101 44.3668C28.1964 44.3668 21.6667 37.7716 21.6667 29.6775H240.114C240.114 37.7716 233.585 44.3668 225.571 44.3668H223.79V238.326C223.79 242.223 220.822 245.221 216.964 245.221H193.516C178.082 245.221 162.648 250.317 150.183 259.91L131.484 274L107.74 257.812C95.8676 249.718 81.9178 245.221 67.3745 245.221H43.0366C39.1781 245.221 36.2101 242.223 36.2101 238.326V44.3668ZM130.89 256.013L141.279 248.219C156.416 236.827 174.817 230.532 193.219 230.532H208.95V184.365H193.219C177.785 184.365 162.352 189.461 149.886 199.054L131.187 213.144L107.443 196.956C95.5708 188.862 81.621 184.365 67.0777 184.365H50.4567V230.532H67.0777C84.5891 230.532 101.507 235.628 115.753 245.521L130.89 256.013ZM122.877 189.461V127.706H102.694V177.17C107.443 179.269 111.895 181.667 116.05 184.665L122.877 189.461ZM156.119 127.706H137.123V190.361L141.279 187.363C146.082 183.859 150.884 180.84 156.119 178.306V127.706ZM193.516 169.676H209.247V44.3668H50.7535V169.976H67.3745C74.4978 169.976 81.3242 170.875 88.1507 172.674V128.006H75.9818C67.9681 128.006 61.4384 121.411 61.4384 113.317H197.374C197.374 121.411 190.845 128.006 182.831 128.006H170.662V172.973C178.082 170.875 185.799 169.676 193.516 169.676Z" fill="url(#paint1_linear_2484_10168)"/>
  <defs>
    <linearGradient id="paint0_linear_2484_10168" x1="130" y1="0" x2="130" y2="274" gradientUnits="userSpaceOnUse">
      <stop stop-color="#E8EDF2" stop-opacity="0.5"/>
      <stop offset="1" stop-color="#E8EDF2" stop-opacity="0"/>
    </linearGradient>
    <linearGradient id="paint1_linear_2484_10168" x1="130" y1="0" x2="130" y2="274" gradientUnits="userSpaceOnUse">
      <stop stop-color="#E8EDF2" stop-opacity="0.5"/>
      <stop offset="1" stop-color="#E8EDF2" stop-opacity="0"/>
    </linearGradient>
  </defs>
</svg>
