<svg width="1440" height="609" viewBox="0 0 1440 609" fill="none" xmlns="http://www.w3.org/2000/svg">
<g clip-path="url(#clip0)">
<path d="M1578 504.968C1578 545.396 1578 566.377 1578 606.805C1576.87 606.805 1575.56 606.993 1574.43 606.993C1004.94 606.993 435.252 606.993 -134.245 606.993C-134.996 606.993 -135.747 606.993 -136.498 606.993C-136.873 606.993 -137.437 606.805 -137.812 606.805C-137.812 606.429 -138 606.429 -138 606.241C-138 520.307 -138 453.821 -138 368.076C-138 367.512 -138 366.947 -137.812 366.383V366.195C-137.812 366.195 -137.812 366.195 -137.624 366.007C-124.293 366.007 -110.774 366.007 -97.0669 366.007C-97.0669 426.18 -97.0669 486.352 -97.0669 546.712C-95.7525 546.712 -94.6259 546.712 -93.3115 546.712C-93.3115 545.772 -93.3115 544.832 -93.3115 543.892C-93.3115 513.618 -93.3115 483.343 -93.3115 452.881C-93.3115 451.941 -93.3115 451.189 -93.1237 450.249C-82.421 450.249 -71.9061 450.249 -61.2034 450.249C-61.2034 482.403 -61.2034 514.558 -61.2034 546.712C-59.889 546.712 -58.7624 546.712 -57.4481 546.712C-57.4481 538.627 -57.4481 530.541 -57.4481 522.456C-57.4481 514.37 -57.4481 506.284 -57.4481 498.199C-57.4481 490.113 -57.4481 482.215 -57.4481 474.13C-57.4481 466.044 -57.4481 458.146 -57.4481 450.061C-57.4481 441.975 -57.4481 433.889 -57.4481 425.804C-57.4481 417.906 -57.6358 409.82 -57.4481 401.923C-54.6316 401.359 -12.3841 401.547 -10.8819 402.111C-10.8819 403.615 -10.8819 405.119 -10.8819 406.624C-10.8819 408.128 -10.8819 409.82 -10.8819 411.325C-10.8819 412.829 -11.0697 414.333 -10.5064 416.026C-0.17923 416.026 9.96017 416.026 20.4751 416.026C20.4751 427.12 20.4751 437.838 20.4751 448.744C20.4751 459.651 20.4751 470.557 20.4751 481.463C20.4751 492.369 20.4751 503.088 20.4751 513.994C20.4751 524.9 20.4751 535.806 20.4751 546.524C21.7895 546.524 22.9161 546.524 24.2305 546.524C24.2305 509.857 24.2305 473.377 24.2305 436.898C26.6714 436.522 61.0327 436.522 62.5348 437.086C62.5348 440.095 62.5348 443.103 62.5348 446.3C65.9146 446.488 68.9189 446.488 72.2987 446.676C72.2987 451.001 72.2987 454.95 72.2987 459.086C72.2987 463.223 72.2987 467.172 72.4865 471.497C73.8009 471.309 74.9274 471.309 76.054 471.309C76.4296 471.309 76.8051 470.933 76.8051 470.745C77.1806 469.993 77.7439 469.805 78.495 469.805C79.6216 469.617 80.7482 469.617 81.687 469.617C91.8264 469.617 101.778 469.617 111.917 469.617C112.481 469.617 113.044 469.617 113.607 469.805C113.795 471.497 114.171 473.189 114.358 475.07C116.424 475.07 118.302 475.07 120.179 475.07C125.249 475.07 130.131 475.07 135.201 475.258C135.952 475.258 136.89 475.634 137.642 475.822C138.58 476.01 139.519 476.574 140.646 476.574C142.899 476.762 145.34 476.574 147.593 476.762C148.72 476.762 149.659 476.95 150.785 477.138C150.785 477.89 150.785 478.266 150.785 478.831C150.785 500.455 150.597 522.079 150.597 543.704C150.597 544.268 150.597 544.832 150.597 545.396C150.785 546.712 150.973 547.089 152.475 547.089C153.226 547.089 154.165 547.089 154.916 546.901C154.916 545.208 154.916 543.704 154.916 542.2C154.916 539.755 154.728 537.311 154.728 534.866C154.728 532.61 155.479 530.541 156.794 528.661C158.296 526.404 159.61 524.148 161.112 522.079C161.3 521.703 161.488 521.327 161.676 520.951C160.549 520.199 159.61 519.447 158.484 518.883C155.104 516.438 153.602 513.242 154.165 509.105C154.728 503.276 159.047 499.139 164.868 498.951C171.064 498.763 175.383 502.147 176.322 508.165C177.073 512.301 176.134 515.874 172.378 518.507C171.44 519.071 170.688 519.823 169.937 520.575C169.562 520.951 169.186 521.515 168.811 521.891C170.125 523.96 171.44 525.84 172.566 527.721C173.129 528.473 173.505 529.037 174.444 529.413C175.57 529.789 175.946 530.541 175.946 531.669C175.946 536.182 175.946 540.695 175.946 545.02C175.946 545.584 175.946 546.336 175.946 546.901C178.95 547.277 183.269 546.9 184.771 546.336C184.771 517.754 184.771 488.985 184.771 460.403C185.147 460.215 185.147 460.027 185.334 460.027C188.714 458.522 192.094 457.206 195.474 455.702C196.225 455.326 196.976 455.514 197.727 455.89C199.98 457.018 202.421 457.958 204.674 459.274C207.678 460.779 207.679 460.967 207.679 464.352C207.679 490.113 207.679 515.874 207.679 541.635C207.679 542.952 207.679 544.08 207.866 545.396C208.054 547.089 208.43 547.277 210.495 546.901C210.495 546.148 210.495 545.584 210.495 544.832C210.683 524.524 211.058 504.216 211.246 484.096C211.246 483.72 211.246 483.531 211.246 483.155C211.246 482.215 211.809 481.651 212.56 481.463C215.189 480.899 217.63 481.275 220.071 482.403C220.071 484.284 218.569 485.788 219.32 487.856C220.259 485.788 221.761 484.66 223.263 483.532C224.014 483.155 224.578 482.591 225.141 481.839C225.892 480.711 226.831 480.523 228.145 480.335C228.708 480.335 229.272 480.147 229.647 479.771C230.211 479.395 230.774 478.642 231.337 478.078C231.9 477.514 232.276 476.95 232.088 476.01C231.713 475.634 231.149 475.258 230.774 475.07C230.774 473.942 230.962 473.189 232.088 473.001C235.092 472.249 237.909 472.437 240.725 473.377C241.101 474.506 241.289 475.446 240.35 476.386C239.787 476.762 239.787 477.702 239.411 478.454C239.787 478.642 240.162 478.642 240.35 478.642C243.73 478.83 246.358 480.523 248.612 482.967C249.55 483.908 250.677 484.472 251.616 485.224C252.179 485.6 252.742 485.788 253.306 486.164C253.306 488.044 253.306 490.113 253.306 491.993C253.869 489.737 253.869 487.668 253.494 485.412C253.494 485.036 253.306 484.66 253.118 484.472C252.179 483.908 252.367 482.967 252.367 482.027C255.747 480.899 258.939 480.523 262.319 482.403C262.131 483.155 261.943 483.719 261.755 484.284C261.568 484.66 261.568 485.224 261.568 485.6C261.755 488.42 262.319 491.053 262.319 493.874C262.506 502.147 262.506 510.609 262.506 518.883C262.506 527.533 262.319 536.182 262.319 545.02C262.319 545.772 262.319 546.524 262.319 547.089C265.135 547.089 267.952 547.089 270.58 547.089C270.58 541.071 270.58 535.054 270.58 529.037C270.017 528.849 269.454 528.661 268.89 528.473C268.139 528.097 267.201 527.909 266.449 527.345C265.323 526.592 265.323 526.028 266.449 525.276C267.013 524.9 267.576 524.524 268.139 524.336C269.266 523.772 270.58 523.396 271.707 522.832C273.021 522.267 273.209 522.079 273.021 520.575C273.021 519.823 272.834 519.071 272.458 518.319C272.083 517.378 272.27 516.626 273.021 516.062C273.585 515.498 274.523 515.498 275.462 516.062C276.213 516.438 276.213 517.19 275.838 517.755C275.65 518.319 275.462 518.883 275.275 519.447C274.711 522.267 275.087 522.644 277.715 523.208C278.091 523.208 278.467 523.396 278.842 523.396C279.405 523.584 279.969 523.772 280.532 524.148C281.471 524.712 282.034 525.652 281.846 526.78C281.846 527.909 280.908 528.097 279.969 528.473C279.218 528.661 278.279 528.849 277.528 529.037C277.528 535.054 277.528 541.071 277.528 547.089C280.72 547.089 283.912 547.089 287.104 547.089C287.104 546.148 287.292 545.396 287.292 544.832C287.479 537.875 287.667 530.917 287.667 524.148C287.667 522.644 287.667 521.327 286.916 519.823C286.165 518.695 286.728 517.754 288.043 517.19C288.606 517.002 289.169 516.814 289.733 516.814C290.859 516.814 292.174 516.814 293.488 516.814C295.178 516.814 295.366 517.19 295.178 518.883C294.802 521.703 294.427 524.524 294.427 527.345C294.427 533.55 294.802 539.755 294.99 545.96C294.99 546.336 295.178 546.712 295.178 547.277C297.243 547.277 299.309 547.277 301.374 547.277C301.374 546.336 301.374 545.396 301.374 544.644C301.562 541.259 301.75 538.063 302.125 534.678C302.313 533.174 303.064 532.233 304.378 531.669C305.88 531.105 307.007 529.977 307.946 528.661C308.134 528.285 308.509 528.097 308.697 527.721C309.448 528.661 310.199 530.165 311.889 529.225C312.077 524.336 312.077 519.635 312.265 514.746C316.395 514.37 374.979 514.558 376.669 515.122C376.669 515.686 376.669 516.438 376.669 517.002C376.669 520.575 376.669 524.148 376.669 527.909C376.669 529.225 377.232 529.601 378.358 529.037C378.922 528.661 379.485 528.849 379.861 529.037C380.612 529.413 381.363 529.977 382.302 530.353C385.869 532.61 387.559 535.806 387.371 539.943C387.183 541.824 387.184 543.704 386.996 545.584C386.996 546.148 386.996 546.901 386.996 547.465C389.061 547.465 390.751 547.465 392.629 547.465C392.629 546.524 392.816 545.584 392.816 544.832C392.816 542.388 393.004 539.755 393.004 537.311C393.192 532.798 393.192 528.285 393.38 523.772C393.38 522.643 393.38 521.327 392.629 520.199C392.253 519.823 392.441 519.071 392.253 518.507C395.257 517.566 398.074 517.567 400.89 518.319C399.013 528.097 400.139 537.687 400.515 547.465C403.331 547.465 405.772 547.465 408.777 547.465C408.401 546.713 408.213 545.96 407.838 545.396C406.148 542.952 406.148 540.507 407.65 538.063C407.838 537.875 408.026 537.499 408.026 537.311C408.589 535.618 409.152 533.926 409.528 532.233C409.903 530.165 409.903 528.285 409.903 526.216C409.903 520.763 409.716 515.31 409.716 509.857C409.716 507.788 409.34 506.096 408.213 504.216C407.65 503.276 407.462 501.771 407.462 500.455C407.462 499.891 408.777 499.327 409.34 498.763C409.34 498.763 409.528 498.575 409.716 498.575C410.842 498.01 411.03 497.258 411.03 495.942C410.842 494.626 411.03 493.31 411.03 491.993C410.842 480.711 410.467 469.617 411.03 458.334C411.03 456.83 411.218 455.514 411.405 454.009C411.781 454.385 411.969 454.574 411.969 454.95C412.156 458.522 412.532 462.095 412.532 465.668C412.532 475.446 412.344 485.224 412.156 494.814C412.156 496.694 412.344 498.011 414.222 498.951C416.1 499.891 416.475 503.088 415.161 504.592C413.846 506.096 413.471 507.788 413.471 509.669C413.471 514.934 413.283 520.199 413.471 525.464C413.471 529.977 413.846 534.49 415.912 538.627C416.851 540.507 416.663 542.2 415.536 544.08C414.973 545.02 414.597 546.336 413.846 547.653C417.602 547.465 420.982 547.277 424.549 547.277C424.737 531.481 424.925 515.874 424.925 500.267C430.933 497.446 437.129 496.694 443.701 496.882C443.514 513.618 443.514 530.353 443.326 547.277C444.452 546.524 444.077 545.584 444.265 544.832C444.452 530.541 444.452 516.25 444.64 501.959C444.64 499.703 444.64 497.634 444.828 495.378C444.828 494.25 444.452 493.31 443.326 492.933C443.138 492.745 442.95 492.745 442.762 492.557C441.636 491.993 441.26 491.053 441.073 489.925C441.073 488.044 441.073 486.164 440.885 484.472C440.885 483.343 441.073 482.779 442.199 482.403C443.701 481.839 445.203 480.899 446.518 480.147C449.522 478.454 451.024 476.01 451.4 472.625C451.775 469.805 452.151 467.172 452.714 464.164C453.653 466.796 454.404 469.241 454.029 471.873C453.653 474.694 454.592 476.574 456.845 477.89C457.408 478.266 457.972 478.831 458.723 479.207C460.6 480.335 462.478 481.651 464.543 482.779C465.294 483.155 465.67 483.719 465.67 484.66C465.67 486.352 465.482 488.232 465.482 489.925C465.482 490.865 465.107 491.617 464.356 492.181C463.98 492.557 463.605 492.745 463.041 492.933C462.29 493.31 462.102 493.874 461.915 494.438C461.727 496.318 462.478 497.07 464.356 497.07C469.989 497.07 475.434 498.575 481.067 500.267C481.067 516.062 481.067 531.857 481.067 547.465C484.822 548.217 486.888 547.277 488.578 544.268C488.765 543.892 488.953 543.328 489.329 542.952C489.892 542.011 490.643 541.447 491.769 541.447C492.708 541.259 493.647 541.259 494.586 541.259C496.276 541.071 497.59 540.507 498.717 539.191C499.28 538.439 499.844 537.687 500.219 536.746C500.782 535.618 501.346 534.302 501.721 532.986C502.66 529.601 503.411 526.216 504.162 522.832C501.533 521.139 498.905 520.575 496.088 520.575C496.651 523.96 498.341 526.216 501.158 527.721C501.158 528.473 501.158 529.225 501.346 529.977C499.28 529.789 497.59 529.225 496.651 527.533C495.525 525.276 494.398 523.02 493.459 520.763C492.708 519.071 493.272 518.319 495.149 518.319C496.464 518.319 497.778 518.319 499.092 518.319C500.031 518.319 500.595 517.943 500.595 517.002C500.782 514.182 500.97 511.361 500.97 508.541C500.97 507.412 500.97 506.096 500.031 504.78C499.093 506.848 500.97 509.105 499.092 510.609C497.966 510.609 497.027 510.233 496.464 509.105C495.337 506.848 494.211 504.78 493.084 502.523C492.521 501.395 491.957 500.267 491.394 499.139C492.708 498.575 493.835 498.01 494.962 497.634C499.656 495.754 504.162 496.506 507.917 499.703C508.856 500.455 509.795 501.395 510.734 502.147C511.109 502.523 511.673 502.711 512.048 502.711C514.489 502.523 515.992 501.019 516.555 498.575C515.616 497.258 514.114 496.694 512.799 496.13C511.109 495.19 509.232 494.438 507.542 493.31C506.979 492.933 506.415 492.557 506.04 491.617C508.293 492.369 510.171 492.933 512.236 493.686C513.926 494.25 515.616 494.626 517.306 494.25C518.62 494.062 518.808 493.686 518.996 492.369C519.183 490.677 519.371 488.797 520.122 487.292C520.31 486.916 520.686 486.352 521.061 486.164C522.563 485.6 524.065 485.224 525.568 484.66C525.004 486.54 524.253 488.42 523.69 490.301C523.127 492.557 523.502 493.498 525.568 494.438C526.882 495.002 528.196 495.378 529.511 495.754C531.576 496.318 532.327 496.882 532.515 499.139C532.515 499.515 532.703 500.079 532.703 500.643C533.829 500.643 534.768 500.455 535.707 500.643C536.646 500.831 537.585 501.207 538.899 501.395C538.148 502.711 537.209 503.464 535.895 503.464C534.58 503.464 533.266 503.276 531.952 502.899C530.074 502.147 528.384 501.019 526.506 500.079C525.943 499.703 525.192 499.327 524.629 498.951C523.878 500.455 523.502 502.147 523.314 503.652C523.314 505.344 523.878 506.848 525.568 507.788C526.506 508.353 527.445 508.917 528.572 509.105C534.017 510.421 539.275 512.301 544.908 512.113C546.597 512.113 547.724 512.865 548.287 514.37C548.851 516.062 549.414 517.755 549.602 519.447C549.977 523.584 550.165 527.721 550.353 531.857C550.353 532.234 550.353 532.61 550.353 533.174C548.663 532.61 548.1 531.481 547.724 530.165C546.597 526.216 545.095 522.267 544.72 518.131C544.532 516.25 543.405 515.31 541.528 514.558C541.34 515.874 540.964 516.814 540.964 517.943C540.589 520.575 540.026 523.208 538.336 525.276C538.148 525.652 537.96 526.028 537.772 526.404C537.397 527.344 537.772 527.909 538.336 528.473C539.65 529.413 540.964 529.977 542.654 529.789C543.969 532.233 544.344 534.866 545.095 537.311C545.846 539.755 546.222 542.388 546.785 544.832C546.973 545.02 547.161 545.02 547.161 545.02C549.602 545.02 551.667 545.396 553.357 547.277C553.545 547.465 553.92 547.653 554.296 547.653C555.235 547.653 556.174 547.653 557.488 547.653C557.488 546.712 557.488 545.96 557.488 545.208C557.676 532.986 557.676 520.763 557.863 508.541C557.863 507.788 557.863 507.036 558.051 506.096C558.99 506.096 559.553 506.096 560.304 506.096C565.937 506.096 571.758 506.096 577.391 506.096C579.081 506.096 579.269 505.908 579.644 504.404C579.644 504.028 579.832 503.652 579.832 503.276C580.208 500.831 580.771 500.267 583.024 500.267C590.91 500.267 598.984 500.267 606.871 500.267C607.434 500.267 607.997 500.267 608.56 500.455C608.748 514.558 608.936 528.473 608.936 542.576C610.814 541.071 611.753 538.815 613.442 537.311C613.63 539.567 613.63 541.824 613.63 544.08C613.63 546.336 613.63 548.405 613.63 550.661C614.945 550.661 616.071 550.661 617.198 550.661C617.198 550.097 617.385 549.721 617.385 549.345C617.385 547.465 617.385 545.396 617.573 543.516C617.761 529.977 618.7 516.626 616.634 503.276C616.259 500.267 615.696 497.446 614.381 494.814C613.63 493.498 613.255 491.993 612.879 490.489C612.316 488.044 613.255 485.976 615.508 484.848C616.634 484.284 617.949 483.72 619.263 483.532C620.953 483.155 622.643 482.967 624.521 482.591C624.521 482.027 624.708 481.463 624.708 480.899C624.896 478.454 625.084 475.822 625.084 473.377C625.272 468.676 626.962 464.916 630.154 461.531C633.346 458.146 637.101 455.702 641.42 454.009C644.236 452.881 646.114 451.189 646.114 447.992C646.302 448.18 646.489 448.18 646.489 448.368C646.865 450.625 648.367 451.753 650.245 452.693C651.559 453.257 652.686 454.009 654 454.762C656.065 456.078 658.319 457.582 660.384 459.086C664.139 462.283 666.393 466.42 666.956 471.121C667.331 474.318 667.331 477.514 667.519 480.711C667.519 481.463 667.519 482.215 667.519 482.967C668.27 483.155 669.021 483.343 669.585 483.532C671.838 484.096 674.091 484.66 676.344 485.412C679.912 486.728 680.287 487.668 678.973 491.241C678.222 493.309 677.095 495.19 676.344 497.258C675.781 498.575 675.218 499.703 675.218 501.019C674.654 508.165 673.715 515.31 673.903 522.456C674.091 529.601 673.903 536.746 674.091 543.892C674.091 546.148 674.279 548.405 674.842 550.473C677.471 551.225 678.222 550.661 678.973 548.217C679.161 547.653 679.349 546.9 679.349 546.336C684.043 546.336 688.549 546.148 693.243 546.148C693.994 542.388 694.558 538.627 694.558 535.054C694.558 532.045 693.243 529.601 690.99 527.533C687.422 524.336 685.732 523.96 681.414 526.028C680.287 526.404 679.349 526.968 678.222 527.533C678.222 526.78 678.034 526.404 678.034 526.028C677.846 520.199 677.846 514.37 678.41 508.353C678.785 504.028 679.724 499.703 681.789 495.754C682.541 494.25 683.104 492.557 683.667 490.865C684.418 488.044 684.043 485.412 681.789 483.343C681.602 483.155 681.602 482.967 681.414 482.591C683.855 481.839 686.108 481.275 688.174 480.523C692.68 479.019 696.999 477.326 701.505 475.634C703.946 474.694 705.824 473.001 706.762 470.557C707.326 468.864 708.64 467.924 710.33 467.736C714.836 466.984 719.343 466.796 723.849 467.736C725.915 468.112 727.792 469.052 728.919 471.121C729.482 472.061 730.233 472.813 730.797 473.565C731.548 474.694 732.487 475.446 733.801 476.01C735.115 476.386 736.43 476.762 737.744 477.138C739.997 477.702 742.25 477.89 744.504 478.454C757.835 482.027 770.04 488.232 781.306 496.13C789.192 501.771 796.89 507.788 802.899 515.686C803.462 516.25 803.838 517.002 804.589 517.378C805.716 518.319 807.03 518.883 808.344 519.823C809.283 520.387 810.222 521.139 811.161 521.891C811.912 522.643 812.663 523.584 813.414 524.336C813.602 524.524 813.977 524.9 814.541 525.276C815.104 516.25 815.479 507.6 816.043 498.951C825.055 497.822 833.693 496.694 842.518 495.754C842.518 494.626 842.706 493.686 842.706 492.745C842.893 485.036 843.081 477.326 843.269 469.617C843.269 467.172 843.832 466.42 846.273 465.668C847.775 465.292 849.277 465.104 850.779 464.728C853.22 464.164 855.661 463.787 858.102 463.223C859.605 462.847 859.604 462.659 859.604 461.155C859.604 458.71 859.792 456.266 859.792 453.821C859.792 453.069 859.98 452.317 859.98 451.565C861.482 451.377 862.984 451.001 864.486 451.001C870.683 450.813 876.691 450.437 882.888 450.249C896.031 450.249 909.175 450.437 922.318 451.189C923.445 451.189 924.384 451.753 924.947 452.693C925.698 454.197 927.013 454.762 928.703 454.95C930.392 455.138 932.082 455.514 933.772 455.89C937.903 456.83 938.466 457.77 938.279 461.907C938.091 466.42 938.091 471.121 937.903 475.634C937.903 476.198 938.091 476.95 938.091 477.514C938.466 477.702 938.654 477.702 938.842 477.702C942.222 478.078 945.602 478.454 948.794 478.831C953.112 479.395 957.431 480.335 961.562 480.899C962.313 481.087 962.876 481.275 963.627 481.463C963.439 483.531 963.252 485.6 963.064 487.856C961.75 487.104 960.623 486.352 959.309 486.916C959.309 487.292 959.121 487.668 959.121 487.856C958.745 492.745 958.182 497.446 958.182 502.335C958.182 515.31 958.37 528.285 958.557 541.259C958.557 541.636 958.745 542.2 958.745 542.764C960.247 542.764 961.75 543.14 963.252 542.388C963.252 532.61 963.252 522.644 963.252 512.866C975.644 514.746 987.849 516.626 999.303 522.079C999.303 523.772 998.74 525.464 999.115 527.533C1001.37 527.533 1003.43 527.533 1005.87 527.533C1005.87 534.49 1005.87 541.259 1005.87 548.029C1007 548.029 1007.94 548.217 1008.88 548.217C1009.82 548.217 1010.19 547.841 1010.57 547.089C1010.94 545.96 1011.32 544.832 1011.88 543.892C1012.63 542.2 1013.2 540.319 1013.2 538.439C1013.2 537.499 1013.39 536.558 1013.39 535.618C1013.57 531.857 1013.76 528.285 1013.2 524.712C1012.82 522.267 1011.7 520.575 1009.07 520.387C1008.69 520.387 1008.5 520.199 1008.13 520.199C1006.06 519.823 1004.56 518.695 1003.62 517.002C1002.87 515.498 1002.12 514.182 1001.56 512.489C999.303 506.096 998.927 499.515 999.303 492.933C999.303 492.745 999.491 492.557 999.491 492.181C1000.62 492.181 1001.74 492.181 1002.87 492.181C1003.43 492.181 1004 492.181 1004.56 491.993C1007 491.241 1009.44 490.113 1012.07 489.361C1013.2 488.985 1013.76 488.232 1013.95 487.104C1014.14 485.976 1014.7 484.848 1015.08 483.532C1016.39 484.096 1017.7 483.72 1018.64 484.848C1018.83 485.036 1019.39 485.224 1019.77 485.224C1020.71 485.224 1021.65 485.036 1022.59 484.848C1028.78 483.532 1034.98 482.215 1041.17 481.087C1043.43 480.711 1045.12 480.147 1045.49 477.514C1045.68 476.386 1046.43 476.198 1047.56 476.386C1048.87 476.574 1049.81 477.326 1050.56 478.266C1051.5 479.395 1052.44 480.335 1053.94 480.523C1054.32 479.771 1054.69 479.019 1055.07 478.454C1056.57 477.89 1057.51 479.207 1058.64 479.771C1059.01 479.207 1059.2 478.831 1059.58 478.266C1061.27 479.395 1062.96 478.831 1064.65 478.078C1065.02 477.89 1065.77 477.702 1065.96 478.078C1066.9 479.019 1067.84 478.454 1068.78 478.454C1070.28 478.266 1071.59 477.89 1073.1 477.702C1074.97 477.326 1077.04 477.138 1078.92 476.762C1079.67 476.574 1080.61 476.01 1081.17 475.446C1083.42 472.813 1085.49 469.993 1087.74 467.548C1089.62 465.48 1091.5 463.411 1093.56 461.719C1096 459.651 1098.63 457.958 1101.26 456.078C1105.77 453.069 1110.65 451.001 1115.91 450.061C1117.78 449.685 1119.47 449.308 1121.16 448.556C1123.04 447.804 1123.6 446.676 1123.23 444.607C1122.85 443.291 1123.23 442.351 1124.17 441.599C1124.36 441.411 1124.73 441.223 1125.11 441.223C1126.23 441.223 1127.17 442.539 1126.98 443.667C1126.98 444.043 1126.8 444.419 1126.8 444.796C1126.42 446.676 1127.17 447.992 1129.05 448.556C1130.36 448.932 1131.68 449.308 1133.18 449.685C1136.56 450.813 1140.13 451.565 1143.51 452.881C1151.96 456.454 1158.72 462.471 1164.91 469.241C1165.1 469.429 1165.1 469.429 1165.29 469.617C1167.35 473.001 1170.55 475.634 1172.05 479.395C1172.05 479.583 1172.24 479.583 1172.61 479.771C1172.99 479.019 1173.55 478.266 1173.74 477.514C1173.93 476.762 1174.49 476.386 1175.24 476.386C1175.8 476.386 1176.18 476.574 1176.74 476.574C1176.93 477.514 1177.12 478.454 1177.31 479.395C1178.43 478.454 1178.06 476.386 1179.75 476.386C1181.44 477.326 1181.62 479.395 1183.5 480.335C1183.5 479.207 1183.69 478.454 1183.69 477.514C1184.63 477.514 1185.38 477.514 1186.13 477.514C1186.32 478.266 1186.32 478.831 1186.51 479.771C1187.63 478.831 1188.38 478.078 1189.32 477.326C1190.07 478.266 1190.64 479.019 1191.2 479.771C1192.7 479.019 1193.27 477.326 1195.14 477.89C1195.33 478.266 1195.52 478.642 1195.71 478.831C1197.58 478.831 1198.9 477.514 1200.96 477.89C1200.21 480.147 1201.72 481.275 1203.22 482.591C1204.72 483.908 1206.22 485.412 1207.72 486.54C1208.85 487.48 1209.41 488.609 1209.41 490.113C1209.23 496.694 1209.23 503.276 1209.04 509.857C1209.04 512.489 1209.04 515.122 1208.85 517.755C1208.85 518.319 1208.66 519.071 1208.66 519.823C1207.35 518.883 1206.22 518.319 1205.28 517.566C1203.97 516.626 1203.03 516.626 1201.53 517.378C1196.27 520.011 1193.45 524.336 1192.33 530.165C1191.39 535.054 1191.58 539.943 1191.76 544.832C1191.76 545.772 1191.95 546.901 1191.95 547.841C1194.58 548.217 1210.73 548.029 1212.23 547.653C1212.23 543.704 1212.23 539.567 1212.23 535.43C1212.23 531.293 1212.23 527.156 1212.23 523.208C1212.23 519.071 1212.23 514.934 1212.23 510.985C1212.23 506.848 1212.23 502.711 1212.23 498.763C1212.23 494.626 1212.04 490.677 1212.23 486.54C1217.3 486.164 1448.63 485.412 1450.32 485.976C1450.32 486.352 1450.51 486.728 1450.51 487.292C1450.51 492.369 1450.69 497.446 1450.69 502.523C1450.51 512.301 1450.69 522.079 1451.07 531.669C1451.26 536.746 1451.45 541.635 1451.63 546.712C1451.63 547.089 1451.82 547.653 1451.82 548.029C1453.89 548.217 1454.07 548.217 1454.07 546.336C1454.07 545.772 1454.07 545.208 1454.07 544.644C1453.89 537.687 1453.7 530.541 1453.7 523.584C1453.7 517.378 1453.51 511.173 1453.51 504.968C1453.51 503.652 1453.7 502.335 1454.26 501.207C1455.01 499.327 1455.39 497.446 1455.39 495.378C1455.39 493.498 1455.39 491.617 1455.2 489.737C1455.2 486.916 1456.7 484.66 1458.39 482.779C1459.14 481.839 1460.27 481.651 1461.4 482.027C1461.4 482.591 1461.4 482.967 1461.4 483.719C1462.9 482.967 1464.4 482.967 1465.34 481.275C1465.53 481.087 1465.72 480.899 1465.9 480.711C1467.22 480.335 1467.97 479.395 1468.91 478.642C1470.03 477.702 1471.35 477.138 1472.29 476.198C1473.04 475.446 1474.16 475.07 1475.1 474.13C1475.67 473.565 1476.42 473.377 1477.17 473.001C1478.67 472.249 1479.61 471.309 1480.17 469.617C1480.55 468.676 1480.36 468.112 1479.42 467.548C1479.99 466.608 1480.17 465.856 1479.99 464.54C1479.99 464.163 1479.61 463.787 1479.23 463.223C1480.55 462.095 1479.99 460.779 1479.99 459.463C1479.61 459.275 1479.42 459.275 1479.05 459.086V458.898C1479.61 457.582 1481.11 456.078 1479.05 454.386C1479.99 453.069 1480.36 451.753 1479.99 450.061C1479.05 450.437 1477.92 450.625 1477.54 451.377C1476.42 453.257 1473.98 453.257 1473.04 455.138C1473.04 455.326 1472.66 455.326 1472.47 455.326C1470.79 456.454 1469.1 457.394 1467.41 458.522C1467.22 458.522 1467.22 458.898 1467.22 458.898C1467.03 459.086 1466.84 459.651 1466.47 459.651C1464.78 460.215 1463.65 461.531 1462.34 462.659C1460.27 464.728 1457.83 464.728 1455.2 464.352C1455.01 462.471 1454.82 460.591 1455.01 458.71C1455.01 447.24 1455.2 435.77 1455.2 424.111C1455.2 421.103 1455.01 418.094 1453.89 415.273C1453.32 413.581 1452.57 411.889 1452.01 410.196C1451.82 409.82 1451.82 409.256 1451.63 408.692C1452.2 408.504 1452.57 408.504 1452.95 408.504C1455.95 407.94 1456.51 407 1456.7 403.991C1456.7 403.615 1456.7 403.239 1456.7 402.863C1456.7 398.914 1456.7 394.965 1456.7 391.016C1456.7 386.88 1455.95 382.931 1453.14 379.734C1452.01 378.418 1451.26 376.914 1450.69 375.033C1451.63 374.845 1452.57 374.469 1453.51 374.469C1455.2 374.657 1456.33 373.905 1456.89 372.401C1457.45 371.272 1458.2 370.896 1459.33 370.896C1466.09 371.084 1472.85 371.084 1479.42 371.084C1480.55 371.084 1481.68 371.084 1482.24 372.589C1482.43 372.965 1482.99 373.341 1483.55 373.529C1484.3 373.905 1485.06 374.093 1485.81 374.281C1486.93 374.657 1487.87 375.221 1488.44 376.161C1489.37 377.854 1489.75 379.734 1489.94 381.426C1489.75 381.615 1489.75 381.615 1489.75 381.615C1489.56 381.803 1489.19 381.991 1489 381.991C1486.18 383.119 1485.06 385.187 1485.06 388.196C1485.06 393.085 1485.06 397.974 1485.06 402.863C1485.06 405.683 1485.62 408.504 1487.68 410.761C1489.19 412.453 1489 414.333 1487.87 416.214C1486.56 418.47 1486.18 420.727 1485.99 423.171C1485.81 428.812 1485.62 434.265 1485.62 439.907C1485.62 455.514 1485.81 471.121 1485.99 486.728C1485.99 490.489 1486.18 494.25 1486.18 498.199C1486.18 499.139 1486.37 499.891 1487.5 500.267C1489.75 501.019 1491.06 502.711 1492.19 504.78C1492.75 505.908 1493.51 506.096 1494.44 506.096C1495.01 506.096 1495.76 506.096 1496.32 506.096C1522.98 506.096 1549.46 506.096 1576.12 506.096C1576.5 504.592 1577.25 504.78 1578 504.968ZM1137.12 546.524C1137.31 539.755 1137.5 533.362 1137.5 526.968C1137.5 525.088 1137.31 523.208 1137.12 521.327C1136.18 515.122 1133.18 510.421 1127.74 507.224C1126.8 506.66 1125.86 506.66 1124.92 507.036C1120.22 509.105 1117.41 512.866 1115.91 517.566C1114.97 520.575 1114.4 523.584 1114.4 526.592C1114.4 532.986 1114.59 539.567 1114.78 545.96C1114.78 546.148 1114.97 546.336 1114.97 546.524C1122.1 546.524 1129.61 546.524 1137.12 546.524ZM1174.49 546.524C1174.49 546.148 1174.68 545.96 1174.68 545.584C1174.68 539.567 1174.86 533.738 1174.86 527.721C1174.86 520.951 1171.49 515.874 1166.04 512.113C1163.97 510.609 1162.47 510.609 1160.59 512.113C1155.52 516.062 1152.33 521.139 1152.33 527.721C1152.33 533.174 1152.33 538.815 1152.33 544.268C1152.33 545.02 1152.33 545.584 1152.33 546.336C1159.84 546.524 1167.17 546.524 1174.49 546.524ZM1096 546.524C1096 545.96 1096.19 545.772 1096.19 545.396C1096.19 539.191 1096.19 533.174 1096.19 526.968C1096.19 525.652 1096 524.336 1095.63 523.208C1094.31 518.507 1091.12 515.31 1087.37 512.678C1085.86 511.737 1084.74 511.737 1083.42 512.678C1079.48 515.122 1076.48 518.319 1074.97 522.644C1074.41 524.148 1074.03 525.84 1074.03 527.533C1073.85 533.362 1074.03 539.191 1074.03 545.208C1074.03 545.584 1074.22 546.148 1074.22 546.524C1081.17 546.524 1088.49 546.524 1096 546.524ZM1060.14 546.524C1060.14 546.148 1060.33 545.772 1060.33 545.396C1060.33 541.071 1060.33 536.746 1060.14 532.422C1059.76 526.028 1056.76 521.139 1051.13 517.943C1049.81 517.19 1048.87 517.19 1047.56 517.943C1041.74 521.515 1037.98 526.592 1037.61 533.738C1037.42 537.687 1037.61 541.635 1037.61 545.396C1037.61 545.772 1037.8 546.148 1037.8 546.524C1045.31 546.524 1052.63 546.524 1060.14 546.524ZM639.917 499.139C634.472 498.763 629.215 498.575 623.77 498.199C623.582 499.891 623.582 501.207 623.394 502.711C623.018 505.532 622.267 508.353 622.267 510.985C622.08 522.832 622.08 534.678 622.08 546.336C622.08 549.533 622.267 549.533 625.459 549.157C625.647 549.157 625.647 548.969 625.835 548.969C625.835 548.593 626.023 548.029 625.835 547.653C625.835 544.08 625.647 540.507 625.647 536.934C625.647 532.61 625.647 528.097 625.835 523.772C625.835 521.515 626.774 519.823 628.839 518.883C631.468 517.566 633.721 515.686 635.599 513.43C635.974 513.054 636.538 512.678 637.101 512.113C637.101 512.678 637.101 513.054 637.101 513.242C637.101 524.336 637.289 535.43 637.289 546.524C637.289 549.157 637.664 549.533 640.293 549.157C640.481 549.157 640.669 548.969 640.856 548.969C641.232 546.901 640.481 501.959 639.917 499.139ZM1482.05 406.812C1482.05 406.436 1482.24 406.248 1482.24 406.06C1482.24 402.299 1482.43 398.35 1482.43 394.589C1482.43 392.333 1482.05 390.076 1481.86 387.82C1481.68 386.503 1480.92 385.375 1479.99 384.623C1478.86 383.495 1477.73 383.495 1476.61 384.811C1476.42 384.999 1476.23 385.187 1476.04 385.375C1474.54 386.692 1473.79 386.692 1472.47 385.187C1470.79 383.307 1469.1 383.307 1467.97 385.375V385.563C1467.22 386.504 1465.9 386.692 1464.96 385.751C1464.59 385.375 1464.4 384.999 1464.03 384.623C1463.27 383.871 1461.96 383.683 1461.4 384.247C1459.52 385.751 1458.02 387.632 1457.83 390.264C1457.64 392.897 1457.64 395.529 1457.64 398.162C1457.64 400.794 1458.02 403.239 1458.2 405.871C1458.2 406.248 1458.39 406.812 1458.39 407.376C1466.28 406.812 1474.16 406.812 1482.05 406.812ZM1366.95 502.523C1366.95 503.087 1366.76 503.464 1366.76 504.028C1366.76 515.874 1366.76 527.909 1366.76 539.755C1366.76 540.319 1366.95 540.883 1366.95 541.259C1371.64 541.259 1375.96 541.259 1380.66 541.259C1380.66 528.285 1380.66 515.31 1380.47 502.523C1375.78 502.523 1371.46 502.523 1366.95 502.523ZM1401.5 541.259C1401.31 528.285 1401.31 515.31 1401.12 502.523C1396.43 502.523 1391.92 502.523 1387.42 502.523C1387.42 515.498 1387.42 528.285 1387.42 541.259C1392.11 541.259 1396.8 541.259 1401.5 541.259ZM1297.29 541.259C1297.29 528.285 1297.29 515.498 1297.29 502.711C1292.78 502.711 1288.28 502.335 1283.96 502.523C1283.58 505.72 1283.58 539.943 1283.96 541.259C1288.28 541.259 1292.59 541.259 1297.29 541.259ZM1304.42 502.711C1304.05 504.968 1304.05 539.943 1304.42 541.259C1308.93 541.259 1313.25 541.259 1317.76 541.259C1318.13 539.191 1317.94 504.028 1317.57 502.711C1313.25 502.711 1308.74 502.711 1304.42 502.711ZM1359.63 541.259C1359.63 528.285 1359.63 515.498 1359.63 502.523C1355.12 502.523 1350.61 502.523 1346.3 502.523C1345.92 504.968 1345.92 539.755 1346.3 541.071C1350.8 541.259 1355.12 541.259 1359.63 541.259ZM652.31 549.157C653.624 549.157 654.751 549.157 655.878 549.157C655.878 547.465 656.065 545.772 656.065 544.08C656.441 544.08 656.816 544.08 657.004 543.892C657.38 543.892 657.568 543.892 657.943 543.892C659.07 543.704 659.821 543.14 660.008 542.2C660.76 538.815 661.511 535.242 662.074 531.669C662.449 529.037 661.511 526.592 659.445 524.712C658.694 523.96 657.755 523.396 656.817 522.832C656.253 522.455 655.878 522.079 655.878 521.327C655.878 517.566 655.69 513.806 655.69 510.045C655.69 507.788 656.253 505.532 657.568 503.464C660.384 503.464 663.013 503.464 665.454 503.464C666.768 506.096 667.144 508.729 667.144 511.361C667.144 522.832 667.144 534.302 667.144 545.96C667.144 546.336 667.144 546.712 667.144 547.089C667.144 548.217 667.895 548.969 669.021 549.157C670.148 549.345 670.711 548.781 670.899 547.465C671.087 545.96 671.087 544.456 671.087 543.14C671.087 538.251 670.899 533.55 670.899 528.661C671.087 519.447 670.336 510.421 669.96 501.395C669.96 501.019 669.772 500.643 669.772 500.079C669.397 500.079 669.021 499.891 668.646 499.891C666.58 499.703 664.327 499.703 662.262 499.515C660.384 499.515 658.319 499.327 656.441 499.327C654 499.515 652.873 500.267 652.498 502.711C652.122 504.968 651.935 507.224 651.935 509.481C651.935 522.079 651.935 534.678 652.122 547.277C652.31 548.029 652.31 548.593 652.31 549.157ZM1262.93 502.711C1262.93 507.036 1262.93 511.361 1262.93 515.686C1262.93 520.011 1262.93 524.336 1262.93 528.473C1262.93 532.798 1262.74 536.935 1263.12 541.259C1267.62 541.259 1271.94 541.259 1276.45 541.259C1276.26 528.285 1276.26 515.498 1275.88 502.711C1271.38 502.711 1267.25 502.711 1262.93 502.711ZM951.986 548.405C951.986 547.653 951.986 546.9 951.986 546.336C951.986 530.353 951.986 514.182 951.986 498.199C951.986 497.258 951.986 496.318 951.798 495.378C951.422 493.498 950.296 492.369 948.606 492.181C948.042 491.993 947.479 491.993 946.728 491.993C945.038 491.993 943.724 492.933 943.349 494.626C942.973 495.942 942.973 497.07 942.973 498.387C942.973 514.37 942.973 530.541 942.973 546.524C942.973 547.089 942.973 547.653 943.161 548.405C945.977 548.405 948.794 548.405 951.986 548.405ZM1325.64 502.711C1325.64 515.498 1325.64 528.285 1325.64 541.071C1327.71 541.447 1337.47 541.259 1338.97 540.695C1338.79 528.097 1338.6 515.498 1338.41 502.711C1334.09 502.711 1329.96 502.711 1325.64 502.711ZM536.082 531.105C534.768 530.165 534.017 529.413 533.078 528.849C531.201 527.721 529.511 526.592 528.572 524.148C528.009 522.455 527.257 522.268 525.568 522.456C523.314 522.644 520.873 522.643 518.62 522.832C515.804 523.02 512.987 523.208 510.358 524.148C508.856 524.712 507.542 525.464 506.791 526.968C504.725 530.917 502.66 535.054 500.595 539.003C500.407 539.191 500.407 539.567 500.219 540.131C509.795 540.883 519.371 541.635 528.947 542.2C529.135 541.447 529.135 541.071 529.323 540.507C529.511 537.499 530.825 535.242 533.454 533.55C534.205 533.174 534.956 532.234 536.082 531.105ZM932.27 549.345C932.27 548.781 932.458 548.593 932.458 548.405C932.458 532.422 932.458 516.626 932.458 500.643C932.458 499.703 932.27 498.575 931.895 497.634C931.144 495.566 929.454 494.25 927.764 494.438C925.698 494.626 924.384 495.754 923.821 497.634C923.445 498.951 923.257 500.267 923.257 501.583C923.257 516.814 923.257 532.234 923.257 547.465C923.257 548.029 923.257 548.593 923.445 549.345C926.262 549.345 929.266 549.345 932.27 549.345ZM902.791 549.157C905.607 549.533 910.489 549.345 911.804 548.969C911.804 548.405 911.804 547.653 911.804 547.089C911.804 542.576 911.804 538.063 911.804 533.738C911.804 524.712 911.991 515.498 912.179 506.472C912.179 505.72 912.367 504.78 912.179 504.028C911.991 502.523 911.616 501.019 911.24 499.703C910.489 498.01 908.424 497.07 906.358 497.258C904.668 497.446 903.542 498.575 903.166 500.831C902.979 502.147 902.791 503.464 902.791 504.592C902.791 518.883 902.791 533.174 902.791 547.277C902.603 547.841 902.603 548.593 902.791 549.157ZM889.272 549.345C889.272 548.781 889.459 548.405 889.459 547.841C889.459 534.678 889.459 521.515 889.459 508.165C889.459 507.224 889.272 506.284 889.084 505.344C888.521 503.464 887.018 502.523 884.577 502.711C882.512 502.711 881.198 503.84 880.634 505.72C880.447 506.848 880.259 507.977 880.259 508.917C880.259 521.891 880.259 534.678 880.259 547.653C880.259 548.217 880.447 548.781 880.447 549.345C883.451 549.345 886.267 549.345 889.272 549.345ZM342.683 527.157C340.054 529.037 337.05 530.729 334.421 532.798C329.727 536.182 329.351 541.259 329.351 546.336C331.229 546.712 355.639 546.712 357.141 546.336C357.329 543.892 356.953 541.259 356.765 538.815C356.39 535.43 354.512 533.362 351.508 531.857C348.504 530.353 345.687 528.849 342.683 527.157ZM768.35 547.277C767.599 541.447 766.472 535.994 763.656 531.105C762.905 529.789 761.966 528.661 760.839 527.533C758.586 525.464 755.957 525.088 752.953 525.84C750.888 526.404 749.198 527.533 747.695 528.849C746.381 529.977 745.63 531.293 745.442 532.986C744.879 537.311 745.255 541.635 745.818 545.96C745.818 546.148 746.006 546.148 746.193 546.336C753.516 546.524 760.651 546.9 768.35 547.277ZM781.494 546.148C789.004 546.524 796.327 546.901 803.65 547.089C802.899 541.635 801.96 536.558 799.331 531.669C798.768 530.729 798.205 529.789 797.454 528.849C794.262 524.9 789.943 524.148 785.624 526.592C784.686 527.156 783.935 527.721 783.184 528.285C781.869 529.413 780.93 530.917 780.743 532.61C780.179 535.618 780.367 538.815 780.555 542.011C780.742 543.328 781.118 544.644 781.494 546.148ZM730.421 543.892C730.421 543.14 730.609 542.576 730.609 542.011C730.421 538.815 730.046 535.43 729.67 532.233C729.482 529.601 727.98 527.721 725.727 526.216C724.6 525.464 723.474 524.9 722.159 524.336C717.841 522.832 713.146 524.336 710.518 528.285C709.579 529.789 708.828 531.293 708.452 532.986C707.701 536.37 707.138 539.755 706.575 543.328C706.575 543.516 706.575 543.704 706.762 544.08C714.649 543.892 722.535 543.892 730.421 543.892ZM865.988 549.345C865.988 548.405 866.176 547.841 866.176 547.089C866.176 535.806 866.364 524.712 866.364 513.43C866.364 512.489 866.364 511.549 866.364 510.609C866.176 509.669 865.989 508.729 865.613 507.788C864.862 506.096 863.36 505.156 861.67 504.968C859.792 504.968 858.666 506.096 857.915 507.788C857.351 509.105 857.164 510.609 857.164 512.113C857.164 523.772 857.164 535.618 857.164 547.277C857.164 547.841 857.164 548.405 857.164 549.157C860.168 549.345 862.984 549.345 865.988 549.345ZM843.644 549.345C843.644 548.593 843.832 547.841 843.832 547.277C843.832 542.952 843.832 538.627 843.832 534.49C843.832 528.097 843.832 521.703 843.832 515.31C843.832 513.806 843.457 512.113 843.081 510.609C842.518 508.917 841.203 507.788 839.326 507.788C837.448 507.788 836.134 508.917 835.57 510.421C835.195 511.549 834.819 512.866 834.819 514.182C834.819 525.276 834.819 536.37 834.819 547.653C834.819 548.217 835.007 548.781 835.007 549.157C837.824 549.345 840.64 549.345 843.644 549.345ZM1027.84 546.524C1027.84 540.695 1028.03 535.054 1028.03 529.413C1028.03 528.661 1027.84 528.097 1027.09 527.721C1024.84 526.592 1022.77 525.276 1020.52 524.148C1019.77 523.772 1018.83 523.584 1017.89 523.396C1017.89 523.96 1017.7 524.336 1017.7 524.9C1017.7 528.473 1017.52 532.234 1017.52 535.806C1017.33 539.755 1019.39 542.952 1020.71 546.524C1023.15 546.524 1025.4 546.524 1027.84 546.524ZM818.484 549.157C819.047 549.345 819.235 549.345 819.422 549.345C819.798 549.345 820.361 549.345 820.737 549.345C822.802 549.157 823.366 548.593 823.366 546.712C823.366 545.02 823.366 543.328 823.366 541.824C823.366 535.994 823.366 530.353 823.366 524.524C823.366 521.891 823.741 519.447 823.553 516.814C823.553 514.934 822.99 512.866 822.615 510.985C822.239 509.669 821.488 508.541 819.986 507.977C819.798 508.165 819.61 508.541 819.422 508.729C818.484 510.233 818.484 511.925 818.484 513.43C818.484 524.712 818.484 535.994 818.484 547.089C818.484 548.029 818.484 548.405 818.484 549.157ZM644.987 549.157C647.991 549.721 648.179 549.533 648.179 546.901C648.179 546.713 648.179 546.713 648.179 546.524C648.179 542.388 648.179 538.063 648.179 533.926C648.179 526.028 648.367 518.319 648.367 510.421C648.367 507.6 647.991 504.78 647.616 501.959C647.616 501.207 647.428 500.455 646.677 499.703C645.55 501.395 645.363 503.088 645.363 504.78C645.175 510.233 644.799 515.686 644.799 521.139C644.799 529.789 644.987 538.439 644.987 547.089C644.987 547.653 644.987 548.405 644.987 549.157ZM1476.79 420.915C1476.79 416.966 1473.98 413.769 1470.6 413.957C1466.84 414.145 1463.27 416.778 1463.46 420.727C1463.46 424.487 1466.47 427.496 1470.22 427.496C1474.17 427.496 1476.79 424.675 1476.79 420.915ZM905.607 484.66C905.607 477.138 906.171 469.993 905.607 462.847C905.42 461.531 905.044 460.215 904.856 459.086C901.852 458.334 901.101 459.275 900.913 461.907V462.095C900.913 469.052 900.913 476.01 900.913 482.967C900.913 483.532 900.913 484.096 901.101 484.66C902.603 484.66 903.917 484.66 905.607 484.66ZM870.495 489.173C870.495 488.797 870.683 488.609 870.683 488.42C870.683 481.839 870.683 475.07 870.683 468.488C870.683 467.172 870.307 465.856 870.119 464.54C869.932 463.787 869.556 463.599 868.805 463.411C867.115 463.223 866.364 463.787 865.988 465.48C865.988 466.044 865.988 466.42 865.988 466.984C865.988 473.754 865.988 480.523 865.988 487.292C865.988 487.856 865.989 488.421 866.176 489.173C867.491 489.173 868.993 489.173 870.495 489.173ZM882.136 487.48C882.136 486.916 882.136 486.54 882.136 486.164C882.324 481.087 882.324 475.822 882.324 470.745C882.324 468.676 882.136 466.796 881.949 464.728C881.761 463.599 881.385 462.659 881.198 461.719C878.006 461.343 877.442 461.907 877.442 464.728V464.916C877.442 471.685 877.442 478.643 877.442 485.412C877.442 485.976 877.442 486.54 877.442 487.292C879.132 487.48 880.634 487.48 882.136 487.48ZM849.089 467.172C846.273 466.42 845.334 467.736 845.334 470.181C845.334 477.138 845.334 484.096 845.334 491.053C845.334 491.617 845.334 492.181 845.522 492.745C847.024 492.745 848.526 492.933 849.841 492.745C850.028 492.369 850.028 492.369 850.028 492.181C850.028 485.412 850.216 478.454 850.028 471.685C850.028 470.181 850.028 468.488 849.089 467.172ZM918 482.967C918 482.591 918.188 482.215 918.188 482.027C918.188 475.634 918.188 469.052 918.188 462.659C918.188 460.779 917.812 459.086 917.624 457.206C916.873 457.206 916.498 457.206 916.122 457.206C914.62 457.206 914.245 457.582 913.869 458.898C913.681 459.462 913.681 460.215 913.681 460.967C913.681 467.736 913.681 474.506 913.681 481.087C913.681 481.651 913.681 482.215 913.869 482.967C914.996 482.967 916.498 482.967 918 482.967ZM859.604 491.053C859.604 490.677 859.792 490.489 859.792 490.301C859.792 483.719 859.98 477.138 859.98 470.557C859.98 468.864 859.792 466.984 858.853 465.48C856.225 464.728 855.286 465.668 855.098 468.488V468.676C855.098 475.634 855.098 482.591 855.098 489.549C855.098 490.113 855.098 490.677 855.286 491.241C856.225 491.241 857.164 491.241 857.915 491.241C858.666 491.053 859.229 491.053 859.604 491.053ZM893.027 460.967C890.21 460.215 889.272 461.343 889.272 463.787V463.975C889.272 470.933 889.272 477.702 889.272 484.66C889.272 485.224 889.271 485.788 889.459 486.54C890.961 486.54 892.464 486.728 893.966 486.352C893.966 479.959 894.154 473.753 893.966 467.36C893.966 465.292 893.966 463.035 893.027 460.967ZM927.764 479.395C927.764 479.019 927.951 478.83 927.951 478.642C927.951 472.437 927.951 466.232 927.951 459.839C927.951 458.898 927.576 457.958 927.388 457.206C927.201 456.266 926.262 456.266 925.511 456.266C924.76 456.266 924.009 456.454 923.821 457.394C923.633 458.522 923.257 459.839 923.07 460.967C922.319 466.984 923.07 473.001 923.257 479.019C923.257 479.207 923.445 479.395 923.445 479.583C924.947 479.395 926.262 479.395 927.764 479.395ZM540.589 531.481C535.707 533.738 531.764 536.558 531.388 542.576C532.515 542.764 533.454 542.952 534.58 542.764C536.834 542.764 539.274 542.764 541.528 542.576C544.532 542.2 545.471 540.319 544.344 537.499C543.405 535.054 541.903 533.362 540.589 531.481ZM933.209 455.702C933.209 463.035 933.209 470.181 933.209 477.514C934.148 477.514 934.899 477.514 936.026 477.514C935.838 469.993 936.401 462.659 935.65 455.138C934.711 455.514 933.96 455.514 933.209 455.702ZM241.289 489.925C242.04 489.925 242.603 489.737 242.791 488.985C242.979 488.232 242.603 487.668 241.852 487.48C241.289 487.292 240.725 487.104 240.35 487.104C237.533 487.104 234.717 487.104 231.9 487.104C231.337 487.104 230.962 487.292 230.586 487.48C230.023 487.668 229.835 488.232 230.023 488.797C230.211 489.173 230.586 489.549 230.962 489.737C231.525 489.925 232.088 489.737 232.651 489.737C234.529 489.737 236.219 489.549 238.097 489.737C239.036 489.361 240.162 489.737 241.289 489.925ZM242.228 518.695C243.166 517.378 243.166 516.626 241.664 516.062C238.285 515.122 234.905 515.122 231.525 515.874C230.586 516.062 230.023 516.626 230.211 517.943C232.088 518.695 234.154 517.943 236.031 518.131C237.909 518.507 239.974 518.507 242.228 518.695ZM230.023 496.694C230.962 496.694 231.9 496.882 232.839 496.882C234.341 496.882 236.031 496.882 237.533 496.882C238.848 496.882 240.162 497.07 241.289 497.258C242.04 497.258 242.415 497.07 242.603 496.506C242.603 496.13 242.415 495.378 242.04 495.19C241.664 494.814 240.913 494.626 240.35 494.438C238.848 494.25 237.533 494.062 236.031 494.062C234.717 494.062 233.215 494.062 231.9 494.25C230.962 494.438 230.023 494.814 230.023 496.694ZM230.023 527.909C230.398 528.097 230.586 528.097 230.774 528.285C234.341 528.473 238.097 528.661 241.664 528.661C242.04 528.661 242.603 528.285 242.791 527.909C242.979 527.533 242.603 526.968 242.415 526.592C242.04 526.216 241.289 525.84 240.725 525.84C238.097 525.652 235.28 525.652 232.464 525.652C232.088 525.652 231.713 525.84 231.149 526.028C230.398 526.216 230.023 526.78 230.023 527.909ZM230.023 501.019C230.774 501.019 231.525 501.395 232.088 501.207C234.341 500.643 236.782 500.831 239.036 501.207C239.787 501.395 240.725 501.583 241.664 501.395C242.04 501.395 242.791 500.831 242.791 500.455C242.979 500.079 242.603 499.327 242.228 499.139C241.852 498.763 241.101 498.575 240.538 498.575C237.158 498.199 233.778 498.199 230.586 499.139C230.398 499.139 230.398 499.327 230.211 499.515C230.023 499.891 230.023 500.267 230.023 501.019ZM230.023 532.61C230.962 532.61 231.713 532.61 232.464 532.61C234.154 532.61 235.844 532.422 237.533 532.61C238.66 532.61 239.787 532.798 240.725 532.986C242.415 533.174 242.603 532.798 242.228 530.729C238.097 529.977 233.966 529.789 229.835 530.729C230.023 531.293 230.023 531.669 230.023 532.61ZM230.023 491.429C230.211 493.122 230.398 493.498 231.9 493.121C234.905 492.557 237.721 492.745 240.538 493.31C240.913 493.31 241.477 493.309 241.852 493.121C242.228 492.933 242.791 492.557 242.791 492.181C242.791 491.805 242.415 491.241 242.04 491.053C241.664 490.677 241.101 490.489 240.725 490.489C239.411 490.301 237.909 490.113 236.595 490.113C234.341 490.489 232.088 490.301 230.023 491.429ZM230.398 504.968C233.59 504.216 236.782 504.404 239.787 504.968C240.162 504.968 240.725 505.156 241.101 505.156C241.852 505.156 242.603 505.156 242.979 504.404C243.166 503.84 242.603 503.088 241.477 502.711C241.289 502.711 241.101 502.523 240.725 502.523C238.66 502.335 236.595 502.147 234.529 502.147C232.839 502.147 231.337 502.523 230.023 503.652C230.211 504.028 230.211 504.404 230.398 504.968ZM230.023 542.2C230.962 542.2 231.713 542.576 232.276 542.388C235.092 541.635 237.909 542.2 240.913 542.576C242.603 542.764 242.979 542.388 242.791 540.507C238.66 539.379 234.529 539.567 230.398 540.319C230.023 541.071 230.023 541.447 230.023 542.2ZM229.835 512.489C230.774 513.43 231.713 513.43 233.027 513.43C234.717 513.242 236.219 513.242 237.909 513.43C238.848 513.43 239.974 513.618 240.913 513.806C241.664 513.994 242.228 513.994 242.603 513.242C240.35 509.857 232.651 509.481 229.835 512.489ZM230.211 509.105C230.962 509.105 231.525 509.105 232.276 509.105C234.529 509.105 236.782 509.105 239.036 509.105C240.35 509.105 241.477 509.105 242.791 508.917C241.289 506.66 239.223 506.284 236.97 506.096C234.717 505.908 232.464 506.284 230.211 507.224C230.023 507.976 230.023 508.353 230.211 509.105ZM242.791 523.396C242.228 521.703 241.101 520.763 239.599 520.763C236.97 520.763 234.341 520.951 231.525 521.139C230.774 521.139 230.023 521.515 230.023 522.644C234.154 523.584 238.285 523.396 242.791 523.396ZM242.603 537.687C242.791 535.994 242.415 535.43 240.913 535.43C239.599 535.43 238.285 535.43 237.158 535.43C235.468 535.43 233.778 535.43 232.088 535.43C231.149 535.43 230.398 535.618 230.211 536.934C234.154 537.122 238.285 537.311 242.603 537.687ZM230.211 545.584C234.154 547.653 238.285 546.901 242.415 546.524C240.538 543.892 234.717 544.08 230.211 545.584ZM110.603 480.523C105.909 479.959 102.717 480.147 101.215 481.275C102.717 482.215 109.852 482.779 110.791 481.839C110.791 481.463 110.603 481.087 110.603 480.523ZM147.781 491.053C146.842 490.677 146.467 490.301 145.903 490.301C143.65 490.301 141.209 490.301 138.956 490.301C138.017 490.301 137.642 491.053 138.017 492.181C141.209 491.993 144.401 492.745 147.781 491.053ZM110.228 540.319C107.223 539.191 104.031 538.627 101.027 540.319C104.219 542.012 107.223 541.635 110.228 540.319ZM134.074 505.908C132.76 504.592 132.384 504.216 131.257 504.216C129.568 504.216 128.065 504.216 126.376 504.216C125.812 504.216 125.061 504.404 124.31 504.592C124.498 505.156 124.498 505.532 124.686 505.72C127.69 505.908 130.694 505.908 134.074 505.908ZM101.215 514.934C101.215 515.122 101.215 515.31 101.215 515.498C101.966 515.686 102.717 515.874 103.656 516.062C105.346 516.062 106.848 516.062 108.538 516.062C109.852 516.062 110.04 515.874 110.603 514.182C107.411 514.182 104.219 513.43 101.215 514.934ZM124.122 524.9C126.939 526.404 132.196 526.404 133.886 524.712C130.694 523.584 127.69 523.396 124.122 524.9ZM110.415 490.301C105.721 489.737 102.529 489.925 101.215 491.241C104.219 492.557 107.223 492.369 110.415 491.617C110.228 491.241 110.415 490.865 110.415 490.301ZM101.027 495.754C104.219 496.882 107.223 496.694 110.415 495.754C108.162 493.874 103.28 493.874 101.027 495.754ZM147.593 515.686C146.654 514.558 145.903 514.182 144.964 514.182C143.275 514.182 141.585 514.182 139.895 514.182C139.331 514.182 138.768 514.37 138.017 514.558C138.205 515.122 138.393 515.498 138.393 516.062C141.397 515.874 144.213 515.874 147.593 515.686ZM124.686 515.31C127.69 516.438 130.694 516.438 134.074 515.31C131.633 513.618 127.127 513.618 124.686 515.31ZM124.498 490.865C127.314 492.745 132.196 492.557 133.886 490.677C130.694 489.737 127.69 489.925 124.498 490.865ZM147.218 525.464C147.218 525.276 147.218 525.276 147.405 525.088C146.842 524.712 146.467 524.148 145.903 524.148C143.275 523.96 140.834 523.772 138.205 524.336L138.017 524.524C138.017 525.464 138.58 525.652 139.519 525.652C141.397 525.652 143.462 525.464 145.34 525.464C145.903 525.652 146.467 525.464 147.218 525.464ZM101.403 504.968C101.403 505.156 101.403 505.344 101.403 505.532C104.407 505.72 107.223 505.908 110.228 506.284C110.415 505.72 110.415 505.344 110.603 504.592C107.411 504.404 104.407 503.464 101.403 504.968ZM101.215 524.712C101.215 524.9 101.215 524.9 101.403 525.088C104.407 525.276 107.223 525.464 110.228 525.84C110.415 525.276 110.415 524.9 110.603 524.524C109.289 524.148 103.656 523.772 102.529 524.148C102.154 524.148 101.59 524.524 101.215 524.712ZM138.393 505.532C141.585 506.66 145.528 506.472 147.405 505.344C145.903 503.84 142.148 503.84 138.393 505.532ZM512.612 502.523C512.799 502.899 512.799 503.464 512.987 503.84C513.363 504.404 513.738 505.532 514.114 505.532C514.865 505.532 515.616 504.968 516.367 504.592C516.743 504.404 516.743 503.652 516.93 503.276C515.428 502.147 514.114 501.959 512.612 502.523ZM1468.91 494.626C1470.6 494.25 1470.79 494.062 1471.16 492.557C1470.22 493.31 1469.66 493.874 1468.91 494.626ZM1477.73 488.232C1476.61 488.421 1476.04 488.985 1475.48 490.113C1476.79 489.737 1477.54 489.361 1477.73 488.232Z" fill="#EEF3F8"/>
<path d="M1208.66 482.403C1207.91 480.711 1206.41 479.395 1205.1 478.078C1203.41 476.198 1201.9 473.942 1200.59 471.685C1199.65 470.181 1200.59 468.677 1201.15 466.984C1287.71 466.608 1374.27 466.232 1460.83 465.856C1461.21 468.3 1461.58 470.557 1459.9 472.437C1459.33 473.189 1458.96 473.942 1458.39 474.882C1457.83 476.01 1457.08 477.138 1456.14 477.89C1455.39 478.455 1454.83 479.583 1454.26 480.335C1453.7 481.087 1453.14 481.463 1452.2 481.463C1449.57 481.463 1446.75 481.463 1444.12 481.463C1412.95 481.651 1381.97 481.651 1350.8 481.839C1318.88 482.027 1286.96 482.027 1255.04 482.215C1240.4 482.215 1225.75 482.403 1211.1 482.403C1210.17 482.403 1209.41 482.403 1208.66 482.403Z" fill="#EEF3F8"/>
<path d="M1280.2 463.411C1281.7 462.283 1283.21 461.155 1284.9 460.215C1289.97 457.206 1295.6 455.326 1301.23 453.633C1310.43 451.001 1319.82 449.12 1329.58 448.932C1339.35 448.744 1348.92 450.061 1358.13 452.505C1365.26 454.574 1372.02 457.394 1378.59 460.779C1379.72 461.343 1380.85 462.095 1381.97 463.035C1380.28 463.599 1282.08 464.164 1280.2 463.411Z" fill="#EEF3F8"/>
<path d="M1468.53 464.54C1469.1 463.599 1469.85 462.847 1471.35 462.659C1470.41 463.787 1469.66 464.351 1468.53 464.54Z" fill="#EEF3F8"/>
<path d="M1477.17 462.847C1476.61 463.787 1475.85 464.54 1474.35 464.728C1475.29 463.599 1476.23 463.035 1477.17 462.847Z" fill="#EEF3F8"/>
<path d="M1477.17 467.36C1476.61 468.488 1475.67 468.864 1474.73 469.24C1475.29 468.112 1476.23 467.548 1477.17 467.36Z" fill="#EEF3F8"/>
<path d="M1471.16 467.548C1470.41 468.112 1469.47 468.676 1468.72 469.24C1468.72 469.052 1468.53 469.053 1468.53 468.864C1469.1 467.924 1470.03 467.548 1470.97 466.984C1470.97 467.36 1471.16 467.548 1471.16 467.548Z" fill="#EEF3F8"/>
<path d="M1464.78 476.762C1464.03 477.326 1463.09 477.89 1462.34 478.454C1462.52 476.95 1463.46 476.574 1464.78 476.762Z" fill="#EEF3F8"/>
<path d="M1474.54 460.215C1475.29 459.086 1476.23 458.522 1477.73 458.146C1476.79 459.275 1476.04 460.027 1474.54 460.215Z" fill="#EEF3F8"/>
<path d="M1468.34 473.377C1469.1 472.813 1470.03 472.249 1470.79 471.685C1470.79 471.873 1470.97 471.873 1470.97 472.061C1470.41 472.813 1469.66 473.377 1468.34 473.377Z" fill="#EEF3F8"/>
<path d="M1477.36 453.821C1476.79 454.762 1476.04 455.514 1474.54 455.702C1475.29 454.574 1476.23 454.009 1477.36 453.821Z" fill="#EEF3F8"/>
<path d="M1471.35 458.334C1470.6 459.274 1469.85 460.027 1468.53 460.215C1469.1 459.086 1469.85 458.522 1471.35 458.334Z" fill="#EEF3F8"/>
<path d="M1465.72 471.497C1465.53 469.993 1466.47 470.181 1467.22 469.805C1467.22 469.993 1467.41 469.993 1467.41 470.181C1466.84 470.557 1466.28 471.121 1465.72 471.497Z" fill="#EEF3F8"/>
<path d="M1465.53 462.095C1466.09 460.967 1466.65 460.779 1467.78 460.967C1467.41 462.095 1466.65 461.907 1465.53 462.095Z" fill="#EEF3F8"/>
<path d="M1465.72 475.07C1466.28 474.694 1466.84 474.506 1467.59 474.13C1467.41 475.258 1467.41 475.258 1465.9 475.446C1465.9 475.258 1465.72 475.258 1465.72 475.07Z" fill="#EEF3F8"/>
<path d="M1473.79 461.343C1473.23 461.531 1472.66 461.719 1471.91 462.095C1472.29 460.967 1473.04 460.779 1473.6 460.779C1473.6 461.155 1473.79 461.343 1473.79 461.343Z" fill="#EEF3F8"/>
<path d="M1473.79 465.856C1473.23 466.044 1472.66 466.42 1472.1 466.796C1472.47 465.668 1472.48 465.668 1473.6 465.48C1473.79 465.668 1473.79 465.668 1473.79 465.856Z" fill="#EEF3F8"/>
<path d="M1463.84 463.411C1464.21 463.223 1464.78 462.847 1465.34 462.659C1465.34 463.975 1464.4 463.599 1463.84 463.411Z" fill="#EEF3F8"/>
<path d="M1471.91 470.933C1472.1 469.993 1473.04 470.181 1473.6 469.805C1473.41 470.933 1473.41 470.933 1471.91 470.933Z" fill="#EEF3F8"/>
<path d="M1465.34 467.172C1465.53 465.668 1466.47 465.668 1467.03 465.292C1467.03 465.48 1467.22 465.48 1467.22 465.668C1466.84 466.044 1466.28 466.42 1465.34 467.172Z" fill="#EEF3F8"/>
<path d="M1473.79 457.018C1473.23 457.206 1472.66 457.394 1472.1 457.582C1472.1 457.394 1471.91 457.206 1471.91 457.018C1472.47 456.83 1473.04 456.642 1473.41 456.266C1473.6 456.642 1473.6 456.83 1473.79 457.018Z" fill="#EEF3F8"/>
<rect y="607" width="1440" height="2" fill="#E6EBF0"/>
</g>
<defs>
<clipPath id="clip0">
<rect width="1440" height="609" fill="white"/>
</clipPath>
</defs>
</svg>
