<svg width="20" height="20" viewBox="0 0 20 20" fill="none" xmlns="http://www.w3.org/2000/svg">
<path d="M19.9993 7.84939V4.1935C19.9993 3.83717 19.7105 3.54834 19.3542 3.54834H0.644492L0.298828 4.1935V7.84939L0.966953 8.70963H19.0316L19.9993 7.84939Z" fill="#3DB4EA"/>
<path d="M0 4.1935V7.84939L0.645156 8.42295V3.54834C0.288867 3.54834 0 3.83717 0 4.1935Z" fill="#37A3D4"/>
<path d="M0.304688 12.1503V15.5264C0.304688 15.8828 0.593555 16.1716 0.949844 16.1716H19.3542L19.9993 15.8062V12.1503L19.0318 11.29H0.96707L0.304688 12.1503Z" fill="#259245"/>
<path d="M0.645156 13.8711V11.5771L0 12.1506V15.8065C0 16.1629 0.288867 16.4517 0.645156 16.4517H19.3548C19.7111 16.4517 20 16.1629 20 15.8065H2.58066C1.51172 15.8065 0.645156 14.94 0.645156 13.8711Z" fill="#1F7A3A"/>
<path d="M0.337891 11.6017L0.644492 12.1507H19.9993V7.84961H0.644492L0.337891 8.52879V11.6017Z" fill="#F2F2F6"/>
<path d="M0 7.84961H0.645156V12.1507H0V7.84961Z" fill="#E4E4E8"/>
<path d="M2.11389 5.60034C2.11389 5.02591 2.5176 4.54603 3.05673 4.4283C2.97388 4.41019 2.88789 4.40039 2.79959 4.40039C2.13686 4.40039 1.59961 4.93762 1.59961 5.60037C1.59961 6.26311 2.13682 6.80034 2.79959 6.80034C2.88789 6.80034 2.97386 6.79052 3.05673 6.77243C2.51763 6.65466 2.11389 6.17478 2.11389 5.60034Z" fill="#F0F0F0"/>
<path d="M3.76601 6.14551L3.84722 6.39551H4.11009L3.89744 6.55004L3.97865 6.80004L3.76601 6.64553L3.55331 6.80004L3.63455 6.55004L3.42188 6.39551H3.68474L3.76601 6.14551Z" fill="#F0F0F0"/>
<path d="M4.6058 6.14551L4.68704 6.39551H4.94991L4.73723 6.55004L4.81847 6.80004L4.6058 6.64553L4.39313 6.80004L4.47437 6.55004L4.26172 6.39551H4.52456L4.6058 6.14551Z" fill="#F0F0F0"/>
<path d="M5.44374 6.14551L5.52496 6.39551H5.78785L5.57517 6.55004L5.65639 6.80004L5.44374 6.64553L5.23104 6.80004L5.31231 6.55004L5.09961 6.39551H5.3625L5.44374 6.14551Z" fill="#F0F0F0"/>
<path d="M6.28358 6.14551L6.36482 6.39551H6.62767L6.41502 6.55004L6.49626 6.80004L6.28358 6.64553L6.07089 6.80004L6.15215 6.55004L5.93945 6.39551H6.20232L6.28358 6.14551Z" fill="#F0F0F0"/>
<path d="M7.12143 6.14551L7.20267 6.39551H7.46553L7.25288 6.55004L7.33412 6.80004L7.12143 6.64553L6.90875 6.80004L6.98999 6.55004L6.77734 6.39551H7.04019L7.12143 6.14551Z" fill="#F0F0F0"/>
<path d="M4.6058 5.27246L4.68704 5.52244H4.94991L4.73723 5.67699L4.81847 5.92696L4.6058 5.77246L4.39313 5.92696L4.47437 5.67699L4.26172 5.52244H4.52456L4.6058 5.27246Z" fill="#F0F0F0"/>
<path d="M5.44374 5.27246L5.52496 5.52244H5.78785L5.57517 5.67699L5.65639 5.92696L5.44374 5.77246L5.23104 5.92696L5.31231 5.67699L5.09961 5.52244H5.3625L5.44374 5.27246Z" fill="#F0F0F0"/>
<path d="M6.28358 5.27246L6.36482 5.52244H6.62767L6.41502 5.67699L6.49626 5.92696L6.28358 5.77246L6.07089 5.92696L6.15215 5.67699L5.93945 5.52244H6.20232L6.28358 5.27246Z" fill="#F0F0F0"/>
<path d="M7.12143 5.27246L7.20267 5.52244H7.46553L7.25288 5.67699L7.33412 5.92696L7.12143 5.77246L6.90875 5.92696L6.98999 5.67699L6.77734 5.52244H7.04019L7.12143 5.27246Z" fill="#F0F0F0"/>
<path d="M5.44374 4.3999L5.52496 4.64993H5.78785L5.57517 4.80443L5.65639 5.05445L5.44374 4.89995L5.23104 5.05445L5.31231 4.80443L5.09961 4.64993H5.3625L5.44374 4.3999Z" fill="#F0F0F0"/>
<path d="M6.28358 4.3999L6.36482 4.64993H6.62767L6.41502 4.80443L6.49626 5.05445L6.28358 4.89995L6.07089 5.05445L6.15215 4.80443L5.93945 4.64993H6.20232L6.28358 4.3999Z" fill="#F0F0F0"/>
<path d="M7.12143 4.3999L7.20267 4.64993H7.46553L7.25288 4.80443L7.33412 5.05445L7.12143 4.89995L6.90875 5.05445L6.98999 4.80443L6.77734 4.64993H7.04019L7.12143 4.3999Z" fill="#F0F0F0"/>
<rect y="7.83984" width="20" height="0.4" fill="#E5646E"/>
<rect y="7.83984" width="0.644" height="0.4" fill="#DB4655"/>
<rect y="11.7598" width="20" height="0.4" fill="#E5646E"/>
<rect y="11.7603" width="0.644" height="0.4" fill="#DB4655"/>
</svg>
