<svg width="44" height="44" viewBox="0 0 44 44" fill="none" xmlns="http://www.w3.org/2000/svg">
<path d="M39.3616 38.5007H4.63828C4.30955 38.5101 3.98438 38.4306 3.69706 38.2706C3.40973 38.1106 3.17089 37.876 3.00571 37.5917C2.84053 37.3073 2.75514 36.9836 2.75852 36.6548C2.7619 36.326 2.85395 36.0041 3.02494 35.7232L20.4123 5.59237C20.5732 5.31369 20.8046 5.08227 21.0833 4.92138C21.362 4.76048 21.6781 4.67578 21.9999 4.67578C22.3217 4.67578 22.6379 4.76048 22.9166 4.92138C23.1953 5.08227 23.4267 5.31369 23.5876 5.59237L40.9749 35.7232C41.1459 36.0041 41.238 36.326 41.2414 36.6548C41.2448 36.9836 41.1594 37.3073 40.9942 37.5917C40.829 37.876 40.5902 38.1106 40.3028 38.2706C40.0155 38.4306 39.6903 38.5101 39.3616 38.5007Z" fill="url(#paint0_linear)"/>
<g opacity="0.5">
<path opacity="0.5" d="M39.3616 38.5007H4.63828C4.30955 38.5101 3.98438 38.4306 3.69706 38.2706C3.40973 38.1106 3.17089 37.876 3.00571 37.5917C2.84053 37.3073 2.75514 36.9836 2.75852 36.6548C2.7619 36.326 2.85395 36.0041 3.02494 35.7232L20.4123 5.59237C20.5732 5.31369 20.8046 5.08227 21.0833 4.92138C21.362 4.76048 21.6781 4.67578 21.9999 4.67578C22.3217 4.67578 22.6379 4.76048 22.9166 4.92138C23.1953 5.08227 23.4267 5.31369 23.5876 5.59237L40.9749 35.7232C41.1459 36.0041 41.238 36.326 41.2414 36.6548C41.2448 36.9836 41.1594 37.3073 40.9942 37.5917C40.829 37.876 40.5902 38.1106 40.3028 38.2706C40.0155 38.4306 39.6903 38.5101 39.3616 38.5007Z" fill="url(#paint1_linear)"/>
<path opacity="0.5" d="M39.3616 38.5007H4.63828C4.30955 38.5101 3.98438 38.4306 3.69706 38.2706C3.40973 38.1106 3.17089 37.876 3.00571 37.5917C2.84053 37.3073 2.75514 36.9836 2.75852 36.6548C2.7619 36.326 2.85395 36.0041 3.02494 35.7232L20.4123 5.59237C20.5732 5.31369 20.8046 5.08227 21.0833 4.92138C21.362 4.76048 21.6781 4.67578 21.9999 4.67578C22.3217 4.67578 22.6379 4.76048 22.9166 4.92138C23.1953 5.08227 23.4267 5.31369 23.5876 5.59237L40.9749 35.7232C41.1459 36.0041 41.238 36.326 41.2414 36.6548C41.2448 36.9836 41.1594 37.3073 40.9942 37.5917C40.829 37.876 40.5902 38.1106 40.3028 38.2706C40.0155 38.4306 39.6903 38.5101 39.3616 38.5007Z" fill="url(#paint2_linear)"/>
<path opacity="0.5" d="M39.3616 38.5007H4.63828C4.30955 38.5101 3.98438 38.4306 3.69706 38.2706C3.40973 38.1106 3.17089 37.876 3.00571 37.5917C2.84053 37.3073 2.75514 36.9836 2.75852 36.6548C2.7619 36.326 2.85395 36.0041 3.02494 35.7232L20.4123 5.59237C20.5732 5.31369 20.8046 5.08227 21.0833 4.92138C21.362 4.76048 21.6781 4.67578 21.9999 4.67578C22.3217 4.67578 22.6379 4.76048 22.9166 4.92138C23.1953 5.08227 23.4267 5.31369 23.5876 5.59237L40.9749 35.7232C41.1459 36.0041 41.238 36.326 41.2414 36.6548C41.2448 36.9836 41.1594 37.3073 40.9942 37.5917C40.829 37.876 40.5902 38.1106 40.3028 38.2706C40.0155 38.4306 39.6903 38.5101 39.3616 38.5007Z" fill="url(#paint3_linear)"/>
</g>
<path d="M23.8333 32.082C23.8333 32.4446 23.7258 32.7991 23.5243 33.1006C23.3229 33.4021 23.0365 33.6371 22.7015 33.7758C22.3666 33.9146 21.9979 33.9509 21.6423 33.8801C21.2867 33.8094 20.96 33.6348 20.7036 33.3784C20.4472 33.122 20.2726 32.7953 20.2019 32.4397C20.1311 32.0841 20.1674 31.7155 20.3062 31.3805C20.4449 31.0455 20.6799 30.7591 20.9814 30.5577C21.2829 30.3562 21.6374 30.2487 22 30.2487C22.4862 30.2487 22.9525 30.4419 23.2963 30.7857C23.6401 31.1295 23.8333 31.5958 23.8333 32.082ZM22.8488 15.582H21.1511C21.0251 15.5817 20.9003 15.6074 20.7846 15.6575C20.6689 15.7076 20.5648 15.781 20.4788 15.8731C20.3928 15.9652 20.3267 16.0741 20.2846 16.193C20.2426 16.3118 20.2255 16.438 20.2345 16.5638L21.02 27.5638C21.0365 27.7954 21.1403 28.0122 21.3105 28.1703C21.4806 28.3284 21.7045 28.416 21.9367 28.4154H22.0632C22.2955 28.416 22.5193 28.3284 22.6894 28.1703C22.8596 28.0122 22.9634 27.7954 22.9799 27.5638L23.7655 16.5638C23.7744 16.438 23.7573 16.3118 23.7153 16.193C23.6732 16.0741 23.6071 15.9652 23.5211 15.8731C23.4351 15.781 23.331 15.7076 23.2153 15.6575C23.0996 15.6074 22.9749 15.5817 22.8488 15.582Z" fill="url(#paint4_linear)"/>
<defs>
<linearGradient id="paint0_linear" x1="21.9999" y1="4.67662" x2="21.9999" y2="38.5007" gradientUnits="userSpaceOnUse">
<stop stop-color="#FFD782"/>
<stop offset="0.161" stop-color="#FED57C"/>
<stop offset="0.372" stop-color="#FCCE6C"/>
<stop offset="0.61" stop-color="#F9C351"/>
<stop offset="0.867" stop-color="#F4B42B"/>
<stop offset="1" stop-color="#F1AB15"/>
</linearGradient>
<linearGradient id="paint1_linear" x1="21.9999" y1="4.67662" x2="21.9999" y2="38.5007" gradientUnits="userSpaceOnUse">
<stop stop-color="#FFD375" stop-opacity="0"/>
<stop offset="0.382" stop-color="#FFD374" stop-opacity="0.01"/>
<stop offset="0.52" stop-color="#FED171" stop-opacity="0.039"/>
<stop offset="0.619" stop-color="#FCCE6B" stop-opacity="0.092"/>
<stop offset="0.698" stop-color="#FACA63" stop-opacity="0.167"/>
<stop offset="0.766" stop-color="#F7C458" stop-opacity="0.265"/>
<stop offset="0.826" stop-color="#F3BD4A" stop-opacity="0.387"/>
<stop offset="0.881" stop-color="#EFB53B" stop-opacity="0.531"/>
<stop offset="0.931" stop-color="#E9AC28" stop-opacity="0.7"/>
<stop offset="0.975" stop-color="#E4A214" stop-opacity="0.884"/>
<stop offset="1" stop-color="#E09B07"/>
</linearGradient>
<linearGradient id="paint2_linear" x1="140.72" y1="1409.02" x2="1279.71" y2="630.421" gradientUnits="userSpaceOnUse">
<stop stop-color="#FFD375" stop-opacity="0"/>
<stop offset="0.382" stop-color="#FFD374" stop-opacity="0.01"/>
<stop offset="0.52" stop-color="#FED171" stop-opacity="0.039"/>
<stop offset="0.619" stop-color="#FCCE6B" stop-opacity="0.092"/>
<stop offset="0.698" stop-color="#FACA63" stop-opacity="0.167"/>
<stop offset="0.766" stop-color="#F7C458" stop-opacity="0.265"/>
<stop offset="0.826" stop-color="#F3BD4A" stop-opacity="0.387"/>
<stop offset="0.881" stop-color="#EFB53B" stop-opacity="0.531"/>
<stop offset="0.931" stop-color="#E9AC28" stop-opacity="0.7"/>
<stop offset="0.975" stop-color="#E4A214" stop-opacity="0.884"/>
<stop offset="1" stop-color="#E09B07"/>
</linearGradient>
<linearGradient id="paint3_linear" x1="1685.81" y1="1443.21" x2="562.441" y2="613.247" gradientUnits="userSpaceOnUse">
<stop stop-color="#FFD375" stop-opacity="0"/>
<stop offset="0.382" stop-color="#FFD374" stop-opacity="0.01"/>
<stop offset="0.52" stop-color="#FED171" stop-opacity="0.039"/>
<stop offset="0.619" stop-color="#FCCE6B" stop-opacity="0.092"/>
<stop offset="0.698" stop-color="#FACA63" stop-opacity="0.167"/>
<stop offset="0.766" stop-color="#F7C458" stop-opacity="0.265"/>
<stop offset="0.826" stop-color="#F3BD4A" stop-opacity="0.387"/>
<stop offset="0.881" stop-color="#EFB53B" stop-opacity="0.531"/>
<stop offset="0.931" stop-color="#E9AC28" stop-opacity="0.7"/>
<stop offset="0.975" stop-color="#E4A214" stop-opacity="0.884"/>
<stop offset="1" stop-color="#E09B07"/>
</linearGradient>
<linearGradient id="paint4_linear" x1="22" y1="15.582" x2="22" y2="33.9154" gradientUnits="userSpaceOnUse">
<stop stop-color="#4A4A4A"/>
<stop offset="1" stop-color="#212121"/>
</linearGradient>
</defs>
</svg>
